<svg width="161" height="111" viewBox="0 0 161 111" fill="none" xmlns="http://www.w3.org/2000/svg">
<ellipse cx="80.75" cy="97.5" rx="45.25" ry="13.25" fill="#EEEEEE"/>
<path d="M60.8822 57.4698L64.1711 59.2637L64.4701 61.3567L62.6761 64.0476L61.4802 68.8314L62.0782 72.1202L63.2741 73.9141L66.264 74.2131L68.0579 73.6152L67.7589 91.8534L66.563 96.6372L64.7691 98.7301L65.068 100.524L67.7589 101.72L71.0478 101.421L73.4397 100.225L74.9346 98.4311L76.1306 94.2453L78.5225 85.5747H84.2033L86.2962 97.8332L86.8942 99.6271L90.183 101.122H94.0699L95.8638 99.6271L96.1628 98.1321L94.9668 96.6372L94.0699 93.3484V89.4615L95.2658 81.0899L95.5648 75.4091V73.0172L97.0597 73.6152L100.947 74.2131L102.143 73.9141L103.338 72.7182L103.936 70.0273L103.637 67.6354L102.143 64.3465L100.947 61.9546L102.143 57.4698L106.029 55.3769L109.318 51.1911L111.112 46.1083L111.411 43.1184L110.215 38.0356L108.421 33.2518L110.813 27.2721L111.112 22.1893L109.019 16.5085L103.936 10.8277L97.9567 7.83785L90.781 5.44595L83.0073 4.25L75.5326 4.84798L69.8519 6.94089L66.563 8.73482L60.2842 10.8277L56.9954 13.5186L53.4075 17.7044L51.0156 23.3852V29.365L52.2116 36.8397L53.4075 38.6336L53.7065 47.6032L56.0984 53.284L60.8822 57.4698Z" fill="white"/>
<path d="M66.6894 58.7017C66.6894 58.7017 60.0579 65.3691 61.9953 71.4684" stroke="#7C6656" stroke-width="1.5" stroke-linecap="round" stroke-linejoin="round"/>
<path d="M97.2148 57.8345C97.2148 57.8345 105.467 65.8952 103.529 71.9945" stroke="#7C6656" stroke-width="1.5" stroke-linecap="round" stroke-linejoin="round"/>
<path d="M95.2827 79.2719C95.2827 79.2719 69.9943 79.0267 68.3858 78.9131C68.1645 80.9043 68.9179 92.5888 66.6875 96.3501C68.0449 97.3726 75.0233 98.2994 75.0233 98.2994C75.0233 98.2994 78.2464 86.8602 78.4317 85.3234C78.4317 85.3234 84.0707 86.0948 84.2082 85.7778C84.3457 85.4609 84.0706 86.0948 84.0706 86.0948L86.4147 98.3891C86.4147 98.3891 89.4823 96.8165 94.589 96.4098C94.1047 94.0837 93.7937 90.1969 94.1645 87.6136C94.5292 85.0304 95.2887 79.2779 95.2887 79.2779L95.2827 79.2719Z" fill="#8FBDE2"/>
<path d="M67.163 96.7329C67.163 96.7329 65.3092 97.3727 65.0581 98.8557C64.8129 100.339 64.9684 101.744 68.921 101.75C72.2697 101.75 73.8244 100.363 75.0263 98.2996" stroke="#7C6656" stroke-width="1.5" stroke-linecap="round" stroke-linejoin="round"/>
<path d="M84.3477 85.4609C84.3477 85.4609 85.717 97.8869 86.8293 99.3699C87.9415 100.853 91.2124 101.409 93.4967 101.158C95.7809 100.913 96.5224 99.1845 96.0261 98.132C95.5298 97.0796 94.3578 96.6909 94.3578 96.6909" stroke="#7C6656" stroke-width="1.5" stroke-linecap="round" stroke-linejoin="round"/>
<path d="M93.7422 64.3286C93.7422 64.3286 96.0265 71.2472 95.285 79.272C94.5435 87.3028 92.9648 90.1073 94.5853 96.41" stroke="#7C6656" stroke-width="1.5" stroke-linecap="round" stroke-linejoin="round"/>
<path d="M68.514 66.1348C68.514 66.1348 68.1014 81.2695 68.0774 86.8785C68.0535 92.4875 66.5586 96.8348 66.5586 96.8348C66.5586 96.8348 73.1842 96.9305 75.1635 98.2999C75.6239 97.2654 75.7794 96.6435 75.9767 95.6987C76.79 91.7879 78.4284 85.3238 78.4284 85.3238C78.4284 85.3238 85.2812 85.8799 86.824 85.0129" stroke="#7C6656" stroke-width="1.5" stroke-linecap="round" stroke-linejoin="round"/>
<path d="M95.0784 97.0735C95.0784 97.0735 90.2467 96.1227 86.8203 98.6342" stroke="#7C6656" stroke-width="1.5" stroke-linecap="round" stroke-linejoin="round"/>
<path d="M88.7854 60.4717C88.4267 61.6676 87.0812 63.7546 82.9791 64.2868C79.4391 64.7472 76.2459 63.037 74.7031 60.7766" stroke="#7C6656" stroke-width="1.5" stroke-linecap="round" stroke-linejoin="round"/>
<path d="M95.2845 79.272H68.4414" stroke="#7C6656" stroke-width="1.5" stroke-linecap="round" stroke-linejoin="round"/>
<path d="M105.059 12.1912C105.059 12.1912 116.181 20.7781 108.037 31.6493C107.84 31.6314 107.81 32.9649 107.81 32.9649C107.81 32.9649 111.81 38.1673 111.368 42.8494C110.925 47.5316 110.303 56.6567 92.5734 61.3209C87.2275 62.2238 76.4639 62.9055 69.0251 61.2013C63.5776 60.0891 56.6351 56.9377 54.3508 49.1401C54.3508 49.1401 52.7064 43.9198 53.2744 39.6503C52.6286 37.4078 50.3025 32.6121 51.1158 23.9773C51.929 15.3485 59.0987 10.3794 67.1355 8.30438C71.5426 6.15765 78.7542 3.18571 88.86 5.10521C98.9598 7.02471 105.059 12.1852 105.059 12.1852V12.1912Z" fill="white"/>
<path d="M107.428 27.4873C108.074 29.3769 107.781 31.9661 107.816 32.9648C108.492 34.5255 112.116 39.3332 111.285 45.7315C110.454 52.1359 105.305 57.9003 94.2902 60.956C94.2902 60.956 86.4388 62.6363 80.8418 62.3373C76.7875 62.3493 65.1031 61.0457 59.6196 56.7821C55.069 53.2421 53.0598 48.8051 53.5322 38.4901" stroke="#7C6656" stroke-width="1.5" stroke-linecap="round" stroke-linejoin="round"/>
<g filter="url(#filter0_f_574_16261)">
<ellipse cx="98.0631" cy="43.5869" rx="5.41635" ry="2.84595" transform="rotate(0.0337764 98.0631 43.5869)" fill="#F5B0B0"/>
</g>
<g filter="url(#filter1_f_574_16261)">
<ellipse cx="68.4498" cy="43.8369" rx="5.41635" ry="2.84595" transform="rotate(0.0337764 68.4498 43.8369)" fill="#F5B0B0"/>
</g>
<path d="M91.3088 43.8359C91.3088 43.8359 88.8391 46.3893 84.1391 46.6703C79.439 46.9514 76.8438 44.697 76.8438 44.697" stroke="#7C6656" stroke-width="1.5" stroke-linecap="round" stroke-linejoin="round"/>
<path d="M53.0198 38.5257C43.7751 12.6453 67.138 8.31002 67.138 8.31002C82.6076 -1.11407 101.264 9.45216 101.264 9.45216C101.264 9.45216 114.892 16.7475 110.043 29.1674" stroke="#7C6656" stroke-width="1.5" stroke-linecap="round" stroke-linejoin="round"/>
<path d="M69.7742 15.9941C69.7742 15.9941 69.1284 24.4854 83.0313 28.2048" stroke="#7C6656" stroke-width="1.5" stroke-linecap="round" stroke-linejoin="round"/>
<path d="M67.0535 21.1372C67.0535 21.1372 59.5548 26.3695 58.3828 34.5438" stroke="#7C6656" stroke-width="1.5" stroke-linecap="round" stroke-linejoin="round"/>
<path d="M97.5363 27.5053C97.5363 27.5053 87.8372 25.3586 83.9922 16.981" stroke="#7C6656" stroke-width="1.5" stroke-linecap="round" stroke-linejoin="round"/>
<path d="M79.252 10.744C79.252 10.744 75.3412 12.5858 75.7897 15.6773C76.1366 18.0512 77.3863 19.014 81.4825 20.8259C85.5786 22.6377 92.6646 18.4519 96.079 13.3512C93.0054 10.744 87.51 5.75089 79.252 10.744Z" fill="#1BAE91"/>
<path d="M77.1586 18.1886C77.1586 18.1886 86.3076 27.8638 96.222 13.1297C96.222 13.1297 87.1687 3.69364 76.3633 12.7649" stroke="#7C6656" stroke-width="1.5" stroke-linecap="round" stroke-linejoin="round"/>
<path d="M86.4875 14.7503C86.5054 14.8818 78.3012 18.1049 73.332 13.6201" stroke="#7C6656" stroke-width="1.5" stroke-linecap="round" stroke-linejoin="round"/>
<path d="M76.0939 39.0042C76.0939 39.0042 75.3106 37.5392 73.2595 37.6947C70.9573 37.8621 70.168 40.1284 70.168 40.1284" stroke="#7C6656" stroke-width="1.5" stroke-linecap="round" stroke-linejoin="round"/>
<path d="M90.7617 37.9277C90.7617 37.9277 91.3238 36.367 93.3749 36.2116C95.6771 36.0441 96.7893 38.1669 96.7893 38.1669" stroke="#7C6656" stroke-width="1.5" stroke-linecap="round" stroke-linejoin="round"/>
<path d="M66.1698 63.1328C62.8451 60.2745 63.1321 55.5325 64.9201 52.5785C66.708 49.6245 70.1105 49.2358 70.1105 49.2358C70.6487 48.5781 72.7057 47.2685 74.1707 46.9097C75.6358 46.5509 78.6795 46.3715 81.3046 47.6572C83.9297 48.9428 84.2885 52.3692 82.2913 52.8177C80.294 53.2662 79.9651 51.6875 78.0217 51.6218C74.4757 51.5022 73.3754 54.0316 73.812 56.7943C74.105 58.6241 76.8856 59.6884 76.8856 59.6884C76.8856 59.6884 79.5107 60.4479 81.3046 60.8007C83.5709 61.2432 83.4214 63.7009 83.4214 63.7009C83.1703 65.8954 81.3524 66.6788 79.8515 66.2901C76.2218 65.3573 74.2664 65.9074 73.2499 66.0091C73.2499 66.0091 72.5921 71.5762 68.5318 73.4658C64.651 75.2777 62.7793 73.4538 62.3727 72.7841C62.1873 72.4791 61.2365 70.2965 63.2936 67.9943C65.1294 65.9373 66.1698 63.1268 66.1698 63.1268V63.1328Z" fill="white" stroke="#7C6656" stroke-width="1.5" stroke-linecap="round" stroke-linejoin="round"/>
<path d="M82.7982 55.1076C82.3377 54.2406 81.1836 53.6964 80.2149 54.4678C79.3658 55.1555 79.2402 56.5547 79.9697 57.7028C80.5916 58.6775 81.6859 59.4071 82.7742 59.8316C83.8626 59.419 84.9688 58.7015 85.5967 57.7327C86.3382 56.5906 86.2305 55.1854 85.3814 54.4977C84.4187 53.7084 83.2526 54.2406 82.7982 55.1017V55.1076Z" fill="#EE7474"/>
<path d="M99.3552 63.1328C102.68 60.2745 102.393 55.5325 100.605 52.5785C98.817 49.6245 95.4145 49.2358 95.4145 49.2358C94.8763 48.5781 92.8193 47.2685 91.3543 46.9097C89.8892 46.5509 86.8455 46.3715 84.2204 47.6572C81.5953 48.9428 81.2365 52.3692 83.2338 52.8177C85.231 53.2662 85.5599 51.6875 87.5033 51.6218C91.0493 51.5022 92.1556 54.0316 91.7131 56.7943C91.42 58.6241 88.6395 59.6884 88.6395 59.6884C88.6395 59.6884 86.0143 60.4479 84.2204 60.8007C81.9541 61.2432 82.1036 63.7009 82.1036 63.7009C82.3547 65.8954 84.1726 66.6788 85.6735 66.2901C89.3032 65.3573 91.2586 65.9074 92.2752 66.0091C92.2752 66.0091 92.9329 71.5762 96.9932 73.4658C100.874 75.2777 102.746 73.4538 103.152 72.7841C103.338 72.4791 104.288 70.2965 102.231 67.9943C100.396 65.9373 99.3552 63.1268 99.3552 63.1268V63.1328Z" fill="white" stroke="#7C6656" stroke-width="1.5" stroke-linecap="round" stroke-linejoin="round"/>
<path d="M55.368 65.2734C55.368 65.2734 51.4453 71.8033 59.3804 76.043" stroke="#7C6656" stroke-width="1.5" stroke-linecap="round" stroke-linejoin="round"/>
<path d="M49.9334 63.8384C49.9334 63.8384 46.0226 75.1939 56.9118 79.4097" stroke="#7C6656" stroke-width="1.5" stroke-linecap="round" stroke-linejoin="round"/>
<path d="M108.653 65.4468C108.653 65.4468 112.576 71.9767 104.641 76.2163" stroke="#7C6656" stroke-width="1.5" stroke-linecap="round" stroke-linejoin="round"/>
<path d="M114.092 64.0059C114.092 64.0059 118.002 75.3614 107.113 79.5771" stroke="#7C6656" stroke-width="1.5" stroke-linecap="round" stroke-linejoin="round"/>
<defs>
<filter id="filter0_f_574_16261" x="90.0979" y="38.1906" width="15.9332" height="10.7931" filterUnits="userSpaceOnUse" color-interpolation-filters="sRGB">
<feFlood flood-opacity="0" result="BackgroundImageFix"/>
<feBlend mode="normal" in="SourceGraphic" in2="BackgroundImageFix" result="shape"/>
<feGaussianBlur stdDeviation="1.27529" result="effect1_foregroundBlur_574_16261"/>
</filter>
<filter id="filter1_f_574_16261" x="60.4846" y="38.4406" width="15.9332" height="10.7931" filterUnits="userSpaceOnUse" color-interpolation-filters="sRGB">
<feFlood flood-opacity="0" result="BackgroundImageFix"/>
<feBlend mode="normal" in="SourceGraphic" in2="BackgroundImageFix" result="shape"/>
<feGaussianBlur stdDeviation="1.27529" result="effect1_foregroundBlur_574_16261"/>
</filter>
</defs>
</svg>
