<svg width="50" height="50" viewBox="0 0 50 50" fill="none" xmlns="http://www.w3.org/2000/svg">
<ellipse cx="25" cy="46.25" rx="18" ry="3.75" fill="#EEEEEE"/>
<path d="M12.9511 14.2087L13.3572 15.1564L13.0865 19.218L14.0342 22.0611L16.6065 24.4981L20.262 26.2581L18.9081 33.4337V35.3291H19.8558L19.7205 38.443L19.5851 41.8277L19.1789 43.3169L18.502 44.1293V45.077L19.0435 45.4831L19.9912 45.6185L21.6159 45.4831L22.9697 44.2647L23.6467 41.5569L24.5944 38.1722L27.1668 38.3076L27.9791 43.9939L28.3852 44.6708L29.1976 45.2124L30.6868 45.4831L31.9053 45.3478L32.4469 44.6708L32.5823 44.1293L31.9053 43.3169L31.4992 41.5569V39.2553L32.0407 35.7352L32.4469 35.3291L32.1761 33.1629L34.6131 33.569L34.8838 33.2983L35.29 32.2152H37.05L37.9977 31.5382L38.1331 30.5905L37.8624 29.2367L36.9146 28.2889L38.4039 24.3627L38.8101 22.8734L38.5393 22.4673L38.9455 21.655L39.2162 19.0826L38.8101 16.5102L38.2685 15.021L39.487 12.8548L39.8932 11.0947V8.92855L38.6747 6.35619L36.3731 4.05461L33.2592 2.29457L30.2807 1.34686L26.3544 0.669922L23.3759 1.07608L21.0743 1.88841L19.4497 2.29457L17.4189 2.83612L14.5757 5.00232L13.0865 7.43929L12.5449 10.4178L12.9511 14.2087Z" fill="white"/>
<g filter="url(#filter0_f_466_8651)">
<ellipse cx="33.6012" cy="19.7062" rx="2.1662" ry="1.21849" transform="rotate(-0.0675584 33.6012 19.7062)" fill="#F5B0B0"/>
</g>
<g filter="url(#filter1_f_466_8651)">
<ellipse cx="20.8044" cy="19.4913" rx="2.1662" ry="1.21849" transform="rotate(-0.0675584 20.8044 19.4913)" fill="#F5B0B0"/>
</g>
<path d="M32.1359 35.4916C32.1359 35.4916 20.6849 35.3805 19.9565 35.3291C19.8563 36.2308 20.1975 41.5217 19.1875 43.2249C19.8022 43.6879 22.9621 44.1076 22.9621 44.1076C22.9621 44.1076 24.4216 38.9277 24.5055 38.2318C24.5055 38.2318 27.0589 38.5811 27.1212 38.4376C27.1835 38.2941 27.0589 38.5811 27.0589 38.5811L28.1204 44.1482C28.1204 44.1482 29.5094 43.4361 31.8219 43.252C31.6025 42.1987 31.4617 40.4386 31.6296 39.2689C31.7948 38.0991 32.1387 35.4943 32.1387 35.4943L32.1359 35.4916Z" fill="#8EBDE2"/>
<path d="M19.3986 43.3984C19.3986 43.3984 18.5592 43.6882 18.4455 44.3597C18.3345 45.0312 18.4049 45.6675 20.1947 45.6702C21.711 45.6702 22.415 45.042 22.9593 44.1079" stroke="#7C6656" stroke-linecap="round" stroke-linejoin="round"/>
<path d="M27.1797 38.2939C27.1797 38.2939 27.7998 43.9206 28.3034 44.5922C28.807 45.2637 30.2882 45.5155 31.3225 45.4018C32.3569 45.2908 32.6927 44.5082 32.4679 44.0317C32.2432 43.5551 31.7125 43.3791 31.7125 43.3791" stroke="#7C6656" stroke-linecap="round" stroke-linejoin="round"/>
<path d="M31.4375 28.7246C31.4375 28.7246 32.4719 31.8575 32.1361 35.4913C31.8003 39.1278 31.0855 40.3977 31.8193 43.2517" stroke="#7C6656" stroke-linecap="round" stroke-linejoin="round"/>
<path d="M20.0104 29.543C20.0104 29.543 19.8236 36.3963 19.8128 38.9361C19.8019 41.476 19.125 43.4445 19.125 43.4445C19.125 43.4445 22.1252 43.4879 23.0214 44.1079C23.2299 43.6395 23.3003 43.3579 23.3897 42.9301C23.758 41.1592 24.4999 38.2321 24.4999 38.2321C24.4999 38.2321 27.603 38.484 28.3016 38.0913" stroke="#7C6656" stroke-linecap="round" stroke-linejoin="round"/>
<path d="M32.0441 43.5526C32.0441 43.5526 29.8562 43.1221 28.3047 44.2593" stroke="#7C6656" stroke-linecap="round" stroke-linejoin="round"/>
<path d="M20.1915 26.429C20.1915 26.429 18.7916 32.313 18.9216 35.416C18.9216 35.416 29.8122 35.7274 32.4387 35.3294C32.4387 35.3294 31.9973 28.43 30.833 25.7656" fill="white"/>
<path d="M20.1915 26.429C20.1915 26.429 18.7916 32.313 18.9216 35.416C18.9216 35.416 29.8122 35.7274 32.4387 35.3294C32.4387 35.3294 31.9973 28.43 30.833 25.7656" stroke="#7C6656" stroke-linecap="round" stroke-linejoin="round"/>
<path d="M29.0379 26.9785C28.8754 27.5201 28.2662 28.4651 26.4087 28.7061C24.8057 28.9146 23.3597 28.1401 22.6611 27.1166" stroke="#7C6656" stroke-linecap="round" stroke-linejoin="round"/>
<path d="M38.1463 12.3486C38.3548 13.2287 38.1084 14.3849 38.0786 14.8343C38.3142 15.5681 39.7357 17.8941 39.0778 20.7426C38.4225 23.5912 35.8474 25.9632 30.746 26.854C30.746 26.854 27.7594 27.2196 26.7061 27.0842" stroke="#7C6656" stroke-linecap="round" stroke-linejoin="round"/>
<path d="M24.6264 26.8807C21.2417 26.7345 17.5889 25.6054 15.3063 23.4392C13.4109 21.6412 12.7014 19.5563 13.3703 14.9287" stroke="#7C6656" stroke-linecap="round" stroke-linejoin="round"/>
<path d="M33.5869 16.7706C33.5571 17.5315 32.9181 18.1245 32.1572 18.0947C31.3963 18.0649 30.8033 17.4259 30.8331 16.665C30.8629 15.9041 31.5019 15.3111 32.2628 15.3409C33.0237 15.3707 33.6167 16.0097 33.5869 16.7706Z" fill="#7C6656"/>
<path d="M30.8414 20.6605C30.8414 20.6605 29.6012 22.0685 27.4702 21.9873C25.3419 21.906 24.2832 20.4141 24.2832 20.4141" stroke="#7C6656" stroke-linecap="round" stroke-linejoin="round"/>
<path d="M13.1403 14.9207C10.1158 2.84957 20.8357 1.92623 20.8357 1.92623C28.2225 -1.63987 36.1643 3.94621 36.1643 3.94621C36.1643 3.94621 41.9859 7.83724 39.2511 13.2202" stroke="#7C6656" stroke-linecap="round" stroke-linejoin="round"/>
<path d="M21.6835 5.81445C21.6835 5.81445 21.0174 9.61342 27.118 11.9015" stroke="#7C6656" stroke-linecap="round" stroke-linejoin="round"/>
<path d="M20.2317 8.01074C20.2317 8.01074 16.6223 10.0388 15.7314 13.6699" stroke="#7C6656" stroke-linecap="round" stroke-linejoin="round"/>
<path d="M33.6893 12.2264C33.6893 12.2264 29.4138 10.8319 28.0518 6.88672" stroke="#7C6656" stroke-linecap="round" stroke-linejoin="round"/>
<path d="M26.1883 3.8623C26.1883 3.8623 24.3443 4.51757 24.412 5.93372C24.4634 7.01953 24.9833 7.50963 26.7488 8.50608C28.5142 9.50254 31.8935 7.92933 33.6562 5.78209C32.3863 4.47154 30.128 1.98041 26.1883 3.8623Z" fill="#1AAF92"/>
<path d="M24.9153 7.12798C24.9153 7.12798 28.6113 11.8909 33.7317 5.69017C33.7317 5.69017 30.0681 1.03825 24.7988 4.65039" stroke="#7C6656" stroke-linecap="round" stroke-linejoin="round"/>
<path d="M29.2691 5.99086C29.2691 6.05043 25.4323 7.14165 23.3906 4.90234" stroke="#7C6656" stroke-linecap="round" stroke-linejoin="round"/>
<path d="M24.1503 16.4128C24.1503 16.4128 23.124 14.9046 21.3965 16.3099" stroke="#7C6656" stroke-linecap="round" stroke-linejoin="round"/>
<path d="M27.5631 28.4051C27.5631 28.4051 28.4675 28.554 29.4748 27.4249C30.195 26.618 29.1255 25.0204 29.1255 25.0204C29.1255 25.0204 30.371 24.9635 29.9459 24.2433C28.9738 23.3335 27.3763 24.0375 26.3256 24.7415C25.275 25.4482 25.6325 28.1045 24.6983 28.3672C23.7641 28.6298 22.2099 27.1758 22.2099 27.1758L21.625 30.7013C21.625 30.7013 24.8201 32.946 27.3708 30.3438C27.6849 29.9241 28.1398 29.0522 28.2102 28.5459" fill="white"/>
<path d="M22.3184 27.1295C22.3184 27.1295 23.8699 28.5836 24.8068 28.3209C25.7437 28.0583 25.3835 25.402 26.4341 24.6953C27.4847 23.9885 29.0823 23.2872 30.0544 24.197C30.4795 24.9173 29.2339 24.9741 29.2339 24.9741C29.2339 24.9741 30.3035 26.5717 29.5832 27.3786C28.576 28.5078 27.6716 28.3588 27.6716 28.3588" stroke="#7C6656" stroke-linecap="round" stroke-linejoin="round"/>
<path d="M28.3377 28.2695C28.3377 28.2695 28.2971 30.3707 25.9982 31.3428C23.6994 32.3149 21.4492 30.5982 21.4492 30.5982" stroke="#7C6656" stroke-linecap="round" stroke-linejoin="round"/>
<path d="M23.9102 28.2891L22.8623 31.3353" stroke="#7C6656" stroke-linecap="round" stroke-linejoin="round"/>
<path d="M21.947 26.9053C21.947 26.9053 23.6448 28.2131 23.9101 28.2889C23.5744 29.2691 22.8676 31.4651 22.8676 31.4651C22.8676 31.4651 21.2944 30.5716 20.7285 30.0842" fill="white"/>
<path d="M21.947 26.9053C21.947 26.9053 23.6448 28.2131 23.9101 28.2889C23.5744 29.2691 22.8676 31.4651 22.8676 31.4651C22.8676 31.4651 21.2944 30.5716 20.7285 30.0842" stroke="#7C6656" stroke-linecap="round" stroke-linejoin="round"/>
<path d="M28.6139 31.8728L32.4534 21.6348C32.5374 21.41 32.773 21.2773 33.0112 21.3207L38.3915 22.3144C38.6975 22.3713 38.8762 22.6881 38.7679 22.9778L34.9283 33.2158C34.8444 33.4405 34.6088 33.5732 34.3705 33.5299L28.9902 32.5362C28.6843 32.4793 28.5055 32.1625 28.6139 31.8728Z" fill="#DDF1FD" stroke="#7C6656" stroke-linecap="round" stroke-linejoin="round"/>
<path d="M34.2809 23.5634C34.0616 23.5228 33.9154 23.3116 33.956 23.0895C33.9966 22.8702 34.2078 22.724 34.4299 22.7646C34.6492 22.8052 34.7954 23.0164 34.7548 23.2384C34.7142 23.4605 34.503 23.604 34.2809 23.5634Z" fill="#7C6656"/>
<path d="M33.3337 23.3895C33.1143 23.3489 32.9681 23.1377 33.0087 22.9157C33.0493 22.6964 33.2605 22.5501 33.4826 22.5908C33.7019 22.6314 33.8481 22.8426 33.8075 23.0646C33.7669 23.2867 33.5557 23.4302 33.3337 23.3895Z" fill="#7C6656"/>
<path d="M33.9186 24.4022C33.6993 24.3616 33.5531 24.1504 33.5937 23.9284C33.6343 23.7091 33.8455 23.5628 34.0675 23.6035C34.2869 23.6441 34.4331 23.8553 34.3925 24.0773C34.3519 24.2993 34.1407 24.4429 33.9186 24.4022Z" fill="#7C6656"/>
<path d="M32.9733 24.2294C32.754 24.1888 32.6078 23.9776 32.6484 23.7555C32.689 23.5362 32.9002 23.39 33.1222 23.4306C33.3416 23.4712 33.4878 23.6824 33.4472 23.9045C33.4065 24.1265 33.1953 24.27 32.9733 24.2294Z" fill="#7C6656"/>
<path d="M37.9507 29.4136C36.938 27.353 34.0922 28.585 34.3819 30.6916C34.6581 32.7035 36.7837 32.4679 37.4606 31.9291C38.1376 31.3902 38.4408 30.4073 37.9507 29.4136Z" fill="white" stroke="#7C6656" stroke-linecap="round" stroke-linejoin="round"/>
<defs>
<filter id="filter0_f_466_8651" x="30.4346" y="17.4873" width="6.33301" height="4.4375" filterUnits="userSpaceOnUse" color-interpolation-filters="sRGB">
<feFlood flood-opacity="0" result="BackgroundImageFix"/>
<feBlend mode="normal" in="SourceGraphic" in2="BackgroundImageFix" result="shape"/>
<feGaussianBlur stdDeviation="0.5" result="effect1_foregroundBlur_466_8651"/>
</filter>
<filter id="filter1_f_466_8651" x="17.6377" y="17.2725" width="6.33301" height="4.4375" filterUnits="userSpaceOnUse" color-interpolation-filters="sRGB">
<feFlood flood-opacity="0" result="BackgroundImageFix"/>
<feBlend mode="normal" in="SourceGraphic" in2="BackgroundImageFix" result="shape"/>
<feGaussianBlur stdDeviation="0.5" result="effect1_foregroundBlur_466_8651"/>
</filter>
</defs>
</svg>
