<svg width="50" height="51" viewBox="0 0 50 51" fill="none" xmlns="http://www.w3.org/2000/svg">
<ellipse cx="25" cy="47.25" rx="18" ry="3.75" fill="#EEEEEE"/>
<path d="M20.0299 9.61643L20.419 11.5617L20.1596 12.3399L18.4736 14.1555L17.6955 16.2305L17.5658 18.3055L18.0846 20.2508L19.5112 22.5852L21.4565 24.4009L23.4018 25.568L20.2893 25.9571L17.8252 26.8649L16.269 28.2915L15.7502 28.9399L14.9721 29.1993L14.1939 29.8477L13.9346 30.8852L14.1939 32.1821L15.4908 33.3493L16.5283 33.479L17.9549 32.7009L18.4736 31.6634L18.2143 30.6259L18.9924 29.8477L21.4565 29.1993L23.4018 29.7181L24.1799 33.6087L24.569 35.2946L25.3471 36.5915L26.7737 37.7587L28.719 38.2775L28.5893 38.5368L27.033 40.3525L25.4768 40.8712L24.6987 41.39L24.3096 42.5572V43.465L25.4768 44.3728L26.3846 44.6322L27.4221 44.3728L27.9409 43.854L28.0706 43.0759L29.3674 42.6868L31.7018 41.5197L33.1284 40.0931L33.9065 39.1853L34.1659 38.1478L34.4253 38.0181L35.4628 37.8884L36.63 38.2775L37.9268 39.1853L39.8722 38.9259L40.9097 38.0181L41.169 36.3321V35.4243L40.3909 34.7759L39.3534 34.6462L38.3159 35.1649L37.5378 34.7759L35.0737 33.9978L34.8143 32.4415L34.4253 31.2743L36.63 31.5337L38.9643 31.0149L40.1315 30.1071L40.9097 29.8477L42.3362 29.329L42.855 28.4212L42.7253 27.3837L42.0768 26.0868L40.5206 25.8274L39.4831 26.3462L38.9643 26.8649L38.8346 27.7727L38.4456 28.1618L36.5003 28.4212L34.944 28.1618L33.7768 27.5134L38.1862 26.8649L40.2612 25.6977L42.0768 23.104L42.5956 21.6774L42.9847 20.2508L43.8925 19.6024L44.6706 17.7868L45.5784 15.5821V13.5071L44.8003 10.7836L42.855 8.44924L40.9097 6.89298L38.5753 5.07735L35.7221 3.78047L29.4971 2.61328L26.7737 2.87266L23.9205 3.78047L21.4565 5.5961L20.2893 7.67111L20.0299 9.61643Z" fill="white"/>
<g filter="url(#filter0_f_466_8595)">
<ellipse cx="34.5079" cy="20.5482" rx="2.07501" ry="1.16719" transform="rotate(11.9215 34.5079 20.5482)" fill="#F5B0B0"/>
</g>
<g filter="url(#filter1_f_466_8595)">
<ellipse cx="22.5606" cy="17.8011" rx="2.07501" ry="1.16719" transform="rotate(11.9215 22.5606 17.8011)" fill="#F5B0B0"/>
</g>
<path d="M29.98 33.751L24.6758 35.302C24.6758 35.302 25.2075 37.8154 28.6442 38.22C28.1151 39.7348 27.3007 40.1679 25.2101 41.0291C25.3865 42.1963 25.8352 42.8343 28.0632 43.143C28.0632 43.143 29.508 42.7747 30.299 42.3752C31.0901 41.9758 34.06 40.3936 34.3142 37.8932C35.1494 37.8932 36.5915 38.0981 37.559 38.9359C37.297 38.0462 37.8624 35.8156 38.5213 35.0868C37.0039 34.5395 36.0287 34.1426 34.628 34.083C34.628 34.083 33.4193 34.0052 29.9826 33.751H29.98Z" fill="#8EBDE2"/>
<path d="M32.6285 17.0705C32.4262 17.7708 32.8282 18.5023 33.5285 18.7046C34.2289 18.9069 34.9603 18.5049 35.1626 17.8046C35.3649 17.1042 34.9629 16.3728 34.2626 16.1705C33.5623 15.9682 32.8308 16.3702 32.6285 17.0705Z" fill="#7C6656"/>
<path d="M23.939 14.9172C23.7367 15.6175 24.1388 16.349 24.8391 16.5513C25.5394 16.7536 26.2708 16.3516 26.4732 15.6512C26.6755 14.9509 26.2734 14.2195 25.5731 14.0172C24.8728 13.8149 24.1414 14.2169 23.939 14.9172Z" fill="#7C6656"/>
<path d="M20.9609 9.99414C20.699 10.6426 20.4759 11.3351 20.2865 12.064C19.8508 12.6605 17.8588 14.3465 17.5968 17.1348C17.3348 19.923 18.9974 23.2457 23.3653 25.5956C23.3653 25.5956 23.4769 25.6475 23.6662 25.7279" stroke="#7C6656" stroke-linecap="round" stroke-linejoin="round"/>
<path d="M33.4189 27.4171C35.2035 27.4534 37.1125 27.2434 38.552 26.6805C40.5492 25.8998 42.1884 23.9233 43.0859 19.9082" stroke="#7C6656" stroke-linecap="round" stroke-linejoin="round"/>
<path d="M31.2474 19.2382L26.3452 18.0762C26.3452 18.0762 22.5765 20.9967 25.6008 23.2948C28.1582 25.2375 32.4405 23.7435 31.3589 19.2408" fill="#F299A0"/>
<path d="M31.2474 19.2382L26.3452 18.0762C26.3452 18.0762 22.5765 20.9967 25.6008 23.2948C28.1582 25.2375 32.4405 23.7435 31.3589 19.2408" stroke="#7C6656" stroke-linecap="round" stroke-linejoin="round"/>
<path d="M38.518 35.0893C38.518 35.0893 39.4803 34.2256 40.427 34.8092C41.851 35.6911 41.1611 37.818 40.274 38.5105C39.3947 39.1978 38.3572 39.5324 36.8295 38.4171C35.2992 37.3018 33.1126 38.3186 29.3776 38.2226C25.6452 38.1292 24.2498 35.4836 24.2186 34.223C24.1875 32.9624 23.4846 29.8214 23.4846 29.8214C20.066 28.1614 18.3023 30.6696 18.3023 30.6696C18.7432 32.0183 18.3023 32.882 16.9172 33.3489C15.3428 33.8703 13.8125 32.5578 13.9033 30.8485C13.994 29.1392 15.8823 28.8695 15.8823 28.8695C19.1219 24.2811 25.2535 26.0682 25.2535 26.0682C25.2535 26.0682 26.6101 26.3665 26.7683 26.4495" stroke="#7C6656" stroke-linecap="round" stroke-linejoin="round"/>
<path d="M38.4482 35.3043C38.4482 35.3043 36.0204 33.2345 30.8926 34.3135" stroke="#7C6656" stroke-linecap="round" stroke-linejoin="round"/>
<path d="M34.3115 37.8955C34.3115 37.8955 33.1988 42.4242 27.8193 43.0182" stroke="#7C6656" stroke-linecap="round" stroke-linejoin="round"/>
<path d="M28.6411 38.2227C28.6411 38.2227 28.4077 39.7659 26.4753 40.5363C25.4456 40.9461 24.626 40.9565 24.2914 42.3675C23.962 43.7526 25.5027 44.5307 26.5272 44.5307C27.5518 44.5307 28.1483 43.9782 28.0601 43.1404" stroke="#7C6656" stroke-linecap="round" stroke-linejoin="round"/>
<path d="M33.3926 28.7793C33.3926 28.7793 34.2667 30.5664 35.0941 33.8968" stroke="#7C6656" stroke-linecap="round" stroke-linejoin="round"/>
<path d="M14.1945 38.017L14.843 39.5733L14.4539 40.7404L14.7133 41.9076H14.4539H13.6758L13.0274 42.0373L12.1195 41.9076L11.3414 41.1295L10.5633 40.2217L9.52578 39.8326L9.13672 40.092L9.26641 40.6108L9.78516 40.8701L10.3039 41.1295L10.8227 41.7779L11.9899 42.6858L12.768 42.8155L13.0274 43.9826L12.8977 45.5389L13.0274 46.1873L13.6758 46.0577L14.0649 45.6686L14.4539 44.6311L15.1024 45.1498L15.8805 45.5389L16.2696 45.4092L16.1399 44.8905L15.6211 44.242H15.8805H16.3992L16.6586 44.5014L17.3071 46.317L17.9555 46.4467L18.3446 46.1873V45.5389L17.9555 43.9826L18.0852 43.5936L18.7336 43.4639L20.2899 44.5014H20.8086L20.9383 43.853L20.8086 43.2045L19.7711 42.5561L21.068 41.6483L21.7164 39.9623V38.4061L21.068 37.8873L19.6414 37.1092L16.7883 35.6826H16.3992L16.5289 36.3311L16.918 37.8873L14.9727 36.9795L13.9352 36.7201L14.1945 38.017Z" fill="white"/>
<path d="M13.0381 41.96C12.2781 42.0066 11.7282 41.7421 11.404 41.1689C11.1472 40.7201 10.7556 40.3726 10.2965 40.1729C10.2109 40.4193 10.1227 40.6631 10.0371 40.9095C10.2757 41.021 10.5377 41.2155 10.7296 41.5527C10.9605 41.9574 11.4715 42.585 12.4804 42.7173C12.5453 42.7251 12.6127 42.7329 12.6827 42.7355L13.3364 41.9574C13.3208 41.9574 13.0796 41.9574 13.0407 41.9574L13.0381 41.96Z" fill="#E1B995"/>
<path d="M12.6802 42.7378C12.6102 42.7326 12.5427 42.7274 12.4779 42.7196C11.4715 42.5873 10.9579 41.9596 10.7271 41.555C10.3458 40.8832 9.6844 40.7795 9.49247 40.7613C9.28237 40.7458 9.11896 40.5538 9.13712 40.3411C9.15528 40.1259 9.34462 39.9676 9.55731 39.9858C10.3328 40.0454 11.0176 40.4942 11.4015 41.1685C11.7257 41.7418 12.2756 42.0063 13.0355 41.9596C13.0719 41.9596 13.3157 41.9596 13.3312 41.9596" stroke="#7C6656" stroke-linecap="round" stroke-linejoin="round"/>
<path d="M16.2908 43.2541C16.3427 43.28 16.0133 43.7106 16.3972 44.2734C15.6735 44.2449 15.7202 44.1411 15.7202 44.1411C15.7202 44.1411 16.6825 45.2902 16.0626 45.5184C15.5127 45.3602 14.6593 44.6469 14.4752 44.5328C14.3403 44.4498 14.457 44.9997 14.457 44.9997C14.457 44.9997 13.8812 46.351 13.2924 46.1928C12.7011 46.0113 13.0305 45.0464 12.9526 44.0815C12.8748 43.1166 12.7918 42.2529 13.3236 42.061C13.8553 41.869 14.7657 41.8379 14.7657 41.8379C14.7657 41.8379 15.5386 42.8832 16.2934 43.2593L16.2908 43.2541Z" fill="#E1B995"/>
<path d="M21.3958 38.2819C21.3958 38.2819 21.3128 38.601 20.5762 38.8007C19.5776 39.073 18.2885 38.3727 17.6375 38.8007C16.9864 39.2287 17.3807 40.8186 17.1239 41.3893C16.8671 41.9573 16.3613 42.7354 15.1267 42.6524C14.8336 42.4371 14.2863 40.51 14.8388 39.4102C14.7117 38.8967 13.6586 37.356 13.9206 36.7931C14.1826 36.2303 16.6804 37.7632 16.6804 37.7632C16.6804 37.7632 16.9786 38.0407 16.8827 37.5479C16.7867 37.0551 16.2109 35.6467 16.4729 35.6622C16.7348 35.6778 19.2326 36.5623 19.5257 37.0214C19.9692 37.2029 21.0508 37.522 21.3984 38.2845L21.3958 38.2819Z" fill="#E1B995"/>
<path d="M15.2578 38.0371C15.2578 38.0371 15.6754 39.0798 15.6417 38.9942C15.608 38.906 16.1786 38.5195 16.1786 38.5195" stroke="#7C6656" stroke-linecap="round" stroke-linejoin="round"/>
<path d="M17.6367 37.0547L17.9661 37.6279L18.5056 37.4567" stroke="#7C6656" stroke-linecap="round" stroke-linejoin="round"/>
<path d="M16.8976 37.7603C16.8976 37.7603 16.2284 35.8825 16.4696 35.6594C16.7108 35.4363 19.3201 36.7903 19.6677 37.2416C19.6677 37.2416 21.5378 37.6566 21.7116 38.7823C21.8854 39.908 21.6078 41.3631 20.0853 42.3668C18.5627 43.3706 16.1713 43.7182 15.0638 42.3668C13.9562 41.0155 14.8381 39.41 14.8381 39.41C14.8381 39.41 13.9199 37.0004 13.9199 36.7929C13.9199 36.5854 16.3788 37.2986 16.8976 38.1027L17.2892 37.9393" stroke="#7C6656" stroke-linecap="round" stroke-linejoin="round"/>
<path d="M19.7559 39.874C19.7559 39.874 19.6392 40.2216 19.0427 40.0374C19.0427 40.0374 19.1801 40.6573 18.6406 40.6988" stroke="#7C6656" stroke-linecap="round" stroke-linejoin="round"/>
<path d="M19.8079 38.8629C19.8079 39.0886 19.6238 39.2728 19.3981 39.2728C19.1724 39.2728 18.9883 39.0886 18.9883 38.8629C18.9883 38.6373 19.1724 38.4531 19.3981 38.4531C19.6238 38.4531 19.8079 38.6373 19.8079 38.8629Z" fill="#7C6656"/>
<path d="M17.8763 40.0993C17.8763 40.3249 17.6921 40.5091 17.4665 40.5091C17.2408 40.5091 17.0566 40.3249 17.0566 40.0993C17.0566 39.8736 17.2408 39.6895 17.4665 39.6895C17.6921 39.6895 17.8763 39.8736 17.8763 40.0993Z" fill="#7C6656"/>
<path d="M19.8313 42.5771C19.8313 42.5771 21.1801 43.0958 20.9752 44.0789C20.7651 45.0826 19.8417 43.9155 19.3982 43.7131C18.9961 43.5316 18.6071 43.2022 18.0909 43.6172C17.5203 44.0763 19.1284 46.2524 17.9223 46.434C16.7162 46.6156 17.1001 44.3097 16.2545 44.2319L14.4052 44.263C14.4052 44.263 14.4311 46.0761 13.4688 46.1902C12.5065 46.3043 13.0071 44.5898 13.0668 44.0763C13.1264 43.5601 12.2342 42.3255 13.6737 41.9131C13.6737 41.9131 14.138 41.7263 14.5037 41.9131" stroke="#7C6656" stroke-linecap="round" stroke-linejoin="round"/>
<path d="M15.7021 44.3379C15.7021 44.3379 16.5529 45.4351 16.1638 45.5051C15.7748 45.5725 15.1367 45.3339 14.8047 44.7918" stroke="#7C6656" stroke-linecap="round" stroke-linejoin="round"/>
<path d="M35.1099 28.2852C35.1099 28.2852 35.3122 29.5405 34.6689 30.7544L35.1099 28.2852Z" fill="white"/>
<path d="M35.1099 28.2852C35.1099 28.2852 35.3122 29.5405 34.6689 30.7544" stroke="#7C6656" stroke-linecap="round" stroke-linejoin="round"/>
<path d="M21.7578 25.752C21.7578 25.752 22.1158 27.163 22.2818 29.3806L21.7578 25.752Z" fill="white"/>
<path d="M21.7578 25.752C21.7578 25.752 22.1158 27.163 22.2818 29.3806" stroke="#7C6656" stroke-linecap="round" stroke-linejoin="round"/>
<path d="M38.5179 35.0898C38.5179 35.0898 37.0732 37.253 37.5556 38.8612L38.5179 35.0898Z" fill="white"/>
<path d="M38.5179 35.0898C38.5179 35.0898 37.0732 37.253 37.5556 38.8612" stroke="#7C6656" stroke-linecap="round" stroke-linejoin="round"/>
<path d="M25.207 41.0312C25.207 41.0312 25.2252 43.0648 28.0602 43.1452" stroke="#7C6656" stroke-linecap="round" stroke-linejoin="round"/>
<path d="M31.8317 27.4196C31.8317 27.4196 30.4778 29.1159 26.8828 26.5273L31.8317 27.4196Z" fill="white"/>
<path d="M31.8317 27.4196C31.8317 27.4196 30.4778 29.1159 26.8828 26.5273" stroke="#7C6656" stroke-linecap="round" stroke-linejoin="round"/>
<path d="M34.3189 31.2509C36.0826 31.6399 38.5467 31.6736 40.6087 29.7984C40.6087 29.7984 42.2895 29.9255 42.6941 28.4704C43.0988 27.0127 42.0301 25.5913 40.5724 25.7391C39.2885 25.8766 38.7438 26.538 38.8657 27.7856C38.8657 27.7856 36.0489 29.5027 33.4188 27.4173C33.4188 27.4173 29.8239 27.0412 28.2832 26.704" stroke="#7C6656" stroke-linecap="round" stroke-linejoin="round"/>
<path d="M43.5777 20.0622C49.4084 11.036 40.8464 6.9041 40.8464 6.9041C35.5292 1.29121 26.5367 2.96937 26.5367 2.96937C26.5367 2.96937 19.6087 4.26106 20.1197 10.0218" stroke="#7C6656" stroke-linecap="round" stroke-linejoin="round"/>
<path d="M35.8733 4.04132C35.8733 4.04132 37.0587 5.49383 36.3013 6.61952C35.7203 7.48324 35.0511 7.6259 33.1084 7.56624C31.1656 7.50659 29.1814 4.54192 28.8027 1.90666C30.4939 1.46572 33.5804 0.542344 35.8733 4.04132Z" fill="#1AAF92"/>
<path d="M35.2949 7.34934C35.2949 7.34934 29.9024 9.41657 28.7871 1.7961C28.7871 1.7961 34.0991 -0.195901 36.6229 5.38068" stroke="#7C6656" stroke-linecap="round" stroke-linejoin="round"/>
<path d="M32.2913 4.25488C32.2602 4.30157 34.8643 7.10024 37.6474 6.28061" stroke="#7C6656" stroke-linecap="round" stroke-linejoin="round"/>
<path d="M37.9883 8.59375C37.9883 8.59375 35.1222 12.3417 30.041 12.4273" stroke="#7C6656" stroke-linecap="round" stroke-linejoin="round"/>
<path d="M29.6116 7.44727C29.6116 7.44727 26.6158 9.09949 22.5488 9.60268" stroke="#7C6656" stroke-linecap="round" stroke-linejoin="round"/>
<path d="M40.3672 11.9238C40.3672 11.9238 42.6341 14.3049 42.4007 18.5613" stroke="#7C6656" stroke-linecap="round" stroke-linejoin="round"/>
<path d="M33.134 34.0024C33.134 34.0024 29.5754 32.9078 24.6758 35.3044" stroke="#7C6656" stroke-linecap="round" stroke-linejoin="round"/>
<path d="M27.4244 26.5275C27.4244 26.5275 27.1287 26.4912 26.6748 26.416" stroke="#7C6656" stroke-linecap="round" stroke-linejoin="round"/>
<defs>
<filter id="filter0_f_466_8595" x="31.4629" y="18.3281" width="6.08984" height="4.44043" filterUnits="userSpaceOnUse" color-interpolation-filters="sRGB">
<feFlood flood-opacity="0" result="BackgroundImageFix"/>
<feBlend mode="normal" in="SourceGraphic" in2="BackgroundImageFix" result="shape"/>
<feGaussianBlur stdDeviation="0.5" result="effect1_foregroundBlur_466_8595"/>
</filter>
<filter id="filter1_f_466_8595" x="19.5156" y="15.5811" width="6.08984" height="4.44043" filterUnits="userSpaceOnUse" color-interpolation-filters="sRGB">
<feFlood flood-opacity="0" result="BackgroundImageFix"/>
<feBlend mode="normal" in="SourceGraphic" in2="BackgroundImageFix" result="shape"/>
<feGaussianBlur stdDeviation="0.5" result="effect1_foregroundBlur_466_8595"/>
</filter>
</defs>
</svg>
