<svg width="50" height="50" viewBox="0 0 50 50" fill="none" xmlns="http://www.w3.org/2000/svg">
<ellipse cx="25" cy="46.25" rx="18" ry="3.75" fill="#EEEEEE"/>
<path d="M37.7292 10.3904C38.2876 12.4007 37.3104 13.2755 36.752 13.4616L37.45 15.1369L37.7292 16.9517V19.1853L36.752 21.6981L32.8432 25.1881L30.8888 31.4701L30.47 33.0057L31.4472 35.5185L32.0056 38.4501H30.1908L29.9116 42.6382L30.7492 44.0342L30.6096 44.8718L29.2136 45.4302L27.3988 45.2906L26.5612 44.7322L26.282 43.6154L26.5612 40.1254V38.3105H25.0256L23.7692 40.8234L22.3732 43.057V44.3134L21.8148 45.151L20.9772 45.2906L19.1624 44.3134L18.604 43.057L19.0228 41.8006L20.2792 40.1254L21.1842 38.3105H19.4416L19.8604 36.6353L20.698 32.8661C13.7738 33.9829 9.71607 33.5176 8.55273 33.1453L8.69233 32.8661C9.69746 31.3026 9.94874 24.397 9.94874 21.1397L9.11113 13.7409C8.99945 6.59332 14.6486 3.03815 17.4872 2.15401C24.6068 -0.917202 29.4928 0.618403 33.262 3.13121C37.0312 5.64402 37.0312 7.87763 37.7292 10.3904Z" fill="white"/>
<g filter="url(#filter0_f_466_8781)">
<ellipse cx="32.7019" cy="18.1953" rx="2.23361" ry="1.2564" transform="rotate(-7.1007 32.7019 18.1953)" fill="#F5B0B0"/>
</g>
<g filter="url(#filter1_f_466_8781)">
<ellipse cx="19.5798" cy="19.5918" rx="2.23361" ry="1.2564" transform="rotate(-7.1007 19.5798 19.5918)" fill="#F5B0B0"/>
</g>
<path d="M40.0862 38.5423C39.9689 37.3446 38.908 36.1887 37.4478 36.6131C36.1606 36.9984 35.3677 38.5284 35.6665 40.1757C35.8982 41.4684 36.6911 42.708 37.632 43.6713C37.7772 43.8192 37.9754 43.903 38.1821 43.9002C39.525 43.889 40.9657 43.5791 42.0434 42.8281C43.4199 41.8816 43.9476 40.2287 43.3082 39.0561C42.5851 37.7131 41.0132 37.7745 40.0918 38.5423H40.0862Z" fill="#EF84A1"/>
<path d="M11.2442 40.293C10.6578 39.7653 9.63038 39.6732 9.11106 40.5275C8.65876 41.2842 8.95192 42.3759 9.82582 43.0431C10.5099 43.568 11.4452 43.8165 12.3275 43.8668C12.4643 43.8752 12.5955 43.8277 12.696 43.7356C13.341 43.1353 13.9021 42.3451 14.092 41.5047C14.3377 40.4354 13.8631 39.4024 13.0338 39.1176C12.0873 38.7881 11.353 39.514 11.2469 40.293H11.2442Z" fill="#F3A4B8"/>
<path d="M33.7139 40.1365C33.2867 39.3966 32.2592 38.9638 31.4412 39.6702C30.7236 40.2956 30.6622 41.5185 31.3379 42.4957C31.8683 43.2607 32.745 43.8303 33.6357 44.1737C33.7725 44.2268 33.9261 44.2212 34.0573 44.1598C34.9228 43.7577 35.7604 43.1323 36.235 42.331C36.8437 41.3147 36.6985 40.0918 35.9391 39.525C35.0764 38.8717 34.0796 39.3743 33.7111 40.1393L33.7139 40.1365Z" fill="#F4AECE"/>
<path d="M36.1268 22.7402C36.1268 22.7402 37.0705 26.1772 36.1045 31.3983" stroke="#7C6656" stroke-linecap="round" stroke-linejoin="round"/>
<path d="M33.0447 26.6543C33.0447 26.6543 33.0335 29.2564 32.3271 30.5854" stroke="#7C6656" stroke-linecap="round" stroke-linejoin="round"/>
<path d="M28.8956 33.5469C28.8537 35.733 30.1045 37.3356 30.085 38.9019C30.0598 41.2221 29.87 42.7577 29.87 42.7577" stroke="#7C6656" stroke-linecap="round" stroke-linejoin="round"/>
<path d="M30.9725 28.8926C30.9725 28.8926 31.2657 30.5092 30.5146 32.9466" stroke="#7C6656" stroke-linecap="round" stroke-linejoin="round"/>
<path d="M26.4527 37.9902C26.4527 37.9902 26.7877 40.2127 26.355 43.0912C26.2321 43.9121 26.5923 44.5766 26.8157 44.8111C27.5974 45.6292 29.8254 45.618 30.4397 45.0121C31.0539 44.4091 30.624 43.2895 29.9818 42.8092" stroke="#7C6656" stroke-linecap="round" stroke-linejoin="round"/>
<path d="M23.5352 26.7043L26.1987 28.4772L28.5273 26.4502" stroke="#7C6656" stroke-linecap="round" stroke-linejoin="round"/>
<path d="M22.7473 16.1315C22.8115 16.8714 22.267 17.5219 21.5272 17.5861C20.7873 17.6504 20.1367 17.1059 20.0725 16.366C20.0083 15.6261 20.5528 14.9756 21.2926 14.9114C22.0325 14.8472 22.6831 15.3916 22.7473 16.1315Z" fill="#7C6656"/>
<path d="M31.9191 15.2428C31.9834 15.9827 31.4389 16.6333 30.699 16.6975C29.9592 16.7617 29.3086 16.2172 29.2444 15.4774C29.1802 14.7375 29.7246 14.0869 30.4645 14.0227C31.2044 13.9585 31.8549 14.5029 31.9191 15.2428Z" fill="#7C6656"/>
<path d="M24.2744 19.5713C24.2744 19.5713 24.6765 23.0641 27.139 22.8826C29.2107 22.7318 28.8003 18.957 28.8003 18.957L24.2744 19.5713Z" fill="#F299A0" stroke="#7C6656" stroke-linecap="round" stroke-linejoin="round"/>
<path d="M26.5723 44.0781C26.5723 44.0781 28.5211 45.1921 30.7798 44.2205" stroke="#7C6656" stroke-linecap="round" stroke-linejoin="round"/>
<path d="M22.2672 43.0912C22.2672 43.0912 22.5185 43.8785 22.2672 44.5346C22.0159 45.1907 21.357 45.657 20.2123 44.9143C18.0373 43.5044 18.6125 42.1391 19.612 41.0837C21.075 39.5397 21.371 36.8398 21.371 36.8398" stroke="#7C6656" stroke-linecap="round" stroke-linejoin="round"/>
<path d="M22.2676 43.0911C22.2676 43.0911 24.9507 39.8887 24.9507 37.334" stroke="#7C6656" stroke-linecap="round" stroke-linejoin="round"/>
<path d="M22.2668 44.5351C22.2668 44.5351 20.5023 44.7083 18.9248 42.416" stroke="#7C6656" stroke-linecap="round" stroke-linejoin="round"/>
<path d="M20.5475 33.2624L30.6295 33.0977C30.6295 33.0977 31.6904 35.4681 31.9557 38.3662L22.9654 38.4053H19.5312C19.5312 38.4053 19.9501 35.2726 20.5475 33.2596V33.2624Z" fill="#F3A2AD" stroke="#7C6656" stroke-linecap="round" stroke-linejoin="round"/>
<path d="M24.6768 5.12695C24.6768 5.12695 27.0025 9.18653 25.8103 12.4364" stroke="#7C6656" stroke-linecap="round" stroke-linejoin="round"/>
<path d="M26.0137 5.88965C26.0137 5.88965 30.4976 6.65466 31.1593 11.482" stroke="#7C6656" stroke-linecap="round" stroke-linejoin="round"/>
<path d="M12.1767 15.6338C12.1348 20.4025 13.6117 23.0912 15.5103 24.4035C18.629 26.5617 22.4345 26.5198 25.556 26.4109" stroke="#7C6656" stroke-linecap="round" stroke-linejoin="round"/>
<path d="M27.5078 26.2401C35.3785 25.4193 37.5339 21.3402 37.8215 18.5063C38.1091 15.6696 36.8275 13.5616 36.5092 12.8804C36.4785 12.3667 36.1993 10.4709 35.6716 9.3457" stroke="#7C6656" stroke-linecap="round" stroke-linejoin="round"/>
<path d="M16.9199 2.3853C16.9199 2.3853 21.9763 -0.523977 28.4453 0.980916C34.9144 2.48581 37.4803 6.50072 37.8516 11.2527" stroke="#7C6656" stroke-linecap="round" stroke-linejoin="round"/>
<path d="M12.3127 5.83984C12.3127 5.83984 8.06329 7.62952 9.4928 17.1922C10.7436 25.5431 9.19685 31.5124 8.55469 33.182" stroke="#7C6656" stroke-linecap="round" stroke-linejoin="round"/>
<path d="M15.3601 25.6426C15.3601 25.6426 15.938 30.7938 14.542 33.5468" stroke="#7C6656" stroke-linecap="round" stroke-linejoin="round"/>
<path d="M20.5977 8.51758C20.5977 8.51758 20.4163 14.512 11.9453 15.6093" stroke="#7C6656" stroke-linecap="round" stroke-linejoin="round"/>
<path d="M14.1423 4.33506C14.1423 4.33506 15.0665 1.81667 17.0069 1.59889C18.9473 1.38112 19.2377 3.60076 17.8668 4.86834C17.8668 4.86834 20.3461 4.05865 20.1814 6.19454C20.0027 8.50353 17.1633 8.27459 17.1633 8.27459C17.1633 8.27459 17.9199 10.3574 15.7868 11.6445C13.6537 12.9317 13.3354 9.85487 13.3354 9.85487C13.3354 9.85487 12.4029 11.7534 11.2163 10.7567C10.0297 9.76273 10.2391 7.97584 11.6518 7.49003C11.6518 7.49003 9.87053 6.86183 10.9678 4.76503C11.7886 3.19313 13.5979 2.52305 14.1395 4.33786L14.1423 4.33506Z" fill="#F5B1B1" stroke="#7C6656" stroke-linecap="round" stroke-linejoin="round"/>
<path d="M13.008 8.39186C13.6195 8.95026 14.7195 8.74365 15.4622 7.92839C16.2077 7.11312 16.3138 5.99911 15.7051 5.44071C15.0937 4.88231 13.9936 5.08892 13.2509 5.90418C12.5055 6.71945 12.3994 7.83346 13.008 8.39186Z" fill="white"/>
<path d="M20.5475 33.2627C20.0645 30.5851 20.0645 26.5088 20.0645 26.5088" stroke="#7C6656" stroke-linecap="round" stroke-linejoin="round"/>
<path d="M36.7045 23.6073C36.6347 21.3402 34.7863 19.0312 31.986 19.6483C29.5206 20.2067 27.8342 22.9847 28.186 26.1201C28.4596 28.5799 29.7942 31.0117 31.4387 32.941C31.6928 33.237 32.053 33.4184 32.4438 33.4408C34.9706 33.5888 37.718 33.1867 39.8371 31.9136C42.5425 30.3054 43.7431 27.2676 42.6877 24.9838C41.4955 22.3705 38.5332 22.2839 36.7045 23.6101V23.6073Z" fill="#EE7374"/>
<path d="M21.1504 30.0881C26.2486 33.5418 29.5404 28.4213 29.5404 28.4213C29.5404 28.4213 32.4106 28.5302 31.9973 25.5986C31.6567 23.1835 28.9904 23.0411 28.0774 23.6832C27.1644 24.3254 26.4999 25.6795 27.0387 26.8885C27.0387 26.8885 26.5278 28.4352 23.3393 27.2933" fill="white"/>
<path d="M21.1035 29.9873C21.1035 29.9873 22.0891 30.6183 22.4158 30.6602C22.7759 30.1632 24.2054 27.4745 24.2054 27.4745L23.1361 27.2344C23.1361 27.2344 23.0356 27.4466 22.5079 28.2479C21.9774 29.0492 21.1035 29.9873 21.1035 29.9873Z" fill="white"/>
<path d="M21.1504 30.0881C26.2486 33.5418 29.5404 28.4213 29.5404 28.4213C29.5404 28.4213 32.4106 28.5302 31.9973 25.5986C31.6567 23.1835 28.9904 23.0411 28.0774 23.6832C27.1644 24.3254 26.4999 25.6795 27.0387 26.8885C27.0387 26.8885 26.5278 28.4352 23.3393 27.2933" stroke="#7C6656" stroke-linecap="round" stroke-linejoin="round"/>
<path d="M24.1018 27.6592L22.4824 30.5601" stroke="#7C6656" stroke-linecap="round" stroke-linejoin="round"/>
<path d="M20.0894 27.8887C20.0894 27.8887 20.1285 30.9627 19.5254 32.9478" stroke="#7C6656" stroke-linecap="round" stroke-linejoin="round"/>
<defs>
<filter id="filter0_f_466_8781" x="29.4795" y="15.918" width="6.44434" height="4.55469" filterUnits="userSpaceOnUse" color-interpolation-filters="sRGB">
<feFlood flood-opacity="0" result="BackgroundImageFix"/>
<feBlend mode="normal" in="SourceGraphic" in2="BackgroundImageFix" result="shape"/>
<feGaussianBlur stdDeviation="0.5" result="effect1_foregroundBlur_466_8781"/>
</filter>
<filter id="filter1_f_466_8781" x="16.3574" y="17.3145" width="6.44434" height="4.55469" filterUnits="userSpaceOnUse" color-interpolation-filters="sRGB">
<feFlood flood-opacity="0" result="BackgroundImageFix"/>
<feBlend mode="normal" in="SourceGraphic" in2="BackgroundImageFix" result="shape"/>
<feGaussianBlur stdDeviation="0.5" result="effect1_foregroundBlur_466_8781"/>
</filter>
</defs>
</svg>
