<svg width="50" height="50" viewBox="0 0 50 50" fill="none" xmlns="http://www.w3.org/2000/svg">
<ellipse cx="25" cy="46.25" rx="18" ry="3.75" fill="#EEEEEE"/>
<path d="M11.1163 42.413L11.5282 39.5294L7.95807 38.5682L7.13419 37.8816L7.2715 37.1951L7.95807 36.5085L8.37001 35.1354L8.78195 32.9383L10.4297 29.3682L11.5282 27.4458L10.7043 26.0727L10.1551 26.21L8.2327 26.0727L5.89837 24.9742L4.93717 23.4637L4.66254 22.2279L4.79986 21.404L3.15209 20.8548L1.77896 19.7562L0.955078 17.5592L1.09239 15.9115L1.64165 14.401L2.60284 13.3025L4.11329 12.3413L4.38792 11.9294L5.34911 10.1443L6.72225 7.94728L8.50732 6.02489L10.2924 4.37713L12.4894 3.00399L14.4118 2.31743L16.7461 1.76817L18.2566 1.63086H20.3163L22.1014 1.90549L23.6118 1.76817L25.6715 1.90549L28.967 2.72937L31.8506 4.1025L33.6357 5.47564L35.6954 7.67265L36.7939 9.32042L38.167 12.7533L38.579 15.9115V17.1473L38.9909 17.5592L40.0894 19.3443L40.3641 20.5801L39.8148 22.7771L38.9909 24.013L37.2058 24.9742V25.5234L36.7939 26.8965L35.8327 27.8577L34.4596 28.8189L32.3999 29.2309L32.6745 30.1921L32.9491 31.8398L32.2626 32.9383L30.4775 33.7622L29.2417 33.6249L28.1432 32.5264L26.6327 32.1145L25.9461 33.213L25.3969 32.9383L24.8476 33.7622L24.2984 34.1742L22.7879 35.8219L21.6894 38.5682L22.376 39.1175L22.7879 39.9413L22.2387 40.6279H20.0417L19.6297 43.7861L19.9043 44.1981L20.3163 44.8846L20.179 45.8458L18.9432 46.3951L17.2954 46.1204L16.3342 45.0219L16.1969 43.2369L16.4715 40.3533L15.2357 40.216L14.8237 42.6876L14.6864 44.0607L15.2357 44.7473V45.4339L14.6864 46.1204L13.176 46.3951L11.5282 45.5712L11.1163 42.413Z" fill="white"/>
<path d="M23.0656 26.5918L25.0759 28.1984C25.0759 28.1984 24.1312 30.3707 23.4748 30.9996C22.3928 30.7881 20.1299 29.2035 20.1299 29.2035" fill="#FFADBE"/>
<path d="M25.0761 28.1982C27.2017 29.4698 29.0362 29.4286 29.0362 29.4286C30.1759 28.4509 31.2002 28.5305 32.2191 29.695C33.367 31.0242 32.7079 33.0509 30.9998 33.6578C29.2916 34.2648 28.2617 32.5264 28.2617 32.5264C28.2617 32.5264 25.5841 32.2737 22.9395 31.0159" fill="white"/>
<path d="M22.4752 26.2432C24.1834 28.41 29.0388 29.4343 29.0388 29.4343C30.1812 28.4594 31.3951 28.7944 32.4112 29.9589C33.5564 31.2908 32.6996 33.0622 30.9914 33.6663C29.2832 34.2678 28.2561 32.5294 28.2561 32.5294C28.2561 32.5294 23.4611 31.8922 20.8027 29.9342" stroke="#7C6656" stroke-linecap="round" stroke-linejoin="round"/>
<path d="M24.9468 28.0938C25.2681 28.3711 23.9938 30.7604 22.9365 31.002" stroke="#7C6656" stroke-linecap="round" stroke-linejoin="round"/>
<path d="M11.5037 27.3112C10.7924 26.7537 10.7677 26.004 10.7677 26.004C10.7677 26.004 8.59536 26.8718 6.68396 25.4492C3.90748 23.3813 4.81924 21.4397 4.81924 21.4397C4.81924 21.4397 2.04276 21.3079 1.28753 18.6467C-0.0746158 13.849 4.23703 12.3193 4.23703 12.3193C4.23703 12.3193 6.15118 8.26309 7.53805 7.04649C13.5304 -0.272324 22.0795 1.8478 22.0795 1.8478C22.0795 1.8478 30.0218 0.620214 35.6049 7.57926C39.1586 12.009 38.5846 17.1665 38.5846 17.1665C38.5846 17.1665 40.897 19.2262 40.1857 21.7967C39.3893 24.6693 37.1676 24.8643 37.1676 24.8643C37.1676 24.8643 37.5218 26.924 35.2507 28.3575C33.1196 29.7005 31.296 28.8381 31.296 28.8381C31.296 28.8381 30.4804 29.1732 28.3438 28.9837C28.3438 28.9837 26.6136 28.926 25.636 28.0967C25.636 28.0967 24.856 27.8632 24.0871 28.1818C22.508 28.8381 20.2093 30.3074 19.4624 30.2854C18.3501 30.2525 11.5064 27.314 11.5064 27.314L11.5037 27.3112Z" fill="white"/>
<g filter="url(#filter0_f_466_8701)">
<ellipse cx="29.5973" cy="20.9952" rx="2.19702" ry="1.23582" transform="rotate(6.96843 29.5973 20.9952)" fill="#F5B0B0"/>
</g>
<g filter="url(#filter1_f_466_8701)">
<ellipse cx="16.7428" cy="19.1895" rx="2.19702" ry="1.23582" transform="rotate(6.96843 16.7428 19.1895)" fill="#F5B0B0"/>
</g>
<path d="M15.0417 40.4824C14.8934 41.4079 14.7148 44.0553 14.7148 44.0553" stroke="#7C6656" stroke-linecap="round" stroke-linejoin="round"/>
<path d="M14.4401 44.0085C14.4401 44.0085 15.286 44.3737 15.2832 45.063C15.2832 45.7523 14.7587 46.557 12.9626 46.2824C11.1693 46.0077 11.2187 44.7609 11.2599 42.8907C11.3011 41.0562 11.5318 38.3594 11.5318 38.3594" stroke="#7C6656" stroke-linecap="round" stroke-linejoin="round"/>
<path d="M20.0534 40.4824C19.9051 41.4079 19.7266 44.0553 19.7266 44.0553" stroke="#7C6656" stroke-linecap="round" stroke-linejoin="round"/>
<path d="M19.4518 44.0085C19.4518 44.0085 20.2977 44.3737 20.2949 45.063C20.2949 45.7523 19.7704 46.557 17.9743 46.2824C16.181 46.0077 16.2305 44.7609 16.2716 42.8907C16.3128 41.0562 16.5435 38.3594 16.5435 38.3594" stroke="#7C6656" stroke-linecap="round" stroke-linejoin="round"/>
<path d="M13.2637 25.2274C13.2637 25.2274 9.46008 29.874 7.97984 36.52C6.80993 37.3274 7.13674 38.6484 9.28982 39.0274C11.4456 39.4063 19.635 40.7273 21.2471 40.5543C22.8591 40.3813 22.7108 39.7853 21.8567 39.0191C21.9062 37.0583 21.0439 32.5983 23.9796 28.251C24.073 28.0533 23.5567 28.2455 23.6638 28.0945C23.6199 28.1878 20.9642 29.1655 20.9642 29.1655C20.9642 29.1655 18.7068 29.7065 17.2458 26.9026C15.7847 26.1501 13.2637 25.2246 13.2637 25.2246V25.2274Z" fill="#FFADBE"/>
<path d="M13.2638 25.2266C13.2638 25.2266 9.14168 29.1373 7.98 36.5192C7.98 36.5192 6.51624 37.1756 7.49117 38.2796C8.46609 39.3836 18.2922 40.8638 22.0162 40.5205C22.0162 40.5205 23.4168 40.1333 22.0162 38.8948C22.0162 38.8948 22.0876 31.0184 23.9798 28.2502" stroke="#7C6656" stroke-linecap="round" stroke-linejoin="round"/>
<path d="M32.5129 10.4844C32.5129 10.4844 33.3368 13.4394 31.873 15.4441" stroke="#7C6656" stroke-linecap="round" stroke-linejoin="round"/>
<path d="M11.5037 27.3112C10.7924 26.7537 10.7677 26.004 10.7677 26.004C10.7677 26.004 8.59536 26.8718 6.68396 25.4492C3.90748 23.3813 4.81924 21.4397 4.81924 21.4397C4.81924 21.4397 2.04276 21.3079 1.28753 18.6467C-0.0746158 13.849 4.23703 12.3193 4.23703 12.3193C4.23703 12.3193 6.15118 8.26309 7.53805 7.04649C13.5304 -0.272324 22.0795 1.8478 22.0795 1.8478C22.0795 1.8478 30.0218 0.620214 35.6049 7.57926C39.1586 12.009 38.5846 17.1665 38.5846 17.1665C38.5846 17.1665 40.897 19.2262 40.1857 21.7967C39.3893 24.6693 37.1676 24.8643 37.1676 24.8643C37.1676 24.8643 37.5218 26.924 35.2507 28.3575C33.1196 29.7005 31.296 28.8381 31.296 28.8381C31.296 28.8381 30.5463 29.5082 28.407 29.3187" stroke="#7C6656" stroke-linecap="round" stroke-linejoin="round"/>
<path d="M26.729 21.5447C26.729 21.5447 25.3888 22.5196 23.2467 22.2423C21.1019 21.9649 20.127 20.6934 20.127 20.6934" stroke="#7C6656" stroke-linecap="round" stroke-linejoin="round"/>
<path d="M9.97461 22.582C10.1559 22.8512 10.3591 23.0956 10.5788 23.3153C12.6769 25.4052 16.7469 27.0145 19.1334 27.3084" stroke="#7C6656" stroke-linecap="round" stroke-linejoin="round"/>
<path d="M34.7231 15.7412C34.7259 16.0158 34.7808 16.3317 34.8 16.4333C34.8494 18.6523 35.9589 19.6739 35.0362 22.4915C34.1794 25.1087 30.8948 27.4568 26.2399 28.1269C25.5259 28.2285 24.8036 28.2367 24.0868 28.1791C22.9883 28.0912 21.3158 27.9127 20.5029 27.6216" stroke="#7C6656" stroke-linecap="round" stroke-linejoin="round"/>
<path d="M24.3117 9.20801C24.3117 9.20801 24.7016 12.8276 22.793 14.7115" stroke="#7C6656" stroke-linecap="round" stroke-linejoin="round"/>
<path d="M15.7743 9.75195C15.7743 9.75195 15.6041 13.0722 13.4043 15.1154" stroke="#7C6656" stroke-linecap="round" stroke-linejoin="round"/>
<path d="M11.6249 14.3682C11.6249 14.3682 11.3228 18.883 9.43066 19.9046" stroke="#7C6656" stroke-linecap="round" stroke-linejoin="round"/>
<path d="M20.5034 16.7411C20.5034 16.7411 20.303 15.8733 19.2319 15.6453C18.1691 15.4202 17.4551 16.1369 17.4551 16.1369" stroke="#7C6656" stroke-linecap="round" stroke-linejoin="round"/>
<path d="M27.1797 17.7948C27.1797 17.7948 27.5477 16.9819 28.6435 16.9709C29.731 16.9571 30.2912 17.8002 30.2912 17.8002" stroke="#7C6656" stroke-linecap="round" stroke-linejoin="round"/>
<path d="M17.2461 26.9902C17.2461 26.9902 17.2928 28.6929 20.0143 29.1516C21.706 29.4344 22.5189 28.3249 22.5189 28.3249" stroke="#7C6656" stroke-linecap="round" stroke-linejoin="round"/>
<path d="M25.2545 32.5996C25.2545 32.5996 25.3424 33.5855 24.3867 34.3984" stroke="#7C6656" stroke-linecap="round" stroke-linejoin="round"/>
<path d="M26.7405 31.9838L23.1786 29.3281L22.124 31.3439L25.9496 33.3432L26.7405 31.9838Z" fill="white" stroke="#7C6656" stroke-linecap="round" stroke-linejoin="round"/>
<path d="M27.2381 32.5651L26.5322 32.1963L26.0947 33.0336L26.8005 33.4024L27.2381 32.5651Z" fill="#7C6656"/>
<path d="M21.4036 34.6453L22.1508 35.0357C22.7276 35.3372 22.9519 36.0524 22.6505 36.6293L21.4511 38.9245C21.3544 39.1095 21.1259 39.1791 20.9434 39.0837L18.7722 37.9492C18.5873 37.8525 18.5176 37.624 18.613 37.4415L19.8125 35.1462C20.1139 34.5694 20.8291 34.3451 21.406 34.6465L21.4036 34.6453Z" fill="#B2D7EF" stroke="#7C6656" stroke-linecap="round" stroke-linejoin="round"/>
<path d="M16.024 28.5293C17.8503 30.2814 20.8135 31.509 20.8135 31.509C22.118 30.762 23.1066 31.0312 23.8893 32.3631C24.7681 33.8818 23.741 35.752 21.9504 36.0266C20.1599 36.304 19.4706 34.4036 19.4706 34.4036C19.4706 34.4036 16.3178 33.3682 13.9561 31.6408" fill="white"/>
<path d="M14.9503 27.165C16.2301 29.6092 20.8136 31.5096 20.8136 31.5096C22.1181 30.7627 23.2468 31.3147 24.0322 32.6466C24.911 34.1653 23.7439 35.7499 21.9533 36.0273C20.1627 36.3046 19.4734 34.4042 19.4734 34.4042C19.4734 34.4042 14.8789 32.8938 12.627 30.4798" stroke="#7C6656" stroke-linecap="round" stroke-linejoin="round"/>
<path d="M16.0241 28.7715C16.0241 28.7715 15.0217 30.6444 13.709 31.4573" stroke="#7C6656" stroke-linecap="round" stroke-linejoin="round"/>
<path d="M36.3442 36.0827C36.3442 36.0827 34.3971 33.9131 36.0449 30.9966C36.7534 29.7443 36.5474 27.7231 35.9844 25.3997C35.751 24.4413 35.7071 23.2054 35.7345 22.085" stroke="#7C6656" stroke-linecap="round" stroke-linejoin="round"/>
<path d="M29.9393 35.0205L31.035 46.5631H35.3604C35.4455 46.1072 35.6845 45.7777 35.9701 45.7777C36.2557 45.7777 36.4974 46.1072 36.5798 46.5631H40.9051L42.0009 35.0205H29.9365H29.9393Z" fill="#E5CEBC"/>
<path d="M31.9746 46.4675V40.7882C31.9746 40.5465 32.1696 40.3516 32.4113 40.3516C32.6529 40.3516 32.8479 40.5465 32.8479 40.7882V46.4675" fill="#BFAD9F"/>
<path d="M34.3418 46.4675V40.7882C34.3418 40.5465 34.5368 40.3516 34.7785 40.3516C35.0201 40.3516 35.2151 40.5465 35.2151 40.7882V46.4675" fill="#BFAD9F"/>
<path d="M36.709 46.4675V40.7882C36.709 40.5465 36.904 40.3516 37.1456 40.3516C37.3873 40.3516 37.5823 40.5465 37.5823 40.7882V46.4675" fill="#BFAD9F"/>
<path d="M39.0732 46.4675V40.7882C39.0732 40.5465 39.2682 40.3516 39.5099 40.3516C39.7516 40.3516 39.9466 40.5465 39.9466 40.7882V46.4675" fill="#BFAD9F"/>
<path d="M29.9393 35.0205L31.035 46.5631H35.3604C35.4455 46.1072 35.6845 45.7777 35.9701 45.7777C36.2557 45.7777 36.4974 46.1072 36.5798 46.5631H40.9051L42.0009 35.0205H29.9365H29.9393Z" stroke="#7C6656" stroke-linecap="round" stroke-linejoin="round"/>
<path d="M42.2783 38.1897L42.6079 35.0205H29.3379L29.6674 38.1897H42.2783Z" fill="#E5CEBC" stroke="#7C6656" stroke-linecap="round" stroke-linejoin="round"/>
<path d="M35.6777 32.9627C35.6777 32.9627 39.5115 33.4049 40.6238 29.9336" stroke="#7C6656" stroke-linecap="round" stroke-linejoin="round"/>
<path d="M38.4785 32.6143C38.4785 32.6143 40.1016 33.2953 41.0271 32.6143" stroke="#7C6656" stroke-linecap="round" stroke-linejoin="round"/>
<path d="M39.943 24.3535C39.3636 25.2845 38.3117 26.2127 36.4141 26.2127" stroke="#7C6656" stroke-linecap="round" stroke-linejoin="round"/>
<path d="M36.4133 28.3654C36.4133 28.3654 33.1425 28.3654 32.1182 25.8086" stroke="#7C6656" stroke-linecap="round" stroke-linejoin="round"/>
<path d="M35.3841 33.8609C35.3841 33.8609 32.6049 34.0861 31.3828 31.6611" stroke="#7C6656" stroke-linecap="round" stroke-linejoin="round"/>
<path d="M34.9199 28.3652C34.9199 28.3652 34.3954 29.4692 33.3848 29.1781" stroke="#7C6656" stroke-linecap="round" stroke-linejoin="round"/>
<path d="M42.2965 32.4102C42.2965 32.4102 44.3095 32.9484 43.7521 35.2526C43.7521 35.2526 43.1506 34.9505 42.7579 34.8681C41.9285 34.6951 40.5883 34.6319 40.5801 33.3714C40.5719 31.8994 42.2965 32.4129 42.2965 32.4129V32.4102Z" fill="#BCDD94"/>
<path d="M31.0443 33.0426C31.0443 33.0426 29.5751 33.8417 30.4456 35.5334C30.4456 35.5334 30.8576 35.1847 31.1487 35.0446C31.7638 34.7535 32.7992 34.4514 32.5658 33.4655C32.2966 32.3148 31.0443 33.0398 31.0443 33.0398V33.0426Z" fill="#BCDD94"/>
<path d="M41.115 30.7166C41.115 30.7166 42.8561 29.3901 44.4105 31.3372C44.4105 31.3372 43.7184 31.5048 43.3147 31.7162C42.9797 31.892 42.9055 32.2984 42.5513 32.6197C42.0707 33.0536 41.2358 33.3365 40.736 32.7598C39.7913 31.6723 41.1122 30.7166 41.1122 30.7166H41.115Z" fill="#97CB5B"/>
<path d="M32.7148 27.8853C32.7148 27.8853 31.0615 26.8554 29.8477 28.7064C29.8477 28.7064 30.4381 28.9234 30.7457 29.1376C31.3938 29.5935 32.2918 30.4695 33.1597 29.6676C34.1703 28.7339 32.7175 27.8825 32.7175 27.8825L32.7148 27.8853Z" fill="#91C852"/>
<path d="M32.9199 29.206C32.9199 29.206 31.4616 29.7964 32.0932 31.4689C32.0932 31.4689 32.5162 31.186 32.8018 31.0872C33.4059 30.8785 34.4056 30.7109 34.2957 29.7635C34.1667 28.6595 32.9199 29.2032 32.9199 29.2032V29.206Z" fill="#BCDD94"/>
<path d="M38.7398 24.9166C38.7398 24.9166 39.1462 23.3979 37.4298 22.8926C37.4298 22.8926 37.4023 23.3979 37.3062 23.689C37.1085 24.2987 36.6416 25.1967 37.4628 25.6773C38.4239 26.2375 38.737 24.9166 38.737 24.9166H38.7398Z" fill="#99CC5F"/>
<path d="M35.6693 18.8937C35.2656 18.166 34.2742 17.7238 33.4668 18.3967C32.7583 18.9926 32.6759 20.1817 33.3158 21.1457C33.8183 21.9009 34.6614 22.4694 35.521 22.8209C35.6528 22.8758 35.8011 22.8731 35.9329 22.8154C36.7815 22.4392 37.6082 21.846 38.086 21.0743C38.6984 20.0966 38.5776 18.9047 37.8498 18.3363C37.0232 17.6854 36.0428 18.155 35.6693 18.8937Z" fill="#EE7374"/>
<path d="M41.5406 23.0601C41.7246 22.5328 41.5022 21.8352 40.8046 21.7309C40.1867 21.643 39.5523 22.1318 39.3574 22.8871C39.2036 23.4775 39.2942 24.1558 39.5029 24.7463C39.5359 24.8369 39.6018 24.9111 39.6897 24.9495C40.2581 25.2077 40.9282 25.3587 41.5269 25.2516C42.2931 25.1198 42.8369 24.5266 42.7957 23.9059C42.7518 23.1974 42.0762 22.9173 41.5379 23.0601H41.5406Z" fill="#EE7374"/>
<path d="M30.7726 25.3472C30.2151 25.2923 29.5917 25.674 29.6548 26.3798C29.7152 27.0004 30.3414 27.5003 31.1213 27.5112C31.731 27.5222 32.3681 27.2696 32.8927 26.929C32.9723 26.8769 33.0272 26.7945 33.0465 26.6983C33.1618 26.0832 33.1481 25.3994 32.9037 24.8419C32.5933 24.1306 31.8875 23.7406 31.2971 23.9274C30.6188 24.1388 30.5062 24.8611 30.7726 25.3499V25.3472Z" fill="#EE7374"/>
<path d="M29.721 31.0601C29.1168 31.0025 28.444 31.4144 28.5127 32.1779C28.5786 32.8507 29.2569 33.3917 30.1 33.4055C30.7619 33.4164 31.4512 33.1446 32.0197 32.7738C32.1075 32.7161 32.168 32.6255 32.1872 32.5239C32.3108 31.8593 32.297 31.1178 32.0334 30.5109C31.6983 29.7392 30.9349 29.319 30.2922 29.5195C29.559 29.7474 29.4354 30.5301 29.7265 31.0601H29.721Z" fill="#EE7374"/>
<path d="M42.0547 28.2392C42.1041 27.635 41.6839 26.9649 40.9205 27.0446C40.2476 27.1187 39.7176 27.8053 39.7148 28.6484C39.7148 29.3102 39.9922 29.9968 40.3712 30.557C40.4289 30.6422 40.5195 30.7026 40.6239 30.7191C41.2912 30.8344 42.0327 30.8124 42.6341 30.5378C43.4003 30.1918 43.8123 29.4228 43.6008 28.7829C43.3646 28.0524 42.5792 27.9398 42.0547 28.2364V28.2392Z" fill="#EE7374"/>
<path d="M27.4072 32.7656L29.9832 33.1501" stroke="#A1DAF8" stroke-linecap="round" stroke-linejoin="round"/>
<path d="M27.2891 33.1143L29.7717 34.199" stroke="#A1DAF8" stroke-linecap="round" stroke-linejoin="round"/>
<path d="M27.1162 33.4414L29.2885 35.059" stroke="#A1DAF8" stroke-linecap="round" stroke-linejoin="round"/>
<defs>
<filter id="filter0_f_466_8701" x="26.4111" y="18.7393" width="6.37207" height="4.51172" filterUnits="userSpaceOnUse" color-interpolation-filters="sRGB">
<feFlood flood-opacity="0" result="BackgroundImageFix"/>
<feBlend mode="normal" in="SourceGraphic" in2="BackgroundImageFix" result="shape"/>
<feGaussianBlur stdDeviation="0.5" result="effect1_foregroundBlur_466_8701"/>
</filter>
<filter id="filter1_f_466_8701" x="13.5566" y="16.9336" width="6.37207" height="4.51172" filterUnits="userSpaceOnUse" color-interpolation-filters="sRGB">
<feFlood flood-opacity="0" result="BackgroundImageFix"/>
<feBlend mode="normal" in="SourceGraphic" in2="BackgroundImageFix" result="shape"/>
<feGaussianBlur stdDeviation="0.5" result="effect1_foregroundBlur_466_8701"/>
</filter>
</defs>
</svg>
