<svg width="640" height="440" viewBox="0 0 640 440" fill="none" xmlns="http://www.w3.org/2000/svg">
<ellipse cx="320" cy="377.5" rx="205" ry="62.5" fill="#EEEEEE"/>
<path d="M389.177 247.628C391.369 245.497 401.687 236.357 418.389 236.08C437.303 235.76 480.492 248.544 477.96 292.819C477.96 292.819 500.874 316.235 478.067 343.081C478.067 343.081 482.066 359.189 500.342 353.202C500.342 353.202 471.344 373.72 451.174 366.454C451.174 366.454 453.068 386.035 427.218 398.968C401.368 411.901 376.157 398.329 376.157 398.329C376.157 398.329 363.817 422.001 306.288 422.001C253.865 422.001 241.887 385.694 241.887 385.694C241.887 385.694 200.272 402.42 176.954 364.239C159.295 335.326 180.741 307.116 188.294 306.477C188.294 306.477 180.805 292.776 190.953 282.762C202.187 271.683 216.654 279.971 216.654 279.971C216.654 279.971 213.505 249.205 241.866 238.146C277.119 224.425 293.586 249.332 293.586 249.332" fill="#FBFBFB"/>
<path d="M389.177 247.628C391.369 245.497 401.687 236.357 418.389 236.08C437.303 235.76 480.492 248.544 477.96 292.819C477.96 292.819 500.874 316.235 478.067 343.081C478.067 343.081 482.066 359.189 500.342 353.202C500.342 353.202 471.343 373.72 451.174 366.455C451.174 366.455 453.068 386.035 427.218 398.968C401.368 411.901 376.157 398.329 376.157 398.329C376.157 398.329 363.817 422.001 306.288 422.001C253.865 422.001 241.887 385.694 241.887 385.694C241.887 385.694 200.272 402.42 176.954 364.239C159.295 335.326 180.741 307.116 188.294 306.477C188.294 306.477 180.805 292.776 190.953 282.762C202.187 271.683 216.654 279.971 216.654 279.971C216.654 279.971 213.505 249.205 241.866 238.146C277.119 224.425 293.586 249.332 293.586 249.332" stroke="#CFCFCF" stroke-width="6" stroke-linecap="round" stroke-linejoin="round"/>
<path d="M316.096 220.355C306.883 248.352 280.991 255.511 280.991 255.511C280.991 255.511 279.736 277.392 257.801 272.13C239.738 267.783 240.589 247.414 246.099 240.98C251.631 234.524 262.396 230.433 271.162 235.419C271.162 235.419 288.608 229.666 295.543 199.453" fill="white"/>
<path d="M316.096 220.355C306.883 248.352 280.991 255.511 280.991 255.511C280.991 255.511 279.736 277.392 257.801 272.13C239.738 267.783 240.589 247.414 246.099 240.98C251.631 234.524 262.396 230.433 271.162 235.419C271.162 235.419 288.608 229.666 295.543 199.453" stroke="#888888" stroke-width="6" stroke-linecap="round" stroke-linejoin="round"/>
<path d="M293.16 207.422L318.116 212.45" stroke="#888888" stroke-width="6" stroke-linecap="round" stroke-linejoin="round"/>
<path d="M261.461 303.791C261.461 303.791 248.27 313.123 264.823 320.133C275.524 323.052 284.396 318.216 286.247 312.186C278.332 311.291 269.014 310.311 261.461 303.791Z" fill="white"/>
<path d="M295.161 320.111C295.161 320.111 285.055 326.567 293.437 335.622C301.82 344.678 320.84 340.715 323.031 331.51C313.5 331.233 302.033 329.976 295.139 320.111H295.161Z" fill="white"/>
<path d="M388.433 269.701C386.284 286.575 367.115 292.818 367.115 292.818C356.967 295.673 339.01 299.828 332.883 298.528C329.351 300.148 324.245 319.26 323.883 329.146C305.267 330.914 300.672 324.544 295.161 320.133C298.246 288.216 303.31 287.449 311.458 279.885C285.906 284.317 287.927 311.504 287.927 311.504C273.035 312.718 262.971 304.345 262.971 304.345C262.971 304.345 260.227 283.294 269.099 272.385C277.971 261.476 298.374 257.066 299.544 257.662C299.544 257.662 303.459 270.425 326.181 273.941C348.903 277.435 387.582 269.764 387.582 269.764H388.454L388.433 269.701Z" fill="#CACACA"/>
<path d="M388.284 270.703C387.369 275.987 384.901 281.207 379.625 285.639C366.072 296.995 340.541 299.531 334.861 298.274C329.18 297.017 326.563 312.677 325.372 321.2C324.181 329.722 323.074 342.954 301.224 339.8C286.14 336.178 288.672 324.246 295.012 321.967C295.012 321.967 296.395 298.913 301.756 289.772C307.118 280.632 316.883 277.052 316.883 277.052" stroke="#888888" stroke-width="6" stroke-linecap="round" stroke-linejoin="round"/>
<path d="M371.71 213.088C371.71 213.088 389.667 233.99 382.539 267.079C382.539 267.079 369.944 278.073 335.244 275.048C300.544 272.022 293.438 257.555 293.438 257.555C293.438 257.555 299.054 229.579 295.544 199.409C299.735 197.726 303.373 201.242 303.373 201.242" fill="white"/>
<path d="M372.541 213.09C372.541 213.09 388.476 235.994 382.561 271.683C382.561 271.683 369.966 278.053 335.266 275.049C300.565 272.045 297.48 257.237 297.48 257.237" stroke="#888888" stroke-width="6" stroke-linecap="round" stroke-linejoin="round"/>
<path d="M297.948 258.557C291.842 258.919 281.928 262.946 281.928 262.946C281.928 262.946 272.162 266.504 266.801 275.666C261.44 284.828 261.44 303.79 261.44 303.79C257.631 305.303 250.312 315.381 266.482 320.729C288.332 323.883 288.502 310.268 289.693 301.745C290.864 293.222 292.438 286.894 299.884 284.167L311.437 279.863" stroke="#888888" stroke-width="6" stroke-linecap="round" stroke-linejoin="round"/>
<path d="M306.289 273.109C306.289 273.109 309.885 276.369 312.65 277.008" stroke="#888888" stroke-width="6" stroke-linecap="round" stroke-linejoin="round"/>
<path d="M296.116 196.854C296.116 196.854 301.669 216.242 293.457 255.596" stroke="#888888" stroke-width="6" stroke-linecap="round" stroke-linejoin="round"/>
<path d="M414.94 277.861C414.94 277.861 396.346 262.286 369.241 274.111C342.136 285.936 341.816 315.936 341.816 315.936" fill="#FBFBFB"/>
<path d="M414.94 277.861C414.94 277.861 396.346 262.286 369.241 274.111C342.136 285.936 341.816 315.936 341.816 315.936" stroke="#CFCFCF" stroke-width="6" stroke-linecap="round" stroke-linejoin="round"/>
<path d="M206.207 74.3639C209.419 76.8993 207.356 81.4376 205.632 84.2075C203.547 87.5739 200.696 91.1534 196.505 91.7074C196.356 91.7074 196.228 91.75 196.08 91.75C193.144 91.9844 190.271 90.5568 189.654 87.4887C188.888 83.6961 190.569 79.8397 193.292 77.2616C195.08 75.5783 197.335 74.2573 199.718 73.6181C201.845 73.0429 204.505 73.0216 206.207 74.3426V74.3639Z" fill="#DFDFDF" stroke="#DFDFDF" stroke-width="6" stroke-linecap="round" stroke-linejoin="round"/>
<path d="M197.207 43.916C200.739 44.1078 204.419 44.6191 207.76 45.791C218.142 49.4131 226.078 61.984 219.908 72.4029C219.908 72.4029 220.972 62.7723 214.27 57.2965C207.568 51.8207 200.717 53.9727 200.717 53.9727" fill="#DFDFDF"/>
<path d="M197.207 43.916C200.739 44.1078 204.419 44.6191 207.76 45.791C218.142 49.4131 226.078 61.984 219.908 72.4029C219.908 72.4029 220.972 62.7723 214.27 57.2965C207.568 51.8207 200.717 53.9727 200.717 53.9727" stroke="#DFDFDF" stroke-width="6" stroke-linecap="round" stroke-linejoin="round"/>
<path d="M197.207 43.916C198.016 49.6262 207.228 74.1713 207.653 76.4085L197.207 43.916Z" fill="#DFDFDF"/>
<path d="M197.207 43.916C198.016 49.6262 207.228 74.1713 207.653 76.4085" stroke="#DFDFDF" stroke-width="6" stroke-linecap="round" stroke-linejoin="round"/>
<path d="M210.102 92.9629C210.102 92.9629 212.272 99.7171 221.101 100.25C229.93 100.782 233.079 100.633 234.973 106.386" stroke="#DFDFDF" stroke-width="6" stroke-linecap="round" stroke-linejoin="round"/>
<path d="M261.461 302.662C261.461 302.662 266.971 311.291 286.226 312.186" stroke="#888888" stroke-width="6" stroke-linecap="round" stroke-linejoin="round"/>
<path d="M296.863 321.199C296.863 321.199 306.82 332.875 323.883 329.125" stroke="#888888" stroke-width="6" stroke-linecap="round" stroke-linejoin="round"/>
<path d="M373.668 216.221C395.688 253.976 369.817 282.25 369.817 282.25C369.817 282.25 380.369 301.468 358.988 308.67C341.371 314.593 331.287 296.887 332.563 288.493C333.819 280.076 340.776 270.893 350.86 270.446C350.86 270.446 361.498 258.749 353.605 230.965" fill="white"/>
<path d="M373.668 216.221C395.688 253.976 369.817 282.25 369.817 282.25C369.817 282.25 380.369 301.468 358.988 308.67C341.371 314.593 331.287 296.887 332.563 288.493C333.819 280.076 340.776 270.893 350.86 270.446C350.86 270.446 361.498 258.749 353.605 230.965" stroke="#888888" stroke-width="6" stroke-linecap="round" stroke-linejoin="round"/>
<path d="M354.646 235.013L378.454 226.021" stroke="#888888" stroke-width="6" stroke-linecap="round" stroke-linejoin="round"/>
<path d="M344.797 211.236C344.797 211.236 330.479 217.67 318.096 214.261C303.927 210.341 303.629 199.453 303.629 199.453" stroke="#888888" stroke-width="6" stroke-linecap="round" stroke-linejoin="round"/>
<path d="M420.899 28.681C420.899 28.681 495.619 50.5415 454.451 137.238C454.451 137.238 450.94 142.543 450.153 143.225C448.536 150.661 446.898 189.29 412.389 206.058C387.943 218.267 346.967 213.324 334.35 208.487C332.244 209.403 303.884 200.625 304.82 201.456C305.756 202.287 267.907 180.149 267.907 180.149C267.907 180.149 235.015 151.982 243.738 122.984C249.227 110.69 261.95 92.2597 261.95 92.2597L264.269 82.1391L267.885 72.8281C267.885 72.8281 254.844 75.9176 262.907 40.5061C274.204 19.4339 295.395 5.41421 344.52 2.15431C395.241 -0.359864 420.899 28.681 420.899 28.681Z" fill="white"/>
<g filter="url(#filter0_f_1138_46492)">
<ellipse cx="19.9027" cy="11.7021" rx="19.9027" ry="11.7021" transform="matrix(0.889062 0.457787 -0.457996 0.888954 263.719 108)" fill="#D7D7D7"/>
</g>
<g filter="url(#filter1_f_1138_46492)">
<ellipse cx="19.9027" cy="11.7021" rx="19.9027" ry="11.7021" transform="matrix(0.968159 0.250338 -0.250566 0.9681 360.533 139.264)" fill="#D7D7D7"/>
</g>
<path d="M356.051 123.218C354.306 128.949 357.54 135 363.263 136.748C368.987 138.495 375.029 135.256 376.773 129.525C378.518 123.793 375.284 117.742 369.561 115.995C363.838 114.248 357.796 117.487 356.051 123.218Z" fill="#888888"/>
<path d="M285.031 101.655C283.287 107.387 286.521 113.438 292.244 115.185C297.967 116.932 304.009 113.694 305.754 107.962C307.498 102.231 304.265 96.1797 298.541 94.4325C292.818 92.6854 286.776 95.924 285.031 101.655Z" fill="#888888"/>
<path d="M295.457 137.664C295.457 137.664 301.074 151.322 317.094 156.179C333.115 161.037 344.816 152.643 344.816 152.643" stroke="#888888" stroke-width="6" stroke-linecap="round" stroke-linejoin="round"/>
<path d="M270.416 66.9492C266.778 73.0642 265.885 82.3112 265.034 85.7416C261.523 90.6847 245.396 104.768 243.567 127.694C241.737 150.62 255.417 174.505 291.522 193.297C291.522 193.297 313.053 203.119 321.265 204.59" stroke="#888888" stroke-width="6" stroke-linecap="round" stroke-linejoin="round"/>
<path d="M337.307 208.062C363.007 214.987 393.049 215.157 415.281 204.333C433.749 195.342 443.982 181.365 449.939 145.059" stroke="#888888" stroke-width="6" stroke-linecap="round" stroke-linejoin="round"/>
<path d="M452.918 145.996C504.149 62.5808 426.004 30.2587 426.004 30.2587C379.092 -14.0163 306.372 9.08004 306.372 9.08004C306.372 9.08004 253.566 24.4634 261.289 71.3378" stroke="#888888" stroke-width="6" stroke-linecap="round" stroke-linejoin="round"/>
<path d="M409.941 54.6328C409.941 54.6328 405.942 84.7177 354.816 87.4236" stroke="#888888" stroke-width="6" stroke-linecap="round" stroke-linejoin="round"/>
<path d="M415.621 74.5762C415.621 74.5762 437.875 98.3543 435.939 127.693" stroke="#888888" stroke-width="6" stroke-linecap="round" stroke-linejoin="round"/>
<path d="M304.82 74.2987C304.82 74.2987 340.159 73.9578 359.711 47.6016" stroke="#888888" stroke-width="6" stroke-linecap="round" stroke-linejoin="round"/>
<path d="M380.795 29.3203C380.795 29.3203 393.05 38.61 389.22 49.0715C386.263 57.1041 381.221 59.533 365.626 62.8355C350.031 66.1381 328.457 46.323 320.33 26.0178C332.946 19.1997 355.754 5.84053 380.816 29.3203H380.795Z" fill="#A5A5A5"/>
<path d="M382.602 56.8481C382.602 56.8481 343.625 83.8222 319.945 25.1653C319.945 25.1653 358.411 -1.06309 389.346 38.5458" stroke="#888888" stroke-width="6" stroke-linecap="round" stroke-linejoin="round"/>
<path d="M352.669 37.9922C352.52 38.4396 378.689 55.7192 399.283 43.745" stroke="#888888" stroke-width="6" stroke-linecap="round" stroke-linejoin="round"/>
<path d="M180.634 224.168C181.251 222.336 181.613 220.397 181.613 218.416C181.613 206.633 170.167 197.066 156.04 197.066C144.806 197.066 135.275 203.117 131.849 211.534C114.191 211.832 100 223.7 100 238.337C100 252.975 114.552 265.162 132.509 265.162C139.594 265.162 146.125 263.266 151.466 260.112C156.465 263.074 162.869 264.864 169.826 264.864C185.889 264.864 198.91 255.425 198.91 243.77C198.91 234.907 191.357 227.322 180.656 224.211L180.634 224.168Z" fill="#FBFBFB" stroke="#CFCFCF" stroke-width="6" stroke-linecap="round" stroke-linejoin="round"/>
<defs>
<filter id="filter0_f_1138_46492" x="244.716" y="100.841" width="62.6762" height="53.3462" filterUnits="userSpaceOnUse" color-interpolation-filters="sRGB">
<feFlood flood-opacity="0" result="BackgroundImageFix"/>
<feBlend mode="normal" in="SourceGraphic" in2="BackgroundImageFix" result="shape"/>
<feGaussianBlur stdDeviation="6.42248" result="effect1_foregroundBlur_1138_46492"/>
</filter>
<filter id="filter1_f_1138_46492" x="344.532" y="130.35" width="64.6762" height="50.4477" filterUnits="userSpaceOnUse" color-interpolation-filters="sRGB">
<feFlood flood-opacity="0" result="BackgroundImageFix"/>
<feBlend mode="normal" in="SourceGraphic" in2="BackgroundImageFix" result="shape"/>
<feGaussianBlur stdDeviation="6.42248" result="effect1_foregroundBlur_1138_46492"/>
</filter>
</defs>
</svg>
