<svg width="99" height="75" viewBox="0 0 99 75" fill="none" xmlns="http://www.w3.org/2000/svg">
<ellipse opacity="0.4" cx="32.6833" cy="4.93333" rx="32.6833" ry="4.93333" transform="matrix(-1 0 0 1 82.6016 63.0137)" fill="#A1795C"/>
<path d="M38.9508 66.7109L38.6082 67.3961L38.2656 68.4239L39.636 69.4517H41.0064L42.7193 69.1091L44.0897 68.4239L44.4323 68.0813V67.3961L43.4045 67.0535L41.6916 66.7109H40.3212H38.9508Z" fill="white"/>
<path d="M33.4701 14.2956L32.0997 17.0363L32.4423 19.7771L33.1275 23.8882V25.6011L31.4145 28.6845L30.3867 32.453L32.4423 38.2771L37.5812 42.0456L41.6923 43.4159L43.4052 45.4715L47.8589 45.8141L50.9423 44.4437L56.4238 44.1011L62.5904 42.0456L66.0163 38.9622L67.3867 34.5085V30.0548L68.0719 28.6845L69.4423 21.8326L68.7571 19.0919L68.0719 17.7215L67.3867 16.0085L65.3312 14.2956L64.3034 13.2678L62.5904 11.8974L59.8497 10.8696L57.7941 10.1845L54.7108 8.81409L50.2571 8.12891L45.1182 8.4715L39.2941 10.1845L34.8404 12.5826L33.4701 14.2956Z" fill="white"/>
<path d="M44.7778 45.129C39.6742 50.9942 31.0789 50.0882 31.0789 50.0882C31.0789 50.0882 28.4418 52.9602 26.0132 49.7662C24.0089 47.1329 26.4186 44.4239 27.9076 44.1586C29.3966 43.8934 31.3403 44.5413 31.992 46.216C31.992 46.216 35.7531 46.3297 39.9815 43.416" fill="white"/>
<path d="M42.1376 46.7074C37.034 52.5726 30.7937 49.8181 30.7937 49.8181C30.7937 49.8181 28.1567 52.6901 25.728 49.4961C23.7237 46.8628 26.1334 44.1537 27.6225 43.8885C29.1115 43.6233 31.0552 44.2712 31.7069 45.9459C31.7069 45.9459 34.2833 47.075 38.5117 44.1613L39.7468 43.3164" stroke="#7C6656" stroke-linecap="round" stroke-linejoin="round"/>
<path d="M37.25 45.1543C37.25 45.1543 37.5001 45.9537 39.7431 48.3824" stroke="#7C6656" stroke-linecap="round" stroke-linejoin="round"/>
<path d="M54.3672 48.555C61.1341 52.3856 66.9654 47.7115 66.9654 47.7115C66.9654 47.7115 70.4095 49.5415 71.6333 45.7185C72.6449 42.5662 69.4698 40.8157 67.9808 41.062C66.488 41.3083 64.8702 42.57 64.8171 44.3621C64.8171 44.3621 60.5339 46.8421 56.0802 44.1013" fill="white"/>
<path d="M55.2344 48.5602C62.0013 52.3907 66.9647 47.7115 66.9647 47.7115C66.9647 47.7115 70.4088 49.5415 71.6326 45.7185C72.6442 42.5662 69.4692 40.8157 67.9801 41.062C66.4873 41.3083 64.8695 42.57 64.8164 44.3621C64.8164 44.3621 61.2701 46.7642 58.2996 45.0706C57.2008 44.5288 56.803 44.0249 56.803 44.0249" stroke="#7C6656" stroke-linecap="round" stroke-linejoin="round"/>
<path d="M59.2305 45.8086C59.2305 45.8086 59.4048 46.7066 58.0977 49.7414" stroke="#7C6656" stroke-linecap="round" stroke-linejoin="round"/>
<path d="M44.3702 67.4665C44.3702 67.4665 46.1585 63.2533 45.791 59.7524C47.2345 59.7827 49.5609 59.616 49.6481 59.5591C49.7731 60.0668 50.9325 66.5837 52.0161 68.4743C52.9861 67.9628 55.0813 67.2013 56.8052 66.5685C56.7408 65.2727 56.4074 61.5256 56.2483 60.2676C56.0891 59.0097 56.2028 56.1719 56.2028 56.1719C56.2028 56.1719 41.9301 56.8842 38.918 56.2401C39.1074 57.7215 40.6116 62.8858 39.2211 66.4814C41.6611 67.0005 43.7601 66.8376 44.3739 67.4665H44.3702Z" fill="#8FBDE2"/>
<path d="M56.1992 56.4258C56.2257 58.0323 56.2409 59.4114 56.2447 60.2677C56.2598 63.8217 57.0479 66.6671 57.0479 66.6671" stroke="#7C6656" stroke-linecap="round" stroke-linejoin="round"/>
<path d="M56.6657 66.6641C56.6657 66.6641 60.1969 67.4749 57.1999 69.9263C55.2979 70.4908 52.6002 69.9263 51.9258 68.2971C53.5285 67.8045 56.6694 66.6678 56.6694 66.6678L56.6657 66.6641Z" fill="white"/>
<path d="M56.6621 66.6639C56.6621 66.6639 58.1094 66.9481 58.2648 67.8877C58.4201 68.8274 58.1094 70.0398 55.605 70.0777C53.1005 70.1156 51.7062 68.7099 51.1303 66.2434C50.5544 63.7768 49.6868 59.6697 49.6868 59.6697C49.6868 59.6697 45.3447 60.022 44.3672 59.4727" stroke="#7C6656" stroke-linecap="round" stroke-linejoin="round"/>
<path d="M45.9387 59.7598C45.9387 59.7598 44.9649 67.4209 44.2602 68.3605C43.5555 69.3001 41.483 69.6525 40.0356 69.4934C38.5883 69.338 38.1184 68.2431 38.4329 67.5762C38.7474 66.9094 39.49 66.6631 39.49 66.6631" stroke="#7C6656" stroke-linecap="round" stroke-linejoin="round"/>
<path d="M39.0547 56.3359C39.5283 61.2463 40.3543 62.5497 39.3426 66.4825" stroke="#7C6656" stroke-linecap="round" stroke-linejoin="round"/>
<path d="M44.3723 67.466C44.3723 67.466 41.5192 66.4961 39.4922 66.6666" stroke="#7C6656" stroke-linecap="round" stroke-linejoin="round"/>
<path d="M57.0457 66.6641C57.0457 66.6641 54.6057 66.8383 52.3438 68.3501" stroke="#7C6656" stroke-linecap="round" stroke-linejoin="round"/>
<path d="M55.9716 44.6844C55.9716 44.6844 56.6043 54.9826 57.5288 56.1685C57.5288 56.1685 46.1281 57.6083 38.539 56.1685C38.0691 51.0838 39.9863 46.3667 39.9863 46.3667C39.9863 46.3667 40.7176 43.6842 41.1571 43.3242C42.5855 43.6766 52.3873 45.3702 55.0206 44.3927C57.65 43.4152 55.9754 44.6844 55.9754 44.6844H55.9716Z" fill="white"/>
<path d="M39.9853 46.3698C39.9853 46.3698 38.072 51.0869 38.538 56.1716C46.1271 57.6113 57.5278 56.1716 57.5278 56.1716C56.6033 54.9857 55.9706 44.6875 55.9706 44.6875" stroke="#7C6656" stroke-linecap="round" stroke-linejoin="round"/>
<path d="M50.6271 44.6807C50.6271 44.6807 48.6759 46.8025 45.9365 46.1395C42.5 45.3059 42.9054 43.832 42.9054 43.832" stroke="#7C6656" stroke-linecap="round" stroke-linejoin="round"/>
<path d="M33.3416 22.8066C33.3416 22.8066 33.2582 24.8678 33.2241 25.4967C32.777 26.4781 30.4166 29.4751 30.8599 33.5405C31.2994 37.606 34.4896 41.3267 41.427 43.4067C41.427 43.4067 45.519 44.407 47.0042 44.3919" stroke="#7C6656" stroke-linecap="round" stroke-linejoin="round"/>
<path d="M49.9297 44.461C54.6582 44.8172 59.9172 43.851 63.4446 41.2177C66.3734 39.0316 67.7033 36.2505 67.5404 29.7109" stroke="#7C6656" stroke-linecap="round" stroke-linejoin="round"/>
<g filter="url(#filter0_f_1191_29621)">
<ellipse cx="38.7911" cy="32.5954" rx="3.0311" ry="1.89444" transform="rotate(3 38.7911 32.5954)" fill="#F5B0B0"/>
</g>
<g filter="url(#filter1_f_1191_29621)">
<ellipse cx="57.834" cy="34.3591" rx="3.0311" ry="1.89444" transform="rotate(3 57.834 34.3591)" fill="#F5B0B0"/>
</g>
<path d="M53.0949 29.3205C52.9927 30.3814 53.7732 31.321 54.8303 31.4233C55.8911 31.5256 56.8308 30.7451 56.9331 29.688C57.0354 28.6271 56.2549 27.6875 55.1978 27.5852C54.1369 27.4829 53.1972 28.2634 53.0949 29.3205Z" fill="#7C6656"/>
<path d="M39.9387 28.0685C39.8364 29.1294 40.6169 30.0691 41.674 30.1714C42.7349 30.2737 43.6745 29.4931 43.7768 28.4361C43.8791 27.3752 43.0986 26.4355 42.0415 26.3332C40.9806 26.2309 40.041 27.0114 39.9387 28.0685Z" fill="#7C6656"/>
<path d="M67.8612 29.9251C74.056 13.6481 59.3097 10.5981 59.3097 10.5981C49.633 4.426 37.6753 10.8785 37.6753 10.8785C37.6753 10.8785 28.9457 15.3228 31.8556 23.2529" stroke="#7C6656" stroke-linecap="round" stroke-linejoin="round"/>
<path d="M57.5396 15.2441C57.5396 15.2441 57.839 20.6319 48.9844 22.8067" stroke="#7C6656" stroke-linecap="round" stroke-linejoin="round"/>
<path d="M59.1953 18.5371C59.1953 18.5371 63.8784 21.9509 64.5149 27.1416" stroke="#7C6656" stroke-linecap="round" stroke-linejoin="round"/>
<path d="M39.8008 22.1739C39.8008 22.1739 45.9729 20.9425 48.5152 15.6836" stroke="#7C6656" stroke-linecap="round" stroke-linejoin="round"/>
<path d="M50.7745 11.5468C50.7745 11.5468 53.4229 12.2401 53.5024 14.2217C53.5631 15.7411 52.8962 16.4875 50.5509 18.0864C48.2094 19.6891 43.3104 17.9007 40.5938 15.1197C42.2078 13.1419 45.0533 9.39469 50.7745 11.5468Z" fill="#1BAE91"/>
<path d="M52.9382 15.9452C52.9382 15.9452 48.3574 23.0304 40.4766 15.0018C40.4766 15.0018 45.027 8.0757 52.8056 12.4784" stroke="#7C6656" stroke-linecap="round" stroke-linejoin="round"/>
<path d="M46.7305 14.8803C46.7343 14.9637 52.2168 16.0208 54.7932 12.6562" stroke="#7C6656" stroke-linecap="round" stroke-linejoin="round"/>
<path d="M44.3711 33.6016L50.5584 33.9767C50.5584 33.9767 50.6758 38.7923 46.7695 38.3642C42.8594 37.936 44.3749 33.6016 44.3749 33.6016H44.3711Z" fill="#F29AA0" stroke="#7C6656" stroke-linecap="round" stroke-linejoin="round"/>
<path d="M80.1232 23.9129C88.7214 23.9129 95.6916 18.9223 95.6916 12.766C95.6916 6.60976 88.7214 1.61914 80.1232 1.61914C71.5249 1.61914 64.5547 6.60976 64.5547 12.766C64.5547 18.9223 71.5249 23.9129 80.1232 23.9129Z" fill="white" stroke="#7C6656" stroke-linecap="round" stroke-linejoin="round"/>
<path d="M74.888 22.5078C74.566 23.4967 73.7286 24.7963 71.6523 26.0428C71.6523 26.0428 77.6122 26.0049 80.3061 22.5116" fill="white"/>
<path d="M74.888 22.5078C74.566 23.4967 73.7286 24.7963 71.6523 26.0428C71.6523 26.0428 77.6122 26.0049 80.3061 22.5116" stroke="#7C6656" stroke-linecap="round" stroke-linejoin="round"/>
<path d="M82.5673 6.2418L80.9914 15.5475L78.4035 15.1838L79.4537 5.80421L82.5673 6.2418ZM79.1324 19.533C78.1822 19.3995 77.5123 18.5913 77.6517 17.7465C77.7506 16.896 78.6147 16.3221 79.5649 16.4557C80.4545 16.5807 81.1472 17.3733 81.0281 18.221C80.9089 19.0687 80.022 19.6581 79.1324 19.533Z" fill="#5CA3D6"/>
<path d="M18.9148 29.9432C26.7702 29.9432 33.1383 25.3834 33.1383 19.7587C33.1383 14.134 26.7702 9.57422 18.9148 9.57422C11.0595 9.57422 4.69141 14.134 4.69141 19.7587C4.69141 25.3834 11.0595 29.9432 18.9148 29.9432Z" fill="white" stroke="#7C6656" stroke-linecap="round" stroke-linejoin="round"/>
<path d="M23.3304 27.8828C23.5274 28.9058 24.2018 30.2963 26.1076 31.7854C26.1076 31.7854 22.7431 31.3458 20.125 29.5007" fill="white"/>
<path d="M23.3304 27.8828C23.5274 28.9058 24.2018 30.2963 26.1076 31.7854C26.1076 31.7854 22.7431 31.3458 20.125 29.5007" stroke="#7C6656" stroke-linecap="round" stroke-linejoin="round"/>
<path d="M18.1509 21.632C17.9348 20.0021 18.2817 19.4312 18.9749 18.8384C19.469 18.3941 19.8306 17.9282 19.7457 17.3243C19.6535 16.6678 19.0976 16.3041 18.4884 16.3897C17.8919 16.4735 17.4033 16.9573 17.4868 17.7355L15.6846 17.9887C15.4625 16.1321 16.6588 15.067 18.2833 14.8386C20.0475 14.5907 21.4387 15.3726 21.6656 16.9875C21.817 18.0641 21.3817 18.8349 20.616 19.4647C19.968 20.011 19.7098 20.4757 19.8262 21.3965L19.8465 21.541L18.1712 21.7764L18.1509 21.632ZM19.464 24.6206C18.8675 24.7044 18.3151 24.2733 18.2429 23.6676C18.1453 23.0654 18.5593 22.5118 19.1558 22.428C19.7143 22.3495 20.2775 22.7657 20.3624 23.3697C20.4473 23.9736 20.0224 24.5421 19.464 24.6206Z" fill="#EE7474"/>
<defs>
<filter id="filter0_f_1191_29621" x="34.3913" y="29.3269" width="8.79933" height="6.53762" filterUnits="userSpaceOnUse" color-interpolation-filters="sRGB">
<feFlood flood-opacity="0" result="BackgroundImageFix"/>
<feBlend mode="normal" in="SourceGraphic" in2="BackgroundImageFix" result="shape"/>
<feGaussianBlur stdDeviation="0.685185" result="effect1_foregroundBlur_1191_29621"/>
</filter>
<filter id="filter1_f_1191_29621" x="53.4343" y="31.0906" width="8.79933" height="6.53762" filterUnits="userSpaceOnUse" color-interpolation-filters="sRGB">
<feFlood flood-opacity="0" result="BackgroundImageFix"/>
<feBlend mode="normal" in="SourceGraphic" in2="BackgroundImageFix" result="shape"/>
<feGaussianBlur stdDeviation="0.685185" result="effect1_foregroundBlur_1191_29621"/>
</filter>
</defs>
</svg>
