<svg width="880" height="640" viewBox="0 0 880 640" fill="none" xmlns="http://www.w3.org/2000/svg">
<mask id="mask0_1802_20287" style="mask-type:alpha" maskUnits="userSpaceOnUse" x="130" y="10" width="620" height="620">
<rect x="130" y="10" width="620" height="620" fill="#D9D9D9"/>
</mask>
<g mask="url(#mask0_1802_20287)">
<path d="M342.156 382.484L315.031 430.922L309.219 435.281L329.562 450.297L363.469 459.016L429.828 466.281L497.156 459.016H513.141L539.297 450.297L565.453 435.281V420.75L544.625 369.406L414.328 376.672L342.156 382.484Z" fill="white"/>
<path d="M392.988 597.62C392.988 597.62 377.722 609.352 385.147 619.301C392.572 629.251 421.202 625.806 426.222 614.341C431.271 605.075 427.291 596.284 421.143 592.75" fill="white"/>
<path d="M484.937 597.62C484.937 597.62 500.203 609.352 492.778 619.301C485.353 629.251 456.722 625.806 451.703 614.341C446.654 605.075 450.634 596.284 456.782 592.75" fill="white"/>
<path d="M376.741 516.807C376.741 516.807 376.711 581.078 388.383 605.402C400.055 609.471 429.31 602.758 429.31 602.758C429.31 602.758 423.073 567.445 428.508 542.705C439.259 542.23 451.139 540.953 451.139 540.953C451.139 540.953 456.188 579.325 448.377 602.758C459.514 605.818 477.305 608.342 489.304 605.402C492.363 591.324 504.807 528.093 500.857 499.908C473.563 498.601 380.75 498.155 380.75 498.155C380.75 498.155 376.592 505.135 376.83 516.807H376.741Z" fill="#8FBDE2"/>
<path d="M426.489 540.953C426.489 540.953 422.005 583.305 429.251 602.759C429.251 602.759 405.373 611.52 388.325 605.402C388.325 605.402 371.812 536.498 378.761 505.937" stroke="#7C6656" stroke-width="8" stroke-linecap="round" stroke-linejoin="round"/>
<path d="M389.185 605.402C389.185 605.402 377.364 610.035 385.116 619.331C392.452 628.123 429.755 629.667 428.419 603.62" stroke="#7C6656" stroke-width="8" stroke-linecap="round" stroke-linejoin="round"/>
<path d="M451.079 540.953C451.079 540.953 455.563 583.305 448.317 602.759C448.317 602.759 472.195 611.52 489.243 605.402C489.243 605.402 505.756 536.498 498.807 505.937" stroke="#7C6656" stroke-width="8" stroke-linecap="round" stroke-linejoin="round"/>
<path d="M488.383 605.402C488.383 605.402 500.204 610.035 492.452 619.331C485.116 628.123 447.813 629.667 449.149 603.62" stroke="#7C6656" stroke-width="8" stroke-linecap="round" stroke-linejoin="round"/>
<path d="M428.478 542.706C428.478 542.706 449.654 542.706 457.346 538.429" stroke="#7C6656" stroke-width="8" stroke-linecap="round" stroke-linejoin="round"/>
<path d="M382.503 417.104C382.503 417.104 368.514 481.701 367.563 516.331C431.27 519.776 484.967 519.628 515.855 515.5C514.875 494.947 490.67 390.552 487.373 386.928" fill="white"/>
<path d="M551.913 173.655C551.913 173.655 607.154 216.304 566.703 270.298C565.723 270.209 565.575 276.832 565.575 276.832C565.575 276.832 585.444 302.671 583.246 325.926C581.048 349.211 577.959 394.503 489.899 417.669C463.347 422.154 409.887 425.54 372.941 417.075C345.884 411.551 311.402 395.899 300.057 357.171C300.057 357.171 291.89 331.242 294.711 310.037C291.503 298.899 279.95 275.08 283.989 232.193C288.029 189.306 323.639 164.655 363.556 154.35C385.444 143.687 421.263 128.926 471.455 138.46C521.648 147.994 551.913 173.625 551.913 173.625V173.655Z" fill="white"/>
<path d="M563.672 249.625C566.88 259.01 565.424 271.87 565.603 276.83C568.959 284.582 586.957 308.461 582.829 340.24C578.7 372.048 553.129 400.679 498.421 415.856C498.421 415.856 459.425 424.202 431.626 422.717C411.49 422.776 353.456 416.301 326.221 395.125C303.619 377.543 293.64 355.506 295.987 304.273" stroke="#7C6656" stroke-width="8" stroke-linecap="round" stroke-linejoin="round"/>
<g filter="url(#filter0_f_1802_20287)">
<ellipse cx="518.684" cy="327.221" rx="26.176" ry="14.5422" transform="rotate(-1.80278 518.684 327.221)" fill="#F5B0B0"/>
</g>
<g filter="url(#filter1_f_1802_20287)">
<ellipse cx="375.606" cy="334.634" rx="25.4488" ry="14.5422" transform="rotate(-1.80278 375.606 334.634)" fill="#F5B0B0"/>
</g>
<path d="M483.601 330.826C483.601 330.826 471.335 343.508 447.991 344.904C424.647 346.3 411.757 335.103 411.757 335.103" stroke="#7C6656" stroke-width="8" stroke-linecap="round" stroke-linejoin="round"/>
<path d="M293.431 304.452C247.515 175.911 363.553 154.378 363.553 154.378C440.386 107.571 533.05 160.051 533.05 160.051C533.05 160.051 600.736 196.285 576.65 257.972" stroke="#7C6656" stroke-width="8" stroke-linecap="round" stroke-linejoin="round"/>
<path d="M376.622 192.543C376.622 192.543 373.414 234.717 442.467 253.191" stroke="#7C6656" stroke-width="8" stroke-linecap="round" stroke-linejoin="round"/>
<path d="M363.138 218.085C363.138 218.085 325.894 244.073 320.073 284.673" stroke="#7C6656" stroke-width="8" stroke-linecap="round" stroke-linejoin="round"/>
<path d="M514.548 249.716C514.548 249.716 466.375 239.053 447.278 197.444" stroke="#7C6656" stroke-width="8" stroke-linecap="round" stroke-linejoin="round"/>
<path d="M423.725 166.467C423.725 166.467 404.301 175.615 406.529 190.97C408.251 202.761 414.459 207.542 434.803 216.541C455.148 225.541 490.342 204.751 507.301 179.417C492.035 166.467 464.741 141.668 423.725 166.467Z" fill="#1AAF92"/>
<path d="M413.332 203.442C413.332 203.442 458.773 251.497 508.015 178.316C508.015 178.316 463.05 131.45 409.382 176.504" stroke="#7C6656" stroke-width="8" stroke-linecap="round" stroke-linejoin="round"/>
<path d="M459.663 186.395C459.752 187.049 419.004 203.057 394.323 180.782" stroke="#7C6656" stroke-width="8" stroke-linecap="round" stroke-linejoin="round"/>
<path d="M408.015 306.858C408.015 306.858 404.124 299.582 393.937 300.354C382.502 301.186 378.582 312.442 378.582 312.442" stroke="#7C6656" stroke-width="8" stroke-linecap="round" stroke-linejoin="round"/>
<path d="M480.899 301.482C480.899 301.482 483.691 293.73 493.878 292.958C505.313 292.126 510.837 302.67 510.837 302.67" stroke="#7C6656" stroke-width="8" stroke-linecap="round" stroke-linejoin="round"/>
<path d="M476.294 421.321C473.086 427.142 465.572 434.33 449.089 436.468C431.506 438.755 418.765 434.152 411.073 422.925" stroke="#7C6656" stroke-width="8" stroke-linecap="round" stroke-linejoin="round"/>
<path d="M510.242 510.897H376.889" stroke="#7C6656" stroke-width="8" stroke-linecap="round" stroke-linejoin="round"/>
<path d="M502.847 437.775C502.579 436.676 516.687 481.048 515.855 515.5C515.855 515.5 433.527 524.588 367.563 516.332C367.563 516.332 371.306 465.099 377.958 443.151" fill="white"/>
<path d="M502.847 437.775C502.579 436.676 516.687 481.048 515.855 515.5C515.855 515.5 433.527 524.588 367.563 516.332C367.563 516.332 371.306 465.099 377.958 443.151" stroke="#7C6656" stroke-width="8" stroke-linecap="round" stroke-linejoin="round"/>
<path d="M435.428 43.4488C422.419 18.8572 389.571 3.44294 362.039 25.3615C337.893 44.8447 334.359 84.5535 355.179 117.194C372.791 144.844 403.886 165.486 434.745 177.544C465.692 165.783 497.026 145.527 514.816 117.996C535.932 85.6524 532.725 45.706 508.757 26.2525C481.492 3.88844 448.407 18.976 435.458 43.4785L435.428 43.4488Z" fill="#F08395"/>
<path d="M507.302 413.214C604.034 384.583 596.461 309.829 596.461 309.829C597.441 302.998 594.531 293.434 594.531 293.434C563.821 277.604 571.572 229.164 609.677 229.164C643.624 229.164 650.188 253.577 646.862 269.823C644.812 279.772 629.933 289.633 629.933 289.633C629.933 289.633 672.523 414.61 515.291 457.437" fill="white"/>
<path d="M507.302 413.214C604.034 384.583 596.461 309.829 596.461 309.829C597.441 302.998 594.53 293.434 594.53 293.434C563.821 277.604 571.572 229.164 609.677 229.164C643.624 229.164 650.188 253.577 646.862 269.823C644.812 279.772 629.933 289.633 629.933 289.633C629.933 289.633 665.87 416.511 508.638 459.338" stroke="#7C6656" stroke-width="8" stroke-linecap="round" stroke-linejoin="round"/>
<path d="M523.013 407.363C523.013 407.363 528.329 428.034 523.013 452.863" stroke="#7C6656" stroke-width="8" stroke-linecap="round" stroke-linejoin="round"/>
<path d="M372.049 415.737C275.316 387.107 282.89 312.352 282.89 312.352C281.91 305.521 284.82 295.957 284.82 295.957C315.53 280.127 307.778 231.687 269.673 231.687C235.726 231.687 229.163 256.1 232.489 272.346C234.538 282.295 249.418 292.156 249.418 292.156C249.418 292.156 213.481 419.034 370.713 461.861" fill="white"/>
<path d="M372.049 415.737C275.316 387.107 282.89 312.352 282.89 312.352C281.91 305.521 284.82 295.957 284.82 295.957C315.53 280.127 307.778 231.687 269.673 231.687C235.726 231.687 229.163 256.1 232.489 272.346C234.538 282.295 249.418 292.156 249.418 292.156C249.418 292.156 213.481 419.034 370.713 461.861" stroke="#7C6656" stroke-width="8" stroke-linecap="round" stroke-linejoin="round"/>
<path d="M356.307 409.886C356.307 409.886 350.991 430.558 356.307 455.387" stroke="#7C6656" stroke-width="8" stroke-linecap="round" stroke-linejoin="round"/>
<path d="M326.519 131.539C326.519 131.539 323.163 159.131 360.05 168.07" stroke="#F08395" stroke-width="8" stroke-linecap="round" stroke-linejoin="round"/>
<path d="M304.154 136.173C304.154 136.173 299.254 173.862 346.773 180.782" stroke="#F08395" stroke-width="8" stroke-linecap="round" stroke-linejoin="round"/>
<path d="M547.783 130.707C547.783 130.707 551.139 158.299 514.252 167.238" stroke="#F08395" stroke-width="8" stroke-linecap="round" stroke-linejoin="round"/>
<path d="M570.178 135.34C570.178 135.34 575.078 173.029 527.558 179.949" stroke="#F08395" stroke-width="8" stroke-linecap="round" stroke-linejoin="round"/>
</g>
<defs>
<filter id="filter0_f_1802_20287" x="482.952" y="303.097" width="71.4636" height="48.2468" filterUnits="userSpaceOnUse" color-interpolation-filters="sRGB">
<feFlood flood-opacity="0" result="BackgroundImageFix"/>
<feBlend mode="normal" in="SourceGraphic" in2="BackgroundImageFix" result="shape"/>
<feGaussianBlur stdDeviation="4.78235" result="effect1_foregroundBlur_1802_20287"/>
</filter>
<filter id="filter1_f_1802_20287" x="340.601" y="310.512" width="70.0103" height="48.2441" filterUnits="userSpaceOnUse" color-interpolation-filters="sRGB">
<feFlood flood-opacity="0" result="BackgroundImageFix"/>
<feBlend mode="normal" in="SourceGraphic" in2="BackgroundImageFix" result="shape"/>
<feGaussianBlur stdDeviation="4.78235" result="effect1_foregroundBlur_1802_20287"/>
</filter>
</defs>
</svg>
