<svg width="880" height="640" viewBox="0 0 880 640" fill="none" xmlns="http://www.w3.org/2000/svg">
<path d="M541.963 489.836H518.608V474.781H541.963C546.126 474.781 549.491 478.146 549.491 482.309C549.491 486.471 546.126 489.836 541.963 489.836Z" fill="#C6C6C6" stroke="#7C6656" stroke-width="8" stroke-linecap="round" stroke-linejoin="round"/>
<path d="M421.935 181.615L700.248 211.505C704.337 211.945 707.326 215.625 706.884 219.739L683.605 436.491C682.99 442.216 677.831 446.375 672.106 445.76L399.691 416.503C393.967 415.888 389.808 410.728 390.423 405.004L413.704 188.227C414.143 184.137 417.824 181.148 421.938 181.59L421.935 181.615Z" fill="#EB9792"/>
<path d="M591.689 169.419C591.689 169.419 617.537 86.1682 679.676 87.2649C741.816 88.3616 752.085 108.302 776.636 90.8791C776.636 90.8791 761.208 120.964 745.629 124.878C745.629 124.878 762.454 143.946 777.933 142.276C777.933 142.276 757.02 160.197 718.186 148.208C679.352 136.219 661.68 132.629 645.454 153.966" fill="#FED17E"/>
<path d="M591.689 169.419C591.689 169.419 617.537 86.1682 679.676 87.2649C741.816 88.3616 752.085 108.302 776.636 90.8791C776.636 90.8791 761.208 120.964 745.629 124.878C745.629 124.878 762.454 143.946 777.933 142.276C777.933 142.276 757.02 160.197 718.186 148.208C679.352 136.219 661.68 132.629 645.454 153.966" stroke="#7C6656" stroke-width="8" stroke-linecap="round" stroke-linejoin="round"/>
<path d="M547.421 155.435C547.421 155.435 530.721 117.399 561.379 91.1524C592.063 64.9308 618.334 82.4534 645.004 50.0004C645.004 50.0004 646.924 78.0665 637.901 89.3578C637.901 89.3578 655.897 97.4087 674.292 89.9311C674.292 89.9311 658.29 112.414 635.109 120.515C611.928 128.615 552.581 121.761 550.836 158.526" fill="#FED17E"/>
<path d="M547.421 155.435C547.421 155.435 530.721 117.399 561.379 91.1524C592.063 64.9308 618.334 82.4534 645.004 50.0004C645.004 50.0004 646.924 78.0665 637.901 89.3578C637.901 89.3578 655.897 97.4087 674.292 89.9311C674.292 89.9311 658.29 112.414 635.109 120.515C611.928 128.615 552.581 121.761 550.836 158.526" stroke="#7C6656" stroke-width="8" stroke-linecap="round" stroke-linejoin="round"/>
<path d="M594.581 158.625C594.581 158.625 613.724 137.987 637.502 129.413C661.256 120.813 680.324 128.441 682.069 144.218C683.789 159.996 671.277 169.418 673.57 178.217C675.888 187.016 685.758 197.634 681.297 203.317C676.835 209 626.859 226.049 585.732 190.007C577.906 180.934 582.666 171.063 594.581 158.625Z" fill="#FED17E" stroke="#7C6656" stroke-width="8" stroke-linecap="round" stroke-linejoin="round"/>
<path d="M554.55 149.479C552.83 144.045 540.99 101.423 526.583 92.9979C502.107 78.6657 482.939 97.8584 484.758 128.043C484.758 128.043 483.363 135.147 476.433 138.836C469.504 142.55 440.765 172.66 492.411 189.186C544.056 205.711 556.319 159.1 556.319 159.1L554.575 149.479H554.55Z" fill="#FED17E" stroke="#7C6656" stroke-width="8" stroke-linecap="round" stroke-linejoin="round"/>
<path d="M539.745 182.929C539.745 182.929 549.466 143.422 552.831 144.02C556.195 144.618 590.917 149.18 594.581 158.627C595.428 162.739 585.732 190.008 585.732 190.008L539.745 182.929Z" fill="#FED17E" stroke="#7C6656" stroke-width="8" stroke-linecap="round" stroke-linejoin="round"/>
<mask id="mask0_1802_19095" style="mask-type:luminance" maskUnits="userSpaceOnUse" x="390" y="181" width="317" height="265">
<path d="M421.935 181.613L700.248 211.503C704.337 211.943 707.326 215.623 706.884 219.737L683.605 436.489C682.991 442.214 677.831 446.373 672.106 445.758L399.692 416.501C393.967 415.886 389.808 410.726 390.423 405.001L413.704 188.225C414.144 184.135 417.824 181.146 421.938 181.588L421.935 181.613Z" fill="white"/>
</mask>
<g mask="url(#mask0_1802_19095)">
<path d="M444.978 255.138C443.682 267.277 432.79 276.051 420.651 274.755C408.512 273.458 399.738 262.566 401.034 250.427C402.331 238.289 413.223 229.515 425.362 230.811C437.5 232.107 446.274 242.999 444.978 255.138Z" fill="#F7D2CE"/>
<path d="M422.37 391.705C421.074 403.844 410.182 412.618 398.043 411.322C385.904 410.025 377.13 399.133 378.427 386.994C379.723 374.855 390.615 366.082 402.754 367.378C414.893 368.674 423.666 379.566 422.37 391.705Z" fill="#F7D2CE"/>
<path d="M496.424 339.461C495.128 351.6 484.236 360.374 472.097 359.078C459.958 357.782 451.184 346.889 452.481 334.75C453.777 322.612 464.669 313.838 476.808 315.134C488.947 316.43 497.72 327.323 496.424 339.461Z" fill="#F7D2CE"/>
<path d="M555.025 274.655C553.728 286.794 542.836 295.567 530.697 294.271C518.559 292.975 509.785 282.083 511.081 269.944C512.377 257.805 523.269 249.031 535.408 250.328C547.547 251.624 556.321 262.516 555.025 274.655Z" fill="#F7D2CE"/>
<path d="M572.623 267.824C571.327 279.963 560.434 288.737 548.296 287.44C536.157 286.144 527.383 275.252 528.679 263.113C529.975 250.974 540.868 242.201 553.006 243.497C565.145 244.793 573.919 255.685 572.623 267.824Z" fill="#F7D2CE"/>
<path d="M557.742 406.261C556.445 418.399 545.553 427.173 533.414 425.877C521.276 424.581 512.502 413.688 513.798 401.55C515.094 389.411 525.987 380.637 538.125 381.933C550.264 383.229 559.038 394.122 557.742 406.261Z" fill="#F7D2CE"/>
<path d="M645.954 331.833C644.657 343.972 633.765 352.746 621.626 351.45C609.488 350.153 600.714 339.261 602.01 327.122C603.306 314.984 614.198 306.21 626.337 307.506C638.476 308.802 647.25 319.694 645.954 331.833Z" fill="#F7D2CE"/>
<path d="M592.188 416.182C590.892 428.32 580 437.094 567.861 435.798C555.722 434.502 546.949 423.609 548.245 411.471C549.541 399.332 560.433 390.558 572.572 391.854C584.711 393.15 593.485 404.043 592.188 416.182Z" fill="#F7D2CE"/>
<path d="M707.993 282.382C706.697 294.52 695.805 303.294 683.666 301.998C671.527 300.702 662.753 289.809 664.049 277.671C665.346 265.532 676.238 256.758 688.377 258.054C700.515 259.35 709.289 270.243 707.993 282.382Z" fill="#F7D2CE"/>
<path d="M693.113 420.792C691.817 432.931 680.924 441.704 668.786 440.408C656.647 439.112 647.873 428.22 649.169 416.081C650.465 403.942 661.358 395.168 673.496 396.465C685.635 397.761 694.409 408.653 693.113 420.792Z" fill="#F7D2CE"/>
</g>
<path d="M421.935 181.615L700.248 211.505C704.337 211.945 707.326 215.625 706.884 219.739L683.605 436.491C682.99 442.216 677.831 446.375 672.106 445.76L399.691 416.503C393.967 415.888 389.808 410.728 390.423 405.004L413.704 188.227C414.143 184.137 417.824 181.148 421.938 181.59L421.935 181.615Z" stroke="#7C6656" stroke-width="8" stroke-linecap="round" stroke-linejoin="round"/>
<path d="M411.035 171.583L713.065 204.021C717.155 204.46 720.144 208.14 719.702 212.254L714.288 262.663L397.413 228.631L402.827 178.222C403.266 174.133 406.946 171.144 411.06 171.586L411.035 171.583Z" fill="#E57A79" stroke="#7C6656" stroke-width="8" stroke-linecap="round" stroke-linejoin="round"/>
<path d="M591.12 190.937L532.954 184.69L506.825 427.985L564.991 434.232L591.12 190.937Z" fill="#FEDA9A" stroke="#7C6656" stroke-width="8" stroke-linecap="round" stroke-linejoin="round"/>
<path d="M591.133 190.927L532.967 184.68L526.757 242.499L584.923 248.745L591.133 190.927Z" fill="#FED17E" stroke="#7C6656" stroke-width="8" stroke-linecap="round" stroke-linejoin="round"/>
<path d="M544.63 164.583C544.63 164.583 510.831 128.017 507.74 140.081C504.649 152.145 518.732 155.062 518.732 155.062" stroke="#7C6656" stroke-width="8" stroke-linecap="round" stroke-linejoin="round"/>
<path d="M589.746 178.166C589.746 178.166 623.943 159.372 632.119 167.249" stroke="#7C6656" stroke-width="8" stroke-linecap="round" stroke-linejoin="round"/>
<path d="M587.926 103.191C587.926 103.191 563.15 115.853 552.831 144.044" stroke="#7C6656" stroke-width="8" stroke-linecap="round" stroke-linejoin="round"/>
<path d="M299.439 502.523L301.882 459.551H442.985V481.037L424.466 520.12L299.439 502.523Z" fill="#878787" stroke="#7C6656" stroke-width="8" stroke-linecap="round" stroke-linejoin="round"/>
<path d="M442.985 461.694H290.316C290.316 451.275 298.766 442.851 309.16 442.851H442.985V461.694Z" fill="#878787" stroke="#7C6656" stroke-width="8" stroke-linecap="round" stroke-linejoin="round"/>
<path d="M216.86 421.165L194.501 416.479V452.272L216.86 448.483" fill="#BEBEBE"/>
<path d="M216.86 421.165L194.501 416.479V452.272L216.86 448.483" stroke="#7C6656" stroke-width="8" stroke-linecap="round" stroke-linejoin="round"/>
<path d="M243.284 535.766C249.09 511.167 233.855 486.52 209.257 480.714C184.658 474.908 160.011 490.143 154.205 514.741C148.399 539.34 163.634 563.987 188.232 569.793C212.831 575.599 237.478 560.364 243.284 535.766Z" fill="#7C6656" stroke="#7C6656" stroke-width="8" stroke-linecap="round" stroke-linejoin="round"/>
<path d="M225.648 531.603C229.155 516.745 219.953 501.857 205.095 498.35C190.236 494.843 175.349 504.045 171.842 518.904C168.335 533.762 177.537 548.65 192.395 552.157C207.253 555.663 222.141 546.461 225.648 531.603Z" fill="#A8A8A7" stroke="#A8A8A7" stroke-width="8" stroke-linecap="round" stroke-linejoin="round"/>
<path d="M212.823 525.278C212.823 533.055 206.517 539.336 198.765 539.336C191.013 539.336 184.707 533.03 184.707 525.278C184.707 517.526 191.013 511.22 198.765 511.22C206.517 511.22 212.823 517.526 212.823 525.278Z" fill="white" stroke="#7C6656" stroke-width="8" stroke-linecap="round" stroke-linejoin="round"/>
<path d="M505.227 557.641C523.099 539.769 523.099 510.793 505.227 492.922C487.355 475.05 458.38 475.05 440.508 492.922C422.637 510.793 422.636 539.769 440.508 557.641C458.38 575.512 487.355 575.512 505.227 557.641Z" fill="#7C6656" stroke="#7C6656" stroke-width="8" stroke-linecap="round" stroke-linejoin="round"/>
<path d="M492.414 544.827C503.209 534.032 503.209 516.53 492.414 505.735C481.619 494.94 464.117 494.94 453.322 505.735C442.527 516.53 442.527 534.032 453.322 544.827C464.117 555.622 481.619 555.622 492.414 544.827Z" fill="#A8A8A7" stroke="#A8A8A7" stroke-width="8" stroke-linecap="round" stroke-linejoin="round"/>
<path d="M486.928 525.28C486.928 533.057 480.622 539.338 472.87 539.338C465.118 539.338 458.812 533.032 458.812 525.28C458.812 517.528 465.118 511.222 472.87 511.222C480.622 511.222 486.928 517.528 486.928 525.28Z" fill="white" stroke="#7C6656" stroke-width="8" stroke-linecap="round" stroke-linejoin="round"/>
<path d="M220.873 450.378C220.873 450.378 175.259 438.887 142.756 481.709L162.198 496.042C162.198 496.042 185.728 473.484 231.441 487.941L220.848 450.378H220.873Z" fill="#8EBDE2" stroke="#7C6656" stroke-width="8" stroke-linecap="round" stroke-linejoin="round"/>
<path d="M235.504 396.589C235.504 396.589 217.134 424.356 216.885 430.139C216.636 435.922 227.428 478.27 236.427 502.523C245.425 526.775 265.315 540.808 282.314 541.556C299.314 542.304 418.632 541.556 418.632 541.556C427.954 541.481 422.67 525.305 422.67 525.305C422.67 497.587 445.128 475.129 472.845 475.129C500.562 475.129 523.02 497.587 523.02 525.305H539.172C539.172 488.689 509.485 458.978 472.845 458.978C444.006 458.978 419.455 477.398 410.332 503.121C410.332 503.121 287.499 503.869 284.857 502.523C282.215 501.177 263.122 445.543 262.922 439.012C262.723 432.482 263.845 421.166 263.845 421.166C263.845 421.166 267.085 412.616 259.383 408.877C251.681 405.139 237.249 397.536 237.249 397.536" fill="#8EBDE2"/>
<path d="M235.504 396.589C235.504 396.589 217.134 424.356 216.885 430.139C216.636 435.922 227.428 478.27 236.427 502.523C245.425 526.775 265.315 540.808 282.314 541.556C299.314 542.304 418.632 541.556 418.632 541.556C427.954 541.481 422.67 525.305 422.67 525.305C422.67 497.587 445.128 475.129 472.845 475.129C500.562 475.129 523.02 497.587 523.02 525.305H539.172C539.172 488.689 509.485 458.978 472.845 458.978C444.006 458.978 419.455 477.398 410.332 503.121C410.332 503.121 287.499 503.869 284.857 502.523C282.215 501.177 263.122 445.543 262.922 439.012C262.723 432.482 263.845 421.166 263.845 421.166C263.845 421.166 267.085 412.616 259.383 408.877C251.681 405.139 237.249 397.536 237.249 397.536" stroke="#7C6656" stroke-width="8" stroke-linecap="round" stroke-linejoin="round"/>
<path opacity="0.3" d="M410.333 503.12C407.865 510.049 406.544 517.527 406.544 525.304H289.768C289.768 525.304 260.506 516.405 253.302 496.066C246.099 475.727 236.427 434.376 236.427 434.376L250.685 404.589L259.434 408.877C259.434 408.877 267.186 410.397 264.444 418.897C261.677 427.396 262.973 439.012 262.973 439.012L284.908 502.522L410.383 503.12H410.333Z" fill="#6B544F"/>
<path d="M568.61 455.313H442.985V439.785H584.138C584.138 448.359 577.184 455.313 568.61 455.313Z" fill="#878787" stroke="#7C6656" stroke-width="8" stroke-linecap="round" stroke-linejoin="round"/>
<path d="M390.192 416.504C390.192 416.504 398.068 437.94 380.222 453.295C362.375 468.624 355.82 466.156 354.025 471.54C352.23 476.924 352.18 506.56 349.663 512.542C347.145 518.525 322.419 518.824 316.911 511.745C312.3 505.813 320.824 500.578 320.824 500.578C320.824 500.578 322.295 465.558 325.585 459.277C328.875 452.995 334.857 442.876 334.857 442.876" fill="white"/>
<path d="M358.935 467.18C371.373 460.874 391.737 449.084 391.588 428.346C391.413 405.639 376.084 376.974 372.146 350.03C357.689 346.341 324.314 347.512 312.449 348.061C300.585 348.584 290.041 357.283 290.041 357.283C290.041 357.283 282.14 402.124 310.555 437.643C310.555 437.643 320.749 438.241 328.501 439.238C336.826 440.335 337.424 443.276 337.424 443.276" fill="white"/>
<path d="M303.975 428.744L311.528 438.989L314.519 439.811H330.296C330.296 439.811 334.484 440.061 336.328 442.852C332.44 447.04 325.311 456.362 324.14 464.313C322.968 472.264 319.927 501.178 319.927 501.178C319.927 501.178 316.463 507.085 339.145 509.03C348.342 508.78 352.231 507.11 352.231 505.266C352.231 503.421 351.408 472.389 355.97 468.9C360.531 465.385 382.814 455.49 386.927 445.669C391.04 435.848 394.205 424.034 389.744 413.515C383.089 419.497 369.753 425.828 343.357 428.919C316.961 432.01 304 428.769 304 428.769L303.975 428.744Z" fill="#8EBDE2"/>
<path d="M293.656 433.977C293.656 433.977 303.95 412.716 296.522 414.336C290.989 415.533 289.419 421.963 286.552 426.923C283.312 432.532 279.847 437.193 278.701 437.641C274.438 439.311 284.857 445.593 293.656 434.002V433.977Z" fill="white"/>
<path d="M210.03 365.906C212.996 367.476 214.143 371.165 212.573 374.131L211.426 376.299L229.323 385.721L222.917 397.91L205.02 388.488L203.874 390.657C202.303 393.623 198.614 394.769 195.648 393.199C192.682 391.629 191.536 387.94 193.106 384.974L201.805 368.448C203.375 365.482 207.064 364.335 210.03 365.906Z" fill="#7C6656" stroke="#7C6656" stroke-width="8" stroke-linecap="round" stroke-linejoin="round"/>
<path d="M266.611 414.086L221.72 390.456" stroke="#7C6656" stroke-width="8" stroke-linecap="round" stroke-linejoin="round"/>
<path d="M290.042 357.26C290.042 357.26 276.283 373.386 250.485 366.507C237.474 361.472 216.362 358.182 210.928 385.849C211.9 393.751 218.854 399.608 229.523 396.517C240.216 393.427 253.8 397.365 253.8 397.365C253.8 397.365 271.871 403.671 283.087 397.913C294.279 392.155 285.306 386.198 288.471 380.715C291.637 375.231 305.745 351.203 290.042 357.235V357.26Z" fill="white"/>
<path d="M291.488 351.351C291.488 351.351 282.44 368.749 266.189 368.749C249.937 368.749 234.857 359.153 222.843 365.06C210.804 370.967 207.115 387.967 215.241 394.597C223.367 401.252 235.181 396.815 238.87 390.908" stroke="#7C6656" stroke-width="8" stroke-linecap="round" stroke-linejoin="round"/>
<path d="M298.815 388.788C298.815 388.788 286.403 399.781 271.622 400.304C257.863 400.803 240.814 393.898 234.308 395.169" stroke="#7C6656" stroke-width="8" stroke-linecap="round" stroke-linejoin="round"/>
<path d="M290.041 357.257C290.041 357.257 277.055 392.901 311.527 438.988" stroke="#7C6656" stroke-width="8" stroke-linecap="round" stroke-linejoin="round"/>
<path d="M334.558 372.787C334.558 372.787 321.821 395.22 306.492 394.672C290.565 391.382 269.951 381.312 256.766 393.974C243.58 406.636 249.512 427.574 273.939 419.922C276.207 419.772 282.414 419.622 289.144 421.567C295.874 423.486 320.101 428.521 337.4 414.413C351.757 404.243 351.956 367.653 334.583 372.787H334.558Z" fill="white"/>
<path d="M334.558 372.787C334.558 372.787 322.02 393.5 305.769 393.5C289.517 393.5 274.437 383.904 262.423 389.811C250.384 395.719 246.695 412.718 254.821 419.348C262.947 426.003 274.761 421.566 278.45 415.659" stroke="#7C6656" stroke-width="8" stroke-linecap="round" stroke-linejoin="round"/>
<path d="M273.94 419.921C280.47 418.675 297.494 425.579 311.253 425.056C326.034 424.508 338.447 413.54 338.447 413.54L343.756 409.328" stroke="#7C6656" stroke-width="8" stroke-linecap="round" stroke-linejoin="round"/>
<path d="M322.918 386.196C322.918 386.196 336.129 399.232 334.583 416.456" stroke="#7C6656" stroke-width="8" stroke-linecap="round" stroke-linejoin="round"/>
<path d="M277.703 366.281C277.703 366.281 284.533 371.391 285.63 384.402" stroke="#7C6656" stroke-width="8" stroke-linecap="round" stroke-linejoin="round"/>
<path d="M295.351 353.668C295.351 353.668 300.161 378.768 335.356 357.681" stroke="#7C6656" stroke-width="8" stroke-linecap="round" stroke-linejoin="round"/>
<path d="M318.107 502.524C318.107 502.524 331.118 514.464 351.308 506.163" stroke="#7C6656" stroke-width="8" stroke-linecap="round" stroke-linejoin="round"/>
<path d="M265.738 423.335L280.719 431.212L279.572 433.38C278.002 436.346 279.148 440.035 282.114 441.606C285.081 443.176 288.769 442.029 290.34 439.063L299.039 422.538C300.609 419.572 299.463 415.883 296.496 414.312C293.53 412.742 289.841 413.888 288.271 416.855L287.124 419.023" fill="#7C6656"/>
<path d="M265.738 423.335L280.719 431.212L279.572 433.38C278.002 436.346 279.148 440.035 282.114 441.606C285.081 443.176 288.769 442.029 290.34 439.063L299.039 422.538C300.609 419.572 299.463 415.883 296.496 414.312C293.53 412.742 289.841 413.888 288.271 416.855L287.124 419.023" stroke="#7C6656" stroke-width="8" stroke-linecap="round" stroke-linejoin="round"/>
<path d="M303.975 428.743C303.975 428.743 359.808 437.193 395.327 412.542C395.327 412.542 383.039 393.2 378.178 378.319C372.146 359.899 372.146 352.322 372.146 352.322" stroke="#7C6656" stroke-width="8" stroke-linecap="round" stroke-linejoin="round"/>
<path d="M390.192 416.504C390.192 416.504 398.068 437.94 380.222 453.295C362.375 468.624 355.82 466.156 354.025 471.54C352.23 476.924 352.18 506.56 349.663 512.542C347.145 518.525 322.419 518.824 316.911 511.745C312.3 505.813 320.824 500.578 320.824 500.578C320.824 500.578 322.295 465.558 325.585 459.277C328.875 452.995 334.857 442.876 334.857 442.876" stroke="#7C6656" stroke-width="8" stroke-linecap="round" stroke-linejoin="round"/>
<path d="M375.412 126.646C375.412 126.646 466.614 125.649 449.964 236.693C449.964 236.693 447.82 243.821 447.172 244.868C447.895 253.742 459.211 297.536 426.235 328.07C402.979 350.079 355.371 358.504 339.594 357.382C337.55 359.127 329.025 361.395 319.878 359.576C310.73 357.756 296.871 359.426 298.192 360.024C299.513 360.622 255.495 348.334 255.495 348.334C255.495 348.334 209.034 328.02 208.934 292.601C210.903 276.972 218.879 251.997 218.879 251.997L218.032 239.858L218.904 228.193C218.904 228.193 195.773 231.882 202.329 193.721C207.837 166.278 226.781 143.372 280.745 122.982C336.752 102.892 375.387 126.646 375.387 126.646H375.412Z" fill="white"/>
<g filter="url(#filter0_f_1802_19095)">
<ellipse cx="374.322" cy="289.177" rx="24.0476" ry="12.9987" fill="#F5B0B0"/>
</g>
<g filter="url(#filter1_f_1802_19095)">
<ellipse cx="243.685" cy="291.777" rx="23.3977" ry="12.9987" fill="#F5B0B0"/>
</g>
<path d="M339.768 260.547C339.768 267.551 345.451 273.234 352.455 273.209C359.459 273.209 365.142 267.526 365.117 260.522C365.117 253.518 359.434 247.835 352.43 247.86C345.426 247.86 339.743 253.543 339.768 260.547Z" fill="#7C6656"/>
<path d="M252.828 260.597C252.828 267.601 258.511 273.284 265.515 273.259C272.519 273.259 278.202 267.576 278.177 260.572C278.177 253.568 272.494 247.885 265.49 247.91C258.486 247.91 252.803 253.593 252.828 260.597Z" fill="#7C6656"/>
<path d="M276.756 297.336C276.756 297.336 287.698 310.696 307.315 310.696C326.931 310.696 337.176 297.286 337.176 297.286" stroke="#7C6656" stroke-width="8" stroke-linecap="round" stroke-linejoin="round"/>
<path d="M219.751 220.792C217.757 228.868 219.9 239.536 220.124 243.673C217.881 250.403 204.571 271.665 210.329 297.961C216.087 324.258 239.541 346.317 286.401 355.041C286.401 355.041 313.869 358.705 323.565 357.558" stroke="#7C6656" stroke-width="8" stroke-linecap="round" stroke-linejoin="round"/>
<path d="M447.57 247.014C453.253 289.686 446.523 308.804 428.901 325.155C407.664 344.847 373.94 354.892 342.783 355.914L333.635 356.562" stroke="#7C6656" stroke-width="8" stroke-linecap="round" stroke-linejoin="round"/>
<path d="M451.234 247.063C480.272 136.244 381.667 126.698 381.667 126.698C314.019 93.1479 240.364 143.772 240.364 143.772C240.364 143.772 186.401 178.991 211.027 228.818" stroke="#7C6656" stroke-width="8" stroke-linecap="round" stroke-linejoin="round"/>
<path d="M371.97 159.45C371.97 159.45 377.728 194.47 321.346 214.934" stroke="#7C6656" stroke-width="8" stroke-linecap="round" stroke-linejoin="round"/>
<path d="M385.107 179.814C385.107 179.814 418.133 198.832 425.96 232.357" stroke="#7C6656" stroke-width="8" stroke-linecap="round" stroke-linejoin="round"/>
<path d="M260.828 217.277C260.828 217.277 300.335 204.864 313.271 168.697" stroke="#7C6656" stroke-width="8" stroke-linecap="round" stroke-linejoin="round"/>
<path d="M330.693 141.054C330.693 141.054 347.593 147.285 346.845 160.297C346.272 170.292 341.436 174.728 325.085 183.727C308.734 192.725 277.802 177.919 261.774 157.979C273.589 146.039 294.626 123.332 330.693 141.054Z" fill="#1BAE91"/>
<path d="M342.085 171.215C342.085 171.215 307.588 214.71 261.077 157.107C261.077 157.107 295.275 114.634 343.406 148.433" stroke="#7C6656" stroke-width="8" stroke-linecap="round" stroke-linejoin="round"/>
<path d="M302.104 160.322C302.104 160.87 337.299 171.289 356.317 150.875" stroke="#7C6656" stroke-width="8" stroke-linecap="round" stroke-linejoin="round"/>
<path d="M250.484 189.686C250.484 189.686 220.149 207.034 214.74 227.822" stroke="#7C6656" stroke-width="8" stroke-linecap="round" stroke-linejoin="round"/>
<path d="M216.935 242.924C216.935 242.924 214.318 195.964 242.384 201.846C274.438 208.551 330.819 196.587 378.527 192.998C426.259 189.408 423.742 247.061 423.742 247.061C423.742 247.061 422.296 280.013 443.956 293.248C456.868 301.15 467.386 284.25 467.386 284.25C467.386 284.25 504.301 224.653 474.988 161.567C445.676 98.4801 337.126 94.7164 287.349 108.575C237.573 122.434 186.576 148.655 205.045 231.433" fill="#BCD5ED"/>
<path d="M474.988 161.567C445.676 98.4801 337.126 94.7164 287.349 108.575C237.573 122.434 186.576 148.655 205.045 231.433L210.928 239.733C206.466 216.752 212.473 181.931 238.495 186.941C273.84 193.77 329.772 183.451 382.39 179.787C435.008 176.123 434.46 219.244 435.905 237.565C437.326 255.885 439.694 286.693 456.593 291.728C464.894 290.133 467.411 284.225 467.411 284.225C467.411 284.225 504.326 224.628 475.013 161.542L474.988 161.567Z" fill="#8EBDE2"/>
<path d="M216.935 242.924C216.935 242.924 214.318 195.964 242.384 201.846C274.438 208.551 330.819 196.587 378.527 192.998C424.913 189.508 424.764 260.745 425.96 269.569C425.96 269.569 425.113 286.045 443.956 293.248C458.089 298.657 467.386 284.25 467.386 284.25C467.386 284.25 504.301 224.653 474.988 161.567C445.676 98.4801 337.126 94.7164 287.349 108.575C237.573 122.434 186.576 148.655 205.045 231.433C205.045 231.433 205.668 242.774 216.935 242.899V242.924Z" stroke="#7C6656" stroke-width="8" stroke-linecap="round" stroke-linejoin="round"/>
<path d="M322.993 102.842C322.993 102.842 339.892 109.074 339.144 122.085C338.571 132.08 333.735 136.517 317.384 145.515C301.033 154.513 270.101 139.707 254.073 119.767C265.888 107.827 286.925 85.1203 322.993 102.842Z" fill="#1AAF92"/>
<path d="M334.384 133.565C334.384 133.565 299.887 177.06 253.376 119.457C253.376 119.457 287.574 76.9836 335.705 110.783" stroke="#7C6656" stroke-width="8" stroke-linecap="round" stroke-linejoin="round"/>
<path d="M294.428 122.648C294.428 123.196 329.623 133.615 348.641 113.201" stroke="#7C6656" stroke-width="8" stroke-linecap="round" stroke-linejoin="round"/>
<path d="M590.219 476.925C589.995 476.925 589.796 476.974 589.571 476.999C588.824 471.69 584.287 467.577 578.754 467.577C572.697 467.577 567.786 472.488 567.786 478.545C567.786 479.592 567.986 480.564 568.235 481.511C565.493 483.505 563.724 486.72 563.724 490.359C563.724 496.416 568.634 501.327 574.691 501.327C578.405 501.327 581.67 499.457 583.664 496.641C585.509 498.012 587.752 498.859 590.219 498.859C596.276 498.859 601.187 493.949 601.187 487.892C601.187 481.835 596.276 476.925 590.219 476.925Z" fill="#D4D4D4"/>
<path d="M626.386 485.248C632.443 485.248 637.353 480.338 637.353 474.281C637.353 468.224 632.443 463.314 626.386 463.314C620.329 463.314 615.419 468.224 615.419 474.281C615.419 480.338 620.329 485.248 626.386 485.248Z" fill="#EDEDED"/>
<path d="M643.061 479.64C643.061 483.728 639.746 487.043 635.658 487.043C631.57 487.043 628.255 483.728 628.255 479.64C628.255 475.552 631.57 472.237 635.658 472.237C639.746 472.237 643.061 475.552 643.061 479.64Z" fill="#EDEDED"/>
<path d="M123.365 525.28C123.365 525.28 108.883 547.663 127.178 565.186" stroke="#7C6656" stroke-width="8" stroke-linecap="round" stroke-linejoin="round"/>
<path d="M102.128 545.245C102.128 545.245 99.5112 564.712 117.906 571.043" stroke="#7C6656" stroke-width="8" stroke-linecap="round" stroke-linejoin="round"/>
<defs>
<filter id="filter0_f_1802_19095" x="337.462" y="263.366" width="73.7197" height="51.6219" filterUnits="userSpaceOnUse" color-interpolation-filters="sRGB">
<feFlood flood-opacity="0" result="BackgroundImageFix"/>
<feBlend mode="normal" in="SourceGraphic" in2="BackgroundImageFix" result="shape"/>
<feGaussianBlur stdDeviation="6.40612" result="effect1_foregroundBlur_1802_19095"/>
</filter>
<filter id="filter1_f_1802_19095" x="207.475" y="265.966" width="72.4199" height="51.6219" filterUnits="userSpaceOnUse" color-interpolation-filters="sRGB">
<feFlood flood-opacity="0" result="BackgroundImageFix"/>
<feBlend mode="normal" in="SourceGraphic" in2="BackgroundImageFix" result="shape"/>
<feGaussianBlur stdDeviation="6.40612" result="effect1_foregroundBlur_1802_19095"/>
</filter>
</defs>
</svg>
