<svg width="880" height="640" viewBox="0 0 880 640" fill="none" xmlns="http://www.w3.org/2000/svg">
<path d="M277.75 200.807L283.426 228.718L281.061 256.629L290.049 300.151L304.714 322.385L350.129 350.296L367.632 358.811L352.494 441.597L350.602 466.67L362.901 469.508L358.171 546.618L353.44 563.648L346.344 570.744L345.398 583.044L352.021 589.194H377.093L390.812 583.99L398.854 573.109L407.843 543.779L418.723 502.15H450.418L461.299 572.163L467.922 581.625L482.587 586.355L499.617 587.301L510.025 584.463L514.755 577.367V568.852L507.659 564.121L501.983 524.384L507.659 491.269L508.606 467.143L513.809 465.723L511.917 442.07L538.882 444.909L543.612 439.232L547.87 429.297L553.074 430.717L563.481 429.297L576.254 424.094L581.931 414.632L579.092 397.602L572.469 388.614L565.846 384.356L572.469 364.961L588.554 318.6L587.134 311.504L595.176 290.216L596.123 267.036L590.919 244.329L581.931 224.933L599.434 192.292L604.165 171.477L601.326 148.297L595.65 134.578L585.242 116.128L568.212 96.7325L542.666 79.7021L502.456 61.7256L470.76 53.6835L428.184 50.3721L392.231 57.9411L375.674 65.5102L352.494 69.7677L325.529 81.1213L302.822 98.6247L285.792 121.805L279.169 140.728L275.384 164.381L277.75 200.807Z" fill="white"/>
<path d="M509.792 468.21C509.792 468.21 372.356 466.878 363.614 466.26C362.411 477.082 366.506 540.585 354.384 561.026C361.761 566.583 399.687 571.621 399.687 571.621C399.687 571.621 417.204 509.451 418.211 501.099C418.211 501.099 448.857 505.291 449.605 503.569C450.352 501.846 448.857 505.291 448.857 505.291L461.597 572.108C461.597 572.108 478.268 563.561 506.022 561.351C503.39 548.709 501.7 527.585 503.715 513.546C505.697 499.506 509.824 468.243 509.824 468.243L509.792 468.21Z" fill="#8EBDE2"/>
<path d="M356.92 563.106C356.92 563.106 346.846 566.583 345.481 574.643C344.148 582.703 344.993 590.34 366.475 590.372C384.674 590.372 393.123 582.833 399.656 571.621" stroke="#7C6656" stroke-width="8" stroke-linecap="round" stroke-linejoin="round"/>
<path d="M450.32 501.846C450.32 501.846 457.762 569.378 463.806 577.437C469.851 585.497 487.628 588.519 500.042 587.154C512.457 585.822 516.487 576.43 513.789 570.71C511.092 564.99 504.722 562.878 504.722 562.878" stroke="#7C6656" stroke-width="8" stroke-linecap="round" stroke-linejoin="round"/>
<path d="M501.408 386.997C501.408 386.997 513.822 424.597 509.793 468.21C505.763 511.856 497.183 527.098 505.99 561.351" stroke="#7C6656" stroke-width="8" stroke-linecap="round" stroke-linejoin="round"/>
<path d="M364.263 396.811C364.263 396.811 362.021 479.065 361.891 509.548C361.761 540.032 353.636 563.658 353.636 563.658C353.636 563.658 389.645 564.178 400.402 571.62C402.904 565.998 403.749 562.618 404.822 557.484C409.241 536.23 418.146 501.099 418.146 501.099C418.146 501.099 455.389 504.121 463.774 499.409" stroke="#7C6656" stroke-width="8" stroke-linecap="round" stroke-linejoin="round"/>
<path d="M508.688 564.958C508.688 564.958 482.43 559.791 463.808 573.441" stroke="#7C6656" stroke-width="8" stroke-linecap="round" stroke-linejoin="round"/>
<path d="M366.442 359.438C366.442 359.438 349.64 430.057 351.2 467.3C351.2 467.3 481.909 471.038 513.432 466.261C513.432 466.261 508.135 383.454 494.161 351.476" fill="white"/>
<path d="M366.442 359.438C366.442 359.438 349.64 430.057 351.2 467.3C351.2 467.3 481.909 471.038 513.432 466.261C513.432 466.261 508.135 383.454 494.161 351.476" stroke="#7C6656" stroke-width="8" stroke-linecap="round" stroke-linejoin="round"/>
<path d="M472.614 366.035C470.664 372.535 463.352 383.877 441.058 386.769C421.819 389.272 404.464 379.977 396.08 367.693" stroke="#7C6656" stroke-width="8" stroke-linecap="round" stroke-linejoin="round"/>
<path d="M581.939 190.446C584.441 201.008 581.484 214.884 581.126 220.279C583.954 229.086 601.015 257.002 593.118 291.191C585.254 325.379 554.348 353.848 493.12 364.54C493.12 364.54 457.274 368.927 444.633 367.302" stroke="#7C6656" stroke-width="8" stroke-linecap="round" stroke-linejoin="round"/>
<path d="M419.674 364.865C379.051 363.11 335.211 349.558 307.815 323.56C285.066 301.981 276.551 276.957 284.578 221.417" stroke="#7C6656" stroke-width="8" stroke-linecap="round" stroke-linejoin="round"/>
<g filter="url(#filter0_f_1802_20144)">
<ellipse cx="535.673" cy="274.098" rx="28" ry="16" transform="rotate(2.14947 535.673 274.098)" fill="#F5B0B0"/>
</g>
<g filter="url(#filter1_f_1802_20144)">
<ellipse cx="359.848" cy="271.06" rx="28" ry="17.6507" transform="rotate(2.14947 359.848 271.06)" fill="#F5B0B0"/>
</g>
<path d="M527.212 243.516C526.855 252.648 519.185 259.765 510.053 259.407C500.921 259.05 493.804 251.38 494.161 242.248C494.519 233.116 502.188 225.999 511.32 226.356C520.452 226.714 527.57 234.384 527.212 243.516Z" fill="#7C6656"/>
<path d="M494.258 290.216C494.258 290.216 479.374 307.115 453.798 306.14C428.254 305.165 415.547 287.259 415.547 287.259" stroke="#7C6656" stroke-width="8" stroke-linecap="round" stroke-linejoin="round"/>
<path d="M281.815 221.319C245.514 76.4409 374.176 65.3589 374.176 65.3589C462.832 22.5584 558.15 89.6028 558.15 89.6028C558.15 89.6028 628.022 136.303 595.198 200.91" stroke="#7C6656" stroke-width="8" stroke-linecap="round" stroke-linejoin="round"/>
<path d="M384.348 112.027C384.348 112.027 376.354 157.622 449.573 185.083" stroke="#7C6656" stroke-width="8" stroke-linecap="round" stroke-linejoin="round"/>
<path d="M366.929 138.383C366.929 138.383 323.609 162.724 312.917 206.305" stroke="#7C6656" stroke-width="8" stroke-linecap="round" stroke-linejoin="round"/>
<path d="M528.447 188.983C528.447 188.983 477.132 172.247 460.785 124.896" stroke="#7C6656" stroke-width="8" stroke-linecap="round" stroke-linejoin="round"/>
<path d="M438.426 88.5953C438.426 88.5953 416.295 96.4599 417.107 113.457C417.725 126.489 423.964 132.371 445.153 144.33C466.343 156.29 506.901 137.408 528.057 111.637C512.815 95.9075 485.712 66.0088 438.426 88.5953Z" fill="#1AAF92"/>
<path d="M423.153 127.789C423.153 127.789 467.514 184.954 528.968 110.532C528.968 110.532 484.998 54.6996 421.756 98.0526" stroke="#7C6656" stroke-width="8" stroke-linecap="round" stroke-linejoin="round"/>
<path d="M475.41 114.14C475.41 114.855 429.359 127.951 404.855 101.075" stroke="#7C6656" stroke-width="8" stroke-linecap="round" stroke-linejoin="round"/>
<path d="M413.954 239.226C413.954 239.226 401.637 221.124 380.903 237.991" stroke="#7C6656" stroke-width="8" stroke-linecap="round" stroke-linejoin="round"/>
<path d="M454.903 383.162C454.903 383.162 465.758 384.95 477.847 371.398C486.492 361.713 473.655 342.539 473.655 342.539C473.655 342.539 488.604 341.857 483.502 333.212C471.835 322.293 452.661 330.742 440.051 339.192C427.442 347.674 431.732 379.555 420.52 382.707C409.308 385.86 390.654 368.408 390.654 368.408L383.634 410.721C383.634 410.721 421.982 437.662 452.596 406.431C456.366 401.394 461.825 390.929 462.67 384.852" fill="white"/>
<path d="M391.954 367.855C391.954 367.855 410.575 385.307 421.82 382.155C433.064 379.002 428.742 347.121 441.352 338.639C453.961 330.157 473.135 321.74 484.802 332.66C489.904 341.304 474.955 341.987 474.955 341.987C474.955 341.987 487.792 361.161 479.147 370.845C467.058 384.397 456.203 382.61 456.203 382.61" stroke="#7C6656" stroke-width="8" stroke-linecap="round" stroke-linejoin="round"/>
<path d="M464.198 381.538C464.198 381.538 463.71 406.756 436.119 418.423C408.528 430.09 381.522 409.486 381.522 409.486" stroke="#7C6656" stroke-width="8" stroke-linecap="round" stroke-linejoin="round"/>
<path d="M411.063 381.765L398.486 418.326" stroke="#7C6656" stroke-width="8" stroke-linecap="round" stroke-linejoin="round"/>
<path d="M387.501 365.158C387.501 365.158 407.878 380.854 411.063 381.764C407.033 393.529 398.551 419.885 398.551 419.885C398.551 419.885 379.669 409.161 372.877 403.311" fill="white"/>
<path d="M387.501 365.158C387.501 365.158 407.878 380.854 411.063 381.764C407.033 393.529 398.551 419.885 398.551 419.885C398.551 419.885 379.669 409.161 372.877 403.311" stroke="#7C6656" stroke-width="8" stroke-linecap="round" stroke-linejoin="round"/>
<path d="M467.544 424.76L513.627 301.883C514.635 299.186 517.462 297.593 520.322 298.113L584.896 310.04C588.569 310.723 590.714 314.525 589.414 318.002L543.331 440.879C542.323 443.576 539.496 445.169 536.636 444.649L472.062 432.722C468.389 432.039 466.244 428.237 467.544 424.76Z" fill="#DDF1FD" stroke="#7C6656" stroke-width="8" stroke-linecap="round" stroke-linejoin="round"/>
<path d="M535.563 325.021C532.931 324.534 531.176 321.999 531.663 319.334C532.151 316.702 534.686 314.947 537.351 315.434C539.983 315.922 541.738 318.457 541.25 321.122C540.763 323.786 538.228 325.509 535.563 325.021Z" fill="#7C6656"/>
<path d="M524.189 322.942C521.557 322.454 519.802 319.919 520.289 317.254C520.777 314.622 523.311 312.867 525.976 313.355C528.609 313.842 530.364 316.377 529.876 319.042C529.389 321.707 526.854 323.429 524.189 322.942Z" fill="#7C6656"/>
<path d="M531.209 335.096C528.576 334.609 526.821 332.074 527.309 329.409C527.796 326.777 530.331 325.022 532.996 325.509C535.628 325.997 537.383 328.532 536.896 331.197C536.408 333.861 533.874 335.584 531.209 335.096Z" fill="#7C6656"/>
<path d="M519.868 333.017C517.235 332.529 515.48 329.994 515.968 327.329C516.455 324.697 518.99 322.942 521.655 323.429C524.287 323.917 526.042 326.452 525.555 329.117C525.067 331.782 522.532 333.504 519.868 333.017Z" fill="#7C6656"/>
<path d="M579.599 395.251C567.444 370.519 533.288 385.306 536.766 410.59C540.08 434.736 565.592 431.909 573.716 425.442C581.841 418.975 585.481 407.178 579.599 395.251Z" fill="white" stroke="#7C6656" stroke-width="8" stroke-linecap="round" stroke-linejoin="round"/>
<defs>
<filter id="filter0_f_1802_20144" x="498.033" y="248.422" width="75.2791" height="51.3531" filterUnits="userSpaceOnUse" color-interpolation-filters="sRGB">
<feFlood flood-opacity="0" result="BackgroundImageFix"/>
<feBlend mode="normal" in="SourceGraphic" in2="BackgroundImageFix" result="shape"/>
<feGaussianBlur stdDeviation="4.82638" result="effect1_foregroundBlur_1802_20144"/>
</filter>
<filter id="filter1_f_1802_20144" x="322.207" y="243.737" width="75.2821" height="54.6458" filterUnits="userSpaceOnUse" color-interpolation-filters="sRGB">
<feFlood flood-opacity="0" result="BackgroundImageFix"/>
<feBlend mode="normal" in="SourceGraphic" in2="BackgroundImageFix" result="shape"/>
<feGaussianBlur stdDeviation="4.82638" result="effect1_foregroundBlur_1802_20144"/>
</filter>
</defs>
</svg>
