<svg width="880" height="640" viewBox="0 0 880 640" fill="none" xmlns="http://www.w3.org/2000/svg">
<path d="M684.56 547.796L672.008 548.762H670.077L672.974 552.624L681.664 558.417L694.215 560.348L706.767 559.382L715.457 556.486L718.353 551.658V544.9L711.595 539.106H707.733L697.112 543.934L684.56 547.796Z" fill="white"/>
<path d="M563.87 544.898L569.664 542.002L576.422 543.933L589.939 547.795L608.284 550.692L606.353 554.554L598.629 559.381L586.077 561.312L575.457 560.347L566.767 556.485L561.939 549.726L563.87 544.898Z" fill="white"/>
<path d="M560.976 459.935H567.735V452.211H698.078V415.521L705.802 363.384L700.009 356.625H695.181L646.905 363.384H614.078L577.388 361.453L567.735 366.28L558.078 375.935L549.388 385.59L541.664 392.349L543.595 404.901L555.181 421.314V423.246L547.457 430.97L543.595 439.659L547.457 451.245L560.976 459.935Z" fill="white"/>
<path d="M763.466 120.686C763.466 120.686 812.38 145.489 798.525 201.779C792.721 231.952 777.408 250.248 777.408 250.248C777.408 250.248 779.479 296.441 761.074 319.261C742.64 342.08 715.164 352.643 700.114 356.174C676.78 361.106 596.686 374.208 553.255 352.439C527.442 337.09 487.657 318.502 492.528 270.383C492.207 248.176 505.654 227.195 505.654 227.195C505.654 227.195 510.525 202.683 504.808 200.816C499.091 198.948 488.153 184.3 487.92 167.083C487.686 149.866 482.611 102.331 560.022 74.8718C615.061 56.2253 655.137 52.9278 707.172 77.6731C740.044 89.9582 742.436 118.964 742.436 118.964C742.436 118.964 751.886 114.12 763.437 120.686H763.466Z" fill="white"/>
<path d="M570.316 452.034H699.587C699.587 452.034 699.062 508.995 708.717 539.051C694.92 550.432 668.815 547.368 668.815 547.368C668.815 547.368 650.294 484.833 649.973 483.316C649.652 481.799 620.951 482.003 620.864 482.236C619.61 492.858 614.214 534.441 610.218 549.585C600.126 551.745 564.775 540.248 567.225 540.539C569.675 540.831 579.446 515.123 572.883 493.792C568.158 472.169 565.416 451.451 570.287 452.063L570.316 452.034Z" fill="#B2ABA4"/>
<g filter="url(#filter0_f_1802_19677)">
<ellipse cx="27.4166" cy="16.7951" rx="27.4166" ry="16.7951" transform="matrix(0.991309 0.131551 -0.129741 0.991548 531.541 254.279)" fill="#F5B0B0"/>
</g>
<g filter="url(#filter1_f_1802_19677)">
<ellipse cx="27.4166" cy="16.7951" rx="27.4166" ry="16.7951" transform="matrix(0.991309 0.131551 -0.129741 0.991548 678.3 262.004)" fill="#F5B0B0"/>
</g>
<path d="M679.608 263.527C671.408 263.527 664.762 256.877 664.762 248.674C664.762 240.47 671.408 233.821 679.608 233.821C687.807 233.821 694.454 240.47 694.454 248.674C694.454 256.877 687.807 263.527 679.608 263.527Z" fill="#7C6656"/>
<path d="M563.259 241.055C562.734 249.226 568.917 256.317 577.084 256.842C585.251 257.367 592.339 251.181 592.864 243.01C593.389 234.84 587.205 227.749 579.038 227.224C570.872 226.698 563.784 232.885 563.259 241.055Z" fill="#7C6656"/>
<path d="M771.747 197.343C785.864 270.061 771.951 315.291 747.742 333.909C722.803 353.08 682.173 362.768 656.622 362.623L634.601 363.06" stroke="#7C6656" stroke-width="8" stroke-linecap="round" stroke-linejoin="round"/>
<path d="M509.24 187.101C506.877 198.977 506.032 211.729 506.382 225.269C503.552 233.089 487.919 260.373 493.81 291.305C499.702 322.237 541.849 354.16 582.013 361.806C591.434 363.615 601.205 363.061 613.952 363.469" stroke="#7C6656" stroke-width="8" stroke-linecap="round" stroke-linejoin="round"/>
<path d="M698.071 388.157C698.071 388.157 700.083 462.014 700.2 489.385C700.317 516.757 707.2 535.666 707.2 535.666" stroke="#7C6656" stroke-width="8" stroke-linecap="round" stroke-linejoin="round"/>
<path d="M710.028 537.678C710.028 537.678 714.783 540.508 716.562 545.06C719.216 551.889 715.366 561.635 696.086 561.927C676.806 562.219 666.073 551.393 661.639 532.396C657.206 513.399 649.68 481.767 649.68 481.767C649.68 481.767 616.254 484.481 608.729 480.25" stroke="#7C6656" stroke-width="8" stroke-linecap="round" stroke-linejoin="round"/>
<path d="M620.835 482.439C620.835 482.439 614.156 545.557 608.731 552.794C603.306 560.031 589.334 563.007 578.192 561.811C567.05 560.615 560.954 553.465 563.346 548.33C565.767 543.194 569.705 540.801 569.705 540.801" stroke="#7C6656" stroke-width="8" stroke-linecap="round" stroke-linejoin="round"/>
<path d="M574.981 379.316C574.981 379.316 563.839 413.079 567.456 452.239C571.073 491.4 578.773 507.595 570.869 538.351" stroke="#7C6656" stroke-width="8" stroke-linecap="round" stroke-linejoin="round"/>
<path d="M571.891 452.734L697.312 451.917" stroke="#7C6656" stroke-width="8" stroke-linecap="round" stroke-linejoin="round"/>
<path d="M668.845 547.368C668.845 547.368 698.275 551.365 710.03 537.68" stroke="#7C6656" stroke-width="8" stroke-linecap="round" stroke-linejoin="round"/>
<path d="M569.704 540.828C569.704 540.828 590.763 553.872 610.276 549.553" stroke="#7C6656" stroke-width="8" stroke-linecap="round" stroke-linejoin="round"/>
<path d="M636.79 383.05L641.02 430.965L627.486 443.862L613.981 430.965L618.211 383.05H636.79Z" fill="#82AEDD" stroke="#7C6656" stroke-width="8" stroke-linecap="round" stroke-linejoin="round"/>
<path d="M639.386 365.979L641.02 381.591L630.461 387.69C628.624 388.74 626.348 388.74 624.511 387.69L613.952 381.591L615.586 365.979H639.357H639.386Z" fill="#82AEDD" stroke="#7C6656" stroke-width="8" stroke-linecap="round" stroke-linejoin="round"/>
<path d="M499.088 198.948C446.965 104.957 578.482 50.1849 656.622 61.974C737.241 74.1423 742.433 118.935 742.433 118.935C742.433 118.935 775.626 109.626 794.993 155.236C813.543 198.948 777.405 256.084 777.405 256.084" stroke="#7C6656" stroke-width="8" stroke-linecap="round" stroke-linejoin="round"/>
<path d="M728.986 165.683C728.986 165.683 721.49 195.973 758.883 221.448" stroke="#7C6656" stroke-width="8" stroke-linecap="round" stroke-linejoin="round"/>
<path d="M701.367 144.556C701.367 144.556 651.17 134.926 656.624 193.404" stroke="#7C6656" stroke-width="8" stroke-linecap="round" stroke-linejoin="round"/>
<path d="M618.063 138.484C618.063 138.484 580.816 151.732 593.037 193.403" stroke="#7C6656" stroke-width="8" stroke-linecap="round" stroke-linejoin="round"/>
<path d="M558.299 138.484C558.299 138.484 526.681 152.87 537.386 193.403" stroke="#7C6656" stroke-width="8" stroke-linecap="round" stroke-linejoin="round"/>
<path d="M574.283 364.081C574.283 364.081 543.832 383.749 542.373 395.013C540.944 406.276 560.341 426.849 560.341 426.849" stroke="#7C6656" stroke-width="8" stroke-linecap="round" stroke-linejoin="round"/>
<path d="M555.208 424.196C555.208 424.196 535.519 435.955 549.637 453.464C558.299 464.202 569.704 458.979 569.704 458.979" stroke="#7C6656" stroke-width="8" stroke-linecap="round" stroke-linejoin="round"/>
<path d="M703.176 360.784C703.176 360.784 742.465 400.149 753.373 436.975C753.373 436.975 771.107 448.793 759.498 464.259C751.127 475.406 729.193 479.2 721.843 461.866C718.197 453.258 723.272 446.546 723.272 446.546C723.272 446.546 712.101 425.274 702.622 415.352" fill="white"/>
<path d="M703.176 360.784C703.176 360.784 742.465 400.149 753.373 436.975C753.373 436.975 771.107 448.793 759.498 464.259C751.127 475.406 729.193 479.2 721.843 461.866C718.197 453.258 723.272 446.546 723.272 446.546C723.272 446.546 712.101 425.274 702.622 415.352" stroke="#7C6656" stroke-width="8" stroke-linecap="round" stroke-linejoin="round"/>
<path d="M752.292 433.592C752.292 433.592 745.759 447.19 726.304 446.957" stroke="#7C6656" stroke-width="8" stroke-linecap="round" stroke-linejoin="round"/>
<path d="M596.479 270.353L649.389 275.955C649.389 275.955 654.61 329.969 616.226 324.833C586.096 320.806 592.104 296.703 596.479 270.353Z" fill="#F299A0" stroke="#7C6656" stroke-width="8" stroke-linecap="round" stroke-linejoin="round"/>
<path d="M340.793 471.532L326.487 467.24L327.918 482.976L346.515 494.421L355.099 513.018V525.893L337.932 541.629L313.612 550.213H282.14L226.348 545.921L207.751 541.629L194.876 547.352L183.431 544.49L179.139 537.338L180.57 527.324L189.153 515.879L193.445 513.018L194.876 507.296L199.167 500.143L210.612 497.282H217.765L220.626 484.407L224.917 468.671L210.612 471.532L190.584 470.101L171.987 467.24L164.834 464.379L156.25 470.101L147.667 468.671L139.084 462.949V448.643L143.375 440.06L149.098 434.337L156.25 431.476H166.264L179.139 437.199L207.751 441.49L219.195 435.768L227.779 428.615H216.334L196.306 424.323L184.862 415.74L180.57 407.157H173.417H156.25L139.084 400.004L121.917 381.407L117.625 365.671V357.087L104.75 354.226L89.0139 342.782L79 317.032L81.8611 295.573L91.8751 275.545L104.75 266.962L113.333 261.24L124.778 239.781L146.236 208.309L163.403 191.142L183.431 175.406L204.889 162.531L227.779 155.378L262.112 149.656L296.445 152.517L332.21 153.948L367.974 162.531L399.446 176.837L428.057 199.726L449.516 226.906L468.113 272.684L470.974 311.309L480.988 325.615L489.571 349.934L486.71 367.101L459.53 384.268L449.516 408.587L433.78 422.893L426.627 445.782L418.043 455.796H406.599L400.877 454.365L386.571 461.518L356.529 471.532H340.793Z" fill="white"/>
<path d="M320.051 431.217C320.051 431.217 310.637 441.403 298.964 440.029C287.319 438.656 271.783 433.62 259.509 418.256C254.416 415.91 241.055 413.507 241.055 413.507C241.055 413.507 218.881 442.662 214.818 438.284C223.345 448.327 233.273 465.894 233.273 465.894L223.43 469.756C223.43 469.756 214.189 494.791 221.513 506.15C217.994 511.986 210.984 526.235 214.475 543.716C235.962 546.606 303.027 556.677 322.597 548.208C342.167 539.739 361.394 533.302 351.552 502.087C346.573 494.963 336.845 484.491 326.202 482.574C327.718 478.254 327.318 466.981 327.318 466.981L331.867 468.698L344.256 438.942C344.256 438.942 337.532 436.31 329.693 429.701C327.261 430.101 319.993 431.189 319.993 431.189L320.051 431.217Z" fill="#FFADBE"/>
<path d="M355.414 350.422C355.414 350.422 341.194 357.489 307.977 344.528C304.028 358.519 298.592 394.083 321.367 399.662C333.641 403.324 350.779 383.325 355.414 350.422Z" fill="#F299A0"/>
<path d="M302.313 313.972C301.283 321.954 293.987 327.591 286.033 326.561C278.05 325.531 272.414 318.235 273.444 310.281C274.474 302.299 281.77 296.662 289.724 297.692C297.706 298.722 303.343 306.018 302.313 313.972Z" fill="#7C6656"/>
<path d="M173.017 369.449C174.906 372.253 177.023 374.799 179.312 377.088C201.199 398.832 243.601 415.57 268.464 418.603" stroke="#7C6656" stroke-width="8" stroke-linecap="round" stroke-linejoin="round"/>
<path d="M407.715 243.217C407.715 243.217 416.327 274.002 401.106 294.889" stroke="#7C6656" stroke-width="8" stroke-linecap="round" stroke-linejoin="round"/>
<path d="M322.282 229.997C322.282 229.997 326.374 267.706 306.518 287.362" stroke="#7C6656" stroke-width="8" stroke-linecap="round" stroke-linejoin="round"/>
<path d="M233.302 235.72C233.302 235.72 231.556 270.311 208.667 291.626" stroke="#7C6656" stroke-width="8" stroke-linecap="round" stroke-linejoin="round"/>
<path d="M190.126 283.845C190.126 283.845 187.007 330.911 167.323 341.526" stroke="#7C6656" stroke-width="8" stroke-linecap="round" stroke-linejoin="round"/>
<path d="M425.34 434.711C428.887 433.509 432.607 431.764 436.412 429.361C460.074 414.426 456.354 392.967 456.354 392.967C456.354 392.967 479.501 390.907 487.769 360.98C495.151 334.171 471.032 312.77 471.032 312.77C471.032 312.77 476.954 259.038 439.874 212.917C381.679 140.445 298.935 153.32 298.935 153.32C298.935 153.32 209.84 131.29 147.496 207.596C133.076 220.299 113.162 262.558 113.162 262.558C113.162 262.558 68.2425 278.551 82.4909 328.506C90.3876 356.231 119.314 357.575 119.314 357.575C119.314 357.575 109.843 377.803 138.798 399.319C158.711 414.14 181.343 405.041 181.343 405.041C181.343 405.041 181.057 424.096 212.014 427.673C212.014 427.673 224.202 429.075 231.327 423.352" stroke="#7C6656" stroke-width="8" stroke-linecap="round" stroke-linejoin="round"/>
<path d="M301.023 427.701C362.422 438.917 412.578 409.476 425.081 381.208C437.584 352.94 425.882 332.226 424.738 324.072C426.655 316.518 428.114 308.965 429.058 301.469" stroke="#7C6656" stroke-width="8" stroke-linecap="round" stroke-linejoin="round"/>
<path d="M358.876 349.137C358.876 349.137 349.605 353.085 330.121 349.709C310.637 346.333 303.255 340.067 303.255 340.067" stroke="#7C6656" stroke-width="8" stroke-linecap="round" stroke-linejoin="round"/>
<path d="M355.413 350.423C355.413 350.423 347.03 405.557 321.366 399.663C295.73 393.769 305.916 341.668 305.916 341.668" stroke="#7C6656" stroke-width="8" stroke-linecap="round" stroke-linejoin="round"/>
<path d="M168.24 461.631C158.312 471.731 145.923 471.244 140.344 463.948C134.765 456.681 139.142 431.675 160.171 431.303C171.873 431.074 171.959 435.623 195.506 440.687C219.053 445.752 231.299 423.435 231.299 423.435C231.299 423.435 237.307 415.424 241.027 413.507" stroke="#7C6656" stroke-width="8" stroke-linecap="round" stroke-linejoin="round"/>
<path d="M166.093 464.151C166.093 464.151 216.907 486.696 246.291 456.225" stroke="#7C6656" stroke-width="8" stroke-linecap="round" stroke-linejoin="round"/>
<path d="M328.233 481.232L320.05 431.219" stroke="#7C6656" stroke-width="8" stroke-linecap="round" stroke-linejoin="round"/>
<path d="M320.05 481.23C320.05 481.23 345.028 484.063 353.525 506.351C362.023 528.639 342.31 551.871 295.902 550.755C249.495 549.64 214.532 543.717 214.532 543.717" stroke="#7C6656" stroke-width="8" stroke-linecap="round" stroke-linejoin="round"/>
<path d="M223.316 473.276C223.316 473.276 210.069 505.264 232.958 520.771" stroke="#7C6656" stroke-width="8" stroke-linecap="round" stroke-linejoin="round"/>
<path d="M221.541 506.152C221.541 506.152 206.863 526.437 214.502 543.117" stroke="#7C6656" stroke-width="8" stroke-linecap="round" stroke-linejoin="round"/>
<path d="M316.874 431.218C316.874 431.218 310.179 441.69 294.385 439.802C274.386 437.427 269.608 430.245 259.508 418.229" stroke="#7C6656" stroke-width="8" stroke-linecap="round" stroke-linejoin="round"/>
<path d="M216.936 514.248C216.936 514.248 196.307 509.642 185.32 520.771C175.192 531.071 178.511 543.203 188.353 545.749C201.772 549.239 206.321 541.629 206.321 541.629L215.705 543.918" stroke="#7C6656" stroke-width="8" stroke-linecap="round" stroke-linejoin="round"/>
<path d="M218.823 497.223C213.043 496.651 203.029 496.965 196.763 504.519C194.617 507.094 193.215 509.783 192.386 512.415" stroke="#7C6656" stroke-width="8" stroke-linecap="round" stroke-linejoin="round"/>
<path d="M307.659 489.558C307.659 489.558 301.308 491.161 293.983 489.558" stroke="#7C6656" stroke-width="8" stroke-linecap="round" stroke-linejoin="round"/>
<path d="M216.934 438.257L231.469 461.06" stroke="#7C6656" stroke-width="8" stroke-linecap="round" stroke-linejoin="round"/>
<path d="M396.612 452.363C408.314 460.345 420.359 457.427 424.422 449.187C428.456 440.976 419.301 417.314 398.586 421.034C387.056 423.094 387.885 427.586 365.769 437.142C348.745 444.495 335.098 434.624 329.747 429.731" stroke="#7C6656" stroke-width="8" stroke-linecap="round" stroke-linejoin="round"/>
<path d="M399.188 454.452C399.188 454.452 360.592 481.662 327.317 467.041" stroke="#7C6656" stroke-width="8" stroke-linecap="round" stroke-linejoin="round"/>
<path d="M344.283 438.974L334.498 464.18" stroke="#7C6656" stroke-width="8" stroke-linecap="round" stroke-linejoin="round"/>
<path d="M517.953 512.445C517.953 512.445 544.046 518.969 557.208 513.132C570.369 507.267 579.467 514.849 582.014 521.429C584.531 528.01 581.012 538.625 559.239 538.625C537.466 538.625 517.953 533.103 517.953 533.103C517.953 533.103 516.15 541.686 517.953 545.205C519.755 548.753 531.658 566.978 515.092 575.075C498.497 583.172 488.398 579.911 481.76 575.075C476.581 571.299 478.269 565.977 485.851 561.914C493.433 557.851 500.014 558.366 470.172 548.753C470.172 548.753 447.197 539.712 446.396 545.491C445.567 551.271 453.177 556.335 443.564 560.369C433.95 564.432 416.469 551.614 424.852 533.074C431.948 517.367 443.707 517.853 443.707 517.853" fill="#FFE596"/>
<path d="M517.953 512.445C517.953 512.445 544.046 518.969 557.208 513.132C570.369 507.267 579.467 514.849 582.014 521.429C584.531 528.01 581.012 538.625 559.239 538.625C537.466 538.625 517.953 533.103 517.953 533.103C517.953 533.103 516.15 541.686 517.953 545.205C519.755 548.753 531.658 566.978 515.092 575.075C498.497 583.172 488.398 579.911 481.76 575.075C476.581 571.299 478.269 565.977 485.851 561.914C493.433 557.851 500.014 558.366 470.172 548.753C470.172 548.753 447.197 539.712 446.396 545.491C445.567 551.271 453.177 556.335 443.564 560.369C433.95 564.432 416.469 551.614 424.852 533.074C431.948 517.367 443.707 517.853 443.707 517.853" stroke="#7C6656" stroke-width="8" stroke-linecap="round" stroke-linejoin="round"/>
<path d="M450.802 487.497C450.802 487.497 433.264 480.63 422.534 461.088C413.98 445.495 396.784 459.486 404.366 472.504C411.948 485.522 419.559 495.107 440.817 508.268" fill="#FFE596"/>
<path d="M450.802 487.497C450.802 487.497 433.264 480.63 422.534 461.088C413.98 445.495 396.784 459.486 404.366 472.504C411.948 485.522 419.559 495.107 440.817 508.268" stroke="#7C6656" stroke-width="8" stroke-linecap="round" stroke-linejoin="round"/>
<path d="M449.541 489.445C449.541 489.445 432.06 513.964 457.238 527.269C482.416 540.573 501.929 529.157 506.936 512.276" fill="white"/>
<path d="M449.541 489.445C449.541 489.445 432.06 513.964 457.238 527.269C482.416 540.573 501.929 529.157 506.936 512.276" stroke="#7C6656" stroke-width="8" stroke-linecap="round" stroke-linejoin="round"/>
<path d="M493.291 506.609C505.851 511.931 530.428 515.507 546.651 511.158C562.873 506.809 576.492 487.01 584.332 445.867C592.171 404.725 560.441 382.236 560.441 382.236C560.441 382.236 536.265 363.439 504.592 365.012C472.92 366.586 456.926 383.066 447.026 408.816C444.022 412.078 431.004 420.804 427.599 437.284C424.452 452.419 430.232 471.989 450.832 487.468C465.538 498.541 493.319 506.58 493.319 506.58L493.291 506.609Z" fill="white"/>
<g filter="url(#filter2_f_1802_19677)">
<ellipse cx="14.9354" cy="9.14928" rx="14.9354" ry="9.14928" transform="matrix(0.925775 0.378075 -0.376385 0.926463 510.957 451.005)" fill="#F5B0B0"/>
</g>
<g filter="url(#filter3_f_1802_19677)">
<ellipse cx="14.9354" cy="9.14928" rx="14.9354" ry="9.14928" transform="matrix(0.925775 0.378075 -0.376385 0.926463 437.805 421.464)" fill="#F5B0B0"/>
</g>
<path d="M491.174 470.417H491.06C484.136 470.331 477.441 468.214 471.661 464.265C469.687 462.921 467.828 461.376 466.168 459.659C462.306 455.711 462.391 449.359 466.34 445.496C470.317 441.634 476.64 441.72 480.502 445.668C481.246 446.412 482.076 447.127 482.934 447.728C485.481 449.473 488.285 450.36 491.26 450.389C496.782 450.446 501.217 454.995 501.16 460.517C501.102 466.011 496.639 470.417 491.146 470.417H491.174Z" fill="#F299A0" stroke="#7C6656" stroke-width="8" stroke-linecap="round" stroke-linejoin="round"/>
<path d="M493.291 506.609C505.851 511.931 530.428 515.507 546.651 511.158C562.873 506.809 576.492 487.01 584.332 445.867C592.171 404.725 560.441 382.236 560.441 382.236C560.441 382.236 536.265 363.439 504.592 365.012C472.92 366.586 456.926 383.066 447.026 408.816C444.022 412.078 431.004 420.804 427.599 437.284C424.452 452.419 430.232 471.989 450.832 487.468C465.538 498.541 493.319 506.58 493.319 506.58L493.291 506.609Z" stroke="#7C6656" stroke-width="8" stroke-linecap="round" stroke-linejoin="round"/>
<path d="M572.658 391.163C572.658 391.163 575.376 367.787 588.795 373.366C600.153 378.087 578.695 394.853 578.695 394.853C578.695 394.853 602.614 388.502 602.042 400.461C601.355 414.767 581.299 404.095 581.299 404.095" stroke="#7C6656" stroke-width="8" stroke-linecap="round" stroke-linejoin="round"/>
<path d="M525.25 452.676C525.25 452.676 523.762 440.287 511.974 446.038" stroke="#7C6656" stroke-width="8" stroke-linecap="round" stroke-linejoin="round"/>
<path d="M460.216 425.64C460.216 425.64 470.115 418.03 474.235 430.504" stroke="#7C6656" stroke-width="8" stroke-linecap="round" stroke-linejoin="round"/>
<g filter="url(#filter4_f_1802_19677)">
<ellipse cx="25.4583" cy="15.5955" rx="25.4583" ry="15.5955" transform="matrix(0.991309 0.131551 -0.129741 0.991548 369.747 341.378)" fill="#F5B0B0"/>
</g>
<g filter="url(#filter5_f_1802_19677)">
<ellipse cx="25.4583" cy="15.5955" rx="25.4583" ry="15.5955" transform="matrix(0.991309 0.131551 -0.129741 0.991548 236.376 324.204)" fill="#F5B0B0"/>
</g>
<path d="M399.188 319.406C399.188 319.406 386.485 315.772 375.498 330.707C375.498 330.707 386.427 328.647 391.663 331.966" stroke="#7C6656" stroke-width="8" stroke-linecap="round" stroke-linejoin="round"/>
<defs>
<filter id="filter0_f_1802_19677" x="513.825" y="242.048" width="85.4304" height="64.9822" filterUnits="userSpaceOnUse" color-interpolation-filters="sRGB">
<feFlood flood-opacity="0" result="BackgroundImageFix"/>
<feBlend mode="normal" in="SourceGraphic" in2="BackgroundImageFix" result="shape"/>
<feGaussianBlur stdDeviation="7.72413" result="effect1_foregroundBlur_1802_19677"/>
</filter>
<filter id="filter1_f_1802_19677" x="660.584" y="249.773" width="85.4304" height="64.9822" filterUnits="userSpaceOnUse" color-interpolation-filters="sRGB">
<feFlood flood-opacity="0" result="BackgroundImageFix"/>
<feBlend mode="normal" in="SourceGraphic" in2="BackgroundImageFix" result="shape"/>
<feGaussianBlur stdDeviation="7.72413" result="effect1_foregroundBlur_1802_19677"/>
</filter>
<filter id="filter2_f_1802_19677" x="496.329" y="444.184" width="50.0223" height="41.8895" filterUnits="userSpaceOnUse" color-interpolation-filters="sRGB">
<feFlood flood-opacity="0" result="BackgroundImageFix"/>
<feBlend mode="normal" in="SourceGraphic" in2="BackgroundImageFix" result="shape"/>
<feGaussianBlur stdDeviation="5.3793" result="effect1_foregroundBlur_1802_19677"/>
</filter>
<filter id="filter3_f_1802_19677" x="423.177" y="414.642" width="50.0223" height="41.8895" filterUnits="userSpaceOnUse" color-interpolation-filters="sRGB">
<feFlood flood-opacity="0" result="BackgroundImageFix"/>
<feBlend mode="normal" in="SourceGraphic" in2="BackgroundImageFix" result="shape"/>
<feGaussianBlur stdDeviation="5.3793" result="effect1_foregroundBlur_1802_19677"/>
</filter>
<filter id="filter4_f_1802_19677" x="353.297" y="330.02" width="79.3283" height="60.3405" filterUnits="userSpaceOnUse" color-interpolation-filters="sRGB">
<feFlood flood-opacity="0" result="BackgroundImageFix"/>
<feBlend mode="normal" in="SourceGraphic" in2="BackgroundImageFix" result="shape"/>
<feGaussianBlur stdDeviation="7.17241" result="effect1_foregroundBlur_1802_19677"/>
</filter>
<filter id="filter5_f_1802_19677" x="219.926" y="312.846" width="79.3283" height="60.3405" filterUnits="userSpaceOnUse" color-interpolation-filters="sRGB">
<feFlood flood-opacity="0" result="BackgroundImageFix"/>
<feBlend mode="normal" in="SourceGraphic" in2="BackgroundImageFix" result="shape"/>
<feGaussianBlur stdDeviation="7.17241" result="effect1_foregroundBlur_1802_19677"/>
</filter>
</defs>
</svg>
