<svg width="880" height="640" viewBox="0 0 880 640" fill="none" xmlns="http://www.w3.org/2000/svg">
<path d="M506.217 469.388C506.217 469.388 571.871 487.576 574.61 497.515C577.416 507.658 576.334 511.951 563.318 522.769C550.336 533.588 423.761 583.521 398.338 579.803C398.338 579.803 265.238 528.821 252.155 519.828C242.283 513.067 236.265 500.49 252.155 491.058C268.044 481.626 320.682 459.313 338.465 454.411" fill="#DFDCD9"/>
<path d="M506.217 469.388C506.217 469.388 571.871 487.576 574.61 497.515C577.416 507.658 576.334 511.951 563.318 522.769C550.336 533.588 423.761 583.521 398.338 579.803C398.338 579.803 265.238 528.821 252.155 519.828C242.283 513.067 236.265 500.49 252.155 491.058C268.044 481.626 320.682 459.313 338.465 454.411" stroke="#BFB9B2" stroke-width="8" stroke-linecap="round" stroke-linejoin="round"/>
<path d="M252.155 507.657C252.155 507.657 380.657 558.132 391.509 561.039C402.327 563.913 414.599 560.329 433.396 555.258" stroke="#C3BEB7" stroke-width="8" stroke-linecap="round" stroke-linejoin="round"/>
<path d="M498.476 533.654C498.476 533.654 549.086 513.742 560.952 503.6" stroke="#C3BEB7" stroke-width="8" stroke-linecap="round" stroke-linejoin="round"/>
<path d="M551.384 310.051C551.384 310.051 562.507 341.289 558.957 433.246C528.158 424.219 517.678 427.465 479.611 441.765C442.558 446.295 369.027 442.712 330.453 452.55C302.426 441.765 281.499 448.155 267.638 447.14C252.053 439.703 238.26 428.749 206.481 437.37C219.429 396.497 237.381 325.637 235.758 276.176C234.135 226.716 230.18 145.916 277.105 108.796" fill="white"/>
<path d="M648.986 383.142C648.986 383.142 683.165 292.606 738.001 281.72C738.001 281.72 672.617 265.56 629.817 384.63" fill="#85C175"/>
<path d="M648.986 383.142C648.986 383.142 683.165 292.606 738.001 281.72C738.001 281.72 672.617 265.56 629.817 384.63" stroke="#85C175" stroke-width="8" stroke-linecap="round" stroke-linejoin="round"/>
<path d="M622.684 384.628C622.684 384.628 599.762 263.665 541.918 247.911C541.918 247.911 596.01 299.772 604.664 387.096" fill="#AAD49E"/>
<path d="M622.684 384.628C622.684 384.628 599.762 263.665 541.918 247.911C541.918 247.911 596.01 299.772 604.664 387.096" stroke="#AAD49E" stroke-width="8" stroke-linecap="round" stroke-linejoin="round"/>
<path d="M613.015 390.04C613.015 390.04 578.7 317.524 549.998 306.536C549.998 306.536 585.428 346.192 593.102 384.259" fill="#85C175"/>
<path d="M613.015 390.04C613.015 390.04 578.7 317.524 549.998 306.536C549.998 306.536 585.428 346.192 593.102 384.259" stroke="#85C175" stroke-width="8" stroke-linecap="round" stroke-linejoin="round"/>
<path d="M620.791 382.77C620.791 392.541 626.808 260.32 655.342 228C655.342 228 636.951 344.703 638.066 390.039" fill="#AAD49E"/>
<path d="M620.791 382.77C620.791 392.541 626.808 260.32 655.342 228C655.342 228 636.951 344.703 638.066 390.039" stroke="#AAD49E" stroke-width="8" stroke-linecap="round" stroke-linejoin="round"/>
<path d="M611.426 386.794C613.015 313.803 603.143 256.567 603.143 256.567C617.782 275.736 625.557 321.849 625.557 321.849C625.557 321.849 630.561 360.153 629.783 387.132" fill="#85C175"/>
<path d="M611.426 386.794C613.015 313.803 603.143 256.567 603.143 256.567C617.782 275.736 625.557 321.849 625.557 321.849C625.557 321.849 630.561 360.153 629.783 387.132" stroke="#85C175" stroke-width="8" stroke-linecap="round" stroke-linejoin="round"/>
<path d="M670.217 385.812H571.33L588.234 500.115H653.347L670.217 385.812Z" fill="#D2C0AE"/>
<path opacity="0.5" d="M663.929 428.444H578.43" stroke="white" stroke-width="8" stroke-linecap="round" stroke-linejoin="round"/>
<path opacity="0.5" d="M658.756 463.471H583.67" stroke="white" stroke-width="8" stroke-linecap="round" stroke-linejoin="round"/>
<path d="M670.217 385.812H571.33L588.234 500.115H653.347L670.217 385.812Z" stroke="#D2C0AE" stroke-width="8" stroke-linecap="round" stroke-linejoin="round"/>
<path d="M171.397 520.991L161.698 533.675V559.042L179.604 573.963L204.971 578.44L234.069 573.963C239.042 568.243 249.289 556.654 250.483 556.057C251.975 555.311 253.467 541.882 253.467 540.389C253.467 538.897 249.736 525.468 248.99 523.975C248.393 522.782 240.783 519.001 237.053 517.261L223.623 486.671L215.416 485.179L204.971 508.308L196.764 494.878L175.127 481.448V497.862L171.397 520.991Z" fill="white"/>
<path d="M302.172 487.542C302.172 487.542 302.746 481.637 308.077 479.006C313.408 476.374 315.601 466.522 307.267 470.436C298.933 474.35 295.863 471.009 292.624 483.729" fill="white"/>
<path d="M292.996 481.773L300.52 483.696C300.52 483.696 304.062 488.453 302.544 497.833C301.026 507.212 301.026 510.114 289.419 516.221C287.496 515.107 280.344 510.418 280.344 510.418C280.344 510.418 289.554 508.697 293.333 503.94C297.517 498.71 295.189 491.962 292.996 481.739V481.773Z" fill="#E1B995"/>
<path d="M281.628 509.641C282.371 507.819 284.125 506.537 286.217 506.504C286.352 506.504 289.253 506.335 290.974 504.446C292.121 503.163 292.627 501.173 292.459 498.507C291.75 487.374 290.772 472.157 306.123 469.087C308.923 468.581 311.521 470.335 312.061 473.068C312.601 475.801 310.813 478.466 308.08 479.006C303.086 479.985 301.602 482.852 302.547 497.833C302.985 504.783 300.489 509 298.329 511.328C295.461 514.399 291.919 515.681 289.422 516.221" stroke="#7C6656" stroke-width="8" stroke-linecap="round" stroke-linejoin="round"/>
<path d="M240.062 508.192C243.976 506.168 250.858 503.738 260.744 504.177C277.276 504.852 295.9 518.28 299.004 533.901C302.108 549.522 299.342 561.702 275.218 564.131C251.095 566.527 249.576 563.457 239.826 570.643" fill="#E1B995"/>
<path d="M240.062 508.192C243.976 506.168 250.858 503.738 260.744 504.177C277.276 504.852 295.9 518.28 299.004 533.901C302.108 549.522 299.342 561.702 275.218 564.131C251.095 566.527 249.576 563.457 239.826 570.643" stroke="#7C6656" stroke-width="8" stroke-linecap="round" stroke-linejoin="round"/>
<path d="M160.329 543.616C160.329 543.616 171.463 556.032 182.091 552.287C192.719 548.542 200.58 527.219 214.042 524.924C227.504 522.63 229.629 540.242 242.315 541.119C255.035 541.996 259.893 537.644 255.845 529.513C251.796 521.382 242.214 512.913 242.214 512.913C242.214 512.913 219.609 477.318 215.526 477.723C210.904 487.001 204.595 509.91 204.595 509.91C204.595 509.91 185.6 477.824 174.938 479.714C174.162 488.655 173.386 515.747 173.386 515.747C173.386 515.747 162.421 517.907 160.329 543.616Z" fill="#E1B995"/>
<path d="M206.253 505.794C206.253 505.794 211.516 479.242 215.531 477.723C219.546 476.205 240.195 505.794 242.219 512.913C242.219 512.913 262.8 526.949 259.46 541.389C256.12 555.83 245.762 572.058 222.482 576.815C199.235 581.606 168.701 574.251 161.819 552.591C154.97 530.93 173.357 515.781 173.357 515.781C173.357 515.781 173.931 482.244 174.909 479.748C175.922 477.251 202.171 497.731 204.566 509.944" stroke="#7C6656" stroke-width="8" stroke-linecap="round" stroke-linejoin="round"/>
<path d="M188.17 502.454C188.17 502.454 191.678 513.048 191.678 514.297C191.678 515.511 197.448 514.432 197.448 514.432" stroke="#7C6656" stroke-width="8" stroke-linecap="round" stroke-linejoin="round"/>
<path d="M220.892 500.024L220.454 511.462L228.146 511.631" stroke="#7C6656" stroke-width="8" stroke-linecap="round" stroke-linejoin="round"/>
<path d="M213.508 544.36L220.728 547.228L224.641 542.302" stroke="#7C6656" stroke-width="8" stroke-linecap="round" stroke-linejoin="round"/>
<path d="M202.711 537.375C202.711 537.375 191.78 543.785 178.858 537.375" stroke="#7C6656" stroke-width="8" stroke-linecap="round" stroke-linejoin="round"/>
<path d="M244.143 527.929C244.143 527.929 240.702 534.069 228.151 534.845" stroke="#7C6656" stroke-width="8" stroke-linecap="round" stroke-linejoin="round"/>
<path d="M352.427 460.865C352.427 460.865 337.248 488.418 369.061 496.431" stroke="#7C6656" stroke-width="8" stroke-linecap="round" stroke-linejoin="round"/>
<path d="M370.65 371.142C371.258 369.08 356.789 457.723 356.789 457.723C356.789 457.723 328.762 469.589 321.527 494.978C313.988 516.683 324.874 535.615 353.78 520.672C376.059 526.014 430.523 536.798 453.613 523.85C462.132 525.743 495.467 530.848 506.555 504.546C517.61 478.244 494.419 459.007 494.419 459.007C494.419 459.007 477.312 377.498 472.748 372.934C468.184 368.37 370.65 371.176 370.65 371.176V371.142Z" fill="white"/>
<path d="M455.202 524.695C490.497 531.49 510.916 512.186 509.158 487.811C507.739 468.237 486.981 459.109 486.981 459.109C486.981 459.109 489.516 448.324 487.251 430.271C483.735 402.076 471.463 372.934 471.463 372.934" stroke="#7C6656" stroke-width="8" stroke-linecap="round" stroke-linejoin="round"/>
<path d="M443.809 476.115C444.417 476.622 458.955 481.896 458.955 501.167C458.955 520.437 453.207 530.714 426.398 531.458C399.589 532.202 355.267 521.688 355.267 521.688C355.267 521.688 329.709 533.453 321.697 520.673C313.684 507.894 323.691 475.642 341.981 478.617" stroke="#7C6656" stroke-width="8" stroke-linecap="round" stroke-linejoin="round"/>
<path d="M487.86 452.55C487.86 452.55 422.138 459.244 356.789 454.747C356.789 454.747 332.042 469.792 330.486 478.683C330.486 478.683 352.664 506.946 411.32 500.556C460.78 495.147 484.513 479.19 523.561 486.56C523.561 486.56 521.059 465.769 487.86 452.584V452.55Z" fill="#F39EAD"/>
<path d="M487.86 452.55C487.86 452.55 422.138 459.244 356.789 454.747C356.789 454.747 332.042 469.792 330.486 478.683C330.486 478.683 352.664 506.946 411.32 500.556C460.78 495.147 484.513 479.19 523.561 486.56C523.561 486.56 521.059 465.769 487.86 452.584V452.55Z" stroke="#7C6656" stroke-width="8" stroke-linecap="round" stroke-linejoin="round"/>
<path d="M383.091 408.16C383.091 408.16 381.333 411.608 377.242 423.103C373.117 434.597 406.891 437.843 406.891 437.843C428.731 423.103 452.7 440.682 444.214 460.865C430.894 492.475 402.259 467.12 402.259 467.12C358.614 467.12 340.223 452.583 340.967 426.179C341.744 399.809 369.297 369.45 369.297 369.45L384.849 371.039" fill="white"/>
<path d="M343.637 372.966C343.637 372.966 336.605 436.49 326.024 452.548" stroke="#7C6656" stroke-width="8" stroke-linecap="round" stroke-linejoin="round"/>
<path d="M583.231 188.007C583.231 188.007 590.127 205.992 565.177 217.284C570.857 237.061 607.335 327.158 512.066 361.675C457.839 373.035 413.619 388.045 341.372 361.675C299.722 338.822 255.772 324.994 266.083 205.417C276.395 85.8407 359.662 58.7948 410.306 60.1471C460.983 61.4994 562.033 72.0135 583.197 188.04L583.231 188.007Z" fill="white"/>
<path d="M555.407 334.526C555.407 334.526 568.389 370.261 559.193 435.644" stroke="#7C6656" stroke-width="8" stroke-linecap="round" stroke-linejoin="round"/>
<path d="M519.605 364.042C519.605 364.042 523.594 405.422 517.374 424.49" stroke="#7C6656" stroke-width="8" stroke-linecap="round" stroke-linejoin="round"/>
<path d="M430.759 116.066C430.759 116.066 454.492 167.487 436.675 205.419" stroke="#7C6656" stroke-width="8" stroke-linecap="round" stroke-linejoin="round"/>
<path d="M446.108 126.68C446.108 126.68 499.388 140.642 502.228 199.602" stroke="#7C6656" stroke-width="8" stroke-linecap="round" stroke-linejoin="round"/>
<path d="M268.822 229.49C263.244 286.962 278.22 320.939 299.722 338.789C335.05 368.134 380.995 371.683 418.758 373.678" stroke="#7C6656" stroke-width="8" stroke-linecap="round" stroke-linejoin="round"/>
<path d="M442.49 373.713C538.301 372.192 568.626 325.267 575.083 291.392C581.54 257.483 568.355 230.708 565.245 222.154C565.414 215.934 564.062 192.742 558.889 178.61" stroke="#7C6656" stroke-width="8" stroke-linecap="round" stroke-linejoin="round"/>
<path d="M340.122 74.7182C340.122 74.7182 404.187 45.0015 480.625 70.0189C557.064 95.0364 583.738 146.187 583.163 203.93" stroke="#7C6656" stroke-width="8" stroke-linecap="round" stroke-linejoin="round"/>
<path d="M280.891 111.501C280.891 111.501 227.712 128.574 234.811 245.446C240.998 347.51 216.015 417.864 206.515 437.337" stroke="#7C6656" stroke-width="8" stroke-linecap="round" stroke-linejoin="round"/>
<path d="M289.208 368.166C289.208 368.166 289.478 411.27 272.574 444.605" stroke="#7C6656" stroke-width="8" stroke-linecap="round" stroke-linejoin="round"/>
<path d="M377.952 152.61C377.952 152.61 369.399 224.722 266.083 228.947" stroke="#7C6656" stroke-width="8" stroke-linecap="round" stroke-linejoin="round"/>
<path d="M304.556 95.2739C304.556 95.2739 318.383 65.8953 342.015 65.3205C365.646 64.7458 366.796 91.8255 348.945 105.653C348.945 105.653 379.71 98.5194 375.45 124.078C370.852 151.732 336.842 145.985 336.842 145.985C336.842 145.985 343.773 171.915 316.659 185.168C289.579 198.42 289.005 160.962 289.005 160.962C289.005 160.962 275.752 182.869 262.5 169.616C249.247 156.364 253.642 135.031 271.222 130.67C271.222 130.67 250.397 121.204 265.847 97.0657C277.409 78.9787 299.958 72.792 304.556 95.2739Z" fill="#F5B0B0" stroke="#7C6656" stroke-width="8" stroke-linecap="round" stroke-linejoin="round"/>
<path d="M286.537 143.042C293.298 150.412 306.787 149.093 316.625 140.067C326.463 131.04 328.965 117.72 322.17 110.316C315.408 102.946 301.919 104.265 292.081 113.291C282.243 122.318 279.741 135.638 286.537 143.042Z" fill="white"/>
<path d="M464.431 372.966L442.592 386.523C442.592 386.523 402.057 376.989 396.715 372.966" stroke="#7C6656" stroke-width="8" stroke-linecap="round" stroke-linejoin="round"/>
<path d="M508.482 423.981C486.913 408.734 464.938 436.794 479.442 456.47C493.269 475.267 513.452 461.237 517.34 452.075C521.228 442.913 518.895 431.317 508.482 423.981Z" fill="white" stroke="#7C6656" stroke-width="8" stroke-linecap="round" stroke-linejoin="round"/>
<path d="M477.346 372.798C477.346 372.798 499.084 389.736 505.169 419.993" stroke="#7C6656" stroke-width="8" stroke-linecap="round" stroke-linejoin="round"/>
<path d="M369.297 369.45C369.297 369.45 341.744 399.809 340.967 426.179C340.189 452.549 358.614 467.12 402.26 467.12C402.26 467.12 430.895 492.475 444.215 460.865C452.7 440.682 428.731 423.103 406.891 437.843C406.891 437.843 373.118 434.597 377.242 423.103C381.367 411.608 383.091 408.16 383.091 408.16" stroke="#7C6656" stroke-width="8" stroke-linecap="round" stroke-linejoin="round"/>
<path d="M348.709 403.056C348.709 403.056 357.465 416.883 379.507 416.883" stroke="#7C6656" stroke-width="8" stroke-linecap="round" stroke-linejoin="round"/>
<g filter="url(#filter0_f_1802_19515)">
<ellipse cx="31.1464" cy="18.2779" rx="31.1464" ry="18.2779" transform="matrix(1 0 -0.000764978 1 331.775 265.839)" fill="#F5B0B0"/>
</g>
<g filter="url(#filter1_f_1802_19515)">
<ellipse cx="31.1464" cy="18.2779" rx="31.1464" ry="18.2779" transform="matrix(1 0 -0.000764978 1 500.318 266)" fill="#F5B0B0"/>
</g>
<path d="M492.12 295.245C492.12 295.245 478.022 312.521 452.7 312.521C427.379 312.521 414.126 295.245 414.126 295.245" stroke="#7C6656" stroke-width="8" stroke-linecap="round" stroke-linejoin="round"/>
<path d="M411.726 255.926C407.838 260.219 401.245 262.721 394.078 261.977C386.505 261.2 380.285 257.075 377.546 251.666" stroke="#7C6656" stroke-width="8" stroke-linecap="round" stroke-linejoin="round"/>
<path d="M524.44 252.782C521.464 257.752 515.481 261.471 508.28 262.147C500.707 262.857 493.81 260.017 490.057 255.25" stroke="#7C6656" stroke-width="8" stroke-linecap="round" stroke-linejoin="round"/>
<defs>
<filter id="filter0_f_1802_19515" x="321.782" y="255.86" width="82.2509" height="56.5138" filterUnits="userSpaceOnUse" color-interpolation-filters="sRGB">
<feFlood flood-opacity="0" result="BackgroundImageFix"/>
<feBlend mode="normal" in="SourceGraphic" in2="BackgroundImageFix" result="shape"/>
<feGaussianBlur stdDeviation="4.98953" result="effect1_foregroundBlur_1802_19515"/>
</filter>
<filter id="filter1_f_1802_19515" x="490.325" y="256.021" width="82.2509" height="56.5138" filterUnits="userSpaceOnUse" color-interpolation-filters="sRGB">
<feFlood flood-opacity="0" result="BackgroundImageFix"/>
<feBlend mode="normal" in="SourceGraphic" in2="BackgroundImageFix" result="shape"/>
<feGaussianBlur stdDeviation="4.98953" result="effect1_foregroundBlur_1802_19515"/>
</filter>
</defs>
</svg>
