<svg width="880" height="640" viewBox="0 0 880 640" fill="none" xmlns="http://www.w3.org/2000/svg">
<path d="M512.3 402.432C512.3 402.432 520.496 464.772 532.006 493.686C534.4 503.109 542.043 497.676 545.174 496.448C548.305 495.22 566.107 475.146 585.046 504.459C597.876 524.319 577.28 539.696 567.918 537.517C558.556 535.338 552.418 529.966 546.033 535.706C539.68 541.446 515.799 543.932 506.56 539.113C497.322 534.294 488.727 527.879 485.965 518.824C482.097 520.021 465.43 524.718 465.43 524.718L464.755 591.999C464.755 591.999 453.122 608.697 431.36 609.925C409.597 611.153 415.184 597.003 421.384 589.329C420.31 579.507 418.529 539.359 410.856 522.63C403.182 505.902 396.706 456.914 399.1 436.472C401.494 416.06 407.08 404.642 407.08 404.642L512.331 402.401L512.3 402.432Z" fill="white"/>
<path d="M529.642 479.599C529.734 486.812 534.246 497.801 534.277 497.923C539.771 495.284 553.921 489.759 553.921 489.759C553.921 489.759 571.08 502.037 569.576 515.542C568.072 529.047 561.81 535.616 561.81 535.616L552.08 533.13C552.08 533.13 533.387 545.807 515.922 541.11C498.457 536.414 488.42 529.354 484.614 519.256C471.784 524.382 465.43 524.72 465.43 524.72L464.264 588.717C464.264 588.717 438.511 602.499 419.143 590.528C422.366 582.548 426.97 590.958 421.108 557.869C416.227 539.361 406.712 515.573 407.08 497.954C407.633 499.489 437.222 504.615 470.495 496.02C491.06 490.71 518.193 479.047 529.673 479.63L529.642 479.599Z" fill="#8FBDE2"/>
<path d="M465.43 524.718C465.43 524.718 468.193 587.119 463.742 595.529C459.291 603.939 443.146 609.372 431.36 609.955C419.573 610.539 414.447 602.374 416.105 596.634C417.762 590.925 423.41 588.009 423.41 588.009" stroke="#7C6656" stroke-width="8" stroke-linecap="round" stroke-linejoin="round"/>
<path d="M421.996 586.69C425.188 553.448 415.182 542.183 404.992 502.096C404.654 500.715 404.316 499.334 403.979 497.953" stroke="#7C6656" stroke-width="8" stroke-linecap="round" stroke-linejoin="round"/>
<path d="M556.529 526.989C556.529 526.989 546.308 542.336 519.02 541.323C491.733 540.31 485.932 518.824 485.932 518.824C485.932 518.824 466.779 525.638 451.002 523.029" stroke="#7C6656" stroke-width="8" stroke-linecap="round" stroke-linejoin="round"/>
<path d="M552.11 531.564C552.11 531.564 563.467 540.864 574.977 536.168C586.487 531.472 591.675 513.669 583.08 501.668C577.279 493.534 567.303 486.106 556.53 489.052C550.667 490.648 535.78 495.498 535.78 495.498" stroke="#7C6656" stroke-width="8" stroke-linecap="round" stroke-linejoin="round"/>
<path d="M523.442 436.471C523.442 436.471 525.99 462.899 528.568 473.949C531.146 484.999 532.129 505.042 538.667 510.168" stroke="#7C6656" stroke-width="8" stroke-linecap="round" stroke-linejoin="round"/>
<path d="M561.807 535.614C561.807 535.614 582.772 509.278 555.3 491.721" stroke="#7C6656" stroke-width="8" stroke-linecap="round" stroke-linejoin="round"/>
<path d="M419.695 590.404C419.695 590.404 429.794 601.883 463.864 590.404" stroke="#7C6656" stroke-width="8" stroke-linecap="round" stroke-linejoin="round"/>
<path d="M391.701 421.586C301.091 412.961 274.449 345.341 274.449 345.341C274.449 345.341 237.401 337.422 248.328 302.645C257.321 273.977 290.011 277.63 299.802 287.268C309.563 296.906 314.965 314.708 305.972 328.306C305.972 328.306 336.574 375.851 397.41 378.123" fill="white"/>
<path d="M511.192 426.744C564.569 460.2 606.436 424.165 606.436 424.165C606.436 424.165 631.329 437.763 641.581 409.678C650.022 386.534 626.633 372.169 615.368 373.397C604.104 374.625 591.396 381.777 590.291 396.264C590.291 396.264 572.98 411.09 533.323 398.443" fill="white"/>
<path d="M511.192 426.744C564.569 460.2 606.436 424.165 606.436 424.165C606.436 424.165 631.329 437.763 641.581 409.678C650.022 386.534 626.633 372.169 615.368 373.397C604.104 374.625 591.396 381.777 590.291 396.264C590.291 396.264 560.733 414.435 537.282 399.641C528.596 394.852 525.526 390.647 525.526 390.647" stroke="#7C6656" stroke-width="8" stroke-linecap="round" stroke-linejoin="round"/>
<path d="M548.487 404.306C548.487 404.306 555.393 415.632 543.699 439.696" stroke="#7C6656" stroke-width="8" stroke-linecap="round" stroke-linejoin="round"/>
<path d="M518.562 383.495C518.562 383.495 527.616 461.735 543.669 478.033C543.669 478.033 453.091 509.372 390.966 502.098C384.244 461.274 390.352 406.332 390.352 406.332C390.352 406.332 391.211 380.18 394.557 377.049C406.313 379.075 489.955 391.138 510.673 381.715C531.361 372.292 518.562 383.526 518.562 383.526V383.495Z" fill="white"/>
<path d="M390.352 406.3C390.352 406.3 384.213 461.242 390.966 502.066C453.121 509.34 543.669 478.001 543.669 478.001C530.962 463.851 521.846 405.993 521.846 405.993" stroke="#7C6656" stroke-width="8" stroke-linecap="round" stroke-linejoin="round"/>
<path d="M479.733 386.194C479.733 386.194 465.184 404.488 442.654 400.682C414.415 395.924 416.84 383.769 416.84 383.769" stroke="#7C6656" stroke-width="8" stroke-linecap="round" stroke-linejoin="round"/>
<path d="M340.934 213.664C340.934 213.664 314.967 207.955 334.181 156.204C352.935 114.644 421.445 78.6707 516.382 99.6963C547.414 107.37 557.727 122.963 557.727 122.963C557.727 122.963 582.651 121.458 611.012 154.424C639.343 187.39 645.451 234.567 614.021 286.133C609.171 316.766 601.681 355.011 560.95 378.001C520.219 400.991 469.788 390.954 454.38 389.542C438.971 388.13 390.966 383.403 350.664 352.648C332.34 334.722 306.833 314.188 319.356 263.818C326.477 240.153 339.768 226.709 339.768 226.709L340.903 213.664H340.934Z" fill="white"/>
<g filter="url(#filter0_f_1802_18725)">
<ellipse cx="28.3789" cy="16.6858" rx="28.3789" ry="16.6858" transform="matrix(0.991043 0.133547 -0.13378 0.991011 348.19 258.105)" fill="#F5B0B0"/>
</g>
<g filter="url(#filter1_f_1802_18725)">
<ellipse cx="28.3789" cy="16.6858" rx="28.3789" ry="16.6858" transform="matrix(0.991043 0.133547 -0.13378 0.991011 489.817 290.538)" fill="#F5B0B0"/>
</g>
<path d="M344.585 198.96C340.318 208.26 340.502 221.674 339.827 226.738C335.56 234.381 314.627 257.064 315.579 290.183C316.53 323.302 339.888 355.378 394.585 376.649C394.585 376.649 426.999 387.361 439 388.19" stroke="#7C6656" stroke-width="8" stroke-linecap="round" stroke-linejoin="round"/>
<path d="M462.545 390.583C500.483 396.476 536.211 392.731 566.384 373.732C591.461 357.955 611.382 335.671 614.236 282.754" stroke="#7C6656" stroke-width="8" stroke-linecap="round" stroke-linejoin="round"/>
<path d="M389.001 247.671C387.62 256.173 393.421 264.215 401.924 265.566C410.426 266.947 418.468 261.146 419.818 252.644C421.169 244.141 415.398 236.099 406.896 234.749C398.394 233.368 390.352 239.169 389.001 247.671Z" fill="#7C6656"/>
<path d="M488.817 267.592C487.436 276.095 493.237 284.137 501.74 285.487C510.242 286.868 518.284 281.067 519.634 272.565C520.985 264.063 515.214 256.021 506.712 254.67C498.21 253.289 490.168 259.09 488.817 267.592Z" fill="#7C6656"/>
<path d="M616.812 283.155C677.28 155.681 560.151 121.611 560.151 121.611C485.963 65.563 385.286 109.978 385.286 109.978C385.286 109.978 311.927 140.273 330.343 206.204" stroke="#7C6656" stroke-width="8" stroke-linecap="round" stroke-linejoin="round"/>
<path d="M542.105 162.923C542.105 162.923 541.061 206.632 468.162 218.511" stroke="#7C6656" stroke-width="8" stroke-linecap="round" stroke-linejoin="round"/>
<path d="M553.336 190.582C553.336 190.582 588.972 221.154 590.783 263.481" stroke="#7C6656" stroke-width="8" stroke-linecap="round" stroke-linejoin="round"/>
<path d="M394.404 207.523C394.404 207.523 445.018 201.538 468.96 160.714" stroke="#7C6656" stroke-width="8" stroke-linecap="round" stroke-linejoin="round"/>
<path d="M516.042 110.5C516.042 110.5 531.236 126.645 523.255 140.58C517.117 151.262 509.351 153.502 486.361 154.423C463.402 155.344 437.465 122.01 430.774 91.2237C450.357 84.5937 486.023 71.0882 516.012 110.469L516.042 110.5Z" fill="#1BAE91"/>
<path d="M511.993 150.033C511.993 150.033 450.083 178.978 430.5 89.9336C430.5 89.9336 491.52 61.9404 525.99 125.662" stroke="#7C6656" stroke-width="8" stroke-linecap="round" stroke-linejoin="round"/>
<path d="M473.96 116.025C473.653 116.608 506.711 147.456 538.879 135.424" stroke="#7C6656" stroke-width="8" stroke-linecap="round" stroke-linejoin="round"/>
<path d="M411.007 284.196L465.612 297.426C465.612 297.426 460.271 338.771 431.541 336.96C402.811 335.18 398.299 308.077 411.007 284.166V284.196Z" fill="#F29AA0" stroke="#7C6656" stroke-width="8" stroke-linecap="round" stroke-linejoin="round"/>
<path d="M314.905 41.6823C319.294 32.1671 331.326 25.7213 342.1 33.3948C351.554 40.2397 353.702 55.065 346.55 67.7417C340.504 78.4847 329.239 86.8642 317.882 92.0209C306.003 88.2455 293.818 81.2472 286.605 71.3022C278.01 59.577 278.409 44.5062 287.004 36.7098C296.795 27.7471 309.533 32.7503 314.905 41.6823Z" fill="#EE7474"/>
<path d="M246.916 137.97C240.102 132.813 237.063 122.101 245.074 114.857C252.165 108.503 264.381 109.394 273.221 117.313C280.741 124.004 285.437 134.471 287.555 144.416C282.46 153.225 274.756 161.697 265.547 165.718C254.712 170.506 242.772 167.559 238.045 159.333C232.613 149.971 238.843 140.702 246.885 137.97H246.916Z" fill="#F08395"/>
<path d="M388.233 421.585C297.623 412.96 274.419 345.341 274.419 345.341C274.419 345.341 237.371 337.422 248.298 302.645C257.291 273.977 289.981 277.629 299.772 287.267C309.533 296.905 314.935 314.708 305.942 328.306C305.942 328.306 332.86 373.887 392.162 376.987" stroke="#7C6656" stroke-width="8" stroke-linecap="round" stroke-linejoin="round"/>
<path d="M373.651 374.747C373.651 374.747 365.978 398.965 373.651 418.21" stroke="#7C6656" stroke-width="8" stroke-linecap="round" stroke-linejoin="round"/>
<path d="M321.871 103.255C321.871 103.255 320.429 115.809 330.772 127.504" stroke="#EC6568" stroke-width="8" stroke-linecap="round" stroke-linejoin="round"/>
<path d="M294.985 145.614C294.985 145.614 307.569 145.552 316.379 151.108" stroke="#EF8198" stroke-width="8" stroke-linecap="round" stroke-linejoin="round"/>
<defs>
<filter id="filter0_f_1802_18725" x="333.023" y="248.617" width="82.1189" height="59.6266" filterUnits="userSpaceOnUse" color-interpolation-filters="sRGB">
<feFlood flood-opacity="0" result="BackgroundImageFix"/>
<feBlend mode="normal" in="SourceGraphic" in2="BackgroundImageFix" result="shape"/>
<feGaussianBlur stdDeviation="6.42248" result="effect1_foregroundBlur_1802_18725"/>
</filter>
<filter id="filter1_f_1802_18725" x="474.65" y="281.05" width="82.1189" height="59.6266" filterUnits="userSpaceOnUse" color-interpolation-filters="sRGB">
<feFlood flood-opacity="0" result="BackgroundImageFix"/>
<feBlend mode="normal" in="SourceGraphic" in2="BackgroundImageFix" result="shape"/>
<feGaussianBlur stdDeviation="6.42248" result="effect1_foregroundBlur_1802_18725"/>
</filter>
</defs>
</svg>
