<svg width="880" height="640" viewBox="0 0 880 640" fill="none" xmlns="http://www.w3.org/2000/svg">
<path d="M266.628 206.616L271.522 222.93L266.628 247.401V265.347L251.946 263.715L238.894 270.241L234 280.03V296.344L242.157 317.552L253.577 337.129L261.734 351.812L263.365 376.283L264.997 400.754L273.154 418.7L284.574 428.488L299.256 435.014H322.096L346.567 426.857V528.004L340.042 557.37L335.148 560.632L326.99 568.789V578.578L340.042 586.735H361.25L377.564 580.209L387.353 565.527L393.878 541.055L403.667 500.27H434.664L441.189 555.738L447.715 573.684L455.872 580.209L472.186 585.104H486.869L498.289 576.947L499.92 568.789L493.395 563.895L486.869 545.95V513.321L493.395 469.273L504.814 466.01L511.34 457.853V448.065L506.446 441.539L521.129 418.7L522.76 404.017L517.866 392.597L501.552 376.283L481.975 364.863L516.234 358.337L540.705 345.286L553.757 332.235L566.808 312.658L576.597 283.292V252.296L570.071 227.824L589.648 201.722L592.911 187.039L594.542 165.831L586.385 136.465L571.702 113.625L547.231 89.1543L478.712 56.5261L452.609 51.6318H415.087L393.878 54.8947L374.301 61.4203L359.619 63.0517L328.622 71.2088L302.519 85.8915L279.68 111.994L266.628 142.991L263.365 165.831L266.628 206.616Z" fill="white"/>
<path d="M532.547 500.272L535.809 508.429L543.966 523.112L537.441 521.481L527.652 513.324L526.021 506.798L522.758 500.272L517.864 498.641L512.97 501.904V511.692L517.864 524.744L530.915 537.795L545.598 544.32L548.861 550.846L542.335 562.266L543.966 568.792L548.861 573.686L558.649 576.949V588.369L563.543 590L570.069 586.737L573.332 578.58L596.172 576.949L605.96 572.054L607.592 567.16H615.749L623.906 563.897L627.169 555.74L632.063 542.689L636.957 541.058L643.483 539.426L645.114 536.163L643.483 532.901L636.957 531.269L630.431 532.901L623.906 539.426L619.011 550.846L614.117 557.372H607.592L602.697 559.003L599.435 555.74L592.909 541.058L604.329 539.426L615.749 531.269L622.274 521.481L623.906 505.167L619.011 493.747L630.431 461.118L627.169 457.856L607.592 464.381L594.54 474.17L596.172 443.173L592.909 441.542L579.858 448.067L568.438 456.224L558.649 464.381L548.861 467.644L539.072 472.538L532.547 482.327V500.272Z" fill="white"/>
<path d="M494.93 447.126C494.93 447.126 479.007 438.154 475.451 425.788C473.004 417.859 470.23 410.159 470.23 410.159C470.23 410.159 415.447 399.065 392.249 407.646C388.627 425.624 379.883 449.443 347.091 442.461C346.7 464.517 347.091 518.909 347.091 518.909L338.314 559.727C338.314 559.727 357.565 576.726 383.439 571.571C389.899 553.397 402.624 499.495 402.624 499.495L434.47 500.245C434.47 500.245 443.377 568.928 447.032 576.204C458.256 574.997 482.596 575.225 490.362 558.128C487.98 547.002 484.554 536.299 489.089 504.226C493.625 472.152 494.995 447.126 494.995 447.126H494.93Z" fill="#8FBDE2"/>
<path d="M572.356 196.799C574.314 207.501 570.627 221.27 569.974 226.654C572.356 235.627 581.492 262.447 573.27 296.707C564.362 333.871 536.139 359.157 474.21 366.727C474.21 366.727 438.026 369.24 425.431 366.956" stroke="#7C6656" stroke-width="8" stroke-linecap="round" stroke-linejoin="round"/>
<path d="M400.57 363.237C359.947 359.354 316.682 343.464 290.58 315.991C268.882 293.184 261.671 267.604 272.602 212.364" stroke="#7C6656" stroke-width="8" stroke-linecap="round" stroke-linejoin="round"/>
<path d="M268.424 212.367C239.58 65.181 373.356 60.8088 373.356 60.8088C464.487 22.5359 557.51 98.2008 557.51 98.2008C557.51 98.2008 622.081 152.07 581.785 212.367" stroke="#7C6656" stroke-width="8" stroke-linecap="round" stroke-linejoin="round"/>
<path d="M378.54 104.166C378.54 104.166 368.164 149.454 440.142 180.81" stroke="#7C6656" stroke-width="8" stroke-linecap="round" stroke-linejoin="round"/>
<path d="M359.714 129.72C359.714 129.72 314.98 151.842 302.027 195.009" stroke="#7C6656" stroke-width="8" stroke-linecap="round" stroke-linejoin="round"/>
<path d="M519.009 188.874C519.009 188.874 468.435 169.395 454.503 121.073" stroke="#7C6656" stroke-width="8" stroke-linecap="round" stroke-linejoin="round"/>
<path d="M426.931 87.6977C477.57 29.6846 534.311 72.9823 534.311 72.9823C493.232 160.72 435.773 116.247 435.773 116.247C435.773 116.247 428.563 114.485 425.3 101.76C423.57 95.0716 426.931 87.7303 426.931 87.7303V87.6977Z" fill="#1AAF92"/>
<path d="M435.744 116.246C435.744 116.246 493.202 160.718 534.281 72.9809C534.281 72.9809 477.54 29.7159 426.901 87.6963" stroke="#7C6656" stroke-width="8" stroke-linecap="round" stroke-linejoin="round"/>
<path d="M483.147 89.8782C483.343 90.5634 441.84 114.839 411.267 94.8377" stroke="#7C6656" stroke-width="8" stroke-linecap="round" stroke-linejoin="round"/>
<g filter="url(#filter0_f_1802_19993)">
<ellipse cx="29.1079" cy="17.0148" rx="29.1079" ry="17.0148" transform="matrix(0.991598 0.129361 -0.131199 0.991356 489.816 261.229)" fill="#F5B0B0"/>
</g>
<g filter="url(#filter1_f_1802_19993)">
<ellipse cx="29.1079" cy="17.0148" rx="29.1079" ry="17.0148" transform="matrix(0.991598 0.129361 -0.131199 0.991356 336.348 245.767)" fill="#F5B0B0"/>
</g>
<path d="M400.634 232.627C399.687 241.763 391.53 248.387 382.427 247.44C373.291 246.494 366.668 238.337 367.614 229.234C368.56 220.098 376.717 213.474 385.82 214.421C394.956 215.367 401.58 223.524 400.634 232.627Z" fill="#7C6656"/>
<path d="M513.85 244.279C512.903 253.415 504.746 260.039 495.643 259.092C486.507 258.146 479.884 249.989 480.83 240.886C481.776 231.75 489.933 225.126 499.036 226.073C508.172 227.019 514.796 235.176 513.85 244.279Z" fill="#7C6656"/>
<path d="M477.307 276.614C477.307 276.614 460.634 286.501 436.88 280.367C407.743 272.83 400.696 258.734 400.696 258.734" stroke="#7C6656" stroke-width="8" stroke-linecap="round" stroke-linejoin="round"/>
<path d="M625.051 538.09L631.087 542.56C631.087 542.56 632.523 548.107 627.759 555.971C622.995 563.834 621.918 566.412 609.324 567.651C607.986 565.955 603.288 559.168 603.288 559.168C603.288 559.168 612.163 560.995 617.285 558.091C622.93 554.926 623.289 548.042 625.051 538.058V538.09Z" fill="#E1B995"/>
<path d="M574.117 538.126C574.117 538.126 590.692 556.039 581.785 577.345C588.539 580.183 614.478 577.247 607.006 563.641C599.241 555.288 592.291 540.116 592.291 540.116L574.117 538.126Z" fill="#E1B995"/>
<path d="M621.263 521.557C621.263 521.557 606.809 528.703 598.619 521.525C590.397 514.346 591.017 492.388 579.727 485.503C568.438 478.619 560.248 493.66 548.502 489.908C536.756 486.156 533.95 480.478 540.541 474.638C547.132 468.797 558.747 464.621 558.747 464.621C558.747 464.621 591.8 440.77 595.324 442.597C596.139 452.581 593.594 475.421 593.594 475.421C593.594 475.421 622.144 453.43 631.052 458.944C628.539 467.264 619.501 491.866 619.501 491.866C619.501 491.866 628.572 497.739 621.23 521.557H621.263Z" fill="#E1B995"/>
<path d="M348.037 394.786C348.037 394.786 346.275 477.368 346.145 507.974C346.014 538.579 338.314 559.722 338.314 559.722" stroke="#7C6656" stroke-width="8" stroke-linecap="round" stroke-linejoin="round"/>
<path d="M341.607 559.697C341.607 559.697 329.143 562.144 327.805 570.236C326.467 578.328 329.143 588.769 350.71 589.095C372.277 589.421 384.285 577.316 389.244 556.075C394.204 534.834 402.622 499.465 402.622 499.465C402.622 499.465 439.557 502.5 447.975 497.769" stroke="#7C6656" stroke-width="8" stroke-linecap="round" stroke-linejoin="round"/>
<path d="M434.434 500.243C434.434 500.243 441.906 566.217 447.975 574.309C454.044 582.401 471.891 585.435 484.355 584.065C496.819 582.727 500.865 573.298 498.157 567.555C495.449 561.813 489.054 559.692 489.054 559.692" stroke="#7C6656" stroke-width="8" stroke-linecap="round" stroke-linejoin="round"/>
<path d="M485.691 384.935C485.691 384.935 498.155 422.686 494.109 466.473C490.063 510.293 481.449 523.768 490.291 558.126" stroke="#7C6656" stroke-width="8" stroke-linecap="round" stroke-linejoin="round"/>
<path d="M593.632 471.108C593.632 471.108 598.428 445.365 595.361 442.559C592.326 439.753 563.124 458.906 558.785 464.583C558.785 464.583 535.26 469.803 533.074 483.964C530.888 498.125 534.379 516.429 553.532 529.056C572.684 541.683 602.768 546.056 616.7 529.056C630.632 512.057 619.538 491.86 619.538 491.86C619.538 491.86 631.089 461.548 631.089 458.938C631.089 456.328 600.157 465.301 593.632 475.415" stroke="#7C6656" stroke-width="8" stroke-linecap="round" stroke-linejoin="round"/>
<path d="M564.885 549.541C564.885 549.541 556.598 586.574 560.513 588.303C564.429 590.032 572.259 593.393 578.818 562.755" stroke="#7C6656" stroke-width="8" stroke-linecap="round" stroke-linejoin="round"/>
<path d="M546.579 524.618C546.579 524.618 526.774 521.225 525.893 507.292C525.893 507.292 525.012 497.276 517.605 498.581C510.199 499.886 509.775 515.123 521.097 529.512C532.419 543.901 546.579 544.587 546.579 544.587" stroke="#7C6656" stroke-width="8" stroke-linecap="round" stroke-linejoin="round"/>
<path d="M546.578 535.16C546.578 535.16 546.578 542.567 550.493 553.465" stroke="#7C6656" stroke-width="8" stroke-linecap="round" stroke-linejoin="round"/>
<path d="M548.537 553.461C548.537 553.461 540.053 558.682 544.556 569.449C549.842 576.431 557.477 576.105 557.477 576.105" stroke="#7C6656" stroke-width="8" stroke-linecap="round" stroke-linejoin="round"/>
<path d="M594.05 542.567C594.05 542.567 598.422 556.5 601.881 558.686C605.372 560.872 613.203 572.194 597.966 576.109C582.728 580.025 578.813 579.144 578.813 579.144" stroke="#7C6656" stroke-width="8" stroke-linecap="round" stroke-linejoin="round"/>
<path d="M611.051 474.603C611.051 474.603 604.068 482.858 603.644 483.967C603.22 485.077 598.424 482.01 598.424 482.01" stroke="#7C6656" stroke-width="8" stroke-linecap="round" stroke-linejoin="round"/>
<path d="M582.535 460.667L578.815 471.108L571.833 468.498" stroke="#7C6656" stroke-width="8" stroke-linecap="round" stroke-linejoin="round"/>
<path d="M598.422 504.229C598.422 504.229 602.338 497.605 577.181 497.605" stroke="#7C6656" stroke-width="8" stroke-linecap="round" stroke-linejoin="round"/>
<path d="M555.287 478.913C555.287 478.913 565.989 476.89 569.122 491.867" stroke="#7C6656" stroke-width="8" stroke-linecap="round" stroke-linejoin="round"/>
<path d="M574.117 500.934H566.613L564.883 495.093" stroke="#7C6656" stroke-width="8" stroke-linecap="round" stroke-linejoin="round"/>
<path d="M565.633 497.606C565.633 497.606 552.06 513.203 559.467 520.283C566.873 527.363 571.833 502.272 571.833 502.272" stroke="#7C6656" stroke-width="8" stroke-linecap="round" stroke-linejoin="round"/>
<path d="M604.721 558.916C606.059 557.578 608.082 557.056 609.974 557.741C610.104 557.807 612.747 558.688 614.999 557.611C616.5 556.893 617.674 555.294 618.49 552.847C621.916 542.634 626.582 528.604 641.428 531.443C644.136 531.998 645.832 534.51 645.31 537.185C644.788 539.828 642.243 541.59 639.568 541.068C634.739 540.155 632.357 542.178 627.756 555.947C625.635 562.342 621.851 565.213 619.077 566.518C615.39 568.248 611.736 568.084 609.321 567.66" stroke="#7C6656" stroke-width="8" stroke-linecap="round" stroke-linejoin="round"/>
<path d="M305.094 317.359C305.094 317.359 285.941 254.354 250.278 265.904C214.616 277.454 249.006 330.149 254.389 337.686C259.773 345.223 263.493 356.284 263.852 378.863C264.243 401.442 269.17 431.492 307.182 435.212C343.432 438.768 375.636 411.622 371.916 367.149C367.871 318.631 326.433 308.843 305.094 317.424V317.359Z" fill="white" stroke="#7C6656" stroke-width="8" stroke-linecap="round" stroke-linejoin="round"/>
<path d="M305.096 317.362C305.096 317.362 290.021 324.965 283.006 336.058" stroke="#7C6656" stroke-width="8" stroke-linecap="round" stroke-linejoin="round"/>
<path d="M487.322 368.979C487.322 368.979 521.354 384.477 522.071 404.772C522.789 425.067 497.306 451.006 497.306 451.006" stroke="#7C6656" stroke-width="8" stroke-linecap="round" stroke-linejoin="round"/>
<path d="M507.849 442.303C507.849 442.303 520.248 464.393 495.679 467.101" stroke="#7C6656" stroke-width="8" stroke-linecap="round" stroke-linejoin="round"/>
<path d="M458.645 368.363C458.645 368.363 455.48 383.665 425.658 383.665C395.836 383.665 381.512 361.968 381.512 361.968" stroke="#7C6656" stroke-width="8" stroke-linecap="round" stroke-linejoin="round"/>
<path d="M338.277 559.697C338.277 559.697 345.227 574.053 381.509 571.802" stroke="#7C6656" stroke-width="8" stroke-linecap="round" stroke-linejoin="round"/>
<path d="M447.945 574.282C475.744 578.98 489.056 559.697 489.056 559.697" stroke="#7C6656" stroke-width="8" stroke-linecap="round" stroke-linejoin="round"/>
<path d="M347.056 442.463C347.056 442.463 356.518 449.576 370.026 442.463C383.534 435.383 392.213 407.649 392.213 407.649C421.187 401.971 470.195 410.161 470.195 410.161C470.195 410.161 474.012 428.4 481.288 437.406C487.161 444.649 494.894 445.595 494.894 445.595" stroke="#7C6656" stroke-width="8" stroke-linecap="round" stroke-linejoin="round"/>
<path d="M472.481 368.457C472.481 368.457 474.047 398.083 470.23 410.188" stroke="#7C6656" stroke-width="8" stroke-linecap="round" stroke-linejoin="round"/>
<path d="M392.213 407.651C392.213 407.651 386.634 369.118 376.258 361.156" stroke="#7C6656" stroke-width="8" stroke-linecap="round" stroke-linejoin="round"/>
<path d="M506.966 383.665C506.966 383.665 504.878 395.15 493.458 400.338" stroke="#7C6656" stroke-width="8" stroke-linecap="round" stroke-linejoin="round"/>
<defs>
<filter id="filter0_f_1802_19993" x="474.791" y="251.869" width="83.3135" height="59.9851" filterUnits="userSpaceOnUse" color-interpolation-filters="sRGB">
<feFlood flood-opacity="0" result="BackgroundImageFix"/>
<feBlend mode="normal" in="SourceGraphic" in2="BackgroundImageFix" result="shape"/>
<feGaussianBlur stdDeviation="6.35291" result="effect1_foregroundBlur_1802_19993"/>
</filter>
<filter id="filter1_f_1802_19993" x="321.322" y="236.408" width="83.3135" height="59.9851" filterUnits="userSpaceOnUse" color-interpolation-filters="sRGB">
<feFlood flood-opacity="0" result="BackgroundImageFix"/>
<feBlend mode="normal" in="SourceGraphic" in2="BackgroundImageFix" result="shape"/>
<feGaussianBlur stdDeviation="6.35291" result="effect1_foregroundBlur_1802_19993"/>
</filter>
</defs>
</svg>
