<svg width="880" height="640" viewBox="0 0 880 640" fill="none" xmlns="http://www.w3.org/2000/svg">
<path d="M355.375 495.344V457.808L358.639 408.848L363.535 348.465L376.591 335.409L510.415 363.153L529.999 395.793L533.263 418.64L526.735 436.592L515.311 448.016L503.887 474.128L495.727 539.408L500.623 560.624L507.151 570.416V576.944L495.727 585.104H477.775L464.719 581.84L454.927 573.68L446.767 523.088L443.503 501.872H410.863L394.543 565.52L389.647 576.944L376.591 586.736L360.271 590H348.847L339.055 585.104L335.792 572.048L342.319 563.888L348.847 557.36L353.743 531.248L355.375 495.344Z" fill="white"/>
<path d="M356.064 438.557C356.064 438.557 354.922 478.019 354.791 508.635C354.661 539.251 346.958 560.402 346.958 560.402" stroke="#7C6656" stroke-width="8" stroke-linecap="round" stroke-linejoin="round"/>
<path d="M346.955 561.348C343.168 562.687 337.359 565.559 336.445 570.944C335.106 579.039 337.783 589.484 359.358 589.81C380.933 590.137 392.944 578.027 397.906 556.779C402.867 535.53 411.288 500.148 411.288 500.148C411.288 500.148 448.693 503.184 457.114 498.451" stroke="#7C6656" stroke-width="8" stroke-linecap="round" stroke-linejoin="round"/>
<path d="M443.6 500.892C443.6 500.892 451.074 566.89 457.145 574.985C463.216 583.079 481.07 586.115 493.539 584.744C506.007 583.406 510.054 573.973 507.345 568.228C504.636 562.484 498.239 560.362 498.239 560.362" stroke="#7C6656" stroke-width="8" stroke-linecap="round" stroke-linejoin="round"/>
<path d="M494.881 385.547C494.881 385.547 507.349 423.311 503.302 467.114C499.255 510.949 490.638 524.43 499.483 558.799" stroke="#7C6656" stroke-width="8" stroke-linecap="round" stroke-linejoin="round"/>
<path d="M509.828 371.933C509.828 371.933 525.561 378.461 531.468 408.979C535.907 431.86 515.344 451.379 515.344 451.379" stroke="#7C6656" stroke-width="8" stroke-linecap="round" stroke-linejoin="round"/>
<path d="M500.755 369.817C500.755 369.817 521.546 412.021 518.543 471.229L454.439 484.84L440.828 460.556L426.173 483.437C426.173 483.437 370.522 476.582 344.377 460.426C344.377 460.426 363.047 384.473 371.827 357.936L414.683 366.912L444.777 429.777L464.133 370.242L499.155 366.488L500.755 369.817Z" fill="#7C9AC0" stroke="#7C6656" stroke-width="8" stroke-linecap="round" stroke-linejoin="round"/>
<path d="M450.455 446.973C450.259 450.563 447.224 453.305 443.633 453.142C440.043 452.946 437.301 449.911 437.464 446.32C437.66 442.73 440.696 439.988 444.286 440.151C447.876 440.314 450.618 443.383 450.455 446.973Z" fill="#7C6656"/>
<path d="M384.326 362.275L381.584 383.328L444.808 429.774L498.109 387.408L494.388 368.966" stroke="#7C6656" stroke-width="8" stroke-linecap="round" stroke-linejoin="round"/>
<path d="M499.48 559.875C499.48 559.875 478.068 574.432 454.567 566.37" stroke="#7C6656" stroke-width="8" stroke-linecap="round" stroke-linejoin="round"/>
<path d="M630.171 149.789L605.985 169.209C605.985 169.209 610.751 205.897 602.721 246.664C605.463 264.485 617.213 310.997 575.663 350.491C556.144 370.402 504.769 381.597 457.767 375.363C435.768 373.535 398.722 360.577 398.722 360.577C398.722 360.577 345.715 347.227 315.49 313.445C305.274 295.656 286.538 267.912 302.108 206.125C294.927 193.755 277.367 158.862 314.315 111.992C339.121 88.0992 376.723 83.1706 376.723 83.1706C376.723 83.1706 390.04 57.4177 451.925 50.7918C513.777 44.1659 565.316 80.7878 586.01 98.7071C606.703 116.626 613.133 142.902 630.171 149.854V149.789Z" fill="white"/>
<path d="M600.24 159.843C610.62 186.118 610.065 214.972 602.721 246.665C604.092 255.869 611.828 285.343 598.413 317.95C585.03 350.558 550.53 376.376 488.122 376.996C488.122 376.996 471.835 377.355 456.886 374.32" stroke="#7C6656" stroke-width="8" stroke-linecap="round" stroke-linejoin="round"/>
<path d="M419.482 366.681C381.13 357.379 338.568 340.015 315.491 313.413C297.539 292.719 289.804 253.878 303.643 199.663" stroke="#7C6656" stroke-width="8" stroke-linecap="round" stroke-linejoin="round"/>
<path d="M388.116 105.624C388.116 105.624 381.36 135.718 341.637 138.851" stroke="#7C6656" stroke-width="8" stroke-linecap="round" stroke-linejoin="round"/>
<path d="M405.02 110.162C405.02 110.162 423.331 81.667 465.045 84.6046" stroke="#7C6656" stroke-width="8" stroke-linecap="round" stroke-linejoin="round"/>
<path d="M432.44 117.508C432.44 117.508 441.84 94.7906 471.673 99.1317" stroke="#7C6656" stroke-width="8" stroke-linecap="round" stroke-linejoin="round"/>
<path d="M374.567 82.6841C374.567 82.6841 316.631 90.1913 299.168 135.332C281.739 180.473 299.756 203.484 299.756 203.484" stroke="#7C6656" stroke-width="8" stroke-linecap="round" stroke-linejoin="round"/>
<path d="M376.724 83.1025C376.724 83.1025 400.845 41.9763 482.64 52.2905C564.436 62.6047 595.639 106.048 610.817 130.855C610.817 130.855 618.487 142.899 630.172 149.786L605.986 169.207" stroke="#7C6656" stroke-width="8" stroke-linecap="round" stroke-linejoin="round"/>
<path d="M465.309 83.2349C465.309 83.2349 481.824 130.008 528.336 157.164" stroke="#7C6656" stroke-width="8" stroke-linecap="round" stroke-linejoin="round"/>
<path d="M510.905 105.039C510.905 105.039 543.577 152.301 599.065 166.761" stroke="#7C6656" stroke-width="8" stroke-linecap="round" stroke-linejoin="round"/>
<path d="M350.904 148.385C350.904 148.385 342.124 185.497 310.137 191.927" stroke="#7C6656" stroke-width="8" stroke-linecap="round" stroke-linejoin="round"/>
<g filter="url(#filter0_f_1802_19857)">
<ellipse cx="29.1183" cy="17.0209" rx="29.1183" ry="17.0209" transform="matrix(0.987411 0.158174 -0.160004 0.987116 519.127 265.237)" fill="#F5B0B0"/>
</g>
<g filter="url(#filter1_f_1802_19857)">
<ellipse cx="29.1183" cy="17.0209" rx="29.1183" ry="17.0209" transform="matrix(0.987411 0.158174 -0.160004 0.987116 359.192 239.123)" fill="#F5B0B0"/>
</g>
<path d="M431.785 233.611C430.121 242.62 421.471 248.593 412.43 246.928C403.421 245.264 397.448 236.614 399.113 227.573C400.777 218.564 409.427 212.591 418.468 214.256C427.477 215.921 433.45 224.57 431.785 233.611Z" fill="#7C6656"/>
<path d="M504.244 295.914C504.244 295.914 487.01 310.537 461.747 305.902C436.484 301.234 426.463 281.585 426.463 281.585" stroke="#7C6656" stroke-width="8" stroke-linecap="round" stroke-linejoin="round"/>
<path d="M425.355 268.952C425.355 268.952 418.174 274.468 413.409 281.812" stroke="#7C6656" stroke-width="8" stroke-linecap="round" stroke-linejoin="round"/>
<path d="M389.421 233.477L379.923 234.652" stroke="#7C6656" stroke-width="8" stroke-linecap="round" stroke-linejoin="round"/>
<path d="M540.771 239.548L513.321 251.363L541.065 259.85" stroke="#7C6656" stroke-width="8" stroke-linecap="round" stroke-linejoin="round"/>
<path d="M299.433 190.137C293.264 180.867 279.555 176.037 269.502 185.894C260.689 194.609 260.852 210.57 270.448 222.712C278.576 233.026 291.762 239.978 304.557 243.536C316.405 237.628 328.058 228.293 334.031 216.608C341.146 202.899 338.274 187.101 327.927 180.345C316.177 172.544 303.61 179.855 299.433 190.137Z" fill="#EE7474"/>
<path d="M270.285 114.859C263.496 110.812 253.279 111.922 249.852 121.322C246.882 129.613 251.876 139.731 261.733 144.562C270.089 148.674 280.664 149.066 289.901 147.434C295.679 140.025 300.248 130.494 300.509 121.192C300.836 110.257 294.177 101.053 285.495 99.8777C275.605 98.4742 269.795 107.026 270.285 114.859Z" fill="#EE7474"/>
<path d="M309.387 301.046C309.387 301.046 286.604 273.694 268.75 278.296C249.166 283.322 248.024 303.102 256.706 312.339C262.777 318.835 281.578 337.048 281.578 337.048" fill="white"/>
<path d="M309.387 301.046C309.387 301.046 286.604 273.694 268.75 278.296C249.166 283.322 248.024 303.102 256.706 312.339C262.777 318.835 281.578 337.048 281.578 337.048" stroke="#7C6656" stroke-width="8" stroke-linecap="round" stroke-linejoin="round"/>
<path d="M336.187 334.697C336.187 334.697 362.561 333.457 377.085 348.896C391.577 364.334 384.07 397.954 372.385 407.909C360.7 417.864 318.888 432.193 289.871 408.431C260.855 384.702 276.652 341.584 285.726 330.422C294.8 319.259 328.321 282.31 344.902 273.889C361.483 265.501 380.708 269.679 380.676 289.752C380.643 307.867 350.941 334.665 350.941 334.665" fill="white"/>
<path d="M336.187 334.697C336.187 334.697 362.561 333.457 377.085 348.896C391.577 364.334 384.07 397.954 372.385 407.909C360.7 417.864 318.888 432.193 289.871 408.431C260.855 384.702 276.652 341.584 285.726 330.422C294.8 319.259 328.321 282.31 344.902 273.889C361.483 265.501 380.708 269.679 380.676 289.752C380.643 307.867 350.941 334.665 350.941 334.665" stroke="#7C6656" stroke-width="8" stroke-linecap="round" stroke-linejoin="round"/>
<path d="M377.015 351.41C377.015 351.41 363.567 342.76 355.179 350.855" stroke="#7C6656" stroke-width="8" stroke-linecap="round" stroke-linejoin="round"/>
<path d="M393.791 564.771C393.791 564.771 378.908 576.619 348.422 561.376" stroke="#7C6656" stroke-width="8" stroke-linecap="round" stroke-linejoin="round"/>
<defs>
<filter id="filter0_f_1802_19857" x="504.534" y="257.48" width="81.243" height="58.3302" filterUnits="userSpaceOnUse" color-interpolation-filters="sRGB">
<feFlood flood-opacity="0" result="BackgroundImageFix"/>
<feBlend mode="normal" in="SourceGraphic" in2="BackgroundImageFix" result="shape"/>
<feGaussianBlur stdDeviation="5.86959" result="effect1_foregroundBlur_1802_19857"/>
</filter>
<filter id="filter1_f_1802_19857" x="344.599" y="231.365" width="81.243" height="58.3302" filterUnits="userSpaceOnUse" color-interpolation-filters="sRGB">
<feFlood flood-opacity="0" result="BackgroundImageFix"/>
<feBlend mode="normal" in="SourceGraphic" in2="BackgroundImageFix" result="shape"/>
<feGaussianBlur stdDeviation="5.86959" result="effect1_foregroundBlur_1802_19857"/>
</filter>
</defs>
</svg>
