<svg width="160" height="111" viewBox="0 0 160 111" fill="none" xmlns="http://www.w3.org/2000/svg">
<ellipse cx="80" cy="94.25" rx="73.5" ry="14.75" fill="#EEEEEE"/>
<path d="M42.6953 68.5615C49.1893 76.0251 57.129 72.5166 57.129 72.5166C57.129 72.5166 60.4847 76.1721 63.5759 72.1052C66.1265 68.7554 63.0588 65.3057 61.1664 64.9707C59.2741 64.6357 56.7999 65.4585 55.9712 67.5859C55.9712 67.5859 52.6919 69.0258 47.3087 65.3116" fill="white"/>
<path d="M42.6953 68.5624C49.1893 76.026 57.129 72.5175 57.129 72.5175C57.129 72.5175 60.4847 76.1729 63.5759 72.1061C66.1265 68.7563 63.0588 65.3066 61.1664 64.9716C59.2741 64.6366 56.7999 65.4594 55.9712 67.5868C55.9712 67.5868 50.4763 69.3205 47.4262 63.0439" stroke="#7C6656" stroke-width="1.25" stroke-linecap="round" stroke-linejoin="round"/>
<path d="M48.912 66.5884C48.912 66.5884 47.8542 67.6051 45.0039 70.6963" stroke="#7C6656" stroke-width="1.25" stroke-linecap="round" stroke-linejoin="round"/>
<path d="M22.731 91.0824C22.2784 91.0824 21.9141 90.5888 21.9141 89.9834V79.1641H23.5478V89.9834C23.5478 90.5888 23.1835 91.0824 22.731 91.0824Z" fill="#A08A60" stroke="#A08A60" stroke-width="1.25" stroke-linecap="round" stroke-linejoin="round"/>
<path d="M30.1919 94.3607C29.7394 94.3607 29.375 93.8671 29.375 93.2618V82.4424H31.0088V93.2618C31.0088 93.8671 30.6444 94.3607 30.1919 94.3607Z" fill="#A08A60" stroke="#A08A60" stroke-width="1.25" stroke-linecap="round" stroke-linejoin="round"/>
<path d="M29.2495 63.9712L21.5508 64.6059V80.6146L31.1771 85.9861L46.4042 82.3659L36.39 75.9542" fill="#C3A875"/>
<path d="M29.2495 63.9712L21.5508 64.6059V80.6146L31.1771 85.9861L46.4042 82.3659L36.39 75.9542" stroke="#C3A875" stroke-width="1.25" stroke-linecap="round" stroke-linejoin="round"/>
<path d="M5.48047 32.4138L6.28551 36.8416L13.5309 34.4264L36.072 25.9735L59.4182 13.8979L55.393 11.4828L53.7829 10.2752L46.9401 8.2626L39.6947 6.25L30.4367 7.05504L23.5939 9.47016L19.9712 11.4828L14.7384 13.8979L9.50567 18.7281L6.28551 24.3634L5.48047 32.4138Z" fill="white"/>
<path d="M31.1133 92.6681L31.8694 90.7777L34.5159 86.2409L35.6502 77.1671L44.7239 75.6548L50.7731 80.9478V90.0216L51.9073 91.912V93.4243L50.395 94.9365L48.5047 95.6927L45.4801 95.3146L43.2116 93.8023V91.1558V86.2409V82.4601L41.6993 83.2163L39.0528 92.29L39.809 93.4243V94.9365L37.5405 96.4488L35.2721 96.8269L31.8694 95.3146L31.1133 92.6681Z" fill="white"/>
<path d="M48.19 77.0307C48.19 77.0307 46.045 75.0443 39.0573 78.259C35.1198 78.929 25.135 79.9692 25.0703 79.1699C27.1978 82.5197 31.4526 84.1476 31.9815 84.4239C31.6172 87.568 30.8473 92.2754 30.8473 92.2754C30.8473 92.2754 32.3342 93.8093 35.4665 93.6095C38.5989 93.4096 38.8458 92.2225 38.8458 92.2225C38.8458 92.2225 42.5423 84.7236 40.7969 81.4913C40.7969 81.4913 42.9243 81.7792 42.8538 85.0233L43.1888 92.2578C43.1888 92.2578 49.2244 92.7926 50.6642 90.2714C50.7994 86.6042 52.2921 80.0749 48.19 77.0366V77.0307Z" fill="#8EBDE2"/>
<path d="M26.6636 62.7778L25.4236 72.6099C25.4236 72.6099 21.8093 81.1373 31.277 84.0111" stroke="#7C6656" stroke-width="1.25" stroke-linecap="round" stroke-linejoin="round"/>
<path d="M26.6551 62.7778C26.6551 62.7778 24.4219 71.4698 24.4219 79.1685C24.4219 79.1685 34.777 80.1676 40.4012 77.4642C44.8088 75.3426 49.1519 76.7002 49.1519 76.7002C49.1519 76.7002 47.283 73.0742 47.0891 62.7837" fill="white"/>
<path d="M26.6551 62.7778C26.6551 62.7778 24.4219 71.4698 24.4219 79.1685C24.4219 79.1685 34.777 80.1676 40.4012 77.4642C44.8088 75.3426 49.1519 76.7002 49.1519 76.7002C49.1519 76.7002 47.618 71.7107 47.0891 62.7837" stroke="#7C6656" stroke-width="1.25" stroke-linecap="round" stroke-linejoin="round"/>
<path d="M40.542 79.1631C40.542 79.1631 43.6803 81.6196 38.8554 92.2157C38.8554 92.2157 40.7125 93.585 38.9024 95.5067C36.9748 97.5578 32.7904 96.1826 31.9676 95.4421C30.8393 94.4313 30.7511 93.967 30.898 91.5692C30.898 91.5692 31.0215 90.053 31.8031 86.8207C32.5847 83.5943 31.0156 81.2494 31.0156 81.2494" stroke="#7C6656" stroke-width="1.25" stroke-linecap="round" stroke-linejoin="round"/>
<path d="M44.6878 63.0498C44.6878 63.0498 44.0884 66.0647 39.5338 66.3585C34.9733 66.6523 33.4453 63.5435 33.4453 63.5435" stroke="#7C6656" stroke-width="1.25" stroke-linecap="round" stroke-linejoin="round"/>
<path d="M48.1923 77.0293C48.1923 77.0293 51.2836 78.8629 50.9016 84.9396C50.6254 89.2885 50.6724 90.6226 50.6724 90.6226C50.6724 90.6226 51.9771 91.4042 51.9183 93.038C51.8595 94.6718 49.0034 96.282 45.63 95.1478C42.2567 94.0135 43.291 92.1271 43.197 90.2993C43.1029 88.4716 43.9727 84.0111 41.3281 80.6906" stroke="#7C6656" stroke-width="1.25" stroke-linecap="round" stroke-linejoin="round"/>
<path d="M43.1953 92.2576C47.2092 93.8267 50.9763 90.8589 50.9763 90.8589" stroke="#7C6656" stroke-width="1.25" stroke-linecap="round" stroke-linejoin="round"/>
<path d="M38.8552 92.2217C38.8552 92.2217 35.4642 94.9309 31.0859 92.7741" stroke="#7C6656" stroke-width="1.25" stroke-linecap="round" stroke-linejoin="round"/>
<path d="M55.5322 96.5123C54.6272 96.5123 53.8984 95.7777 53.8984 94.8785V79.4458H57.1719V94.8785C57.1719 95.7836 56.4373 96.5123 55.5381 96.5123H55.5322Z" fill="#A08A60" stroke="#A08A60" stroke-width="1.25" stroke-linecap="round" stroke-linejoin="round"/>
<path d="M87.8369 96.5123C86.9319 96.5123 86.2031 95.7777 86.2031 94.8785V79.4458H89.4766V94.8785C89.4766 95.7836 88.7419 96.5123 87.8428 96.5123H87.8369Z" fill="#A08A60" stroke="#A08A60" stroke-width="1.25" stroke-linecap="round" stroke-linejoin="round"/>
<path d="M95.9458 75.4023H48.625V80.6504H95.9458V75.4023Z" fill="#C3A875" stroke="#C3A875" stroke-width="1.25" stroke-linecap="round" stroke-linejoin="round"/>
<path d="M61.3125 74.7667H52.503C51.9447 74.7667 51.4922 74.3142 51.4922 73.7559H62.3233C62.3233 74.3142 61.8708 74.7667 61.3125 74.7667Z" fill="#7D7369" stroke="#7D7369" stroke-width="1.25" stroke-linecap="round" stroke-linejoin="round"/>
<path d="M73.8082 59.0405H83.6168C84.369 59.0405 84.9332 59.7281 84.7863 60.4686L82.1946 73.6035C82.0829 74.1618 81.5951 74.5673 81.0251 74.5673H71.2518C70.4995 74.5673 69.9353 73.8797 70.0764 73.1451L72.6328 60.0102C72.7445 59.446 73.2323 59.0464 73.8082 59.0464V59.0405Z" fill="white" stroke="#7C6656" stroke-width="1.25" stroke-linecap="round" stroke-linejoin="round"/>
<path d="M81.0732 62.3907H82.7364C82.8069 62.3907 82.8715 62.3437 82.8892 62.2732L83.3476 60.5983C83.377 60.4983 83.3006 60.3984 83.1948 60.3984H81.5316C81.4611 60.3984 81.3964 60.4455 81.3788 60.516L80.9204 62.1909C80.891 62.2908 80.9674 62.3907 81.0732 62.3907Z" fill="#7C6656"/>
<path d="M75.4913 65.586C75.4913 65.586 75.9027 64.6692 77.2132 65.2804C77.2132 65.2804 78.606 64.6516 79.4347 65.7388C80.0694 66.5733 79.6521 68.5245 78.8235 69.024C77.9948 69.5235 77.3425 69.1768 77.3425 69.1768C77.3425 69.1768 76.5374 69.4824 76.0143 69.2003C75.4913 68.9182 75.1445 68.0014 75.1445 68.0014C75.1445 68.0014 76.079 68.2424 76.1671 67.6547C76.1671 67.6547 76.6549 67.6958 76.7842 67.208C76.9076 66.7203 76.5609 66.35 76.3023 66.3735C76.3023 66.3735 76.4903 66.0914 76.2788 65.8093C75.9732 65.3979 75.4971 65.5919 75.4971 65.5919L75.4913 65.586Z" fill="#B0B0B0"/>
<path d="M77.2969 64.846C77.2969 64.846 77.4732 63.7823 78.2783 63.8234C79.0835 63.8646 79.2363 63.9527 79.2363 63.9527C79.2363 63.9527 78.7367 65.0164 77.2969 64.846Z" fill="#B0B0B0"/>
<path d="M77.293 66.2817H81.73L86.1671 74.5682H81.73L77.293 66.2817Z" fill="white" stroke="#7C6656" stroke-width="1.25" stroke-linecap="round" stroke-linejoin="round"/>
<path d="M63.8458 21.1425C63.8458 21.1425 65.0533 29.998 62.1313 32.3474C63.53 35.5444 71.4697 46.2874 59.0929 56.6719C52.8987 60.1392 40.8217 65.4461 26.1059 63.1423C18.6011 60.7857 10.5556 59.8454 9.2098 47.7566C9.2098 44.4887 5.88281 33.2181 5.88281 33.2181C5.88281 33.2181 53.3802 -7.8391 63.8458 21.1425Z" fill="white"/>
<g filter="url(#filter0_f_574_15835)">
<ellipse cx="4.83025" cy="2.81764" rx="4.83025" ry="2.81764" transform="matrix(0.994522 -0.104528 0.102685 0.994714 23.6602 46.4297)" fill="#F5B0B0"/>
</g>
<g filter="url(#filter1_f_574_15835)">
<ellipse cx="4.83025" cy="2.81764" rx="4.83025" ry="2.81764" transform="matrix(0.994522 -0.104528 0.102685 0.994714 54.1836 42.8779)" fill="#F5B0B0"/>
</g>
<path d="M52.2862 47.957C52.2862 47.957 50.241 51.2481 45.8745 51.8182C41.508 52.3882 38.8398 49.7083 38.8398 49.7083" stroke="#7C6656" stroke-width="1.25" stroke-linecap="round" stroke-linejoin="round"/>
<path d="M36.5355 40.8153C36.7185 42.4112 35.5745 43.8583 33.9786 44.0414C32.3828 44.2244 30.9356 43.0804 30.7526 41.4845C30.5695 39.8887 31.7135 38.4415 33.3094 38.2585C34.9053 38.0755 36.3524 39.2194 36.5355 40.8153Z" fill="#7C6656"/>
<path d="M56.3558 38.5321C56.5388 40.128 55.3948 41.5751 53.7989 41.7582C52.2031 41.9412 50.7559 40.7972 50.5729 39.2013C50.3899 37.6055 51.5339 36.1583 53.1297 35.9753C54.7256 35.7922 56.1727 36.9362 56.3558 38.5321Z" fill="#7C6656"/>
<path d="M61.02 27.3809C61.7782 29.1909 61.6724 31.7533 61.7723 32.723C62.5422 34.2098 66.4209 38.6704 66.0448 45.0057C65.6687 51.341 61.0142 57.3413 50.424 61.0966C50.424 61.0966 44.1592 62.9537 41.8555 63.0478" stroke="#7C6656" stroke-width="1.25" stroke-linecap="round" stroke-linejoin="round"/>
<path d="M37.3288 63.3708C30.0297 64.2759 21.8079 63.1828 16.1426 59.3686C11.4352 56.2069 9.16673 51.999 8.92578 41.8496" stroke="#7C6656" stroke-width="1.25" stroke-linecap="round" stroke-linejoin="round"/>
<path d="M8.42679 41.9208C-2.39847 17.1732 20.21 11.3315 20.21 11.3315C34.7318 1.03519 53.7436 10.1209 53.7436 10.1209C53.7436 10.1209 67.6072 16.3445 63.699 28.8506" stroke="#7C6656" stroke-width="1.25" stroke-linecap="round" stroke-linejoin="round"/>
<path d="M23.3125 18.6841C23.3125 18.6841 23.2596 27.0528 37.1409 29.7503" stroke="#7C6656" stroke-width="1.25" stroke-linecap="round" stroke-linejoin="round"/>
<path d="M21.0011 23.9136C21.0011 23.9136 14.0076 29.5554 13.4141 37.6479" stroke="#7C6656" stroke-width="1.25" stroke-linecap="round" stroke-linejoin="round"/>
<path d="M51.321 28.0754C51.321 28.0754 41.6653 26.6355 37.3281 18.6841" stroke="#7C6656" stroke-width="1.25" stroke-linecap="round" stroke-linejoin="round"/>
<path d="M35.7019 15.5283C47.109 7.64736 55.1016 17.7145 55.1016 17.7145C44.0354 31.2137 35.9781 20.8998 35.9781 20.8998C35.9781 20.8998 34.7969 20.2709 34.7969 17.9026C34.7969 16.6566 35.7019 15.5224 35.7019 15.5224V15.5283Z" fill="#1BAE91"/>
<path d="M35.9754 20.9053C35.9754 20.9053 44.0327 31.2192 55.0989 17.72C55.0989 17.72 47.1122 7.64697 35.6992 15.5338" stroke="#7C6656" stroke-width="1.25" stroke-linecap="round" stroke-linejoin="round"/>
<path d="M45.4209 18.4029C45.4209 18.5322 37.1051 20.93 32.6562 16.0815" stroke="#7C6656" stroke-width="1.25" stroke-linecap="round" stroke-linejoin="round"/>
<path d="M24.9258 63.7002C24.9258 63.7002 20.5064 68.4899 20.3712 73.1738C20.236 77.8576 23.5036 80.4376 31.2494 80.4376C31.2494 80.4376 36.7325 84.8629 39.2243 79.6383C41.4399 75.0074 37.4142 71.6281 32.4776 74.1728C32.4776 74.1728 26.1364 73.9436 27.112 72.0101C30.1915 65.8923 30.9026 64.7169 30.9026 64.7169" fill="white"/>
<path d="M25.3944 63.1016C25.3944 63.1016 20.5048 68.4907 20.3637 73.1687C20.2227 77.8467 23.4961 80.4325 31.2419 80.4325C31.2419 80.4325 36.725 84.8579 39.2168 79.6333C41.4324 75.0023 37.4067 71.6231 32.4702 74.1678C32.4702 74.1678 26.3758 74.0444 27.1045 72.0051C27.798 70.0774 28.3387 68.426 28.3387 68.426" stroke="#7C6656" stroke-width="1.25" stroke-linecap="round" stroke-linejoin="round"/>
<path d="M22.5078 67.8726C22.5078 67.8726 23.4187 70.2645 27.3269 70.2645" stroke="#7C6656" stroke-width="1.25" stroke-linecap="round" stroke-linejoin="round"/>
<path d="M39.7227 72.7573H48.3323V80.4678C48.3323 81.5198 47.4743 82.3778 46.4223 82.3778H41.6385C40.5866 82.3778 39.7285 81.5198 39.7285 80.4678V72.7573H39.7227Z" fill="#D4EDFC" stroke="#7D7369" stroke-width="1.25" stroke-linecap="round" stroke-linejoin="round"/>
<path d="M123.129 84.4002C123.129 84.4002 120.864 89.0706 120.964 93.7965C120.964 93.7965 121.286 97.7839 116.66 97.7117C112.034 97.6339 111.623 95.1071 113.056 93.7965C113.056 93.7965 114 85.1166 114.127 83.7949C114.255 82.4732 116.154 80.835 116.154 80.835" fill="white"/>
<path d="M114.619 82.9938C114.619 82.9938 111.498 82.7161 110.904 83.7046C110.31 84.6931 107.905 93.1954 107.905 93.1954C107.905 93.1954 106.928 95.8388 102.457 95.0891C97.9811 94.3394 99.5305 90.6575 101.074 90.1243C101.074 90.1243 102.007 83.3548 103.473 81.2612C104.939 79.1675 107.022 77.9458 107.022 77.9458" fill="white"/>
<path d="M130.276 65.5122L130.054 81.1394L106.391 77.9407C106.391 77.9407 110.05 73.3592 108.329 64.446C118.825 63.3131 130.27 65.5067 130.27 65.5067L130.276 65.5122Z" fill="white"/>
<path d="M143.899 48.9084C143.899 48.9084 145.582 60.3761 130.905 65.5129C124.385 67.2678 108.524 65.6573 108.524 65.6573C108.524 65.6573 87.1883 61.57 90.0539 44.7322C91.8143 41.3502 93.2193 37.1963 93.2193 37.1963L93.8468 33.4644L97.0733 17.8092C97.0733 17.8092 109.746 7.30803 123.419 9.15175C133.27 11.1176 138.502 15.4326 140.268 22.2188C144.133 22.9685 148.664 24.3569 149.914 33.0368C150.547 39.6898 143.888 48.9084 143.888 48.9084H143.899Z" fill="white"/>
<path d="M129.259 81.0342C129.259 81.0342 128.376 85.4325 122.801 85.1159C123.451 84.1941 122.801 81.5395 122.801 81.5395L129.259 81.0397V81.0342Z" fill="#B2ABA4"/>
<path d="M123.356 83.6399C123.356 83.6399 121.074 87.4773 121.246 90.404C121.418 93.3306 120.746 95.3076 120.746 95.3076C120.746 95.3076 115.06 96.024 113.094 93.4083C113.438 90.2429 114.227 77.2147 117.431 79.6915C120.541 82.1683 123.356 83.6455 123.356 83.6455V83.6399Z" fill="#B2ABA4"/>
<path d="M112.46 81.9788C112.46 81.9788 109.517 84.7166 107.901 93.1966C105.869 93.191 102.115 91.8416 101.109 89.8424C101.531 86.0383 102.459 80.1406 106.979 77.6416C110.761 77.736 112.46 81.9788 112.46 81.9788Z" fill="#B2ABA4"/>
<path d="M123.129 84.4002C123.129 84.4002 120.864 89.0706 120.964 93.7965C120.964 93.7965 121.286 97.7839 116.66 97.7117C112.034 97.6339 111.623 95.1071 113.056 93.7965C113.056 93.7965 114 85.1166 114.127 83.7949C114.255 82.4732 116.154 80.835 116.154 80.835" stroke="#7C6656" stroke-width="1.25" stroke-linecap="round" stroke-linejoin="round"/>
<path d="M114.619 82.9938C114.619 82.9938 111.498 82.7161 110.904 83.7046C110.31 84.6931 107.905 93.1954 107.905 93.1954C107.905 93.1954 106.928 95.8388 102.457 95.0891C97.9811 94.3394 99.5305 90.6575 101.074 90.1243C101.074 90.1243 102.007 83.3548 103.473 81.2612C104.939 79.1675 107.022 77.9458 107.022 77.9458" stroke="#7C6656" stroke-width="1.25" stroke-linecap="round" stroke-linejoin="round"/>
<path d="M120.807 95.1002C114.443 96.0776 113.094 93.4009 113.094 93.4009" stroke="#7C6656" stroke-width="1.25" stroke-linecap="round" stroke-linejoin="round"/>
<path d="M129.516 81.2515C129.85 82.4788 127.434 84.8001 122.797 85.1111" stroke="#7C6656" stroke-width="1.25" stroke-linecap="round" stroke-linejoin="round"/>
<path d="M107.894 65.6567C108.333 74.8587 106.395 77.9408 106.395 77.9408C106.395 77.9408 110.965 78.5128 115.696 79.1459C120.428 79.779 128.841 81.1395 128.841 81.1395C130.668 73.9812 128.219 66.5175 128.219 66.5175" stroke="#7C6656" stroke-width="1.25" stroke-linecap="round" stroke-linejoin="round"/>
<path d="M136.236 90.4305C136.531 90.4305 136.769 90.1917 136.769 89.8974V84.6494H135.703V89.8974C135.703 90.1917 135.942 90.4305 136.236 90.4305Z" fill="#A08A60" stroke="#A08A60" stroke-width="1.25" stroke-linecap="round" stroke-linejoin="round"/>
<path d="M128.045 95.2064C128.339 95.2064 128.578 94.9676 128.578 94.6732V89.4253H127.512V94.6732C127.512 94.9676 127.751 95.2064 128.045 95.2064Z" fill="#A08A60" stroke="#A08A60" stroke-width="1.25" stroke-linecap="round" stroke-linejoin="round"/>
<path d="M114.758 64.1177L137.183 67.9051C137.682 67.9439 138.066 68.3605 138.066 68.8603V85.2038C138.066 85.848 137.716 86.4478 137.149 86.7588L130.002 90.7461C129.336 91.1182 128.553 91.2237 127.809 91.0515L101.058 85.1705C100.086 84.965 99.8584 81.9551 100.691 81.4164L107.883 76.8127" fill="#CBD0E4"/>
<path d="M138.064 67.9717L136.775 68.577C135.914 68.9824 135.37 69.8487 135.37 70.7983V83.1435C135.37 83.5156 135.159 83.8543 134.831 84.0209L129.85 86.7365C129.05 87.1419 128.978 88.7246 128.973 89.6243V91.3181L137.147 86.7532C137.714 86.4366 138.064 85.8424 138.064 85.1982V67.9717Z" fill="#B1B8D4"/>
<path d="M101.374 81.0654L129.54 87.0409L129.507 90.7061C129.502 91.1504 129.085 91.478 128.646 91.3836L100.657 85.1361C99.9242 84.975 99.7188 82.2927 100.324 81.8485L101.368 81.071L101.374 81.0654Z" fill="#919DC2"/>
<path d="M114.758 64.1177L137.183 67.9051C137.682 67.9439 138.066 68.3605 138.066 68.8603V85.2038C138.066 85.848 137.716 86.4478 137.149 86.7588L130.002 90.7461C129.336 91.1182 128.553 91.2237 127.809 91.0515L101.058 85.1705C100.086 84.965 99.8584 81.9551 100.691 81.4164L107.883 76.8127" stroke="#939FC3" stroke-width="1.25" stroke-linecap="round" stroke-linejoin="round"/>
<path d="M152.859 78.6777L131.687 79.4339L129.04 63.5548L127.906 49.188L142.651 34.4431L149.835 32.5527L150.213 37.4677V42.7607L149.835 52.9687V65.0671L150.969 71.8724L152.859 78.6777Z" fill="white"/>
<path d="M138.158 65.4458C138.158 65.4458 137.627 73.0354 140.228 79.0915" stroke="#7C6656" stroke-width="1.25" stroke-linecap="round" stroke-linejoin="round"/>
<path d="M143.899 48.9076C143.899 48.9076 145.582 60.3753 130.905 65.5122C124.385 67.267 108.524 65.6566 108.524 65.6566C108.524 65.6566 87.1883 61.5693 90.0539 44.7314C91.8143 41.3494 93.2193 37.1955 93.2193 37.1955L92.159 37.1955C92.159 37.1955 88.9977 37.3747 90.6026 28.0784C92.2075 18.7765 110.478 9.75775 124.15 11.6015C134.002 13.5674 138.502 15.4318 140.268 22.2181C144.133 22.9678 148.664 24.3561 149.914 33.036C150.547 39.689 143.888 48.9076 143.888 48.9076H143.899Z" fill="white"/>
<g filter="url(#filter2_f_574_15835)">
<ellipse cx="4.83025" cy="2.81764" rx="4.83025" ry="2.81764" transform="matrix(0.994122 0.108263 -0.110105 0.99392 95.1289 44.2505)" fill="#F5B0B0"/>
</g>
<g filter="url(#filter3_f_574_15835)">
<ellipse cx="4.83025" cy="2.81764" rx="4.83025" ry="2.81764" transform="matrix(0.994122 0.108263 -0.110105 0.99392 125.211 47.2373)" fill="#F5B0B0"/>
</g>
<path d="M108.801 49.1969L119.377 49.9748C119.377 49.9748 119.663 57.8374 114.256 58.3886C108.85 58.9457 107.177 54.0392 108.801 49.1969Z" fill="#F299A0" stroke="#7C6656" stroke-width="1.25" stroke-linecap="round" stroke-linejoin="round"/>
<path d="M122.041 43.9701C121.89 45.5223 123.024 46.9083 124.576 47.0599C126.128 47.2115 127.514 46.0773 127.666 44.5251C127.817 42.973 126.683 41.5869 125.131 41.4353C123.579 41.2837 122.193 42.4179 122.041 43.9701Z" fill="#7C6656"/>
<path d="M102.764 42.0785C102.612 43.6306 103.747 45.0167 105.299 45.1683C106.851 45.3199 108.237 44.1857 108.389 42.6335C108.54 41.0814 107.406 39.6953 105.854 39.5437C104.302 39.3921 102.916 40.5263 102.764 42.0785Z" fill="#7C6656"/>
<path d="M123.129 84.3973C123.129 84.3973 120.864 89.0677 120.964 93.7936C120.964 93.7936 121.286 97.7809 116.66 97.7087C112.034 97.631 111.623 95.1042 113.056 93.7936C113.056 93.7936 114 85.1137 114.127 83.792C114.255 82.4703 116.154 80.832 116.154 80.832" fill="white"/>
<path d="M114.623 82.9933C114.623 82.9933 111.502 82.7157 110.908 83.7042C110.313 84.6927 107.909 93.1949 107.909 93.1949C107.909 93.1949 106.931 95.8383 102.461 95.0886C97.985 94.3389 99.5344 90.657 101.078 90.1239C101.078 90.1239 102.011 83.3543 103.477 81.2607C104.943 79.1671 107.026 77.9453 107.026 77.9453" fill="white"/>
<path d="M130.276 65.5113L130.054 81.1385L106.391 77.9397C106.391 77.9397 110.05 73.3582 108.329 64.445C118.825 63.3121 130.27 65.5057 130.27 65.5057L130.276 65.5113Z" fill="white"/>
<path d="M121.325 66.9849L115.62 70.3888L111 65.9521" stroke="#7C6656" stroke-width="1.25" stroke-linecap="round" stroke-linejoin="round"/>
<path d="M115.192 18.0002C115.192 18.0002 111.409 29.1337 114.989 37.1995" stroke="#7C6656" stroke-width="1.25" stroke-linecap="round" stroke-linejoin="round"/>
<path d="M112.486 20.4791C112.486 20.4791 103.584 23.6032 103.695 36.0969" stroke="#7C6656" stroke-width="1.25" stroke-linecap="round" stroke-linejoin="round"/>
<path d="M123.129 84.3973C123.129 84.3973 120.864 89.0677 120.964 93.7936C120.964 93.7936 121.286 97.7809 116.66 97.7087C112.034 97.631 111.623 95.1042 113.056 93.7936C113.056 93.7936 114 85.1137 114.127 83.792C114.255 82.4703 116.154 80.832 116.154 80.832" stroke="#7C6656" stroke-width="1.25" stroke-linecap="round" stroke-linejoin="round"/>
<path d="M114.623 82.9933C114.623 82.9933 111.502 82.7157 110.908 83.7042C110.313 84.6927 107.909 93.1949 107.909 93.1949C107.909 93.1949 106.931 95.8383 102.461 95.0886C97.985 94.3389 99.5344 90.657 101.078 90.1239C101.078 90.1239 102.011 83.3543 103.477 81.2607C104.943 79.1671 107.026 77.9453 107.026 77.9453" stroke="#7C6656" stroke-width="1.25" stroke-linecap="round" stroke-linejoin="round"/>
<path d="M106.083 73.63L126.815 79.6305C126.815 79.6305 127.22 83.4796 126.001 89.3951L108.015 84.6233L100.674 82.4209C100.674 82.4209 104.668 78.1377 107.113 74.519C109.558 70.9004 106.083 73.63 106.083 73.63Z" fill="#F3A2AD" stroke="#7C6656" stroke-width="1.25" stroke-linecap="round" stroke-linejoin="round"/>
<path d="M92.1598 37.8465C84.3518 18.9428 110.769 5.64574 125.291 9.57753C140.274 13.637 140.279 22.217 140.279 22.217C140.279 22.217 146.76 21.1785 149.426 30.225" stroke="#7C6656" stroke-width="1.25" stroke-linecap="round" stroke-linejoin="round"/>
<path d="M94.6822 30.0137C94.6822 30.0137 93.4494 34.6063 93.2272 37.1942C93.2272 37.1942 87.7072 44.619 90.5227 53.0102C93.3383 61.3958 105.067 65.3331 114.602 66.2272C124.132 67.1269 135.422 66.2494 140.82 58.5191C144.763 52.8714 144.407 42.7642 143.93 37.7384" stroke="#7C6656" stroke-width="1.25" stroke-linecap="round" stroke-linejoin="round"/>
<path d="M130.322 65.7651C130.322 65.7651 133.454 70.5577 133.582 74.9837C133.709 79.4098 133.271 81.4978 125.951 81.4978C125.951 81.4978 120.326 86.1904 117.971 81.2535C115.877 76.8774 120.342 73.2733 123.763 76.4831C123.763 76.4831 127.845 75.267 127.117 73.351C125.218 68.3752 125.313 67.0424 125.313 67.0424" fill="white"/>
<path d="M130.455 66.0205C130.455 66.0205 133.554 70.3355 133.581 74.7615C133.604 78.4101 131.782 81.4922 125.59 81.5311C125.59 81.5311 123.224 84.2911 120.52 83.4859C119.62 83.2137 118.637 82.6862 117.971 81.2534C116.133 77.2827 120.476 73.2288 124.169 76.4775C124.169 76.4775 127.412 75.9277 127.278 73.8896C127.167 72.2014 125.934 69.9578 125.934 69.9578" stroke="#7C6656" stroke-width="1.25" stroke-linecap="round" stroke-linejoin="round"/>
<path d="M124.168 76.479C124.168 76.479 124.135 79.8443 125.584 81.5326" stroke="#7C6656" stroke-width="1.25" stroke-linecap="round" stroke-linejoin="round"/>
<path d="M107.786 59.4341H98.5178C97.807 59.4341 97.2739 60.0838 97.4127 60.7836L99.8618 73.1953C99.9673 73.7229 100.428 74.1061 100.967 74.1061H110.202C110.913 74.1061 111.446 73.4563 111.313 72.7622L108.897 60.3504C108.792 59.8173 108.331 59.4341 107.786 59.4341Z" fill="white" stroke="#7C6656" stroke-width="1.25" stroke-linecap="round" stroke-linejoin="round"/>
<path d="M100.929 62.6048H99.357C99.2903 62.6048 99.2293 62.5603 99.2126 62.4937L98.7794 60.911C98.7517 60.8166 98.8239 60.7222 98.9238 60.7222H100.495C100.562 60.7222 100.623 60.7666 100.64 60.8332L101.073 62.4159C101.101 62.5104 101.029 62.6048 100.929 62.6048Z" fill="#7C6656"/>
<path d="M106.201 65.6211C106.201 65.6211 105.812 64.7548 104.574 65.3323C104.574 65.3323 103.257 64.7381 102.474 65.7655C101.875 66.5541 102.269 68.3978 103.052 68.8698C103.835 69.3419 104.451 69.0142 104.451 69.0142C104.451 69.0142 105.212 69.303 105.707 69.0364C106.201 68.7699 106.528 67.9035 106.528 67.9035C106.528 67.9035 105.645 68.1312 105.562 67.5759C105.562 67.5759 105.101 67.6148 104.979 67.1538C104.862 66.6929 105.19 66.343 105.434 66.3653C105.434 66.3653 105.257 66.0987 105.457 65.8321C105.745 65.4434 106.195 65.6267 106.195 65.6267L106.201 65.6211Z" fill="#B0B0B0"/>
<path d="M104.489 64.9269C104.489 64.9269 104.322 63.9217 103.561 63.9606C102.801 63.9994 102.656 64.0827 102.656 64.0827C102.656 64.0827 103.128 65.0879 104.489 64.9269Z" fill="#B0B0B0"/>
<path d="M95.6913 70.0031C96.2078 71.9023 97.8571 73.1018 99.3788 72.6909C100.9 72.2799 101.717 70.4085 101.206 68.5092C100.689 66.61 99.04 65.4104 97.5184 65.8214C95.9968 66.2323 95.1804 68.1038 95.6913 70.0031Z" fill="white" stroke="#7C6656" stroke-width="1.25" stroke-linecap="round" stroke-linejoin="round"/>
<path d="M143.625 21.8564C143.625 21.8564 152.529 25.3554 150.044 45.2655C147.871 62.65 151.382 74.9541 152.795 78.3835" stroke="#7C6656" stroke-width="1.25" stroke-linecap="round" stroke-linejoin="round"/>
<path d="M139.749 15.6622C139.749 15.6622 137.704 10.4834 133.672 10.13C129.64 9.77664 129.148 14.3936 132.05 16.954C132.05 16.954 126.865 15.3957 127.317 19.8157C127.804 24.5949 133.678 23.9808 133.678 23.9808C133.678 23.9808 132.212 28.3371 136.701 30.9033C141.191 33.4638 141.695 27.0684 141.695 27.0684C141.695 27.0684 143.722 30.9555 146.132 28.8353C148.542 26.7151 148.021 23.0192 145.066 22.0807C145.066 22.0807 148.728 20.6905 146.352 16.3921C144.568 13.1771 140.785 11.8737 139.754 15.668L139.749 15.6622Z" fill="#F5B1B1" stroke="#7C6656" stroke-width="1.25" stroke-linecap="round" stroke-linejoin="round"/>
<path d="M142.304 24.0237C141.064 25.2113 138.776 24.8347 137.189 23.1838C135.602 21.5328 135.324 19.2272 136.563 18.0397C137.803 16.8521 140.091 17.2287 141.678 18.8796C143.266 20.5306 143.544 22.8362 142.304 24.0237Z" fill="white"/>
<path d="M124.957 24.7148C124.957 24.7148 125.635 37.1406 143.257 38.9885" stroke="#7C6656" stroke-width="1.25" stroke-linecap="round" stroke-linejoin="round"/>
<path d="M94.6783 30.0142C94.6783 30.0142 93.4455 34.6068 93.2233 37.1947C93.2233 37.1947 87.7033 44.6195 90.5188 53.0107C93.3344 61.3963 105.063 65.3336 114.598 66.2277C124.128 67.1274 135.418 66.2499 140.816 58.5196C144.759 52.8718 144.403 42.7647 143.926 37.7389" stroke="#7C6656" stroke-width="1.25" stroke-linecap="round" stroke-linejoin="round"/>
<path d="M130.322 65.7681C130.322 65.7681 133.454 70.5606 133.582 74.9867C133.709 79.4127 133.271 81.5008 125.951 81.5008C125.951 81.5008 120.326 86.1934 117.971 81.2564C115.877 76.8804 120.342 73.2762 123.763 76.4861C123.763 76.4861 127.845 75.2699 127.117 73.354C125.218 68.3781 125.313 67.0453 125.313 67.0453" fill="white"/>
<path d="M130.455 66.0239C130.455 66.0239 133.554 70.3389 133.581 74.7649C133.604 78.4135 131.782 81.4956 125.59 81.5345C125.59 81.5345 123.224 84.2945 120.52 83.4893C119.62 83.2172 118.637 82.6896 117.971 81.2568C116.133 77.2862 120.476 73.2322 124.169 76.4809C124.169 76.4809 127.412 75.9311 127.278 73.8931C127.167 72.2048 125.934 69.9613 125.934 69.9613" stroke="#7C6656" stroke-width="1.25" stroke-linecap="round" stroke-linejoin="round"/>
<path d="M127.187 72.6415C127.187 72.6415 130.552 72.5532 132.187 71.0437" stroke="#7C6656" stroke-width="1.25" stroke-linecap="round" stroke-linejoin="round"/>
<path d="M107.786 59.4375H98.5178C97.807 59.4375 97.2739 60.0872 97.4127 60.787L99.8618 73.1988C99.9673 73.7263 100.428 74.1095 100.967 74.1095H110.202C110.913 74.1095 111.446 73.4598 111.313 72.7656L108.897 60.3538C108.792 59.8207 108.331 59.4375 107.786 59.4375Z" fill="white" stroke="#7C6656" stroke-width="1.25" stroke-linecap="round" stroke-linejoin="round"/>
<path d="M107.738 62.8821H106.167C106.1 62.8821 106.039 62.8377 106.022 62.771L105.764 61.1883C105.736 61.0939 105.808 60.9995 105.908 60.9995H107.48C107.546 60.9995 107.608 61.0439 107.624 61.1106L107.883 62.6933C107.911 62.7877 107.838 62.8821 107.738 62.8821Z" fill="#7C6656"/>
<path d="M102.092 65.7254C102.092 65.7254 102.425 64.8364 103.697 65.3352C103.697 65.3352 104.974 64.6597 105.82 65.636C106.468 66.3854 106.19 68.2502 105.438 68.7704C104.686 69.2906 104.05 69.0022 104.05 69.0022C104.05 69.0022 103.309 69.3381 102.799 69.1031C102.289 68.868 101.908 68.0239 101.908 68.0239C101.908 68.0239 102.803 68.1958 102.851 67.6364C102.851 67.6364 103.314 67.6463 103.407 67.1786C103.494 66.7112 103.146 66.3826 102.903 66.4201C102.903 66.4201 103.064 66.1429 102.847 65.8894C102.535 65.5195 102.097 65.7306 102.097 65.7306L102.092 65.7254Z" fill="#B0B0B0"/>
<path d="M103.755 64.9256C103.755 64.9256 103.858 63.9119 104.62 63.903C105.382 63.8942 105.531 63.9682 105.531 63.9682C105.531 63.9682 105.123 65.001 103.755 64.9256Z" fill="#B0B0B0"/>
<path d="M95.6913 70.0055C96.2078 71.9048 97.8571 73.1043 99.3788 72.6933C100.9 72.2824 101.717 70.4109 101.206 68.5116C100.689 66.6124 99.04 65.4129 97.5184 65.8238C95.9968 66.2348 95.1804 68.1062 95.6913 70.0055Z" fill="white" stroke="#7C6656" stroke-width="1.25" stroke-linecap="round" stroke-linejoin="round"/>
<defs>
<filter id="filter0_f_574_15835" x="22.6914" y="44.6294" width="12.125" height="8.19629" filterUnits="userSpaceOnUse" color-interpolation-filters="sRGB">
<feFlood flood-opacity="0" result="BackgroundImageFix"/>
<feBlend mode="normal" in="SourceGraphic" in2="BackgroundImageFix" result="shape"/>
<feGaussianBlur stdDeviation="0.625" result="effect1_foregroundBlur_574_15835"/>
</filter>
<filter id="filter1_f_574_15835" x="53.2148" y="41.0776" width="12.125" height="8.19629" filterUnits="userSpaceOnUse" color-interpolation-filters="sRGB">
<feFlood flood-opacity="0" result="BackgroundImageFix"/>
<feBlend mode="normal" in="SourceGraphic" in2="BackgroundImageFix" result="shape"/>
<feGaussianBlur stdDeviation="0.625" result="effect1_foregroundBlur_574_15835"/>
</filter>
<filter id="filter2_f_574_15835" x="93.5586" y="43.4746" width="12.125" height="8.19873" filterUnits="userSpaceOnUse" color-interpolation-filters="sRGB">
<feFlood flood-opacity="0" result="BackgroundImageFix"/>
<feBlend mode="normal" in="SourceGraphic" in2="BackgroundImageFix" result="shape"/>
<feGaussianBlur stdDeviation="0.625" result="effect1_foregroundBlur_574_15835"/>
</filter>
<filter id="filter3_f_574_15835" x="123.641" y="46.4614" width="12.125" height="8.19873" filterUnits="userSpaceOnUse" color-interpolation-filters="sRGB">
<feFlood flood-opacity="0" result="BackgroundImageFix"/>
<feBlend mode="normal" in="SourceGraphic" in2="BackgroundImageFix" result="shape"/>
<feGaussianBlur stdDeviation="0.625" result="effect1_foregroundBlur_574_15835"/>
</filter>
</defs>
</svg>
