<svg width="640" height="440" viewBox="0 0 640 440" fill="none" xmlns="http://www.w3.org/2000/svg">
<ellipse cx="320" cy="410" rx="278" ry="30" fill="#EEEEEE"/>
<path d="M229.577 270.4C280.237 260.194 312.137 235.174 312.137 235.174C312.137 235.174 324.743 231.272 330.206 219.097C339.055 196.622 330.774 180.122 316.67 179.294C302.565 178.466 302.248 195.94 302.248 195.94C302.248 195.94 300.213 192.187 296.219 191.98C292.225 191.774 289.138 197.983 289.22 202.673C289.329 209.034 289.225 219.922 289.225 219.922C289.225 219.922 275.352 230.558 225.792 238.443" fill="white"/>
<path d="M229.577 270.4C280.237 260.194 312.137 235.174 312.137 235.174C312.137 235.174 324.743 231.272 330.206 219.097C339.055 196.622 330.774 180.122 316.67 179.294C302.565 178.466 302.248 195.94 302.248 195.94C302.248 195.94 300.213 192.187 296.219 191.98C292.225 191.774 289.138 197.983 289.22 202.673C289.329 209.034 289.225 219.922 289.225 219.922C289.225 219.922 275.352 230.558 225.792 238.443" stroke="#333333" stroke-width="6" stroke-linecap="round" stroke-linejoin="round"/>
<path d="M240.553 235.848C240.553 235.848 244.14 247.488 240.026 265.398" stroke="#333333" stroke-width="6" stroke-linecap="round" stroke-linejoin="round"/>
<path d="M137.463 318.119C137.463 318.119 128.34 324.876 109.8 322.486C98.3581 320.522 88.5579 324.662 88.6597 343.376C88.7615 362.091 102.932 359.236 113.546 351.88C133.221 348.953 162.077 344.051 166.381 321.637C170.684 299.223 137.463 318.119 137.463 318.119Z" fill="white"/>
<path d="M180.984 322.837C180.984 322.837 180.63 339.441 165.484 365.366C156.166 384.908 158.155 390.65 172.92 399.493C187.707 408.336 196.404 393.019 190.56 383.045C194.094 373.753 214.99 330.715 214.99 330.715" fill="white"/>
<path d="M20.9724 262.472C20.9724 262.472 54.1767 256.821 67.1979 276.143C67.1979 276.143 99.1741 277.89 113.423 289.815C113.423 289.815 133.38 284.306 142.47 292.076C142.47 292.076 163.233 315.424 184.676 313.638C206.119 311.853 219.064 300.474 219.064 300.474C219.064 300.474 231.627 276.784 227.303 238.163C227.303 238.163 279.481 221.227 286.201 197.217C292.921 173.206 300.414 155.336 280.274 127.58C279.541 123.866 277.906 115.268 277.906 115.268L290.543 112.602C290.543 112.602 289.579 36.5948 192.654 30.6125C164.109 26.4357 91.7338 42.1297 62.4721 103.417C56.0496 139.143 55.2191 149.657 55.3627 202.046C53.829 223.921 45.6325 245.283 20.9724 262.472Z" fill="white"/>
<g filter="url(#filter0_f_224_16509)">
<ellipse cx="253.064" cy="170.072" rx="20.5544" ry="10.8" transform="rotate(-9.58622 253.064 170.072)" fill="#F5B0B0"/>
</g>
<g filter="url(#filter1_f_224_16509)">
<ellipse cx="141.013" cy="187.113" rx="20.5544" ry="10.8" transform="rotate(-9.58622 141.013 187.113)" fill="#F5B0B0"/>
</g>
<path d="M227.258 240.016C227.258 240.016 231.432 273.784 220.318 300.58" stroke="#333333" stroke-width="6" stroke-linecap="round" stroke-linejoin="round"/>
<path d="M173.678 244.011L200.737 262.079L215.952 242.034" stroke="#333333" stroke-width="6" stroke-linecap="round" stroke-linejoin="round"/>
<path d="M168.915 158.854C169.69 164.88 165.446 170.412 159.431 171.188C153.415 171.965 147.892 167.714 147.117 161.688C146.342 155.663 150.586 150.13 156.602 149.354C162.617 148.578 168.14 152.829 168.915 158.854Z" fill="#333333"/>
<path d="M182.571 186.489C182.571 186.489 187.035 214.931 207.092 212.626C223.969 210.696 219.348 179.942 219.348 179.942L182.571 186.489Z" fill="#F29AA0" stroke="#333333" stroke-width="6" stroke-linecap="round" stroke-linejoin="round"/>
<path d="M189.411 381.637C189.411 381.637 191.689 388.023 189.845 393.446C188 398.892 181.626 404.994 172.055 399.255C153.865 388.382 159.79 375.777 165.484 365.321C174.679 348.408 180.184 330.72 180.184 330.72" stroke="#333333" stroke-width="6" stroke-linecap="round" stroke-linejoin="round"/>
<path d="M189.411 381.636C189.411 381.636 206.937 353.406 212.972 333.322" stroke="#333333" stroke-width="6" stroke-linecap="round" stroke-linejoin="round"/>
<path d="M189.866 393.469C189.866 393.469 175.501 395.428 161.897 377.128" stroke="#333333" stroke-width="6" stroke-linecap="round" stroke-linejoin="round"/>
<path d="M113.558 350.873C113.558 350.873 107.911 355.268 102.259 356.254C96.6066 357.218 88.2105 354.535 88.6604 343.353C89.5013 322.134 100.502 320.821 112.195 322.834C126.987 325.386 149.639 313.892 149.639 313.892" stroke="#333333" stroke-width="6" stroke-linecap="round" stroke-linejoin="round"/>
<path d="M113.557 350.873C113.557 350.873 146.552 353.455 160.5 330.399" stroke="#333333" stroke-width="6" stroke-linecap="round" stroke-linejoin="round"/>
<path d="M102.258 356.254C102.258 356.254 93.693 344.533 103.229 323.827" stroke="#333333" stroke-width="6" stroke-linecap="round" stroke-linejoin="round"/>
<path d="M142.47 292.076C142.47 292.076 145.235 293.869 161.428 297.765C177.621 301.66 219.063 300.497 219.063 300.497C219.063 300.497 226.269 319.088 218.953 345.219C218.953 345.219 187.384 343.775 163.377 338.256C133.926 331.483 118.543 320.826 118.543 320.826C118.543 320.826 136.344 308.155 142.469 292.098L142.47 292.076Z" fill="#F3A2AD" stroke="#333333" stroke-width="6" stroke-linecap="round" stroke-linejoin="round"/>
<path d="M180.957 68.1304C180.957 68.1304 201.339 100.579 192.689 127.563" stroke="#333333" stroke-width="6" stroke-linecap="round" stroke-linejoin="round"/>
<path d="M192.149 73.9114C192.149 73.9114 229.047 78.6433 236.08 117.936" stroke="#333333" stroke-width="6" stroke-linecap="round" stroke-linejoin="round"/>
<path d="M82.3643 158.347C83.6222 197.412 96.6181 218.907 112.556 228.999C138.764 245.593 169.866 243.989 195.33 242.045" stroke="#333333" stroke-width="6" stroke-linecap="round" stroke-linejoin="round"/>
<path d="M211.226 239.989C275.283 230.603 291.507 196.501 292.898 173.183C294.289 149.865 283.111 133.035 280.274 127.58C279.843 123.388 276.94 107.959 272.226 98.9132" stroke="#333333" stroke-width="6" stroke-linecap="round" stroke-linejoin="round"/>
<path d="M116.669 48.3004C116.669 48.3004 157.002 22.784 210.372 32.9013C263.742 43.0186 286.07 75.032 290.711 113.816" stroke="#333333" stroke-width="6" stroke-linecap="round" stroke-linejoin="round"/>
<path d="M80.1697 78.1391C80.1697 78.1391 51.5744 90.0439 56.1343 169.158C60.1218 238.589 32.0706 256.723 8.20592 270.33" stroke="#333333" stroke-width="6" stroke-linecap="round" stroke-linejoin="round"/>
<path d="M148.759 97.2417C148.759 97.2417 149.306 146.387 80.4473 158.21" stroke="#333333" stroke-width="6" stroke-linecap="round" stroke-linejoin="round"/>
<path d="M94.6167 65.177C94.6167 65.177 101.324 44.2548 117.111 41.8085C132.898 39.3621 136.022 57.4253 125.252 68.2801C125.252 68.2801 145.255 60.8045 144.616 78.3433C143.939 97.2999 120.654 96.4102 120.654 96.4102C120.654 96.4102 127.538 113.213 110.553 124.453C93.5668 135.716 89.9308 110.623 89.9308 110.623C89.9308 110.623 82.9633 126.464 72.936 118.729C62.9087 110.994 63.9934 96.2971 75.3961 91.8322C75.3961 91.8322 60.6269 87.2902 68.8703 69.7488C75.0527 56.5985 89.6033 50.5004 94.6395 65.1773L94.6167 65.177Z" fill="#F5B1B1" stroke="#333333" stroke-width="6" stroke-linecap="round" stroke-linejoin="round"/>
<path d="M86.7117 98.7813C91.8909 103.143 100.799 101.073 106.612 94.1411C112.425 87.2089 112.943 78.0643 107.741 73.7028C102.562 69.3415 93.6536 71.4107 87.8404 78.3429C82.0273 85.2752 81.5097 94.4197 86.7117 98.7813Z" fill="white"/>
<path d="M142.47 292.076C142.465 270.961 139.402 249.581 139.402 249.581" stroke="#333333" stroke-width="6" stroke-linecap="round" stroke-linejoin="round"/>
<path d="M148.973 267.079C105.198 292.052 81.6155 248.105 81.6155 248.105C81.6155 248.105 58.1257 247.167 63.3803 223.483C67.6956 203.974 89.5457 204.504 96.5578 210.328C103.57 216.152 108.164 227.644 102.983 237.168C102.983 237.168 106.166 250.131 132.903 242.848" fill="white"/>
<path d="M149.417 266.283C149.417 266.283 140.982 270.806 138.286 270.934C135.664 266.626 125.722 243.77 125.722 243.77L139.907 243.547C139.907 243.547 142.242 246.983 146.044 253.868C149.847 260.752 149.417 266.283 149.417 266.283Z" fill="white"/>
<path d="M148.973 267.079C105.198 292.052 81.6155 248.105 81.6155 248.105C81.6155 248.105 58.1257 247.167 63.3803 223.483C67.6956 203.974 89.5457 204.504 96.5578 210.328C103.57 216.152 108.164 227.644 102.983 237.168C102.983 237.168 108.559 254.505 136.114 241.673" stroke="#333333" stroke-width="6" stroke-linecap="round" stroke-linejoin="round"/>
<path d="M126.434 245.358L137.794 270.082" stroke="#333333" stroke-width="6" stroke-linecap="round" stroke-linejoin="round"/>
<path d="M237.545 139.25L223.802 156.384L243.232 152.974" stroke="#333333" stroke-width="6" stroke-linecap="round" stroke-linejoin="round"/>
<path d="M84.5467 257.175C84.5467 257.175 76.0641 273.685 65.1299 283.028" stroke="#333333" stroke-width="6" stroke-linecap="round" stroke-linejoin="round"/>
<path d="M119.385 276.021C119.385 276.021 117.311 285.445 113.424 289.792" stroke="#333333" stroke-width="6" stroke-linecap="round" stroke-linejoin="round"/>
<path d="M439.919 268.443C388.755 261.142 355.475 237.968 355.475 237.968C355.475 237.968 342.677 234.776 336.511 222.945C326.398 201.003 333.744 184.069 347.763 182.448C361.782 180.805 363.109 198.252 363.109 198.252C363.109 198.252 364.935 194.385 368.891 193.95C372.87 193.517 376.294 199.55 376.491 204.242C376.736 210.605 377.455 221.479 377.455 221.479C377.455 221.479 391.911 231.302 441.823 236.346" fill="white"/>
<path d="M439.919 268.443C388.755 261.142 355.475 237.968 355.475 237.968C355.475 237.968 342.677 234.776 336.511 222.945C326.398 201.003 333.744 184.069 347.763 182.448C361.782 180.805 363.109 198.252 363.109 198.252C363.109 198.252 364.935 194.385 368.891 193.95C372.87 193.517 376.294 199.55 376.491 204.242C376.736 210.605 377.455 221.479 377.455 221.479C377.455 221.479 391.911 231.302 441.823 236.346" stroke="#333333" stroke-width="6" stroke-linecap="round" stroke-linejoin="round"/>
<path d="M426.998 234.549C426.998 234.549 424.074 246.365 429.19 264.017" stroke="#333333" stroke-width="6" stroke-linecap="round" stroke-linejoin="round"/>
<path d="M533.958 243.691C580.778 245.473 591.437 285.243 591.437 285.243C591.437 285.243 612.448 287.295 606.966 308.895C602.465 326.686 582.059 325.739 575.637 320.242C569.215 314.745 564.395 305.012 569.803 295.628C569.803 295.628 565.357 279.242 535.679 270.385" fill="white"/>
<path d="M533.958 243.691C580.779 245.473 591.438 285.243 591.438 285.243C591.438 285.243 612.448 287.295 606.967 308.895C602.466 326.686 582.06 325.739 575.638 320.242C569.215 314.745 564.396 305.012 569.804 295.627C569.804 295.627 559.23 272.033 538.615 271.311C531.27 270.608 527.623 271.915 527.623 271.915" stroke="#333333" stroke-width="6" stroke-linecap="round" stroke-linejoin="round"/>
<path d="M547.501 273.154C547.501 273.154 556.478 269.073 559.38 249.341" stroke="#333333" stroke-width="6" stroke-linecap="round" stroke-linejoin="round"/>
<path d="M493.003 373.562C493.003 373.562 503.347 379.631 499.523 388.325C495.699 397.019 494.45 404.234 480.629 408.51C472.701 412.673 460.7 409.719 466.117 393.654C471.534 377.589 493.026 373.563 493.026 373.563L493.003 373.562Z" fill="white"/>
<path d="M544.382 331.109C544.382 331.109 546.617 321.641 556.981 325.903C567.346 330.142 569.374 344.326 563.815 354.853C558.28 365.38 543.247 361.933 536.721 351.608C530.173 341.283 544.382 331.109 544.382 331.109Z" fill="white"/>
<path d="M531.739 302.846L441.682 311.15C441.682 311.15 440.812 372.106 465.02 389.843C464.347 398.574 477.487 394.015 477.487 394.015C477.487 394.015 496.673 380.102 492.979 375.666C489.218 371.116 480.412 354.633 481.734 333.259C488.49 333.659 498.784 332.246 498.784 332.246C498.784 332.246 504.147 350.175 521.242 355.065C528.482 358.947 544.308 353.138 547.561 352.307C550.814 351.453 556.842 333.931 549.912 324.997C544.732 326.561 536.065 329.525 534.083 323.211C532.124 316.874 531.693 302.868 531.693 302.868L531.739 302.846Z" fill="#8FBDE2"/>
<path d="M442.219 308.183C442.219 308.183 438.712 366.156 464.964 390.758C464.964 390.758 461.73 403.668 469.397 408.196C477.063 412.746 494.876 405.016 499.285 389.192C502.24 378.634 493.136 375.966 493.136 375.966C493.136 375.966 478.571 355.824 481.82 335.663" stroke="#333333" stroke-width="6" stroke-linecap="round" stroke-linejoin="round"/>
<path d="M544.09 352.289C544.09 352.289 528.465 360.457 514.81 352.382C501.133 344.307 498.807 332.224 498.807 332.224C498.807 332.224 483.544 334.768 474.618 334.412" stroke="#333333" stroke-width="6" stroke-linecap="round" stroke-linejoin="round"/>
<path d="M531.922 300.95C531.922 300.95 529.648 317.715 535.406 325.308C537.116 327.547 544.756 326.538 544.756 326.538C544.756 326.538 556.636 320.272 563.011 331.807C569.385 343.343 567.003 357.659 555.706 360.889C544.41 364.12 539.563 354.707 539.563 354.707" stroke="#333333" stroke-width="6" stroke-linecap="round" stroke-linejoin="round"/>
<path d="M493.136 375.966C493.136 375.966 486.046 396.381 465.306 394.72" stroke="#333333" stroke-width="6" stroke-linecap="round" stroke-linejoin="round"/>
<path d="M549.525 326.8C549.525 326.8 561.715 346.936 541.441 356.17" stroke="#333333" stroke-width="6" stroke-linecap="round" stroke-linejoin="round"/>
<path d="M533.137 241.645C533.137 241.645 534.718 296.087 546.497 308.372C546.497 308.372 478.861 328.971 432.705 323.033C428.058 292.553 437.556 257.548 437.556 257.548C437.556 257.548 440.99 241.117 443.507 238.791C452.235 240.402 511.811 247.092 527.284 240.25C542.756 233.408 533.137 241.668 533.137 241.668L533.137 241.645Z" fill="white"/>
<path d="M437.534 257.525C437.534 257.525 428.036 292.53 432.683 323.01C478.861 328.971 546.475 308.348 546.475 308.348C537.144 297.693 535.34 258.439 535.34 258.439" stroke="#333333" stroke-width="6" stroke-linecap="round" stroke-linejoin="round"/>
<path d="M504.227 243.321C504.227 243.321 493.244 256.827 476.516 253.794C455.549 250.004 457.458 240.967 457.458 240.967" stroke="#333333" stroke-width="6" stroke-linecap="round" stroke-linejoin="round"/>
<path d="M406.346 113.589C406.346 113.589 387.077 109.108 401.821 70.711C416.134 39.9036 467.414 13.6916 537.861 30.1851C560.881 36.1732 568.418 47.8825 568.418 47.8825C568.418 47.8825 586.974 46.9783 607.787 71.7908C628.578 96.6031 632.713 131.812 608.882 169.966C605.008 192.752 599.105 221.187 568.603 237.965C538.101 254.743 500.67 246.825 489.219 245.639C477.767 244.453 442.094 240.513 412.378 217.244C398.901 203.726 380.103 188.202 389.857 150.776C395.36 133.203 405.365 123.3 405.365 123.3L406.323 113.588L406.346 113.589Z" fill="white"/>
<g filter="url(#filter2_f_224_16509)">
<ellipse cx="535.209" cy="186.451" rx="20.5544" ry="10.8" transform="rotate(10.7715 535.209 186.451)" fill="#F5B0B0"/>
</g>
<g filter="url(#filter3_f_224_16509)">
<ellipse cx="428.209" cy="159.451" rx="20.5544" ry="10.8" transform="rotate(10.7715 428.209 159.451)" fill="#F5B0B0"/>
</g>
<path d="M409.19 102.664C405.935 109.557 405.956 119.555 405.41 123.323C402.169 128.981 386.399 145.703 386.819 170.391C387.24 195.08 404.339 219.186 444.847 235.512C444.847 235.512 468.868 243.754 477.789 244.499" stroke="#333333" stroke-width="6" stroke-linecap="round" stroke-linejoin="round"/>
<path d="M495.283 246.488C523.456 251.209 550.069 248.729 572.681 234.833C591.474 223.294 606.488 206.861 609.071 167.452" stroke="#333333" stroke-width="6" stroke-linecap="round" stroke-linejoin="round"/>
<path d="M443.089 139.365C441.988 145.689 446.234 151.732 452.548 152.813C458.861 153.916 464.894 149.663 465.973 143.338C467.051 137.014 462.828 130.971 456.514 129.891C450.201 128.788 444.168 133.041 443.089 139.365Z" fill="#333333"/>
<path d="M610.986 167.772C657.055 73.3047 570.234 46.8974 570.234 46.8974C515.527 4.48579 440.242 36.7083 440.242 36.7083C440.242 36.7083 385.403 58.6466 398.532 107.939" stroke="#333333" stroke-width="6" stroke-linecap="round" stroke-linejoin="round"/>
<path d="M556.448 77.5278C556.448 77.5278 555.292 110.09 500.955 118.309" stroke="#333333" stroke-width="6" stroke-linecap="round" stroke-linejoin="round"/>
<path d="M564.565 98.2343C564.565 98.2343 590.812 121.326 591.792 152.884" stroke="#333333" stroke-width="6" stroke-linecap="round" stroke-linejoin="round"/>
<path d="M446.177 109.479C446.177 109.479 483.884 105.458 502.05 75.245" stroke="#333333" stroke-width="6" stroke-linecap="round" stroke-linejoin="round"/>
<path d="M517.543 160.801C517.543 160.801 528.653 150.133 540.45 164.775" stroke="#333333" stroke-width="6" stroke-linecap="round" stroke-linejoin="round"/>
<path d="M459.195 170.322C459.195 170.322 475.594 180.007 495.967 179.902C495.967 179.902 488.977 213.358 467.388 208.095C445.798 202.833 452.341 182.321 459.218 170.322L459.195 170.322Z" fill="#F29AA0" stroke="#333333" stroke-width="6" stroke-linecap="round" stroke-linejoin="round"/>
<path d="M537.515 38.2561C537.515 38.2561 548.679 50.4196 542.62 60.7347C537.961 68.6413 532.164 70.2435 515.052 70.7299C497.964 71.2165 478.957 46.1506 474.246 23.1505C488.873 18.38 515.524 8.62583 537.493 38.233L537.515 38.2561Z" fill="#1AAF92"/>
<path d="M534.158 67.6591C534.158 67.6591 487.848 88.6904 474.052 22.1647C474.052 22.1647 519.692 1.83465 544.783 49.6193" stroke="#333333" stroke-width="6" stroke-linecap="round" stroke-linejoin="round"/>
<path d="M506.16 41.9848C505.927 42.4167 530.253 65.6918 554.289 57.0051" stroke="#333333" stroke-width="6" stroke-linecap="round" stroke-linejoin="round"/>
<path d="M379.784 127.324L358.716 153.752L351.52 150.008L366.09 118.746L379.784 127.324Z" fill="#EA527D"/>
<path d="M302.086 127.446L322.118 154.651L329.467 151.191L316.088 119.397L302.086 127.446Z" fill="#EA527D"/>
<path d="M344.547 146.747L336.688 146.952L330.676 112.155L346.719 111.245L344.547 146.747Z" fill="#EA527D"/>
<defs>
<filter id="filter0_f_224_16509" x="222.514" y="148.681" width="61.101" height="42.7823" filterUnits="userSpaceOnUse" color-interpolation-filters="sRGB">
<feFlood flood-opacity="0" result="BackgroundImageFix"/>
<feBlend mode="normal" in="SourceGraphic" in2="BackgroundImageFix" result="shape"/>
<feGaussianBlur stdDeviation="5.10117" result="effect1_foregroundBlur_224_16509"/>
</filter>
<filter id="filter1_f_224_16509" x="110.463" y="165.722" width="61.101" height="42.7823" filterUnits="userSpaceOnUse" color-interpolation-filters="sRGB">
<feFlood flood-opacity="0" result="BackgroundImageFix"/>
<feBlend mode="normal" in="SourceGraphic" in2="BackgroundImageFix" result="shape"/>
<feGaussianBlur stdDeviation="5.10117" result="effect1_foregroundBlur_224_16509"/>
</filter>
<filter id="filter2_f_224_16509" x="504.713" y="164.962" width="60.9936" height="42.9783" filterUnits="userSpaceOnUse" color-interpolation-filters="sRGB">
<feFlood flood-opacity="0" result="BackgroundImageFix"/>
<feBlend mode="normal" in="SourceGraphic" in2="BackgroundImageFix" result="shape"/>
<feGaussianBlur stdDeviation="5.10117" result="effect1_foregroundBlur_224_16509"/>
</filter>
<filter id="filter3_f_224_16509" x="397.713" y="137.962" width="60.9936" height="42.9783" filterUnits="userSpaceOnUse" color-interpolation-filters="sRGB">
<feFlood flood-opacity="0" result="BackgroundImageFix"/>
<feBlend mode="normal" in="SourceGraphic" in2="BackgroundImageFix" result="shape"/>
<feGaussianBlur stdDeviation="5.10117" result="effect1_foregroundBlur_224_16509"/>
</filter>
</defs>
</svg>
