<svg width="160" height="111" viewBox="0 0 160 111" fill="none" xmlns="http://www.w3.org/2000/svg">
<ellipse cx="80" cy="95.125" rx="60" ry="15.625" fill="#EEEEEE"/>
<path d="M49.1719 23.3538L49.6462 33.67L51.0644 36.6154L50.4762 41.1403L51.1877 45.5277L52.0177 50.5079L55.4565 54.4209L59.7252 57.1482L65.7727 59.7569L68.6185 60.9427L66.1284 65.33L63.6383 71.2589L64.2312 74.3419L65.7727 76.7134V79.3221L65.2984 80.5079L63.2825 81.2194L62.0968 83.7095L61.3853 86.7925L62.0968 88.4526L64.9426 88.9269L67.3142 87.9783L72.8873 89.164L81.662 89.7569L84.2707 88.4526L86.2865 88.9269L91.1482 88.4526L94.1126 85.3696L94.5869 81.8122L94.1126 79.3221L95.8912 76.002L95.2984 73.3933L93.6383 71.6146L92.8082 68.6502L90.081 63.9071L88.1837 61.7727L94.8241 59.7569L103.124 54.8953L106.919 49.4407L107.63 41.496L105.259 35.5672L107.63 29.9941L108.698 24.1838L107.037 18.3735L101.109 11.496L95.0612 8.53162L87.9466 5.80435L80.4762 4.5L74.5474 5.09289L70.8715 5.80435L65.7727 7.82016L64.1126 8.05731L56.4051 11.496L51.5434 16.7134L49.1719 23.3538Z" fill="white"/>
<path d="M94.8471 81.8445C94.8471 81.8445 106.302 85.0178 106.78 86.7519C107.269 88.5215 107.08 89.2706 104.81 91.1581C102.545 93.0456 80.4608 101.758 76.0252 101.109C76.0252 101.109 52.8031 92.2139 50.5204 90.6449C48.798 89.4652 47.7481 87.271 50.5204 85.6253C53.2926 83.9738 62.4765 80.0867 65.5791 79.2314" fill="#BEA18B"/>
<path d="M94.8471 81.8445C94.8471 81.8445 106.302 85.0178 106.78 86.7519C107.269 88.5215 107.08 89.2706 104.81 91.1581C102.545 93.0456 80.4608 101.758 76.0252 101.109C76.0252 101.109 52.8031 92.2139 50.5204 90.6449C48.798 89.4652 47.7481 87.271 50.5204 85.6253C53.2926 83.9738 62.4765 80.0867 65.5791 79.2314" stroke="#7C6B5A" stroke-width="1.5" stroke-linecap="round" stroke-linejoin="round"/>
<path d="M50.5195 88.5215C50.5195 88.5215 72.9395 97.3278 74.8329 97.8351C76.7204 98.3365 78.8615 97.7112 82.141 96.8265" stroke="#7C6B5A" stroke-width="1.5" stroke-linecap="round" stroke-linejoin="round"/>
<path d="M94.2344 92.6387C94.2344 92.6387 103.064 89.1645 105.135 87.395" stroke="#7C6B5A" stroke-width="1.5" stroke-linecap="round" stroke-linejoin="round"/>
<path d="M120.415 65.211C120.415 65.211 126.378 49.415 135.945 47.5157C135.945 47.5157 124.538 44.6963 117.07 65.4705" fill="#85C175"/>
<path d="M120.415 65.211C120.415 65.211 126.378 49.415 135.945 47.5157C135.945 47.5157 124.538 44.6963 117.07 65.4705" stroke="#85C175" stroke-width="1.5" stroke-linecap="round" stroke-linejoin="round"/>
<path d="M115.83 65.4763C115.83 65.4763 111.83 44.3717 101.738 41.623C101.738 41.623 111.176 50.6712 112.686 65.9069" fill="#AFD4A1"/>
<path d="M115.83 65.4763C115.83 65.4763 111.83 44.3717 101.738 41.623C101.738 41.623 111.176 50.6712 112.686 65.9069" stroke="#AFD4A1" stroke-width="1.5" stroke-linecap="round" stroke-linejoin="round"/>
<path d="M114.135 66.4143C114.135 66.4143 108.148 53.7622 103.141 51.8452C103.141 51.8452 109.322 58.7641 110.661 65.4057" fill="#85C175"/>
<path d="M114.135 66.4143C114.135 66.4143 108.148 53.7622 103.141 51.8452C103.141 51.8452 109.322 58.7641 110.661 65.4057" stroke="#85C175" stroke-width="1.5" stroke-linecap="round" stroke-linejoin="round"/>
<path d="M115.5 65.1461C115.5 66.8507 116.55 43.782 121.528 38.1431C121.528 38.1431 118.319 58.5044 118.514 66.4142" fill="#AFD4A1"/>
<path d="M115.5 65.1461C115.5 66.8507 116.55 43.782 121.528 38.1431C121.528 38.1431 118.319 58.5045 118.514 66.4142" stroke="#AFD4A1" stroke-width="1.5" stroke-linecap="round" stroke-linejoin="round"/>
<path d="M113.859 65.8482C114.136 53.1135 112.414 43.1274 112.414 43.1274C114.968 46.4719 116.325 54.5173 116.325 54.5173C116.325 54.5173 117.198 61.2002 117.062 65.9072" fill="#85C175"/>
<path d="M113.859 65.8482C114.136 53.1135 112.414 43.1274 112.414 43.1274C114.968 46.4719 116.325 54.5173 116.325 54.5173C116.325 54.5173 117.198 61.2002 117.062 65.9072" stroke="#85C175" stroke-width="1.5" stroke-linecap="round" stroke-linejoin="round"/>
<path d="M124.124 65.6831H106.871L109.814 85.6257H121.181L124.124 65.6831Z" fill="#D2C0AE"/>
<path opacity="0.5" d="M123.027 73.1147H108.109" stroke="white" stroke-width="1.5" stroke-linecap="round" stroke-linejoin="round"/>
<path opacity="0.5" d="M122.124 79.2314H109.023" stroke="white" stroke-width="1.5" stroke-linecap="round" stroke-linejoin="round"/>
<path d="M124.124 65.6831H106.871L109.814 85.6257H121.181L124.124 65.6831Z" stroke="#D2C0AE" stroke-width="1.5" stroke-linecap="round" stroke-linejoin="round"/>
<path d="M66.3277 80.7828C66.3277 80.7828 64.2515 79.898 63.1839 81.756C62.1104 83.614 59.7333 87.3537 63.1839 88.5156C65.3132 88.8872 66.3926 88.0733 66.3926 88.0733C66.3926 88.0733 66.1626 84.5047 67.3187 82.4816" fill="white"/>
<path d="M104.191 21.9875C104.191 21.9875 105.672 30.0624 105.188 34.0321C106.167 37.3942 112.679 49.1143 99.0182 57.8499C92.406 60.4983 79.6949 64.2202 65.3499 60.0205C58.1892 56.7056 50.2971 54.7297 50.5213 42.5199C49.9786 39.4114 53.0517 30.8292 53.0517 30.8292C53.0517 30.8292 75.3537 4.17421 104.185 21.9875H104.191Z" fill="white"/>
<path d="M88.1073 77.9105C89.9595 81.3493 92.3896 80.0575 93.8288 79.1255C95.4804 82.2458 94.2594 85.0535 92.9382 87.0059C91.6228 88.9582 87.6886 89.1352 84.7688 88.4569C80.8877 91.5712 70.6067 88.9759 69.3208 88.4569C68.035 87.9378 67.1266 88.4097 66.4896 88.6279C65.7346 84.7055 66.8199 83.7381 67.7106 82.5584C65.186 79.7154 65.9587 78.7775 66.2006 77.126C69.427 78.9427 74.6471 78.8601 74.6471 78.8601C78.5755 81.3964 80.752 80.7004 81.7606 79.4146L82.5215 78.3175L88.1073 77.9164V77.9105Z" fill="#8EBDE2"/>
<g filter="url(#filter0_f_574_20268)">
<ellipse cx="100" cy="46.3369" rx="5" ry="2.75" fill="#F5B0B0"/>
</g>
<g filter="url(#filter1_f_574_20268)">
<ellipse cx="70.5" cy="46.3369" rx="5" ry="2.75" fill="#F5B0B0"/>
</g>
<path d="M93.3733 48.3003C93.3733 48.3003 90.9137 51.3144 86.4957 51.3144C82.0778 51.3144 79.7656 48.3003 79.7656 48.3003" stroke="#7C6656" stroke-width="1.5" stroke-linecap="round" stroke-linejoin="round"/>
<path d="M78.8461 41.4405C78.1678 42.1896 77.0176 42.6261 75.7671 42.4963C74.4459 42.3606 73.3606 41.641 72.8828 40.6973" stroke="#7C6656" stroke-width="1.5" stroke-linecap="round" stroke-linejoin="round"/>
<path d="M99.0104 40.8916C98.4914 41.7587 97.4473 42.4075 96.191 42.5255C94.8697 42.6493 93.6664 42.1539 93.0117 41.3222" stroke="#7C6656" stroke-width="1.5" stroke-linecap="round" stroke-linejoin="round"/>
<path d="M68.7761 61.4595C68.7761 61.4595 63.8686 66.8683 63.727 71.5635C63.5855 76.2586 66.8709 78.8539 74.645 78.8539C74.645 78.8539 80.1483 83.2955 82.6492 78.0518C84.8729 73.4038 80.8325 70.0122 75.8778 72.5662C75.8778 72.5662 69.7611 72.4424 70.4925 70.3956L71.2239 68.3488" stroke="#7C6656" stroke-width="1.5" stroke-linecap="round" stroke-linejoin="round"/>
<path d="M85.2617 88.6455C91.4197 89.8311 94.9823 86.4631 94.6756 82.2104C94.4279 78.7952 90.8062 77.2026 90.8062 77.2026C90.8062 77.2026 91.2486 75.321 90.8534 72.1712C90.24 67.2519 88.0989 62.1675 88.0989 62.1675" stroke="#7C6656" stroke-width="1.5" stroke-linecap="round" stroke-linejoin="round"/>
<path d="M83.2763 80.1694C83.3825 80.2579 85.9188 81.1781 85.9188 84.5402C85.9188 87.9023 84.9161 89.6954 80.2386 89.8252C75.5611 89.9549 67.8283 88.1205 67.8283 88.1205C67.8283 88.1205 63.3691 90.1732 61.9712 87.9436C60.5732 85.714 62.3192 80.0869 65.5102 80.6059" stroke="#7C6656" stroke-width="1.5" stroke-linecap="round" stroke-linejoin="round"/>
<path d="M66.129 77.5034C66.129 77.5034 64.6898 82.3106 70.2343 83.7086" stroke="#7C6656" stroke-width="1.5" stroke-linecap="round" stroke-linejoin="round"/>
<path d="M94.0031 71.8585C89.9155 68.9683 85.7571 74.2887 88.4999 78.0165C91.1247 81.5733 94.941 78.919 95.6783 77.1848C96.4156 75.4507 95.9732 73.2506 94.0031 71.8585Z" fill="white" stroke="#7C6656" stroke-width="1.5" stroke-linecap="round" stroke-linejoin="round"/>
<path d="M88.1055 62.1675C88.1055 62.1675 92.2226 65.3762 93.3787 71.1095" stroke="#7C6656" stroke-width="1.5" stroke-linecap="round" stroke-linejoin="round"/>
<path d="M86.8732 62.1675C86.8732 62.1675 86.4898 64.0727 83.0628 64.5328C79.6358 64.9928 76.3562 63.8426 75.0586 62.1675" stroke="#7C6656" stroke-width="1.5" stroke-linecap="round" stroke-linejoin="round"/>
<path d="M65.8789 66.2495C65.8789 66.2495 66.7932 68.6502 70.7156 68.6502" stroke="#7C6656" stroke-width="1.5" stroke-linecap="round" stroke-linejoin="round"/>
<path d="M67.3192 82.9185C67.3192 82.9185 65.3373 85.5256 66.3282 88.1976" stroke="#7C6656" stroke-width="1.5" stroke-linecap="round" stroke-linejoin="round"/>
<path d="M104.727 28.9536C105.252 30.8529 104.81 33.3892 104.786 34.3684C105.358 35.9492 108.644 40.892 107.446 47.1444C106.255 53.3967 100.84 58.7702 89.8159 61.1355C89.8159 61.1355 83.3395 62.1736 81.0391 61.9671" stroke="#7C6656" stroke-width="1.5" stroke-linecap="round" stroke-linejoin="round"/>
<path d="M76.4939 61.7076C69.115 61.6664 61.0754 59.5075 55.9261 54.9834C51.6497 51.2261 49.9333 46.7433 51.0068 36.6157" stroke="#7C6656" stroke-width="1.5" stroke-linecap="round" stroke-linejoin="round"/>
<path d="M50.5027 36.6155C42.9232 10.5857 66.1866 7.6955 66.1866 7.6955C81.9767 -0.674372 99.7192 10.8335 99.7192 10.8335C99.7192 10.8335 112.708 18.8199 107.204 30.7643" stroke="#7C6656" stroke-width="1.5" stroke-linecap="round" stroke-linejoin="round"/>
<path d="M68.3282 15.4165C68.3282 15.4165 67.1957 23.7392 80.6618 28.222" stroke="#7C6656" stroke-width="1.5" stroke-linecap="round" stroke-linejoin="round"/>
<path d="M65.3469 20.3242C65.3469 20.3242 57.6554 25.0371 56.0156 33.0117" stroke="#7C6656" stroke-width="1.5" stroke-linecap="round" stroke-linejoin="round"/>
<path d="M94.9885 28.3874C94.9885 28.3874 85.5687 25.7036 82.2773 17.2275" stroke="#7C6656" stroke-width="1.5" stroke-linecap="round" stroke-linejoin="round"/>
<path d="M81.0644 13.8773C93.4393 7.50697 100.087 18.5665 100.087 18.5665C87.3285 30.5698 80.6397 19.2625 80.6397 19.2625C80.6397 19.2625 79.5485 18.4839 79.8493 16.1305C80.0086 14.8918 81.0585 13.8773 81.0585 13.8773H81.0644Z" fill="#1AAF92"/>
<path d="M80.6445 19.2625C80.6445 19.2625 87.3334 30.5698 100.092 18.5665C100.092 18.5665 93.4441 7.50697 81.0692 13.8773" stroke="#7C6656" stroke-width="1.5" stroke-linecap="round" stroke-linejoin="round"/>
<path d="M90.3653 17.9945C90.3535 18.1243 81.7595 19.4278 77.9609 14.0308" stroke="#7C6656" stroke-width="1.5" stroke-linecap="round" stroke-linejoin="round"/>
<path d="M88.1053 77.9106C87.5509 78.3117 83.8113 78.2704 82.5195 78.3117" stroke="#7C6656" stroke-width="1.5" stroke-linecap="round" stroke-linejoin="round"/>
<path d="M36.4378 90.8481L34.7422 93.0655V97.5003L37.8726 100.109L42.3074 100.892L47.3944 100.109C48.2639 99.109 50.0552 97.0829 50.2639 96.9785C50.5248 96.8481 50.7857 94.5003 50.7857 94.2394C50.7857 93.9785 50.1335 91.6307 50.0031 91.3698C49.8987 91.1611 48.5683 90.5003 47.9161 90.1959L45.5683 84.8481L44.1335 84.5872L42.3074 88.6307L40.8726 86.2829L37.09 83.9351V86.8046L36.4378 90.8481Z" fill="white"/>
<path d="M59.3021 85.0002C59.3021 85.0002 59.4023 83.968 60.3343 83.5079C61.2662 83.0478 61.6496 81.3255 60.1927 82.0097C58.7358 82.6939 58.1991 82.11 57.6328 84.3337" fill="white"/>
<path d="M57.6963 83.9917L59.0116 84.3279C59.0116 84.3279 59.631 85.1596 59.3655 86.7994C59.1001 88.4392 59.1001 88.9464 57.0711 90.014C56.7348 89.8194 55.4844 88.9995 55.4844 88.9995C55.4844 88.9995 57.0946 88.6987 57.7553 87.867C58.4867 86.9528 58.0797 85.7731 57.6963 83.9858V83.9917Z" fill="#E1B995"/>
<path d="M55.7109 88.8639C55.8407 88.5454 56.1474 88.3212 56.5131 88.3153C56.5367 88.3153 57.044 88.2859 57.3448 87.9555C57.5453 87.7314 57.6338 87.3834 57.6043 86.9174C57.4805 84.9709 57.3094 82.3107 59.9932 81.774C60.4828 81.6855 60.9369 81.9922 61.0313 82.47C61.1257 82.9478 60.8131 83.4137 60.3353 83.5081C59.4623 83.6792 59.2028 84.1805 59.368 86.7994C59.4446 88.0145 59.0082 88.7518 58.6307 89.1588C58.1293 89.6956 57.51 89.9197 57.0735 90.0141" stroke="#7C6656" stroke-width="1.5" stroke-linecap="round" stroke-linejoin="round"/>
<path d="M48.4436 88.6104C49.1279 88.2565 50.3311 87.8318 52.0594 87.9085C54.9496 88.0265 58.2055 90.374 58.7482 93.105C59.2908 95.836 58.8072 97.9653 54.5898 98.39C50.3724 98.8088 50.107 98.272 48.4023 99.5284" fill="#E1B995"/>
<path d="M48.4436 88.6104C49.1279 88.2565 50.3311 87.8318 52.0594 87.9085C54.9496 88.0265 58.2055 90.374 58.7482 93.105C59.2908 95.836 58.8072 97.9653 54.5898 98.39C50.3724 98.8088 50.107 98.272 48.4023 99.5284" stroke="#7C6656" stroke-width="1.5" stroke-linecap="round" stroke-linejoin="round"/>
<path d="M34.5039 94.8034C34.5039 94.8034 36.4504 96.9741 38.3084 96.3193C40.1664 95.6646 41.5407 91.9368 43.8942 91.5357C46.2477 91.1346 46.6193 94.2136 48.8371 94.367C51.0608 94.5203 51.9102 93.7594 51.2024 92.3379C50.4946 90.9164 48.8194 89.4359 48.8194 89.4359C48.8194 89.4359 44.8675 83.213 44.1537 83.2838C43.3457 84.9059 42.2426 88.9109 42.2426 88.9109C42.2426 88.9109 38.9218 83.3015 37.0579 83.6318C36.9223 85.1949 36.7866 89.9313 36.7866 89.9313C36.7866 89.9313 34.8696 90.3088 34.5039 94.8034Z" fill="#E1B995"/>
<path d="M42.5316 88.1913C42.5316 88.1913 43.4517 83.5492 44.1536 83.2838C44.8555 83.0184 48.4654 88.1913 48.8193 89.4358C48.8193 89.4358 52.4173 91.8896 51.8334 94.4141C51.2494 96.9386 49.4386 99.7758 45.3687 100.607C41.3047 101.445 35.9666 100.159 34.7633 96.3724C33.5659 92.5856 36.7806 89.9372 36.7806 89.9372C36.7806 89.9372 36.8809 84.0742 37.0519 83.6377C37.2289 83.2012 41.8178 86.7815 42.2366 88.9168" stroke="#7C6656" stroke-width="1.5" stroke-linecap="round" stroke-linejoin="round"/>
<path d="M39.3711 87.6074C39.3711 87.6074 39.9845 89.4595 39.9845 89.6778C39.9845 89.8901 40.9932 89.7014 40.9932 89.7014" stroke="#7C6656" stroke-width="1.5" stroke-linecap="round" stroke-linejoin="round"/>
<path d="M45.0923 87.1826L45.0156 89.1822L46.3605 89.2117" stroke="#7C6656" stroke-width="1.5" stroke-linecap="round" stroke-linejoin="round"/>
<path d="M43.8008 94.9335L45.063 95.4349L45.7473 94.5737" stroke="#7C6656" stroke-width="1.5" stroke-linecap="round" stroke-linejoin="round"/>
<path d="M41.9124 93.7124C41.9124 93.7124 40.0013 94.8331 37.7422 93.7124" stroke="#7C6656" stroke-width="1.5" stroke-linecap="round" stroke-linejoin="round"/>
<path d="M49.1552 92.061C49.1552 92.061 48.5536 93.1346 46.3594 93.2702" stroke="#7C6656" stroke-width="1.5" stroke-linecap="round" stroke-linejoin="round"/>
<defs>
<filter id="filter0_f_574_20268" x="93.9373" y="42.5242" width="12.1255" height="7.62549" filterUnits="userSpaceOnUse" color-interpolation-filters="sRGB">
<feFlood flood-opacity="0" result="BackgroundImageFix"/>
<feBlend mode="normal" in="SourceGraphic" in2="BackgroundImageFix" result="shape"/>
<feGaussianBlur stdDeviation="0.531372" result="effect1_foregroundBlur_574_20268"/>
</filter>
<filter id="filter1_f_574_20268" x="64.4373" y="42.5242" width="12.1255" height="7.62549" filterUnits="userSpaceOnUse" color-interpolation-filters="sRGB">
<feFlood flood-opacity="0" result="BackgroundImageFix"/>
<feBlend mode="normal" in="SourceGraphic" in2="BackgroundImageFix" result="shape"/>
<feGaussianBlur stdDeviation="0.531372" result="effect1_foregroundBlur_574_20268"/>
</filter>
</defs>
</svg>
