<svg width="160" height="120" viewBox="0 0 160 120" fill="none" xmlns="http://www.w3.org/2000/svg">
<ellipse opacity="0.4" cx="75" cy="112" rx="55" ry="8" fill="#E1D6CF"/>
<path d="M55.1416 78.8616C63.1931 88.1154 73.037 83.7654 73.037 83.7654C73.037 83.7654 77.1975 88.2975 81.0302 83.2553C84.1925 79.1021 80.389 74.825 78.0428 74.4097C75.6965 73.9943 72.629 75.0144 71.6016 77.6521C71.6016 77.6521 67.5358 79.4373 60.8614 74.8323" fill="white"/>
<path d="M55.1416 78.8617C63.1931 88.1154 73.037 83.7655 73.037 83.7655C73.037 83.7655 77.1975 88.2976 81.0302 83.2554C84.1925 79.1022 80.389 74.825 78.0428 74.4097C75.6965 73.9944 72.629 75.0145 71.6016 77.6522C71.6016 77.6522 64.7888 79.8017 61.0072 72.0198" stroke="#7C6656" stroke-width="1.99624" stroke-linecap="round" stroke-linejoin="round"/>
<path d="M62.8503 76.4136C62.8503 76.4136 61.5388 77.6741 58.0049 81.5068" stroke="#7C6656" stroke-width="1.99624" stroke-linecap="round" stroke-linejoin="round"/>
<path d="M30.3907 106.783C29.8297 106.783 29.3779 106.171 29.3779 105.421V92.0063H31.4036V105.421C31.4036 106.171 30.9518 106.783 30.3907 106.783Z" fill="#A08A60" stroke="#A08A60" stroke-width="1.99624" stroke-linecap="round" stroke-linejoin="round"/>
<path d="M39.6368 110.849C39.0758 110.849 38.624 110.237 38.624 109.486V96.072H40.6496V109.486C40.6496 110.237 40.1979 110.849 39.6368 110.849Z" fill="#A08A60" stroke="#A08A60" stroke-width="1.99624" stroke-linecap="round" stroke-linejoin="round"/>
<path d="M38.471 73.1709L28.9258 73.9578V93.806L40.8609 100.466L59.74 95.9773L47.3239 88.0279" fill="#C3A875"/>
<path d="M38.471 73.1709L28.9258 73.9578V93.806L40.8609 100.466L59.74 95.9773L47.3239 88.0279" stroke="#C3A875" stroke-width="1.99624" stroke-linecap="round" stroke-linejoin="round"/>
<path d="M9 34.0444L9.99812 39.534L18.9812 36.5397L46.9286 26.0594L75.8741 11.0876L70.8835 8.09325L68.8872 6.59607L60.4032 4.10077L51.4201 1.60547L39.9417 2.60359L31.4577 5.59795L26.9662 8.09325L20.4784 11.0876L13.9906 17.0763L9.99812 24.0632L9 34.0444Z" fill="white"/>
<path d="M61.9547 89.3616C61.9547 89.3616 59.2952 86.8988 50.6317 90.8844C45.7498 91.7151 33.3702 93.0048 33.29 92.0138C35.9277 96.1671 41.2031 98.1854 41.8588 98.5279C41.4071 102.426 40.4526 108.262 40.4526 108.262C40.4526 108.262 42.296 110.164 46.1797 109.917C50.0633 109.669 50.3694 108.197 50.3694 108.197C50.3694 108.197 54.9525 98.8995 52.7885 94.892C52.7885 94.892 55.4261 95.249 55.3387 99.2711L55.754 108.241C55.754 108.241 63.2372 108.904 65.0223 105.778C65.1899 101.231 67.0407 93.1359 61.9547 89.3689V89.3616Z" fill="#8EBDE2"/>
<path d="M35.2651 71.6919L33.7276 83.882C33.7276 83.882 29.2465 94.4546 40.9849 98.0177" stroke="#7C6656" stroke-width="1.99624" stroke-linecap="round" stroke-linejoin="round"/>
<path d="M35.2503 71.6919C35.2503 71.6919 32.4814 82.4685 32.4814 92.0137C32.4814 92.0137 45.3201 93.2524 52.2932 89.9006C57.758 87.2702 63.1426 88.9534 63.1426 88.9534C63.1426 88.9534 60.8256 84.4577 60.5851 71.6992" fill="white"/>
<path d="M35.2503 71.6919C35.2503 71.6919 32.4814 82.4685 32.4814 92.0137C32.4814 92.0137 45.3201 93.2524 52.2932 89.9006C57.758 87.2702 63.1426 88.9534 63.1426 88.9534C63.1426 88.9534 61.2409 82.7672 60.5851 71.6992" stroke="#7C6656" stroke-width="1.99624" stroke-linecap="round" stroke-linejoin="round"/>
<path d="M52.4677 92.0063C52.4677 92.0063 56.3586 95.0521 50.3765 108.189C50.3765 108.189 52.679 109.887 50.4348 112.27C48.0448 114.813 42.8569 113.108 41.8368 112.19C40.4378 110.936 40.3285 110.361 40.5107 107.388C40.5107 107.388 40.6637 105.508 41.6328 101.501C42.6019 97.5003 40.6564 94.593 40.6564 94.593" stroke="#7C6656" stroke-width="1.99624" stroke-linecap="round" stroke-linejoin="round"/>
<path d="M57.6117 72.0271C57.6117 72.0271 56.8685 75.765 51.2216 76.1293C45.5673 76.4937 43.6729 72.6392 43.6729 72.6392" stroke="#7C6656" stroke-width="1.99624" stroke-linecap="round" stroke-linejoin="round"/>
<path d="M61.9549 89.3613C61.9549 89.3613 65.7875 91.6347 65.3139 99.1688C64.9714 104.561 65.0297 106.215 65.0297 106.215C65.0297 106.215 66.6473 107.184 66.5744 109.209C66.5016 111.235 62.9604 113.232 58.778 111.825C54.5956 110.419 55.878 108.08 55.7614 105.814C55.6448 103.548 56.7232 98.0176 53.4443 93.9008" stroke="#7C6656" stroke-width="1.99624" stroke-linecap="round" stroke-linejoin="round"/>
<path d="M55.7617 108.241C60.7383 110.186 65.4089 106.506 65.4089 106.506" stroke="#7C6656" stroke-width="1.99624" stroke-linecap="round" stroke-linejoin="round"/>
<path d="M50.3768 108.197C50.3768 108.197 46.1725 111.556 40.7441 108.882" stroke="#7C6656" stroke-width="1.99624" stroke-linecap="round" stroke-linejoin="round"/>
<path d="M112.916 64.4512C112.916 64.4512 107.808 50.4977 118.804 43.7578C129.799 37.0252 147.818 41.2804 150.704 24.376" stroke="#7D7369" stroke-linecap="round" stroke-linejoin="round"/>
<path d="M115.525 64.83C115.525 64.83 112.946 54.0388 121.289 49.4921C131.927 43.6921 137.668 52.3047 150.281 47.0293" stroke="#7D7369" stroke-linecap="round" stroke-linejoin="round"/>
<path d="M116.406 52.2391C116.406 53.0333 115.474 53.6818 114.33 53.6818C113.186 53.6818 112.253 53.0333 112.253 52.2391C112.253 51.4449 113.186 50.7964 114.33 50.7964C115.474 50.7964 116.406 51.4449 116.406 52.2391Z" fill="#7C6656" stroke="#7C6656" stroke-width="1.99624" stroke-linecap="round" stroke-linejoin="round"/>
<path d="M116.508 51.8675L115.998 44.8289" stroke="#7C6656" stroke-width="1.99624" stroke-linecap="round" stroke-linejoin="round"/>
<path d="M115.998 44.8289C115.998 44.8289 118.395 44.3189 119.466 46.6433Z" fill="#7C6656"/>
<path d="M115.998 44.8289C115.998 44.8289 118.395 44.3189 119.466 46.6433" stroke="#7C6656" stroke-width="1.99624" stroke-linecap="round" stroke-linejoin="round"/>
<path d="M127.212 44.173C127.409 44.9454 126.665 45.8052 125.558 46.0821C124.443 46.3662 123.387 45.9655 123.19 45.1931C122.993 44.4208 123.736 43.561 124.844 43.2841C125.959 42.9999 127.015 43.4007 127.212 44.173Z" fill="#7C6656" stroke="#7C6656" stroke-width="1.99624" stroke-linecap="round" stroke-linejoin="round"/>
<path d="M127.219 43.787L124.989 37.0908" stroke="#7C6656" stroke-width="1.99624" stroke-linecap="round" stroke-linejoin="round"/>
<path d="M132.049 41.9143C132.202 42.5191 131.627 43.1822 130.76 43.4007C129.893 43.6193 129.069 43.3133 128.916 42.7085C128.763 42.1038 129.339 41.4407 130.206 41.2221C131.073 41.0035 131.896 41.3096 132.049 41.9143Z" fill="#7C6656" stroke="#7C6656" stroke-width="1.99624" stroke-linecap="round" stroke-linejoin="round"/>
<path d="M132.057 41.6082L130.315 36.3984" stroke="#7C6656" stroke-width="1.99624" stroke-linecap="round" stroke-linejoin="round"/>
<path d="M124.989 37.0907C124.989 37.0907 126.527 34.708 130.316 36.3985" stroke="#7C6656" stroke-width="1.99624" stroke-linecap="round" stroke-linejoin="round"/>
<path d="M138.339 34.5041C137.895 33.8411 138.295 32.7845 139.25 32.1433C140.197 31.5021 141.334 31.5094 141.778 32.1725C142.223 32.8355 141.822 33.8921 140.868 34.5333C139.92 35.1745 138.784 35.1672 138.339 34.5041Z" fill="#7C6656" stroke="#7C6656" stroke-width="1.99624" stroke-linecap="round" stroke-linejoin="round"/>
<path d="M138.464 34.8757L142.836 40.4061" stroke="#7C6656" stroke-width="1.99624" stroke-linecap="round" stroke-linejoin="round"/>
<path d="M144.539 35.9031C144.678 35.9978 145.035 38.8031 142.922 40.6611Z" fill="#7C6656"/>
<path d="M144.539 35.9031C144.678 35.9978 145.035 38.8031 142.922 40.6611" stroke="#7C6656" stroke-width="1.99624" stroke-linecap="round" stroke-linejoin="round"/>
<path d="M142.631 35.9031C142.631 35.9031 142.959 37.6955 141.749 38.7083Z" fill="#7C6656"/>
<path d="M142.631 35.9031C142.631 35.9031 142.959 37.6955 141.749 38.7083" stroke="#7C6656" stroke-width="1.99624" stroke-linecap="round" stroke-linejoin="round"/>
<path d="M71.0559 113.516C69.9338 113.516 69.0303 112.605 69.0303 111.49V92.3562H73.0888V111.49C73.0888 112.612 72.178 113.516 71.0632 113.516H71.0559Z" fill="#A08A60" stroke="#A08A60" stroke-width="1.99624" stroke-linecap="round" stroke-linejoin="round"/>
<path d="M111.109 113.516C109.987 113.516 109.083 112.605 109.083 111.49V92.3562H113.142V111.49C113.142 112.612 112.231 113.516 111.116 113.516H111.109Z" fill="#A08A60" stroke="#A08A60" stroke-width="1.99624" stroke-linecap="round" stroke-linejoin="round"/>
<path d="M121.164 87.3433H62.4941V93.85H121.164V87.3433Z" fill="#C3A875" stroke="#C3A875" stroke-width="1.99624" stroke-linecap="round" stroke-linejoin="round"/>
<path d="M78.2254 86.5562H67.3031C66.6109 86.5562 66.0498 85.9952 66.0498 85.303H79.4786C79.4786 85.9952 78.9176 86.5562 78.2254 86.5562Z" fill="#7D7369" stroke="#7D7369" stroke-width="1.99624" stroke-linecap="round" stroke-linejoin="round"/>
<path d="M98.0083 67.0579H110.169C111.102 67.0579 111.801 67.9104 111.619 68.8285L108.406 85.1136C108.268 85.8058 107.663 86.3085 106.956 86.3085H94.8387C93.906 86.3085 93.2065 85.456 93.3814 84.5452L96.551 68.2601C96.6894 67.5606 97.2942 67.0651 98.0083 67.0651V67.0579Z" fill="white" stroke="#7C6656" stroke-width="1.99624" stroke-linecap="round" stroke-linejoin="round"/>
<path d="M107.015 71.2111H109.077C109.164 71.2111 109.244 71.1528 109.266 71.0653L109.835 68.9887C109.871 68.8648 109.776 68.741 109.645 68.741H107.583C107.496 68.741 107.415 68.7993 107.394 68.8867L106.825 70.9633C106.789 71.0872 106.884 71.2111 107.015 71.2111Z" fill="#7C6656"/>
<path d="M100.093 75.1753C100.093 75.1753 100.603 74.0386 102.228 74.7964C102.228 74.7964 103.955 74.0167 104.982 75.3647C105.769 76.3994 105.252 78.8185 104.224 79.4378C103.197 80.0572 102.388 79.6273 102.388 79.6273C102.388 79.6273 101.39 80.0062 100.741 79.6564C100.093 79.3067 99.6631 78.17 99.6631 78.17C99.6631 78.17 100.822 78.4687 100.931 77.7401C100.931 77.7401 101.536 77.7911 101.696 77.1863C101.849 76.5815 101.419 76.1225 101.099 76.1516C101.099 76.1516 101.332 75.8019 101.069 75.4521C100.69 74.9421 100.1 75.1826 100.1 75.1826L100.093 75.1753Z" fill="#B0B0B0"/>
<path d="M102.33 74.2571C102.33 74.2571 102.549 72.9382 103.547 72.9892C104.545 73.0402 104.735 73.1495 104.735 73.1495C104.735 73.1495 104.115 74.4684 102.33 74.2571Z" fill="#B0B0B0"/>
<path d="M102.329 76.0347H107.83L113.332 86.3085H107.83L102.329 76.0347Z" fill="white" stroke="#7C6656" stroke-width="1.99624" stroke-linecap="round" stroke-linejoin="round"/>
<path d="M81.3637 20.0708C81.3637 20.0708 82.8609 31.0501 79.238 33.9629C80.9722 37.9267 90.8161 51.2463 75.4709 64.1214C67.7911 68.4203 52.8175 74.9999 34.5724 72.1437C25.2676 69.2218 15.2925 68.056 13.624 53.0679C13.624 49.0162 9.49902 35.0425 9.49902 35.0425C9.49902 35.0425 68.3881 -15.8618 81.3637 20.0708Z" fill="white"/>
<g filter="url(#filter0_f_2317_47321)">
<ellipse cx="5.98872" cy="3.49342" rx="5.98872" ry="3.49342" transform="matrix(0.994522 -0.104528 0.102685 0.994714 31.541 51.4226)" fill="#F5B0B0"/>
</g>
<g filter="url(#filter1_f_2317_47321)">
<ellipse cx="5.98872" cy="3.49342" rx="5.98872" ry="3.49342" transform="matrix(0.994522 -0.104528 0.102685 0.994714 69.3867 47.0198)" fill="#F5B0B0"/>
</g>
<path d="M67.0336 53.3157C67.0336 53.3157 64.4979 57.3961 59.0841 58.1028C53.6703 58.8096 50.3623 55.487 50.3623 55.487" stroke="#7C6656" stroke-width="1.99624" stroke-linecap="round" stroke-linejoin="round"/>
<path d="M48.1475 47.2241C47.4407 48.2515 46.1 48.9656 44.5407 49.0093C42.9013 49.053 41.4586 48.3462 40.7227 47.2678" stroke="#7C6656" stroke-width="1.99624" stroke-linecap="round" stroke-linejoin="round"/>
<path d="M72.7674 43.3406C72.2719 44.4845 71.0915 45.4463 69.576 45.7888C67.9729 46.1531 66.4209 45.7378 65.4883 44.8197" stroke="#7C6656" stroke-width="1.99624" stroke-linecap="round" stroke-linejoin="round"/>
<path d="M77.8606 27.8059C78.8005 30.0501 78.6694 33.227 78.7932 34.4292C79.7477 36.2727 84.5568 41.8031 84.0904 49.6578C83.6241 57.5126 77.8533 64.952 64.7232 69.608C64.7232 69.608 56.9559 71.9105 54.0996 72.0271" stroke="#7C6656" stroke-width="1.99624" stroke-linecap="round" stroke-linejoin="round"/>
<path d="M48.4896 72.4277C39.4399 73.5498 29.2462 72.1945 22.2221 67.4656C16.3857 63.5456 13.5732 58.3285 13.2744 45.7449" stroke="#7C6656" stroke-width="1.99624" stroke-linecap="round" stroke-linejoin="round"/>
<path d="M12.655 45.8324C-0.766526 15.1494 27.2643 7.90671 27.2643 7.90671C45.269 -4.85906 68.8405 6.40571 68.8405 6.40571C68.8405 6.40571 86.0291 14.122 81.1836 29.6275" stroke="#7C6656" stroke-width="1.99624" stroke-linecap="round" stroke-linejoin="round"/>
<path d="M31.1113 17.022C31.1113 17.022 31.0458 27.3978 48.2562 30.7423" stroke="#7C6656" stroke-width="1.99624" stroke-linecap="round" stroke-linejoin="round"/>
<path d="M28.2476 23.5068C28.2476 23.5068 19.5767 30.5018 18.8408 40.5352" stroke="#7C6656" stroke-width="1.99624" stroke-linecap="round" stroke-linejoin="round"/>
<path d="M65.8382 28.6656C65.8382 28.6656 53.8666 26.8805 48.4893 17.022" stroke="#7C6656" stroke-width="1.99624" stroke-linecap="round" stroke-linejoin="round"/>
<path d="M46.4717 13.1092C60.6146 3.33815 70.5241 15.8198 70.5241 15.8198C56.8038 32.5566 46.8142 19.769 46.8142 19.769C46.8142 19.769 45.3496 18.9893 45.3496 16.0529C45.3496 14.5082 46.4717 13.1019 46.4717 13.1019V13.1092Z" fill="#1BAE91"/>
<path d="M46.8141 19.7763C46.8141 19.7763 56.8038 32.564 70.5241 15.8271C70.5241 15.8271 60.6219 3.3382 46.4717 13.1165" stroke="#7C6656" stroke-width="1.99624" stroke-linecap="round" stroke-linejoin="round"/>
<path d="M58.5233 16.6723C58.5233 16.8326 48.2131 19.8055 42.6973 13.7942" stroke="#7C6656" stroke-width="1.99624" stroke-linecap="round" stroke-linejoin="round"/>
<path d="M33.108 72.8359C33.108 72.8359 27.6286 78.7744 27.461 84.5816C27.2934 90.3889 31.3447 93.5876 40.9482 93.5876C40.9482 93.5876 47.7464 99.0743 50.8358 92.5967C53.5828 86.855 48.5916 82.6653 42.471 85.8203C42.471 85.8203 34.609 85.5361 35.8185 83.1389C39.6366 75.5538 40.5183 74.0965 40.5183 74.0965" fill="white"/>
<path d="M33.6908 72.0928C33.6908 72.0928 27.6285 78.7744 27.4536 84.5744C27.2788 90.3744 31.3373 93.5804 40.9408 93.5804C40.9408 93.5804 47.739 99.067 50.8284 92.5894C53.5754 86.8477 48.5842 82.6581 42.4636 85.8131C42.4636 85.8131 34.9076 85.6601 35.8112 83.1317C36.6709 80.7417 37.3413 78.6943 37.3413 78.6943" stroke="#7C6656" stroke-width="1.99624" stroke-linecap="round" stroke-linejoin="round"/>
<path d="M30.1133 78.0093C30.1133 78.0093 31.2427 80.9748 36.0881 80.9748" stroke="#7C6656" stroke-width="1.99624" stroke-linecap="round" stroke-linejoin="round"/>
<path d="M51.4551 84.0645H62.1297V93.6242C62.1297 94.9285 61.0658 95.9923 59.7616 95.9923H53.8304C52.5262 95.9923 51.4624 94.9285 51.4624 93.6242V84.0645H51.4551Z" fill="#D4EDFC" stroke="#7D7369" stroke-width="1.99624" stroke-linecap="round" stroke-linejoin="round"/>
<defs>
<filter id="filter0_f_2317_47321" x="29.8924" y="48.7437" width="15.9261" height="11.0555" filterUnits="userSpaceOnUse" color-interpolation-filters="sRGB">
<feFlood flood-opacity="0" result="BackgroundImageFix"/>
<feBlend mode="normal" in="SourceGraphic" in2="BackgroundImageFix" result="shape"/>
<feGaussianBlur stdDeviation="0.99812" result="effect1_foregroundBlur_2317_47321"/>
</filter>
<filter id="filter1_f_2317_47321" x="67.7381" y="44.3409" width="15.9261" height="11.0555" filterUnits="userSpaceOnUse" color-interpolation-filters="sRGB">
<feFlood flood-opacity="0" result="BackgroundImageFix"/>
<feBlend mode="normal" in="SourceGraphic" in2="BackgroundImageFix" result="shape"/>
<feGaussianBlur stdDeviation="0.99812" result="effect1_foregroundBlur_2317_47321"/>
</filter>
</defs>
</svg>
