<svg width="640" height="440" viewBox="0 0 640 440" fill="none" xmlns="http://www.w3.org/2000/svg">
<g style="mix-blend-mode:multiply">
<ellipse cx="320.834" cy="408.203" rx="180.469" ry="30.0781" fill="#EEEEEE"/>
<path d="M255.06 391.798L259.475 383.336C259.93 382.463 260.654 381.761 261.539 381.332L274.026 375.277C275.662 374.484 277.613 374.733 278.997 375.913L288.643 384.129C289.665 385 290.254 386.275 290.254 387.618V393.434C290.254 395.044 289.409 396.536 288.029 397.364L281.086 401.53C280.52 401.869 279.889 402.082 279.234 402.155L267.511 403.458C266.97 403.518 266.422 403.481 265.894 403.349L259.108 401.652C257.587 401.272 256.367 400.142 255.871 398.655L254.775 395.368C254.382 394.188 254.485 392.9 255.06 391.798Z" fill="white"/>
<path d="M211.546 117.305L219.567 140.866L211.546 154.903L205.029 183.978L215.055 206.537L225.583 267.194L256.162 322.839L265.186 326.849H338.376L367.952 322.839L362.939 284.74L359.932 251.152L387.503 243.132L408.558 230.599L421.592 213.555L429.613 191.999V170.443L433.623 157.91L441.644 125.326L438.135 93.7437L419.587 65.6707L384.495 45.6187L357.926 35.0913L320.83 29.0757L284.235 32.5848L250.146 45.6187L226.084 63.6655L216.058 80.2085L208.538 98.7567L211.546 117.305Z" fill="white"/>
<path d="M239.654 348.591C237.718 337.689 227.139 327.848 214.048 332.826C202.523 337.274 196.37 351.887 200.288 366.776C203.353 378.462 211.535 389.272 220.824 397.408C222.253 398.652 224.143 399.275 226.033 399.113C238.341 398.03 251.317 394.135 260.652 386.506C272.568 376.825 276.232 361.291 269.502 351.011C261.896 339.234 247.537 340.916 239.631 348.614L239.654 348.591Z" fill="#DADADA"/>
<path d="M390.138 354.953C389.17 345.066 380.412 335.524 368.357 339.027C357.732 342.208 351.186 354.838 353.652 368.437C355.565 379.108 362.111 389.342 369.878 397.293C371.077 398.515 372.713 399.206 374.419 399.183C385.505 399.091 397.398 396.533 406.295 390.333C417.658 382.496 422.014 368.875 416.736 359.194C410.766 348.108 397.79 348.615 390.184 354.953H390.138Z" fill="#D3D3D3"/>
<path d="M188.005 370.972C181.782 367.653 172.701 369.082 170.05 377.61C167.745 385.123 172.655 393.951 181.643 397.846C188.696 400.912 197.339 401.05 205.061 399.575C206.259 399.344 207.296 398.653 207.965 397.639C212.252 391.047 215.409 383.003 215.248 375.328C215.087 365.555 208.725 357.627 200.935 356.935C192.038 356.129 187.244 363.988 188.005 370.972Z" fill="#E5E5E5"/>
<path d="M417.843 368.088C414.685 361.773 406.434 357.693 399.358 363.11C393.135 367.927 392.029 377.953 397.122 386.319C401.11 392.888 408.07 398.005 415.215 401.301C416.322 401.808 417.566 401.831 418.696 401.393C426.025 398.489 433.239 393.764 437.549 387.403C443.081 379.336 442.482 369.194 436.512 364.124C429.736 358.315 421.254 361.957 417.843 368.088Z" fill="#E3E3E3"/>
<path d="M289.346 391.439C289.346 391.439 300.225 365.809 297.989 344.512C306.771 344.697 320.923 343.682 321.453 343.337C322.213 346.425 329.266 386.068 335.858 397.57C341.758 394.458 354.504 389.825 364.991 385.976C364.599 378.094 362.571 355.299 361.603 347.647C360.635 339.995 361.326 322.731 361.326 322.731C361.326 322.731 274.503 327.065 256.18 323.146C257.332 332.158 266.482 363.573 258.024 385.446C272.867 388.604 285.636 387.613 289.369 391.439H289.346Z" fill="#D9D9D9"/>
<path d="M361.33 324.275C361.491 334.048 361.584 342.438 361.607 347.646C361.699 369.266 366.493 386.575 366.493 386.575" stroke="#888888" stroke-width="6" stroke-linecap="round" stroke-linejoin="round"/>
<path d="M359.948 252.871C359.948 252.871 363.797 315.517 369.421 322.731C369.421 322.731 300.068 331.489 253.902 322.731" stroke="#888888" stroke-width="6" stroke-linecap="round" stroke-linejoin="round"/>
<path d="M327.449 252.825C327.449 252.825 315.579 265.732 298.915 261.699C278.01 256.628 280.477 247.662 280.477 247.662" stroke="#888888" stroke-width="6" stroke-linecap="round" stroke-linejoin="round"/>
<path d="M364.162 386.576C364.162 386.576 385.643 391.508 367.411 406.42C355.841 409.855 339.431 406.42 335.328 396.51C345.078 393.513 364.185 386.599 364.185 386.599L364.162 386.576Z" fill="white"/>
<path d="M364.163 386.574C364.163 386.574 372.968 388.303 373.913 394.019C374.858 399.735 372.968 407.11 357.733 407.34C342.498 407.571 334.016 399.02 330.512 384.016C327.009 369.011 321.731 344.027 321.731 344.027C321.731 344.027 295.318 346.17 289.371 342.828" stroke="#888888" stroke-width="6" stroke-linecap="round" stroke-linejoin="round"/>
<path d="M298.912 344.556C298.912 344.556 292.989 391.159 288.702 396.875C284.415 402.591 271.808 404.735 263.003 403.767C254.199 402.822 251.341 396.161 253.254 392.104C255.167 388.048 259.684 386.55 259.684 386.55" stroke="#888888" stroke-width="6" stroke-linecap="round" stroke-linejoin="round"/>
<path d="M262.709 263.105C262.709 263.105 253.904 289.772 256.762 320.703C259.62 351.657 265.06 361.176 258.79 385.446" stroke="#888888" stroke-width="6" stroke-linecap="round" stroke-linejoin="round"/>
<path d="M260.954 301.366C260.954 301.366 256.229 311.092 256.483 315.909" stroke="#888888" stroke-width="6" stroke-linecap="round" stroke-linejoin="round"/>
<path d="M222.28 119.762C222.28 119.762 221.773 132.301 221.565 136.127C218.846 142.096 204.487 160.327 207.183 185.058C209.857 209.789 229.264 232.423 271.465 245.076C271.465 245.076 296.357 251.161 305.392 251.069" stroke="#888888" stroke-width="6" stroke-linecap="round" stroke-linejoin="round"/>
<path d="M323.16 251.487C351.925 253.654 383.916 247.776 405.374 231.758C423.19 218.459 431.28 201.541 430.289 161.76" stroke="#888888" stroke-width="6" stroke-linecap="round" stroke-linejoin="round"/>
<g filter="url(#filter0_f_1138_34886)">
<ellipse cx="370.386" cy="189.456" rx="19.5911" ry="10.3718" fill="#D8D8D8"/>
</g>
<g filter="url(#filter1_f_1138_34886)">
<ellipse cx="252.839" cy="177.934" rx="19.5911" ry="10.3718" fill="#D8D8D8"/>
</g>
<path d="M342.457 159.386C341.835 165.839 346.583 171.555 353.013 172.178C359.467 172.8 365.183 168.052 365.805 161.622C366.427 155.168 361.68 149.452 355.249 148.83C348.795 148.207 343.079 152.955 342.457 159.386Z" fill="#888888"/>
<path d="M262.43 151.779C261.808 158.232 266.555 163.948 272.986 164.571C279.44 165.193 285.156 160.445 285.778 154.015C286.4 147.561 281.652 141.845 275.222 141.223C268.768 140.6 263.052 145.348 262.43 151.779Z" fill="#888888"/>
<path d="M281.215 187.713C281.215 187.713 290.088 200.989 308.158 202.695C326.205 204.423 336.831 192.991 336.831 192.991" stroke="#888888" stroke-width="6" stroke-linecap="round" stroke-linejoin="round"/>
<path d="M432.274 163.073C469.958 64.0574 380.254 45.5265 380.254 45.5265C321.388 7.98074 248.648 47.2321 248.648 47.2321C248.648 47.2321 195.544 74.2678 213.245 122.508" stroke="#888888" stroke-width="6" stroke-linecap="round" stroke-linejoin="round"/>
<path d="M369.492 73.7612C369.492 73.7612 371.313 106.536 317.449 119.766" stroke="#888888" stroke-width="6" stroke-linecap="round" stroke-linejoin="round"/>
<path d="M379.562 93.813C379.562 93.813 408.05 114.58 411.922 146.156" stroke="#888888" stroke-width="6" stroke-linecap="round" stroke-linejoin="round"/>
<path d="M261.576 115.917C261.576 115.917 299.122 108.427 314.587 76.4355" stroke="#888888" stroke-width="6" stroke-linecap="round" stroke-linejoin="round"/>
<path d="M321.02 45.4562C321.02 45.4562 337.615 44.0963 342.063 55.2979C345.474 63.8949 343.147 69.5187 332.936 83.4399C322.726 97.3611 291.011 96.9924 269.807 86.5054C275.085 71.8927 283.843 44.6495 321.02 45.4792V45.4562Z" fill="#A6A6A6"/>
<path d="M342.34 66.3423C342.34 66.3423 330.355 116.242 268.908 86.0717C268.908 86.0717 281.055 37.14 334.573 46.7281" stroke="#888888" stroke-width="6" stroke-linecap="round" stroke-linejoin="round"/>
<path d="M304.564 72.749C304.749 73.2099 338.353 68.2315 346.351 43.708" stroke="#888888" stroke-width="6" stroke-linecap="round" stroke-linejoin="round"/>
<path d="M243.831 227.541C232.353 208.964 205.801 198.638 185.427 217.261C167.564 233.81 166.896 265.086 184.896 289.518C199.025 308.717 221.866 322.569 244.845 330.705C248.372 331.95 252.267 331.719 255.609 330.037C277.39 319.089 298.364 302.517 309.911 281.727C324.731 255.291 320.121 224.175 300.323 210.208C277.804 194.143 252.682 207.696 243.831 227.564V227.541Z" fill="#CBCBCB"/>
<path d="M349.641 275.202C318.595 310.881 280.634 294.125 280.634 294.125C280.634 294.125 264.592 311.596 249.818 292.166C237.626 276.147 252.284 259.668 261.342 258.054C270.4 256.441 282.224 260.382 286.189 270.57C286.189 270.57 301.862 277.438 327.583 259.714" fill="white"/>
<path d="M349.641 275.202C318.595 310.881 280.634 294.125 280.634 294.125C280.634 294.125 264.592 311.596 249.818 292.166C237.626 276.147 252.284 259.668 261.342 258.054C270.4 256.441 282.224 260.382 286.189 270.57C286.189 270.57 301.862 277.438 327.583 259.714" stroke="#888888" stroke-width="6" stroke-linecap="round" stroke-linejoin="round"/>
<path d="M453.961 332.293C453.961 332.293 455.229 314.96 453.961 313.508C452.694 312.056 431.996 327.199 428.816 331.002C422.777 333.238 413.534 345.638 419.596 355.18C425.635 364.722 443.474 379.358 468.597 373.964C493.743 368.548 487.059 347.874 483.878 341.512C483.878 341.512 485.146 318.925 480.052 316.366C474.958 313.831 458.732 334.505 458.732 334.505L453.961 332.27V332.293Z" fill="white"/>
<path d="M485.953 351.836C485.953 351.836 478.255 360.387 469.681 358.958C461.107 357.529 455.552 340.059 447.877 337.178C440.179 334.296 435.546 343.239 429.83 342.34C424.114 341.441 417.661 337.362 428.839 331.001C435.316 325.354 453.985 313.507 453.985 313.507V332.291L458.756 334.527C458.756 334.527 473.553 317.172 479.131 316.18C484.709 315.189 484.709 342.179 484.709 342.179C484.709 342.179 485.792 349.186 485.953 351.859V351.836Z" fill="#E0E0E0"/>
<path d="M453.961 332.293C453.961 332.293 455.229 314.96 453.961 313.508C452.694 312.056 431.996 327.199 428.816 331.002C422.777 333.238 413.534 345.638 419.596 355.18C425.635 364.722 443.474 379.358 468.597 373.964C493.743 368.548 487.059 347.874 483.878 341.512C483.878 341.512 485.146 318.925 480.052 316.366C474.958 313.831 458.732 334.505 458.732 334.505L453.961 332.27V332.293Z" stroke="#888888" stroke-width="6" stroke-linecap="round" stroke-linejoin="round"/>
<path d="M468.136 351.84L452.371 345.226" stroke="#888888" stroke-width="6" stroke-linecap="round" stroke-linejoin="round"/>
<path d="M440.18 340.934L429.002 336.739" stroke="#888888" stroke-width="6" stroke-linecap="round" stroke-linejoin="round"/>
<path d="M447.162 346.701H442.967L442.16 344.281" stroke="#888888" stroke-width="6" stroke-linecap="round" stroke-linejoin="round"/>
<path d="M442.965 346.698C442.965 346.698 442.136 347.182 441.605 350.04" stroke="#888888" stroke-width="6" stroke-linecap="round" stroke-linejoin="round"/>
<path d="M438.221 346.698C438.221 346.698 438.705 352.898 447.878 350.04" stroke="#888888" stroke-width="6" stroke-linecap="round" stroke-linejoin="round"/>
<path d="M447.878 322.729L446.265 331.027C446.265 331.027 443.684 330.197 442.301 330.197" stroke="#888888" stroke-width="6" stroke-linecap="round" stroke-linejoin="round"/>
<path d="M474.153 328.951C474.153 328.951 467.999 336.142 468.137 336.742L468.252 337.341C468.252 337.341 474.498 338.378 476.112 338.839" stroke="#888888" stroke-width="6" stroke-linecap="round" stroke-linejoin="round"/>
<path d="M484.707 367.904L455.759 379.889L417.637 370.094C417.637 370.094 423.721 394.11 422.684 399.342C429.691 401.901 453.615 412.088 453.615 412.088L482.449 396.715C482.449 396.715 483.394 374.519 484.707 367.95V367.904Z" fill="white" stroke="#888888" stroke-width="6" stroke-linecap="round" stroke-linejoin="round"/>
<path d="M454.836 384.706V411.396" stroke="#888888" stroke-width="6" stroke-linecap="round" stroke-linejoin="round"/>
<path d="M434.51 370.762C434.118 372.952 431.306 374.266 428.195 373.713C425.106 373.159 422.893 370.947 423.285 368.78C423.677 366.591 426.489 365.277 429.6 365.83C432.689 366.383 434.902 368.596 434.51 370.762Z" fill="white" stroke="#888888" stroke-width="6" stroke-linecap="round" stroke-linejoin="round"/>
<path d="M453.48 376.132C453.089 378.322 450.277 379.636 447.165 379.083C444.077 378.529 441.864 376.317 442.256 374.15C442.648 371.961 445.46 370.647 448.571 371.2C451.66 371.753 453.872 373.966 453.48 376.132Z" fill="white" stroke="#888888" stroke-width="6" stroke-linecap="round" stroke-linejoin="round"/>
<path d="M439.234 387.473L454.331 391.437" stroke="#888888" stroke-width="6" stroke-linecap="round" stroke-linejoin="round"/>
<path d="M462.976 395.673L455.9 399.315" stroke="#888888" stroke-width="6" stroke-linecap="round" stroke-linejoin="round"/>
<path d="M319.91 265.757C319.91 265.757 324.958 270.621 338.602 285.395" stroke="#888888" stroke-width="6" stroke-linecap="round" stroke-linejoin="round"/>
<path d="M289.35 391.438C289.35 391.438 271.995 385.538 259.664 386.575" stroke="#888888" stroke-width="6" stroke-linecap="round" stroke-linejoin="round"/>
<path d="M366.494 386.576C366.494 386.576 351.651 387.636 337.891 396.832" stroke="#888888" stroke-width="6" stroke-linecap="round" stroke-linejoin="round"/>
</g>
<defs>
<filter id="filter0_f_1138_34886" x="345.924" y="174.213" width="48.9235" height="30.4855" filterUnits="userSpaceOnUse" color-interpolation-filters="sRGB">
<feFlood flood-opacity="0" result="BackgroundImageFix"/>
<feBlend mode="normal" in="SourceGraphic" in2="BackgroundImageFix" result="shape"/>
<feGaussianBlur stdDeviation="2.43546" result="effect1_foregroundBlur_1138_34886"/>
</filter>
<filter id="filter1_f_1138_34886" x="228.377" y="162.692" width="48.9235" height="30.4855" filterUnits="userSpaceOnUse" color-interpolation-filters="sRGB">
<feFlood flood-opacity="0" result="BackgroundImageFix"/>
<feBlend mode="normal" in="SourceGraphic" in2="BackgroundImageFix" result="shape"/>
<feGaussianBlur stdDeviation="2.43546" result="effect1_foregroundBlur_1138_34886"/>
</filter>
</defs>
</svg>
