<svg width="80" height="81" viewBox="0 0 80 81" fill="none" xmlns="http://www.w3.org/2000/svg">
<path d="M47.422 33.4235L45.3181 35.9098L44.1706 36.2924L42.258 37.2486L41.493 38.0137L41.6843 39.3525H41.8755L43.4056 38.7787L44.1706 37.8224L45.8919 37.2486L47.6132 37.8224L48.3782 38.9699V40.3087L47.2307 41.8388L46.4657 42.2213L46.2744 43.9426L47.6132 44.1339L50.0996 44.7077L52.9684 46.429L54.4985 49.8716L54.6897 51.4016H55.4547H57.5586L59.6624 53.123L59.4711 55.8005L61.575 58.2869L62.5312 61.9208L61.575 65.3634L59.0886 68.2322L55.0722 69.9536L51.2471 69.7623L50.2908 69.3798L49.9083 70.5273L48.3782 72.4399L45.3181 74.3525L42.0668 75.3087L38.0504 75.5L34.4165 75.3087L30.9739 73.9699L28.105 71.8661H27.34L23.7061 72.6311L20.2635 72.0574L17.0121 69.9536L15.6733 67.6585L15.2908 66.3197H14.9083H12.9957L9.55311 65.3634L7.44929 64.0246H9.36185L10.7007 62.6858V61.9208L9.74437 60.0082L9.1706 57.9044L9.55311 55.6093L11.0832 53.6967V51.4016L12.422 48.5328L14.3345 46.2377L18.3509 44.7077L21.7935 44.3251L24.0886 45.2814L25.8099 45.8552L26.7662 42.4126V40.5L25.0449 39.9262L21.2198 38.7787L17.2034 34.7623L15.4821 29.0246L13.952 26.5383L12.6132 21.9481V17.7404L14.3345 14.1066L16.8209 11.8115L19.3072 10.0902L21.6023 8.56011L24.0886 7.03005L27.7225 5.88251L32.1214 5.5L37.4766 5.88251L42.4493 7.79508L45.3181 10.0902L46.8482 12.194L47.422 14.4891V17.3579L46.4657 20.0355L48.3782 21.9481L49.9083 25.582V29.4071L47.422 33.4235Z" fill="white"/>
<path d="M25.8936 50.008C26.2534 52.8295 29.4632 53.8733 29.4632 53.8733C31.1625 54.3507 34.1693 55.0454 35.1953 54.8281C35.7866 55.0988 36.6416 58.2944 36.7022 59.9474C39.8194 60.243 40.5889 59.1779 41.5116 58.4404C40.995 53.1038 40.1471 52.9756 38.7827 51.7109C43.0612 52.4519 42.7228 56.9976 42.7228 56.9976C45.2166 57.2007 46.9016 55.8006 46.9016 55.8006C46.9016 55.8006 47.3612 52.2809 45.8756 50.4569C44.3901 48.6329 40.9736 47.8954 40.7777 47.9952C40.7777 47.9952 40.1222 50.1291 36.3174 50.7169C32.5127 51.3012 26.0361 50.0187 26.0361 50.0187H25.89L25.8936 50.008Z" fill="#6595CA"/>
<path d="M43.4239 38.8359C43.4239 38.8359 43.9797 37.4501 45.2835 37.133C46.591 36.8159 48.244 37.2684 48.5325 39.5876C48.8068 41.8034 46.4734 42.7938 44.8917 42.1205" fill="#F9F9F9"/>
<path d="M43.4239 38.8359C43.4239 38.8359 43.9797 37.4501 45.2835 37.133C46.591 36.8159 48.244 37.2684 48.5325 39.5876C48.8068 41.8034 46.4734 42.7938 44.8917 42.1205" stroke="#7C6656" stroke-linecap="round" stroke-linejoin="round"/>
<path d="M25.9217 50.1758C26.0749 51.0593 26.4882 51.9321 27.3717 52.6731C29.641 54.5719 33.916 54.9958 34.8672 54.7857C35.8184 54.5755 36.2565 57.1939 36.456 58.6189C36.6555 60.0439 36.8408 62.2562 40.4995 61.729C43.0253 61.1233 42.6013 59.1283 41.5397 58.7471C41.5397 58.7471 41.3082 54.8925 40.4104 53.3642C39.5127 51.8359 37.8775 51.2374 37.8775 51.2374" stroke="#7C6656" stroke-linecap="round" stroke-linejoin="round"/>
<path d="M26.9071 40.5469C26.9071 40.5469 26.3193 46.7278 24.3029 49.56C24.3029 49.56 28.984 51.4125 34.798 50.9102C40.612 50.4079 41.125 47.9319 41.125 47.9319" stroke="#7C6656" stroke-linecap="round" stroke-linejoin="round"/>
<path d="M41.0427 48.1445C42.0651 48.2051 43.7252 48.8784 43.7252 48.8784C43.7252 48.8784 45.3604 49.4733 46.2582 51.0052C47.1559 52.5371 47.1559 55.7077 47.1559 55.7077C47.7936 55.9606 49.0191 57.6457 46.3116 58.5399C42.6529 59.0671 42.6244 56.7907 42.4249 55.3657C42.229 53.9407 41.9654 52.8826 40.7185 52.4267L38.7841 51.707" stroke="#7C6656" stroke-linecap="round" stroke-linejoin="round"/>
<path d="M39.6523 50.5781C39.6523 50.5781 39.0503 51.1232 38.5872 51.2301" stroke="#7C6656" stroke-linecap="round" stroke-linejoin="round"/>
<path d="M41.3532 37.8281C41.3532 37.8281 42.5359 42.5841 41.2285 47.6499" stroke="#7C6656" stroke-linecap="round" stroke-linejoin="round"/>
<path d="M21.4549 51.3721C21.4549 51.3721 24.5685 48.7679 29.1072 50.7451C33.6458 52.7223 33.6992 57.7383 33.6992 57.7383" fill="#F9F9F9"/>
<path d="M21.4549 51.3721C21.4549 51.3721 24.5685 48.7679 29.1072 50.7451C33.6458 52.7223 33.6992 57.7383 33.6992 57.7383" stroke="#7C6656" stroke-linecap="round" stroke-linejoin="round"/>
<path d="M25.7709 46.318C25.4039 45.9617 23.6761 44.4334 20.8796 44.3871C17.7125 44.3337 10.4806 46.4712 10.9046 53.874C10.9046 53.874 7.06775 57.7892 10.8867 62.278C10.8867 62.278 10.217 64.9712 7.15682 63.9702C7.15682 63.9702 12.0125 67.4008 15.3897 66.186C15.3897 66.186 15.0727 69.46 19.4011 71.6224C23.7295 73.7848 27.9511 71.5155 27.9511 71.5155C27.9511 71.5155 30.0174 75.4735 39.6503 75.4735C48.4283 75.4735 50.434 69.403 50.434 69.403C50.434 69.403 57.4023 72.1995 61.3068 65.8155C64.2636 60.9812 60.6726 56.2645 59.4079 56.1576C59.4079 56.1576 60.6619 53.8669 58.9626 52.1925C57.0816 50.34 54.6591 51.7259 54.6591 51.7259C54.6591 51.7259 55.1864 46.5816 50.4376 44.7327C44.5345 42.4384 41.7772 46.603 41.7772 46.603" stroke="#7C6656" stroke-linecap="round" stroke-linejoin="round"/>
<path d="M63.1094 67.6074C63.1094 67.6074 62.0976 72.8336 56.875 72.0392" stroke="#7C6656" stroke-linecap="round" stroke-linejoin="round"/>
<path d="M64.0481 69.8652C64.0481 69.8652 64.9815 71.2546 62.6694 72.1239" stroke="#7C6656" stroke-linecap="round" stroke-linejoin="round"/>
<path d="M0.519947 67.1328C0.519947 67.1328 3.35926 70.6989 8.74219 69.8653" stroke="#7C6656" stroke-linecap="round" stroke-linejoin="round"/>
<path d="M3.03944 66.3418C3.03944 66.3418 4.62119 68.5684 8.26562 67.9307" stroke="#7C6656" stroke-linecap="round" stroke-linejoin="round"/>
<path d="M56.4121 17.3474C55.8742 17.7713 56.2198 18.5301 56.5083 18.9933C56.8575 19.5561 57.3348 20.1546 58.0366 20.2472C58.0616 20.2472 58.083 20.2544 58.1079 20.2544C58.5995 20.2936 59.0805 20.0549 59.1838 19.5419C59.312 18.9078 59.0306 18.2629 58.5746 17.8319C58.2753 17.5504 57.8977 17.3296 57.4987 17.2227C57.1425 17.1265 56.6971 17.1229 56.4121 17.3438V17.3474Z" fill="#9ECC74" stroke="#7C6656" stroke-linecap="round" stroke-linejoin="round"/>
<path d="M57.9141 12.2598C57.3227 12.2918 56.7064 12.3773 56.1471 12.5733C54.4086 13.1789 53.0798 15.2808 54.1129 17.0228C54.1129 17.0228 53.9348 15.409 55.0569 14.497C56.1791 13.585 57.3263 13.9413 57.3263 13.9413" fill="#9ECC74"/>
<path d="M57.9141 12.2598C57.3227 12.2918 56.7064 12.3773 56.1471 12.5733C54.4086 13.1789 53.0798 15.2808 54.1129 17.0228C54.1129 17.0228 53.9348 15.409 55.0569 14.497C56.1791 13.585 57.3263 13.9413 57.3263 13.9413" stroke="#7C6656" stroke-linecap="round" stroke-linejoin="round"/>
<path d="M57.9141 12.2598C57.7787 13.2145 56.2361 17.3185 56.1649 17.6926" stroke="#7C6656" stroke-linecap="round" stroke-linejoin="round"/>
<path d="M55.7539 20.457C55.7539 20.457 55.3905 21.5863 53.9121 21.6754C52.4337 21.7645 51.9064 21.7395 51.5894 22.7014" stroke="#7C6656" stroke-linecap="round" stroke-linejoin="round"/>
<path d="M45.5352 39.3697L77.0312 24.1543" stroke="#7C6656" stroke-linecap="round" stroke-linejoin="round"/>
<path d="M77.0312 24.1543V56.3664" stroke="#7C6656" stroke-linecap="round" stroke-linejoin="round"/>
<path d="M77.033 59.6517L76.8157 59.5627C76.8157 59.5627 73.9835 58.4334 74.6746 56.702C75.4584 55.0953 77.033 56.4811 77.033 56.4811C77.033 56.4811 78.6076 55.0989 79.3914 56.702C80.0825 58.4334 77.2503 59.5627 77.2503 59.5627L77.033 59.6517Z" fill="#F299A0" stroke="#7C6656" stroke-linecap="round" stroke-linejoin="round"/>
<path d="M30.5763 44.2537C36.3547 48.7318 41.6058 45.0553 41.6058 45.0553C41.6058 45.0553 44.5591 47.2248 46.2192 43.8333C47.5872 41.0368 44.8726 38.9777 43.4512 39.0062C42.0297 39.0311 40.3554 39.9858 40.0597 41.6495C40.0597 41.6495 37.8901 43.1636 33.4548 41.2434" fill="#F9F9F9"/>
<path d="M30.5763 44.2537C36.3547 48.7318 41.6058 45.0553 41.6058 45.0553C41.6058 45.0553 44.5591 47.2248 46.2192 43.8333C47.5872 41.0368 44.8726 38.9777 43.4512 39.0062C42.0297 39.0311 40.3554 39.9858 40.0597 41.6495C40.0597 41.6495 37.8901 43.1636 33.4548 41.2434" stroke="#7C6656" stroke-linecap="round" stroke-linejoin="round"/>
<path d="M47.1562 55.5195C47.1562 55.5195 46.2336 56.9623 43.0095 57.112" stroke="#7C6656" stroke-linecap="round" stroke-linejoin="round"/>
<path d="M41.2266 58.6191C41.2266 58.6191 39.5593 60.5714 36.7022 59.9444" stroke="#7C6656" stroke-linecap="round" stroke-linejoin="round"/>
<path d="M34.1055 41.5L32.0962 45.2584" stroke="#7C6656" stroke-linecap="round" stroke-linejoin="round"/>
<path d="M34.1768 39.7259C34.1768 39.7259 36.1469 41.1153 38.2202 40.5453C40.5929 39.8898 40.0977 38.2617 40.0977 38.2617" stroke="#7C6656" stroke-linecap="round" stroke-linejoin="round"/>
<path d="M41.043 26.8477C41.043 26.8477 40.1559 29.0243 37.6052 29.8045C35.0544 30.5883 33.1877 29.2559 33.1877 29.2559" stroke="#7C6656" stroke-linecap="round" stroke-linejoin="round"/>
<path d="M31.4375 25.459C31.181 26.0147 30.5932 26.4672 29.8451 26.6168C29.0578 26.7735 28.3061 26.5491 27.8608 26.0895" stroke="#7C6656" stroke-linecap="round" stroke-linejoin="round"/>
<path d="M43.0156 21.5586C42.8838 22.1001 42.4385 22.6095 41.7973 22.8732C41.1204 23.151 40.4079 23.0833 39.9305 22.752" stroke="#7C6656" stroke-linecap="round" stroke-linejoin="round"/>
<path d="M45.8637 16.6562C46.4444 17.6929 46.5548 19.2355 46.6831 19.8126C47.2459 20.6534 49.8786 23.0866 50.0888 26.9091C50.299 30.7317 47.9264 34.6219 41.8381 37.5396C41.8381 37.5396 38.215 39.0465 36.8399 39.246" stroke="#7C6656" stroke-linecap="round" stroke-linejoin="round"/>
<path d="M34.1484 39.7263C29.8378 40.7309 25.2173 40.7808 21.5586 38.8535C18.5198 37.2539 16.4357 34.0691 15.6448 28.6113" stroke="#7C6656" stroke-linecap="round" stroke-linejoin="round"/>
<path d="M15.2451 28.7114C6.79484 15.3057 20.1969 9.62709 20.1969 9.62709C28.1876 2.53773 40.2075 6.79491 40.2075 6.79491C40.2075 6.79491 48.9427 9.65559 47.4643 17.404" stroke="#7C6656" stroke-linecap="round" stroke-linejoin="round"/>
<path d="M22.6739 13.8086C22.6739 13.8086 23.219 18.8317 31.7227 19.5763" stroke="#7C6656" stroke-linecap="round" stroke-linejoin="round"/>
<path d="M21.6484 17.0898C21.6484 17.0898 17.8473 20.9124 18.0503 25.8037" stroke="#7C6656" stroke-linecap="round" stroke-linejoin="round"/>
<path d="M40.1016 17.6821C40.1016 17.6821 34.2163 17.4256 31.0671 12.9297" stroke="#7C6656" stroke-linecap="round" stroke-linejoin="round"/>
<path d="M28.5179 8.90539C28.5179 8.90539 26.0205 9.55733 25.9671 11.4098C25.9279 12.8313 26.5656 13.5259 28.7957 15.0222C31.0258 16.5184 35.6393 14.8441 38.1758 12.2363C36.6297 10.3874 33.9008 6.88546 28.5179 8.90539Z" fill="#1AAF92"/>
<path d="M26.5186 13.0191C26.5186 13.0191 30.9218 19.6418 38.2891 12.1249C38.2891 12.1249 33.9143 5.65188 26.6076 9.77725" stroke="#7C6656" stroke-linecap="round" stroke-linejoin="round"/>
<path d="M32.375 12.0187C32.3714 12.0971 27.2023 13.091 24.7299 9.94531" stroke="#7C6656" stroke-linecap="round" stroke-linejoin="round"/>
</svg>
