<svg width="121" height="89" viewBox="0 0 121 89" fill="none" xmlns="http://www.w3.org/2000/svg">
<path d="M16 62.25L19.5 59.25L33 57.75L37.25 62.75L37.75 71.25L36.75 78.75L37.25 84.25L38.25 85.75L37.75 87L36 87.75L33 87L31.75 86L31.25 82.5L30.5 77H26.75L24.5 85.25L23.25 87L20.75 88L18.5 87.75L17.75 87L18 85.75L19 83.5L19.75 77.5L20 67.75L19.75 66H17L16 64.5V62.25Z" fill="white"/>
<path d="M9.12155 46.6356C9.12155 46.6356 8.42658 54.7516 14.8611 58.3224C21.2956 61.8971 31.0611 60.9185 36.9165 59.0573C41.3579 56.9803 50.6482 52.5069 47.7165 44.9621C46.682 40.952 44.4014 39.7578 44.669 39.5781C44.9366 39.4023 44.8048 37.581 44.8048 37.581C44.8048 37.581 46.6181 37.7567 46.6501 34.2939C46.682 30.831 44.5772 22.6591 29.5194 21.7324C19.0788 21.8682 16.1392 25.3271 16.1392 25.3271C16.1392 25.3271 1.02951 30.3996 9.12155 46.6396V46.6356Z" fill="white"/>
<path d="M37.7364 58.75C37.7364 58.75 27.3078 61.8574 19.3076 60.1719C17.4783 61.7815 19.8628 65.3163 19.8628 65.3163C19.5632 67.4931 19.8468 72.965 19.8468 72.965H37.7763C37.7763 72.965 37.972 67.1616 37.313 64.865C37.8961 64.6693 39.1343 60.1759 37.7364 58.754V58.75Z" fill="white"/>
<path d="M37.7795 72.9603C37.7795 72.9603 20.8884 72.7966 19.814 72.7207C19.6662 74.0507 20.1695 81.8552 18.6797 84.3675C19.5863 85.0505 24.2475 85.6696 24.2475 85.6696C24.2475 85.6696 26.4003 78.0289 26.5241 77.0024C26.5241 77.0024 30.2905 77.5176 30.3824 77.3059C30.4743 77.0942 30.2905 77.5176 30.2905 77.5176L31.8562 85.7295C31.8562 85.7295 33.9052 84.679 37.3161 84.4074C36.9926 82.8537 36.7849 80.2576 37.0326 78.5321C37.2762 76.8067 37.7835 72.9643 37.7835 72.9643L37.7795 72.9603Z" fill="#8EBDE2"/>
<path d="M18.9903 84.6289C18.9903 84.6289 17.7521 85.0563 17.5844 86.0468C17.4206 87.0373 17.5245 87.976 20.1646 87.98C22.4013 87.98 23.4397 87.0533 24.2425 85.6754" stroke="#7C6656" stroke-linecap="round" stroke-linejoin="round"/>
<path d="M30.4727 77.0938C30.4727 77.0938 31.3873 85.3935 32.1302 86.384C32.8731 87.3746 35.0579 87.746 36.5836 87.5783C38.1094 87.4145 38.6046 86.2602 38.2731 85.5572C37.9416 84.8543 37.1588 84.5947 37.1588 84.5947" stroke="#7C6656" stroke-linecap="round" stroke-linejoin="round"/>
<path d="M37.6408 84.8503C37.6408 84.8503 34.4136 84.2153 32.125 85.8928" stroke="#7C6656" stroke-linecap="round" stroke-linejoin="round"/>
<path d="M33.4374 60.4023C33.1977 61.2012 32.299 62.5951 29.5591 62.9506C27.1946 63.2581 25.0617 62.1158 24.0312 60.606" stroke="#7C6656" stroke-linecap="round" stroke-linejoin="round"/>
<path d="M44.3775 35.7754C44.9088 36.9976 44.8568 38.739 44.9327 39.398C45.4679 40.4006 48.14 43.4041 47.9403 47.7098C47.7366 52.0154 44.6252 56.1333 37.4558 58.7734C37.4558 58.7734 33.214 60.0875 31.6523 60.1673" stroke="#7C6656" stroke-linecap="round" stroke-linejoin="round"/>
<path d="M28.5809 60.4316C23.6282 61.1106 18.0325 60.4316 14.1502 57.8913C10.927 55.7824 9.34529 52.9386 9.09766 46.0488" stroke="#7C6656" stroke-linecap="round" stroke-linejoin="round"/>
<g filter="url(#filter0_f_1235_28982)">
<ellipse cx="40.1864" cy="47.4925" rx="3.8014" ry="1.99739" transform="rotate(-7.82424 40.1864 47.4925)" fill="#F5B0B0"/>
</g>
<g filter="url(#filter1_f_1235_28982)">
<ellipse cx="19.8192" cy="50.3929" rx="3.8014" ry="1.99739" transform="rotate(-7.82424 19.8192 50.3929)" fill="#F5B0B0"/>
</g>
<path d="M24.1445 45.1545C24.3043 46.2649 23.5294 47.2954 22.419 47.4511C21.3087 47.6109 20.2782 46.836 20.1224 45.7257C19.9627 44.6153 20.7375 43.5848 21.8479 43.4291C22.9582 43.2693 23.9887 44.0442 24.1445 45.1545Z" fill="#7C6656"/>
<path d="M26.3595 48.8723C26.3595 48.8723 27.6575 54.2044 30.7689 53.7611C33.8803 53.3177 33.5968 47.8418 33.5968 47.8418L26.3555 48.8723H26.3595Z" fill="#F299A0" stroke="#7C6656" stroke-linecap="round" stroke-linejoin="round"/>
<path d="M8.76287 46.0924C1.19805 29.3651 16.5154 25.2073 16.5154 25.2073C26.3009 18.0898 39.2937 24.1049 39.2937 24.1049C39.2937 24.1049 48.7638 28.2188 46.2155 36.7502" stroke="#7C6656" stroke-linecap="round" stroke-linejoin="round"/>
<path d="M37.7811 72.9609H19.8516" stroke="#7C6656" stroke-linecap="round" stroke-linejoin="round"/>
<path d="M18.6836 30.1797C18.6836 30.1797 18.7195 35.8673 28.1736 37.5847" stroke="#7C6656" stroke-linecap="round" stroke-linejoin="round"/>
<path d="M17.1577 33.75C17.1577 33.75 12.4527 37.6442 12.1172 43.1481" stroke="#7C6656" stroke-linecap="round" stroke-linejoin="round"/>
<path d="M37.793 36.3273C37.793 36.3273 31.2187 35.4286 28.2031 30.0605" stroke="#7C6656" stroke-linecap="round" stroke-linejoin="round"/>
<path d="M24.7123 26.1655C24.7123 26.1655 22.208 27.6034 22.6753 29.6404C23.0348 31.2021 23.9175 31.7772 26.7453 32.7558C29.5731 33.7383 34.0585 30.567 36.0515 26.9843C33.8628 25.4186 29.9326 22.3911 24.7083 26.1655H24.7123Z" fill="#1BAE91"/>
<path d="M23.729 31.2392C23.729 31.2392 30.3473 37.1824 36.1467 26.8337C36.1467 26.8337 29.6044 21.0463 22.9062 27.6765" stroke="#7C6656" stroke-linecap="round" stroke-linejoin="round"/>
<path d="M29.7487 28.4422C29.7646 28.5261 24.4844 31.1222 20.9297 28.4062" stroke="#7C6656" stroke-linecap="round" stroke-linejoin="round"/>
<path d="M37.7762 58.9022C43.0244 60.6317 45.2452 56.6855 45.2452 56.6855C44.3625 54.6845 44.9057 53.2945 46.9546 52.3679C47.3421 52.1961 47.6137 48.7333 48.8199 48.6973C49.1953 48.6853 50.3576 50.7982 49.2193 52.1802C50.6931 52.5756 51.8754 53.9615 51.9592 55.7309C52.0831 58.363 49.2313 59.066 49.2313 59.066C45.5966 65.4965 38.0118 65.125 35.875 64.8814" fill="white"/>
<path d="M37.7773 58.9019C43.0256 60.6314 45.2463 56.6852 45.2463 56.6852C44.3636 54.6842 44.9068 53.2942 46.9558 52.3676C47.0197 51.413 47.1355 48.3575 48.9768 48.733C49.8715 48.6651 49.9833 51.2732 49.6518 52.3276C50.9179 52.8589 51.8845 54.137 51.9604 55.7306C52.0842 58.3627 49.2324 59.0657 49.2324 59.0657C46.2328 64.3699 40.9087 65.0808 37.9371 65.0289" stroke="#7C6656" stroke-linecap="round" stroke-linejoin="round"/>
<path d="M38.7823 59.3867C38.7823 59.3867 39.4253 61.6554 38.5586 64.8187" stroke="#7C6656" stroke-linecap="round" stroke-linejoin="round"/>
<path d="M36.75 62.9785C36.75 62.9785 38.2757 67.5997 37.7805 72.9598C37.2852 78.3238 36.2308 80.1971 37.3132 84.4068" stroke="#7C6656" stroke-linecap="round" stroke-linejoin="round"/>
<path d="M17.0011 60.8639C13.0908 64.7662 9.3324 62.2419 9.3324 62.2419C9.22057 60.0571 9.04483 58.3437 7.33136 58.3477C6.90799 58.3676 7.15163 59.1824 6.05724 59.6937C5.71775 59.8534 2.79407 58.3477 1.65575 60.4006C0.51743 61.4191 1.06063 62.7372 1.78356 64.3588C2.85398 66.7672 6.84807 66.1641 6.84807 66.1641C12.987 70.27 19.5932 66.5316 21.3946 65.3493" fill="white"/>
<path d="M16.3203 61.75C16.3203 61.75 16.7677 64.0626 18.9644 66.499" stroke="#7C6656" stroke-linecap="round" stroke-linejoin="round"/>
<path d="M18.3623 60.1696C14.4521 64.0718 9.33167 62.2425 9.33167 62.2425C9.33167 62.2425 9.03611 58.7477 7.87382 58.5C6.52382 58.2164 6.2682 59.3348 6.12441 60.1656C6.12441 60.1656 3.39245 57.8051 1.7988 60.1656C0.476754 62.1227 0.784299 66.3884 6.84734 66.1607C11.9119 69.5477 16.9844 67.7903 19.6165 66.4083" stroke="#7C6656" stroke-linecap="round" stroke-linejoin="round"/>
<path d="M19.8519 64.125C19.8519 64.125 19.6242 74.294 19.6083 78.0404C19.5923 81.7869 18.5938 84.6906 18.5938 84.6906C18.5938 84.6906 23.0192 84.7545 24.3413 85.6692C24.6488 84.9782 24.7526 84.5628 24.8845 83.9317C25.4277 81.3196 26.522 77.002 26.522 77.002C26.522 77.002 31.0993 77.3734 32.1297 76.7943" stroke="#7C6656" stroke-linecap="round" stroke-linejoin="round"/>
<path d="M37.3136 41.2734L34.4219 44.3409L38.372 43.7538" stroke="#7C6656" stroke-linecap="round" stroke-linejoin="round"/>
<path d="M58.2806 27.0811C51.7909 27.0811 46.53 23.3134 46.53 18.6656C46.53 14.0178 51.7909 10.25 58.2806 10.25C64.7703 10.25 70.0312 14.0178 70.0312 18.6656C70.0312 23.3134 64.7703 27.0811 58.2806 27.0811Z" fill="white" stroke="#7C6656" stroke-linecap="round" stroke-linejoin="round"/>
<path d="M53.7329 17.1929C54.1244 16.2223 55.2307 15.755 56.2013 16.1464C56.2852 16.1784 56.373 16.2263 56.4649 16.2742C56.4369 16.1105 56.425 15.9587 56.425 15.8229C56.425 14.7764 57.2717 13.9297 58.3221 13.9297C59.3726 13.9297 60.2153 14.7764 60.2153 15.8229C60.2153 16.0745 60.1634 16.3901 60.0756 16.7216C60.3791 16.5259 60.6787 16.3781 60.9343 16.2982C61.9368 15.9906 62.9952 16.5538 63.2988 17.5563C63.6063 18.5588 63.0432 19.6173 62.0407 19.9208C61.8929 19.9648 61.7131 20.0007 61.5174 20.0207C61.6612 20.1645 61.785 20.3083 61.8769 20.4441C62.464 21.3108 62.2324 22.489 61.3657 23.0762C60.4989 23.6633 59.3207 23.4316 58.7335 22.5649C58.5977 22.3612 58.4659 22.0816 58.3581 21.7661C58.2063 22.1376 58.0266 22.4691 57.8429 22.6967C57.1838 23.5115 55.9896 23.6353 55.1788 22.9763C54.368 22.3173 54.2402 21.1231 54.8992 20.3123C55.027 20.1565 55.2028 19.9887 55.4105 19.825C55.1748 19.785 54.9591 19.7291 54.7874 19.6572C53.8168 19.2658 53.3495 18.1594 53.7409 17.1889L53.7329 17.1929Z" fill="#FFDB57"/>
<path d="M58.4835 19.947C57.7754 19.947 57.2014 19.373 57.2014 18.6649C57.2014 17.9568 57.7754 17.3828 58.4835 17.3828C59.1916 17.3828 59.7656 17.9568 59.7656 18.6649C59.7656 19.373 59.1916 19.947 58.4835 19.947Z" fill="#A48A7B"/>
<path d="M66.9046 44.6793C58.6237 44.6793 51.9107 39.8726 51.9107 33.9432C51.9107 28.0138 58.6237 23.207 66.9046 23.207C75.1855 23.207 81.8984 28.0138 81.8984 33.9432C81.8984 39.8726 75.1855 44.6793 66.9046 44.6793Z" fill="white" stroke="#7C6656" stroke-linecap="round" stroke-linejoin="round"/>
<path d="M62.3515 42.6309C62.1438 43.7093 61.4328 45.1751 59.4238 46.7448C59.4238 46.7448 62.9705 46.2815 65.7305 44.3363" fill="white"/>
<path d="M62.3515 42.6309C62.1438 43.7093 61.4328 45.1751 59.4238 46.7448C59.4238 46.7448 62.9705 46.2815 65.7305 44.3363" stroke="#7C6656" stroke-linecap="round" stroke-linejoin="round"/>
<path d="M66.9239 31.3911C67.7347 29.9292 69.7237 29.0426 71.3533 30.3926C72.7792 31.5908 72.947 33.9793 71.6569 35.9164C70.6464 37.4342 68.9529 38.5765 67.2234 39.2834C66.9558 39.3913 66.6603 39.3873 66.3967 39.2714C64.6912 38.5126 63.0256 37.3223 62.071 35.7766C60.8409 33.8075 61.0805 31.415 62.5423 30.2727C64.2079 28.9627 66.173 29.9053 66.9239 31.3951V31.3911Z" fill="#EE7474"/>
<defs>
<filter id="filter0_f_1235_28982" x="34.9102" y="43.9473" width="10.5508" height="7.0918" filterUnits="userSpaceOnUse" color-interpolation-filters="sRGB">
<feFlood flood-opacity="0" result="BackgroundImageFix"/>
<feBlend mode="normal" in="SourceGraphic" in2="BackgroundImageFix" result="shape"/>
<feGaussianBlur stdDeviation="0.75" result="effect1_foregroundBlur_1235_28982"/>
</filter>
<filter id="filter1_f_1235_28982" x="14.543" y="46.8477" width="10.5508" height="7.0918" filterUnits="userSpaceOnUse" color-interpolation-filters="sRGB">
<feFlood flood-opacity="0" result="BackgroundImageFix"/>
<feBlend mode="normal" in="SourceGraphic" in2="BackgroundImageFix" result="shape"/>
<feGaussianBlur stdDeviation="0.75" result="effect1_foregroundBlur_1235_28982"/>
</filter>
</defs>
</svg>
