<svg width="140" height="89" viewBox="0 0 140 89" fill="none" xmlns="http://www.w3.org/2000/svg">
<path d="M34.6709 69.8555H28.0036L24.668 72.1759L28.0036 74.5001H34.6709L38.0027 72.1759L34.6709 69.8555Z" fill="#F0EFE8"/>
<path d="M45.8585 72.584H39.1911L35.8594 74.9044L39.1911 77.2248H45.8585L49.1941 74.9044L45.8585 72.584Z" fill="#F0EFE8"/>
<path d="M57.1788 69.8555H50.5115L47.1797 72.1759L50.5115 74.5001H57.1788L60.5144 72.1759L57.1788 69.8555Z" fill="#EAC89E"/>
<path d="M68.374 72.584H61.7067L58.3711 74.9044L61.7067 77.2248H68.374L71.7058 74.9044L68.374 72.584Z" fill="#F0EFE8"/>
<path d="M37.2491 78.3555H30.5818L27.25 80.6797L30.5818 83.0001H37.2491L40.5847 80.6797L37.2491 78.3555Z" fill="#EAC89E"/>
<path d="M79.0147 75.4043H72.3473L69.0117 77.7247L72.3473 80.0489H79.0147L82.3464 77.7247L79.0147 75.4043Z" fill="#EAC89E"/>
<path d="M90.2021 78.1328H83.5348L80.1992 80.4532L83.5348 82.7774H90.2021L93.5377 80.4532L90.2021 78.1328Z" fill="#F0EFE8"/>
<path d="M112.312 72.7559H105.644L102.312 75.0801L105.644 77.4005H112.312L115.647 75.0801L112.312 72.7559Z" fill="#F0EFE8"/>
<path d="M101.523 75.4043H94.8552L91.5234 77.7247L94.8552 80.0489H101.523L104.858 77.7247L101.523 75.4043Z" fill="#F0EFE8"/>
<path d="M112.718 78.1328H106.05L102.715 80.4532L106.05 82.7774H112.718L116.05 80.4532L112.718 78.1328Z" fill="#EAC89E"/>
<path d="M43.2515 58.7891H11.3077C10.2792 58.7891 9.44531 59.6229 9.44531 60.6515V64.8191C9.44531 65.8477 10.2792 66.6815 11.3077 66.6815H43.2515C44.2801 66.6815 45.1139 65.8477 45.1139 64.8191V60.6515C45.1139 59.6229 44.2801 58.7891 43.2515 58.7891Z" fill="#D3D2CD"/>
<path d="M79.853 58.7891H47.9093C46.8807 58.7891 46.0469 59.6229 46.0469 60.6515V64.8191C46.0469 65.8477 46.8807 66.6815 47.9093 66.6815H79.853C80.8816 66.6815 81.7155 65.8477 81.7155 64.8191V60.6515C81.7155 59.6229 80.8816 58.7891 79.853 58.7891Z" fill="#D3D2CD"/>
<path d="M116.462 58.7891H84.5187C83.4901 58.7891 82.6562 59.6229 82.6562 60.6515V64.8191C82.6562 65.8477 83.4901 66.6815 84.5187 66.6815H116.462C117.491 66.6815 118.325 65.8477 118.325 64.8191V60.6515C118.325 59.6229 117.491 58.7891 116.462 58.7891Z" fill="#D3D2CD"/>
<path d="M92.3186 38.581L90.1814 38.5162L90.002 40.2984C90.002 40.2984 92.8758 51.8547 82.9111 54.5071C78.7053 55.4689 72.9692 60.8615 69.1604 62.8232C68.0574 63.3918 64.1684 62.8232 64.1684 62.8232C64.1684 62.8232 62.806 61.5027 60.913 61.8614C59.6498 61.1401 57.1691 59.9303 54.0854 60.5371C51.6314 59.5181 50.0743 58.0259 46.2578 58.0984C48.0401 54.9346 51.3032 48.2176 52.139 41.7105C52.9748 35.2035 52.5321 27.7156 59.3826 22.6664C60.8672 23.8839 66.8972 21.6054 66.8972 21.6054C66.8972 21.6054 66.6301 19.1362 73.6867 19.369C80.7395 19.6018 93.5399 23.4068 92.3186 38.581Z" fill="white"/>
<path d="M81.0527 55.082C80.5413 57.4215 79.5375 60.925 77.8125 62.9287" stroke="#7C6656" stroke-linecap="round" stroke-linejoin="round"/>
<path d="M72.9453 57.1658C75.5481 65.1727 83.3948 62.4096 83.3948 62.4096C83.3948 62.4096 86.4021 64.9361 88.4134 61.4288C90.0736 58.5359 87.3143 56.143 85.7915 56.0743C84.2687 56.0056 82.4139 56.9063 81.9827 58.6618C81.9827 58.6618 80.1355 59.9022 77.651 55.9941" fill="white"/>
<path d="M72.9805 57.0132C72.9805 57.0132 73.5148 58.5207 73.8315 58.8413C74.6368 58.6047 78.4342 56.9064 78.4342 56.9064L77.4839 55.75C77.4839 55.75 77.1977 55.895 75.9535 56.3148C74.7093 56.7346 72.9805 57.0132 72.9805 57.0132Z" fill="white"/>
<path d="M72.9453 57.1658C75.5481 65.1727 83.3948 62.4096 83.3948 62.4096C83.3948 62.4096 86.4021 64.9361 88.4134 61.4288C90.0736 58.5359 87.3143 56.143 85.7915 56.0743C84.2687 56.0056 82.4139 56.9063 81.9827 58.6618C81.9827 58.6618 80.1355 59.9022 77.651 55.9941" stroke="#7C6656" stroke-linecap="round" stroke-linejoin="round"/>
<path d="M78.1711 57.0195L73.9883 58.7904" stroke="#7C6656" stroke-linecap="round" stroke-linejoin="round"/>
<path d="M71.2184 69.3004C71.2184 69.3004 71.6764 72.3383 71.0848 76.2731C70.9169 77.3951 71.4092 78.3034 71.7145 78.624C72.7831 79.7422 75.8287 79.727 76.6683 78.8988C77.5079 78.0744 76.9202 76.544 76.0424 75.8876L75.8859 75.8151C75.8859 75.8151 76.1416 73.7122 76.1798 70.5446C76.2027 68.4035 74.4967 66.2129 74.554 63.2246" fill="white"/>
<path d="M69.1664 68.404C69.1664 71.8961 65.4988 76.2736 65.4988 76.2736C65.4988 76.2736 65.8423 77.3498 65.4988 78.2467C65.1553 79.1435 64.2546 79.7809 62.6899 78.7657C59.7169 76.8384 60.5031 74.9721 61.8693 73.5295C63.8692 71.419 64.2737 67.7285 64.2737 67.7285" fill="white"/>
<path d="M65.498 78.2463C65.498 78.2463 63.086 78.4829 60.9297 75.3496L65.498 78.2463Z" fill="white"/>
<path d="M71.2184 69.3004C71.2184 69.3004 71.6764 72.3383 71.0848 76.2731C70.9169 77.3951 71.4092 78.3034 71.7145 78.624C72.7831 79.7422 75.8287 79.727 76.6683 78.8988C77.5079 78.0744 76.9202 76.544 76.0424 75.8876L75.8859 75.8151C75.8859 75.8151 76.1416 73.7122 76.1798 70.5446C76.2027 68.4035 74.4967 66.2129 74.554 63.2246" stroke="#7C6656" stroke-linecap="round" stroke-linejoin="round"/>
<path d="M68.2656 54.4004L71.2196 57.6253L74.975 55.6942" stroke="#7C6656" stroke-linecap="round" stroke-linejoin="round"/>
<g filter="url(#filter0_f_1235_28680)">
<ellipse cx="3.28786" cy="1.93879" rx="3.28786" ry="1.93879" transform="matrix(0.991139 0.132828 -0.132211 0.991221 63.7188 41.3359)" fill="#F5B0B0"/>
</g>
<g filter="url(#filter1_f_1235_28680)">
<ellipse cx="3.28786" cy="1.93879" rx="3.28786" ry="1.93879" transform="matrix(0.991139 0.132828 -0.132211 0.991221 81.6562 44.0078)" fill="#F5B0B0"/>
</g>
<path d="M72.0414 40.4642C71.8849 41.4679 70.9461 42.1511 69.9462 41.9984C68.9424 41.842 68.2593 40.9031 68.4119 39.9032C68.5684 38.8995 69.5073 38.2163 70.5072 38.369C71.5109 38.5255 72.1941 39.4643 72.0414 40.4642Z" fill="#7C6656"/>
<path d="M84.5062 42.2884C84.3498 43.2922 83.4109 43.9753 82.411 43.8226C81.4073 43.6662 80.7241 42.7273 80.8768 41.7274C81.0333 40.7237 81.9721 40.0405 82.972 40.1932C83.9757 40.3497 84.6589 41.2885 84.5062 42.2884Z" fill="#7C6656"/>
<path d="M72.9464 45.5234C72.9464 45.5234 72.3357 50.2902 75.6637 50.855C78.4649 51.3321 79.1557 46.1913 79.1557 46.1913L72.9502 45.5234H72.9464Z" fill="#F299A0" stroke="#7C6656" stroke-linecap="round" stroke-linejoin="round"/>
<path d="M71.3789 77.623C71.3789 77.623 74.0428 79.1458 77.1303 77.8177" stroke="#7C6656" stroke-linecap="round" stroke-linejoin="round"/>
<path d="M69.1664 68.404C69.1664 71.8961 65.4988 76.2736 65.4988 76.2736C65.4988 76.2736 65.8423 77.3498 65.4988 78.2467C65.1553 79.1435 64.2546 79.7809 62.6899 78.7657C59.7169 76.8384 60.5031 74.9721 61.8693 73.5295C63.8692 71.419 64.2737 67.7285 64.2737 67.7285" stroke="#7C6656" stroke-linecap="round" stroke-linejoin="round"/>
<path d="M65.498 78.2463C65.498 78.2463 63.086 78.4829 60.9297 75.3496" stroke="#7C6656" stroke-linecap="round" stroke-linejoin="round"/>
<path d="M63.2525 62.8385L77.0337 62.6133C77.0337 62.6133 78.4839 65.8535 78.8465 69.8149L66.5575 69.8684H61.8633C61.8633 69.8684 62.4357 65.5863 63.2525 62.8346V62.8385Z" fill="#F3A2AD" stroke="#7C6656" stroke-linecap="round" stroke-linejoin="round"/>
<path d="M76.8385 26.1406C76.8385 26.1406 78.5978 32.2889 75.9492 36.2123" stroke="#7C6656" stroke-linecap="round" stroke-linejoin="round"/>
<path d="M78.3672 27.5898C78.3672 27.5898 84.069 30.0705 83.3629 36.6959" stroke="#7C6656" stroke-linecap="round" stroke-linejoin="round"/>
<path d="M56.8117 35.9902C55.1935 42.3065 56.2773 46.3557 58.365 48.7181C61.7959 52.6033 66.8604 53.794 71.0394 54.6718" stroke="#7C6656" stroke-linecap="round" stroke-linejoin="round"/>
<path d="M73.6875 55.0841C84.4041 56.5726 88.5984 51.8631 89.9074 48.1954C91.2165 44.5278 90.2051 41.3067 90.0067 40.2992C90.1326 39.6084 90.3845 36.998 90.0525 35.334" stroke="#7C6656" stroke-linecap="round" stroke-linejoin="round"/>
<path d="M67.4453 19.9618C67.4453 19.9618 75.1088 17.7558 83.1996 21.87C91.2905 25.9841 93.3858 32.1515 92.321 38.5822" stroke="#7C6656" stroke-linecap="round" stroke-linejoin="round"/>
<path d="M60.1994 23.0371C60.1994 23.0371 53.971 24.0218 52.7421 37.1809C51.6658 48.6761 47.6585 56.0914 46.2617 58.0951" stroke="#7C6656" stroke-linecap="round" stroke-linejoin="round"/>
<path d="M57.7613 50.3164C57.7613 50.3164 56.8415 57.3387 54.0898 60.5369" stroke="#7C6656" stroke-linecap="round" stroke-linejoin="round"/>
<path d="M70.3158 29.3047C70.3158 29.3047 68.1137 37.2009 56.5117 35.8843" stroke="#7C6656" stroke-linecap="round" stroke-linejoin="round"/>
<path d="M63.1203 21.6375C63.1203 21.6375 65.1735 18.5996 67.8183 18.9431C70.4631 19.2866 70.1235 22.3283 67.8908 23.561C67.8908 23.561 71.4478 23.2977 70.528 26.076C69.5357 29.0834 65.8414 27.8507 65.8414 27.8507C65.8414 27.8507 66.162 30.8619 62.9142 31.8732C59.6626 32.8846 60.2465 28.6941 60.2465 28.6941C60.2465 28.6941 58.3879 30.9077 57.1399 29.1979C55.8919 27.492 56.7506 25.1868 58.7886 25.0074C58.7886 25.0074 56.6285 23.5915 58.7733 21.1643C60.3762 19.3476 62.9981 19.05 63.1203 21.6337V21.6375Z" fill="#F5B1B1" stroke="#7C6656" stroke-linecap="round" stroke-linejoin="round"/>
<path d="M60.2899 26.6514C60.9197 27.594 62.4462 27.678 63.698 26.8384C64.9536 26.0026 65.4612 24.5599 64.8315 23.6173C64.2018 22.6746 62.6752 22.5907 61.4234 23.4303C60.1678 24.2661 59.6602 25.7087 60.2899 26.6514Z" fill="white"/>
<path d="M63.0342 62.7511C62.1145 57.3966 63.7212 53.0039 63.7212 53.0039" stroke="#7C6656" stroke-linecap="round" stroke-linejoin="round"/>
<path d="M62.9136 54.4863C62.9136 54.4863 62.3526 58.9363 60.9023 61.375" stroke="#7C6656" stroke-linecap="round" stroke-linejoin="round"/>
<path d="M85.1888 52.8411L80.0099 49.9062C80.0099 49.9062 78.4375 56.1385 78.4375 56.524" fill="#D6BEB1"/>
<path d="M85.1888 52.8411L80.0099 49.9062C80.0099 49.9062 78.4375 56.1385 78.4375 56.524" stroke="#7C6656" stroke-linecap="round" stroke-linejoin="round"/>
<path d="M89.7593 53.7447C89.7593 53.7447 82.7218 50.2641 82.5386 50.5389C82.3554 50.8137 78.4397 56.5231 78.4397 56.5231L75.7109 66.6291L80.9395 69.5258L85.004 68.4075C85.004 68.4075 82.9927 61.9425 84.1835 60.5418C85.3704 59.1374 89.7593 53.7485 89.7593 53.7485V53.7447Z" fill="#D6BEB1" stroke="#7C6656" stroke-linecap="round" stroke-linejoin="round"/>
<path d="M86.1023 55.082L82.1256 60.0243C82.1256 60.0243 81.8202 65.0735 81.8164 65.6231C81.8126 66.1727 82.7362 67.7336 82.7362 67.7336" stroke="#7C6656" stroke-linecap="round" stroke-linejoin="round"/>
<path d="M64.1328 57.0427C66.7356 65.0497 74.5823 62.2866 74.5823 62.2866C74.5823 62.2866 77.5896 64.8131 79.6009 61.3057C81.2611 58.4129 78.5018 56.0199 76.979 55.9512C75.4562 55.8825 73.6014 56.7832 73.1702 58.5388C73.1702 58.5388 71.323 59.7791 68.8385 55.8711" fill="white"/>
<path d="M64.168 56.8941C64.168 56.8941 64.7023 58.4016 65.019 58.7222C65.8243 58.4856 69.6217 56.7872 69.6217 56.7872L68.6714 55.6309C68.6714 55.6309 68.3852 55.7759 67.141 56.1957C65.8968 56.6155 64.168 56.8941 64.168 56.8941Z" fill="white"/>
<path d="M64.1328 57.0427C66.7356 65.0497 74.5823 62.2866 74.5823 62.2866C74.5823 62.2866 77.5896 64.8131 79.6009 61.3057C81.2611 58.4129 78.5018 56.0199 76.979 55.9512C75.4562 55.8825 73.6014 56.7832 73.1702 58.5388C73.1702 58.5388 71.323 59.7791 68.8385 55.8711" stroke="#7C6656" stroke-linecap="round" stroke-linejoin="round"/>
<path d="M69.3547 56.9023L65.1719 58.6732" stroke="#7C6656" stroke-linecap="round" stroke-linejoin="round"/>
<path d="M18.1408 75.7997V67.832L17.1602 65.0126L17.4053 62.6836L34.4441 63.4191L35.6699 68.0772L34.4441 68.8126L30.8892 69.6707L30.3989 75.3094L30.644 76.7804L31.3795 77.761L30.644 78.8643L28.9279 79.1094L26.3537 78.3739L25.2505 77.1481L24.7602 75.3094V69.6707L23.6569 73.4707L23.4118 76.4126L24.2698 77.1481L24.515 78.3739L23.2892 79.1094L20.8376 78.8643L18.6311 77.761L18.1408 75.7997Z" fill="white"/>
<path d="M40.1445 62.3379L45.4876 71.028" stroke="#7C6656" stroke-linecap="round" stroke-linejoin="round"/>
<path d="M33.7366 53.1309C33.7366 53.1309 37.7591 58.5121 39.7399 59.8287C39.7399 59.8287 43.2472 60.5233 41.5374 63.5803C40.2055 65.9618 36.9806 64.6566 37.1561 62.7102C37.1561 62.7102 33.3855 60.0921 32.3359 58.0197" fill="white"/>
<path d="M44.1193 72.6064C44.1193 72.6064 45.9818 70.7859 46.6764 70.5989C47.371 70.4119 47.9358 70.7859 48.2831 70.5989C48.6304 70.4119 48.7602 72.6598 49.1494 72.8811C49.5387 73.1025 50.4966 73.4498 50.3211 73.6254C50.1455 73.8009 48.0198 74.4497 47.7602 74.839C47.5007 75.2283 46.7184 76.7472 46.1535 77.2243C45.5887 77.7013 43.6919 76.835 42.8179 76.877C41.944 76.919 41.5547 76.7472 41.5547 76.6175C41.5547 76.4877 42.8179 73.9574 42.8179 73.9574" fill="#B2B2B2"/>
<path d="M44.1193 72.6064C44.1193 72.6064 45.9818 70.7859 46.6764 70.5989C47.371 70.4119 47.9358 70.7859 48.2831 70.5989C48.6304 70.4119 48.7602 72.6598 49.1494 72.8811C49.5387 73.1025 50.4966 73.4498 50.3211 73.6254C50.1455 73.8009 48.0198 74.4497 47.7602 74.839C47.5007 75.2283 46.7184 76.7472 46.1535 77.2243C45.5887 77.7013 43.6919 76.835 42.8179 76.877C41.944 76.919 41.5547 76.7472 41.5547 76.6175C41.5547 76.4877 42.8179 73.9574 42.8179 73.9574" stroke="#7C6656" stroke-linecap="round" stroke-linejoin="round"/>
<path d="M19.6575 50.9675C16.2036 50.4523 16.3563 48.0097 16.3563 48.0097C16.3563 48.0097 13.2382 48.9295 10.7804 46.7121C7.20442 43.4911 8.71955 40.9226 8.71955 40.9226C8.71955 40.9226 4.89546 40.3806 4.19705 36.5985C2.93762 29.7862 9.1012 28.2252 9.1012 28.2252C9.1012 28.2252 12.2765 22.8631 14.3526 21.3556C23.5885 12.0091 35.1447 16.0545 35.1447 16.0545C35.1447 16.0545 46.2926 15.3867 53.1126 25.7407C57.4557 32.3317 55.9902 39.3922 55.9902 39.3922C55.9902 39.3922 58.925 42.5408 57.6045 46.0061C56.1314 49.8798 53.0286 49.8607 53.0286 49.8607C53.0286 49.8607 53.2538 52.7574 49.922 54.4443C46.8002 56.0243 44.3882 54.5969 44.3882 54.5969C44.3882 54.5969 40.3847 58.4859 34.9653 54.7229" fill="white"/>
<path d="M33.4649 52.7734L35.3502 55.1893C35.3502 55.1893 34.732 56.8838 33.4611 57.7654C33.4229 56.7769 32.9688 52.9375 32.9688 52.9375" fill="#FFADBE"/>
<path d="M33.7366 53.1309C33.7366 53.1309 37.7591 58.5121 39.7399 59.8287C39.7399 59.8287 43.2472 60.5233 41.5374 63.5803C40.2055 65.9618 36.9806 64.6566 37.1561 62.7102C37.1561 62.7102 33.3855 60.0921 32.3359 58.0197" stroke="#7C6656" stroke-linecap="round" stroke-linejoin="round"/>
<path d="M35.3423 55.1875C35.3423 55.1875 34.8652 56.779 32.7891 58.3742" stroke="#7C6656" stroke-linecap="round" stroke-linejoin="round"/>
<path d="M24.8529 68.668C24.8529 68.668 24.7384 76.4306 25.3185 77.4611C25.9024 78.4877 27.929 79.106 29.3945 79.1365C30.86 79.167 31.4707 78.1328 31.2417 77.4267C31.0127 76.7207 30.3028 76.381 30.3028 76.381" fill="white"/>
<path d="M32.3346 56.6699C32.3346 56.6699 33.4032 60.62 32.2812 65.6424C31.1591 70.6649 29.957 72.0999 30.476 76.2178" fill="white"/>
<path d="M18.2329 68.5996C18.2329 68.5996 17.8665 76.3547 18.4161 77.4042C18.9657 78.4499 20.9731 79.133 22.4348 79.2094C23.9004 79.2857 24.5415 78.2705 24.3392 77.5606C24.1332 76.8508 23.4347 76.4844 23.4347 76.4844" fill="white"/>
<path d="M26.1011 56.8496C26.1011 56.8496 27.0399 60.8302 25.7576 65.8145C24.4752 70.7988 23.2273 72.1918 23.6089 76.325" fill="white"/>
<path d="M24.8529 68.668C24.8529 68.668 24.7384 76.4306 25.3185 77.4611C25.9024 78.4877 27.929 79.106 29.3945 79.1365C30.86 79.167 31.4707 78.1328 31.2417 77.4267C31.0127 76.7207 30.3028 76.381 30.3028 76.381" stroke="#7C6656" stroke-linecap="round" stroke-linejoin="round"/>
<path d="M32.3346 56.6699C32.3346 56.6699 33.4032 60.62 32.2812 65.6424C31.1591 70.6649 29.957 72.0999 30.476 76.2178" stroke="#7C6656" stroke-linecap="round" stroke-linejoin="round"/>
<path d="M18.2329 68.5996C18.2329 68.5996 17.8665 76.3547 18.4161 77.4042C18.9657 78.4499 20.9731 79.133 22.4348 79.2094C23.9004 79.2857 24.5415 78.2705 24.3392 77.5606C24.1332 76.8508 23.4347 76.4844 23.4347 76.4844" stroke="#7C6656" stroke-linecap="round" stroke-linejoin="round"/>
<path d="M26.1011 56.8496C26.1011 56.8496 27.0399 60.8302 25.7576 65.8145C24.4752 70.7988 23.2273 72.1918 23.6089 76.325" stroke="#7C6656" stroke-linecap="round" stroke-linejoin="round"/>
<path d="M24.3151 77.4163C24.3151 77.4163 23.838 76.3744 22.1931 77.4163C22.1931 77.4163 19.6972 78.5002 18.2812 76.9316" stroke="#7C6656" stroke-linecap="round" stroke-linejoin="round"/>
<path d="M31.2916 77.4163C31.2916 77.4163 30.8146 76.3744 29.1697 77.4163C29.1697 77.4163 26.6737 78.5002 25.2578 76.9316" stroke="#7C6656" stroke-linecap="round" stroke-linejoin="round"/>
<path d="M22.0467 48.8651C22.0467 48.8651 17.7608 54.7271 17.0968 63.0661C16.8907 65.6498 16.7266 67.5084 16.7266 67.5084C16.7266 67.5084 26.4585 72.1722 35.7058 68.3328C35.7058 68.3328 34.786 65.5315 34.0647 61.1426C33.3434 56.7537 32.9656 52.9296 32.9656 52.9296C32.9656 52.9296 32.9198 53.6013 29.9849 53.3379C27.0501 53.0746 25.9051 50.2313 25.9051 50.2313L22.0467 48.8574V48.8651Z" fill="#FFADBE"/>
<path d="M32.9617 52.9376C32.9617 52.9376 33.3395 56.7617 34.0608 61.1506C34.7821 65.5395 35.7019 68.3408 35.7019 68.3408C26.4546 72.1801 16.7227 67.5164 16.7227 67.5164C16.7227 67.5164 16.8868 65.6578 17.0929 63.0741C17.7569 54.7313 22.0428 48.873 22.0428 48.873" stroke="#7C6656" stroke-linecap="round" stroke-linejoin="round"/>
<path d="M15.3838 61.4634C15.3838 61.4634 16.2693 62.4747 16.9753 64.5471C17.6813 66.6194 17.75 70.4664 18.2767 71.4778C18.8034 72.4891 16.6204 76.0041 15.4754 75.9583C14.3267 75.9125 11.4376 77.0536 11.304 76.9315C11.1705 76.8094 5.49158 74.9202 5.04887 74.4355C3.94592 74.4813 2.84296 73.0692 3.01852 72.3174C3.19407 71.5655 4.15582 69.6917 4.28558 68.6002C4.41534 67.5087 8.07914 62.4175 8.78518 61.4481C9.49123 60.4787 10.8003 59.9902 10.8003 59.9902L11.3918 60.1467L10.8003 61.2268C10.8003 61.2268 9.40345 63.8907 9.44925 64.5967C9.49504 65.3027 10.7621 67.2186 12.0864 66.9972C13.4107 66.7759 14.3954 65.8905 14.7236 62.7495C14.7236 62.7495 14.2847 61.7 14.1778 61.4634C14.071 61.2268 14.4641 60.8642 14.4641 60.8642L15.3838 61.4634Z" fill="#EDF3E7" stroke="#7C6656" stroke-linecap="round" stroke-linejoin="round"/>
<path d="M15.4979 70.3789C15.4979 70.3789 12.9829 71.085 12.4982 71.4819C12.0135 71.8788 9.10156 73.9091 9.10156 73.9091" stroke="#7C6656" stroke-linecap="round" stroke-linejoin="round"/>
<path d="M10.8028 60.9414C10.8028 60.9414 8.08168 64.2923 7.1581 67.147C6.93674 67.8225 7.02452 69.017 7.50921 68.5705C7.9939 68.124 7.90612 67.3836 7.90612 67.3836" stroke="#7C6656" stroke-linecap="round" stroke-linejoin="round"/>
<path d="M5.78833 71.3477C5.78833 71.3477 5.70055 72.9353 6.44857 73.5078" stroke="#7C6656" stroke-linecap="round" stroke-linejoin="round"/>
<path d="M15.2758 75.6262C15.2758 75.6262 13.6004 74.7446 12.9363 74.8744C12.2722 75.0041 11.3906 75.2446 11.3906 75.2446" stroke="#7C6656" stroke-linecap="round" stroke-linejoin="round"/>
<g filter="url(#filter2_f_1235_28680)">
<ellipse cx="3.28786" cy="1.93879" rx="3.28786" ry="1.93879" transform="matrix(0.975604 0.219536 -0.218929 0.975741 22.3438 36.8789)" fill="#F5B0B0"/>
</g>
<g filter="url(#filter3_f_1235_28680)">
<ellipse cx="3.28786" cy="1.93879" rx="3.28786" ry="1.93879" transform="matrix(0.975604 0.219536 -0.218929 0.975741 40.3984 41.7148)" fill="#F5B0B0"/>
</g>
<path d="M30.993 36.7198C30.6991 37.7503 29.6267 38.3494 28.5963 38.0594C27.5658 37.7655 26.9666 36.6931 27.2567 35.6627C27.5505 34.6322 28.623 34.033 29.6534 34.3231C30.6839 34.6169 31.283 35.6894 30.993 36.7198Z" fill="#7C6656"/>
<path d="M43.8016 40.3546C43.5077 41.385 42.4353 41.9842 41.4048 41.6942C40.3744 41.4003 39.7752 40.3279 40.0653 39.2974C40.3591 38.267 41.4316 37.6678 42.462 37.9578C43.4924 38.2517 44.0916 39.3241 43.8016 40.3546Z" fill="#7C6656"/>
<path d="M38.7437 44.7688C38.7437 44.7688 36.576 46.2839 33.6869 45.4634C30.7979 44.6428 29.8438 42.2461 29.8438 42.2461" stroke="#7C6656" stroke-linecap="round" stroke-linejoin="round"/>
<path d="M15.7031 43.1738C15.9207 43.5707 16.1649 43.9333 16.4435 44.2691C19.0769 47.433 24.4962 50.1885 27.7631 50.906" stroke="#7C6656" stroke-linecap="round" stroke-linejoin="round"/>
<path d="M50.8358 36.918C50.8053 37.2996 50.8396 37.7423 50.8511 37.8873C50.9884 38.9636 52.3547 42.5549 50.7137 46.3332C49.0688 50.1115 44.5653 53.2104 37.2683 53.1303C37.2683 53.1303 33.5091 53.1303 31.5703 52.1952" stroke="#7C6656" stroke-linecap="round" stroke-linejoin="round"/>
<path d="M49.764 31.2031C49.764 31.2031 50.2906 35.4356 47.8672 37.8896" stroke="#7C6656" stroke-linecap="round" stroke-linejoin="round"/>
<path d="M38.7603 27.7676C38.7603 27.7676 38.5542 32.8206 35.5469 35.0227" stroke="#7C6656" stroke-linecap="round" stroke-linejoin="round"/>
<path d="M26.9092 26.7617C26.9092 26.7617 25.9932 31.2919 22.5508 33.6466" stroke="#7C6656" stroke-linecap="round" stroke-linejoin="round"/>
<path d="M19.0562 32.0234C19.0562 32.0234 18.0524 38.2328 15.3008 39.3968" stroke="#7C6656" stroke-linecap="round" stroke-linejoin="round"/>
<path d="M19.6614 50.9675C16.2075 50.4523 16.3602 48.0097 16.3602 48.0097C16.3602 48.0097 13.2421 48.9295 10.7843 46.7121C7.20832 43.4911 8.72346 40.9226 8.72346 40.9226C8.72346 40.9226 4.89937 40.3806 4.20096 36.5985C2.94153 29.7862 9.1051 28.2252 9.1051 28.2252C9.1051 28.2252 12.2804 22.8631 14.3565 21.3556C23.5924 12.0091 35.1486 16.0545 35.1486 16.0545C35.1486 16.0545 46.2965 15.3867 53.1165 25.7407C57.4596 32.3317 55.9941 39.3922 55.9941 39.3922C55.9941 39.3922 58.9289 42.5408 57.6085 46.0061C56.1353 49.8798 53.0325 49.8607 53.0325 49.8607C53.0325 49.8607 53.2577 52.7574 49.9259 54.4443C46.8041 56.0243 44.3921 54.5969 44.3921 54.5969C44.3921 54.5969 40.3886 58.4859 34.9692 54.7229" stroke="#7C6656" stroke-linecap="round" stroke-linejoin="round"/>
<path d="M25.9609 50.418C25.9609 50.418 26.8464 54.2917 32.3382 53.204" stroke="#7C6656" stroke-linecap="round" stroke-linejoin="round"/>
<path d="M21.7238 48.8652C21.7238 48.8652 14.9382 51.323 11.553 57.6011C10.7248 58.5972 9.94624 60.2726 10.5149 61.6885C11.1522 63.2724 13.4345 63.757 14.7283 62.7533C15.835 61.8908 15.3007 59.7192 15.3007 59.7192C15.3007 59.7192 18.663 54.9181 21.0559 53.6587" fill="white"/>
<path d="M21.9793 49.1729C21.7923 49.1271 19.9909 49.3981 19.281 50.0392C18.5712 50.6804 17.7773 50.9628 17.7773 50.9628C17.7773 50.9628 18.388 53.0275 19.8611 54.4854C20.3344 54.1114 23.2616 52.2032 23.2616 52.2032C23.2616 52.2032 23.3723 49.5011 21.9793 49.1691V49.1729Z" fill="#FFADBE"/>
<path d="M21.7238 48.8652C21.7238 48.8652 14.9382 51.323 11.553 57.6011C10.7248 58.5972 9.94624 60.2726 10.5149 61.6885C11.1522 63.2724 13.4345 63.757 14.7283 62.7533C15.835 61.8908 15.3007 59.7192 15.3007 59.7192C15.3007 59.7192 18.663 54.9181 21.0559 53.6587" stroke="#7C6656" stroke-linecap="round" stroke-linejoin="round"/>
<path d="M17.7773 50.9668C17.7773 50.9668 18.033 53.3216 19.9336 54.4321" stroke="#7C6656" stroke-linecap="round" stroke-linejoin="round"/>
<path d="M38.7734 62.918L43.586 75.2146L44.2997 75.81L45.4866 75.0467L44.7118 74.1536L40.1435 62.3379L38.7734 62.918Z" fill="#CECECE" stroke="#7C6656" stroke-linecap="round" stroke-linejoin="round"/>
<path d="M48.0206 72.8066C48.0206 72.8066 45.4903 73.444 45.2422 73.9592" stroke="#7C6656" stroke-linecap="round" stroke-linejoin="round"/>
<path d="M130.767 30.1719C133.496 28.5309 135.496 25.5731 135.023 22.2223C134.389 17.7532 129.882 14.4443 125.413 15.0779C123.093 15.4061 121.139 16.6808 119.887 18.4554" fill="white"/>
<path d="M130.767 30.1719C133.496 28.5309 135.496 25.5731 135.023 22.2223C134.389 17.7532 129.882 14.4443 125.413 15.0779C123.093 15.4061 121.139 16.6808 119.887 18.4554" stroke="#7C6656" stroke-linecap="round" stroke-linejoin="round"/>
<path d="M100.744 63.0312L97.3164 64.7334L99.3964 66.6302L102.037 64.2792" fill="#EDF3E7"/>
<path d="M100.744 63.0312L97.3164 64.7334L99.3964 66.6302L102.037 64.2792" stroke="#7C6656" stroke-linecap="round" stroke-linejoin="round"/>
<path d="M111.559 53.293C109.78 56.6896 103.411 59.3306 103.411 59.3306C101.598 58.2887 100.224 58.6665 99.1361 60.5175C97.9148 62.628 99.3384 65.227 101.831 65.6087C104.319 65.9941 105.277 63.3531 105.277 63.3531C105.277 63.3531 111.662 61.2541 114.791 57.8994" fill="white"/>
<path d="M111.559 53.293C109.78 56.6896 103.411 59.3306 103.411 59.3306C101.598 58.2887 100.224 58.6665 99.1361 60.5175C97.9148 62.628 99.3384 65.227 101.831 65.6087C104.319 65.9941 105.277 63.3531 105.277 63.3531C105.277 63.3531 111.662 61.2541 114.791 57.8994" stroke="#7C6656" stroke-linecap="round" stroke-linejoin="round"/>
<path d="M102.126 63.9473C102.126 63.9473 107.763 64.722 108.469 64.6151C109.175 64.5083 114.789 64.1343 114.789 64.1343L114.194 75.0875L104.073 76.3507C104.073 76.3507 101.424 65.2372 102.126 63.9511V63.9473Z" fill="#EDF3E7" stroke="#7C6656" stroke-linecap="round" stroke-linejoin="round"/>
<path d="M124.225 75.1531L123.441 69.53L121.871 69.9224L122.394 77.2454L121.087 79.207L118.471 79.5993L116.641 78.4224V77.507L117.425 76.4608V74.3685L117.033 69.2685L124.225 64.9531L128.802 68.6147L129.325 77.507L128.148 79.207L125.402 79.5993L123.441 78.4224V77.507L124.225 76.7224V75.1531Z" fill="white"/>
<path d="M123.969 71.3848C124.175 72.6671 124.423 76.35 124.423 76.35" stroke="#7C6656" stroke-linecap="round" stroke-linejoin="round"/>
<path d="M124.804 76.2821C124.804 76.2821 123.629 76.7897 123.633 77.7476C123.633 78.7055 124.362 79.8238 126.858 79.4421C129.35 79.0605 129.281 77.3278 129.224 74.7288C129.167 72.1794 128.846 68.4316 128.846 68.4316" stroke="#7C6656" stroke-linecap="round" stroke-linejoin="round"/>
<path d="M117.008 71.3867C117.214 72.669 117.462 76.3519 117.462 76.3519" stroke="#7C6656" stroke-linecap="round" stroke-linejoin="round"/>
<path d="M117.844 76.284C117.844 76.284 116.668 76.7916 116.672 77.7496C116.672 78.7075 117.401 79.8257 119.897 79.4441C122.389 79.0624 122.32 77.3298 122.263 74.7307C122.206 72.1814 121.885 68.4336 121.885 68.4336" stroke="#7C6656" stroke-linecap="round" stroke-linejoin="round"/>
<path d="M126.439 50.1816C126.439 50.1816 131.011 53.7233 132.778 68.7601C131.419 70.2944 118.993 71.5881 113.818 71.1149C113.818 71.1149 114.192 70.1684 114.272 69.18C114.272 69.18 114.176 58.013 111.547 54.166" fill="white"/>
<path d="M113.2 54.0448C113.2 54.0448 114.551 55.4493 115.325 55.5714C116.001 56.5332 116.138 57.2659 116.547 60.1015C116.955 62.9372 117.653 64.0554 116.169 64.0859C114.684 64.1203 114.199 64.0974 114.199 64.0974C114.199 64.0974 113.352 56.3156 111.555 54.1631C112.971 54.0525 113.207 54.041 113.207 54.041L113.2 54.0448Z" fill="#BB83CA"/>
<path d="M126.439 50.1816C126.439 50.1816 131.011 53.7233 132.778 68.7601C131.419 70.2944 118.993 71.5881 113.818 71.1149C113.818 71.1149 114.192 70.1684 114.272 69.18C114.272 69.18 114.176 58.013 111.547 54.166" stroke="#7C6656" stroke-linecap="round" stroke-linejoin="round"/>
<path d="M118.32 53.2742C121.628 52.8086 127.632 49.8012 130.498 46.8472C133.364 43.8933 133.734 38.016 130.204 28.3794C126.674 18.7429 117.178 18.0063 117.178 18.0063C117.178 18.0063 109.733 17.0941 103.271 21.4106C96.81 25.727 95.5239 31.1998 96.6765 37.8633C96.4589 38.9281 94.8179 42.4011 96.1689 46.2939C97.5199 50.1866 101.691 53.4726 108.973 53.9535C108.973 53.9535 112.683 54.358 116.209 53.7283" fill="white"/>
<path d="M122.57 27.1348C122.57 27.1348 124.116 34.5654 130.768 34.7333L122.57 27.1348Z" fill="white"/>
<path d="M120.904 52.6322C120.904 52.6322 119.98 54.4985 119.316 54.9602C119.339 55.7884 119.675 56.5784 119.675 56.5784C119.675 56.5784 123.079 54.8725 124.198 53.0635C125.175 52.575 128.9 54.1359 127.091 57.8608C125.77 58.8797 121.69 61.3337 121.69 61.3337C121.69 61.3337 121.973 62.9099 122.518 63.0244C123.064 63.1389 128.373 61.8528 131.155 59.7766C130.293 57.086 129.251 52.304 126.285 50.0332C125.232 50.6362 122.339 52.2277 120.904 52.6322Z" fill="#BB83CA"/>
<path d="M123.977 53.0992C123.977 53.0992 125.022 52.0038 126.568 53.5304C127.755 54.7059 128.144 56.7477 127.106 57.9651" stroke="#7C6656" stroke-linecap="round" stroke-linejoin="round"/>
<path d="M120.822 53.0625C120.822 53.0625 120.628 54.2685 119.655 54.8791C119.342 55.0738 119.197 55.4516 119.342 55.7874C120.002 57.3407 121.654 61.2297 122.257 62.7067C122.387 63.0273 122.727 63.2066 123.063 63.1379C124.44 62.8593 127.974 62.0197 131.005 60.2451" stroke="#7C6656" stroke-linecap="round" stroke-linejoin="round"/>
<path d="M117.031 42.6836C117.031 42.6836 117.833 43.3782 118.336 44.2674" stroke="#7C6656" stroke-linecap="round" stroke-linejoin="round"/>
<path d="M118.324 53.2703C121.632 52.8046 127.636 49.7973 130.502 46.8433C133.368 43.8894 133.738 38.0121 130.208 28.3755C126.678 18.739 117.182 18.0024 117.182 18.0024C117.182 18.0024 109.736 17.0902 103.275 21.4067C96.8139 25.7231 95.5278 31.1959 96.6804 37.8594C96.4628 38.9242 94.8218 42.3972 96.1728 46.29C97.5238 50.1827 101.695 53.4687 108.977 53.9496C108.977 53.9496 112.687 54.3541 116.213 53.7244" stroke="#7C6656" stroke-linecap="round" stroke-linejoin="round"/>
<path d="M122.574 27.1309C122.574 27.1309 124.12 34.5615 130.772 34.7294" stroke="#7C6656" stroke-linecap="round" stroke-linejoin="round"/>
<g filter="url(#filter4_f_1235_28680)">
<ellipse cx="3.28786" cy="1.93879" rx="3.28786" ry="1.93879" transform="matrix(0.993755 -0.111582 0.1122 0.993685 99.8828 42.1309)" fill="#F5B0B0"/>
</g>
<g filter="url(#filter5_f_1235_28680)">
<ellipse cx="3.28786" cy="1.93879" rx="3.28786" ry="1.93879" transform="matrix(0.993613 -0.112845 0.113463 0.993542 118.625 39.5527)" fill="#F5B0B0"/>
</g>
<path d="M107.891 44.6616C107.891 44.6616 109.753 46.0165 112.73 45.631C115.711 45.2455 117.065 43.4785 117.065 43.4785" stroke="#7C6656" stroke-linecap="round" stroke-linejoin="round"/>
<path d="M122.743 36.4375L121.945 37.0443" stroke="#7C6656" stroke-linecap="round" stroke-linejoin="round"/>
<path d="M101.098 39.1133L102.128 39.369" stroke="#7C6656" stroke-linecap="round" stroke-linejoin="round"/>
<path d="M120.054 37.0322C120.142 38.0436 119.397 38.9328 118.386 39.0206C117.375 39.1084 116.485 38.3642 116.398 37.3528C116.31 36.3415 117.054 35.4522 118.065 35.3645C119.077 35.2767 119.966 36.0209 120.054 37.0322Z" fill="#7C6656"/>
<path d="M106.937 38.7197C107.024 39.7311 106.28 40.6203 105.269 40.7081C104.257 40.7959 103.368 40.0517 103.28 39.0403C103.193 38.029 103.937 37.1397 104.948 37.052C105.96 36.9642 106.849 37.7084 106.937 38.7197Z" fill="#7C6656"/>
<path d="M120.906 52.6309C120.906 52.6309 120.841 54.9971 117.059 55.6344C114.708 56.0275 113.578 54.4857 113.578 54.4857" stroke="#7C6656" stroke-linecap="round" stroke-linejoin="round"/>
<path d="M126.438 50.1816C126.438 50.1816 131.01 53.7233 132.777 68.7602" stroke="#7C6656" stroke-linecap="round" stroke-linejoin="round"/>
<path d="M121.94 23.7891C121.94 23.7891 114.826 31.9944 107.426 25.7355" stroke="#7C6656" stroke-linecap="round" stroke-linejoin="round"/>
<path d="M115.129 27.9008C115.129 27.9008 106.466 33.1217 101.695 26.1758" stroke="#7C6656" stroke-linecap="round" stroke-linejoin="round"/>
<path d="M114.305 64.1077C114.751 64.1306 115.583 64.1573 116.159 64.0886C116.988 63.9932 116.999 63.3292 116.999 63.3292C116.999 63.3292 116.087 56.887 115.992 56.5321C115.896 56.1771 115.316 55.5703 115.316 55.5703" stroke="#7C6656" stroke-linecap="round" stroke-linejoin="round"/>
<path d="M113.993 64.0885C113.993 64.0885 108.91 66.3058 107.887 66.9775C106.864 67.6492 104.242 66.5386 104.242 66.5386L102.124 63.9473L101.09 64.1076C101.09 64.1076 101.773 67.653 101.09 68.7598C100.407 69.8666 99.4983 76.7286 99.7006 77.0301C99.9029 77.3316 101.449 79.8543 104.948 80.358C108.448 80.8618 112.886 79.7856 114.245 79.5184C115.604 79.2513 116.638 78.3658 115.917 77.0415C115.195 75.7172 115.413 76.324 115.123 72.9923C115.123 72.9923 114.806 63.3672 113.989 64.0885C113.989 64.0885 114.112 64.0961 114.302 64.1076" fill="#EDF3E7"/>
<path d="M113.993 64.0885C113.993 64.0885 108.91 66.3058 107.887 66.9775C106.864 67.6492 104.242 66.5386 104.242 66.5386L102.124 63.9473L101.09 64.1076C101.09 64.1076 101.773 67.653 101.09 68.7598C100.407 69.8666 99.4983 76.7286 99.7006 77.0301C99.9029 77.3316 101.449 79.8543 104.948 80.358C108.448 80.8618 112.886 79.7856 114.245 79.5184C115.604 79.2513 116.638 78.3658 115.917 77.0415C115.195 75.7172 115.413 76.324 115.123 72.9923C115.123 72.9923 114.806 63.3672 113.989 64.0885C113.989 64.0885 114.112 64.0961 114.302 64.1076" stroke="#7C6656" stroke-linecap="round" stroke-linejoin="round"/>
<path d="M115.657 63.9473L119.084 65.6494L117.004 67.5462L114.367 65.1952" fill="#EDF3E7"/>
<path d="M115.657 63.9473L119.084 65.6494L117.004 67.5462L114.367 65.1952" stroke="#7C6656" stroke-linecap="round" stroke-linejoin="round"/>
<path d="M124.094 52.8789C122.315 56.2756 115.946 58.9165 115.946 58.9165C114.133 57.8746 112.759 58.2525 111.671 60.1035C110.45 62.214 111.874 64.813 114.366 65.1946C116.854 65.5801 117.812 62.9391 117.812 62.9391C117.812 62.9391 124.197 60.84 127.326 57.4854" fill="white"/>
<path d="M124.094 52.8789C122.315 56.2756 115.946 58.9165 115.946 58.9165C114.133 57.8746 112.759 58.2525 111.671 60.1035C110.45 62.214 111.874 64.813 114.366 65.1946C116.854 65.5801 117.812 62.9391 117.812 62.9391C117.812 62.9391 124.197 60.84 127.326 57.4854" stroke="#7C6656" stroke-linecap="round" stroke-linejoin="round"/>
<path d="M113.577 70.1484L110.749 76.3464C110.749 76.3464 109.952 77.5486 108.398 78.06" stroke="#7C6656" stroke-linecap="round" stroke-linejoin="round"/>
<path d="M112.474 76.3477C112.474 76.3477 110.711 76.5347 110.223 76.9468" stroke="#7C6656" stroke-linecap="round" stroke-linejoin="round"/>
<path d="M101.094 74.1035C101.094 74.1035 102.552 76.3361 103.468 76.6491" stroke="#7C6656" stroke-linecap="round" stroke-linejoin="round"/>
<path d="M102.008 68.4316C102.008 68.4316 102.126 69.5804 102.279 70.8513" stroke="#7C6656" stroke-linecap="round" stroke-linejoin="round"/>
<path d="M58.9226 78.5131C58.9226 78.5131 55.3007 75.5362 54.3962 76.4827C53.4917 77.4292 53.8123 79.9404 51.6713 78.9672C49.5303 77.994 48.4922 79.0436 48.4922 79.0436C48.4922 79.0436 48.7021 81.5166 50.7019 81.0586C52.7017 80.6007 55.9534 81.1159 55.9534 81.1159C55.9534 81.1159 60.3232 79.5435 58.9302 78.5131H58.9226Z" fill="#C4C0B3" stroke="#7C6656" stroke-linecap="round" stroke-linejoin="round"/>
<path d="M56.7061 77.8477C56.7061 77.8477 54.7635 80.5077 53.8438 80.6871" stroke="#7C6656" stroke-linecap="round" stroke-linejoin="round"/>
<path d="M95.6364 78.3603C95.6364 78.3603 92.8389 76.6734 91.8199 76.9482C90.8009 77.223 89.9804 78.3718 87.618 78.2496C85.2556 78.1275 81.0422 78.8717 82.6948 79.5167C84.3473 80.1655 90.5643 80.4899 90.5643 80.4899C90.5643 80.4899 97.7545 77.6848 95.6364 78.3603Z" fill="#F5E3DA" stroke="#7C6656" stroke-linecap="round" stroke-linejoin="round"/>
<path d="M93.6267 78.7061C93.6267 78.7061 88.8218 78.252 88.2188 78.252" stroke="#7C6656" stroke-linecap="round" stroke-linejoin="round"/>
<defs>
<filter id="filter0_f_1235_28680" x="62.7031" y="40.9727" width="8.03516" height="5.44336" filterUnits="userSpaceOnUse" color-interpolation-filters="sRGB">
<feFlood flood-opacity="0" result="BackgroundImageFix"/>
<feBlend mode="normal" in="SourceGraphic" in2="BackgroundImageFix" result="shape"/>
<feGaussianBlur stdDeviation="0.375" result="effect1_foregroundBlur_1235_28680"/>
</filter>
<filter id="filter1_f_1235_28680" x="80.6406" y="43.6445" width="8.03516" height="5.44336" filterUnits="userSpaceOnUse" color-interpolation-filters="sRGB">
<feFlood flood-opacity="0" result="BackgroundImageFix"/>
<feBlend mode="normal" in="SourceGraphic" in2="BackgroundImageFix" result="shape"/>
<feGaussianBlur stdDeviation="0.375" result="effect1_foregroundBlur_1235_28680"/>
</filter>
<filter id="filter2_f_1235_28680" x="21.1406" y="36.7168" width="7.97266" height="5.55078" filterUnits="userSpaceOnUse" color-interpolation-filters="sRGB">
<feFlood flood-opacity="0" result="BackgroundImageFix"/>
<feBlend mode="normal" in="SourceGraphic" in2="BackgroundImageFix" result="shape"/>
<feGaussianBlur stdDeviation="0.375" result="effect1_foregroundBlur_1235_28680"/>
</filter>
<filter id="filter3_f_1235_28680" x="39.1953" y="41.5527" width="7.97266" height="5.55078" filterUnits="userSpaceOnUse" color-interpolation-filters="sRGB">
<feFlood flood-opacity="0" result="BackgroundImageFix"/>
<feBlend mode="normal" in="SourceGraphic" in2="BackgroundImageFix" result="shape"/>
<feGaussianBlur stdDeviation="0.375" result="effect1_foregroundBlur_1235_28680"/>
</filter>
<filter id="filter4_f_1235_28680" x="99.3438" y="40.9785" width="8.04688" height="5.42383" filterUnits="userSpaceOnUse" color-interpolation-filters="sRGB">
<feFlood flood-opacity="0" result="BackgroundImageFix"/>
<feBlend mode="normal" in="SourceGraphic" in2="BackgroundImageFix" result="shape"/>
<feGaussianBlur stdDeviation="0.375" result="effect1_foregroundBlur_1235_28680"/>
</filter>
<filter id="filter5_f_1235_28680" x="118.086" y="38.3965" width="8.05078" height="5.42383" filterUnits="userSpaceOnUse" color-interpolation-filters="sRGB">
<feFlood flood-opacity="0" result="BackgroundImageFix"/>
<feBlend mode="normal" in="SourceGraphic" in2="BackgroundImageFix" result="shape"/>
<feGaussianBlur stdDeviation="0.375" result="effect1_foregroundBlur_1235_28680"/>
</filter>
</defs>
</svg>
