<svg width="108" height="74" viewBox="0 0 108 74" fill="none" xmlns="http://www.w3.org/2000/svg">
<g clip-path="url(#clip0_1235_28868)">
<path d="M30.3903 61.9855L27.2353 63.6255L24.4603 61.9855L22.9453 58.9605L24.0803 56.6855L26.7303 56.3105L29.1303 58.0755L30.3903 61.9855Z" fill="white" stroke="white" stroke-width="0.41" stroke-miterlimit="10"/>
<path d="M43.6406 69.2449L44.9056 71.8948L46.9256 72.1448L49.1956 70.8848L50.0806 69.2449L49.1956 66.9698L47.0506 66.3398L43.6406 69.2449Z" fill="white" stroke="white" stroke-width="0.41" stroke-miterlimit="10"/>
<path d="M31.8472 42.995L35.3172 47.03L46.1672 47.16L55.2572 48.675L58.0322 52.46L56.7672 55.11L58.7872 58.14L61.9422 58.265L63.7122 57.255L66.1072 54.48L65.9822 45.895L65.4772 35.045L63.0772 15.355L60.6822 13.21L56.5172 8.67L51.0922 6.395L47.0522 4.88L41.2472 4.25L31.6572 6.145L25.8522 9.675L22.3172 13.715L21.1172 19.775L23.3872 24.38L21.5572 30.375L22.0622 34.79L23.7072 38.45L27.4922 41.225L31.8472 42.995Z" fill="white" stroke="white" stroke-width="0.41" stroke-miterlimit="10"/>
<path d="M102.198 54.9844C102.198 54.9844 96.3928 57.1294 93.2378 55.6144C93.2378 55.6144 87.9378 56.8744 86.0428 54.8594L84.0228 51.4544L84.6528 58.1444L86.0428 62.4344L83.5178 62.5594L84.9078 65.8394L86.8028 68.1094L86.5528 70.6344L83.9028 72.9044L82.0078 72.2744L81.7578 69.8744L79.8628 67.0994L77.7178 62.3044L74.6878 62.4294L75.5728 63.9444L75.3228 66.7194L75.5728 70.5044L74.9428 72.1444L72.7978 73.1544L70.1478 72.5244L69.3928 70.6294L70.4028 68.8644V64.9544L70.5278 60.7894L70.1478 53.9744L68.5078 47.2844L72.0428 38.0694L84.9128 15.7344L95.3878 16.1144L99.0478 17.6294L100.563 22.8044L100.943 26.9694L99.6828 37.0644L99.4328 42.9944L100.063 47.9144L102.208 54.9794L102.198 54.9844Z" fill="white" stroke="white" stroke-width="0.41" stroke-miterlimit="10"/>
<path d="M17.7448 47.2904C17.7448 47.2904 15.4648 49.6654 14.7648 52.9704L13.2148 52.3654C13.2148 52.3654 16.2248 46.1954 18.2498 45.0254C17.9698 47.0804 17.7448 47.2904 17.7448 47.2904Z" fill="#FFF9F0" stroke="#7C6656" stroke-width="0.82" stroke-linecap="round" stroke-linejoin="round"/>
<path d="M15.0625 50.9554C15.0625 52.2254 16.0925 53.2604 17.3675 53.2604C18.6425 53.2604 19.6725 52.2304 19.6725 50.9554C19.6725 49.6804 18.6425 48.6504 17.3675 48.6504C16.0925 48.6504 15.0625 49.6804 15.0625 50.9554Z" fill="#F9B233" stroke="#7C6656" stroke-width="0.82" stroke-linecap="round" stroke-linejoin="round"/>
<path d="M13.1445 51.9593C13.1445 53.2293 14.1745 54.2643 15.4495 54.2643C16.7245 54.2643 17.7545 53.2343 17.7545 51.9593C17.7545 50.6843 16.7245 49.6543 15.4495 49.6543C14.1745 49.6543 13.1445 50.6843 13.1445 51.9593Z" fill="#F9B233" stroke="#7C6656" stroke-width="0.82" stroke-linecap="round" stroke-linejoin="round"/>
<path d="M15.8984 53.4008L17.7434 50.4708L18.9984 50.1958L19.4084 49.3008L23.4334 51.3508L23.1284 52.4008L23.4334 53.0358L21.2034 57.3508" fill="white"/>
<path d="M15.8984 53.4008L17.7434 50.4708L18.9984 50.1958L19.4084 49.3008L23.4334 51.3508L23.1284 52.4008L23.4334 53.0358L21.2034 57.3508" stroke="#7C6656" stroke-width="0.82" stroke-linecap="round" stroke-linejoin="round"/>
<path d="M17.5234 50.8145L22.2184 53.3995" stroke="#7C6656" stroke-width="0.5" stroke-linecap="round" stroke-linejoin="round"/>
<path d="M23.13 51.4258L22.22 52.1058L21.205 52.8408L19.875 54.9508" stroke="#7C6656" stroke-width="0.5" stroke-linecap="round" stroke-linejoin="round"/>
<path d="M11.3906 52.0805L11.9856 39.6055H13.6256L12.7256 53.0355" fill="url(#paint0_linear_1235_28868)"/>
<path d="M11.3906 52.0805L11.9856 39.6055H13.6256L12.7256 53.0355" stroke="#7C6656" stroke-width="0.41" stroke-linecap="round" stroke-linejoin="round"/>
<path d="M11.8438 51.9409L14.0588 40.2109L16.1388 40.5809L13.0287 53.0359" fill="url(#paint1_linear_1235_28868)"/>
<path d="M11.8438 51.9409L14.0588 40.2109L16.1388 40.5809L13.0287 53.0359" stroke="#7C6656" stroke-width="0.41" stroke-linecap="round" stroke-linejoin="round"/>
<path d="M12.3594 52.0798L16.9194 40.0898L18.6794 40.6398L13.7594 53.3998" fill="url(#paint2_linear_1235_28868)"/>
<path d="M12.3594 52.0798L16.9194 40.0898L18.6794 40.6398L13.7594 53.3998" stroke="#7C6656" stroke-width="0.41" stroke-linecap="round" stroke-linejoin="round"/>
<path d="M13.0312 52.6705L17.3613 41.1855L19.4113 41.8005L14.2113 53.4005" fill="url(#paint3_linear_1235_28868)"/>
<path d="M13.0312 52.6705L17.3613 41.1855L19.4113 41.8005L14.2113 53.4005" stroke="#7C6656" stroke-width="0.41" stroke-linecap="round" stroke-linejoin="round"/>
<path d="M11.1208 50.1953C11.1208 50.1953 17.1208 53.7903 22.5908 54.7003C22.5908 54.7003 20.4458 60.0103 20.3358 60.4403C20.2308 60.8703 19.6908 62.6253 19.4758 63.1403C19.2608 63.6553 19.2058 64.6503 17.0608 64.4903C14.9158 64.3303 12.7758 62.5403 11.9208 62.3753C11.0658 62.2103 8.45584 61.1753 8.16584 60.6503C7.70084 59.8053 6.50084 58.5803 7.63084 57.4203C8.76084 56.2603 11.1158 50.1953 11.1158 50.1953H11.1208Z" fill="#E3D8C6" stroke="#7C6656" stroke-width="1.025" stroke-linecap="round" stroke-linejoin="round"/>
<path d="M10.3711 57.3496L12.2561 58.6746L13.1661 60.5996" stroke="#7C6656" stroke-width="0.5" stroke-linecap="round" stroke-linejoin="round"/>
<path d="M14.875 59.5705C14.875 59.5705 17.845 59.4805 18.575 58.9805" stroke="#7C6656" stroke-width="0.5" stroke-linecap="round" stroke-linejoin="round"/>
<path d="M19.2244 43.4043C19.2244 43.4043 13.7744 44.2143 12.1094 53.5643L13.3894 53.9593C13.3894 53.9593 13.4344 47.3243 19.0344 44.5943L19.2194 43.4043H19.2244Z" fill="#FFF9F0" stroke="#7C6656" stroke-width="0.82" stroke-linecap="round" stroke-linejoin="round"/>
<path d="M32.4149 43.5406C28.6249 47.7656 24.6649 45.0456 24.6649 45.0456C24.4249 42.8156 23.2299 41.8556 20.9299 42.0756C18.3199 42.3456 16.9649 45.2256 18.1999 47.6306C19.4349 50.0406 22.3349 49.2056 22.3349 49.2056C28.8599 53.0656 35.3899 49.2006 37.1649 47.8856" fill="white"/>
<path d="M32.415 43.5396C28.625 47.7646 24.665 45.0446 24.665 45.0446C24.425 42.8146 22.22 41.7996 19.87 42.4846C18.495 43.2046 16.965 45.2246 18.2 47.6346C19.435 50.0446 22.335 49.2096 22.335 49.2096C28.86 53.0696 34.94 49.5196 36.72 48.2096" stroke="#7C6656" stroke-width="1.025" stroke-linecap="round" stroke-linejoin="round"/>
<path d="M30.4907 45.2461C30.4907 45.2461 30.3107 47.5561 33.0307 49.8661" stroke="#7C6656" stroke-width="1.025" stroke-linecap="round" stroke-linejoin="round"/>
<path d="M36.5959 44.2902C36.5959 44.1702 37.8109 46.6652 40.5459 46.7402C43.2809 46.4952 45.6159 45.2852 45.8559 43.6802C46.7409 43.5202 50.5559 42.9052 52.5259 42.1152C53.2809 42.4852 54.8309 43.0552 54.8309 43.0552C54.8309 43.0552 52.6309 49.0402 52.7909 48.8102C52.9509 48.5802 51.2909 48.4652 51.2909 48.4652C51.2909 48.4652 50.1009 53.0752 51.0959 57.2102C45.0659 56.7652 45.5459 57.3252 42.0809 55.9352C38.6159 54.5452 37.0509 55.4052 37.0509 55.4052L32.8359 55.4852L33.0159 49.7702C33.0159 49.7702 34.0709 43.6102 34.8659 43.7202C35.6559 43.8302 36.5959 44.2952 36.5959 44.2952V44.2902Z" fill="white"/>
<path d="M6.00403 2.18973L5.89403 4.77973C5.87903 5.09973 5.70903 5.38973 5.43903 5.55973L3.23903 6.93473C2.55903 7.35973 2.66403 8.38473 3.41403 8.66473L5.84403 9.57473C6.14403 9.68473 6.36903 9.93973 6.44403 10.2447L7.07403 12.7597C7.26903 13.5397 8.27403 13.7547 8.77403 13.1297L10.389 11.0997C10.589 10.8497 10.894 10.7147 11.214 10.7347L13.804 10.9147C14.604 10.9697 15.124 10.0847 14.679 9.41473L13.244 7.24973C13.069 6.98473 13.034 6.64973 13.154 6.35473L14.124 3.94973C14.424 3.20473 13.739 2.43973 12.964 2.65473L10.464 3.34973C10.159 3.43473 9.82903 3.36473 9.58403 3.15973L7.59403 1.49473C6.97903 0.979729 6.03903 1.39473 6.00403 2.19473V2.18973Z" fill="#FDDA64"/>
<path d="M23.5353 21.1953C23.1703 22.5153 23.4753 24.2803 23.4953 24.9603C23.0953 26.0553 20.8153 29.4953 21.6453 33.8453C22.4753 38.1953 26.2353 41.9303 33.9053 43.5753C33.9053 43.5753 38.4053 44.3003 40.0103 44.1553" stroke="#7C6656" stroke-width="1.025" stroke-linecap="round" stroke-linejoin="round"/>
<path d="M43.1719 43.9645C48.3019 43.9345 53.8969 42.4345 57.4769 39.2895C60.4469 36.6795 61.6419 33.5595 60.8969 26.5195" stroke="#7C6656" stroke-width="1.025" stroke-linecap="round" stroke-linejoin="round"/>
<path d="M61.1348 26.5197C66.3448 8.41969 50.3498 6.40969 50.3498 6.40969C39.4898 0.589691 27.2849 8.59469 27.2849 8.59469C27.2849 8.59469 18.3498 14.1497 22.1398 22.4547" stroke="#7C6656" stroke-width="1.025" stroke-linecap="round" stroke-linejoin="round"/>
<path d="M48.8445 11.7793C48.8445 11.7793 49.6345 17.5693 40.2695 20.6843" stroke="#7C6656" stroke-width="1.025" stroke-linecap="round" stroke-linejoin="round"/>
<path d="M50.9141 15.1895C50.9141 15.1895 56.2641 18.4645 57.3991 24.0145" stroke="#7C6656" stroke-width="1.025" stroke-linecap="round" stroke-linejoin="round"/>
<path d="M30.3086 20.7991C30.3086 20.7991 36.8586 18.9341 39.1486 13.0391" stroke="#7C6656" stroke-width="1.025" stroke-linecap="round" stroke-linejoin="round"/>
<path d="M42.1416 8.57019C42.1416 8.57019 44.8966 9.67019 44.7116 11.8052C44.5716 13.4452 43.7566 14.1552 41.0266 15.5652C38.2966 16.9752 33.2716 14.4002 30.7266 11.0452C32.7266 9.13519 36.2816 5.49019 42.1366 8.57019H42.1416Z" fill="#1BAE91"/>
<path d="M43.8811 13.5853C43.8811 13.5853 38.0111 20.5853 30.6211 10.9053C30.6211 10.9053 36.4361 4.07034 44.2061 9.84534" stroke="#7C6656" stroke-width="1.025" stroke-linecap="round" stroke-linejoin="round"/>
<path d="M37.3516 11.6158C37.3466 11.7058 43.0916 13.5758 46.3116 10.3008" stroke="#7C6656" stroke-width="1.025" stroke-linecap="round" stroke-linejoin="round"/>
<path d="M44.9306 27.518L44.9306 27.5179C44.9614 26.5011 45.811 25.7044 46.8231 25.7352L46.8231 25.7352C47.84 25.7661 48.6366 26.6157 48.6058 27.6278L48.6058 27.6278C48.575 28.6447 47.7254 29.4413 46.7133 29.4105L46.7132 29.4105C45.6964 29.3797 44.8998 28.5301 44.9306 27.518Z" fill="#7C6656" stroke="#7C6656" stroke-width="0.5"/>
<path d="M31.4689 25.4609L34.6489 27.8109L31.1289 27.6609" stroke="#7C6656" stroke-width="1.025" stroke-linecap="round" stroke-linejoin="round"/>
<path d="M39.1518 31.4088C39.1518 31.4088 37.7018 30.4538 36.8918 31.4088C36.0818 32.3638 36.2418 33.4338 37.4118 34.0388C37.4118 34.0388 35.7468 34.2738 35.8918 36.2588C36.0368 38.2438 37.9068 38.5088 38.5118 38.4688" stroke="#7C6656" stroke-width="1.025" stroke-linecap="round" stroke-linejoin="round"/>
<path d="M40.0075 55.5849L49.3325 57.3499C49.3325 57.3499 48.4925 61.3249 43.0575 61.9649C43.8975 64.3599 45.1825 65.0449 48.4875 66.4049C48.2075 68.2499 47.4975 69.2599 43.9725 69.7449C43.9725 69.7449 41.6875 69.1649 40.4375 68.5299C39.1875 67.8999 34.4925 65.3949 34.0875 61.4449C32.7675 61.4449 30.4875 61.7699 28.9575 63.0949C29.3725 61.6849 28.4775 58.1599 27.4375 57.0099C29.8375 56.1449 31.3825 55.5149 33.5925 55.4199C33.5925 55.4199 34.5675 55.9849 40.0075 55.5799V55.5849Z" fill="#8FBDE2"/>
<path d="M51.0742 48.4661C57.0792 48.2511 58.0242 53.0061 58.0242 53.0061C56.5242 54.6761 56.6092 56.2061 58.3142 57.7661C60.2592 59.5261 63.3092 58.6061 64.2692 56.0761C65.2342 53.5461 62.6742 51.9461 62.6742 51.9461C61.3592 45.4161 55.3992 43.0311 52.5042 42.2461" stroke="#7C6656" stroke-width="1.025" stroke-linecap="round" stroke-linejoin="round"/>
<path d="M51.2152 48.6855C51.2152 48.6855 50.0552 52.3655 51.2152 57.0155C51.2152 57.0155 45.7952 57.4405 42.3952 56.0555C39.7802 54.9905 37.2852 55.4305 37.2852 55.4305" stroke="#7C6656" stroke-width="1.025" stroke-linecap="round" stroke-linejoin="round"/>
<path d="M27.4399 57.0096C27.4399 57.0096 25.9149 55.6446 24.4249 56.5696C22.1749 57.9646 23.2649 61.3246 24.6649 62.4246C26.0549 63.5096 27.6949 64.0396 30.1149 62.2746C32.5349 60.5096 35.9949 62.1196 41.8999 61.9696C46.3999 61.8546 48.7499 59.3996 49.6349 57.3546" stroke="#7C6656" stroke-width="1.025" stroke-linecap="round" stroke-linejoin="round"/>
<path d="M27.5547 57.3504C27.5547 57.3504 31.3947 54.0804 39.5047 55.7854" stroke="#7C6656" stroke-width="1.025" stroke-linecap="round" stroke-linejoin="round"/>
<path d="M34.0898 61.4492C34.0898 61.4492 35.8498 68.6092 44.3548 69.5492" stroke="#7C6656" stroke-width="1.025" stroke-linecap="round" stroke-linejoin="round"/>
<path d="M48.8996 66.6797C49.3596 67.0447 49.7946 67.3997 49.9346 68.5247C50.2146 70.7597 48.0196 71.9447 46.3996 71.9447C44.7796 71.9447 43.8346 71.0747 43.9746 69.7447" stroke="#7C6656" stroke-width="1.025" stroke-linecap="round" stroke-linejoin="round"/>
<path d="M43.0625 61.9707C43.0625 61.9707 43.4325 64.4107 46.4875 65.6307C47.4325 66.0107 48.2675 66.1707 48.9075 66.6807" stroke="#7C6656" stroke-width="1.025" stroke-linecap="round" stroke-linejoin="round"/>
<path d="M27.4375 57.0098C27.4375 57.0098 29.7225 60.4298 28.9575 62.9748" stroke="#7C6656" stroke-width="1.025" stroke-linecap="round" stroke-linejoin="round"/>
<path d="M48.4916 66.4102C48.4916 66.4102 48.4616 69.6252 43.9766 69.7502" stroke="#7C6656" stroke-width="1.025" stroke-linecap="round" stroke-linejoin="round"/>
<path d="M34.1259 46.3398C34.1259 46.3398 32.6059 50.8298 32.8609 55.2948" stroke="#7C6656" stroke-width="1.025" stroke-linecap="round" stroke-linejoin="round"/>
<path d="M36.5938 44.1699C36.5938 44.1699 37.1787 46.7449 40.7237 46.7449C44.2687 46.7449 45.9387 44.1699 45.9387 44.1699" stroke="#7C6656" stroke-width="1.025" stroke-linecap="round" stroke-linejoin="round"/>
<path d="M54.9511 43.4492L53.1211 48.6042" stroke="#7C6656" stroke-width="1.025" stroke-linecap="round" stroke-linejoin="round"/>
<path d="M54.0352 65.5C54.0352 65.5 56.4152 66.88 54.9502 70.13" stroke="#7C6656" stroke-width="1.025" stroke-linecap="round" stroke-linejoin="round"/>
<path d="M56.6445 64.0195C56.6445 64.0195 59.2845 66.3495 57.7845 70.7745" stroke="#7C6656" stroke-width="1.025" stroke-linecap="round" stroke-linejoin="round"/>
<path d="M4.57356 60.6805C4.57356 60.6805 2.67356 58.6905 4.98856 55.9805" stroke="#7C6656" stroke-width="1.025" stroke-linecap="round" stroke-linejoin="round"/>
<path d="M1.6547 61.3695C1.6547 61.3695 -0.230295 58.3895 2.4547 54.5645" stroke="#7C6656" stroke-width="1.025" stroke-linecap="round" stroke-linejoin="round"/>
<path d="M90.3047 65.9141C90.3047 65.9141 92.6847 67.2941 91.2197 70.5441" stroke="#7C6656" stroke-width="1.025" stroke-linecap="round" stroke-linejoin="round"/>
<path d="M92.9102 64.4355C92.9102 64.4355 95.5502 66.7655 94.0502 71.1905" stroke="#7C6656" stroke-width="1.025" stroke-linecap="round" stroke-linejoin="round"/>
<path d="M15.3984 10.7109C15.3984 10.7109 17.5234 11.1259 18.5134 12.2309" stroke="#F8B682" stroke-width="1.025" stroke-linecap="round" stroke-linejoin="round"/>
<path d="M21.7754 1.26562C21.7754 1.26562 19.5704 5.33563 20.3254 10.3056" stroke="#F8B682" stroke-width="1.025" stroke-linecap="round" stroke-linejoin="round"/>
<path d="M58.9061 22.1896C58.9061 22.1896 58.0811 23.7246 60.9661 23.9296L60.8311 25.1396C60.8311 25.1396 56.7711 31.4146 60.4161 38.6946C64.0611 45.9746 83.9461 46.7996 90.2111 42.9546C96.4811 39.1096 101.066 20.7846 93.6861 12.5846C86.3061 4.38465 71.3261 7.57465 68.6861 8.92965C66.0461 10.2846 59.1361 13.1346 58.9061 22.1896Z" fill="white"/>
<path d="M68.9574 48.6602C68.9574 48.6602 68.5274 51.0352 69.6324 54.6152" stroke="#554C40" stroke-width="0.82" stroke-linecap="round" stroke-linejoin="round"/>
<path d="M79.8858 45.4453L75.9708 48.0503L72.5508 45.0703" stroke="#7C6656" stroke-width="1.025" stroke-linecap="round" stroke-linejoin="round"/>
<path d="M69.382 30.5011C68.4355 30.4182 67.7362 29.5804 67.8192 28.632C67.9021 27.6855 68.7399 26.9862 69.6883 27.0692C70.6348 27.1521 71.3342 27.9899 71.2511 28.9383C71.1682 29.8848 70.3304 30.5842 69.382 30.5011Z" fill="#7C6656" stroke="#7C6656" stroke-width="0.5"/>
<path d="M70.489 69.2705C70.489 69.2705 69.599 70.0955 69.444 71.1155C69.289 72.1355 69.794 73.2105 71.794 73.0905C75.594 72.8655 75.849 70.7005 75.334 68.6305C74.584 65.5955 76.154 61.9355 76.154 61.9355" stroke="#7C6656" stroke-width="1.025" stroke-linecap="round" stroke-linejoin="round"/>
<path d="M70.4912 69.2707C70.4912 69.2707 69.3812 63.2357 71.2262 59.9707" stroke="#7C6656" stroke-width="1.025" stroke-linecap="round" stroke-linejoin="round"/>
<path d="M69.4453 71.1142C69.4453 71.1142 71.5753 72.6142 75.2553 70.8242" stroke="#7C6656" stroke-width="0.75" stroke-linecap="round" stroke-linejoin="round"/>
<path d="M81.692 69.6557C81.692 69.6557 81.327 70.8157 81.697 71.7757C82.067 72.7357 83.037 73.4207 84.717 72.3257C87.902 70.2457 87.052 68.2407 85.582 66.6957C83.422 64.4357 82.977 60.4707 82.977 60.4707" stroke="#7C6656" stroke-width="1.025" stroke-linecap="round" stroke-linejoin="round"/>
<path d="M81.6888 69.6559C81.6888 69.6559 77.7287 64.9659 77.7188 61.2109" stroke="#7C6656" stroke-width="1.025" stroke-linecap="round" stroke-linejoin="round"/>
<path d="M81.6992 71.7745C81.6992 71.7745 84.2942 72.0195 86.5992 68.6445" stroke="#7C6656" stroke-width="0.75" stroke-linecap="round" stroke-linejoin="round"/>
<path d="M84.2756 55.0798L69.4656 54.8398C69.4656 54.8398 67.9056 58.3248 67.5156 62.5798L80.7206 62.6398H83.3056H85.7656C85.7656 62.6398 85.1506 58.0398 84.2756 55.0798Z" fill="#F3A2AD" stroke="#7C6656" stroke-width="1.025" stroke-linecap="round" stroke-linejoin="round"/>
<path d="M78.2109 13.75C78.2109 13.75 74.7959 19.71 76.5459 24.485" stroke="#7C6656" stroke-width="1.025" stroke-linecap="round" stroke-linejoin="round"/>
<path d="M76.2425 14.8711C76.2425 14.8711 69.6575 15.9911 68.6875 23.0861" stroke="#7C6656" stroke-width="1.025" stroke-linecap="round" stroke-linejoin="round"/>
<path d="M96.5719 29.1855C96.6369 36.1905 94.4619 40.1405 91.6769 42.0655C87.0969 45.2355 81.5069 45.1755 76.9219 45.0155" stroke="#7C6656" stroke-width="1.025" stroke-linecap="round" stroke-linejoin="round"/>
<path d="M74.0506 44.7595C62.4856 43.5545 59.3206 37.5645 58.9006 33.3995C58.4806 29.2345 60.3606 26.1345 60.8306 25.1345C60.8756 24.3795 61.2856 21.5945 62.0606 19.9395" stroke="#7C6656" stroke-width="1.025" stroke-linecap="round" stroke-linejoin="round"/>
<path d="M89.6016 9.71879C89.6016 9.71879 82.1766 5.44379 72.6716 7.65379C63.1716 9.86379 59.3966 15.7638 58.8516 22.7438" stroke="#7C6656" stroke-width="1.025" stroke-linecap="round" stroke-linejoin="round"/>
<path d="M96.3711 14.7949C96.3711 14.7949 102.616 17.4249 100.511 31.4749C98.6761 43.7449 100.946 52.5149 101.891 54.9649" stroke="#7C6656" stroke-width="1.025" stroke-linecap="round" stroke-linejoin="round"/>
<path d="M91.8934 43.8848C91.8934 43.8848 91.0434 51.4498 93.0934 55.4948" stroke="#7C6656" stroke-width="1.025" stroke-linecap="round" stroke-linejoin="round"/>
<path d="M84.1992 18.7305C84.1992 18.7305 84.4642 27.5405 96.9092 29.1505" stroke="#7C6656" stroke-width="1.025" stroke-linecap="round" stroke-linejoin="round"/>
<path d="M93.6798 12.5849C93.6798 12.5849 92.3198 8.88489 89.4698 8.56489C86.6198 8.24489 86.1948 11.5049 88.2048 13.3649C88.2048 13.3649 84.5598 12.1749 84.8048 15.3099C85.0698 18.6999 89.2398 18.3649 89.2398 18.3649C89.2398 18.3649 88.1298 21.4249 91.2598 23.3149C94.3898 25.2049 94.8598 20.6849 94.8598 20.6849C94.8598 20.6849 96.2298 23.4699 97.9698 22.0099C99.7098 20.5499 99.4048 17.9249 97.3298 17.2099C97.3298 17.2099 99.9448 16.2849 98.3348 13.2049C97.1298 10.8949 94.4748 9.90989 93.6748 12.5749L93.6798 12.5849Z" fill="#F5B1B1" stroke="#7C6656" stroke-width="0.82" stroke-linecap="round" stroke-linejoin="round"/>
<path d="M95.3477 18.5453C94.4477 19.3653 92.8377 19.0603 91.7427 17.8653C90.6477 16.6703 90.4877 15.0353 91.3877 14.2103C92.2877 13.3903 93.8977 13.6953 94.9927 14.8903C96.0877 16.0853 96.2477 17.7203 95.3477 18.5453Z" fill="white"/>
<path d="M84.2734 55.0802C84.9834 51.1502 84.9834 45.1602 84.9834 45.1602" stroke="#7C6656" stroke-width="1.025" stroke-linecap="round" stroke-linejoin="round"/>
<path d="M84.9261 48.6602C84.9261 48.6602 84.8861 51.7002 85.7761 54.6152" stroke="#7C6656" stroke-width="1.025" stroke-linecap="round" stroke-linejoin="round"/>
<path d="M68.0406 37.7344L71.8956 52.3444C72.1806 53.2944 69.9456 54.7944 66.9156 55.6994C63.8806 56.6044 61.1906 56.5694 60.9106 55.6194L56.2656 41.2444" fill="#C7A6CF"/>
<path d="M67.7953 34.5156L68.3553 36.4006C68.6403 37.3506 65.9053 39.0006 62.2553 40.0906C58.6053 41.1806 55.4153 41.2956 55.1303 40.3456L54.4453 38.0456" fill="#C2C2C2"/>
<path d="M54.4501 38.0497C54.7351 38.9997 57.9251 38.8847 61.5751 37.7947C65.2251 36.7047 67.9601 35.0547 67.6751 34.1047C67.3901 33.1547 64.2001 33.2697 60.5501 34.3597C56.9001 35.4497 54.1651 37.0997 54.4501 38.0497Z" fill="#C2C2C2" stroke="#7C6656" stroke-width="1.025" stroke-linecap="round" stroke-linejoin="round"/>
<path d="M67.7953 34.5156L68.3553 36.4006C68.6403 37.3506 65.9053 39.0006 62.2553 40.0906C58.6053 41.1806 55.4153 41.2956 55.1303 40.3456L54.4453 38.0456" stroke="#7C6656" stroke-width="1.025" stroke-linecap="round" stroke-linejoin="round"/>
<path d="M68.0406 37.7344L71.8956 52.3444C72.1806 53.2944 69.9456 54.7944 66.9156 55.6994C63.8806 56.6044 61.1906 56.5694 60.9106 55.6194L56.2656 41.2444" stroke="#7C6656" stroke-width="1.025" stroke-linecap="round" stroke-linejoin="round"/>
<path d="M67.4614 34.8L61.5664 36.56L61.8264 34.87L66.4214 33.5C66.4214 33.5 67.4014 33.57 67.6464 34.04C67.8164 34.355 67.4614 34.805 67.4614 34.805V34.8Z" fill="#757474" stroke="#7C6656" stroke-width="0.82" stroke-linecap="round" stroke-linejoin="round"/>
<path d="M61.5919 36.6406C61.5919 36.6406 57.6569 34.7206 56.3869 35.4156C55.5119 35.8906 54.5469 35.4856 54.5469 35.4856L55.2119 33.7306C55.2119 33.7306 55.5069 33.9756 56.6969 33.3056C57.8869 32.6356 61.8519 34.6656 61.8519 34.6656L61.5919 36.6456V36.6406Z" fill="#C2C2C2" stroke="#7C6656" stroke-width="0.82" stroke-linecap="round" stroke-linejoin="round"/>
<path d="M55.6151 46.0394C56.7801 43.0644 60.6151 45.1244 60.4051 48.2194C60.2051 51.1744 57.3951 50.6594 56.4651 49.8044C55.5301 48.9494 55.0551 47.4694 55.6151 46.0394Z" fill="white" stroke="#7C6656" stroke-width="1.025" stroke-linecap="round" stroke-linejoin="round"/>
<path d="M84.21 49.5345C78.045 56.1595 71.65 49.9095 71.65 49.9095C71.65 49.9095 67.575 51.0095 67.205 46.6795C66.9 43.1095 70.67 42.0295 72.185 42.6495C73.7 43.2695 75.1 44.9895 74.725 46.8945C74.725 46.8945 75.965 48.9395 80.155 46.2545" fill="white"/>
<path d="M85.5905 47.1704C85.5905 47.1704 83.0405 50.6004 82.5905 50.7704C81.9105 50.1754 78.9805 46.8004 78.9805 46.8004L80.4305 46.1054C80.4305 46.1054 80.6455 46.3754 81.6655 47.3504C82.0355 47.7004 84.0205 45.3054 84.6505 45.2604C85.7755 45.1754 85.5905 47.1754 85.5905 47.1754V47.1704Z" fill="white"/>
<path d="M80.155 46.2603C75.965 48.9453 74.725 46.9003 74.725 46.9003C75.1 44.9953 73.7 43.2753 72.185 42.6553C70.67 42.0353 66.9 43.1153 67.205 46.6853C67.575 51.0203 71.65 49.9153 71.65 49.9153C71.65 49.9153 78.05 56.1653 84.21 49.5403C84.21 49.5403 86.105 47.3953 85.18 45.1603" stroke="#7C6656" stroke-width="1.025" stroke-linecap="round" stroke-linejoin="round"/>
<path d="M79.1875 47.0293L82.4625 50.6493" stroke="#7C6656" stroke-width="1.025" stroke-linecap="round" stroke-linejoin="round"/>
<path d="M71.5039 33.5605C71.5039 33.5605 72.2639 35.5905 74.8689 36.0755C77.4739 36.5605 78.9739 34.4355 78.9739 34.4355" stroke="#7C6656" stroke-width="1.025" stroke-linecap="round" stroke-linejoin="round"/>
<path d="M81.0391 29.9106C81.0391 29.9106 83.1441 27.6206 84.9791 30.7556" stroke="#7C6656" stroke-width="1.025" stroke-linecap="round" stroke-linejoin="round"/>
<path d="M22.2192 50.4701L21.0742 50.1451C21.0742 50.1451 21.8642 46.6101 21.4092 44.8301C22.3342 46.6301 22.7992 46.9601 22.2192 50.4701Z" fill="#FFF9F0"/>
<path d="M21.2063 44.5957C21.2063 44.5957 23.6662 49.5257 16.9612 56.2507L15.9062 55.4257C15.9062 55.4257 21.3163 51.5857 20.3413 45.4307L21.2063 44.5957Z" fill="#FFF9F0" stroke="#7C6656" stroke-width="0.82" stroke-linecap="round" stroke-linejoin="round"/>
<path d="M19.7712 43.5352C19.7712 43.5352 20.9662 42.9202 21.2062 43.9652C21.4462 45.0102 20.4162 49.2352 19.6712 48.2502C18.9412 47.2902 18.7812 47.0402 18.7812 47.0402C18.7812 47.0402 19.0962 44.0552 19.7762 43.5302L19.7712 43.5352Z" fill="white"/>
<path d="M20.7111 43.375C20.7111 43.375 22.6761 45.505 20.3711 48.535" stroke="#7C6656" stroke-width="1.025" stroke-linecap="round" stroke-linejoin="round"/>
<path d="M21.6445 45.0293C21.6445 45.0293 23.2395 47.2843 22.2195 50.4743" stroke="#7C6656" stroke-width="1.025" stroke-linecap="round" stroke-linejoin="round"/>
</g>
<defs>
<linearGradient id="paint0_linear_1235_28868" x1="12.7356" y1="40.7755" x2="11.8256" y2="54.0855" gradientUnits="userSpaceOnUse">
<stop stop-color="#45AC34"/>
<stop offset="0.49" stop-color="#95C11F"/>
<stop offset="0.89" stop-color="white"/>
</linearGradient>
<linearGradient id="paint1_linear_1235_28868" x1="13.9937" y1="40.2109" x2="13.9937" y2="53.0359" gradientUnits="userSpaceOnUse">
<stop stop-color="#45AC34"/>
<stop offset="0.49" stop-color="#95C11F"/>
<stop offset="0.89" stop-color="white"/>
</linearGradient>
<linearGradient id="paint2_linear_1235_28868" x1="15.5194" y1="40.0898" x2="15.5194" y2="53.3998" gradientUnits="userSpaceOnUse">
<stop stop-color="#45AC34"/>
<stop offset="0.49" stop-color="#95C11F"/>
<stop offset="0.89" stop-color="white"/>
</linearGradient>
<linearGradient id="paint3_linear_1235_28868" x1="16.2213" y1="41.1855" x2="16.2213" y2="53.4005" gradientUnits="userSpaceOnUse">
<stop stop-color="#45AC34"/>
<stop offset="0.49" stop-color="#95C11F"/>
<stop offset="0.89" stop-color="white"/>
</linearGradient>
<clipPath id="clip0_1235_28868">
<rect width="106.7" height="72.86" fill="white" transform="translate(0.5 0.75)"/>
</clipPath>
</defs>
</svg>
