<svg width="80" height="60" viewBox="0 0 80 60" fill="none" xmlns="http://www.w3.org/2000/svg">
<ellipse opacity="0.4" cx="37.5" cy="56" rx="33.5" ry="4" fill="#E1D6CF"/>
<path d="M14.8837 41.4418L16.7104 41.2757L17.2086 40.6115L16.5444 40.2793L14.2194 39.7811L12.0606 37.9544L9.40348 34.3009L8.57314 30.6474L7.74281 30.9796L7.07854 29.3189L5.75 24.669L6.2482 23.0083L7.07854 21.3477L8.40707 19.687L11.5624 17.3621L12.5588 16.8639L15.2158 14.8711L19.0354 14.0407L22.8549 13.7086L27.5048 14.705L30.1619 15.8675L30.9922 13.3764L32.4868 10.5533L36.3064 6.23556L39.1295 4.40882L43.7794 2.91422L48.0971 2.41602L51.0863 2.58208L56.2344 2.91422L61.0504 4.40882L64.8699 6.89983L68.1912 10.3872L70.5162 14.705L71.6787 18.0263L73.6715 19.3549L74.5018 21.3477L75 23.5065L74.1697 26.3297L72.8411 27.9904L71.1805 28.6546L69.8519 28.9868L69.5198 30.1492L69.1877 31.3117L67.8591 32.6402L66.5306 33.4706L64.3717 33.9688L62.711 33.8027L61.8807 33.4706L61.5486 34.3009L60.22 35.1312L59.2236 35.4634V36.1276L59.0576 37.4562L58.3933 38.4526L57.2308 38.7847H56.4005L55.7362 38.4526L57.2308 45.7595L57.729 49.247L57.2308 50.0773L54.5737 51.0737L54.9059 52.7344L54.5737 55.5575L53.4113 56.72L51.2524 56.886L49.7578 56.5539L49.2596 55.7236L49.5917 54.5611L50.256 53.8968V53.2326V51.5719L48.2632 51.738L47.9311 54.5611L46.9347 56.2218L45.6061 56.886H43.7794L42.949 56.3878L42.2848 55.7236L42.6169 54.5611L43.4472 53.8968L43.6133 51.904L43.4472 50.9076L43.2812 50.7416L40.1259 50.0773L39.7938 49.5791L39.9598 46.5899L41.2884 40.4454L41.4544 38.4526L40.458 38.7847H34.9778H34.3136L34.1475 39.2829L33.1511 40.6115L31.3243 41.4418L30.3279 42.2721L31.1583 45.2613V47.5863L30.3279 54.229L30.6601 55.0593L30.9922 55.7236L30.6601 56.3878L30.3279 57.0521L28.5012 57.2182L27.3387 57.0521L26.8405 56.886L26.5084 56.3878L26.8405 54.8932V52.4022V50.9076L25.3459 51.2398L24.3495 53.8968L23.8513 55.2254V55.7236V56.886L23.1871 57.5503H21.5264L20.1978 56.886L19.5336 55.8896V54.8932L20.3639 53.5647L20.696 51.904L20.53 48.9148L19.5336 45.7595L19.2014 44.431L16.7104 44.9292L13.7212 44.431C13.1123 44.0435 11.8945 43.2353 11.8945 43.1025C11.8945 42.9364 11.0641 42.6043 10.8981 42.4382C10.7652 42.3053 9.84632 42.0507 9.40348 41.94L8.40707 40.7775L8.57314 39.2829L9.40348 38.2865L11.0641 37.9544L12.3927 38.4526L13.057 39.7811V40.6115L14.8837 41.4418Z" fill="white"/>
<path d="M58.4531 35.3511C61.4821 35.557 61.8109 33.4513 61.8109 33.4513C61.8109 33.4513 64.2887 34.813 66.793 33.3882C70.4332 31.3156 69.6227 28.8512 69.6227 28.8512C69.6227 28.8512 72.974 29.1036 74.2726 26.0181C76.6142 20.4615 71.6621 17.9871 71.6621 17.9871C71.6621 17.9871 69.9615 12.8357 68.4769 11.1717C62.1099 1.18774 51.7905 2.79195 51.7905 2.79195C51.7905 2.79195 41.0526 1.02832 34.7121 7.67765C29.9726 12.6497 29.7201 18.7477 29.7201 18.7477C29.7201 18.7477 26.6413 20.8767 27.1162 24.0685C27.6476 27.6356 30.2881 28.1969 30.2881 28.1969C30.2881 28.1969 29.5574 30.6182 32.075 32.6708C34.4364 34.5971 36.7514 33.8299 36.7514 33.8299C36.7514 33.8299 38.2892 35.6002 41.3017 35.371" stroke="#7C6656" stroke-linecap="round" stroke-linejoin="round"/>
<path d="M62.8117 29.1758C62.5559 29.4714 62.2769 29.7371 61.978 29.9696C59.1516 32.1683 53.8939 33.9353 50.9844 33.9386" stroke="#7C6656" stroke-linecap="round" stroke-linejoin="round"/>
<path d="M34.5689 17.6035C34.5257 17.9323 34.4128 18.301 34.3763 18.4239C34.0574 19.314 32.2274 22.1106 32.9215 25.6279C33.6157 29.1452 37.1596 32.327 43.3771 33.6224C43.3771 33.6224 46.1372 33.918 46.6553 33.9146" stroke="#7C6656" stroke-linecap="round" stroke-linejoin="round"/>
<path d="M37.9976 11.623C37.9976 11.623 36.5727 15.0507 38.0341 17.6712" stroke="#7C6656" stroke-linecap="round" stroke-linejoin="round"/>
<path d="M48.028 11.2969C48.028 11.2969 47.0283 15.5847 49.0377 18.1256" stroke="#7C6656" stroke-linecap="round" stroke-linejoin="round"/>
<path d="M58.1985 13.207C58.1985 13.207 57.9129 17.2192 60.2544 19.9925" stroke="#7C6656" stroke-linecap="round" stroke-linejoin="round"/>
<path d="M62.4954 19.3574C62.4954 19.3574 62.1931 24.8244 64.3121 26.3256" stroke="#7C6656" stroke-linecap="round" stroke-linejoin="round"/>
<g filter="url(#filter0_f_1099_26094)">
<ellipse cx="2.86443" cy="1.67439" rx="2.86443" ry="1.67439" transform="matrix(0.998975 -0.0452727 0.0434207 0.999057 51.8535 21.8828)" fill="#F5B0B0"/>
</g>
<g filter="url(#filter1_f_1099_26094)">
<ellipse cx="2.86443" cy="1.67439" rx="2.86443" ry="1.67439" transform="matrix(0.998975 -0.0452727 0.0434207 0.999057 36.7168 23.0156)" fill="#F5B0B0"/>
</g>
<path d="M39.6284 20.93C39.7148 21.86 40.5385 22.5442 41.4651 22.4578C42.3951 22.3715 43.0793 21.5478 42.993 20.6211C42.9066 19.6911 42.0829 19.0069 41.1563 19.0933C40.2263 19.1796 39.5421 20.0033 39.6284 20.93Z" fill="#7C6656"/>
<path d="M50.5678 23.793C50.0729 24.8093 48.5351 25.6529 46.8545 25.6529C45.4064 25.6529 44.151 25.0684 43.5332 24.2148" stroke="#7C6656" stroke-linecap="round" stroke-linejoin="round"/>
<path d="M54.461 19.5083C54.461 19.5083 52.4648 18.3293 51.2227 20.1826" stroke="#7C6656" stroke-linecap="round" stroke-linejoin="round"/>
<path d="M50.0371 48.6836C50.2098 51.7957 50.2663 53.9878 50.2663 53.9878" stroke="#7C6656" stroke-linecap="round" stroke-linejoin="round"/>
<path d="M50.6013 53.967C50.6013 53.967 49.3491 54.2925 49.2628 55.1229C49.1731 55.9532 49.5119 56.9994 51.704 56.9031C53.896 56.8068 54.5437 55.9465 54.6932 53.7312C54.7961 52.2333 54.8725 50.091 54.7928 48.8223" stroke="#7C6656" stroke-linecap="round" stroke-linejoin="round"/>
<path d="M43.3281 48.6836C43.7367 51.9651 43.6005 53.9878 43.6005 53.9878" stroke="#7C6656" stroke-linecap="round" stroke-linejoin="round"/>
<path d="M43.7067 53.967C43.7067 53.967 42.4546 54.2925 42.3682 55.1229C42.2786 55.9532 42.6173 56.9994 44.8094 56.9031C47.0015 56.8068 47.5927 55.8868 47.9647 53.698C48.1939 52.3562 47.978 50.091 47.8983 48.8223" stroke="#7C6656" stroke-linecap="round" stroke-linejoin="round"/>
<path d="M55.5129 38.0311C56.1638 39.7814 58.1998 48.7922 57.5854 49.7654C56.9709 50.7352 52.9089 51.4593 49.737 51.6552C46.5652 51.8545 40.3941 50.536 39.773 49.958C39.1519 49.3834 41.7094 38.1673 41.7094 38.1673C41.7094 38.1673 40.1948 36.8553 40.321 34.6898C40.7661 34.0986 42.264 33.5639 42.264 33.5639L44.0609 33.9292C44.0609 33.9292 44.9443 36.8022 48.6908 36.5232C52.4373 36.2442 52.7595 34.3677 52.7595 34.3677L55.9347 33.4941L57.2632 35.7527L55.5129 38.0344V38.0311Z" fill="#FFADBE"/>
<path d="M40.1666 34.3978C37.3135 35.6666 33.6601 34.8861 33.6601 34.8861C32.6803 33.3549 31.4646 33.0926 29.8804 34.089C28.0902 35.2282 28.1499 37.8055 29.9169 39.1009C31.6839 40.3962 33.484 38.7422 33.484 38.7422C33.484 38.7422 38.3033 39.5293 41.6047 38.5794" fill="white"/>
<path d="M42.3753 33.4922C39.6385 35.402 33.6601 34.8838 33.6601 34.8838C32.6803 33.3527 31.4646 33.0903 29.8804 34.0867C28.0902 35.2259 28.1499 37.8033 29.9169 39.0986C31.6839 40.3939 33.484 38.7399 33.484 38.7399C33.484 38.7399 38.3033 39.5271 41.6047 38.5772" stroke="#7C6656" stroke-linecap="round" stroke-linejoin="round"/>
<path d="M42.352 35.2578C42.352 35.2578 39.1568 49.3802 39.7746 49.9581C40.3957 50.5327 46.5667 51.8512 49.7386 51.6553C52.9105 51.456 56.9725 50.7353 57.587 49.7654C58.2014 48.7956 55.8499 38.7718 55.1989 37.0214" stroke="#7C6656" stroke-linecap="round" stroke-linejoin="round"/>
<path d="M52.691 34.5097C52.691 34.5097 52.0334 36.5125 47.8452 36.559C44.4939 36.5989 43.9492 33.9551 43.9492 33.9551" stroke="#7C6656" stroke-linecap="round" stroke-linejoin="round"/>
<path d="M57.3441 35.5898C57.3441 35.5898 56.5669 37.2007 55.6934 37.9746" stroke="#7C6656" stroke-linecap="round" stroke-linejoin="round"/>
<path d="M40.3223 34.3965C40.3223 34.3965 40.4252 36.6816 41.4482 38.1695" stroke="#7C6656" stroke-linecap="round" stroke-linejoin="round"/>
<path d="M24.1416 13.7875C24.1416 13.7875 33.5078 14.7806 33.3218 22.6057C32.4582 23.2832 32.239 23.0707 32.239 23.0707L32.1925 24.0073C32.1925 24.0073 35.5072 27.7504 34.6968 32.2708C33.6971 36.9406 26.8219 40.0593 19.6146 40.4745C17.2232 39.9132 12.218 40.9495 9.97937 35.2567C8.23899 30.919 8.67076 30.6234 8.67076 30.6234C8.67076 30.6234 7.67436 31.2246 7.75075 31.1116C7.82714 30.9987 5.97715 27.9829 5.98047 26.4983C5.98047 25.0137 6.35246 18.6334 12.125 17.1221C14.802 15.2888 19.1762 13.0601 24.1416 13.7908V13.7875Z" fill="white"/>
<g filter="url(#filter2_f_1099_26094)">
<ellipse cx="2.13492" cy="1.24796" rx="2.13492" ry="1.24796" transform="matrix(0.964287 -0.26486 0.263072 0.964776 27.5059 28.623)" fill="#F5B0B0"/>
</g>
<g filter="url(#filter3_f_1099_26094)">
<ellipse cx="2.13492" cy="1.24796" rx="2.13492" ry="1.24796" transform="matrix(0.964287 -0.26486 0.263072 0.964776 16.5645 31.9863)" fill="#F5B0B0"/>
</g>
<path d="M19.8705 54.5305C19.8705 54.5305 21.5677 56.0982 23.4875 55.7627C24.0255 54.7729 25.2411 51.332 25.2145 51.1228C25.6164 51.166 26.47 50.8737 26.47 50.8737C26.47 50.8737 26.9516 52.8599 26.8354 54.1718C26.7191 55.4837 26.7557 55.786 26.7557 55.786C26.7557 55.786 28.5359 56.1015 29.9807 54.6899C30.3992 53.4477 30.8542 50.0267 31.0037 49.5285C31.1531 49.027 31.5816 46.1242 30.7346 44.1745C30.16 43.1516 29.9309 41.8828 29.9309 41.8828L23.2981 43.7361C23.2981 43.7361 22.9527 46.2936 22.3217 47.1538C21.6906 48.014 20.3687 48.4026 20.3687 48.4026C20.3687 48.4026 20.6411 50.4917 20.7307 51.4516C20.8204 52.4115 20.2558 54.0489 19.8672 54.5371L19.8705 54.5305Z" fill="#8EBDE2"/>
<path d="M26.6157 29.1777C26.6157 29.1777 26.0112 30.3635 24.6627 29.8619C24.6627 29.8619 24.0483 30.958 22.6367 31.0178" stroke="#7C6656" stroke-linecap="round" stroke-linejoin="round"/>
<path d="M23.252 31.0186C23.252 31.0186 24.9857 36.5022 26.9552 35.705C28.9281 34.9079 26.3541 29.5273 26.3541 29.5273" stroke="#7C6656" stroke-linecap="round" stroke-linejoin="round"/>
<path d="M24.9082 32.6562H25.7651" stroke="#7C6656" stroke-linecap="round" stroke-linejoin="round"/>
<path d="M29.0156 39.668C29.0156 39.668 31.138 44.3976 31.138 46.1645C31.138 47.9315 30.9486 49.3032 30.6431 50.9605C30.3375 52.6179 30.1515 54.7834 30.1515 54.7834" stroke="#7C6656" stroke-linecap="round" stroke-linejoin="round"/>
<path d="M30.156 54.7826C30.156 54.7826 31.0162 54.8856 31.0162 55.8753C31.0162 56.4267 30.8369 57.247 28.502 57.2769C27.3827 57.2902 26.1837 56.719 26.6188 55.2941C27.0074 54.0254 26.6619 51.0195 26.6619 51.0195" stroke="#7C6656" stroke-linecap="round" stroke-linejoin="round"/>
<path d="M27.4363 50.5605C27.4363 50.5605 26.4732 50.9624 24.8789 51.0222" stroke="#7C6656" stroke-linecap="round" stroke-linejoin="round"/>
<path d="M22.9188 40.1011C20.2119 40.6525 16.2496 40.7621 13.6788 39.3571C10.8989 37.836 8.21191 33.7474 8.23848 26.8357C8.26505 19.5287 13.2537 17.247 13.2537 17.247C13.2537 17.247 17.8538 14.5301 23.3008 15.5132C28.7478 16.493 31.1458 19.6981 32.285 24.3779C32.7301 25.0089 34.7893 26.8124 35.0151 29.7385C35.241 32.6646 33.484 35.707 28.8673 38.0917C28.8673 38.0917 26.1173 39.3605 25.0644 39.5232" stroke="#7C6656" stroke-linecap="round" stroke-linejoin="round"/>
<path d="M7.82398 30.9965C1.89871 20.8132 12.1218 17.1199 12.1218 17.1199C18.1368 11.6895 27.018 14.5292 27.018 14.5292C27.018 14.5292 34.1523 16.4423 33.1459 22.4174" fill="white"/>
<path d="M7.82398 30.9965C1.8987 20.8132 12.1218 17.1199 12.1218 17.1199C18.1367 11.6895 27.018 14.5292 27.018 14.5292C27.018 14.5292 34.1523 16.4423 33.1459 22.4174" stroke="#7C6656" stroke-linecap="round" stroke-linejoin="round"/>
<path d="M14.9355 19.375C14.9355 19.375 16.1113 24.8187 21.0369 25.7154" stroke="#7C6656" stroke-linecap="round" stroke-linejoin="round"/>
<path d="M23.4961 18.3457C23.4961 18.3457 26.6813 20.3916 27.4385 23.7528L23.4961 18.3457Z" fill="white"/>
<path d="M23.4961 18.3457C23.4961 18.3457 26.6813 20.3916 27.4385 23.7528" stroke="#7C6656" stroke-linecap="round" stroke-linejoin="round"/>
<path d="M13.5207 22.9688C13.5207 22.9688 14.3411 25.8749 12.252 28.6649L13.5207 22.9688Z" fill="white"/>
<path d="M13.5207 22.9688C13.5207 22.9688 14.3411 25.8749 12.252 28.6649" stroke="#7C6656" stroke-linecap="round" stroke-linejoin="round"/>
<path d="M32.5835 23.0449C32.5835 23.0449 27.4189 23.4003 24.5625 24.5362L32.5835 23.0449Z" fill="white"/>
<path d="M32.5835 23.0449C32.5835 23.0449 27.4189 23.4003 24.5625 24.5362" stroke="#7C6656" stroke-linecap="round" stroke-linejoin="round"/>
<path d="M11.1345 29.2031C11.1345 29.2031 9.60335 29.9504 8.23828 30.9169L11.1345 29.2031Z" fill="white"/>
<path d="M11.1345 29.2031C11.1345 29.2031 9.60335 29.9504 8.23828 30.9169" stroke="#7C6656" stroke-linecap="round" stroke-linejoin="round"/>
<path d="M27.6973 38.5977C27.6973 38.5977 27.5445 39.9959 25.3358 40.7532C22.9843 41.5636 21.4531 40.4676 21.4531 40.4676" stroke="#7C6656" stroke-linecap="round" stroke-linejoin="round"/>
<path d="M29.342 42.0762L23.3005 43.7302C23.3005 43.7302 23.0946 46.9918 21.7428 47.7756C21.1184 48.121 20.3711 48.3967 20.3711 48.3967" stroke="#7C6656" stroke-linecap="round" stroke-linejoin="round"/>
<path d="M23.2998 43.7293C23.2998 43.7293 22.1606 40.8165 20.2109 40.6504" stroke="#7C6656" stroke-linecap="round" stroke-linejoin="round"/>
<path d="M29.0167 41.8167C29.0167 41.8167 28.9171 38.6116 27.9141 38.502" stroke="#7C6656" stroke-linecap="round" stroke-linejoin="round"/>
<path d="M19.8711 54.5293C19.8711 54.5293 21.7908 56.273 23.6607 55.5822" stroke="#7C6656" stroke-linecap="round" stroke-linejoin="round"/>
<path d="M29.9795 54.9863C29.9795 54.9863 29.2355 55.9097 26.791 55.903" stroke="#7C6656" stroke-linecap="round" stroke-linejoin="round"/>
<path d="M19.3125 44.3926C19.3125 44.3926 20.382 47.4914 20.6477 50.5935C20.8901 53.4366 19.8705 54.5293 19.8705 54.5293" stroke="#7C6656" stroke-linecap="round" stroke-linejoin="round"/>
<path d="M16.8381 41.142C14.3869 42.0089 12.9189 40.3582 12.9189 40.3582C13.2012 38.9898 12.6764 38.1927 11.2682 37.8904C9.67062 37.555 8.31883 39.0064 8.5945 40.6671C8.87017 42.3277 10.7501 42.3842 10.7501 42.3842C13.3075 44.6992 16.2801 44.6859 18.1068 44.367L16.8414 41.1387L16.8381 41.142Z" fill="white"/>
<path d="M19.3119 44.1517C16.9438 45.1448 13.6623 45.0253 10.7461 42.3881C10.7461 42.3881 8.86959 42.3316 8.5906 40.671C8.31493 39.0103 9.66671 37.5589 11.2643 37.8943C12.6692 38.1966 13.1973 38.9937 12.915 40.3621C12.915 40.3621 14.8679 42.5542 18.0299 40.5547" stroke="#7C6656" stroke-linecap="round" stroke-linejoin="round"/>
<path d="M16.9434 41.3105L18.056 44.127" stroke="#7C6656" stroke-linecap="round" stroke-linejoin="round"/>
<path d="M30.1074 38.2965C32.5353 37.3633 32.5818 35.1546 32.5818 35.1546C31.4791 34.2977 31.3629 33.3511 32.2331 32.2052C33.2295 30.9132 35.199 31.1391 36.0692 32.5805C36.9394 34.0253 35.5478 35.2841 35.5478 35.2841C35.106 38.7051 32.8342 40.6248 31.2433 41.5681L30.1107 38.2899L30.1074 38.2965Z" fill="white"/>
<path d="M30.1801 42.1883C32.6279 41.4045 35.0426 39.1858 35.5474 35.2832C35.5474 35.2832 36.939 34.0211 36.0689 32.5797C35.1987 31.1349 33.2291 30.9123 32.2327 32.2044C31.3592 33.3469 31.4788 34.2935 32.5814 35.1537C32.5814 35.1537 32.5217 38.0898 28.8184 38.6212" stroke="#7C6656" stroke-linecap="round" stroke-linejoin="round"/>
<path d="M30.1328 38.4922L31.1159 41.3585" stroke="#7C6656" stroke-linecap="round" stroke-linejoin="round"/>
<path d="M17.668 29.0117H20.6572L18.3821 30.9182" stroke="#7C6656" stroke-linecap="round" stroke-linejoin="round"/>
<path d="M28.4665 25.7578L26.8125 27.2358H29.3434" stroke="#7C6656" stroke-linecap="round" stroke-linejoin="round"/>
<path d="M12.1212 17.1191L11.1348 15.9102" stroke="#7C6656" stroke-linecap="round" stroke-linejoin="round"/>
<path d="M58.6735 31.5945C60.6531 29.3227 60.7294 26.9579 58.544 26.2039C56.1095 25.3636 55.0566 28.6484 55.0566 28.6484C53.7579 29.9836 55.2227 31.548 55.2227 31.548C55.2227 31.548 54.3425 35.3609 55.2725 37.646C56.2025 39.9311 59.1385 38.5394 59.3179 37.0448C59.4972 35.5502 58.6735 31.5945 58.6735 31.5945Z" fill="white" stroke="#7C6656" stroke-linecap="round" stroke-linejoin="round"/>
<path d="M25.1794 51.3359C25.1794 51.3359 24.8273 53.2125 23.6582 55.5839" stroke="#7C6656" stroke-linecap="round" stroke-linejoin="round"/>
<path d="M23.6595 55.81C23.6595 55.81 24.3104 56.5938 23.4203 57.3511C22.5302 58.105 20.6802 57.3278 20.0226 56.5805C19.345 55.81 19.3417 55.2453 19.8698 54.5312" stroke="#7C6656" stroke-linecap="round" stroke-linejoin="round"/>
<path d="M28.8898 2.89155C28.116 2.06454 26.6612 1.80879 25.8143 2.96462C25.0736 3.9876 25.3593 5.58516 26.5251 6.64467C27.5115 7.54475 28.953 8.01971 30.2948 8.16584C31.3842 7.37536 32.4005 6.24279 32.8057 4.97071C33.2906 3.47611 32.736 1.93833 31.5868 1.43016C30.2782 0.842283 29.1389 1.78887 28.8898 2.88823V2.89155Z" fill="#EE7374"/>
<path d="M20.5498 8.01852C19.7493 7.92552 18.8393 8.45362 18.9123 9.46995C18.9821 10.3667 19.8689 11.104 20.9882 11.1439C21.9381 11.1771 22.9411 10.7752 23.7349 10.2372C23.9641 9.30388 23.994 8.22444 23.632 7.34761C23.2068 6.31135 22.2005 5.73012 21.3436 5.98254C20.3604 6.26485 20.1778 7.30111 20.5498 8.0152V8.01852Z" fill="#EE7374"/>
<path d="M7.62305 43.4648C7.62305 43.4648 8.12789 45.3215 10.1406 44.9428L7.62305 43.4648Z" fill="white"/>
<path d="M7.62305 43.4648C7.62305 43.4648 8.12789 45.3215 10.1406 44.9428" stroke="#7C6656" stroke-linecap="round" stroke-linejoin="round"/>
<path d="M6.64062 45.2383C6.64062 45.2383 7.52742 48.2042 12.2504 45.9391L6.64062 45.2383Z" fill="white"/>
<path d="M6.64062 45.2383C6.64062 45.2383 7.52742 48.2042 12.2504 45.9391" stroke="#7C6656" stroke-linecap="round" stroke-linejoin="round"/>
<defs>
<filter id="filter0_f_1099_26094" x="50.9258" y="20.748" width="7.72461" height="5.35547" filterUnits="userSpaceOnUse" color-interpolation-filters="sRGB">
<feFlood flood-opacity="0" result="BackgroundImageFix"/>
<feBlend mode="normal" in="SourceGraphic" in2="BackgroundImageFix" result="shape"/>
<feGaussianBlur stdDeviation="0.5" result="effect1_foregroundBlur_1099_26094"/>
</filter>
<filter id="filter1_f_1099_26094" x="35.7891" y="21.8809" width="7.72461" height="5.35547" filterUnits="userSpaceOnUse" color-interpolation-filters="sRGB">
<feFlood flood-opacity="0" result="BackgroundImageFix"/>
<feBlend mode="normal" in="SourceGraphic" in2="BackgroundImageFix" result="shape"/>
<feGaussianBlur stdDeviation="0.5" result="effect1_foregroundBlur_1099_26094"/>
</filter>
<filter id="filter2_f_1099_26094" x="26.8086" y="26.9316" width="6.16992" height="4.66016" filterUnits="userSpaceOnUse" color-interpolation-filters="sRGB">
<feFlood flood-opacity="0" result="BackgroundImageFix"/>
<feBlend mode="normal" in="SourceGraphic" in2="BackgroundImageFix" result="shape"/>
<feGaussianBlur stdDeviation="0.5" result="effect1_foregroundBlur_1099_26094"/>
</filter>
<filter id="filter3_f_1099_26094" x="15.8672" y="30.2949" width="6.16992" height="4.66016" filterUnits="userSpaceOnUse" color-interpolation-filters="sRGB">
<feFlood flood-opacity="0" result="BackgroundImageFix"/>
<feBlend mode="normal" in="SourceGraphic" in2="BackgroundImageFix" result="shape"/>
<feGaussianBlur stdDeviation="0.5" result="effect1_foregroundBlur_1099_26094"/>
</filter>
</defs>
</svg>
