<svg width="880" height="640" viewBox="0 0 880 640" fill="none" xmlns="http://www.w3.org/2000/svg">
<path d="M313.621 379.21L332.45 388.683L349.71 396.578L334.019 407.631L302.638 421.841H282.24L275.963 413.946L266.549 404.473H247.72L233.598 415.525L227.322 431.315L228.891 445.525L238.306 458.157L252.427 464.473L268.118 459.736L275.963 453.42L294.792 458.157L308.914 459.736L324.605 456.578L341.865 450.262L337.157 503.946L341.865 505.525L348.141 565.525L345.003 589.209L335.588 600.262L337.157 609.735L355.986 616.051L377.953 612.893L387.368 603.42L392.075 574.999L396.782 535.525H428.164L446.993 606.578L456.407 616.051L472.098 619.209L492.496 617.63L498.772 606.578V597.104L486.22 589.209L481.512 559.209V505.525L492.496 503.946L489.358 492.894L483.082 448.683L505.049 454.999H519.17L544.276 450.262L553.69 443.946L567.812 436.052L578.795 440.788L597.624 436.052L607.039 423.42L610.177 402.894L602.331 391.841L585.072 380.788L570.95 383.946L555.259 394.999L552.121 407.631L534.861 415.525L514.463 417.104L498.772 415.525L486.22 407.631L517.601 393.42L537.999 383.946L553.69 371.315L566.243 352.367L574.088 319.21L575.657 292.368L581.933 279.736L589.779 252.894L627.437 276.578L643.127 281.315L644.696 287.631L629.006 306.578L655.68 301.841L682.354 290.789H699.614L735.703 284.473L765.515 273.42L785.913 257.631L803.173 240.262L815.726 218.157L818.864 189.736L812.588 167.631L793.759 142.368L765.515 123.42L726.288 109.21L685.492 106.052L638.42 113.947L613.315 123.42L583.502 148.684L570.95 166.052L534.861 140.789L506.618 131.315L484.651 118.684L446.993 109.21L417.18 107.631L362.263 118.684L318.329 140.789L297.931 159.736L288.516 175.526L266.549 150.263L294.792 140.789L318.329 121.842L327.743 109.21L335.588 93.4205V72.8942L324.605 52.368L301.069 33.4206L266.549 20.7891H238.306L197.51 28.6838L172.404 46.0522L156.714 68.1574L153.576 88.6837L158.283 109.21L169.266 121.842L147.299 124.999L104.934 137.631L78.2598 159.736L64.1382 183.42L61 211.841L70.4145 238.683L89.2434 259.21L114.349 274.999L161.421 287.631H186.526L205.355 297.104L235.167 303.42L230.46 298.683L219.477 284.473L222.615 282.894L266.549 259.21L280.671 244.999L290.085 224.473L296.361 252.894L285.378 270.262L275.963 300.262V322.367L280.671 341.315L290.085 357.104L313.621 379.21Z" fill="white"/>
<path d="M244.845 151.283C295.148 151.283 335.927 121.894 335.927 85.6414C335.927 49.3887 295.148 20 244.845 20C194.542 20 153.763 49.3887 153.763 85.6414C153.763 121.894 194.542 151.283 244.845 151.283Z" fill="white" stroke="#7C6656" stroke-width="8" stroke-linecap="round" stroke-linejoin="round"/>
<path d="M280.109 74.1454C277.075 66.575 268.499 62.93 260.976 65.9831C260.326 66.2323 259.644 66.6062 258.932 66.98C259.149 65.7027 259.242 64.5189 259.242 63.4596C259.242 55.2973 252.679 48.6926 244.536 48.6926C236.394 48.6926 229.862 55.2973 229.862 63.4596C229.862 65.4223 230.264 67.8835 230.945 70.4693C228.592 68.9427 226.27 67.79 224.289 67.1669C216.518 64.7681 208.314 69.1608 205.961 76.9804C203.577 84.8001 207.942 93.0559 215.713 95.4236C216.859 95.7663 218.252 96.0467 219.769 96.2024C218.654 97.324 217.695 98.4455 216.983 99.5048C212.432 106.265 214.227 115.456 220.945 120.035C227.664 124.615 236.796 122.808 241.348 116.048C242.4 114.459 243.422 112.278 244.258 109.817C245.434 112.714 246.827 115.3 248.251 117.076C253.36 123.431 262.617 124.397 268.901 119.256C275.186 114.116 276.177 104.801 271.068 98.4767C270.078 97.2617 268.716 95.9532 267.106 94.6759C268.932 94.3644 270.604 93.9282 271.935 93.3674C279.458 90.3143 283.081 81.6847 280.047 74.1143L280.109 74.1454Z" fill="#FFDB57"/>
<path d="M243.261 95.642C248.749 95.642 253.199 91.1646 253.199 85.6415C253.199 80.1185 248.749 75.6411 243.261 75.6411C237.772 75.6411 233.323 80.1185 233.323 85.6415C233.323 91.1646 237.772 95.642 243.261 95.642Z" fill="#A48A7B"/>
<path d="M366.984 427.335C325.282 475.561 274.292 452.912 274.292 452.912C274.292 452.912 252.744 476.527 232.899 450.264C216.522 428.612 236.212 406.337 248.379 404.156C260.546 401.975 276.428 407.303 281.753 421.073C281.753 421.073 302.805 430.357 337.356 406.399" fill="white"/>
<path d="M366.983 427.339C325.281 475.565 274.291 452.916 274.291 452.916C274.291 452.916 252.743 476.531 232.899 450.268C216.521 428.616 236.211 406.341 248.378 404.16C260.545 401.979 276.427 407.307 281.752 421.077C281.752 421.077 302.805 430.361 337.355 406.403L347.448 399.456" stroke="#7C6656" stroke-width="8" stroke-linecap="round" stroke-linejoin="round"/>
<path d="M327.044 414.568C327.044 414.568 329.087 421.141 347.415 441.111" stroke="#7C6656" stroke-width="8" stroke-linecap="round" stroke-linejoin="round"/>
<path d="M474.01 442.57C529.303 474.067 569.86 435.591 569.86 435.591C569.86 435.591 598.002 450.639 608.002 419.205C616.268 393.284 590.324 378.891 578.157 380.916C565.959 382.941 552.739 393.316 552.306 408.051C552.306 408.051 535.526 423.878 495 412.849" fill="white"/>
<path d="M474.01 442.57C529.303 474.067 569.86 435.591 569.86 435.591C569.86 435.591 598.002 450.639 608.002 419.205C616.268 393.284 590.324 378.891 578.157 380.916C565.959 382.941 552.739 393.316 552.306 408.051C552.306 408.051 523.328 427.803 499.056 413.877C490.078 409.422 486.827 405.279 486.827 405.279" stroke="#7C6656" stroke-width="8" stroke-linecap="round" stroke-linejoin="round"/>
<path d="M506.635 419.957C506.635 419.957 508.059 427.341 497.378 452.295" stroke="#7C6656" stroke-width="8" stroke-linecap="round" stroke-linejoin="round"/>
<path d="M385.216 598.031C385.216 598.031 399.829 563.388 396.826 534.601C408.621 534.851 427.63 533.48 428.342 533.013C429.364 537.187 438.837 590.772 447.692 606.318C455.617 602.112 472.738 595.85 486.824 590.647C486.298 579.993 483.574 549.181 482.273 538.838C480.973 528.495 481.902 505.161 481.902 505.161C481.902 505.161 365.278 511.018 340.666 505.722C342.213 517.903 354.504 560.366 343.142 589.931C363.08 594.199 380.231 592.859 385.247 598.031H385.216Z" fill="#8FBDE2"/>
<path d="M481.872 507.249C482.089 520.458 482.212 531.798 482.243 538.839C482.367 568.062 488.807 591.458 488.807 591.458" stroke="#7C6656" stroke-width="8" stroke-linecap="round" stroke-linejoin="round"/>
<path d="M485.682 591.427C485.682 591.427 514.536 598.094 490.047 618.251C474.506 622.893 452.463 618.251 446.952 604.855C460.048 600.805 485.713 591.458 485.713 591.458L485.682 591.427Z" fill="white"/>
<path d="M485.677 591.424C485.677 591.424 497.504 593.761 498.773 601.487C500.042 609.213 497.504 619.183 477.04 619.494C456.575 619.806 445.182 608.248 440.477 587.966C435.771 567.685 428.681 533.914 428.681 533.914C428.681 533.914 393.202 536.812 385.214 532.294" stroke="#7C6656" stroke-width="8" stroke-linecap="round" stroke-linejoin="round"/>
<path d="M398.034 534.667C398.034 534.667 390.077 597.661 384.319 605.387C378.561 613.113 361.626 616.011 349.799 614.702C337.973 613.425 334.134 604.421 336.704 598.938C339.273 593.455 345.341 591.43 345.341 591.43" stroke="#7C6656" stroke-width="8" stroke-linecap="round" stroke-linejoin="round"/>
<path d="M341.781 506.5C345.65 546.876 352.4 557.593 344.133 589.931" stroke="#7C6656" stroke-width="8" stroke-linecap="round" stroke-linejoin="round"/>
<path d="M385.211 598.033C385.211 598.033 361.899 590.057 345.335 591.459" stroke="#7C6656" stroke-width="8" stroke-linecap="round" stroke-linejoin="round"/>
<path d="M488.807 591.427C488.807 591.427 468.869 592.86 450.386 605.291" stroke="#7C6656" stroke-width="8" stroke-linecap="round" stroke-linejoin="round"/>
<path d="M480.013 410.702C480.013 410.702 485.183 495.378 492.737 505.129C492.737 505.129 399.581 516.968 337.57 505.129C333.731 463.321 349.396 424.534 349.396 424.534C349.396 424.534 355.371 402.477 358.962 399.517C370.634 402.415 450.726 416.34 472.242 408.303C493.728 400.265 480.044 410.702 480.044 410.702H480.013Z" fill="white"/>
<path d="M349.394 424.565C349.394 424.565 333.76 463.351 337.568 505.16C399.579 516.999 492.735 505.16 492.735 505.16C485.181 495.409 480.011 410.732 480.011 410.732" stroke="#7C6656" stroke-width="8" stroke-linecap="round" stroke-linejoin="round"/>
<path d="M436.363 410.674C436.363 410.674 420.419 428.12 398.036 422.668C369.956 415.814 373.268 403.696 373.268 403.696" stroke="#7C6656" stroke-width="8" stroke-linecap="round" stroke-linejoin="round"/>
<path d="M295.096 230.82C295.096 230.82 294.415 247.768 294.137 252.94C290.483 261.009 271.196 285.651 274.818 319.08C278.409 352.508 304.477 383.101 361.163 400.205C361.163 400.205 394.599 408.429 406.735 408.305" stroke="#7C6656" stroke-width="8" stroke-linecap="round" stroke-linejoin="round"/>
<path d="M430.633 408.864C469.27 411.793 512.242 403.849 541.065 382.197C564.997 364.221 575.863 341.354 574.532 287.582" stroke="#7C6656" stroke-width="8" stroke-linecap="round" stroke-linejoin="round"/>
<g filter="url(#filter0_f_1802_18582)">
<ellipse cx="26.2495" cy="15.4338" rx="26.2495" ry="15.4338" transform="matrix(0.991043 0.133546 -0.13378 0.991011 460.539 309.736)" fill="#F5B0B0"/>
</g>
<g filter="url(#filter1_f_1802_18582)">
<ellipse cx="26.2495" cy="15.4338" rx="26.2495" ry="15.4338" transform="matrix(0.991043 0.133546 -0.13378 0.991011 316.329 294.619)" fill="#F5B0B0"/>
</g>
<path d="M456.516 284.374C455.68 293.097 462.058 300.823 470.695 301.665C479.364 302.506 487.042 296.088 487.878 287.396C488.714 278.673 482.336 270.947 473.698 270.106C465.03 269.264 457.352 275.682 456.516 284.374Z" fill="#7C6656"/>
<path d="M349.029 274.096C348.193 282.819 354.571 290.545 363.209 291.386C371.877 292.227 379.555 285.809 380.391 277.117C381.227 268.394 374.849 260.668 366.212 259.827C357.543 258.986 349.865 265.404 349.029 274.096Z" fill="#7C6656"/>
<path d="M577.162 289.354C627.781 155.517 507.287 130.438 507.287 130.438C428.217 79.6879 330.51 132.743 330.51 132.743C330.51 132.743 259.18 169.287 282.956 234.492" stroke="#7C6656" stroke-width="8" stroke-linecap="round" stroke-linejoin="round"/>
<path d="M492.829 168.637C492.829 168.637 495.275 212.938 422.923 230.82" stroke="#7C6656" stroke-width="8" stroke-linecap="round" stroke-linejoin="round"/>
<path d="M506.358 195.705C506.358 195.705 544.624 223.775 549.825 266.456" stroke="#7C6656" stroke-width="8" stroke-linecap="round" stroke-linejoin="round"/>
<path d="M347.883 225.617C347.883 225.617 398.315 215.492 419.089 172.25" stroke="#7C6656" stroke-width="8" stroke-linecap="round" stroke-linejoin="round"/>
<path d="M437.539 138.226C437.539 138.226 459.179 143.927 459.83 160.221C460.325 172.713 454.876 178.851 435.712 191.998C416.579 205.176 376.549 190.471 354.351 167.604C367.54 151.342 390.79 120.531 437.539 138.226Z" fill="#1AAF92"/>
<path d="M455.219 174.401C455.219 174.401 417.789 232.659 353.394 166.643C353.394 166.643 390.576 109.694 454.135 145.895" stroke="#7C6656" stroke-width="8" stroke-linecap="round" stroke-linejoin="round"/>
<path d="M404.509 165.645C404.54 166.33 449.338 175.022 470.391 147.357" stroke="#7C6656" stroke-width="8" stroke-linecap="round" stroke-linejoin="round"/>
<path d="M385.218 319.576L435.775 322.66C435.775 322.66 436.735 362.257 404.816 358.736C372.866 355.216 385.249 319.576 385.249 319.576H385.218Z" fill="#F29AA0" stroke="#7C6656" stroke-width="8" stroke-linecap="round" stroke-linejoin="round"/>
<path d="M178.004 288.549C242.191 288.549 294.225 251.056 294.225 204.807C294.225 158.557 242.191 121.065 178.004 121.065C113.817 121.065 61.7832 158.557 61.7832 204.807C61.7832 251.056 113.817 288.549 178.004 288.549Z" fill="white" stroke="#7C6656" stroke-width="8" stroke-linecap="round" stroke-linejoin="round"/>
<path d="M213.3 272.566C214.91 280.978 220.421 292.412 235.993 304.655C235.993 304.655 208.502 301.041 187.109 285.869" fill="white"/>
<path d="M213.3 272.566C214.91 280.978 220.421 292.412 235.993 304.655C235.993 304.655 208.502 301.041 187.109 285.869" stroke="#7C6656" stroke-width="8" stroke-linecap="round" stroke-linejoin="round"/>
<path d="M177.851 184.899C171.567 173.497 156.149 166.581 143.518 177.111C132.465 186.457 131.165 205.087 141.165 220.197C148.997 232.035 162.124 240.945 175.529 246.46C177.604 247.301 179.895 247.27 181.938 246.366C195.158 240.447 208.068 231.163 215.467 219.106C225.002 203.748 223.145 185.086 211.814 176.176C198.904 165.958 183.672 173.31 177.851 184.931V184.899Z" fill="#EE7474"/>
<path d="M691.682 290.01C761.939 290.01 818.894 248.975 818.894 198.355C818.894 147.736 761.939 106.7 691.682 106.7C621.425 106.7 564.47 147.736 564.47 198.355C564.47 248.975 621.425 290.01 691.682 290.01Z" fill="white" stroke="#7C6656" stroke-width="8" stroke-linecap="round" stroke-linejoin="round"/>
<path d="M650.071 278.206C647.44 286.337 640.598 297.023 623.632 307.273C623.632 307.273 672.331 306.961 694.343 278.237" fill="white"/>
<path d="M650.071 278.206C647.44 286.337 640.598 297.023 623.632 307.273C623.632 307.273 672.331 306.961 694.343 278.237" stroke="#7C6656" stroke-width="8" stroke-linecap="round" stroke-linejoin="round"/>
<path d="M665.151 189.416H640.817V240.103H665.151V189.416Z" fill="#5CA3D6"/>
<path d="M670.757 192.932C670.757 192.932 687.629 174.457 691.345 158.382C695.06 142.306 713.14 150.095 710.044 160.656C706.917 171.186 709.518 177.729 710.415 178.539C711.313 179.349 734.378 178.539 734.378 178.539C734.378 178.539 743.108 181.405 742.489 192.932C742.118 199.786 737.319 214.334 733.511 224.989C730.787 232.622 723.604 237.7 715.524 237.7H670.757V192.901V192.932Z" fill="#5CA3D6"/>
<defs>
<filter id="filter0_f_1802_18582" x="446.51" y="300.96" width="75.9574" height="55.1527" filterUnits="userSpaceOnUse" color-interpolation-filters="sRGB">
<feFlood flood-opacity="0" result="BackgroundImageFix"/>
<feBlend mode="normal" in="SourceGraphic" in2="BackgroundImageFix" result="shape"/>
<feGaussianBlur stdDeviation="5.94058" result="effect1_foregroundBlur_1802_18582"/>
</filter>
<filter id="filter1_f_1802_18582" x="302.3" y="285.843" width="75.9574" height="55.1527" filterUnits="userSpaceOnUse" color-interpolation-filters="sRGB">
<feFlood flood-opacity="0" result="BackgroundImageFix"/>
<feBlend mode="normal" in="SourceGraphic" in2="BackgroundImageFix" result="shape"/>
<feGaussianBlur stdDeviation="5.94058" result="effect1_foregroundBlur_1802_18582"/>
</filter>
</defs>
</svg>
