<svg width="460" height="345" viewBox="0 0 460 345" fill="none" xmlns="http://www.w3.org/2000/svg">
<ellipse opacity="0.4" cx="152.375" cy="23" rx="152.375" ry="23" transform="matrix(-1 0 0 1 382.375 292.611)" fill="#A1795C"/>
<path d="M228.974 122.189C228.974 122.189 212.077 155.368 225.505 162.94C233.152 167.566 246.543 148.505 250.273 131.552C246.375 129.183 242.664 127.206 240.743 123.737C239.81 124.763 233.32 125.285 228.974 122.189Z" fill="#F3A4A6"/>
<path d="M182.72 69.5939L186.45 91.0421L177.125 102.232L171.529 118.085V131.141L176.192 146.061L182.72 156.319L193.91 167.509L207.898 178.7L174.327 164.712L171.529 154.454L168.732 151.656L164.069 146.994L155.676 146.061L146.351 149.791L142.621 161.914L148.216 171.239L155.676 175.902L195.775 200.148L202.303 203.878L188.315 231.854L191.113 233.719V242.112L196.708 259.83L205.1 305.523L201.37 309.254L199.505 315.781L203.235 321.376L215.358 323.241L225.616 321.376L230.279 317.646V311.119L226.549 284.075L224.684 267.29L234.009 270.087L243.334 308.321L246.132 314.849L250.794 320.444L260.12 323.241H271.31L276.905 318.579L277.838 314.849L275.973 310.186L271.31 306.456L267.58 296.198L264.782 275.683L267.58 251.437L269.445 230.921L286.23 251.437L287.163 261.695L292.758 268.222L303.016 269.155L310.476 263.56L314.206 257.032L313.274 250.504L310.476 244.909L302.083 240.247L296.488 232.786L289.028 216.933L282.5 202.013L275.04 195.485H287.163L307.679 190.823L324.464 181.497C328.194 176.835 335.841 167.509 336.587 167.509C337.333 167.509 341.871 155.697 344.047 149.791L345.912 146.061L355.237 131.141L359.9 119.95L364.563 107.828L367.36 91.9746L365.495 77.9867L359.9 66.7964L349.642 53.741L336.587 43.4832L326.329 37.888L311.409 26.6977L287.163 18.3049L246.132 15.5073L221.886 21.1025L205.1 28.5627L192.978 38.8205L184.585 53.741L182.72 69.5939Z" fill="white"/>
<path d="M267.467 250.562C267.467 250.562 265.621 264.68 265.005 271.17C264.408 277.642 268.866 303.268 271.495 306.569C271.495 306.569 258.44 317.163 245.478 314.887C241.841 308.21 234.567 270.406 234.735 268.988C232.012 269.268 226.249 267.291 226.249 267.291C226.249 267.291 226.715 293.421 227.499 302.298C228.282 311.157 230.147 313.19 230.147 313.19C230.147 313.19 216.01 315.335 206.237 305.786C203.421 297.393 196.595 261.565 195.588 258.19C194.581 254.814 191.802 244.295 192.137 234.97C192.137 234.97 222.743 245.321 238.074 248.417C253.404 251.513 267.448 250.543 267.448 250.543L267.467 250.562Z" fill="#6594C9"/>
<g filter="url(#filter0_f_888_32327)">
<ellipse cx="15.6505" cy="8.69472" rx="15.6505" ry="8.69472" transform="matrix(-0.955745 -0.294197 -0.294197 0.955745 217.562 116.482)" fill="#F5B0B0"/>
</g>
<g filter="url(#filter1_f_888_32327)">
<ellipse cx="15.2158" cy="8.69472" rx="15.2158" ry="8.69472" transform="matrix(-0.955745 -0.294197 -0.294197 0.955745 294.32 143.825)" fill="#F5B0B0"/>
</g>
<path d="M218.044 114.244C223.287 114.244 227.537 109.994 227.537 104.751C227.537 99.508 223.287 95.2578 218.044 95.2578C212.801 95.2578 208.551 99.508 208.551 104.751C208.551 109.994 212.801 114.244 218.044 114.244Z" fill="#7C6656"/>
<path d="M286.361 123.737C286.361 128.978 282.109 133.23 276.868 133.23C271.627 133.23 267.375 128.978 267.375 123.737C267.375 118.496 271.627 114.244 276.868 114.244C282.109 114.244 286.361 118.496 286.361 123.737Z" fill="#7C6656"/>
<path d="M269.595 306.568C269.595 306.568 276.72 307.967 277.484 312.592C278.249 317.218 276.72 323.186 264.392 323.372C247.849 323.633 245.182 316.565 242.365 304.498C239.531 292.356 234.719 272.139 234.719 272.139" stroke="#7C6656" stroke-width="6" stroke-linecap="round" stroke-linejoin="round"/>
<path d="M227.516 119.112C227.516 119.112 231.6 127.113 240.72 123.737C240.72 123.737 244.879 131.141 254.41 131.552" stroke="#7C6656" stroke-width="6" stroke-linecap="round" stroke-linejoin="round"/>
<path d="M250.254 131.552C250.254 131.552 238.541 168.611 225.225 163.221C211.908 157.831 229.29 121.481 229.29 121.481" stroke="#7C6656" stroke-width="6" stroke-linecap="round" stroke-linejoin="round"/>
<path d="M239.062 142.611H233.262" stroke="#7C6656" stroke-width="6" stroke-linecap="round" stroke-linejoin="round"/>
<path d="M268.514 195.449C268.514 195.449 278.473 193.584 284.348 206.191C290.223 218.799 298.149 239.688 304.043 241.366C309.918 243.045 321.612 254.478 308.37 265.388C293.45 277.698 283.658 258.115 286.362 251.829C283.546 248.36 267.115 228.442 263.758 220.459" stroke="#7C6656" stroke-width="6" stroke-linecap="round" stroke-linejoin="round"/>
<path d="M192.156 234.988C191.951 236.163 191.82 237.226 191.82 238.14C191.82 250.077 195.961 256.716 198.031 267.907C200.101 279.097 205.081 306.457 205.081 306.457" stroke="#7C6656" stroke-width="6" stroke-linecap="round" stroke-linejoin="round"/>
<path d="M211.312 189.984C211.312 189.984 193.09 217.158 188.801 232.358" stroke="#7C6656" stroke-width="6" stroke-linecap="round" stroke-linejoin="round"/>
<path d="M206.257 305.785C206.257 305.785 199.281 307.128 199.281 313.824C199.281 317.554 200.494 323.093 216.272 323.298C223.825 323.392 232.554 319.848 230.409 311.138C228.283 302.428 224.963 268.298 224.963 268.298" stroke="#7C6656" stroke-width="6" stroke-linecap="round" stroke-linejoin="round"/>
<path d="M218.043 262.068C218.043 262.068 226.231 269.547 237.011 269.958" stroke="#7C6656" stroke-width="6" stroke-linecap="round" stroke-linejoin="round"/>
<path d="M269.258 235.119C269.258 235.119 266.46 259.7 265.584 265.426C262.693 284.487 271.477 306.569 271.477 306.569" stroke="#7C6656" stroke-width="6" stroke-linecap="round" stroke-linejoin="round"/>
<path d="M216.386 181.106C216.386 181.106 177.425 168.573 173.844 163.742C173.713 155.499 170.132 151.582 167.819 152.179C167.819 152.179 161.851 142.518 151.948 147.05C139.433 152.776 140.31 168.163 154.764 175.474C164.425 183.754 200.048 202.983 200.048 202.983" stroke="#7C6656" stroke-width="6" stroke-linecap="round" stroke-linejoin="round"/>
<path d="M163.192 156.488C163.192 156.488 161.811 157.868 163.192 160.908" stroke="#7C6656" stroke-width="6" stroke-linecap="round" stroke-linejoin="round"/>
<path d="M322.619 234.261C322.619 234.261 297.757 242.673 296.508 269.977" stroke="#93C01F" stroke-width="6" stroke-miterlimit="10" stroke-linecap="round"/>
<path d="M132.362 271.021L135.16 280.346L137.957 286.874L131.43 284.076L128.632 277.548L126.767 272.886L123.037 273.818L121.172 280.346L123.037 285.941L126.767 292.469L135.16 298.996L140.755 299.929L142.62 302.727L138.89 307.389L137.957 312.052L141.687 316.714L147.283 317.647V319.512L148.215 324.175L152.878 325.107L156.608 319.512H165.001L171.528 317.647L174.326 313.917L177.124 312.984L183.651 312.052L186.449 308.322L188.314 303.659L191.111 298.064L192.977 297.131L196.707 296.199V293.401L193.909 292.469H189.246L185.516 294.334L184.584 298.064L181.786 303.659L179.921 307.389H174.326L171.528 306.457L167.798 297.131L175.258 295.266L180.854 290.604L183.651 285.941L184.584 276.616L182.719 269.156L189.246 251.437V249.572L184.584 250.505L175.258 254.235L166.866 259.83L168.731 243.045L166.866 241.18L158.473 244.91L151.945 249.572L146.35 253.303L138.89 257.033L133.295 260.763L132.362 271.021Z" fill="white"/>
<path d="M320.9 235.753C319.389 240.434 321.739 250.263 329.517 250.86C335.653 251.326 339.588 243.922 338.432 239.017C344.493 240.77 350.461 236.853 350.405 231.948C350.331 225.327 343.318 221.056 337.481 221.112C338.245 214.752 334.981 206.807 328.547 206.341C324.201 206.005 319.427 210.202 319.912 216.972C313.645 215.256 307.584 219.005 307.323 224.637C306.968 232.135 316.032 236.685 320.919 235.772L320.9 235.753Z" fill="#F478C4"/>
<path d="M332.927 232.451C330.988 234.092 328.339 233.812 325.952 231.145C323.677 228.627 323.266 225.252 325.206 223.592C327.034 222.025 329.925 222.547 332.256 225.14C334.326 227.452 334.942 230.754 332.927 232.451Z" fill="#FFF797"/>
<path d="M133.296 268.989C133.296 268.989 139.469 258.395 150.044 261.081C156.273 262.666 152.953 266.62 156.236 268.317C159.518 270.014 162.689 268.429 165.692 268.989C171.063 269.977 171.865 276.02 169.627 284.002C169.627 284.002 168.918 291.519 180.183 289.187C180.183 289.187 183.913 286.315 184.566 279.881C184.491 277.456 184.715 272.308 182.179 269.343C182.999 267.142 189.583 249.629 187.979 249.816C184.585 251.961 171.231 255.821 167.743 259.029C168.732 255.355 171.044 240.901 167.687 241.013C164.349 241.125 150.827 250.002 147.824 253.304C143.274 255.057 132.195 256.4 133.277 268.989H133.296Z" fill="#988683"/>
<path d="M147.841 294.073C147.841 294.073 162.333 294.129 161.829 307.911C161.326 321.694 164.105 319.27 164.105 319.27C164.105 319.27 174.288 318.598 175.034 313.674C178.783 313.563 184.005 310.821 186.541 306.867C189.078 302.932 187.81 298.474 190.943 297.542L188.798 294.073C188.798 294.073 185.385 294.297 183.054 300.134C180.704 305.972 180.163 308.061 176.75 306.998C174.978 306.942 172.815 308.061 172.815 308.061C172.815 308.061 170.483 305.804 169.42 303.1C168.357 300.395 167.965 297.579 166.623 297.038C165.28 296.497 154.145 297.523 144.484 290.566C144.484 292.562 145.585 293.83 147.86 294.054L147.841 294.073Z" fill="#988683"/>
<path d="M167.369 257.461C167.369 257.461 170.111 242.746 168.358 241.142C166.623 239.538 149.931 250.486 147.45 253.731C147.45 253.731 134.003 256.715 132.754 264.809C131.504 272.904 133.5 283.367 144.448 290.585C155.396 297.802 172.591 300.301 180.555 290.585C188.519 280.868 182.178 269.323 182.178 269.323C182.178 269.323 188.78 251.996 188.78 250.504C188.78 249.012 171.099 254.141 167.369 259.923" stroke="#7C6656" stroke-width="6" stroke-linecap="round" stroke-linejoin="round"/>
<path d="M150.94 302.298C150.94 302.298 146.202 323.466 148.44 324.455C150.679 325.443 155.155 327.364 158.903 309.851" stroke="#7C6656" stroke-width="6" stroke-linecap="round" stroke-linejoin="round"/>
<path d="M140.477 288.049C140.477 288.049 129.156 286.109 128.652 278.145C128.652 278.145 128.149 272.42 123.915 273.166C119.681 273.912 119.439 282.622 125.911 290.846C132.382 299.071 140.477 299.463 140.477 299.463" stroke="#7C6656" stroke-width="6" stroke-linecap="round" stroke-linejoin="round"/>
<path d="M140.473 294.073C140.473 294.073 140.473 298.306 142.711 304.536" stroke="#7C6656" stroke-width="6" stroke-linecap="round" stroke-linejoin="round"/>
<path d="M141.599 304.536C141.599 304.536 136.75 307.52 139.323 313.675C142.345 317.666 146.709 317.48 146.709 317.48" stroke="#7C6656" stroke-width="6" stroke-linecap="round" stroke-linejoin="round"/>
<path d="M167.632 298.306C167.632 298.306 170.131 306.27 172.108 307.52C174.103 308.769 178.58 315.241 169.87 317.479C161.16 319.717 158.922 319.213 158.922 319.213" stroke="#7C6656" stroke-width="6" stroke-linecap="round" stroke-linejoin="round"/>
<path d="M177.331 259.458C177.331 259.458 173.34 264.177 173.097 264.811C172.855 265.445 170.113 263.692 170.113 263.692" stroke="#7C6656" stroke-width="6" stroke-linecap="round" stroke-linejoin="round"/>
<path d="M161.028 251.494L158.902 257.462L154.93 255.97" stroke="#7C6656" stroke-width="6" stroke-linecap="round" stroke-linejoin="round"/>
<path d="M170.114 276.393C170.114 276.393 172.352 272.606 157.973 272.606" stroke="#7C6656" stroke-width="6" stroke-linecap="round" stroke-linejoin="round"/>
<path d="M145.453 261.919C145.453 261.919 151.571 260.763 153.361 269.324" stroke="#7C6656" stroke-width="6" stroke-linecap="round" stroke-linejoin="round"/>
<path d="M156.234 274.508H151.926L150.938 271.17" stroke="#7C6656" stroke-width="6" stroke-linecap="round" stroke-linejoin="round"/>
<path d="M151.367 272.606C151.367 272.606 143.608 281.521 147.842 285.569C152.076 289.616 154.911 275.273 154.911 275.273" stroke="#7C6656" stroke-width="6" stroke-linecap="round" stroke-linejoin="round"/>
<path d="M173.73 307.67C174.495 306.905 175.651 306.607 176.733 306.998C176.808 307.036 178.319 307.539 179.605 306.924C180.463 306.513 181.135 305.599 181.601 304.201C183.559 298.363 186.226 290.343 194.712 291.966C196.26 292.283 197.23 293.719 196.932 295.248C196.633 296.759 195.179 297.766 193.649 297.468C190.889 296.946 189.527 298.102 186.898 305.972C185.685 309.628 183.522 311.269 181.937 312.015C179.829 313.004 177.74 312.91 176.36 312.668" stroke="#7C6656" stroke-width="6" stroke-linecap="round" stroke-linejoin="round"/>
<path d="M191.839 77.3345C190.869 80.3372 189.992 83.4332 189.227 86.6411C186.206 90.9121 172.311 103.091 170.782 122.86C169.253 142.63 181.133 163.183 212.336 179.297C212.336 179.297 230.911 187.876 238.036 188.958" stroke="#7C6656" stroke-width="6" stroke-linecap="round" stroke-linejoin="round"/>
<path d="M252.512 192.894C270.789 196.624 297.571 197.37 314.954 187.858C329.296 180.025 343.265 162.065 348.991 133.231" stroke="#7C6656" stroke-width="6" stroke-linecap="round" stroke-linejoin="round"/>
<path d="M354.49 131.383C394.514 62.5814 325.451 37.6269 325.451 37.6269C284.811 0.94129 224.794 20.1141 224.794 20.1141C224.794 20.1141 176.601 33.0389 183.39 73.4174" stroke="#7C6656" stroke-width="6" stroke-linecap="round" stroke-linejoin="round"/>
<path d="M290.038 20.7302C290.038 20.7302 300.65 28.7127 297.349 37.7396C294.812 44.6589 290.467 46.7851 277.001 49.6573C263.554 52.5294 244.866 35.5201 237.816 18.0446C248.69 12.151 268.347 0.568995 290.038 20.7489V20.7302Z" fill="#1BAE91"/>
<path d="M291.658 44.4536C291.658 44.4536 258.087 67.8041 237.516 17.2984C237.516 17.2984 270.658 -5.39929 297.459 28.6566" stroke="#7C6656" stroke-width="6" stroke-linecap="round" stroke-linejoin="round"/>
<path d="M265.77 28.2651C265.64 28.6381 288.281 43.484 306.018 33.1143" stroke="#7C6656" stroke-width="6" stroke-linecap="round" stroke-linejoin="round"/>
<path d="M303.034 58.4604C303.034 58.4604 284.252 91.0803 250.719 86.6974" stroke="#7C6656" stroke-width="6" stroke-linecap="round" stroke-linejoin="round"/>
<path d="M220.207 182.767C220.207 182.767 221.251 192.204 236.172 197.333C252.062 202.797 262.413 195.393 262.413 195.393" stroke="#7C6656" stroke-width="6" stroke-linecap="round" stroke-linejoin="round"/>
<path d="M287.222 215.367L268.18 228.012" stroke="#7C6656" stroke-width="6" stroke-linecap="round" stroke-linejoin="round"/>
<path d="M201.556 177.488L196.949 201.342" stroke="#7C6656" stroke-width="6" stroke-linecap="round" stroke-linejoin="round"/>
<path d="M271.497 306.568C271.497 306.568 256.95 318.337 244.305 313.674" stroke="#7C6656" stroke-width="6" stroke-linecap="round" stroke-linejoin="round"/>
<path d="M206.258 305.785C206.258 305.785 213.382 314.047 229.907 314.01" stroke="#7C6656" stroke-width="6" stroke-linecap="round" stroke-linejoin="round"/>
<path d="M188.781 232.358C188.781 232.358 223.732 250.524 264.969 250.99" stroke="#7C6656" stroke-width="6" stroke-linecap="round" stroke-linejoin="round"/>
<path d="M254.413 51.373C254.413 51.373 237.161 71.2359 208.551 73.2501L254.413 51.373Z" fill="white"/>
<path d="M254.413 51.373C254.413 51.373 237.161 71.2359 208.551 73.2501" stroke="#7C6656" stroke-width="6" stroke-linecap="round" stroke-linejoin="round"/>
<path d="M322.617 77.4277C322.617 77.4277 335.878 91.4343 334.162 122.581L322.617 77.4277Z" fill="white"/>
<path d="M322.617 77.4277C322.617 77.4277 335.878 91.4343 334.162 122.581" stroke="#7C6656" stroke-width="6" stroke-linecap="round" stroke-linejoin="round"/>
<defs>
<filter id="filter0_f_888_32327" x="172.871" y="98.6855" width="54.3516" height="43.0039" filterUnits="userSpaceOnUse" color-interpolation-filters="sRGB">
<feFlood flood-opacity="0" result="BackgroundImageFix"/>
<feBlend mode="normal" in="SourceGraphic" in2="BackgroundImageFix" result="shape"/>
<feGaussianBlur stdDeviation="6" result="effect1_foregroundBlur_888_32327"/>
</filter>
<filter id="filter1_f_888_32327" x="250.453" y="126.217" width="53.5352" height="42.8818" filterUnits="userSpaceOnUse" color-interpolation-filters="sRGB">
<feFlood flood-opacity="0" result="BackgroundImageFix"/>
<feBlend mode="normal" in="SourceGraphic" in2="BackgroundImageFix" result="shape"/>
<feGaussianBlur stdDeviation="6" result="effect1_foregroundBlur_888_32327"/>
</filter>
</defs>
</svg>
