<svg width="160" height="121" viewBox="0 0 160 121" fill="none" xmlns="http://www.w3.org/2000/svg">
<ellipse opacity="0.4" cx="80" cy="113" rx="47" ry="8" fill="#E1D6CF"/>
<path d="M61.5 112L64 108V103L65 89.5L79 88L95.5 89L94.5 100.5L95 109L96.5 111.5V113.5L94.5 115H89L86.5 113.5L84.5 109.5L83 97H76.5L73 112L71.5 113.5L67.5 116H64L61.5 115V112Z" fill="white"/>
<path d="M95.4948 90.1411C95.4948 90.1411 66.5712 89.8568 64.6994 89.7251C64.4429 92.0337 65.3164 105.58 62.7305 109.941C64.3042 111.127 72.3948 112.201 72.3948 112.201C72.3948 112.201 76.1315 98.9388 76.3464 97.157C76.3464 97.157 82.884 98.0514 83.0435 97.6839C83.203 97.3165 82.884 98.0514 82.884 98.0514L85.6017 112.305C85.6017 112.305 89.1582 110.482 95.0788 110.01C94.5172 107.314 94.1567 102.807 94.5866 99.8123C95.0095 96.8173 95.4948 90.148 95.4948 90.148V90.1411Z" fill="#8FBDE2"/>
<path d="M63.2777 110.385C63.2777 110.385 61.1286 111.127 60.8374 112.846C60.5532 114.565 60.7334 116.194 65.316 116.201C69.1983 116.201 71.0008 114.593 72.3943 112.201" stroke="#7C6656" stroke-width="2" stroke-linecap="round" stroke-linejoin="round"/>
<path d="M83.2031 97.3164C83.2031 97.3164 84.7907 111.723 86.0802 113.442C87.3697 115.161 91.162 115.806 93.8103 115.515C96.4586 115.231 97.3183 113.227 96.7428 112.007C96.1674 110.787 94.8086 110.336 94.8086 110.336" stroke="#7C6656" stroke-width="2" stroke-linecap="round" stroke-linejoin="round"/>
<path d="M95.4954 90.1411C94.6358 99.4518 93.1938 102.703 95.0795 110.01" stroke="#7C6656" stroke-width="2" stroke-linecap="round" stroke-linejoin="round"/>
<path d="M64.8451 74.9097C64.8451 74.9097 64.3668 92.4565 64.339 98.9595C64.3113 105.462 62.5781 110.503 62.5781 110.503C62.5781 110.503 70.2596 110.613 72.5544 112.201C73.0882 111.002 73.2685 110.281 73.4972 109.185C74.4401 104.651 76.3397 97.1569 76.3397 97.1569C76.3397 97.1569 84.2846 97.8017 86.0733 96.7964" stroke="#7C6656" stroke-width="2" stroke-linecap="round" stroke-linejoin="round"/>
<path d="M95.6484 110.78C95.6484 110.78 90.0467 109.678 86.0742 112.589" stroke="#7C6656" stroke-width="2" stroke-linecap="round" stroke-linejoin="round"/>
<path d="M95.4947 90.1411H64.7617" stroke="#7C6656" stroke-width="2" stroke-linecap="round" stroke-linejoin="round"/>
<path d="M63.3613 90.2446C63.3613 90.2446 85.6363 93.919 96.8744 89.7247C96.8744 89.7247 93.7061 79.7623 93.6229 73.5713" stroke="#7C6656" stroke-width="2" stroke-linecap="round" stroke-linejoin="round"/>
<path d="M65.1639 73.5649C65.1639 73.5649 64.1239 88.1723 63.3613 90.2383C63.3613 90.2383 85.6363 93.9126 96.8744 89.7183C96.8744 89.7183 93.7061 79.7559 93.6229 73.5649" fill="white"/>
<path d="M65.1639 73.5649C65.1639 73.5649 64.1239 88.1723 63.3613 90.2383C63.3613 90.2383 85.6363 93.9126 96.8744 89.7183C96.8744 89.7183 93.7061 79.7559 93.6229 73.5649" stroke="#7C6656" stroke-width="2" stroke-linecap="round" stroke-linejoin="round"/>
<path d="M94.2816 67.2901C93.8241 66.7979 91.3491 65.7441 91.3491 65.7441C86.0524 67.2347 64.0201 66.7009 64.0201 66.7009C58.8066 72.046 58.2867 78.8817 63.2713 82.7918C68.2491 86.7019 78.2877 83.1385 78.2877 83.1385C78.2877 83.1385 82.7039 85.8423 85.2136 81.7796L92.7841 79.7899L94.2816 67.2832V67.2901Z" fill="white"/>
<path d="M87.7782 68.3442C87.383 69.6129 85.9202 71.8245 81.4416 72.393C77.5801 72.8783 74.0929 71.0688 72.4082 68.6701" stroke="#7C6656" stroke-width="2" stroke-linecap="round" stroke-linejoin="round"/>
<path d="M67.3541 73.6616C70.3074 78.4244 77.1223 75.3046 77.1223 75.3046C77.1223 75.3046 78.1345 73.3635 81.1711 73.2109C85.8923 72.9683 87.0778 78.2719 85.2684 81.1975C82.7587 85.2532 78.3425 82.5563 78.3425 82.5563C78.3425 82.5563 68.4425 86.8685 63.4648 82.9584C58.487 79.0483 58.2513 72.0532 63.4648 66.708" stroke="#7C6656" stroke-width="2" stroke-linecap="round" stroke-linejoin="round"/>
<path d="M68.0691 74.9097C68.0691 74.9097 63.8817 78.5286 60.748 78.2998" stroke="#7C6656" stroke-width="2" stroke-linecap="round" stroke-linejoin="round"/>
<path d="M89.9981 74.7363C88.1956 80.3033 80.0981 79.2704 80.0981 79.2704C80.0981 79.2704 78.046 77.4401 75.6958 77.3846C70.9677 77.2807 69.9 82.7853 71.7095 85.7109C74.2191 89.7666 79.703 85.5723 79.703 85.5723C79.703 85.5723 89.6515 87.9779 94.6362 84.0678C99.6139 80.1578 99.503 72.6288 94.2895 67.2905" fill="white"/>
<path d="M89.9968 74.7363C88.1943 80.3033 79.5214 79.0346 79.5214 79.0346C79.5214 79.0346 78.4329 77.2668 76.0897 77.2113C71.3615 77.1073 70.1829 82.2723 71.9924 85.1979C74.5021 89.2536 78.9182 86.5567 78.9182 86.5567C78.9182 86.5567 89.2619 88.179 94.2397 84.2689C99.2174 80.3588 99.5016 72.6357 94.2882 67.2905" stroke="#7C6656" stroke-width="2" stroke-linecap="round" stroke-linejoin="round"/>
<path d="M89.9688 76.2822C89.9688 76.2822 94.1423 79.4921 97.269 79.2564" stroke="#7C6656" stroke-width="2" stroke-linecap="round" stroke-linejoin="round"/>
<path d="M54.2922 77.2808C54.2922 77.2808 51.8242 80.3173 54.2922 84.6226" stroke="#7C6656" stroke-width="2" stroke-linecap="round" stroke-linejoin="round"/>
<path d="M48.7478 80.0815C48.7478 80.0815 46.0093 85.9952 53.7463 89.7181" stroke="#7C6656" stroke-width="2" stroke-linecap="round" stroke-linejoin="round"/>
<path d="M47.0834 25.8812C47.0834 25.8812 47.3885 29.1396 50.1755 31.5106L50.5429 33.4517C50.5429 33.4517 44.9828 38.4641 46.6467 51.1026C47.1597 57.9868 54.8412 62.3545 66.2595 66.632C75.182 69.2665 91.3631 68.594 97.9145 66.5973C102.144 64.8503 112.48 61.4394 113.236 46.0555C113.264 42.8803 115.711 35.2335 115.711 35.2335C115.711 35.2335 118.838 27.2469 113.34 16.5912C108.813 7.86981 98.3513 6.30993 98.3513 6.30993C98.3513 6.30993 91.6681 1.59565 81.9345 1.22128C72.2009 0.846908 60.0131 5.82464 60.0131 5.82464C60.0131 5.82464 45.9881 11.9601 47.0904 25.8812H47.0834Z" fill="white"/>
<path d="M51.1807 27.1152C50.3695 29.2783 50.6122 32.294 50.5429 33.4449C49.704 35.2335 45.3363 40.6688 46.0712 48.1215C46.8061 55.5673 52.5672 62.4308 65.2265 66.3686C65.2265 66.3686 72.6931 68.2751 75.4107 68.2751" stroke="#7C6656" stroke-width="2" stroke-linecap="round" stroke-linejoin="round"/>
<path d="M80.7559 68.4486C89.401 69.1835 99.0376 67.5127 105.547 62.7637C110.948 58.819 113.43 53.7511 113.25 41.7852" stroke="#7C6656" stroke-width="2" stroke-linecap="round" stroke-linejoin="round"/>
<g filter="url(#filter0_f_2350_39127)">
<ellipse cx="95.8816" cy="51.2128" rx="6.61865" ry="3.67703" transform="rotate(5.76845 95.8816 51.2128)" fill="#F5B0B0"/>
</g>
<g filter="url(#filter1_f_2350_39127)">
<ellipse cx="59.7729" cy="48.3052" rx="6.4348" ry="3.67703" transform="rotate(5.76845 59.7729 48.3052)" fill="#F5B0B0"/>
</g>
<path d="M113.645 41.8196C125.271 12.1542 98.3512 6.30295 98.3512 6.30295C80.7558 -5.17079 58.765 6.42081 58.765 6.42081C58.765 6.42081 42.7157 14.3935 47.8945 28.9593" stroke="#7C6656" stroke-width="2" stroke-linecap="round" stroke-linejoin="round"/>
<path d="M95.2245 15.1353C95.2245 15.1353 95.6682 25.0006 79.4316 28.8136" stroke="#7C6656" stroke-width="2" stroke-linecap="round" stroke-linejoin="round"/>
<path d="M98.1836 21.1875C98.1836 21.1875 106.69 27.5171 107.758 37.0289" stroke="#7C6656" stroke-width="2" stroke-linecap="round" stroke-linejoin="round"/>
<path d="M62.6328 27.4893C62.6328 27.4893 73.9471 25.3471 78.696 15.7729" stroke="#7C6656" stroke-width="2" stroke-linecap="round" stroke-linejoin="round"/>
<path d="M83.5412 8.41761C83.5412 8.41761 88.0059 10.6846 87.3751 14.255C86.8898 16.9935 85.4062 18.068 80.5948 20.0231C75.7835 21.9781 67.7206 16.8756 63.9492 10.8441C67.6028 7.93232 74.1473 2.3445 83.5412 8.41761Z" fill="#1AAF92"/>
<path d="M85.7055 17.125C85.7055 17.125 74.7587 28.0164 63.791 10.5874C63.791 10.5874 74.62 -0.0266901 86.8148 10.8716" stroke="#7C6656" stroke-width="2" stroke-linecap="round" stroke-linejoin="round"/>
<path d="M75.0157 12.8058C74.9949 12.9583 84.3818 16.9793 90.2955 11.96" stroke="#7C6656" stroke-width="2" stroke-linecap="round" stroke-linejoin="round"/>
<path d="M70.6694 40.2664L61.0605 38.9907" stroke="#7C6656" stroke-width="2" stroke-linecap="round" stroke-linejoin="round"/>
<path d="M85.4355 41.7852L94.7948 42.7003" stroke="#7C6656" stroke-width="2" stroke-linecap="round" stroke-linejoin="round"/>
<path d="M79.4301 52.6138C79.4301 52.6138 74.2097 49.3554 69.8906 54.1321" stroke="#7C6656" stroke-width="2" stroke-linecap="round" stroke-linejoin="round"/>
<path d="M83.6888 48.5928C83.6888 48.5928 80.6314 49.1959 79.432 52.6138C78.2327 56.0316 80.7631 59.5396 80.7631 59.5396" stroke="#7C6656" stroke-width="2" stroke-linecap="round" stroke-linejoin="round"/>
<path d="M80.7558 33.6597L79.4316 37.029" stroke="#7C6656" stroke-width="2" stroke-linecap="round" stroke-linejoin="round"/>
<defs>
<filter id="filter0_f_2350_39127" x="87.4238" y="45.6313" width="16.9156" height="11.1629" filterUnits="userSpaceOnUse" color-interpolation-filters="sRGB">
<feFlood flood-opacity="0" result="BackgroundImageFix"/>
<feBlend mode="normal" in="SourceGraphic" in2="BackgroundImageFix" result="shape"/>
<feGaussianBlur stdDeviation="0.931167" result="effect1_foregroundBlur_2350_39127"/>
</filter>
<filter id="filter1_f_2350_39127" x="51.4975" y="42.727" width="16.5508" height="11.1563" filterUnits="userSpaceOnUse" color-interpolation-filters="sRGB">
<feFlood flood-opacity="0" result="BackgroundImageFix"/>
<feBlend mode="normal" in="SourceGraphic" in2="BackgroundImageFix" result="shape"/>
<feGaussianBlur stdDeviation="0.931167" result="effect1_foregroundBlur_2350_39127"/>
</filter>
</defs>
</svg>
