<svg width="80" height="60" viewBox="0 0 80 60" fill="none" xmlns="http://www.w3.org/2000/svg">
<ellipse opacity="0.4" cx="40" cy="56" rx="23.5" ry="4" fill="#E1D6CF"/>
<path d="M31.6581 33.0858L31.9976 31.0487L42.523 30.8789L48.974 32.4068L51.5205 37.4997L51.86 39.8764L51.0112 41.2345L49.3136 41.9136L49.4833 43.781L49.1438 44.1205L48.295 44.46L47.6159 50.5715L47.7857 53.4575L48.295 54.1366L48.974 54.9854L48.4647 56.1737L46.4276 56.5133L44.2206 56.004L43.5416 55.3249L43.0323 53.4575L42.3532 47.6855L38.7882 47.5158L36.9208 54.8156L36.4115 55.6644L35.2231 56.5133L33.3557 56.8528L31.4883 56.5133L30.979 55.6644L31.6581 54.6459L32.3372 52.9482L33.0162 49.7227V44.9693L32.6767 44.46L32.8465 42.7624L32.5069 41.7438L30.4698 41.0647L29.4512 39.7066L29.6209 37.6695L30.6395 34.7835L31.6581 33.0858Z" fill="white"/>
<path d="M53.7783 5.42503C53.7783 5.42503 60.0935 10.3007 55.4692 16.4733C55.3571 16.4631 55.3402 17.2202 55.3402 17.2202C55.3402 17.2202 57.6116 20.1741 57.3603 22.8326C57.1091 25.4911 56.756 30.6723 46.689 33.3206C43.6536 33.8333 37.5421 34.2204 33.3184 33.2527C30.2253 32.6212 26.2834 30.8319 24.9864 26.4045C24.9864 26.4045 24.0527 23.4404 24.3752 21.0162C24.0085 19.7429 22.6878 17.0199 23.1495 12.1171C23.6113 7.21774 27.6822 4.39626 32.2455 3.2181C34.7478 1.99919 38.8425 0.31174 44.5805 1.40162C50.3151 2.49151 53.7783 5.42164 53.7783 5.42164V5.42503Z" fill="white"/>
<path d="M55.1223 14.1094C55.489 15.1823 55.3227 16.6524 55.343 17.2195C55.7267 18.1056 57.7842 20.8354 57.3123 24.4684C56.8403 28.1047 53.917 31.3778 47.6629 33.1128C47.6629 33.1128 43.2049 34.0668 40.0269 33.8971C37.7249 33.9038 31.0906 33.1637 27.9771 30.7428C25.3933 28.7328 24.2525 26.2135 24.5207 20.3567" stroke="#7C6656" stroke-linecap="round" stroke-linejoin="round"/>
<g filter="url(#filter0_f_1099_24518)">
<ellipse cx="3.11102" cy="1.81853" rx="3.11102" ry="1.81853" transform="matrix(0.999798 -0.020112 0.0182585 0.999833 47.0273 21.0723)" fill="#F5B0B0"/>
</g>
<g filter="url(#filter1_f_1099_24518)">
<ellipse cx="3.11102" cy="1.81853" rx="3.11102" ry="1.81853" transform="matrix(0.999798 -0.020112 0.0182585 0.999833 30.418 22.1348)" fill="#F5B0B0"/>
</g>
<path d="M45.969 23.3926C45.969 23.3926 44.5668 24.8424 41.8981 25.0019C39.2294 25.1615 37.7559 23.8815 37.7559 23.8815" stroke="#7C6656" stroke-linecap="round" stroke-linejoin="round"/>
<path d="M24.2289 20.3773C18.9798 5.68256 32.2451 3.22098 32.2451 3.22098C41.0287 -2.12998 51.622 3.86948 51.622 3.86948C51.622 3.86948 59.3598 8.01172 56.6063 15.0637" stroke="#7C6656" stroke-linecap="round" stroke-linejoin="round"/>
<path d="M33.7429 7.58398C33.7429 7.58398 33.3762 12.4053 41.2702 14.5171" stroke="#7C6656" stroke-linecap="round" stroke-linejoin="round"/>
<path d="M32.1985 10.5039C32.1985 10.5039 27.9409 13.4748 27.2754 18.1161" stroke="#7C6656" stroke-linecap="round" stroke-linejoin="round"/>
<path d="M49.5067 14.1202C49.5067 14.1202 43.9996 12.9013 41.8164 8.14453" stroke="#7C6656" stroke-linecap="round" stroke-linejoin="round"/>
<path d="M39.1249 4.60377C39.1249 4.60377 36.9044 5.64952 37.159 7.40488C37.3559 8.7528 38.0655 9.29944 40.3913 10.3282C42.7171 11.357 46.7405 8.98029 48.6792 6.08411C46.934 4.60377 43.8138 1.76871 39.1249 4.60377Z" fill="#1AAF92"/>
<path d="M37.9359 8.83183C37.9359 8.83183 43.1307 14.3254 48.7601 5.95942C48.7601 5.95942 43.6196 0.60167 37.4844 5.75231" stroke="#7C6656" stroke-linecap="round" stroke-linejoin="round"/>
<path d="M43.2333 6.87999C43.2435 6.95468 38.5851 8.78474 35.7637 6.23828" stroke="#7C6656" stroke-linecap="round" stroke-linejoin="round"/>
<path d="M33.9023 20.4274C33.9023 20.4274 34.3471 21.2592 35.5117 21.1709C36.8189 21.0759 37.2671 19.7891 37.2671 19.7891" stroke="#7C6656" stroke-linecap="round" stroke-linejoin="round"/>
<path d="M49.0221 19.3155C49.0221 19.3155 48.7029 20.2017 47.5383 20.2899C46.2311 20.385 45.5996 19.1797 45.5996 19.1797" stroke="#7C6656" stroke-linecap="round" stroke-linejoin="round"/>
<path d="M48.3124 44.0768C48.3124 44.0768 33.9538 43.9376 33.0404 43.873C32.9148 45.0037 33.3426 51.638 32.0762 53.7737C32.8469 54.3543 36.8092 54.8805 36.8092 54.8805C36.8092 54.8805 38.6392 48.3854 38.7445 47.5128C38.7445 47.5128 41.9462 47.9508 42.0243 47.7708C42.1024 47.5909 41.9462 47.9508 41.9462 47.9508L43.2772 54.9315C43.2772 54.9315 45.019 54.0385 47.9185 53.8076C47.6435 52.4869 47.467 50.2799 47.6775 48.8132C47.8846 47.3464 48.3158 44.0802 48.3158 44.0802L48.3124 44.0768Z" fill="#8EBDE2"/>
<path d="M32.3405 53.9902C32.3405 53.9902 31.288 54.3535 31.1454 55.1956C31.0062 56.0376 31.0944 56.8355 33.3387 56.8389C35.2401 56.8389 36.1228 56.0512 36.8053 54.8798" stroke="#7C6656" stroke-linecap="round" stroke-linejoin="round"/>
<path d="M42.0996 47.5898C42.0996 47.5898 42.8771 54.6452 43.5086 55.4873C44.1402 56.3293 45.9974 56.6451 47.2944 56.5025C48.5914 56.3632 49.0124 55.382 48.7306 54.7844C48.4488 54.1869 47.7833 53.9662 47.7833 53.9662" stroke="#7C6656" stroke-linecap="round" stroke-linejoin="round"/>
<path d="M47.4336 35.5918C47.4336 35.5918 48.7306 39.5201 48.3096 44.0766C47.8886 48.6365 46.9922 50.2288 47.9123 53.8075" stroke="#7C6656" stroke-linecap="round" stroke-linejoin="round"/>
<path d="M33.1083 36.6172C33.1083 36.6172 32.874 45.2106 32.8604 48.3954C32.8469 51.5802 31.998 54.0485 31.998 54.0485C31.998 54.0485 35.76 54.1029 36.8839 54.8804C37.1453 54.293 37.2336 53.9399 37.3456 53.4034C37.8074 51.1829 38.7377 47.5126 38.7377 47.5126C38.7377 47.5126 42.6287 47.8284 43.5046 47.3361" stroke="#7C6656" stroke-linecap="round" stroke-linejoin="round"/>
<path d="M48.1928 54.1842C48.1928 54.1842 45.4494 53.6444 43.5039 55.0704" stroke="#7C6656" stroke-linecap="round" stroke-linejoin="round"/>
<path d="M44.4306 33.8359C44.064 34.5014 43.2049 35.3231 41.3206 35.5675C39.3106 35.829 37.854 35.3027 36.9746 34.0193" stroke="#7C6656" stroke-linecap="round" stroke-linejoin="round"/>
<path d="M48.3112 44.0762H33.0664" stroke="#7C6656" stroke-linecap="round" stroke-linejoin="round"/>
<path d="M47.4671 35.7173C47.4365 35.5917 49.528 40.2772 49.4363 44.2191C49.4363 44.2191 40.2181 45.7436 32.6738 44.8031C32.6738 44.8031 33.0337 38.0295 33.1899 36.3353" fill="white"/>
<path d="M47.4671 35.7173C47.4365 35.5917 49.528 40.2772 49.4363 44.2191C49.4363 44.2191 40.2181 45.7436 32.6738 44.8031C32.6738 44.8031 33.0337 38.0295 33.1899 36.3353" stroke="#7C6656" stroke-linecap="round" stroke-linejoin="round"/>
<path d="M33.1655 35.1081L32.904 35.9807L32.9889 37.6953H35.5931L36.7135 36.9789L37.9562 37.0672L39.4603 38.2318V40.8767L38.0784 41.9191H36.8935L35.7866 41.6067L31.4339 41.7052L29.5054 40.7409L28.918 39.1723L29.1862 37.4679L30.8703 33.6074L33.1655 35.1081Z" fill="white"/>
<path d="M32.7786 37.8627C34.3166 38.2973 35.6883 37.9646 35.6883 37.9646C35.6883 37.9646 36.0991 37.075 37.1856 36.98C39.3688 36.7864 40.1803 39.248 39.4944 40.7182C38.5404 42.7553 36.3572 41.5806 36.3572 41.5806C36.3572 41.5806 33.023 41.8692 31.9569 41.7469C30.0827 41.5263 28.6703 40.3786 29.3765 37.6998C29.3765 37.6998 30.6226 34.2094 31.7091 32.668" stroke="#7C6656" stroke-linecap="round" stroke-linejoin="round"/>
<path d="M33.3123 36.0938C33.3123 36.0938 33.2342 37.7235 33.3258 37.8627" stroke="#7C6656" stroke-linecap="round" stroke-linejoin="round"/>
<path d="M30.1309 35.7363C30.1309 35.7363 31.3498 36.7244 33.2817 36.6361" stroke="#7C6656" stroke-linecap="round" stroke-linejoin="round"/>
<path d="M47.8339 35.4245L48.0953 36.2971L48.0105 38.0117H45.4063L44.2858 37.2953L43.0432 37.3836L41.5391 38.5482V41.1931L42.9209 42.2355H44.1059L45.2128 41.9231L49.5655 42.0216L51.4906 41.0607L52.0814 39.4921L51.8098 37.7877L50.1291 33.9238L47.8339 35.4245Z" fill="white"/>
<path d="M48.2225 38.1791C46.6845 38.6137 45.3128 38.281 45.3128 38.281C45.3128 38.281 44.902 37.3914 43.8155 37.2964C41.6323 37.1028 40.8208 39.5644 41.5067 41.0346C42.4607 43.0717 44.6439 41.897 44.6439 41.897C44.6439 41.897 47.9781 42.1856 49.0442 42.0633C50.9184 41.8427 52.3308 40.6951 51.6246 38.0162C51.6246 38.0162 50.3785 34.5258 49.2921 32.9844" stroke="#7C6656" stroke-linecap="round" stroke-linejoin="round"/>
<path d="M47.6894 36.4102C47.6894 36.4102 47.7675 38.0399 47.6758 38.1791" stroke="#7C6656" stroke-linecap="round" stroke-linejoin="round"/>
<path d="M50.8696 36.0527C50.8696 36.0527 49.6507 37.0408 47.7188 36.9525" stroke="#7C6656" stroke-linecap="round" stroke-linejoin="round"/>
<path d="M40.9371 37.2485C40.5535 36.5254 39.5892 36.0704 38.7777 36.7155C38.0681 37.2893 37.9629 38.4573 38.574 39.4147C39.0935 40.2296 40.0068 40.834 40.9134 41.1905C41.8233 40.8441 42.7468 40.25 43.2697 39.4385C43.891 38.4878 43.7959 37.3131 43.0897 36.7393C42.2884 36.0806 41.314 36.5254 40.9337 37.2452L40.9371 37.2485Z" fill="#EE7374"/>
<defs>
<filter id="filter0_f_1099_24518" x="46.0605" y="20.0078" width="8.2207" height="5.63867" filterUnits="userSpaceOnUse" color-interpolation-filters="sRGB">
<feFlood flood-opacity="0" result="BackgroundImageFix"/>
<feBlend mode="normal" in="SourceGraphic" in2="BackgroundImageFix" result="shape"/>
<feGaussianBlur stdDeviation="0.5" result="effect1_foregroundBlur_1099_24518"/>
</filter>
<filter id="filter1_f_1099_24518" x="29.4512" y="21.0703" width="8.2207" height="5.63867" filterUnits="userSpaceOnUse" color-interpolation-filters="sRGB">
<feFlood flood-opacity="0" result="BackgroundImageFix"/>
<feBlend mode="normal" in="SourceGraphic" in2="BackgroundImageFix" result="shape"/>
<feGaussianBlur stdDeviation="0.5" result="effect1_foregroundBlur_1099_24518"/>
</filter>
</defs>
</svg>
