<svg width="160" height="120" viewBox="0 0 160 120" fill="none" xmlns="http://www.w3.org/2000/svg">
<ellipse opacity="0.4" cx="80" cy="112" rx="47" ry="8" fill="#E1D6CF"/>
<path d="M62.1118 70.3406L56.9716 79.5195L55.8701 80.3456L59.7253 83.1911L66.1505 84.8433L78.7256 86.2201L91.4842 84.8433H94.5133L99.4699 83.1911L104.426 80.3456V77.5919L100.48 67.8623L75.7883 69.2391L62.1118 70.3406Z" fill="white"/>
<path d="M71.7438 111.109C71.7438 111.109 68.851 113.332 70.258 115.217C71.665 117.103 77.0906 116.45 78.0417 114.277C78.9985 112.521 78.2443 110.856 77.0793 110.186" fill="white"/>
<path d="M89.169 111.109C89.169 111.109 92.0618 113.332 90.6548 115.217C89.2477 117.103 83.8222 116.45 82.8711 114.277C81.9143 112.521 82.6685 110.856 83.8335 110.186" fill="white"/>
<path d="M68.666 95.795C68.666 95.795 68.6604 107.974 70.8722 112.584C73.0841 113.355 78.6278 112.083 78.6278 112.083C78.6278 112.083 77.4459 105.391 78.4759 100.703C80.5132 100.613 82.7645 100.371 82.7645 100.371C82.7645 100.371 83.7213 107.642 82.2411 112.083C84.3516 112.663 87.7229 113.141 89.9967 112.584C90.5763 109.916 92.9345 97.9337 92.186 92.5926C87.0137 92.3449 69.4258 92.2605 69.4258 92.2605C69.4258 92.2605 68.6379 93.5831 68.6829 95.795H68.666Z" fill="#8FBDE2"/>
<path d="M78.0916 100.371C78.0916 100.371 77.2417 108.396 78.615 112.083C78.615 112.083 74.09 113.743 70.8594 112.584C70.8594 112.584 67.7302 99.5265 69.0472 93.7351" stroke="#7C6656" stroke-width="2" stroke-linecap="round" stroke-linejoin="round"/>
<path d="M71.0233 112.584C71.0233 112.584 68.7833 113.462 70.2522 115.223C71.6424 116.889 78.7113 117.182 78.458 112.246" stroke="#7C6656" stroke-width="2" stroke-linecap="round" stroke-linejoin="round"/>
<path d="M82.7519 100.371C82.7519 100.371 83.6018 108.396 82.2285 112.083C82.2285 112.083 86.7535 113.743 89.9841 112.584C89.9841 112.584 93.1133 99.5265 91.7963 93.7351" stroke="#7C6656" stroke-width="2" stroke-linecap="round" stroke-linejoin="round"/>
<path d="M89.8203 112.584C89.8203 112.584 92.0603 113.462 90.5914 115.223C89.2012 116.889 82.1323 117.182 82.3855 112.246" stroke="#7C6656" stroke-width="2" stroke-linecap="round" stroke-linejoin="round"/>
<path d="M78.4678 100.703C78.4678 100.703 82.4806 100.703 83.9383 99.8928" stroke="#7C6656" stroke-width="2" stroke-linecap="round" stroke-linejoin="round"/>
<path d="M69.7558 76.9015C69.7558 76.9015 67.1049 89.1428 66.9248 95.7052C78.9972 96.358 89.1728 96.3299 95.0261 95.5476C94.8404 91.6529 90.2534 71.87 89.6287 71.1833" fill="white"/>
<path d="M101.86 30.7673C101.86 30.7673 112.328 38.8493 104.662 49.0812C104.477 49.0644 104.449 50.3194 104.449 50.3194C104.449 50.3194 108.214 55.2159 107.797 59.6228C107.381 64.0352 106.795 72.6181 90.108 77.0081C85.0765 77.8579 74.9458 78.4995 67.9444 76.8955C62.8172 75.8487 56.2829 72.8827 54.133 65.5436C54.133 65.5436 52.5852 60.6302 53.1199 56.6117C52.5121 54.5011 50.3227 49.9874 51.0882 41.8603C51.8536 33.7333 58.6017 29.0619 66.1659 27.109C70.3139 25.0885 77.1014 22.2913 86.613 24.0979C96.1245 25.9046 101.86 30.7616 101.86 30.7616V30.7673Z" fill="white"/>
<path d="M104.09 45.1643C104.697 46.9428 104.422 49.3798 104.455 50.3197C105.091 51.7886 108.502 56.3136 107.72 62.3358C106.937 68.3635 102.092 73.789 91.7246 76.665C91.7246 76.665 84.3349 78.2465 79.0669 77.9651C75.2511 77.9764 64.2537 76.7494 59.0927 72.7366C54.8097 69.4047 52.9186 65.2286 53.3632 55.5201" stroke="#7C6656" stroke-width="2" stroke-linecap="round" stroke-linejoin="round"/>
<g filter="url(#filter0_f_2350_39072)">
<ellipse cx="95.5641" cy="59.8684" rx="4.96034" ry="2.75575" transform="rotate(-1.80278 95.5641 59.8684)" fill="#F5B0B0"/>
</g>
<g filter="url(#filter1_f_2350_39072)">
<ellipse cx="68.4528" cy="61.2733" rx="4.82255" ry="2.75575" transform="rotate(-1.80278 68.4528 61.2733)" fill="#F5B0B0"/>
</g>
<path d="M88.9152 60.5518C88.9152 60.5518 86.5908 62.955 82.1671 63.2195C77.7434 63.484 75.3008 61.3622 75.3008 61.3622" stroke="#7C6656" stroke-width="2" stroke-linecap="round" stroke-linejoin="round"/>
<path d="M52.8779 55.5539C44.1768 31.1953 66.1659 27.1149 66.1659 27.1149C80.7259 18.245 98.2857 28.1899 98.2857 28.1899C98.2857 28.1899 111.112 35.0562 106.548 46.7459" stroke="#7C6656" stroke-width="2" stroke-linecap="round" stroke-linejoin="round"/>
<path d="M68.6431 34.3467C68.6431 34.3467 68.0352 42.3386 81.1206 45.8393" stroke="#7C6656" stroke-width="2" stroke-linecap="round" stroke-linejoin="round"/>
<path d="M66.0876 39.1873C66.0876 39.1873 59.0299 44.1119 57.9268 51.8055" stroke="#7C6656" stroke-width="2" stroke-linecap="round" stroke-linejoin="round"/>
<path d="M94.78 45.1809C94.78 45.1809 85.6511 43.1604 82.0322 35.2754" stroke="#7C6656" stroke-width="2" stroke-linecap="round" stroke-linejoin="round"/>
<path d="M77.5698 29.4059C77.5698 29.4059 73.8889 31.1394 74.3111 34.0491C74.6375 36.2835 75.8138 37.1896 79.669 38.895C83.5243 40.6003 90.1937 36.6606 93.4073 31.8598C90.5145 29.4059 85.3422 24.7064 77.5698 29.4059Z" fill="#1AAF92"/>
<path d="M75.5991 36.4124C75.5991 36.4124 84.2102 45.5188 93.5416 31.651C93.5416 31.651 85.0206 22.7698 74.8506 31.3077" stroke="#7C6656" stroke-width="2" stroke-linecap="round" stroke-linejoin="round"/>
<path d="M84.378 33.1826C84.3949 33.3064 76.6731 36.34 71.9961 32.1189" stroke="#7C6656" stroke-width="2" stroke-linecap="round" stroke-linejoin="round"/>
<path d="M74.5912 56.01C74.5912 56.01 73.8539 54.6311 71.9234 54.7775C69.7566 54.9351 69.0137 57.0681 69.0137 57.0681" stroke="#7C6656" stroke-width="2" stroke-linecap="round" stroke-linejoin="round"/>
<path d="M88.4053 54.9906C88.4053 54.9906 88.9343 53.5216 90.8648 53.3753C93.0316 53.2177 94.0784 55.2157 94.0784 55.2157" stroke="#7C6656" stroke-width="2" stroke-linecap="round" stroke-linejoin="round"/>
<path d="M87.5293 77.7004C86.9215 78.8036 85.4976 80.1656 82.3739 80.5708C79.0421 81.0042 76.6276 80.1318 75.1699 78.0044" stroke="#7C6656" stroke-width="2" stroke-linecap="round" stroke-linejoin="round"/>
<path d="M93.9627 94.6753H68.6924" stroke="#7C6656" stroke-width="2" stroke-linecap="round" stroke-linejoin="round"/>
<path d="M92.561 80.8187C92.5103 80.6105 95.1837 89.0189 95.0261 95.5476C95.0261 95.5476 79.4249 97.2698 66.9248 95.7052C66.9248 95.7052 67.6339 85.9966 68.8947 81.8374" fill="white"/>
<path d="M92.561 80.8187C92.5103 80.6105 95.1837 89.0189 95.0261 95.5476C95.0261 95.5476 79.4249 97.2698 66.9248 95.7052C66.9248 95.7052 67.6339 85.9966 68.8947 81.8374" stroke="#7C6656" stroke-width="2" stroke-linecap="round" stroke-linejoin="round"/>
<path d="M93.4072 76.1637C111.738 70.7382 110.303 56.5722 110.303 56.5722C110.489 55.2777 109.937 53.4654 109.937 53.4654C104.118 50.4656 105.587 41.2861 112.807 41.2861C119.24 41.2861 120.484 45.9125 119.854 48.9911C119.465 50.8765 116.646 52.745 116.646 52.745C116.646 52.745 124.717 76.4282 94.9212 84.544" fill="white"/>
<path d="M93.4072 76.1637C111.738 70.7382 110.303 56.5722 110.303 56.5722C110.489 55.2777 109.937 53.4654 109.937 53.4654C104.118 50.4656 105.587 41.2861 112.807 41.2861C119.24 41.2861 120.484 45.9125 119.854 48.9911C119.465 50.8765 116.646 52.745 116.646 52.745C116.646 52.745 123.456 76.7884 93.6605 84.9042" stroke="#7C6656" stroke-width="2" stroke-linecap="round" stroke-linejoin="round"/>
<path d="M96.3838 75.0557C96.3838 75.0557 97.3912 78.9728 96.3838 83.678" stroke="#7C6656" stroke-width="2" stroke-linecap="round" stroke-linejoin="round"/>
<path d="M67.7762 76.6425C49.4453 71.2169 50.8805 57.0509 50.8805 57.0509C50.6948 55.7564 51.2463 53.9442 51.2463 53.9442C57.0658 50.9444 55.5969 41.7649 48.376 41.7649C41.943 41.7649 40.6992 46.3912 41.3296 49.4698C41.7179 51.3552 44.5376 53.2238 44.5376 53.2238C44.5376 53.2238 37.7276 77.2672 67.5229 85.383" fill="white"/>
<path d="M67.7762 76.6425C49.4453 71.2169 50.8805 57.0509 50.8805 57.0509C50.6948 55.7564 51.2463 53.9442 51.2463 53.9442C57.0658 50.9444 55.5969 41.7649 48.376 41.7649C41.943 41.7649 40.6992 46.3912 41.3296 49.4698C41.7179 51.3552 44.5376 53.2238 44.5376 53.2238C44.5376 53.2238 37.7276 77.2672 67.5229 85.383" stroke="#7C6656" stroke-width="2" stroke-linecap="round" stroke-linejoin="round"/>
<path d="M64.7935 75.5334C64.7935 75.5334 63.786 79.4506 64.7935 84.1558" stroke="#7C6656" stroke-width="2" stroke-linecap="round" stroke-linejoin="round"/>
<path d="M79.8305 7.4812C77.6975 3.44887 72.3113 0.921357 67.7968 4.51539C63.8376 7.71009 63.258 14.2212 66.6719 19.5733C69.5598 24.1073 74.6586 27.4919 79.7185 29.4691C84.793 27.5406 89.9308 24.2193 92.8479 19.7048C96.3104 14.4014 95.7845 7.85131 91.8544 4.66149C87.3838 0.994407 81.9587 3.46835 79.8354 7.48607L79.8305 7.4812Z" fill="#F08395"/>
<path d="M61.9711 21.9255C61.9711 21.9255 61.4207 26.4497 67.4692 27.9156" stroke="#F08395" stroke-width="2" stroke-linecap="round" stroke-linejoin="round"/>
<path d="M58.3057 22.6853C58.3057 22.6853 57.5022 28.8653 65.2941 30" stroke="#F08395" stroke-width="2" stroke-linecap="round" stroke-linejoin="round"/>
<path d="M98.2531 21.7896C98.2531 21.7896 98.8034 26.3137 92.7549 27.7796" stroke="#F08395" stroke-width="2" stroke-linecap="round" stroke-linejoin="round"/>
<path d="M101.925 22.5496C101.925 22.5496 102.728 28.7295 94.9365 29.8642" stroke="#F08395" stroke-width="2" stroke-linecap="round" stroke-linejoin="round"/>
<defs>
<filter id="filter0_f_2350_39072" x="88.7431" y="55.247" width="13.6421" height="9.24249" filterUnits="userSpaceOnUse" color-interpolation-filters="sRGB">
<feFlood flood-opacity="0" result="BackgroundImageFix"/>
<feBlend mode="normal" in="SourceGraphic" in2="BackgroundImageFix" result="shape"/>
<feGaussianBlur stdDeviation="0.931167" result="effect1_foregroundBlur_2350_39072"/>
</filter>
<filter id="filter1_f_2350_39072" x="61.7695" y="56.6523" width="13.3668" height="9.242" filterUnits="userSpaceOnUse" color-interpolation-filters="sRGB">
<feFlood flood-opacity="0" result="BackgroundImageFix"/>
<feBlend mode="normal" in="SourceGraphic" in2="BackgroundImageFix" result="shape"/>
<feGaussianBlur stdDeviation="0.931167" result="effect1_foregroundBlur_2350_39072"/>
</filter>
</defs>
</svg>
