<svg width="80" height="61" viewBox="0 0 80 61" fill="none" xmlns="http://www.w3.org/2000/svg">
<ellipse opacity="0.4" cx="40" cy="57" rx="23.5" ry="4" fill="#E1D6CF"/>
<path d="M48.2677 39.1292C55.9718 40.2418 59.3862 34.1036 59.3862 34.1036C59.3862 34.1036 62.9749 34.121 62.3367 30.4765C61.8101 27.4771 58.4724 27.4109 57.3634 28.2479C56.2543 29.0884 55.4766 30.8078 56.202 32.2935C56.202 32.2935 53.5305 35.966 48.184 34.128L44.3128 34.1001L43.8594 34.1559" fill="white"/>
<path d="M48.2673 39.1292C55.9714 40.2418 59.3858 34.1036 59.3858 34.1036C59.3858 34.1036 62.9745 34.121 62.3363 30.4765C61.8096 27.4771 58.472 27.4109 57.363 28.2479C56.2539 29.0884 55.4762 30.8078 56.2016 32.2935C56.2016 32.2935 53.5301 35.966 48.1836 34.128" stroke="#7C6656" stroke-linecap="round" stroke-linejoin="round"/>
<path d="M49.7648 34.623C49.7648 34.623 50.8389 36.6563 48.8301 39.1953" stroke="#7C6656" stroke-linecap="round" stroke-linejoin="round"/>
<path d="M32.7617 55.4235C32.7617 55.4235 31.126 56.1559 31.5794 57.5824C32.0328 59.0088 34.7776 58.8728 36.1482 57.959C37.0619 57.4638 37.6757 55.3433 36.905 54.8899C36.1342 54.4331 32.7652 55.4235 32.7652 55.4235H32.7617Z" fill="white"/>
<path d="M46.4275 55.2022C46.4275 55.2022 47.5435 56.4787 47.5819 56.5415C47.6202 56.6077 48.4503 57.4413 46.8251 58.1318C45.1998 58.8258 44.0385 58.2085 43.1701 57.5773C42.3016 56.946 41.8936 56.4089 42.9643 55.537C44.035 54.6651 46.431 55.1987 46.431 55.1987L46.4275 55.2022Z" fill="white"/>
<path d="M33.1325 39.0935C25.6202 41.1372 21.4839 35.4629 21.4839 35.4629C21.4839 35.4629 17.9231 35.9163 18.1149 32.2229C18.2718 29.1818 21.5746 28.7074 22.7778 29.405C23.981 30.1025 24.9645 31.7138 24.424 33.2762C24.424 33.2762 27.5244 36.5964 32.6059 34.1167L36.4457 33.618H36.9026" fill="white"/>
<path d="M33.1325 39.0935C25.6202 41.1372 21.4839 35.4629 21.4839 35.4629C21.4839 35.4629 17.9231 35.9163 18.1149 32.2229C18.2718 29.1818 21.5746 28.7074 22.7778 29.405C23.981 30.1025 24.9645 31.7138 24.424 33.2762C24.424 33.2762 27.5244 36.5964 32.6059 34.1167" stroke="#7C6656" stroke-linecap="round" stroke-linejoin="round"/>
<path d="M32.7869 52.2005C32.4974 53.8536 32.609 55.5137 32.609 55.5137C32.609 55.5137 34.2168 57.697 37.5789 56.2392C38.238 53.0166 38.9669 48.9257 38.9669 48.9257L41.7256 49.0059C41.7256 49.0059 41.4431 54.4675 42.3325 56.6856C44.2576 56.7832 45.848 57.1006 46.9919 55.723C46.8524 54.2059 47.1 52.6748 47.5639 49.4209C48.0277 46.167 48.3486 46.5297 47.9405 46.1216C43.6264 47.5167 32.9927 45.8008 32.9927 45.8008C32.9927 45.8008 32.8706 51.7297 32.7869 52.204V52.2005Z" fill="#8EBDE2"/>
<path d="M32.9891 45.8008C32.9891 46.6692 32.9298 48.7722 32.9263 49.8324C32.9124 53.1038 32.6055 55.5137 32.6055 55.5137C32.6055 55.5137 33.7075 57.2227 37.5753 56.2392" stroke="#7C6656" stroke-linecap="round" stroke-linejoin="round"/>
<path d="M32.4246 55.7089C32.0549 55.9077 31.6259 56.2425 31.5876 56.7342C31.5178 57.6096 31.9014 58.6943 34.2033 58.5303C36.5016 58.3664 37.6699 56.9644 37.9978 54.6556C38.3291 52.3503 38.9638 48.9255 38.9638 48.9255C38.9638 48.9255 42.2701 49.2498 43.1699 48.7441" stroke="#7C6656" stroke-linecap="round" stroke-linejoin="round"/>
<path d="M41.7227 49.0059C41.7227 49.0059 41.7471 56.0194 42.2981 56.9506C42.8492 57.8818 44.7115 58.4084 46.0508 58.4119C47.39 58.4119 47.9306 57.4563 47.7109 56.8181C47.5993 56.4972 47.383 56.2636 47.1912 56.1101" stroke="#7C6656" stroke-linecap="round" stroke-linejoin="round"/>
<path d="M48.1036 45.3965C47.6711 50.0803 46.4435 51.9671 46.9876 55.7233C46.9876 55.7233 46.3424 57.1846 42.3281 56.6858" stroke="#7C6656" stroke-linecap="round" stroke-linejoin="round"/>
<path d="M34.4152 33.252C34.4152 33.252 32.2669 42.8463 32.0332 46.47C32.0332 46.47 43.4621 48.1091 48.8399 46.32C48.8399 46.32 47.8425 36.4571 46.7125 33.9669" fill="white"/>
<path d="M33.6908 36.025C33.6908 36.025 32.1004 42.8293 31.8633 46.4529C31.8633 46.4529 43.4212 47.9839 48.7991 46.1913C48.7991 46.1913 48.3596 38.5151 47.2331 36.0215" stroke="#7C6656" stroke-linecap="round" stroke-linejoin="round"/>
<path d="M44.9832 34.7449C44.7914 35.446 43.8044 36.8863 41.52 37.0049C38.1893 37.1758 36.8919 34.1904 36.9024 33.9219" stroke="#7C6656" stroke-linecap="round" stroke-linejoin="round"/>
<path d="M48.304 34.1835C48.304 34.1835 38.183 36.0773 34.964 34.5985C31.9437 33.8278 29.0943 34.2079 25.8613 29.5206C23.5874 26.0644 24.1873 21.2689 24.1873 21.2689C24.1873 21.2689 22.0145 17.2721 22.6702 12.4941C23.3258 7.71612 26.9809 5.56427 31.5078 3.62865C35.0825 1.98599 38.5911 0.409595 44.928 1.54655C51.265 2.68351 54.9898 5.44918 56.1442 7.41618C57.2986 9.38319 59.1086 15.5423 55.7605 15.7969C55.7745 16.8641 55.778 17.4047 55.778 17.4047C55.778 17.4047 57.9612 20.0239 57.9996 23.766C58.0414 27.5082 55.6733 31.8852 48.3005 34.18L48.304 34.1835Z" fill="white"/>
<g filter="url(#filter0_f_1099_24628)">
<ellipse cx="3.38069" cy="1.97616" rx="3.38069" ry="1.97616" transform="matrix(0.998747 -0.050049 0.0481974 0.998838 48.3633 20.8945)" fill="#F5B0B0"/>
</g>
<g filter="url(#filter1_f_1099_24628)">
<ellipse cx="3.38069" cy="1.97616" rx="3.38069" ry="1.97616" transform="matrix(0.998747 -0.050049 0.0481974 0.998838 30.9258 22.9883)" fill="#F5B0B0"/>
</g>
<path d="M34.7988 19.916L38.0911 20.917L35.594 21.7749" stroke="#7C6656" stroke-linecap="round" stroke-linejoin="round"/>
<path d="M49.8584 18.0918L47.0195 20.0344L49.6596 20.1041" stroke="#7C6656" stroke-linecap="round" stroke-linejoin="round"/>
<path d="M55.4918 14.2207C55.8893 15.3158 55.7498 16.8294 55.7812 17.4084C56.1928 18.3117 58.362 21.0703 57.954 24.8125C57.5459 28.5547 54.8082 31.9865 48.4189 33.9012C48.4189 33.9012 44.6523 34.8185 43.2852 34.8045" stroke="#7C6656" stroke-linecap="round" stroke-linejoin="round"/>
<path d="M40.5916 34.8681C36.2391 35.1924 31.3983 34.2996 28.1514 31.8757C25.4555 29.8634 24.0325 27.293 24.1895 21.2734" stroke="#7C6656" stroke-linecap="round" stroke-linejoin="round"/>
<path d="M23.8867 21.3566C18.195 6.37036 31.7652 3.56982 31.7652 3.56982C40.676 -2.10799 51.6794 3.83488 51.6794 3.83488C51.6794 3.83488 59.7114 7.92932 57.0294 15.2289" stroke="#7C6656" stroke-linecap="round" stroke-linejoin="round"/>
<path d="M33.3976 7.96094C33.3976 7.96094 33.1221 12.9203 41.2691 14.9257" stroke="#7C6656" stroke-linecap="round" stroke-linejoin="round"/>
<path d="M31.8727 10.9922C31.8727 10.9922 27.5621 14.131 26.9727 18.9125" stroke="#7C6656" stroke-linecap="round" stroke-linejoin="round"/>
<path d="M49.7226 14.3449C49.7226 14.3449 44.0414 13.208 41.7012 8.36719" stroke="#7C6656" stroke-linecap="round" stroke-linejoin="round"/>
<path d="M40.0309 2.32795C40.0309 2.32795 37.7744 3.44747 38.0743 5.24707C38.3045 6.62816 39.0439 7.17571 41.4573 8.18014C43.8672 9.18457 47.9477 6.65955 49.8764 3.64277C48.0523 2.16054 44.7845 -0.681849 40.0344 2.32795H40.0309Z" fill="#1AAF92"/>
<path d="M38.8993 6.6972C38.8993 6.6972 44.3539 12.225 49.9549 3.51302C49.9549 3.51302 44.5596 -1.87881 38.3691 3.5479" stroke="#7C6656" stroke-linecap="round" stroke-linejoin="round"/>
<path d="M44.2945 4.57727C44.305 4.654 39.5618 6.63147 36.6113 4.08203" stroke="#7C6656" stroke-linecap="round" stroke-linejoin="round"/>
<path d="M46.6788 22.6812C46.6788 22.6812 44.6071 23.5915 43.4946 23.588C42.382 23.588 40.4395 23.588 40.4395 23.588C40.4395 23.588 40.4534 26.4409 41.1718 28.1009C41.8903 29.761 44.9873 29.7157 44.9873 29.7157C44.9873 29.7157 47.2054 29.1821 47.3554 26.1967C47.5053 23.2148 46.6823 22.6777 46.6823 22.6777L46.6788 22.6812Z" fill="#F299A0"/>
<path d="M47.2329 22.3711C47.2329 22.3711 44.516 24.2753 39.752 23.3232" stroke="#7C6656" stroke-linecap="round" stroke-linejoin="round"/>
<path d="M46.6786 22.6816C46.6786 22.6816 48.9071 28.5931 45.2591 29.5383C40.9101 30.6648 40.1428 26.2774 40.4392 23.5919" stroke="#7C6656" stroke-linecap="round" stroke-linejoin="round"/>
<path d="M31.0986 34.8047C31.0986 34.8047 30.279 36.953 32.5843 39.227" stroke="#7C6656" stroke-linecap="round" stroke-linejoin="round"/>
<defs>
<filter id="filter0_f_1099_24628" x="47.457" y="19.7188" width="8.75586" height="5.96094" filterUnits="userSpaceOnUse" color-interpolation-filters="sRGB">
<feFlood flood-opacity="0" result="BackgroundImageFix"/>
<feBlend mode="normal" in="SourceGraphic" in2="BackgroundImageFix" result="shape"/>
<feGaussianBlur stdDeviation="0.5" result="effect1_foregroundBlur_1099_24628"/>
</filter>
<filter id="filter1_f_1099_24628" x="30.0195" y="21.8125" width="8.75586" height="5.96094" filterUnits="userSpaceOnUse" color-interpolation-filters="sRGB">
<feFlood flood-opacity="0" result="BackgroundImageFix"/>
<feBlend mode="normal" in="SourceGraphic" in2="BackgroundImageFix" result="shape"/>
<feGaussianBlur stdDeviation="0.5" result="effect1_foregroundBlur_1099_24628"/>
</filter>
</defs>
</svg>
