<svg width="642" height="440" viewBox="0 0 642 440" fill="none" xmlns="http://www.w3.org/2000/svg">
<ellipse cx="307.5" cy="410" rx="263.5" ry="30" fill="#EEEEEE"/>
<path d="M451.342 353.24H432.744V341.252H451.342C454.656 341.252 457.336 343.931 457.336 347.246C457.336 350.56 454.656 353.24 451.342 353.24Z" fill="#C6C6C6" stroke="#333333" stroke-width="5" stroke-linecap="round" stroke-linejoin="round"/>
<path d="M355.763 107.804L577.383 131.606C580.64 131.955 583.02 134.886 582.668 138.162L564.131 310.761C563.641 315.32 559.533 318.631 554.974 318.142L338.051 294.844C333.492 294.355 330.181 290.246 330.67 285.688L349.209 113.069C349.559 109.813 352.49 107.432 355.766 107.784L355.763 107.804Z" fill="#EB9792"/>
<path d="M490.938 98.0926C490.938 98.0926 511.521 31.7999 561.002 32.6732C610.484 33.5465 618.661 49.425 638.212 35.5512C638.212 35.5512 625.926 59.5079 613.52 62.624C613.52 62.624 626.918 77.8078 639.244 76.478C639.244 76.478 622.591 90.7488 591.668 81.2019C560.744 71.6549 546.672 68.7968 533.751 85.7868" fill="#FED17E"/>
<path d="M490.938 98.0926C490.938 98.0926 511.521 31.7999 561.002 32.6732C610.484 33.5465 618.661 49.425 638.211 35.5512C638.211 35.5512 625.926 59.5079 613.52 62.624C613.52 62.624 626.918 77.8078 639.244 76.478C639.244 76.478 622.591 90.7488 591.668 81.2019C560.744 71.6549 546.672 68.7968 533.751 85.7868" stroke="#333333" stroke-width="5" stroke-linecap="round" stroke-linejoin="round"/>
<path d="M455.688 86.9575C455.688 86.9575 442.39 56.6693 466.803 35.7692C491.236 14.889 512.156 28.8422 533.393 3C533.393 3 534.922 25.349 527.737 34.3402C527.737 34.3402 542.067 40.7511 556.715 34.7967C556.715 34.7967 543.972 52.6997 525.514 59.1503C507.055 65.601 459.797 60.1427 458.407 89.4187" fill="#FED17E"/>
<path d="M455.688 86.9575C455.688 86.9575 442.39 56.6693 466.803 35.7692C491.236 14.889 512.156 28.8422 533.393 3C533.393 3 534.922 25.349 527.737 34.3402C527.737 34.3402 542.067 40.7511 556.715 34.7967C556.715 34.7967 543.972 52.6997 525.514 59.1503C507.055 65.601 459.797 60.1427 458.407 89.4187" stroke="#333333" stroke-width="5" stroke-linecap="round" stroke-linejoin="round"/>
<path d="M493.241 89.4977C493.241 89.4977 508.485 73.0635 527.42 66.2358C546.335 59.3881 561.519 65.4617 562.908 78.0255C564.278 90.5894 554.314 98.092 556.14 105.098C557.986 112.105 565.846 120.56 562.293 125.085C558.74 129.611 518.945 143.187 486.195 114.487C479.963 107.262 483.754 99.402 493.241 89.4977Z" fill="#FED17E" stroke="#333333" stroke-width="5" stroke-linecap="round" stroke-linejoin="round"/>
<path d="M461.364 82.2143C459.995 77.8874 450.567 43.9472 439.095 37.2385C419.604 25.8258 404.341 41.1089 405.79 65.145C405.79 65.145 404.678 70.8017 399.16 73.7392C393.643 76.6966 370.758 100.673 411.883 113.832C453.008 126.992 462.774 89.8757 462.774 89.8757L461.384 82.2143H461.364Z" fill="#FED17E" stroke="#333333" stroke-width="5" stroke-linecap="round" stroke-linejoin="round"/>
<path d="M449.575 108.85C449.575 108.85 457.316 77.3908 459.995 77.8672C462.675 78.3435 490.323 81.9757 493.241 89.4982C493.916 92.7731 486.195 114.487 486.195 114.487L449.575 108.85Z" fill="#FED17E" stroke="#333333" stroke-width="5" stroke-linecap="round" stroke-linejoin="round"/>
<mask id="mask0_224_15948" style="mask-type:luminance" maskUnits="userSpaceOnUse" x="330" y="107" width="253" height="212">
<path d="M355.763 107.804L577.383 131.606C580.64 131.955 583.02 134.886 582.668 138.162L564.131 310.761C563.641 315.32 559.533 318.631 554.974 318.142L338.051 294.844C333.492 294.355 330.181 290.246 330.67 285.687L349.209 113.069C349.559 109.812 352.49 107.432 355.766 107.784L355.763 107.804Z" fill="white"/>
</mask>
<g mask="url(#mask0_224_15948)">
<path d="M374.112 166.351C373.08 176.017 364.407 183.003 354.741 181.971C345.075 180.939 338.088 172.266 339.12 162.6C340.152 152.933 348.826 145.947 358.492 146.979C368.158 148.011 375.144 156.685 374.112 166.351Z" fill="#F7D2CE"/>
<path d="M356.11 275.099C355.078 284.765 346.404 291.751 336.738 290.719C327.072 289.687 320.086 281.013 321.118 271.347C322.15 261.681 330.823 254.695 340.489 255.727C350.156 256.759 357.142 265.433 356.11 275.099Z" fill="#F7D2CE"/>
<path d="M415.079 233.497C414.047 243.163 405.373 250.15 395.707 249.118C386.041 248.085 379.055 239.412 380.087 229.746C381.119 220.08 389.793 213.093 399.459 214.125C409.125 215.157 416.111 223.831 415.079 233.497Z" fill="#F7D2CE"/>
<path d="M461.742 181.892C460.71 191.558 452.037 198.544 442.371 197.512C432.704 196.48 425.718 187.807 426.75 178.141C427.782 168.475 436.456 161.488 446.122 162.52C455.788 163.552 462.774 172.226 461.742 181.892Z" fill="#F7D2CE"/>
<path d="M475.755 176.453C474.723 186.119 466.05 193.105 456.384 192.073C446.718 191.041 439.731 182.368 440.763 172.702C441.795 163.036 450.469 156.049 460.135 157.081C469.801 158.113 476.788 166.787 475.755 176.453Z" fill="#F7D2CE"/>
<path d="M463.906 286.689C462.874 296.355 454.2 303.342 444.534 302.31C434.868 301.278 427.882 292.604 428.914 282.938C429.946 273.272 438.619 266.285 448.285 267.318C457.951 268.35 464.938 277.023 463.906 286.689Z" fill="#F7D2CE"/>
<path d="M534.149 227.423C533.117 237.089 524.443 244.076 514.777 243.044C505.111 242.011 498.125 233.338 499.157 223.672C500.189 214.006 508.862 207.019 518.529 208.051C528.195 209.083 535.181 217.757 534.149 227.423Z" fill="#F7D2CE"/>
<path d="M491.336 294.589C490.303 304.255 481.63 311.242 471.964 310.21C462.298 309.177 455.311 300.504 456.343 290.838C457.375 281.172 466.049 274.185 475.715 275.217C485.381 276.249 492.368 284.923 491.336 294.589Z" fill="#F7D2CE"/>
<path d="M583.55 188.045C582.518 197.711 573.845 204.698 564.179 203.666C554.513 202.633 547.526 193.96 548.558 184.294C549.59 174.628 558.264 167.641 567.93 168.673C577.596 169.705 584.582 178.379 583.55 188.045Z" fill="#F7D2CE"/>
<path d="M571.701 298.261C570.669 307.927 561.996 314.914 552.329 313.882C542.663 312.85 535.677 304.176 536.709 294.51C537.741 284.844 546.415 277.857 556.081 278.889C565.747 279.922 572.733 288.595 571.701 298.261Z" fill="#F7D2CE"/>
</g>
<path d="M355.763 107.804L577.383 131.606C580.64 131.955 583.02 134.886 582.668 138.162L564.131 310.761C563.641 315.32 559.533 318.631 554.974 318.142L338.051 294.844C333.492 294.355 330.181 290.246 330.67 285.688L349.209 113.069C349.559 109.813 352.49 107.432 355.766 107.784L355.763 107.804Z" stroke="#333333" stroke-width="5" stroke-linecap="round" stroke-linejoin="round"/>
<path d="M347.084 99.8166L587.59 125.647C590.846 125.996 593.226 128.927 592.874 132.203L588.563 172.343L336.236 145.243L340.547 105.103C340.897 101.847 343.828 99.4669 347.103 99.8187L347.084 99.8166Z" fill="#E57A79" stroke="#333333" stroke-width="5" stroke-linecap="round" stroke-linejoin="round"/>
<path d="M490.485 115.227L444.168 110.253L423.361 303.987L469.678 308.962L490.485 115.227Z" fill="#FEDA9A" stroke="#333333" stroke-width="5" stroke-linecap="round" stroke-linejoin="round"/>
<path d="M490.495 115.219L444.178 110.245L439.233 156.286L485.551 161.26L490.495 115.219Z" fill="#FED17E" stroke="#333333" stroke-width="5" stroke-linecap="round" stroke-linejoin="round"/>
<path d="M453.465 94.2418C453.465 94.2418 426.551 65.1247 424.09 74.7311C421.629 84.3376 432.843 86.6599 432.843 86.6599" stroke="#333333" stroke-width="5" stroke-linecap="round" stroke-linejoin="round"/>
<path d="M489.391 105.059C489.391 105.059 516.622 90.0932 523.132 96.3652" stroke="#333333" stroke-width="5" stroke-linecap="round" stroke-linejoin="round"/>
<path d="M487.942 45.3556C487.942 45.3556 468.213 55.4384 459.996 77.8867" stroke="#333333" stroke-width="5" stroke-linecap="round" stroke-linejoin="round"/>
<path d="M258.221 363.343L260.166 329.125H372.526V346.234L357.779 377.356L258.221 363.343Z" fill="#878787" stroke="#333333" stroke-width="5" stroke-linecap="round" stroke-linejoin="round"/>
<path d="M372.526 330.831H250.956C250.956 322.535 257.685 315.826 265.961 315.826H372.526V330.831Z" fill="#878787" stroke="#333333" stroke-width="5" stroke-linecap="round" stroke-linejoin="round"/>
<path d="M192.462 298.558L174.659 294.826V323.328L192.462 320.311" fill="#BEBEBE"/>
<path d="M192.462 298.558L174.659 294.826V323.328L192.462 320.311" stroke="#333333" stroke-width="5" stroke-linecap="round" stroke-linejoin="round"/>
<path d="M213.504 389.815C218.127 370.227 205.996 350.6 186.408 345.977C166.82 341.354 147.194 353.485 142.571 373.073C137.947 392.661 150.079 412.287 169.666 416.91C189.254 421.533 208.881 409.402 213.504 389.815Z" fill="#333333" stroke="#333333" stroke-width="5" stroke-linecap="round" stroke-linejoin="round"/>
<path d="M199.461 386.5C202.253 374.668 194.926 362.813 183.094 360.021C171.263 357.228 159.407 364.556 156.615 376.387C153.822 388.219 161.15 400.074 172.982 402.867C184.813 405.659 196.668 398.331 199.461 386.5Z" fill="#A8A8A7" stroke="#A8A8A7" stroke-width="5" stroke-linecap="round" stroke-linejoin="round"/>
<path d="M189.248 381.463C189.248 387.656 184.226 392.658 178.054 392.658C171.881 392.658 166.859 387.636 166.859 381.463C166.859 375.29 171.881 370.269 178.054 370.269C184.226 370.269 189.248 375.29 189.248 381.463Z" fill="white" stroke="#333333" stroke-width="5" stroke-linecap="round" stroke-linejoin="round"/>
<path d="M422.089 407.232C436.32 393.001 436.32 369.928 422.089 355.697C407.858 341.466 384.785 341.466 370.553 355.697C356.322 369.928 356.322 393.001 370.553 407.232C384.785 421.463 407.858 421.463 422.089 407.232Z" fill="#333333" stroke="#333333" stroke-width="5" stroke-linecap="round" stroke-linejoin="round"/>
<path d="M411.886 397.029C420.482 388.433 420.482 374.496 411.886 365.9C403.29 357.304 389.353 357.304 380.757 365.9C372.161 374.496 372.161 388.433 380.757 397.029C389.353 405.625 403.29 405.625 411.886 397.029Z" fill="#A8A8A7" stroke="#A8A8A7" stroke-width="5" stroke-linecap="round" stroke-linejoin="round"/>
<path d="M407.517 381.463C407.517 387.656 402.496 392.658 396.323 392.658C390.15 392.658 385.128 387.636 385.128 381.463C385.128 375.291 390.15 370.269 396.323 370.269C402.496 370.269 407.517 375.291 407.517 381.463Z" fill="white" stroke="#333333" stroke-width="5" stroke-linecap="round" stroke-linejoin="round"/>
<path d="M195.659 321.82C195.659 321.82 159.337 312.67 133.455 346.769L148.936 358.181C148.936 358.181 167.673 340.219 204.074 351.731L195.639 321.82H195.659Z" fill="#8EBDE2" stroke="#333333" stroke-width="5" stroke-linecap="round" stroke-linejoin="round"/>
<path d="M207.309 278.988C207.309 278.988 192.681 301.099 192.483 305.703C192.284 310.308 200.879 344.03 208.044 363.342C215.209 382.654 231.048 393.829 244.584 394.424C258.121 395.02 353.134 394.424 353.134 394.424C360.557 394.365 356.349 381.483 356.349 381.483C356.349 359.412 374.232 341.529 396.303 341.529C418.374 341.529 436.257 359.412 436.257 381.483H449.119C449.119 352.327 425.48 328.668 396.303 328.668C373.339 328.668 353.789 343.335 346.524 363.819C346.524 363.819 248.713 364.414 246.609 363.342C244.505 362.27 229.301 317.97 229.142 312.769C228.984 307.569 229.877 298.558 229.877 298.558C229.877 298.558 232.457 291.75 226.324 288.773C220.191 285.796 208.699 279.742 208.699 279.742" fill="#8EBDE2"/>
<path d="M207.309 278.988C207.309 278.988 192.681 301.099 192.483 305.703C192.284 310.308 200.879 344.03 208.044 363.342C215.209 382.654 231.048 393.829 244.584 394.424C258.121 395.02 353.134 394.424 353.134 394.424C360.557 394.365 356.349 381.483 356.349 381.483C356.349 359.412 374.232 341.529 396.303 341.529C418.374 341.529 436.257 359.412 436.257 381.483H449.119C449.119 352.327 425.48 328.668 396.303 328.668C373.339 328.668 353.789 343.335 346.524 363.819C346.524 363.819 248.713 364.414 246.609 363.342C244.505 362.27 229.301 317.969 229.142 312.769C228.984 307.569 229.877 298.558 229.877 298.558C229.877 298.558 232.457 291.75 226.324 288.773C220.191 285.796 208.699 279.742 208.699 279.742" stroke="#333333" stroke-width="5" stroke-linecap="round" stroke-linejoin="round"/>
<path opacity="0.3" d="M346.525 363.819C344.56 369.336 343.508 375.291 343.508 381.484H250.519C250.519 381.484 227.218 374.398 221.482 358.202C215.746 342.006 208.044 309.078 208.044 309.078L219.398 285.359L226.364 288.773C226.364 288.773 232.537 289.984 230.354 296.752C228.151 303.52 229.183 312.769 229.183 312.769L246.649 363.342L346.564 363.819H346.525Z" fill="#6B544F"/>
<path d="M472.56 325.75H372.526V313.385H484.926C484.926 320.212 479.388 325.75 472.56 325.75Z" fill="#878787" stroke="#333333" stroke-width="5" stroke-linecap="round" stroke-linejoin="round"/>
<path d="M330.487 294.847C330.487 294.847 336.759 311.916 322.548 324.142C308.336 336.349 303.116 334.384 301.687 338.671C300.258 342.958 300.218 366.558 298.214 371.321C296.209 376.085 276.52 376.323 272.133 370.686C268.461 365.962 275.249 361.794 275.249 361.794C275.249 361.794 276.42 333.908 279.04 328.906C281.66 323.904 286.424 315.846 286.424 315.846" fill="white"/>
<path d="M305.597 335.199C315.501 330.177 331.717 320.789 331.598 304.275C331.459 286.194 319.252 263.368 316.116 241.913C304.605 238.975 278.028 239.908 268.58 240.345C259.132 240.761 250.737 247.688 250.737 247.688C250.737 247.688 244.445 283.395 267.072 311.679C267.072 311.679 275.19 312.155 281.362 312.949C287.992 313.822 288.468 316.164 288.468 316.164" fill="white"/>
<path d="M261.833 304.593L267.846 312.75L270.228 313.405H282.792C282.792 313.405 286.127 313.604 287.595 315.827C284.499 319.161 278.823 326.584 277.89 332.916C276.957 339.248 274.535 362.271 274.535 362.271C274.535 362.271 271.776 366.975 289.838 368.524C297.162 368.325 300.258 366.995 300.258 365.526C300.258 364.058 299.603 339.347 303.236 336.568C306.868 333.769 324.612 325.89 327.887 318.07C331.162 310.249 333.683 300.841 330.13 292.466C324.83 297.229 314.212 302.271 293.193 304.732C272.173 307.193 261.852 304.613 261.852 304.613L261.833 304.593Z" fill="#8EBDE2"/>
<path d="M253.615 308.76C253.615 308.76 261.813 291.83 255.898 293.12C251.491 294.073 250.241 299.194 247.959 303.143C245.378 307.609 242.619 311.321 241.706 311.678C238.312 313.008 246.609 318.01 253.615 308.78V308.76Z" fill="white"/>
<path d="M187.025 254.555C189.387 255.805 190.3 258.743 189.049 261.105L188.136 262.831L202.387 270.334L197.286 280.04L183.035 272.537L182.122 274.264C180.872 276.626 177.934 277.539 175.572 276.288C173.211 275.038 172.298 272.101 173.548 269.739L180.475 256.579C181.725 254.217 184.663 253.304 187.025 254.555Z" fill="#333333" stroke="#333333" stroke-width="5" stroke-linecap="round" stroke-linejoin="round"/>
<path d="M232.08 292.921L196.333 274.105" stroke="#333333" stroke-width="5" stroke-linecap="round" stroke-linejoin="round"/>
<path d="M250.737 247.668C250.737 247.668 239.781 260.51 219.238 255.032C208.878 251.023 192.066 248.403 187.739 270.434C188.513 276.726 194.051 281.39 202.546 278.929C211.061 276.468 221.878 279.604 221.878 279.604C221.878 279.604 236.268 284.625 245.2 280.041C254.111 275.456 246.966 270.712 249.487 266.345C252.007 261.979 263.242 242.845 250.737 247.648V247.668Z" fill="white"/>
<path d="M251.889 242.964C251.889 242.964 244.684 256.818 231.743 256.818C218.802 256.818 206.794 249.177 197.227 253.881C187.641 258.585 184.703 272.121 191.174 277.401C197.644 282.7 207.052 279.167 209.99 274.463" stroke="#333333" stroke-width="5" stroke-linecap="round" stroke-linejoin="round"/>
<path d="M257.724 272.776C257.724 272.776 247.84 281.529 236.07 281.946C225.113 282.343 211.537 276.845 206.357 277.857" stroke="#333333" stroke-width="5" stroke-linecap="round" stroke-linejoin="round"/>
<path d="M250.737 247.668C250.737 247.668 240.396 276.05 267.846 312.75" stroke="#333333" stroke-width="5" stroke-linecap="round" stroke-linejoin="round"/>
<path d="M286.186 260.033C286.186 260.033 276.043 277.897 263.837 277.46C251.154 274.84 234.739 266.821 224.24 276.904C213.74 286.987 218.464 303.66 237.915 297.566C239.721 297.447 244.664 297.328 250.023 298.876C255.382 300.404 274.674 304.414 288.448 293.18C299.881 285.082 300.04 255.945 286.206 260.033H286.186Z" fill="white"/>
<path d="M286.185 260.033C286.185 260.033 276.202 276.527 263.261 276.527C250.32 276.527 238.312 268.885 228.745 273.589C219.158 278.293 216.221 291.83 222.691 297.109C229.162 302.409 238.57 298.876 241.507 294.172" stroke="#333333" stroke-width="5" stroke-linecap="round" stroke-linejoin="round"/>
<path d="M237.916 297.566C243.116 296.574 256.672 302.071 267.628 301.655C279.398 301.218 289.282 292.485 289.282 292.485L293.51 289.13" stroke="#333333" stroke-width="5" stroke-linecap="round" stroke-linejoin="round"/>
<path d="M276.917 270.712C276.917 270.712 287.436 281.092 286.206 294.807" stroke="#333333" stroke-width="5" stroke-linecap="round" stroke-linejoin="round"/>
<path d="M240.913 254.853C240.913 254.853 246.351 258.922 247.224 269.282" stroke="#333333" stroke-width="5" stroke-linecap="round" stroke-linejoin="round"/>
<path d="M254.965 244.81C254.965 244.81 258.796 264.797 286.821 248.005" stroke="#333333" stroke-width="5" stroke-linecap="round" stroke-linejoin="round"/>
<path d="M273.086 363.343C273.086 363.343 283.447 372.85 299.524 366.241" stroke="#333333" stroke-width="5" stroke-linecap="round" stroke-linejoin="round"/>
<path d="M231.385 300.286L243.313 306.558L242.4 308.284C241.15 310.646 242.063 313.584 244.425 314.834C246.787 316.085 249.724 315.172 250.975 312.81L257.902 299.651C259.152 297.289 258.239 294.351 255.877 293.101C253.515 291.85 250.578 292.763 249.327 295.125L248.414 296.852" fill="#333333"/>
<path d="M231.385 300.286L243.313 306.558L242.4 308.284C241.15 310.646 242.063 313.584 244.425 314.834C246.787 316.085 249.724 315.172 250.975 312.81L257.902 299.651C259.152 297.289 258.239 294.351 255.877 293.101C253.515 291.85 250.578 292.763 249.327 295.125L248.414 296.852" stroke="#333333" stroke-width="5" stroke-linecap="round" stroke-linejoin="round"/>
<path d="M261.833 304.592C261.833 304.592 306.292 311.321 334.576 291.691C334.576 291.691 324.791 276.289 320.92 264.439C316.117 249.772 316.117 243.738 316.117 243.738" stroke="#333333" stroke-width="5" stroke-linecap="round" stroke-linejoin="round"/>
<path d="M330.487 294.847C330.487 294.847 336.759 311.916 322.548 324.142C308.336 336.349 303.116 334.384 301.687 338.671C300.258 342.958 300.218 366.558 298.214 371.321C296.209 376.085 276.52 376.323 272.133 370.686C268.461 365.962 275.249 361.794 275.249 361.794C275.249 361.794 276.42 333.908 279.04 328.906C281.66 323.904 286.424 315.846 286.424 315.846" stroke="#333333" stroke-width="5" stroke-linecap="round" stroke-linejoin="round"/>
<path d="M318.717 64.0331C318.717 64.0331 391.342 63.2392 378.083 151.663C378.083 151.663 376.376 157.339 375.86 158.173C376.436 165.239 385.447 200.112 359.188 224.426C340.669 241.952 302.76 248.66 290.196 247.767C288.568 249.157 281.78 250.963 274.496 249.514C267.212 248.065 256.176 249.395 257.228 249.871C258.28 250.347 223.228 240.562 223.228 240.562C223.228 240.562 186.231 224.386 186.152 196.182C187.72 183.737 194.071 163.849 194.071 163.849L193.396 154.183L194.091 144.894C194.091 144.894 175.672 147.832 180.892 117.444C185.279 95.5916 200.363 77.3512 243.334 61.1155C287.933 45.1179 318.698 64.0331 318.698 64.0331H318.717Z" fill="white"/>
<g filter="url(#filter0_f_224_15948)">
<ellipse cx="317.85" cy="193.455" rx="19.1491" ry="10.3509" fill="#F5B0B0"/>
</g>
<g filter="url(#filter1_f_224_15948)">
<ellipse cx="213.824" cy="195.526" rx="18.6315" ry="10.3509" fill="#F5B0B0"/>
</g>
<path d="M290.335 170.658C290.335 176.235 294.86 180.761 300.437 180.741C306.015 180.741 310.54 176.215 310.52 170.638C310.52 165.061 305.995 160.535 300.417 160.555C294.84 160.555 290.315 165.08 290.335 170.658Z" fill="#333333"/>
<path d="M221.104 170.697C221.104 176.275 225.629 180.8 231.207 180.78C236.784 180.78 241.309 176.255 241.29 170.678C241.29 165.1 236.764 160.575 231.187 160.595C225.61 160.595 221.084 165.12 221.104 170.697Z" fill="#333333"/>
<path d="M240.158 199.953C240.158 199.953 248.872 210.591 264.492 210.591C280.112 210.591 288.27 199.913 288.27 199.913" stroke="#333333" stroke-width="5" stroke-linecap="round" stroke-linejoin="round"/>
<path d="M194.765 139C193.177 145.431 194.884 153.926 195.063 157.221C193.276 162.58 182.677 179.511 187.262 200.45C191.847 221.39 210.524 238.956 247.839 245.902C247.839 245.902 269.711 248.82 277.432 247.907" stroke="#333333" stroke-width="5" stroke-linecap="round" stroke-linejoin="round"/>
<path d="M376.177 159.881C380.702 193.861 375.343 209.084 361.311 222.105C344.4 237.785 317.546 245.784 292.735 246.597L285.451 247.113" stroke="#333333" stroke-width="5" stroke-linecap="round" stroke-linejoin="round"/>
<path d="M379.095 159.92C402.218 71.675 323.698 64.0732 323.698 64.0732C269.831 37.3576 211.18 77.6691 211.18 77.6691C211.18 77.6691 168.208 105.715 187.818 145.391" stroke="#333333" stroke-width="5" stroke-linecap="round" stroke-linejoin="round"/>
<path d="M315.977 90.1536C315.977 90.1536 320.562 118.04 275.666 134.335" stroke="#333333" stroke-width="5" stroke-linecap="round" stroke-linejoin="round"/>
<path d="M326.438 106.369C326.438 106.369 352.736 121.513 358.969 148.209" stroke="#333333" stroke-width="5" stroke-linecap="round" stroke-linejoin="round"/>
<path d="M227.475 136.201C227.475 136.201 258.934 126.317 269.236 97.5172" stroke="#333333" stroke-width="5" stroke-linecap="round" stroke-linejoin="round"/>
<path d="M283.109 75.5054C283.109 75.5054 296.566 80.4674 295.97 90.8282C295.514 98.7873 291.663 102.32 278.643 109.485C265.622 116.651 240.991 104.861 228.229 88.9823C237.637 79.475 254.388 61.3934 283.109 75.5054Z" fill="#73C09B"/>
<path d="M292.179 99.5214C292.179 99.5214 264.709 134.156 227.673 88.2874C227.673 88.2874 254.904 54.4662 293.231 81.3803" stroke="#333333" stroke-width="5" stroke-linecap="round" stroke-linejoin="round"/>
<path d="M260.343 90.8477C260.343 91.2844 288.368 99.5809 303.512 83.3253" stroke="#333333" stroke-width="5" stroke-linecap="round" stroke-linejoin="round"/>
<path d="M219.238 114.23C219.238 114.23 195.082 128.045 190.775 144.598" stroke="#333333" stroke-width="5" stroke-linecap="round" stroke-linejoin="round"/>
<path d="M192.522 156.625C192.522 156.625 190.438 119.231 212.787 123.915C238.312 129.254 283.208 119.727 321.198 116.869C359.207 114.011 357.202 159.919 357.202 159.919C357.202 159.919 356.051 186.159 373.299 196.698C383.58 202.99 391.956 189.533 391.956 189.533C391.956 189.533 421.351 142.076 398.01 91.8403C374.668 41.6047 288.23 38.6076 248.593 49.6432C208.957 60.6787 168.347 81.559 183.055 147.475" fill="#BCD5ED"/>
<path d="M398.01 91.8403C374.668 41.6047 288.23 38.6076 248.593 49.6432C208.957 60.6788 168.347 81.559 183.055 147.475L187.739 154.084C184.186 135.784 188.969 108.056 209.691 112.046C237.836 117.484 282.375 109.267 324.274 106.349C366.173 103.432 365.737 137.769 366.888 152.357C368.019 166.946 369.905 191.478 383.362 195.487C389.971 194.217 391.976 189.513 391.976 189.513C391.976 189.513 421.371 142.056 398.03 91.8204L398.01 91.8403Z" fill="#8EBDE2"/>
<path d="M192.522 156.625C192.522 156.625 190.438 119.231 212.787 123.915C238.312 129.254 283.208 119.727 321.198 116.869C358.135 114.09 358.016 170.816 358.969 177.842C358.969 177.842 358.294 190.962 373.299 196.698C384.553 201.005 391.956 189.533 391.956 189.533C391.956 189.533 421.351 142.076 398.01 91.8403C374.668 41.6047 288.23 38.6076 248.593 49.6432C208.957 60.6787 168.347 81.559 183.055 147.475C183.055 147.475 183.551 156.505 192.522 156.605V156.625Z" stroke="#333333" stroke-width="5" stroke-linecap="round" stroke-linejoin="round"/>
<path d="M276.976 45.0779C276.976 45.0779 290.433 50.04 289.838 60.4007C289.381 68.3598 285.531 71.8927 272.51 79.0579C259.49 86.2231 234.859 74.4333 222.096 58.5548C231.504 49.0475 248.256 30.9659 276.976 45.0779Z" fill="#1AAF92"/>
<path d="M286.047 69.5422C286.047 69.5422 258.577 104.177 221.541 58.3081C221.541 58.3081 248.772 24.487 287.099 51.401" stroke="#333333" stroke-width="5" stroke-linecap="round" stroke-linejoin="round"/>
<path d="M254.23 60.8484C254.23 61.285 282.256 69.5815 297.4 53.3259" stroke="#333333" stroke-width="5" stroke-linecap="round" stroke-linejoin="round"/>
<path d="M489.768 342.958C489.589 342.958 489.431 342.998 489.252 343.018C488.656 338.79 485.044 335.515 480.638 335.515C475.815 335.515 471.905 339.425 471.905 344.248C471.905 345.082 472.063 345.856 472.262 346.61C470.079 348.198 468.669 350.758 468.669 353.656C468.669 358.479 472.58 362.39 477.403 362.39C480.36 362.39 482.96 360.901 484.548 358.658C486.017 359.75 487.803 360.425 489.768 360.425C494.591 360.425 498.501 356.514 498.501 351.691C498.501 346.868 494.591 342.958 489.768 342.958Z" fill="#D4D4D4"/>
<path d="M518.568 349.588C523.391 349.588 527.301 345.678 527.301 340.854C527.301 336.031 523.391 332.121 518.568 332.121C513.744 332.121 509.834 336.031 509.834 340.854C509.834 345.678 513.744 349.588 518.568 349.588Z" fill="#EDEDED"/>
<path d="M531.846 345.122C531.846 348.377 529.206 351.017 525.951 351.017C522.696 351.017 520.056 348.377 520.056 345.122C520.056 341.867 522.696 339.227 525.951 339.227C529.206 339.227 531.846 341.867 531.846 345.122Z" fill="#EDEDED"/>
<path d="M118.013 381.464C118.013 381.464 106.481 399.288 121.049 413.241" stroke="#333333" stroke-width="5" stroke-linecap="round" stroke-linejoin="round"/>
<path d="M101.102 397.362C101.102 397.362 99.0182 412.863 113.666 417.905" stroke="#333333" stroke-width="5" stroke-linecap="round" stroke-linejoin="round"/>
<defs>
<filter id="filter0_f_224_15948" x="288.498" y="172.902" width="58.703" height="41.1063" filterUnits="userSpaceOnUse" color-interpolation-filters="sRGB">
<feFlood flood-opacity="0" result="BackgroundImageFix"/>
<feBlend mode="normal" in="SourceGraphic" in2="BackgroundImageFix" result="shape"/>
<feGaussianBlur stdDeviation="5.10117" result="effect1_foregroundBlur_224_15948"/>
</filter>
<filter id="filter1_f_224_15948" x="184.99" y="174.973" width="57.6679" height="41.1063" filterUnits="userSpaceOnUse" color-interpolation-filters="sRGB">
<feFlood flood-opacity="0" result="BackgroundImageFix"/>
<feBlend mode="normal" in="SourceGraphic" in2="BackgroundImageFix" result="shape"/>
<feGaussianBlur stdDeviation="5.10117" result="effect1_foregroundBlur_224_15948"/>
</filter>
</defs>
</svg>
