<svg width="640" height="440" viewBox="0 0 640 440" fill="none" xmlns="http://www.w3.org/2000/svg">
<ellipse cx="320" cy="387" rx="181" ry="53" fill="#EEEEEE"/>
<path d="M203 132.5L209.5 152L210.5 175L212 187.5H209.5L203 178.5L188 170.5H173.5L155.5 177.5L144.5 191L141.5 214.5L147.5 229L154 236L168 243L181 246L186 255L191 258.5H198L203.5 265.5L219.5 277.5L235.5 283.5L259.5 284L270.5 281L266 305.5L262 318L253.5 313L241 310.5L229.5 315L222.5 323L221 333L228 343.5L233 347L242.5 346L248.5 342.5L259.5 349H277.5L290 346L297 340.5L301 333L316 336.5L315 384.5L318 394L327.5 399.5L337.5 402.5L350 401L353.5 398V390.5L350 384.5V371.5L352.5 355L358.5 333L361.5 317.5L371 315V302L369.5 281L387.5 284L408 285L430 281.5L436.5 278.5L445.5 283.5L458 284.5L468 278.5L473 267.5L468 253.5L459.5 247.5L447.5 245L428.5 246.5L398 251L374 247.5L360.5 242.5L369.5 238L402 224L421.5 210.5L433 194.5L438.5 173L435 149L425.5 130.5L433.5 111L436.5 96L435 81L430 65.5L413.5 43L393 29.5L359.5 16L329.5 13L303.5 14.5L284.5 20.5L272.5 26L264 32L247.5 36.5L227 47L212.5 62.5L206 75.5L201.5 91L200 109.5L203 132.5Z" fill="white"/>
<path d="M271.354 238.771C271.354 238.771 251.072 261.175 231.002 253.605C215.271 247.662 212.96 241.86 212.96 241.86C212.96 241.86 215.012 228.464 204.777 224.007C194.541 219.526 183.008 226.507 180.91 236.294C178.834 246.082 183.339 257.661 198.267 257.968C198.267 257.968 217.017 293.037 270.175 280.868" stroke="#333333" stroke-width="6" stroke-linecap="round" stroke-linejoin="round"/>
<path d="M249.256 253.651C249.256 253.651 249.185 265.986 258.666 279.641" stroke="#333333" stroke-width="6" stroke-linecap="round" stroke-linejoin="round"/>
<path d="M279.89 242.756C279.89 242.756 273.594 290.655 264.75 312.871C262.91 320.111 257.038 315.937 254.632 314.994C252.226 314.027 234.515 305.23 223.996 321.149C214.138 336.408 229.963 348.223 237.156 346.549C244.349 344.874 249.066 340.747 253.972 345.157C258.854 349.568 277.202 351.478 284.301 347.775C291.399 344.073 298.003 339.144 300.125 332.186C303.097 333.106 315.903 336.714 315.903 336.714L316.422 388.41C316.422 388.41 325.36 401.24 342.081 402.184C358.802 403.127 354.51 392.255 349.746 386.359C350.572 378.812 351.939 347.964 357.835 335.111C363.731 322.257 368.708 284.617 366.868 268.911C365.029 253.227 360.736 244.454 360.736 244.454L279.867 242.732L279.89 242.756Z" fill="white"/>
<path d="M266.568 302.069C266.497 307.611 263.36 318.79 263.337 318.884C259.115 316.856 247.064 312.139 247.064 312.139C247.064 312.139 234.729 319.309 235.885 329.709C237.04 340.086 241.852 345.133 241.852 345.133L249.328 343.223C249.328 343.223 263.69 352.963 277.11 349.355C290.529 345.746 298.241 340.322 301.165 332.563C311.023 336.501 315.905 336.761 315.905 336.761L316.801 385.933C316.801 385.933 336.588 396.523 351.47 387.325C348.994 381.193 345.456 387.655 349.96 362.231C353.71 348.01 361.021 329.733 360.738 316.196C360.314 317.375 337.461 325.205 311.872 318.601C296.071 314.521 275.341 301.668 266.52 302.116L266.568 302.069Z" fill="#8FBDE2"/>
<path d="M315.903 336.737C315.903 336.737 313.781 384.683 317.2 391.145C320.62 397.607 333.025 401.782 342.082 402.23C351.138 402.678 355.076 396.405 353.803 391.995C352.529 387.608 348.19 385.367 348.19 385.367" stroke="#333333" stroke-width="6" stroke-linecap="round" stroke-linejoin="round"/>
<path d="M349.275 384.354C346.823 358.813 354.511 350.157 362.341 319.357C362.6 318.296 362.86 317.234 363.119 316.173" stroke="#333333" stroke-width="6" stroke-linecap="round" stroke-linejoin="round"/>
<path d="M360.762 242.756C360.762 242.756 382.153 255.751 415.689 248.417C436.301 243.865 458.659 241.436 467.055 252.614C475.451 263.793 470.993 277.236 463.918 281.222C456.183 285.561 440.759 284.547 436.537 274.642" stroke="#333333" stroke-width="6" stroke-linecap="round" stroke-linejoin="round"/>
<path d="M437.834 277.732C437.834 277.732 411.373 290.137 371.186 279.949" stroke="#333333" stroke-width="6" stroke-linecap="round" stroke-linejoin="round"/>
<path d="M245.882 338.483C245.882 338.483 253.736 350.275 274.702 349.497C295.668 348.718 300.125 332.209 300.125 332.209C300.125 332.209 314.842 337.445 326.964 335.44" stroke="#333333" stroke-width="6" stroke-linecap="round" stroke-linejoin="round"/>
<path d="M249.279 341.997C249.279 341.997 240.553 349.143 231.709 345.534C222.865 341.926 218.078 327.917 225.483 319.026C230.389 313.13 237.605 309.522 245.883 311.786C250.388 313.012 261.826 318.036 261.826 318.036" stroke="#333333" stroke-width="6" stroke-linecap="round" stroke-linejoin="round"/>
<path d="M271.33 268.934C271.33 268.934 269.372 289.24 267.391 297.73C265.434 306.244 264.655 321.62 259.632 325.559" stroke="#333333" stroke-width="6" stroke-linecap="round" stroke-linejoin="round"/>
<path d="M477.595 332.47C477.595 353.011 461.865 367.35 442.455 364.473C423.045 361.596 407.315 342.611 407.315 322.069C407.315 301.527 423.045 287.188 442.455 290.066C461.865 292.943 477.595 311.928 477.595 332.47Z" fill="#FFF9C7" stroke="#333333" stroke-width="6" stroke-linecap="round" stroke-linejoin="round"/>
<path d="M456.369 317.046L449.436 340.583L442.502 314.994" stroke="#333333" stroke-width="6" stroke-linecap="round" stroke-linejoin="round"/>
<path d="M442.078 314.946L435.145 338.46L428.235 312.895" stroke="#333333" stroke-width="6" stroke-linecap="round" stroke-linejoin="round"/>
<path d="M458.964 327.233L425.899 322.328" stroke="#333333" stroke-width="6" stroke-linecap="round" stroke-linejoin="round"/>
<path d="M208.814 185.754C220.7 202.522 216.738 225.752 199.97 237.615C183.202 249.501 159.972 245.539 148.109 228.771C136.223 212.002 140.185 188.772 156.953 176.91C173.721 165.023 196.951 168.985 208.814 185.754Z" fill="#FFF9C7" stroke="#333333" stroke-width="6" stroke-linecap="round" stroke-linejoin="round"/>
<path d="M183.39 188.725L191.598 212.993L171.41 197.215" stroke="#333333" stroke-width="6" stroke-linecap="round" stroke-linejoin="round"/>
<path d="M171.055 197.475L179.262 221.743L159.074 205.965" stroke="#333333" stroke-width="6" stroke-linecap="round" stroke-linejoin="round"/>
<path d="M191.315 195.139L162.732 215.374" stroke="#333333" stroke-width="6" stroke-linecap="round" stroke-linejoin="round"/>
<g filter="url(#filter0_f_224_16291)">
<ellipse cx="399.164" cy="167.876" rx="21.9485" ry="12.1936" transform="rotate(-4.49396 399.164 167.876)" fill="#F5B0B0"/>
</g>
<g filter="url(#filter1_f_224_16291)">
<ellipse cx="279.617" cy="179.717" rx="21.3388" ry="12.1936" transform="rotate(-4.49396 279.617 179.717)" fill="#F5B0B0"/>
</g>
<path d="M308.239 151.674C308.923 158.278 304.112 164.15 297.509 164.834C290.905 165.518 285.033 160.707 284.349 154.104C283.665 147.5 288.476 141.628 295.08 140.944C301.683 140.26 307.555 145.071 308.239 151.674Z" fill="#333333"/>
<path d="M366.161 164.527C366.161 164.527 351.822 170.612 344.322 160.188C344.322 160.188 341.586 174.999 322.129 173.112" stroke="#333333" stroke-width="6" stroke-linecap="round" stroke-linejoin="round"/>
<path d="M360.761 166.721C360.761 166.721 375.123 202.097 352.506 206.931C332.885 211.129 328.852 173.253 328.852 173.253" stroke="#333333" stroke-width="6" stroke-linecap="round" stroke-linejoin="round"/>
<path d="M387.175 134.812L369.935 149.6L390.052 147.288" stroke="#333333" stroke-width="6" stroke-linecap="round" stroke-linejoin="round"/>
<path d="M297.555 242.756C297.555 242.756 308.309 256.435 329.865 255.869C351.421 255.303 353.402 244.171 353.402 244.171" stroke="#333333" stroke-width="6" stroke-linecap="round" stroke-linejoin="round"/>
<path d="M382.953 249.76C382.953 249.76 386.962 268.58 375.877 280.844" stroke="#333333" stroke-width="6" stroke-linecap="round" stroke-linejoin="round"/>
<path d="M241.826 345.111C241.826 345.111 224.563 327.777 245.67 314.287" stroke="#333333" stroke-width="6" stroke-linecap="round" stroke-linejoin="round"/>
<path d="M351.044 387.208C351.044 387.208 343.284 396.028 317.106 387.208" stroke="#333333" stroke-width="6" stroke-linecap="round" stroke-linejoin="round"/>
<path d="M366.209 261.246C365.502 260.209 372.341 280.845 369.936 315.018H368.521C368.521 315.018 350.573 319.947 321.282 318.202C291.991 316.456 279.562 302.047 266.544 302.094" stroke="#333333" stroke-width="6" stroke-linecap="round" stroke-linejoin="round"/>
<path d="M422.48 105.261C425.051 112.69 423.942 122.925 424.107 126.84C426.796 132.996 441.159 151.886 437.998 177.145C434.838 202.403 414.627 225.233 371.232 237.496C371.232 237.496 345.667 243.298 336.422 243.062" stroke="#333333" stroke-width="6" stroke-linecap="round" stroke-linejoin="round"/>
<path d="M318.193 243.181C288.736 244.902 256.096 238.37 234.399 221.625C216.381 207.734 208.386 190.282 210.06 149.599" stroke="#333333" stroke-width="6" stroke-linecap="round" stroke-linejoin="round"/>
<path d="M207.653 149.599C170.767 47.6931 265.245 30.1938 265.245 30.1938C327.2 -11.2196 398.353 32.0334 398.353 32.0334C398.353 32.0334 451.605 63.683 432.691 112.738" stroke="#333333" stroke-width="6" stroke-linecap="round" stroke-linejoin="round"/>
<path d="M273.759 60.5704C273.759 60.5704 271.353 94.0833 326.257 108.493" stroke="#333333" stroke-width="6" stroke-linecap="round" stroke-linejoin="round"/>
<path d="M263.146 80.8999C263.146 80.8999 233.666 101.677 229.162 133.917" stroke="#333333" stroke-width="6" stroke-linecap="round" stroke-linejoin="round"/>
<path d="M383.471 105.497C383.471 105.497 345.195 97.1959 329.889 64.2255" stroke="#333333" stroke-width="6" stroke-linecap="round" stroke-linejoin="round"/>
<path d="M320.762 44.7914C367.388 14.3916 398.354 55.6636 398.354 55.6636C352.506 108.61 321.305 66.3707 321.305 66.3707C321.305 66.3707 316.635 63.7293 316.871 54.225C316.989 49.2252 320.762 44.7678 320.762 44.7678V44.7914Z" fill="#1AAF92"/>
<path d="M321.304 66.3707C321.304 66.3707 352.505 108.61 398.353 55.6636C398.353 55.6636 367.387 14.3916 320.761 44.7914" stroke="#333333" stroke-width="6" stroke-linecap="round" stroke-linejoin="round"/>
<path d="M359.439 57.3624C359.439 57.8812 325.808 66.5837 308.474 46.6788" stroke="#333333" stroke-width="6" stroke-linecap="round" stroke-linejoin="round"/>
<defs>
<filter id="filter0_f_224_16291" x="367.059" y="145.395" width="64.2093" height="44.9621" filterUnits="userSpaceOnUse" color-interpolation-filters="sRGB">
<feFlood flood-opacity="0" result="BackgroundImageFix"/>
<feBlend mode="normal" in="SourceGraphic" in2="BackgroundImageFix" result="shape"/>
<feGaussianBlur stdDeviation="5.10117" result="effect1_foregroundBlur_224_16291"/>
</filter>
<filter id="filter1_f_224_16291" x="248.119" y="157.243" width="62.9949" height="44.9489" filterUnits="userSpaceOnUse" color-interpolation-filters="sRGB">
<feFlood flood-opacity="0" result="BackgroundImageFix"/>
<feBlend mode="normal" in="SourceGraphic" in2="BackgroundImageFix" result="shape"/>
<feGaussianBlur stdDeviation="5.10117" result="effect1_foregroundBlur_224_16291"/>
</filter>
</defs>
</svg>
