<svg width="640" height="440" viewBox="0 0 640 440" fill="none" xmlns="http://www.w3.org/2000/svg">
<ellipse cx="320" cy="387" rx="181" ry="53" fill="#EEEEEE"/>
<path d="M416.275 225.193C416.275 225.193 433.744 228.036 448.443 211.531C464.129 193.917 456.105 177.436 456.105 177.436C456.105 177.436 474.37 170.4 474.08 144.232C473.815 120.835 449.31 109.1 449.31 109.1C449.31 109.1 440.539 65.7041 400.878 35.5364C347.843 -4.87199 272.954 20.067 272.954 20.067C272.954 20.067 197.197 20.4043 163.03 99.2452C154.307 112.883 148.042 151.726 148.042 151.726C148.042 151.726 115.417 175.122 138.549 212.254C151.392 232.856 175.102 227.217 175.102 227.217C175.102 227.217 172.138 245.795 200.571 256.469C220.137 263.818 236.353 251.216 236.353 251.216C236.353 251.216 241.1 265.915 262.569 260.975" fill="white"/>
<path d="M416.275 225.193C416.275 225.193 433.744 228.036 448.443 211.531C464.129 193.917 456.105 177.436 456.105 177.436C456.105 177.436 474.37 170.4 474.08 144.232C473.815 120.835 449.31 109.1 449.31 109.1C449.31 109.1 440.539 65.7041 400.878 35.5364C347.843 -4.87199 272.954 20.067 272.954 20.067C272.954 20.067 197.197 20.4043 163.03 99.2452C154.307 112.883 148.042 151.726 148.042 151.726C148.042 151.726 115.417 175.122 138.549 212.254C151.392 232.856 175.102 227.217 175.102 227.217C175.102 227.217 172.138 245.795 200.571 256.469C220.137 263.818 236.353 251.216 236.353 251.216C236.353 251.216 241.1 265.915 262.569 260.975" stroke="#333333" stroke-width="6" stroke-linecap="round" stroke-linejoin="round"/>
<path d="M339.336 319.046C339.336 319.046 340.517 355.647 321.385 381.212C321.385 381.212 327.289 389.14 321.385 396.296C314.566 406.465 284.061 397.116 291.29 379.839C298.518 362.562 304.759 350.25 302.036 326.154" fill="white"/>
<path d="M339.336 319.046C339.336 319.046 340.517 355.647 321.385 381.212C321.385 381.212 327.289 389.14 321.385 396.296C314.566 406.465 284.061 397.116 291.29 379.839C298.518 362.562 304.759 350.25 302.036 326.154" stroke="#333333" stroke-width="6" stroke-linecap="round" stroke-linejoin="round"/>
<path d="M305.388 325.07C305.388 325.07 288.569 326.082 287.34 326.082H286.136C286.136 326.082 284.112 342.106 264.642 353.262C255.101 359.792 238.475 359.792 238.475 359.792C238.475 359.792 235.439 368.081 228.33 368.491C221.222 368.9 212.716 362.804 214.74 346.804C216.764 330.781 232.643 332.395 234.547 332.01C236.451 331.6 242.788 330.998 248.257 328.564C253.727 326.13 253.679 319.287 253.679 319.287" fill="white"/>
<path d="M305.388 325.07C305.388 325.07 288.569 326.082 287.341 326.082H286.136C286.136 326.082 284.112 342.106 264.642 353.262C255.101 359.792 238.475 359.792 238.475 359.792C238.475 359.792 235.439 368.081 228.33 368.491C221.222 368.9 212.716 362.804 214.74 346.804C216.764 330.781 232.643 332.395 234.547 332.01C236.451 331.6 242.788 330.998 248.257 328.564C253.727 326.13 253.679 319.287 253.679 319.287" stroke="#333333" stroke-width="6" stroke-linecap="round" stroke-linejoin="round"/>
<path d="M352.687 240.157C359.915 276.878 350.638 335.142 350.638 335.142C350.638 335.142 353.675 342.274 349.024 343.864C344.374 345.431 331.892 352.635 299.411 349.43C266.93 346.226 232.666 326.226 232.305 314.082C231.943 301.938 241.124 299.697 241.124 299.697C246.714 262.108 264.689 237.771 264.689 237.771C264.689 237.771 289.628 241 296.833 241.096C301.483 244.638 314.784 253.626 334.205 249.723C344.374 246.446 346.952 239.193 346.952 239.193L352.687 240.133V240.157Z" fill="#FFADBE"/>
<path d="M264.691 237.771C264.691 237.771 246.715 262.084 241.125 299.697C241.125 299.697 231.969 301.962 232.306 314.082C232.667 326.226 266.931 346.202 299.412 349.43C331.893 352.635 344.399 345.455 349.025 343.864C353.676 342.298 350.64 335.142 350.64 335.142C350.64 335.142 359.892 276.878 352.688 240.157" stroke="#333333" stroke-width="6" stroke-linecap="round" stroke-linejoin="round"/>
<g filter="url(#filter0_f_224_16119)">
<ellipse cx="395.011" cy="158.902" rx="23.3862" ry="12.9923" transform="rotate(-7.63028 395.011 158.902)" fill="#F5B0B0"/>
</g>
<g filter="url(#filter1_f_224_16119)">
<ellipse cx="268.515" cy="178.47" rx="22.7366" ry="12.9923" transform="rotate(-7.63028 268.515 178.47)" fill="#F5B0B0"/>
</g>
<path d="M385.601 128.69C386.782 135.365 382.324 141.726 375.674 142.907C369 144.088 362.638 139.63 361.458 132.98C360.277 126.305 364.735 119.944 371.385 118.763C378.06 117.582 384.421 122.04 385.601 128.69Z" fill="#333333"/>
<path d="M324.47 164.327C324.47 164.327 333.675 165.942 339.819 164.858C347.723 163.46 352.18 159.436 352.18 159.436C352.18 159.436 361.313 204.543 349.265 209.025C337.217 213.507 327.29 185.917 324.446 164.352L324.47 164.327Z" fill="#F29AA0" stroke="#333333" stroke-width="6" stroke-linecap="round" stroke-linejoin="round"/>
<path d="M274.158 140.208L296.929 144.569L277.941 152.713" stroke="#333333" stroke-width="6" stroke-linecap="round" stroke-linejoin="round"/>
<path d="M346.975 240.47C346.975 240.47 332.012 263.723 298.856 241.603" stroke="#333333" stroke-width="6" stroke-linecap="round" stroke-linejoin="round"/>
<path d="M224.256 221.723C226.449 223.555 228.738 225.121 231.148 226.446C253.918 238.976 292.134 242.638 312.976 239.313" stroke="#333333" stroke-width="6" stroke-linecap="round" stroke-linejoin="round"/>
<path d="M413.311 106.45C414.01 108.763 415.239 111.269 415.648 112.113C418.949 118.137 435.262 136.064 434.322 162.063C433.383 188.062 414.058 216.664 370.999 233.049C370.999 233.049 355.506 239.121 343.699 239.121" stroke="#333333" stroke-width="6" stroke-linecap="round" stroke-linejoin="round"/>
<path d="M381.89 67.5349C381.89 67.5349 396.034 90.4499 388.564 110.907" stroke="#333333" stroke-width="6" stroke-linecap="round" stroke-linejoin="round"/>
<path d="M309.676 76.7153C309.676 76.7153 321.748 106.281 310.254 126.81" stroke="#333333" stroke-width="6" stroke-linecap="round" stroke-linejoin="round"/>
<path d="M239.003 102.04C239.003 102.04 245.629 130.449 232.063 153.003" stroke="#333333" stroke-width="6" stroke-linecap="round" stroke-linejoin="round"/>
<path d="M215.244 151.051C215.244 151.051 223.678 189.869 210.208 203.049" stroke="#333333" stroke-width="6" stroke-linecap="round" stroke-linejoin="round"/>
<path d="M464.466 341.045L404.516 382.754L335.073 352.948L365.24 327.985L451.117 326.684L464.466 341.045Z" fill="#FAD9BE"/>
<path d="M358.132 242.639L367.048 349.888C367.048 349.888 336.856 354.707 329.121 348.9C327.796 332.901 319.29 230.687 319.29 230.687L358.132 242.615V242.639Z" fill="#FDD45F"/>
<path d="M427.118 236.88L436.033 344.13C436.033 344.13 466.611 343.913 473.285 336.901C471.96 320.901 463.454 218.688 463.454 218.688L427.118 236.856V236.88Z" fill="#FFF599"/>
<path d="M427.191 237.651L435.841 341.817C435.841 341.817 422.83 352.925 401.144 354.732C379.433 356.539 367.048 349.889 367.048 349.889L358.133 242.639L427.191 237.675V237.651Z" fill="#FFE083"/>
<path d="M424.636 206.784L353.578 212.711L319.29 230.711L356.06 242.807L427.118 236.879L461.406 218.88L424.636 206.784Z" fill="#FAD9BE"/>
<path d="M424.636 206.784L353.578 212.711L319.29 230.711L356.06 242.807L427.118 236.879L461.406 218.88L424.636 206.784Z" stroke="#333333" stroke-width="6" stroke-linecap="round" stroke-linejoin="round"/>
<path d="M319.29 230.71L329.242 350.514L393.432 377.405L396.348 395.958C396.348 395.958 400.035 402.826 404.685 402.44H404.878C409.528 402.03 412.034 394.657 412.034 394.657L411.841 375.863L471.382 338.683L461.43 218.88" stroke="#333333" stroke-width="6" stroke-linecap="round" stroke-linejoin="round"/>
<path d="M328.879 346.009C328.879 346.009 347.963 355.888 364.396 349.358L365.288 348.852C372.372 353.527 385.89 356.009 401.142 354.732C415.985 353.503 428.635 349.045 435.021 343.479L435.984 343.407C453.261 347.142 470.465 334.25 470.465 334.25" stroke="#333333" stroke-width="6" stroke-linecap="round" stroke-linejoin="round"/>
<path d="M411.649 373.839L393.264 375.357C393.264 375.357 395.192 403.236 404.782 402.417C414.372 401.622 411.673 373.815 411.673 373.815L411.649 373.839Z" fill="#333333"/>
<path d="M406.613 223.29C406.83 225.94 399.578 228.711 390.397 229.482C381.217 230.253 373.602 228.711 373.386 226.061C373.169 223.41 380.422 220.639 389.602 219.868C398.782 219.097 406.397 220.639 406.613 223.29Z" fill="#333333"/>
<path d="M302.158 260.999C319.507 278.348 338.735 270.3 338.735 270.3C341.916 257.505 349.627 252.855 362.831 256.012C377.794 259.65 383.385 277.505 374.276 290.541C365.144 303.576 348.952 296.396 348.952 296.396C317.772 305.673 292.496 293.456 278.255 283.336L302.182 261.023L302.158 260.999Z" fill="white"/>
<path d="M265.558 272.445C265.558 272.445 299.942 310.974 348.953 296.372C348.953 296.372 365.169 303.552 374.277 290.516C383.409 277.481 377.795 259.65 362.832 255.987C349.627 252.855 341.917 257.481 338.736 270.276C338.736 270.276 313.171 280.999 294.4 251.096" stroke="#333333" stroke-width="6" stroke-linecap="round" stroke-linejoin="round"/>
<path d="M300.592 261.987L279.628 281.432" stroke="#333333" stroke-width="6" stroke-linecap="round" stroke-linejoin="round"/>
<defs>
<filter id="filter0_f_224_16119" x="361.565" y="135.451" width="66.8935" height="46.9036" filterUnits="userSpaceOnUse" color-interpolation-filters="sRGB">
<feFlood flood-opacity="0" result="BackgroundImageFix"/>
<feBlend mode="normal" in="SourceGraphic" in2="BackgroundImageFix" result="shape"/>
<feGaussianBlur stdDeviation="5.10117" result="effect1_foregroundBlur_224_16119"/>
</filter>
<filter id="filter1_f_224_16119" x="235.71" y="155.038" width="65.6093" height="46.8636" filterUnits="userSpaceOnUse" color-interpolation-filters="sRGB">
<feFlood flood-opacity="0" result="BackgroundImageFix"/>
<feBlend mode="normal" in="SourceGraphic" in2="BackgroundImageFix" result="shape"/>
<feGaussianBlur stdDeviation="5.10117" result="effect1_foregroundBlur_224_16119"/>
</filter>
</defs>
</svg>
