<svg width="60" height="62" viewBox="0 0 60 62" fill="none" xmlns="http://www.w3.org/2000/svg">
<path d="M22.8365 38.0403L24.902 38.7627L25.5217 42.1686L25.8315 44.7488L26.2446 46.2969L27.6904 47.845L29.3428 48.9803L31.6149 49.5995L31.4083 50.838L30.6854 51.7669L28.6199 52.9021L27.0708 53.315L26.2446 54.347L25.8315 55.8951L26.2446 57.0304L27.3806 57.8561L28.9297 58.0625L30.169 57.8561L30.892 57.0304V56.308L31.4083 55.8951L33.4738 55.3791L35.2295 54.5534L36.6754 53.315L37.7081 52.1797L38.8441 50.322L39.1539 49.3931L39.8769 49.1867L41.5293 49.3931L42.7686 50.322L43.8013 50.838L44.7308 51.0444L46.2799 50.6316L47.7258 49.3931L48.2421 48.0514L48.1389 46.5033L47.7258 45.6776L46.7963 45.0584L45.2472 45.2648L44.3177 45.6776L43.0784 45.0584L40.3932 44.3359L40.0834 43.8199L39.8769 42.7878L39.1539 40.7237H39.7736L40.9096 41.0333H42.0456L45.0406 40.4141L46.7963 39.382L47.4159 38.7627H48.552L49.688 38.0403L50.2043 37.0082V35.6665L49.688 34.5312L48.9651 33.912L47.9323 33.4992L46.8996 33.7056L45.9701 34.2216L45.4537 34.8409L45.0406 36.0794L43.4915 36.6986L41.1162 37.0082L39.1539 36.389L38.2245 35.5633H39.7736L43.4915 35.1505L45.4537 34.2216L46.7963 33.396L47.7258 32.4671L48.7585 30.7126L49.8945 28.3388L50.5142 26.0683L51.6502 25.5522L52.3731 24.2105L53.4059 21.7336L53.9222 19.1534L53.819 15.8507L52.8895 13.3738L51.3404 11.3096L49.2749 9.5551L47.7258 8.52303L45.557 6.56209L42.0456 4.91077L39.3605 4.18832L31.8214 3.15625L28.0003 3.56908L24.5922 5.11719L21.9071 7.28454L20.4612 9.96793V12.6513L21.2874 13.477L20.9776 14.9219L20.0481 16.0572L18.3957 18.2245L16.9499 22.0432L17.5695 25.3458L18.9121 28.0292L20.4612 30.1965L22.8365 31.9511L25.0053 33.2928H23.3529L22.3202 33.396L19.2219 34.3248L17.0531 35.4601L15.8138 36.5954L15.0909 37.421L14.1614 37.5243L13.3352 37.9371L12.6123 38.8659L12.1992 40.3109L12.509 41.5493L13.0254 42.375L13.9549 43.2007L15.6073 43.4071L17.2597 42.891L17.8793 42.1686L18.1892 41.4461L18.2924 40.7237L18.0859 39.898L18.3957 39.5884L19.3252 38.8659L20.0481 38.3499H20.9776L22.8365 38.0403Z" fill="white"/>
<path d="M33.4329 43.8789L26.4531 45.9186C26.4531 45.9186 27.1528 49.2237 31.6751 49.7558C30.9789 51.7477 29.9072 52.3173 27.1562 53.4497C27.3883 54.9846 27.9788 55.8237 30.9106 56.2295C30.9106 56.2295 32.8117 55.7452 33.8527 55.2199C34.8936 54.6947 38.8016 52.6141 39.1361 49.326C40.2351 49.326 42.1328 49.5955 43.4058 50.6972C43.0611 49.5272 43.8052 46.5939 44.6721 45.6355C42.6755 44.9158 41.3921 44.3939 39.5491 44.3155C39.5491 44.3155 37.9586 44.2132 33.4363 43.8789H33.4329Z" fill="#6595CA"/>
<path d="M36.9165 21.9457C36.6503 22.8667 37.1793 23.8285 38.1009 24.0946C39.0224 24.3606 39.9849 23.8319 40.2511 22.911C40.5173 21.9901 39.9883 21.0282 39.0668 20.7622C38.1452 20.4961 37.1827 21.0248 36.9165 21.9457Z" fill="#7C6656"/>
<path d="M25.481 19.1137C25.2148 20.0346 25.7438 20.9965 26.6653 21.2625C27.5868 21.5286 28.5493 20.9999 28.8155 20.079C29.0818 19.158 28.5527 18.1962 27.6312 17.9301C26.7097 17.6641 25.7472 18.1928 25.481 19.1137Z" fill="#7C6656"/>
<path d="M21.5632 12.6406C21.2185 13.4933 20.9249 14.404 20.6758 15.3625C20.1024 16.147 17.4812 18.364 17.1364 22.0307C16.7917 25.6973 18.9795 30.0666 24.7271 33.1568C24.7271 33.1568 24.8739 33.225 25.123 33.3308" stroke="#7C6656" stroke-linecap="round" stroke-linejoin="round"/>
<path d="M37.959 35.5502C40.3072 35.5979 42.8192 35.3216 44.7135 34.5815C47.3415 33.5548 49.4986 30.9558 50.6795 25.6758" stroke="#7C6656" stroke-linecap="round" stroke-linejoin="round"/>
<path d="M34.752 25L29.4845 23.5C29.4845 23.5 24.9072 27.3048 28.1833 30.2842C31.2934 33.1126 35.9236 30.8378 34.752 25Z" fill="#F299A0" stroke="#7C6656" stroke-linecap="round" stroke-linejoin="round"/>
<path d="M44.6685 45.6397C44.6685 45.6397 45.9348 44.5039 47.1806 45.2713C49.0543 46.431 48.1465 49.2279 46.9792 50.1385C45.8222 51.0424 44.4569 51.4824 42.4466 50.0158C40.4329 48.5491 37.5557 49.8861 32.6409 49.7599C27.7295 49.6372 25.8932 46.1581 25.8523 44.5004C25.8113 42.8428 24.8864 38.7122 24.8864 38.7122C20.388 36.5293 18.0671 39.8276 18.0671 39.8276C18.6473 41.6012 18.0671 42.737 16.2445 43.351C14.1728 44.0366 12.159 42.3107 12.2785 40.0629C12.398 37.8152 14.8827 37.4605 14.8827 37.4605C19.1456 31.4267 27.2141 33.7768 27.2141 33.7768C27.2141 33.7768 28.9991 34.169 29.2073 34.2782" stroke="#7C6656" stroke-linecap="round" stroke-linejoin="round"/>
<path d="M44.5751 45.9236C44.5751 45.9236 41.3805 43.2018 34.6328 44.6207" stroke="#7C6656" stroke-linecap="round" stroke-linejoin="round"/>
<path d="M39.1328 49.3301C39.1328 49.3301 37.6686 55.2854 30.5898 56.0665" stroke="#7C6656" stroke-linecap="round" stroke-linejoin="round"/>
<path d="M31.672 49.7617C31.672 49.7617 31.3648 51.7912 28.8221 52.8042C27.4671 53.3431 26.3886 53.3567 25.9483 55.2122C25.5148 57.0336 27.5422 58.0569 28.8904 58.0569C30.2385 58.0569 31.0235 57.3304 30.9075 56.2287" stroke="#7C6656" stroke-linecap="round" stroke-linejoin="round"/>
<path d="M37.9258 37.3418C37.9258 37.3418 39.076 39.6919 40.1648 44.0714" stroke="#7C6656" stroke-linecap="round" stroke-linejoin="round"/>
<path d="M16.3468 48.8831V49.6072L14.6916 48.5727L13.5537 47.8486H12.7261H12.3123L12.933 49.9176L13.3468 51.3658L13.1399 52.8141L13.3468 54.2624L12.933 54.4693L12.3123 54.5727L11.071 54.7796L9.82959 54.4693L9.31235 53.952L9.00201 53.5382L8.38132 52.8141L7.76064 52.4003L7.13995 52.1934L6.51926 51.9865L6.10547 52.1934V52.8141L6.8296 53.021L7.76064 53.5382L8.58822 54.5727L9.82959 55.5037L11.071 55.8141V57.1589L10.8641 58.5037L11.071 60.1589L11.7951 60.3658L12.5192 59.952L12.933 58.6072L13.0365 57.6761L13.5537 58.5037L14.5882 59.3313H15.3123V58.9175L14.8985 58.2968L14.6916 57.4693H15.3123L15.933 58.0899L16.3468 59.6417L16.8641 60.5727H17.6916L18.3123 59.952L18.1054 58.9175L17.4847 57.3658L17.8985 56.7451H18.7261L19.9675 57.4693L21.002 57.883L21.5192 57.6761V56.7451L21.2089 56.1244L20.2778 55.4003L20.5882 55.09L21.5192 54.2624L22.4502 52.9175L22.5537 51.7796V50.2279L22.0364 49.4003L21.002 48.7796L19.864 48.3658L19.4503 48.1589L18.4158 47.3314L16.5537 46.5038L15.7261 46.2969V47.021L16.3468 48.8831Z" fill="white"/>
<path d="M11.1403 54.6743C10.1403 54.7357 9.41673 54.3878 8.99009 53.634C8.6522 53.0439 8.13683 52.5869 7.53271 52.3242C7.42008 52.6482 7.30404 52.9689 7.19141 53.2929C7.50541 53.4396 7.85013 53.6954 8.1027 54.1388C8.40646 54.6709 9.07883 55.4963 10.4065 55.6702C10.4918 55.6805 10.5806 55.6907 10.6727 55.6941L11.5328 54.6709C11.5124 54.6709 11.1949 54.6709 11.1437 54.6709L11.1403 54.6743Z" fill="#E1B995"/>
<path d="M10.668 55.6989C10.5758 55.6921 10.4871 55.6852 10.4018 55.675C9.07748 55.5011 8.4017 54.6756 8.09793 54.1435C7.59621 53.2601 6.72588 53.1237 6.47331 53.0998C6.19685 53.0794 5.98183 52.827 6.00572 52.5473C6.02961 52.2642 6.27877 52.0561 6.55864 52.08C7.57915 52.1584 8.4802 52.7485 8.98533 53.6353C9.41197 54.3891 10.1355 54.737 11.1356 54.6756C11.1833 54.6756 11.5042 54.6756 11.5247 54.6756" stroke="#7C6656" stroke-linecap="round" stroke-linejoin="round"/>
<path d="M15.4209 56.3779C15.4892 56.4121 15.0557 56.9782 15.5609 57.7184C14.6086 57.6809 14.6701 57.5445 14.6701 57.5445C14.6701 57.5445 15.9363 59.0555 15.1206 59.3556C14.397 59.1475 13.2741 58.2096 13.0318 58.0595C12.8543 57.9503 13.0079 58.6734 13.0079 58.6734C13.0079 58.6734 12.2502 60.4505 11.4754 60.2424C10.6972 60.0037 11.1307 58.7348 11.0283 57.466C10.9259 56.1972 10.8167 55.0614 11.5164 54.809C12.2161 54.5566 13.414 54.5156 13.414 54.5156C13.414 54.5156 14.4311 55.8902 15.4243 56.3848L15.4209 56.3779Z" fill="#E1B995"/>
<path d="M22.1355 49.8396C22.1355 49.8396 22.0263 50.2592 21.0569 50.5218C19.7429 50.88 18.0466 49.959 17.1899 50.5218C16.3333 51.0846 16.852 53.1754 16.5142 53.9258C16.1763 54.6728 15.5107 55.6961 13.8861 55.5869C13.5004 55.3038 12.7803 52.7696 13.5072 51.3234C13.34 50.648 11.9543 48.622 12.299 47.8818C12.6437 47.1417 15.9305 49.1575 15.9305 49.1575C15.9305 49.1575 16.323 49.5224 16.1967 48.8744C16.0705 48.2263 15.3128 46.3742 15.6575 46.3947C16.0022 46.4152 19.289 47.5783 19.6747 48.182C20.2583 48.4207 21.6815 48.8403 22.1389 49.8431L22.1355 49.8396Z" fill="#E1B995"/>
<path d="M14.0605 49.5195C14.0605 49.5195 14.6101 50.8907 14.5657 50.7781C14.5213 50.6622 15.2722 50.1539 15.2722 50.1539" stroke="#7C6656" stroke-linecap="round" stroke-linejoin="round"/>
<path d="M17.1914 48.2266L17.6249 48.9804L18.3348 48.7552" stroke="#7C6656" stroke-linecap="round" stroke-linejoin="round"/>
<path d="M16.219 49.1545C16.219 49.1545 15.3384 46.6851 15.6558 46.3918C15.9732 46.0984 19.4068 47.8789 19.8641 48.4724C19.8641 48.4724 22.325 49.0181 22.5536 50.4984C22.7823 51.9787 22.4171 53.8922 20.4137 55.2122C18.4102 56.5322 15.2633 56.9892 13.8059 55.2122C12.3486 53.4351 13.509 51.3238 13.509 51.3238C13.509 51.3238 12.3008 48.1552 12.3008 47.8823C12.3008 47.6094 15.5364 48.5474 16.219 49.6048L16.7344 49.3899" stroke="#7C6656" stroke-linecap="round" stroke-linejoin="round"/>
<path d="M19.9793 51.9336C19.9793 51.9336 19.8258 52.3906 19.0407 52.1485C19.0407 52.1485 19.2216 52.9637 18.5117 53.0182" stroke="#7C6656" stroke-linecap="round" stroke-linejoin="round"/>
<path d="M20.0473 50.6034C20.0473 50.9001 19.805 51.1423 19.508 51.1423C19.2111 51.1423 18.9688 50.9001 18.9688 50.6034C18.9688 50.3066 19.2111 50.0645 19.508 50.0645C19.805 50.0645 20.0473 50.3066 20.0473 50.6034Z" fill="#7C6656"/>
<path d="M17.5043 52.2303C17.5043 52.5271 17.262 52.7692 16.965 52.7692C16.6681 52.7692 16.4258 52.5271 16.4258 52.2303C16.4258 51.9336 16.6681 51.6914 16.965 51.6914C17.262 51.6914 17.5043 51.9336 17.5043 52.2303Z" fill="#7C6656"/>
<path d="M20.0803 55.4862C20.0803 55.4862 21.8551 56.1684 21.5854 57.4611C21.309 58.7811 20.0939 57.2462 19.5103 56.9802C18.9813 56.7414 18.4693 56.3082 17.7901 56.854C17.0392 57.4577 19.1553 60.3194 17.5682 60.5581C15.9812 60.7969 16.4863 57.7647 15.3736 57.6623L12.9401 57.7033C12.9401 57.7033 12.9742 60.0874 11.708 60.2375C10.4418 60.3876 11.1005 58.133 11.179 57.4577C11.2575 56.7789 10.0834 55.1554 11.9776 54.6131C11.9776 54.6131 12.5886 54.3675 13.0698 54.6131" stroke="#7C6656" stroke-linecap="round" stroke-linejoin="round"/>
<path d="M14.6438 57.8047C14.6438 57.8047 15.7633 59.2475 15.2513 59.3396C14.7394 59.4282 13.8998 59.1144 13.4629 58.4016" stroke="#7C6656" stroke-linecap="round" stroke-linejoin="round"/>
<path d="M40.1818 36.6934C40.1818 36.6934 40.448 38.3442 39.6016 39.9405L40.1818 36.6934Z" fill="white"/>
<path d="M40.1818 36.6934C40.1818 36.6934 40.448 38.3442 39.6016 39.9405" stroke="#7C6656" stroke-linecap="round" stroke-linejoin="round"/>
<path d="M22.6133 33.3613C22.6133 33.3613 23.0843 35.2168 23.3027 38.1331L22.6133 33.3613Z" fill="white"/>
<path d="M22.6133 33.3613C22.6133 33.3613 23.0843 35.2168 23.3027 38.1331" stroke="#7C6656" stroke-linecap="round" stroke-linejoin="round"/>
<path d="M44.6694 45.6406C44.6694 45.6406 42.7684 48.4853 43.4032 50.6L44.6694 45.6406Z" fill="white"/>
<path d="M44.6694 45.6406C44.6694 45.6406 42.7684 48.4853 43.4032 50.6" stroke="#7C6656" stroke-linecap="round" stroke-linejoin="round"/>
<path d="M27.1523 53.4531C27.1523 53.4531 27.1762 56.1272 30.9067 56.233" stroke="#7C6656" stroke-linecap="round" stroke-linejoin="round"/>
<path d="M35.8696 35.5542C35.8696 35.5542 34.0879 37.7849 29.3574 34.3809L35.8696 35.5542Z" fill="white"/>
<path d="M35.8696 35.5542C35.8696 35.5542 34.0879 37.7849 29.3574 34.3809" stroke="#7C6656" stroke-linecap="round" stroke-linejoin="round"/>
<path d="M39.1434 40.5921C41.4643 41.1037 44.7067 41.148 47.4201 38.682C47.4201 38.682 49.6318 38.8491 50.1642 36.9356C50.6966 35.0188 49.2904 33.1496 47.3723 33.344C45.6828 33.5248 44.9661 34.3946 45.1265 36.0352C45.1265 36.0352 41.4199 38.2932 37.9591 35.5508C37.9591 35.5508 33.2285 35.0563 31.2012 34.6129" stroke="#7C6656" stroke-linecap="round" stroke-linejoin="round"/>
<path d="M51.329 25.8763C59.0016 14.0066 47.7351 8.5731 47.7351 8.5731C40.7383 1.19205 28.9052 3.39886 28.9052 3.39886C28.9052 3.39886 19.7889 5.09746 20.4612 12.6729" stroke="#7C6656" stroke-linecap="round" stroke-linejoin="round"/>
<path d="M41.1907 4.80988C41.1907 4.80988 42.7505 6.71995 41.7539 8.20026C40.9894 9.33607 40.1088 9.52366 37.5524 9.44521C34.996 9.36676 32.385 5.46818 31.8867 2.00276C34.112 1.42292 38.1736 0.208664 41.1907 4.80988Z" fill="#1AAF92"/>
<path d="M40.4306 9.15787C40.4306 9.15787 33.3348 11.8763 31.8672 1.85527C31.8672 1.85527 38.8572 -0.764255 42.1781 6.56904" stroke="#7C6656" stroke-linecap="round" stroke-linejoin="round"/>
<path d="M36.4789 5.08984C36.4379 5.15124 39.8646 8.83153 43.5269 7.75371" stroke="#7C6656" stroke-linecap="round" stroke-linejoin="round"/>
<path d="M43.9733 10.7988C43.9733 10.7988 40.2018 15.7275 33.5156 15.84" stroke="#7C6656" stroke-linecap="round" stroke-linejoin="round"/>
<path d="M32.9461 9.28906C32.9461 9.28906 29.004 11.4618 23.6523 12.1235" stroke="#7C6656" stroke-linecap="round" stroke-linejoin="round"/>
<path d="M47.1016 15.1777C47.1016 15.1777 50.0846 18.3089 49.7774 23.9061" stroke="#7C6656" stroke-linecap="round" stroke-linejoin="round"/>
<path d="M37.5831 44.2108C37.5831 44.2108 32.9004 42.7715 26.4531 45.9231" stroke="#7C6656" stroke-linecap="round" stroke-linejoin="round"/>
<path d="M30.0704 34.381C30.0704 34.381 29.6813 34.3333 29.084 34.2344" stroke="#7C6656" stroke-linecap="round" stroke-linejoin="round"/>
<g filter="url(#filter0_f_1099_24228)">
<ellipse cx="2.90202" cy="1.70599" rx="2.90202" ry="1.70599" transform="matrix(0.992304 0.123824 -0.123983 0.992284 37.4883 25.6152)" fill="#F5B0B0"/>
</g>
<g filter="url(#filter1_f_1099_24228)">
<ellipse cx="2.90191" cy="1.70606" rx="2.90191" ry="1.70606" transform="matrix(0.960805 0.277224 -0.277559 0.960709 20.7734 20.4492)" fill="#F5B0B0"/>
</g>
<defs>
<filter id="filter0_f_1099_24228" x="35.9764" y="24.6424" width="8.36159" height="6.04909" filterUnits="userSpaceOnUse" color-interpolation-filters="sRGB">
<feFlood flood-opacity="0" result="BackgroundImageFix"/>
<feBlend mode="normal" in="SourceGraphic" in2="BackgroundImageFix" result="shape"/>
<feGaussianBlur stdDeviation="0.64655" result="effect1_foregroundBlur_1099_24228"/>
</filter>
<filter id="filter1_f_1099_24228" x="18.9667" y="19.7733" width="8.24245" height="6.23854" filterUnits="userSpaceOnUse" color-interpolation-filters="sRGB">
<feFlood flood-opacity="0" result="BackgroundImageFix"/>
<feBlend mode="normal" in="SourceGraphic" in2="BackgroundImageFix" result="shape"/>
<feGaussianBlur stdDeviation="0.64655" result="effect1_foregroundBlur_1099_24228"/>
</filter>
</defs>
</svg>
