<svg width="52" height="48" viewBox="0 0 52 48" fill="none" xmlns="http://www.w3.org/2000/svg">
<path d="M23.6238 31.4916L25.2174 31.2683L23.8515 30.7099L22.5994 30.2632L20.5505 28.4765L19.5261 26.2431L19.4122 23.7863L19.9814 21.8879L20.4367 20.8829V19.9895L21.0058 17.3094L21.6888 15.746L20.4367 14.0709L21.2335 13.6243L22.7132 12.7309L24.3068 11.3908L27.8355 10.1625L30.2258 10.0508L32.6162 10.2741L34.6651 10.8325L36.8278 11.9492L38.0799 13.0659L38.7629 14.1826L39.4459 14.0709L40.3565 14.5176L41.6086 15.9693L42.0639 21.5529L41.4947 23.228L41.2671 24.3447L42.0639 25.1264L42.5192 26.1314L42.2915 26.9131L41.8362 27.5831L41.2671 28.0298L41.1533 28.2532L40.2426 30.4866L39.2182 31.9383L37.6246 33.39L35.5757 34.6184L34.4374 34.9534L34.8928 38.3036L34.7789 38.8619L33.7545 39.1969L33.6407 40.0903V40.872L33.2992 42.9937L32.6162 44.4455L31.9332 45.2272L32.1609 45.8972V46.5672L31.9332 47.1256L31.1365 47.3489L30.112 47.1256L29.2014 46.5672L28.8599 45.6738L29.2014 44.4455L29.7705 43.3288L29.9982 42.4354L29.6567 40.9837L28.0631 40.872L26.4695 40.4253L25.4451 41.207L24.3068 42.1004L23.2824 43.1054L22.9409 43.7754L22.5994 44.4455L22.2579 44.8921L21.8026 45.1155L20.7782 45.0038L19.9814 44.6688L19.2984 44.1105V43.3288L19.7537 42.8821L20.3229 42.7704L20.7782 41.542L21.3473 40.4253L22.1441 39.5319L23.1685 38.6386L22.9409 38.4152L23.0547 36.1818L23.6238 34.2834L22.2579 34.3951L20.3229 34.0601L19.1846 33.39L18.1601 32.6083L17.591 31.715H16.6804L15.9974 31.2683L15.4283 30.5983L15.3145 29.8166L15.4283 29.1465L15.6559 28.6998L16.1112 28.1415L16.6804 27.8065L17.3633 27.5831L18.6154 28.0298L19.4122 28.9232L19.5261 29.8166L19.6399 30.4866L20.0952 30.9333L21.0058 31.2683L22.3717 31.4916H23.6238Z" fill="white"/>
<path d="M31.8539 45.3145C31.8539 45.3145 30.9091 46.3776 29.0469 45.6428" stroke="#7C6656" stroke-width="0.75" stroke-linecap="round" stroke-linejoin="round"/>
<path d="M23.6184 34.2425C19.343 34.984 17.581 31.683 17.581 31.683C17.581 31.683 15.2566 31.9734 15.3818 29.6082C15.4843 27.6606 17.6402 27.3569 18.4256 27.8036C19.211 28.2503 19.8507 29.2821 19.5001 30.2827C19.5001 30.2827 20.8501 32.2302 24.4083 31.2676" stroke="#7C6656" stroke-width="0.75" stroke-linecap="round" stroke-linejoin="round"/>
<path d="M20.3354 14.0271L21.6125 15.7379C21.6125 15.7379 20.629 18.0785 20.431 20.9149C19.9233 22.0428 18.291 24.9083 20.3786 28.2562C21.3348 29.9178 24.5902 31.5683 27.8707 31.9905C29.3846 32.2607 32.1165 32.0597 32.1165 32.0597C32.1165 32.0597 35.9274 32.1155 38.5751 30.4204C39.5836 29.4265 41.3479 27.9256 41.4162 23.5638C42.1219 22.8736 43.9386 20.8792 42.2949 17.127C41.0565 15.108 38.6115 14.1142 38.6115 14.1142C38.6115 14.1142 38.1789 12.1756 34.1312 10.6412C30.0835 9.1046 25.9516 10.6122 24.2328 11.4296C22.514 12.247 21.608 13.8685 20.3331 14.0248L20.3354 14.0271Z" fill="white"/>
<path d="M22.1725 15.2227C20.9978 16.7749 20.5129 18.6912 20.4355 20.9156C20.1782 21.4986 19.1242 23.3121 19.4361 25.7019C19.748 28.0939 21.6033 30.4121 25.7967 31.5601C25.7967 31.5601 26.8872 31.8728 27.9504 31.9376" stroke="#7C6656" stroke-width="0.75" stroke-linecap="round" stroke-linejoin="round"/>
<path d="M30.2969 32.1048C33.0469 32.1718 36.5414 31.7697 38.5767 30.423C40.1612 29.3733 41.3814 26.9456 41.4292 23.1152" stroke="#7C6656" stroke-width="0.75" stroke-linecap="round" stroke-linejoin="round"/>
<path d="M37.4418 15.4023C37.4418 15.4023 37.353 17.5129 39.971 18.4242" stroke="#7C6656" stroke-width="0.75" stroke-linecap="round" stroke-linejoin="round"/>
<path d="M36.2197 15.4042C36.2197 15.4042 35.5026 13.1953 32.6387 12.6504" stroke="#7C6656" stroke-width="0.75" stroke-linecap="round" stroke-linejoin="round"/>
<path d="M34.2381 15.3998C34.2381 15.3998 34.0173 13.7314 31.9297 13.4902" stroke="#7C6656" stroke-width="0.75" stroke-linecap="round" stroke-linejoin="round"/>
<path d="M38.7695 14.125C38.7695 14.125 42.5372 15.6504 42.8969 18.9425C43.2566 22.2346 41.6266 23.4361 41.6266 23.4361" stroke="#7C6656" stroke-width="0.75" stroke-linecap="round" stroke-linejoin="round"/>
<path d="M38.614 14.1165C38.614 14.1165 37.733 10.9696 32.0371 10.2013C26.3411 9.43299 23.4522 11.749 21.9838 13.1204C21.9838 13.1204 21.2508 13.7815 20.3379 14.0271L21.615 15.7379" stroke="#7C6656" stroke-width="0.75" stroke-linecap="round" stroke-linejoin="round"/>
<path d="M32.6446 12.5527C32.6446 12.5527 30.6868 15.349 27.0625 16.3205" stroke="#7C6656" stroke-width="0.75" stroke-linecap="round" stroke-linejoin="round"/>
<path d="M29.18 13.1855C29.18 13.1855 26.1249 15.7294 22.125 15.7004" stroke="#7C6656" stroke-width="0.75" stroke-linecap="round" stroke-linejoin="round"/>
<path d="M39.1742 18.8867C39.1742 18.8867 39.0946 21.4954 41.1321 22.487" stroke="#7C6656" stroke-width="0.75" stroke-linecap="round" stroke-linejoin="round"/>
<g filter="url(#filter0_f_1067_25370)">
<ellipse cx="2.03012" cy="1.16516" rx="2.03012" ry="1.16516" transform="matrix(0.989817 0.142348 -0.149646 0.98874 32.9883 24.7422)" fill="#F5B0B0"/>
</g>
<g filter="url(#filter1_f_1067_25370)">
<ellipse cx="2.03012" cy="1.16516" rx="2.03012" ry="1.16516" transform="matrix(0.989817 0.142348 -0.149646 0.98874 21.8086 23.1016)" fill="#F5B0B0"/>
</g>
<path d="M33.8371 24.6819C34.4708 24.5939 34.9118 24.0187 34.8222 23.3971C34.7326 22.7754 34.1462 22.3427 33.5126 22.4306C32.8789 22.5186 32.4379 23.0938 32.5275 23.7155C32.6171 24.3371 33.2035 24.7698 33.8371 24.6819Z" fill="#7C6656"/>
<path d="M24.6548 22.2439C24.5706 22.867 25.0145 23.4388 25.6496 23.5214C26.2848 23.604 26.8676 23.1685 26.9518 22.5454C27.0361 21.9223 26.5921 21.3505 25.957 21.2679C25.3218 21.1852 24.739 21.6208 24.6548 22.2439Z" fill="#7C6656"/>
<path d="M31.1426 25.2949C31.1426 25.2949 31.5 25.8064 31.6571 26.3848" stroke="#7C6656" stroke-width="0.75" stroke-linecap="round" stroke-linejoin="round"/>
<path d="M29.541 27.1779C29.3975 28.3617 28.9513 29.2818 28.5461 29.2349C28.1386 29.188 27.9246 28.1897 28.068 27.006C28.2114 25.8222 28.6577 24.9021 29.0629 24.949C29.4681 24.9959 29.6844 25.9942 29.541 27.1779Z" stroke="#7C6656" stroke-width="0.75" stroke-linecap="round" stroke-linejoin="round"/>
<path d="M35.1445 24.2832L35.6955 24.3636" stroke="#7C6656" stroke-width="0.75" stroke-linecap="round" stroke-linejoin="round"/>
<path d="M34.79 34.8682C40.4723 32.8984 41.096 28.2171 41.096 28.2171C41.096 28.2171 43.3475 27.1339 42.0886 25.1149C41.0505 23.451 39.0084 24.1947 38.5349 24.9563C38.0614 25.7179 38.0022 26.924 38.7967 27.6386C38.7967 27.6386 37.7996 30.9329 34.041 32.0653" fill="white"/>
<path d="M34.79 34.8682C40.4723 32.8984 41.096 28.2171 41.096 28.2171C41.096 28.2171 43.3475 27.1339 42.0886 25.1149C41.0505 23.451 39.0084 24.1947 38.5349 24.9563C38.0614 25.7179 38.0022 26.924 38.7967 27.6386C38.7967 27.6386 37.7996 30.9329 34.041 32.0653" stroke="#7C6656" stroke-width="0.75" stroke-linecap="round" stroke-linejoin="round"/>
<path d="M33.8814 32.1542L30.9879 32.1051L27.9488 35.7389L27.0245 31.8326L24.7593 31.3301C24.7593 31.3301 22.9836 34.4234 22.8516 38.477L26.7991 39.759L27.885 38.1777L28.7729 39.8193C28.7729 39.8193 32.9139 39.7724 34.8262 38.8165C34.8262 38.8165 34.6873 34.6534 33.8837 32.1542H33.8814Z" fill="#7C9AC0" stroke="#7C6656" stroke-width="0.75" stroke-linecap="round" stroke-linejoin="round"/>
<path d="M28.8399 45.6091C28.8353 44.4477 29.5365 44.0189 29.862 43.2149C30.2399 42.2813 29.6845 40.6934 29.6845 40.6934" stroke="#7C6656" stroke-width="0.75" stroke-linecap="round" stroke-linejoin="round"/>
<path d="M33.6752 39.4375C33.6752 39.4375 33.7686 43.5403 31.854 45.3159C31.854 45.3159 32.4345 46.1534 31.8995 46.9239C31.3668 47.6945 28.8444 47.2053 28.8398 45.6107" stroke="#7C6656" stroke-width="0.75" stroke-linecap="round" stroke-linejoin="round"/>
<path d="M23.5147 38.6699C23.1163 38.7347 21.9758 39.5343 21.4203 40.1976C20.8125 40.9257 20.389 42.7772 20.389 42.7772C20.389 42.7772 18.9708 43.0251 19.3783 44.1105C19.6719 44.8945 22.3013 46.0625 22.875 43.9542C23.4442 41.8704 26.6678 40.5549 26.6678 40.5549" stroke="#7C6656" stroke-width="0.75" stroke-linecap="round" stroke-linejoin="round"/>
<path d="M26.0684 40.3418C26.0684 40.3418 27.4866 40.9917 29.5037 40.9404" stroke="#7C6656" stroke-width="0.75" stroke-linecap="round" stroke-linejoin="round"/>
<path d="M20.516 38.5332C20.516 38.5332 19.3527 38.7677 19.1797 40.3423" stroke="#7C6656" stroke-width="0.75" stroke-linecap="round" stroke-linejoin="round"/>
<path d="M18.9698 38.5332C18.9698 38.5332 17.6312 39.5382 18.148 41.1061" stroke="#7C6656" stroke-width="0.75" stroke-linecap="round" stroke-linejoin="round"/>
<path d="M13.1088 30.4648C13.1088 30.4648 12.8925 32.1131 14.8321 32.8323" stroke="#7C6656" stroke-width="0.75" stroke-linecap="round" stroke-linejoin="round"/>
<path d="M12.8945 32.8281C12.8945 32.8281 13.6708 33.9761 16.0384 33.8868" stroke="#7C6656" stroke-width="0.75" stroke-linecap="round" stroke-linejoin="round"/>
<path d="M46.1021 25.6465C46.1021 25.6465 45.9564 28.7733 42.7852 30.1267" stroke="#7C6656" stroke-width="0.75" stroke-linecap="round" stroke-linejoin="round"/>
<path d="M44.1622 26.7012C44.1622 26.7012 43.9209 28.2221 42.4707 29.1512" stroke="#7C6656" stroke-width="0.75" stroke-linecap="round" stroke-linejoin="round"/>
<path d="M35.3601 42.4219C35.3601 42.4219 35.7198 43.351 34.75 44.3225" stroke="#7C6656" stroke-width="0.75" stroke-linecap="round" stroke-linejoin="round"/>
<path d="M20.3887 42.7773C20.3887 42.7773 21.1468 43.903 22.4512 44.3206" stroke="#7C6656" stroke-width="0.75" stroke-linecap="round" stroke-linejoin="round"/>
<path d="M32.1195 32.0605L32.4064 33.3604L28.3086 36.2281" stroke="#7C6656" stroke-width="0.75" stroke-linecap="round" stroke-linejoin="round"/>
<path d="M26.0686 31.6191L25.3242 32.8297L27.5507 36.1708" stroke="#7C6656" stroke-width="0.75" stroke-linecap="round" stroke-linejoin="round"/>
<path d="M20.7744 31.207C20.7744 31.207 20.5149 32.565 19.3789 33.503L20.7744 31.207Z" fill="#BBE18E"/>
<path d="M20.7744 31.207C20.7744 31.207 20.5149 32.565 19.3789 33.503" stroke="#7C6656" stroke-width="0.75" stroke-linecap="round" stroke-linejoin="round"/>
<path d="M37.9648 29.2363C37.9648 29.2363 38.8755 30.2056 40.2687 30.4602L37.9648 29.2363Z" fill="#BBE18E"/>
<path d="M37.9648 29.2363C37.9648 29.2363 38.8755 30.2056 40.2687 30.4602" stroke="#7C6656" stroke-width="0.75" stroke-linecap="round" stroke-linejoin="round"/>
<path d="M27.9491 37.5686C28.1993 37.5686 28.4022 37.3696 28.4022 37.1241C28.4022 36.8787 28.1993 36.6797 27.9491 36.6797C27.6989 36.6797 27.4961 36.8787 27.4961 37.1241C27.4961 37.3696 27.6989 37.5686 27.9491 37.5686Z" fill="#7C6656"/>
<path d="M46.3269 22.9777C49.0891 21.3783 50.0067 17.885 48.3764 15.1752C46.7461 12.4654 43.1853 11.5652 40.4232 13.1646C37.661 14.764 36.7435 18.2573 38.3738 20.9671C40.004 23.6769 43.5648 24.5771 46.3269 22.9777Z" fill="#CCDC7C"/>
<path d="M45.8181 22.587C48.3604 21.2637 49.3278 18.169 47.9789 15.6749C46.63 13.1808 43.4755 12.2317 40.9333 13.555C38.391 14.8784 37.4236 17.973 38.7725 20.4672C40.1214 22.9613 43.2758 23.9104 45.8181 22.587Z" fill="#95C11F" stroke="#7C6656" stroke-width="0.75" stroke-linecap="round" stroke-linejoin="round"/>
<path opacity="0.5" d="M39.832 15.8272C40.4239 14.9293 41.3095 14.3308 42.2861 14.0762" stroke="white" stroke-width="0.75" stroke-linecap="round" stroke-linejoin="round"/>
<path d="M45.7287 14.5048C47.8276 15.836 48.95 18.0538 48.8293 20.1777C49.8993 17.6674 49.0228 14.6835 46.6165 13.1559C44.2102 11.6282 41.0754 12.0682 39.1836 14.0582C41.1073 13.0799 43.6297 13.1737 45.7287 14.5048Z" fill="#D2D2D2" stroke="#7C6656" stroke-width="0.75" stroke-linecap="round" stroke-linejoin="round"/>
<path d="M43.6936 16.7074L42.9037 16.2048C42.6942 16.0731 42.635 15.7961 42.7694 15.5929C42.9037 15.3874 43.186 15.3293 43.3931 15.4611L45.7972 16.9865C46.0066 17.1183 46.0658 17.3953 45.9315 17.5985C45.7972 17.804 45.5149 17.862 45.3077 17.7303L44.5177 17.2277L42.8354 19.7805C42.6874 20.0061 42.3869 20.0687 42.157 19.9235C41.927 19.7783 41.8633 19.4835 42.0113 19.2579L43.6936 16.7051V16.7074Z" fill="white"/>
<path d="M27.2742 11.9031C29.4435 9.58539 29.287 5.98123 26.9245 3.85298C24.5621 1.72472 20.8883 1.8783 18.719 4.19601C16.5496 6.51371 16.7062 10.1179 19.0686 12.2461C21.4311 14.3744 25.1048 14.2208 27.2742 11.9031Z" fill="#FBD5C4"/>
<path d="M28.1826 7.54996C28.4649 10.3596 26.3705 12.861 23.5066 13.138C20.6427 13.4149 18.0929 11.3602 17.8107 8.55053C17.5284 5.74089 19.6228 3.23946 22.4867 2.96251C25.3506 2.68557 27.9003 4.74031 28.1826 7.54996Z" fill="#FAB94B" stroke="#7C6656" stroke-width="0.75" stroke-linecap="round" stroke-linejoin="round"/>
<path opacity="0.5" d="M18.798 8.45784C18.691 7.39473 19.0052 6.38522 19.6062 5.58789" stroke="white" stroke-width="0.75" stroke-linecap="round" stroke-linejoin="round"/>
<path d="M22.5725 3.82014C25.0585 3.58117 27.3441 4.63088 28.5985 6.36401C27.845 3.74644 25.2656 1.9463 22.4131 2.22101C19.5606 2.49573 17.3888 4.75371 17.168 7.46732C18.0535 5.52648 20.0865 4.05912 22.5748 3.82014H22.5725Z" fill="#D2D2D2" stroke="#7C6656" stroke-width="0.75" stroke-linecap="round" stroke-linejoin="round"/>
<path d="M20.9752 6.5135C20.9479 6.24549 21.1437 6.01321 21.4146 5.98865L22.9535 5.84124C23.5181 5.78764 23.9689 5.89931 24.2899 6.15839C24.5608 6.37726 24.7292 6.70557 24.7702 7.11652V7.12992C24.8408 7.81335 24.5334 8.26897 24.0167 8.53921L24.7748 9.28071C24.8818 9.39015 24.9546 9.48172 24.9705 9.63136C24.9979 9.89937 24.7861 10.0937 24.5517 10.1182C24.3308 10.1406 24.1737 10.049 24.0463 9.91723L22.9786 8.82732L22.2 8.90326L22.2956 9.8547C22.3229 10.1227 22.1271 10.355 21.8562 10.3796C21.583 10.4064 21.3463 10.2165 21.3212 9.9485L20.9775 6.51797L20.9752 6.5135ZM23.1015 7.95852C23.5773 7.91162 23.8232 7.63691 23.7867 7.27063V7.25723C23.7435 6.84628 23.4316 6.66314 22.9558 6.71004L21.986 6.80384L22.1112 8.05233L23.0992 7.95629L23.1015 7.95852Z" fill="white"/>
<path d="M12.2506 27.6444C15.3679 26.904 17.2831 23.8245 16.5284 20.7663C15.7737 17.708 12.6348 15.829 9.51745 16.5695C6.40013 17.3099 4.48488 20.3894 5.23961 23.4476C5.99435 26.5059 9.13326 28.3849 12.2506 27.6444Z" fill="#FDC5E4"/>
<path d="M13.8848 17.9272C16.2365 19.5531 16.801 22.7424 15.1437 25.0495C13.4864 27.3567 10.2355 27.9106 7.8838 26.2846C5.53213 24.6587 4.96754 21.4694 6.62487 19.1622C8.2822 16.8551 11.5331 16.3012 13.8848 17.9272Z" fill="#F478C4" stroke="#7C6656" stroke-width="0.75" stroke-linecap="round" stroke-linejoin="round"/>
<path opacity="0.5" d="M8.4545 25.4922C7.56437 24.8758 6.9884 23.9846 6.76758 23.0176" stroke="white" stroke-width="0.75" stroke-linecap="round" stroke-linejoin="round"/>
<path d="M7.34194 19.657C8.78072 17.6537 11.0846 16.6419 13.2427 16.8429C10.7294 15.6927 7.65383 16.4342 6.00333 18.7324C4.35283 21.0306 4.6761 24.1216 6.6271 26.0558C5.70738 24.1306 5.90316 21.6604 7.34194 19.657Z" fill="#D2D2D2" stroke="#7C6656" stroke-width="0.75" stroke-linecap="round" stroke-linejoin="round"/>
<path d="M11.4743 24.3889C11.3491 24.4336 11.192 24.4157 11.0668 24.3286C10.8597 24.1857 10.8141 23.911 10.9621 23.7055C11.0349 23.6027 11.1237 23.5581 11.1966 23.5313C11.5927 23.4017 11.9319 23.1918 12.18 22.8434C12.41 22.5218 12.4191 22.2381 12.2074 22.0907L12.196 22.084C11.9934 21.9433 11.8021 21.9947 11.2171 22.4838C10.5136 23.0734 9.97635 23.3973 9.25241 22.8992L9.24103 22.8925C8.58083 22.4369 8.51708 21.6128 9.04069 20.8824C9.35258 20.4492 9.73731 20.1499 10.1767 19.9712C10.2905 19.9198 10.4635 19.9087 10.6183 20.0181C10.8255 20.161 10.871 20.4358 10.7231 20.6412C10.6684 20.7172 10.6024 20.7641 10.5227 20.7998C10.179 20.9517 9.91488 21.1371 9.73959 21.3805C9.52332 21.682 9.55064 21.9366 9.72821 22.0595L9.73959 22.0662C9.97863 22.2314 10.1676 22.1332 10.7709 21.6262C11.4834 21.0343 12.0435 20.8087 12.6763 21.2487L12.6877 21.2554C13.4117 21.7557 13.4276 22.5776 12.8744 23.3481C12.5375 23.8172 12.0503 24.1924 11.4743 24.3889Z" fill="white"/>
<path d="M2.74134 21.5059C2.74134 21.5059 1.59624 23.9157 3.46756 25.6556" stroke="#F478C4" stroke-width="0.75" stroke-linecap="round" stroke-linejoin="round"/>
<path d="M29.1035 2.92773C29.1035 2.92773 31.0204 4.58717 30.178 6.70445" stroke="#FAB94B" stroke-width="0.75" stroke-linecap="round" stroke-linejoin="round"/>
<path d="M50.4183 20.6855C50.4183 20.6855 50.3887 23.2316 47.9004 23.321" stroke="#95C11F" stroke-width="0.75" stroke-linecap="round" stroke-linejoin="round"/>
<path d="M0.769189 23.3203C0.769189 23.3203 0.231923 26.4828 4.13392 27.2601" stroke="#F478C4" stroke-width="0.75" stroke-linecap="round" stroke-linejoin="round"/>
<path d="M16.3223 10.377C16.3223 10.377 16.427 12.0721 18.3006 12.5523" stroke="#FAB94B" stroke-width="0.75" stroke-linecap="round" stroke-linejoin="round"/>
<path d="M51.1296 23.1152C51.1296 23.1152 49.8297 25.094 46.9727 23.8188" stroke="#95C11F" stroke-width="0.75" stroke-linecap="round" stroke-linejoin="round"/>
<defs>
<filter id="filter0_f_1067_25370" x="32.0566" y="24.2461" width="5.5332" height="3.875" filterUnits="userSpaceOnUse" color-interpolation-filters="sRGB">
<feFlood flood-opacity="0" result="BackgroundImageFix"/>
<feBlend mode="normal" in="SourceGraphic" in2="BackgroundImageFix" result="shape"/>
<feGaussianBlur stdDeviation="0.375" result="effect1_foregroundBlur_1067_25370"/>
</filter>
<filter id="filter1_f_1067_25370" x="20.877" y="22.6055" width="5.5332" height="3.875" filterUnits="userSpaceOnUse" color-interpolation-filters="sRGB">
<feFlood flood-opacity="0" result="BackgroundImageFix"/>
<feBlend mode="normal" in="SourceGraphic" in2="BackgroundImageFix" result="shape"/>
<feGaussianBlur stdDeviation="0.375" result="effect1_foregroundBlur_1067_25370"/>
</filter>
</defs>
</svg>
