<svg width="33" height="41" viewBox="0 0 33 41" fill="none" xmlns="http://www.w3.org/2000/svg">
<path d="M3.67324 12.2369L4.03555 13.4446L3.67324 15.2562V16.5847L2.5863 16.4639L1.62013 16.947L1.25781 17.6716V18.8793L1.86167 20.4494L2.70707 21.8986L3.31092 22.9856L3.43169 24.7971L3.55246 26.6087L4.15632 27.9372L5.00172 28.6618L6.08866 29.1449H7.77945L9.59102 28.541V36.0288L9.10794 38.2027L8.74562 38.4443L8.14177 39.0481V39.7728L9.10794 40.3766H10.678L11.8857 39.8935L12.6103 38.8066L13.0934 36.995L13.818 33.9757H16.1127L16.5957 38.082L17.0788 39.4104L17.6827 39.8935L18.8904 40.2558H19.9773L20.8227 39.652L20.9435 39.0481L20.4604 38.6858L19.9773 37.3573V34.9419L20.4604 31.6811L21.3058 31.4395L21.7889 30.8357V30.1111L21.4266 29.628L22.5135 27.9372L22.6343 26.8502L22.272 26.0048L21.0643 24.7971L19.615 23.9517L22.1512 23.4686L23.9628 22.5025L24.929 21.5363L25.8951 20.0871L26.6198 17.9132V15.6185L26.1367 13.807L27.5859 11.8746L27.8275 10.7877L27.9482 9.21765L27.3444 7.04377L26.2574 5.35298L24.4459 3.54141L19.3735 1.12599L17.4411 0.763672H14.6634L13.0934 1.00521L11.6441 1.4883L10.5572 1.60907L8.26254 2.21293L6.3302 3.29987L4.6394 5.2322L3.67324 7.52686L3.43169 9.21765L3.67324 12.2369Z" fill="white"/>
<path d="M23.3594 33.9747L23.601 34.5786L24.2048 35.6655L23.7217 35.5447L22.9971 34.9409L22.8763 34.4578L22.6348 33.9747L22.2725 33.8539L21.9102 34.0955V34.8201L22.2725 35.7863L23.2386 36.7524L24.3256 37.2355L24.5671 37.7186L24.084 38.564L24.2048 39.0471L24.5671 39.4094L25.2917 39.651V40.4964L25.6541 40.6171L26.1371 40.3756L26.3787 39.7717L28.0695 39.651L28.7941 39.2886L28.9149 38.9263H29.5187L30.1226 38.6848L30.3641 38.0809L30.7264 37.1148L31.0888 36.994L31.5718 36.8732L31.6926 36.6317L31.5718 36.3901L31.0888 36.2694L30.6057 36.3901L30.1226 36.8732L29.7603 37.7186L29.398 38.2017H28.9149L28.5526 38.3225L28.311 38.0809L27.8279 36.994L28.6733 36.8732L29.5187 36.2694L30.0018 35.5447L30.1226 34.337L29.7603 33.4916L30.6057 31.0762L30.3641 30.8347L28.9149 31.3177L27.9487 32.0424L28.0695 29.7477L27.8279 29.627L26.8618 30.11L26.0164 30.7139L25.2917 31.3177L24.5671 31.5593L23.8425 31.9216L23.3594 32.6462V33.9747Z" fill="white"/>
<path d="M20.5745 30.0426C20.5745 30.0426 19.3958 29.3784 19.1325 28.4629C18.9513 27.876 18.746 27.3059 18.746 27.3059C18.746 27.3059 14.6905 26.4847 12.9732 27.12C12.7051 28.4509 12.0577 30.2141 9.63022 29.6972C9.60123 31.33 9.63022 35.3566 9.63022 35.3566L8.98047 38.3782C8.98047 38.3782 10.4056 39.6367 12.321 39.255C12.7993 37.9097 13.7413 33.9194 13.7413 33.9194L16.0987 33.9749C16.0987 33.9749 16.7581 39.0594 17.0287 39.598C17.8596 39.5087 19.6615 39.5256 20.2363 38.2599C20.06 37.4362 19.8064 36.644 20.1421 34.2696C20.4779 31.8952 20.5793 30.0426 20.5793 30.0426H20.5745Z" fill="#8FBDE2"/>
<path d="M26.3063 11.5098C26.4513 12.302 26.1783 13.3213 26.13 13.7199C26.3063 14.3841 26.9827 16.3696 26.374 18.9058C25.7146 21.657 23.6252 23.5289 19.0407 24.0893C19.0407 24.0893 16.362 24.2753 15.4297 24.1062" stroke="#7C6656" stroke-width="0.75" stroke-linecap="round" stroke-linejoin="round"/>
<path d="M13.5889 23.831C10.5817 23.5436 7.37883 22.3673 5.44649 20.3335C3.84024 18.6451 3.30643 16.7514 4.1156 12.6621" stroke="#7C6656" stroke-width="0.75" stroke-linecap="round" stroke-linejoin="round"/>
<path d="M3.80548 12.6624C1.67024 1.76641 11.5735 1.44274 11.5735 1.44274C18.3198 -1.39055 25.2061 4.21081 25.2061 4.21081C25.2061 4.21081 29.9862 8.19868 27.0032 12.6624" stroke="#7C6656" stroke-width="0.75" stroke-linecap="round" stroke-linejoin="round"/>
<path d="M11.9584 4.65234C11.9584 4.65234 11.1903 8.00495 16.5187 10.3262" stroke="#7C6656" stroke-width="0.75" stroke-linecap="round" stroke-linejoin="round"/>
<path d="M10.5634 6.54492C10.5634 6.54492 7.25189 8.18258 6.29297 11.3782" stroke="#7C6656" stroke-width="0.75" stroke-linecap="round" stroke-linejoin="round"/>
<path d="M22.3573 10.9235C22.3573 10.9235 18.6134 9.48154 17.582 5.9043" stroke="#7C6656" stroke-width="0.75" stroke-linecap="round" stroke-linejoin="round"/>
<path d="M15.5402 3.43406C19.2889 -0.860566 23.4894 2.3447 23.4894 2.3447C20.4483 8.83977 16.1948 5.54755 16.1948 5.54755C16.1948 5.54755 15.661 5.41712 15.4194 4.4751C15.2914 3.97994 15.5402 3.43647 15.5402 3.43647V3.43406Z" fill="#1AAF92"/>
<path d="M16.1917 5.54651C16.1917 5.54651 20.4452 8.83873 23.4863 2.34366C23.4863 2.34366 19.2858 -0.859193 15.5371 3.43301" stroke="#7C6656" stroke-width="0.75" stroke-linecap="round" stroke-linejoin="round"/>
<path d="M19.702 3.59375C19.7165 3.64447 16.6441 5.44155 14.3809 3.96089" stroke="#7C6656" stroke-width="0.75" stroke-linecap="round" stroke-linejoin="round"/>
<g filter="url(#filter0_f_1067_23871)">
<ellipse cx="2.15481" cy="1.25958" rx="2.15481" ry="1.25958" transform="matrix(0.991598 0.129361 -0.131199 0.991356 20.1953 16.2793)" fill="#F5B0B0"/>
</g>
<g filter="url(#filter1_f_1067_23871)">
<ellipse cx="2.15481" cy="1.25958" rx="2.15481" ry="1.25958" transform="matrix(0.991598 0.129361 -0.131199 0.991356 8.83398 15.1348)" fill="#F5B0B0"/>
</g>
<path d="M13.5936 14.1631C13.5236 14.8394 12.9197 15.3297 12.2458 15.2597C11.5695 15.1896 11.0792 14.5858 11.1492 13.9119C11.2193 13.2355 11.8231 12.7452 12.497 12.8153C13.1734 12.8853 13.6637 13.4892 13.5936 14.1631Z" fill="#7C6656"/>
<path d="M21.9745 15.0244C21.9045 15.7007 21.3006 16.191 20.6267 16.121C19.9504 16.0509 19.4601 15.4471 19.5301 14.7732C19.6001 14.0969 20.204 13.6065 20.8779 13.6766C21.5542 13.7466 22.0446 14.3505 21.9745 15.0244Z" fill="#7C6656"/>
<path d="M19.2691 17.4174C19.2691 17.4174 18.0348 18.1493 16.2764 17.6952C14.1194 17.1372 13.5977 16.0938 13.5977 16.0938" stroke="#7C6656" stroke-width="0.75" stroke-linecap="round" stroke-linejoin="round"/>
<path d="M30.2068 36.7759L30.6536 37.1068C30.6536 37.1068 30.7599 37.5174 30.4073 38.0995C30.0546 38.6816 29.9749 38.8724 29.0426 38.9642C28.9435 38.8386 28.5957 38.3362 28.5957 38.3362C28.5957 38.3362 29.2527 38.4715 29.6319 38.2565C30.0498 38.0222 30.0764 37.5126 30.2068 36.7734V36.7759Z" fill="#E1B995"/>
<path d="M26.4355 36.7773C26.4355 36.7773 27.6626 38.1034 27.0032 39.6807C27.5032 39.8908 29.4234 39.6734 28.8703 38.6662C28.2954 38.0479 27.7809 36.9247 27.7809 36.9247L26.4355 36.7773Z" fill="#E1B995"/>
<path d="M29.9253 35.5519C29.9253 35.5519 28.8553 36.0809 28.249 35.5495C27.6403 35.0181 27.6862 33.3925 26.8505 32.8829C26.0147 32.3732 25.4085 33.4868 24.5389 33.209C23.6694 32.9312 23.4616 32.5109 23.9495 32.0786C24.4375 31.6462 25.2974 31.337 25.2974 31.337C25.2974 31.337 27.7442 29.5713 28.005 29.7066C28.0654 30.4457 27.877 32.1365 27.877 32.1365C27.877 32.1365 29.9905 30.5085 30.6499 30.9167C30.4639 31.5327 29.7949 33.3539 29.7949 33.3539C29.7949 33.3539 30.4664 33.7887 29.9229 35.5519H29.9253Z" fill="#E1B995"/>
<path d="M9.70026 26.168C9.70026 26.168 9.56983 32.2814 9.56017 34.5471C9.55051 36.8127 8.98047 38.3779 8.98047 38.3779" stroke="#7C6656" stroke-width="0.75" stroke-linecap="round" stroke-linejoin="round"/>
<path d="M9.22452 38.3755C9.22452 38.3755 8.30183 38.5566 8.2028 39.1557C8.10377 39.7547 8.30183 40.5276 9.89842 40.5518C11.495 40.5759 12.3839 39.6798 12.751 38.1074C13.1182 36.5349 13.7414 33.9166 13.7414 33.9166C13.7414 33.9166 16.4756 34.1413 17.0988 33.791" stroke="#7C6656" stroke-width="0.75" stroke-linecap="round" stroke-linejoin="round"/>
<path d="M16.0957 33.9727C16.0957 33.9727 16.6488 38.8566 17.0981 39.4557C17.5474 40.0547 18.8686 40.2793 19.7913 40.1779C20.714 40.0788 21.0135 39.3808 20.813 38.9557C20.6125 38.5306 20.1391 38.3736 20.1391 38.3736" stroke="#7C6656" stroke-width="0.75" stroke-linecap="round" stroke-linejoin="round"/>
<path d="M19.8906 25.4375C19.8906 25.4375 20.8133 28.2321 20.5138 31.4736C20.2143 34.7176 19.5766 35.7151 20.2312 38.2586" stroke="#7C6656" stroke-width="0.75" stroke-linecap="round" stroke-linejoin="round"/>
<path d="M27.881 31.8177C27.881 31.8177 28.236 29.912 28.009 29.7042C27.7843 29.4965 25.6225 30.9144 25.3013 31.3347C25.3013 31.3347 23.5598 31.7211 23.3979 32.7694C23.2361 33.8177 23.4946 35.1728 24.9124 36.1075C26.3303 37.0423 28.5573 37.366 29.5887 36.1075C30.6201 34.8491 29.7988 33.3539 29.7988 33.3539C29.7988 33.3539 30.6539 31.11 30.6539 30.9168C30.6539 30.7236 28.3641 31.3878 27.881 32.1366" stroke="#7C6656" stroke-width="0.75" stroke-linecap="round" stroke-linejoin="round"/>
<path d="M25.753 37.623C25.753 37.623 25.1395 40.3645 25.4293 40.4926C25.7192 40.6206 26.2989 40.8694 26.7844 38.6013" stroke="#7C6656" stroke-width="0.75" stroke-linecap="round" stroke-linejoin="round"/>
<path d="M24.3985 35.778C24.3985 35.778 22.9323 35.5268 22.8671 34.4954C22.8671 34.4954 22.8019 33.7539 22.2536 33.8505C21.7053 33.9471 21.6739 35.0751 22.512 36.1403C23.3502 37.2055 24.3985 37.2562 24.3985 37.2562" stroke="#7C6656" stroke-width="0.75" stroke-linecap="round" stroke-linejoin="round"/>
<path d="M24.3984 36.5586C24.3984 36.5586 24.3984 37.1069 24.6883 37.9136" stroke="#7C6656" stroke-width="0.75" stroke-linecap="round" stroke-linejoin="round"/>
<path d="M24.5426 37.9141C24.5426 37.9141 23.9146 38.3005 24.2479 39.0976C24.6392 39.6145 25.2044 39.5904 25.2044 39.5904" stroke="#7C6656" stroke-width="0.75" stroke-linecap="round" stroke-linejoin="round"/>
<path d="M27.9112 37.1055C27.9112 37.1055 28.2349 38.1369 28.4909 38.2987C28.7494 38.4605 29.3291 39.2987 28.2011 39.5885C27.0731 39.8784 26.7832 39.8132 26.7832 39.8132" stroke="#7C6656" stroke-width="0.75" stroke-linecap="round" stroke-linejoin="round"/>
<path d="M29.1711 32.0742C29.1711 32.0742 28.6542 32.6853 28.6228 32.7674C28.5914 32.8496 28.2363 32.6225 28.2363 32.6225" stroke="#7C6656" stroke-width="0.75" stroke-linecap="round" stroke-linejoin="round"/>
<path d="M27.0598 31.043L26.7845 31.8159L26.2676 31.6227" stroke="#7C6656" stroke-width="0.75" stroke-linecap="round" stroke-linejoin="round"/>
<path d="M28.2365 34.2677C28.2365 34.2677 28.5264 33.7773 26.6641 33.7773" stroke="#7C6656" stroke-width="0.75" stroke-linecap="round" stroke-linejoin="round"/>
<path d="M25.043 32.3935C25.043 32.3935 25.8352 32.2437 26.0671 33.3524" stroke="#7C6656" stroke-width="0.75" stroke-linecap="round" stroke-linejoin="round"/>
<path d="M26.4355 34.0242H25.88L25.752 33.5918" stroke="#7C6656" stroke-width="0.75" stroke-linecap="round" stroke-linejoin="round"/>
<path d="M25.8077 33.7773C25.8077 33.7773 24.8029 34.9319 25.3512 35.4561C25.8995 35.9802 26.2666 34.1228 26.2666 34.1228" stroke="#7C6656" stroke-width="0.75" stroke-linecap="round" stroke-linejoin="round"/>
<path d="M28.7012 38.3172C28.8002 38.2181 28.95 38.1795 29.0901 38.2302C29.0997 38.235 29.2954 38.3003 29.462 38.2205C29.5731 38.1674 29.6601 38.049 29.7205 37.8679C29.9741 37.1119 30.3195 36.0732 31.4185 36.2834C31.619 36.3244 31.7446 36.5104 31.706 36.7085C31.6673 36.9041 31.4789 37.0346 31.2808 36.9959C30.9234 36.9283 30.747 37.078 30.4065 38.0974C30.2495 38.5708 29.9693 38.7833 29.764 38.88C29.491 39.008 29.2205 38.9959 29.0417 38.9645" stroke="#7C6656" stroke-width="0.75" stroke-linecap="round" stroke-linejoin="round"/>
<path d="M6.52023 20.4353C6.52023 20.4353 5.10238 15.7711 2.46232 16.6262C-0.177738 17.4812 2.36812 21.3821 2.76666 21.9401C3.16521 22.4981 3.44057 23.3169 3.46713 24.9884C3.49612 26.6598 3.86085 28.8844 6.67482 29.1598C9.35835 29.4231 11.7424 27.4134 11.467 24.1212C11.1675 20.5295 8.09992 19.8049 6.52023 20.4401V20.4353Z" fill="white" stroke="#7C6656" stroke-width="0.75" stroke-linecap="round" stroke-linejoin="round"/>
<path d="M6.52196 20.4355C6.52196 20.4355 5.40603 20.9983 4.88672 21.8196" stroke="#7C6656" stroke-width="0.75" stroke-linecap="round" stroke-linejoin="round"/>
<path d="M20.0117 24.2559C20.0117 24.2559 22.531 25.4032 22.5841 26.9056C22.6373 28.408 20.7508 30.3282 20.7508 30.3282" stroke="#7C6656" stroke-width="0.75" stroke-linecap="round" stroke-linejoin="round"/>
<path d="M21.5299 29.6836C21.5299 29.6836 22.4477 31.3188 20.6289 31.5193" stroke="#7C6656" stroke-width="0.75" stroke-linecap="round" stroke-linejoin="round"/>
<path d="M17.8878 24.2117C17.8878 24.2117 17.6535 25.3445 15.4458 25.3445C13.2381 25.3445 12.1777 23.7383 12.1777 23.7383" stroke="#7C6656" stroke-width="0.75" stroke-linecap="round" stroke-linejoin="round"/>
<path d="M8.97656 38.375C8.97656 38.375 9.49105 39.4378 12.177 39.2711" stroke="#7C6656" stroke-width="0.75" stroke-linecap="round" stroke-linejoin="round"/>
<path d="M17.0957 39.4547C19.1536 39.8025 20.1391 38.375 20.1391 38.375" stroke="#7C6656" stroke-width="0.75" stroke-linecap="round" stroke-linejoin="round"/>
<path d="M9.62695 29.6963C9.62695 29.6963 10.3274 30.2229 11.3274 29.6963C12.3274 29.1722 12.9699 27.119 12.9699 27.119C15.1148 26.6988 18.7428 27.305 18.7428 27.305C18.7428 27.305 19.0254 28.6553 19.564 29.3219C19.9988 29.8581 20.5712 29.9282 20.5712 29.9282" stroke="#7C6656" stroke-width="0.75" stroke-linecap="round" stroke-linejoin="round"/>
<path d="M18.9128 24.2168C18.9128 24.2168 19.0287 26.41 18.7461 27.3061" stroke="#7C6656" stroke-width="0.75" stroke-linecap="round" stroke-linejoin="round"/>
<path d="M12.9702 27.1178C12.9702 27.1178 12.5572 24.2651 11.7891 23.6758" stroke="#7C6656" stroke-width="0.75" stroke-linecap="round" stroke-linejoin="round"/>
<path d="M21.4648 25.3438C21.4648 25.3438 21.3102 26.194 20.4648 26.578" stroke="#7C6656" stroke-width="0.75" stroke-linecap="round" stroke-linejoin="round"/>
<defs>
<filter id="filter0_f_1067_23871" x="19.2734" y="15.7773" width="5.78711" height="4.05859" filterUnits="userSpaceOnUse" color-interpolation-filters="sRGB">
<feFlood flood-opacity="0" result="BackgroundImageFix"/>
<feBlend mode="normal" in="SourceGraphic" in2="BackgroundImageFix" result="shape"/>
<feGaussianBlur stdDeviation="0.375" result="effect1_foregroundBlur_1067_23871"/>
</filter>
<filter id="filter1_f_1067_23871" x="7.91211" y="14.6328" width="5.78711" height="4.05859" filterUnits="userSpaceOnUse" color-interpolation-filters="sRGB">
<feFlood flood-opacity="0" result="BackgroundImageFix"/>
<feBlend mode="normal" in="SourceGraphic" in2="BackgroundImageFix" result="shape"/>
<feGaussianBlur stdDeviation="0.375" result="effect1_foregroundBlur_1067_23871"/>
</filter>
</defs>
</svg>
