<svg width="65" height="44" viewBox="0 0 65 44" fill="none" xmlns="http://www.w3.org/2000/svg">
<ellipse cx="32.0977" cy="40.0781" rx="32" ry="3.75" fill="#EEEEEE"/>
<path d="M11.3599 22.9999C9.2415 22.6839 9.33513 21.1858 9.33513 21.1858C9.33513 21.1858 7.42274 21.7499 5.9153 20.3899C3.72203 18.4143 4.6513 16.839 4.6513 16.839C4.6513 16.839 2.30588 16.5066 1.87752 14.187C1.10508 10.0087 4.88538 9.05138 4.88538 9.05138C4.88538 9.05138 6.83287 5.76264 8.10624 4.83805C13.7708 -0.892082 20.8563 1.5891 20.8563 1.5891C20.8563 1.5891 27.6936 1.17947 31.8765 7.5299C34.5402 11.5724 33.6414 15.9027 33.6414 15.9027C33.6414 15.9027 35.4414 17.8338 34.6315 19.9592C33.728 22.3351 31.825 22.3234 31.825 22.3234C31.825 22.3234 31.9631 24.1 29.9196 25.1346C28.0049 26.1037 26.5255 25.2282 26.5255 25.2282C26.5255 25.2282 24.0701 27.6135 20.7462 25.3055" fill="white"/>
<path d="M14.2891 33.7246C14.2891 33.7246 14.3616 38.4857 14.7385 39.106C15.1153 39.7263 16.37 40.0657 17.2688 40.0563C18.1677 40.0469 18.5235 39.4009 18.3713 38.9749C18.2192 38.5465 17.7768 38.3523 17.7768 38.3523" fill="white"/>
<path d="M19.5183 26.4023C19.5183 26.4023 19.3779 28.6307 18.7857 31.7299C18.1911 34.829 17.4819 35.7325 17.8751 38.2465" fill="white"/>
<path d="M10.2116 33.6426C10.2116 33.6426 10.0103 38.4013 10.3497 39.0403C10.6891 39.6817 11.9227 40.0937 12.8215 40.1358C13.7204 40.1779 14.1113 39.5553 13.9825 39.1176C13.8538 38.6822 13.4254 38.4598 13.4254 38.4598" fill="white"/>
<path d="M15.8616 26.6055C15.8616 26.6055 15.5877 28.8502 14.8153 31.9096C14.0429 34.9689 13.2821 35.8303 13.5302 38.363" fill="white"/>
<path d="M14.2891 33.7246C14.2891 33.7246 14.3616 38.4857 14.7385 39.106C15.1153 39.7263 16.37 40.0657 17.2688 40.0563C18.1677 40.0469 18.5235 39.4009 18.3713 38.9749C18.2192 38.5465 17.7768 38.3523 17.7768 38.3523" stroke="#7C6656" stroke-width="0.75" stroke-linecap="round" stroke-linejoin="round"/>
<path d="M19.5183 26.4023C19.5183 26.4023 19.3779 28.6307 18.7857 31.7299C18.1911 34.829 17.4819 35.7325 17.8751 38.2465" stroke="#7C6656" stroke-width="0.75" stroke-linecap="round" stroke-linejoin="round"/>
<path d="M10.2116 33.6426C10.2116 33.6426 10.0103 38.4013 10.3497 39.0403C10.6891 39.6817 11.9227 40.0937 12.8215 40.1358C13.7204 40.1779 14.1113 39.5553 13.9825 39.1176C13.8538 38.6822 13.4254 38.4598 13.4254 38.4598" stroke="#7C6656" stroke-width="0.75" stroke-linecap="round" stroke-linejoin="round"/>
<path d="M15.8616 26.6055C15.8616 26.6055 15.5877 28.8502 14.8153 31.9096C14.0429 34.9689 13.2821 35.8303 13.5302 38.363" stroke="#7C6656" stroke-width="0.75" stroke-linecap="round" stroke-linejoin="round"/>
<path d="M12.8236 21.7133C12.8236 21.7133 9.33356 25.1097 8.92627 30.2242C8.79987 31.8089 8.69922 32.9488 8.69922 32.9488C8.69922 32.9488 14.6681 35.8092 20.3397 33.4544C20.3397 33.4544 20.3608 31.8206 19.9207 29.1287C19.4807 26.4369 19.8809 24.2062 19.8809 24.2062C19.8809 24.2062 19.4947 24.6205 17.6947 24.459C15.8947 24.2975 15.1924 22.5536 15.1924 22.5536L12.8259 21.7109L12.8236 21.7133Z" fill="#FFADBE"/>
<path d="M20.0616 24.1519C20.0616 24.1519 19.5045 26.6097 19.9445 29.2992C20.3846 31.9887 20.3378 33.454 20.3378 33.454C14.6662 35.8088 8.69727 32.9484 8.69727 32.9484C8.69727 32.9484 8.79792 31.8085 8.92432 30.2238C9.33161 25.107 12.8217 21.7129 12.8217 21.7129" stroke="#7C6656" stroke-width="0.75" stroke-linecap="round" stroke-linejoin="round"/>
<path d="M27.2296 16.5439C26.9814 17.417 26.0732 17.9249 25.1978 17.6768C24.3247 17.4287 23.8168 16.5205 24.0649 15.6451C24.313 14.772 25.2212 14.264 26.0966 14.5121C26.9697 14.7603 27.4777 15.6685 27.2296 16.5439Z" fill="#7C6656"/>
<path d="M22.647 19.0821C22.647 19.0821 21.3924 20.0325 19.7562 19.569C18.12 19.1056 17.6074 17.6543 17.6074 17.6543" stroke="#7C6656" stroke-width="0.75" stroke-linecap="round" stroke-linejoin="round"/>
<path d="M8.93359 18.2207C9.06702 18.4641 9.21682 18.6865 9.3877 18.8925C11.0028 20.833 14.3267 22.523 16.3303 22.963" stroke="#7C6656" stroke-width="0.75" stroke-linecap="round" stroke-linejoin="round"/>
<path d="M30.4801 14.3867C30.4614 14.6208 30.4825 14.8923 30.4895 14.9813C30.5738 15.6414 31.4117 17.844 30.4052 20.1613C29.3987 22.4787 26.6343 24.3793 22.1588 24.3302C22.1588 24.3302 19.8532 24.3302 18.6641 23.7567" stroke="#7C6656" stroke-width="0.75" stroke-linecap="round" stroke-linejoin="round"/>
<path d="M29.8235 10.8789C29.8235 10.8789 30.1465 13.4748 28.6602 14.9799" stroke="#7C6656" stroke-width="0.75" stroke-linecap="round" stroke-linejoin="round"/>
<path d="M23.0705 8.77344C23.0705 8.77344 22.9441 11.8726 21.0996 13.2232" stroke="#7C6656" stroke-width="0.75" stroke-linecap="round" stroke-linejoin="round"/>
<path d="M15.8059 8.15625C15.8059 8.15625 15.2442 10.9347 13.1328 12.3789" stroke="#7C6656" stroke-width="0.75" stroke-linecap="round" stroke-linejoin="round"/>
<path d="M10.9869 11.3809C10.9869 11.3809 10.3713 15.1892 8.68359 15.9032" stroke="#7C6656" stroke-width="0.75" stroke-linecap="round" stroke-linejoin="round"/>
<path d="M11.3599 22.9999C9.2415 22.6839 9.33513 21.1858 9.33513 21.1858C9.33513 21.1858 7.42274 21.7499 5.9153 20.3899C3.72203 18.4143 4.6513 16.839 4.6513 16.839C4.6513 16.839 2.30588 16.5066 1.87752 14.187C1.10508 10.0087 4.88538 9.05138 4.88538 9.05138C4.88538 9.05138 6.83287 5.76264 8.10624 4.83805C13.7708 -0.892082 20.8563 1.5891 20.8563 1.5891C20.8563 1.5891 27.6936 1.17947 31.8765 7.5299C34.5402 11.5724 33.6414 15.9027 33.6414 15.9027C33.6414 15.9027 35.4414 17.8338 34.6315 19.9592C33.728 22.3351 31.825 22.3234 31.825 22.3234C31.825 22.3234 31.9631 24.1 29.9196 25.1346C28.0049 26.1037 26.5255 25.2282 26.5255 25.2282C26.5255 25.2282 24.0701 27.6135 20.7462 25.3055" stroke="#7C6656" stroke-width="0.75" stroke-linecap="round" stroke-linejoin="round"/>
<path d="M16.4147 13.0137L18.0696 14.6335L16.3281 14.4345" stroke="#7C6656" stroke-width="0.75" stroke-linecap="round" stroke-linejoin="round"/>
<path d="M15.2266 22.666C15.2266 22.666 15.9147 25.3111 19.5008 24.2086" stroke="#7C6656" stroke-width="0.75" stroke-linecap="round" stroke-linejoin="round"/>
<path d="M31.5464 11.8188C28.5198 9.41016 24.1122 9.91108 21.7035 12.9377C19.2949 15.9642 19.7958 20.3718 22.8224 22.7805C25.849 25.1891 30.2566 24.6882 32.6652 21.6616C35.0739 18.635 34.5729 14.2274 31.5464 11.8188ZM31.4527 20.6972C29.5778 23.0543 26.1463 23.4452 23.7892 21.5703C21.432 19.6954 21.0411 16.2638 22.9161 13.9067C24.791 11.5496 28.2225 11.1587 30.5796 13.0336C32.9368 14.9086 33.3277 18.3401 31.4527 20.6972Z" fill="#7A7066"/>
<path d="M28.682 24.1456C32.462 23.3193 34.8565 19.5853 34.0302 15.8053C33.204 12.0253 29.4699 9.63085 25.6899 10.4571C21.91 11.2833 19.5155 15.0174 20.3417 18.7974C21.168 22.5773 24.9021 24.9718 28.682 24.1456Z" stroke="#7C6656" stroke-width="0.75" stroke-linecap="round" stroke-linejoin="round"/>
<path opacity="0.3" d="M31.2438 20.9482C33.2566 18.7072 33.0717 15.259 30.8308 13.2462C28.5899 11.2334 25.1416 11.4184 23.1288 13.6593C21.116 15.9002 21.301 19.3485 23.5419 21.3612C25.7828 23.374 29.2311 23.1891 31.2438 20.9482Z" fill="white"/>
<path d="M31.2438 20.9482C33.2566 18.7072 33.0717 15.259 30.8308 13.2462C28.5899 11.2334 25.1416 11.4184 23.1288 13.6593C21.116 15.9002 21.301 19.3485 23.5419 21.3612C25.7828 23.374 29.2311 23.1891 31.2438 20.9482Z" stroke="#7C6656" stroke-width="0.75" stroke-linecap="round" stroke-linejoin="round"/>
<path opacity="0.3" d="M28.9761 20.2031C28.5992 20.4349 28.1709 20.5987 27.7051 20.6713" stroke="#83C3EC" stroke-width="0.75" stroke-miterlimit="10"/>
<path opacity="0.3" d="M30.5843 17.043C30.6615 18.0542 30.287 19.0092 29.6152 19.6903" stroke="#83C3EC" stroke-width="0.75" stroke-miterlimit="10"/>
<path d="M23.3743 23.0626L22.4219 22.3047L19.9937 25.3562L20.9462 26.1141L23.3743 23.0626Z" fill="#7C6656"/>
<path d="M17.242 30.3741L16.6521 29.9036C16.4227 29.721 16.383 29.3839 16.5679 29.1545L20.6103 24.033C20.7929 23.8036 21.13 23.7638 21.3594 23.9487L21.9492 24.4192C22.1786 24.6018 22.2184 24.9389 22.0335 25.1683L17.991 30.2898C17.8085 30.5192 17.4714 30.559 17.242 30.3741Z" fill="#9F9F9F" stroke="#7C6656" stroke-width="0.75" stroke-linecap="round" stroke-linejoin="round"/>
<path d="M12.25 23.9414C12.463 28.4029 16.8659 28.0845 16.8659 28.0845C16.8659 28.0845 18.0504 29.7979 19.5718 28.2835C20.8241 27.0359 19.7474 25.4254 18.9796 25.1773C18.2119 24.9292 17.1351 25.1305 16.6693 25.9685C16.6693 25.9685 15.5504 26.3453 14.8248 23.9976" fill="white"/>
<path d="M12.2871 23.8683C12.2871 23.8683 12.3503 24.7157 12.4673 24.9217C12.9121 24.9146 15.0937 24.5752 15.0937 24.5752L14.7683 23.8496C14.7683 23.8496 14.6021 23.8847 13.9069 23.9245C13.2117 23.9643 12.2871 23.8683 12.2871 23.8683Z" fill="#FFADBE"/>
<path d="M12.0957 23.6371C12.3087 28.0986 16.8638 28.0822 16.8638 28.0822C16.8638 28.0822 18.1138 29.5592 19.5697 28.2811C20.8992 27.1155 19.7452 25.4231 18.9775 25.175C18.2097 24.9269 17.3132 25.1656 16.8474 26.0059C16.8474 26.0059 15.1387 26.02 14.6916 23.3398" stroke="#7C6656" stroke-width="0.75" stroke-linecap="round" stroke-linejoin="round"/>
<path d="M14.9422 24.5977L12.5547 24.9183" stroke="#7C6656" stroke-width="0.75" stroke-linecap="round" stroke-linejoin="round"/>
<path d="M22.6541 27.3288C22.1064 28.017 21.1911 28.2019 20.613 27.7408C20.0348 27.2797 20.0091 26.348 20.5568 25.6599C21.1045 24.9717 22.0198 24.7868 22.5979 25.2479C23.1761 25.709 23.2018 26.6406 22.6541 27.3288Z" fill="white" stroke="#7C6656" stroke-width="0.75" stroke-linecap="round" stroke-linejoin="round"/>
<path d="M41.5429 37.9601C41.4188 37.9601 41.3182 37.8595 41.3182 37.7354V35.5234H41.7676V37.7354C41.7676 37.8595 41.6669 37.9601 41.5429 37.9601Z" fill="#A08A60" stroke="#A08A60" stroke-width="0.75" stroke-linecap="round" stroke-linejoin="round"/>
<path d="M44.994 39.9719C44.87 39.9719 44.7693 39.8712 44.7693 39.7472V37.5352H45.2188V39.7472C45.2188 39.8712 45.1181 39.9719 44.994 39.9719Z" fill="#A08A60" stroke="#A08A60" stroke-width="0.75" stroke-linecap="round" stroke-linejoin="round"/>
<path d="M50.5974 26.8691L41.1455 28.4655C40.9348 28.4819 40.7733 28.6575 40.7733 28.8681V35.7569C40.7733 36.0285 40.9208 36.2813 41.1595 36.4123L44.1721 38.093C44.453 38.2498 44.783 38.2943 45.0967 38.2217L56.372 35.7429C56.7816 35.6563 56.8776 34.3876 56.5265 34.1605L53.4952 32.2201" fill="#CBD0E4"/>
<path d="M40.7737 28.4941L41.3167 28.7493C41.6795 28.9202 41.9089 29.2853 41.9089 29.6856V34.889C41.9089 35.0459 41.9979 35.1887 42.136 35.2589L44.2356 36.4035C44.5727 36.5744 44.6031 37.2415 44.6055 37.6207V38.3346L41.1599 36.4105C40.9211 36.2771 40.7737 36.0266 40.7737 35.7551V28.4941Z" fill="#B1B8D4"/>
<path d="M56.2379 34.0137L44.3657 36.5323L44.3797 38.0772C44.382 38.2645 44.5576 38.4026 44.7425 38.3628L56.5399 35.7294C56.8488 35.6616 56.9354 34.531 56.6803 34.3437L56.2402 34.016L56.2379 34.0137Z" fill="#919DC2"/>
<path d="M50.5974 26.8691L41.1455 28.4655C40.9348 28.4819 40.7733 28.6575 40.7733 28.8681V35.7569C40.7733 36.0285 40.9208 36.2813 41.1595 36.4123L44.1721 38.093C44.453 38.2498 44.783 38.2943 45.0967 38.2217L56.372 35.7429C56.7816 35.6563 56.8776 34.3876 56.5265 34.1605L53.4952 32.2201" stroke="#939FC3" stroke-width="0.75" stroke-linecap="round" stroke-linejoin="round"/>
<path d="M47.0706 35.4188C47.0706 35.4188 48.0256 37.3873 47.9835 39.3793C47.9835 39.3793 47.8477 41.06 49.7976 41.0295C51.7474 40.9968 51.9206 39.9317 51.3167 39.3793C51.3167 39.3793 50.9188 35.7207 50.865 35.1636C50.8111 34.6065 50.0106 33.916 50.0106 33.916" fill="white"/>
<path d="M50.6561 34.825C50.6561 34.825 51.9715 34.708 52.222 35.1246C52.4725 35.5413 53.486 39.1249 53.486 39.1249C53.486 39.1249 53.898 40.2391 55.7823 39.9231C57.6689 39.6071 57.0158 38.0552 56.3651 37.8305C56.3651 37.8305 55.9719 34.9771 55.3539 34.0947C54.736 33.2122 53.8582 32.6973 53.8582 32.6973" fill="white"/>
<path d="M44.0575 27.4575L44.1511 34.0443L54.125 32.696C54.125 32.696 52.5824 30.7649 53.3081 27.008C48.8841 26.5305 44.0598 27.4551 44.0598 27.4551L44.0575 27.4575Z" fill="white"/>
<path d="M38.3156 20.4579C38.3156 20.4579 37.6064 25.2915 43.7929 27.4567C46.541 28.1964 53.2261 27.5176 53.2261 27.5176C53.2261 27.5176 62.2193 25.7948 61.0114 18.6977C60.2694 17.2722 59.6772 15.5213 59.6772 15.5213L59.4127 13.9483C59.4127 13.9483 61.0536 12.9909 60.3771 9.07254C59.7006 5.1518 52.7112 2.92342 46.9483 3.70054C42.7958 4.52917 40.5908 6.34792 39.8464 9.20831C38.2173 9.52431 36.3072 10.1095 35.7806 13.7681C35.5137 16.5723 38.3203 20.4579 38.3203 20.4579H38.3156Z" fill="white"/>
<path d="M44.4867 34C44.4867 34 44.8589 35.8539 47.209 35.7204C46.9351 35.3319 47.209 34.213 47.209 34.213L44.4867 34.0023V34Z" fill="#B2ABA4"/>
<path d="M46.9751 35.0981C46.9751 35.0981 47.9371 36.7156 47.8646 37.9492C47.792 39.1827 48.0752 40.016 48.0752 40.016C48.0752 40.016 50.4722 40.318 51.3008 39.2155C51.1557 37.8813 50.8233 32.3899 49.4727 33.4339C48.1618 34.4778 46.9751 35.1005 46.9751 35.1005V35.0981Z" fill="#B2ABA4"/>
<path d="M51.5671 34.3984C51.5671 34.3984 52.8077 35.5524 53.4888 39.1267C54.3455 39.1244 55.9279 38.5556 56.3516 37.7129C56.1737 36.1095 55.7828 33.6236 53.8774 32.5703C52.2834 32.6101 51.5671 34.3984 51.5671 34.3984Z" fill="#B2ABA4"/>
<path d="M47.0706 35.4188C47.0706 35.4188 48.0256 37.3873 47.9835 39.3793C47.9835 39.3793 47.8477 41.06 49.7976 41.0295C51.7474 40.9968 51.9206 39.9317 51.3167 39.3793C51.3167 39.3793 50.9188 35.7207 50.865 35.1636C50.8111 34.6065 50.0106 33.916 50.0106 33.916" stroke="#7C6656" stroke-width="0.75" stroke-linecap="round" stroke-linejoin="round"/>
<path d="M50.6561 34.825C50.6561 34.825 51.9715 34.708 52.222 35.1246C52.4725 35.5413 53.486 39.1249 53.486 39.1249C53.486 39.1249 53.898 40.2391 55.7823 39.9231C57.6689 39.6071 57.0158 38.0552 56.3651 37.8305C56.3651 37.8305 55.9719 34.9771 55.3539 34.0947C54.736 33.2122 53.8582 32.6973 53.8582 32.6973" stroke="#7C6656" stroke-width="0.75" stroke-linecap="round" stroke-linejoin="round"/>
<path d="M48.0495 39.9292C50.732 40.3411 51.3008 39.2129 51.3008 39.2129" stroke="#7C6656" stroke-width="0.75" stroke-linecap="round" stroke-linejoin="round"/>
<path d="M44.3786 34.0898C44.2382 34.6071 45.2564 35.5856 47.2109 35.7167" stroke="#7C6656" stroke-width="0.75" stroke-linecap="round" stroke-linejoin="round"/>
<path d="M53.491 27.5176C53.3061 31.3962 54.123 32.6953 54.123 32.6953C54.123 32.6953 52.1966 32.9364 50.2023 33.2032C48.208 33.4701 44.6618 34.0436 44.6618 34.0436C43.8917 31.0263 44.9239 27.8804 44.9239 27.8804" stroke="#7C6656" stroke-width="0.75" stroke-linecap="round" stroke-linejoin="round"/>
<path d="M11.3599 22.9999C9.2415 22.6839 9.33513 21.1858 9.33513 21.1858C9.33513 21.1858 7.42274 21.7499 5.9153 20.3899C3.72203 18.4143 4.6513 16.839 4.6513 16.839C4.6513 16.839 2.30588 16.5066 1.87752 14.187C1.10508 10.0087 4.88538 9.05138 4.88538 9.05138C4.88538 9.05138 6.83287 5.76264 8.10624 4.83805C13.7708 -0.892082 20.8563 1.5891 20.8563 1.5891C20.8563 1.5891 27.6936 1.17947 31.8765 7.5299C34.5402 11.5724 33.6414 15.9027 33.6414 15.9027C33.6414 15.9027 35.4414 17.8338 34.6315 19.9592C33.728 22.3351 31.825 22.3234 31.825 22.3234C31.825 22.3234 31.9631 24.1 29.9196 25.1346C28.0049 26.1037 26.5255 25.2282 26.5255 25.2282C26.5255 25.2282 24.0701 27.6135 20.7462 25.3055" fill="white"/>
<path d="M10.1992 38.4477V32.947L13.3007 32.7129L17.9822 34.0003V38.4477L18.4503 39.4425L17.9822 40.0277H16.5777L14.9977 39.4425L14.2955 37.2188L14.0029 34.9951L13.5348 38.4477L14.0029 38.9159V39.6766L12.774 40.0277L10.9014 39.6766L10.1992 38.4477Z" fill="white"/>
<path d="M14.2871 33.7246C14.2871 33.7246 14.3597 38.4857 14.7365 39.106C15.1134 39.7263 16.368 40.0657 17.2669 40.0563C18.1657 40.0469 18.5215 39.4009 18.3694 38.9749C18.2172 38.5465 17.7748 38.3523 17.7748 38.3523" fill="white"/>
<path d="M19.5164 26.4023C19.5164 26.4023 19.3759 28.6307 18.7837 31.7299C18.1892 34.829 17.4799 35.7325 17.8732 38.2465" fill="white"/>
<path d="M10.2116 33.6406C10.2116 33.6406 10.0103 38.3993 10.3497 39.0384C10.6891 39.6797 11.9227 40.0917 12.8215 40.1338C13.7204 40.176 14.1113 39.5533 13.9825 39.1156C13.8538 38.6802 13.4254 38.4579 13.4254 38.4579" fill="white"/>
<path d="M15.8616 26.6035C15.8616 26.6035 15.5877 28.8483 14.8153 31.9076C14.0429 34.967 13.2821 35.8284 13.5302 38.3611" fill="white"/>
<path d="M14.2871 33.7246C14.2871 33.7246 14.3597 38.4857 14.7365 39.106C15.1134 39.7263 16.368 40.0657 17.2669 40.0563C18.1657 40.0469 18.5215 39.4009 18.3694 38.9749C18.2172 38.5465 17.7748 38.3523 17.7748 38.3523" stroke="#7C6656" stroke-width="0.75" stroke-linecap="round" stroke-linejoin="round"/>
<path d="M19.5164 26.4023C19.5164 26.4023 19.3759 28.6307 18.7837 31.7299C18.1892 34.829 17.4799 35.7325 17.8732 38.2465" stroke="#7C6656" stroke-width="0.75" stroke-linecap="round" stroke-linejoin="round"/>
<path d="M10.2116 33.6406C10.2116 33.6406 10.0103 38.3993 10.3497 39.0384C10.6891 39.6797 11.9227 40.0917 12.8215 40.1338C13.7204 40.176 14.1113 39.5533 13.9825 39.1156C13.8538 38.6802 13.4254 38.4579 13.4254 38.4579" stroke="#7C6656" stroke-width="0.75" stroke-linecap="round" stroke-linejoin="round"/>
<path d="M15.8616 26.6035C15.8616 26.6035 15.5877 28.8483 14.8153 31.9076C14.0429 34.967 13.2821 35.8284 13.5302 38.3611" stroke="#7C6656" stroke-width="0.75" stroke-linecap="round" stroke-linejoin="round"/>
<path d="M12.8236 21.7133C12.8236 21.7133 9.33356 25.1097 8.92627 30.2242C8.79987 31.8089 8.69922 32.9488 8.69922 32.9488C8.69922 32.9488 14.6681 35.8092 20.3397 33.4544C20.3397 33.4544 20.3608 31.8206 19.9207 29.1287C19.4807 26.4369 19.8809 24.2062 19.8809 24.2062C19.8809 24.2062 19.4947 24.6205 17.6947 24.459C15.8947 24.2975 15.1924 22.5536 15.1924 22.5536L12.8259 21.7109L12.8236 21.7133Z" fill="#FFADBE"/>
<path d="M20.0596 24.1519C20.0596 24.1519 19.5025 26.6097 19.9426 29.2992C20.3826 31.9887 20.3358 33.454 20.3358 33.454C14.6642 35.8088 8.69531 32.9484 8.69531 32.9484C8.69531 32.9484 8.79596 31.8085 8.92236 30.2238C9.32965 25.107 12.8197 21.7129 12.8197 21.7129" stroke="#7C6656" stroke-width="0.75" stroke-linecap="round" stroke-linejoin="round"/>
<g filter="url(#filter0_f_1067_22515)">
<ellipse cx="2.34087" cy="1.37372" rx="2.34087" ry="1.37372" transform="matrix(0.976187 0.216932 -0.217675 0.976021 24.6543 17.3672)" fill="#F5B0B0"/>
</g>
<g filter="url(#filter1_f_1067_22515)">
<ellipse cx="2.34087" cy="1.37372" rx="2.34087" ry="1.37372" transform="matrix(0.976187 0.216932 -0.217675 0.976021 12.6836 14.6445)" fill="#F5B0B0"/>
</g>
<path d="M27.2296 16.5439C26.9814 17.417 26.0732 17.9249 25.1978 17.6768C24.3247 17.4287 23.8168 16.5205 24.0649 15.6451C24.313 14.772 25.2212 14.264 26.0966 14.5121C26.9697 14.7603 27.4777 15.6685 27.2296 16.5439Z" fill="#7C6656"/>
<path d="M22.647 19.0821C22.647 19.0821 21.3924 20.0325 19.7562 19.569C18.12 19.1056 17.6074 17.6543 17.6074 17.6543" stroke="#7C6656" stroke-width="0.75" stroke-linecap="round" stroke-linejoin="round"/>
<path d="M8.93359 18.2207C9.06702 18.4641 9.21682 18.6865 9.3877 18.8925C11.0028 20.833 14.3267 22.523 16.3303 22.963" stroke="#7C6656" stroke-width="0.75" stroke-linecap="round" stroke-linejoin="round"/>
<path d="M30.4801 14.3867C30.4614 14.6208 30.4825 14.8923 30.4895 14.9813C30.5738 15.6414 31.4117 17.844 30.4052 20.1613C29.3987 22.4787 26.6343 24.3793 22.1588 24.3302C22.1588 24.3302 19.8532 24.3302 18.6641 23.7567" stroke="#7C6656" stroke-width="0.75" stroke-linecap="round" stroke-linejoin="round"/>
<path d="M29.8235 10.8789C29.8235 10.8789 30.1465 13.4748 28.6602 14.9799" stroke="#7C6656" stroke-width="0.75" stroke-linecap="round" stroke-linejoin="round"/>
<path d="M23.0705 8.77344C23.0705 8.77344 22.9441 11.8726 21.0996 13.2232" stroke="#7C6656" stroke-width="0.75" stroke-linecap="round" stroke-linejoin="round"/>
<path d="M15.8059 8.15625C15.8059 8.15625 15.2442 10.9347 13.1328 12.3789" stroke="#7C6656" stroke-width="0.75" stroke-linecap="round" stroke-linejoin="round"/>
<path d="M10.9869 11.3809C10.9869 11.3809 10.3713 15.1892 8.68359 15.9032" stroke="#7C6656" stroke-width="0.75" stroke-linecap="round" stroke-linejoin="round"/>
<path d="M11.3599 22.9999C9.2415 22.6839 9.33513 21.1858 9.33513 21.1858C9.33513 21.1858 7.42274 21.7499 5.9153 20.3899C3.72203 18.4143 4.6513 16.839 4.6513 16.839C4.6513 16.839 2.30588 16.5066 1.87752 14.187C1.10508 10.0087 4.88538 9.05138 4.88538 9.05138C4.88538 9.05138 6.83287 5.76264 8.10624 4.83805C13.7708 -0.892082 20.8563 1.5891 20.8563 1.5891C20.8563 1.5891 27.6936 1.17947 31.8765 7.5299C34.5402 11.5724 33.6414 15.9027 33.6414 15.9027C33.6414 15.9027 35.4414 17.8338 34.6315 19.9592C33.728 22.3351 31.825 22.3234 31.825 22.3234C31.825 22.3234 31.9631 24.1 29.9196 25.1346C28.0049 26.1037 26.5255 25.2282 26.5255 25.2282C26.5255 25.2282 24.0701 27.6135 20.7462 25.3055" stroke="#7C6656" stroke-width="0.75" stroke-linecap="round" stroke-linejoin="round"/>
<path d="M16.4167 13.0137L18.0716 14.6335L16.3301 14.4345" stroke="#7C6656" stroke-width="0.75" stroke-linecap="round" stroke-linejoin="round"/>
<path d="M15.2266 22.6641C15.2266 22.6641 15.9147 25.3091 19.5008 24.2066" stroke="#7C6656" stroke-width="0.75" stroke-linecap="round" stroke-linejoin="round"/>
<path d="M31.5464 11.8188C28.5198 9.41016 24.1122 9.91108 21.7035 12.9377C19.2949 15.9642 19.7958 20.3718 22.8224 22.7805C25.849 25.1891 30.2566 24.6882 32.6652 21.6616C35.0739 18.635 34.5729 14.2274 31.5464 11.8188ZM31.4527 20.6972C29.5778 23.0543 26.1463 23.4452 23.7892 21.5703C21.432 19.6954 21.0411 16.2638 22.9161 13.9067C24.791 11.5496 28.2225 11.1587 30.5796 13.0336C32.9368 14.9086 33.3277 18.3401 31.4527 20.6972Z" fill="#7A7066"/>
<path d="M28.682 24.1456C32.462 23.3193 34.8565 19.5853 34.0302 15.8053C33.204 12.0253 29.4699 9.63085 25.6899 10.4571C21.91 11.2833 19.5155 15.0174 20.3417 18.7974C21.168 22.5773 24.9021 24.9718 28.682 24.1456Z" stroke="#7C6656" stroke-width="0.75" stroke-linecap="round" stroke-linejoin="round"/>
<path opacity="0.3" d="M31.2438 20.9482C33.2566 18.7072 33.0717 15.259 30.8308 13.2462C28.5899 11.2334 25.1416 11.4184 23.1288 13.6593C21.116 15.9002 21.301 19.3485 23.5419 21.3612C25.7828 23.374 29.2311 23.1891 31.2438 20.9482Z" fill="white"/>
<path d="M31.2438 20.9482C33.2566 18.7072 33.0717 15.259 30.8308 13.2462C28.5899 11.2334 25.1416 11.4184 23.1288 13.6593C21.116 15.9002 21.301 19.3485 23.5419 21.3612C25.7828 23.374 29.2311 23.1891 31.2438 20.9482Z" stroke="#7C6656" stroke-width="0.75" stroke-linecap="round" stroke-linejoin="round"/>
<path opacity="0.3" d="M28.9761 20.2031C28.5992 20.4349 28.1709 20.5987 27.7051 20.6713" stroke="#83C3EC" stroke-width="0.75" stroke-miterlimit="10"/>
<path opacity="0.3" d="M30.5843 17.043C30.6615 18.0542 30.287 19.0092 29.6152 19.6903" stroke="#83C3EC" stroke-width="0.75" stroke-miterlimit="10"/>
<path d="M23.3763 23.0626L22.4238 22.3047L19.9957 25.3562L20.9481 26.1141L23.3763 23.0626Z" fill="#7C6656"/>
<path d="M17.242 30.3741L16.6521 29.9036C16.4227 29.721 16.383 29.3839 16.5679 29.1545L20.6103 24.033C20.7929 23.8036 21.13 23.7638 21.3594 23.9487L21.9492 24.4192C22.1786 24.6018 22.2184 24.9389 22.0335 25.1683L17.991 30.2898C17.8085 30.5192 17.4714 30.559 17.242 30.3741Z" fill="#9F9F9F" stroke="#7C6656" stroke-width="0.75" stroke-linecap="round" stroke-linejoin="round"/>
<path d="M12.25 23.9434C12.463 28.4048 16.8659 28.0865 16.8659 28.0865C16.8659 28.0865 18.0504 29.7999 19.5718 28.2854C20.8241 27.0378 19.7474 25.4274 18.9796 25.1793C18.2119 24.9312 17.1351 25.1325 16.6693 25.9704C16.6693 25.9704 15.5504 26.3473 14.8248 23.9995" fill="white"/>
<path d="M12.2871 23.8703C12.2871 23.8703 12.3503 24.7176 12.4673 24.9236C12.9121 24.9166 15.0937 24.5772 15.0937 24.5772L14.7683 23.8516C14.7683 23.8516 14.6021 23.8867 13.9069 23.9265C13.2117 23.9663 12.2871 23.8703 12.2871 23.8703Z" fill="#FFADBE"/>
<path d="M12.0957 23.6391C12.3087 28.1005 16.8638 28.0841 16.8638 28.0841C16.8638 28.0841 18.1138 29.5611 19.5697 28.2831C20.8992 27.1174 19.7452 25.4251 18.9775 25.1769C18.2097 24.9288 17.3132 25.1676 16.8474 26.0079C16.8474 26.0079 15.1387 26.0219 14.6916 23.3418" stroke="#7C6656" stroke-width="0.75" stroke-linecap="round" stroke-linejoin="round"/>
<path d="M14.9422 24.5977L12.5547 24.9183" stroke="#7C6656" stroke-width="0.75" stroke-linecap="round" stroke-linejoin="round"/>
<path d="M22.6541 27.3269C22.1064 28.015 21.1911 28.2 20.613 27.7388C20.0348 27.2777 20.0091 26.3461 20.5568 25.6579C21.1045 24.9697 22.0198 24.7848 22.5979 25.2459C23.1761 25.7071 23.2018 26.6387 22.6541 27.3269Z" fill="white" stroke="#7C6656" stroke-width="0.75" stroke-linecap="round" stroke-linejoin="round"/>
<path d="M41.5448 37.9621C41.4208 37.9621 41.3201 37.8615 41.3201 37.7374V35.5254H41.7695V37.7374C41.7695 37.8615 41.6689 37.9621 41.5448 37.9621Z" fill="#A08A60" stroke="#A08A60" stroke-width="0.75" stroke-linecap="round" stroke-linejoin="round"/>
<path d="M44.9979 39.9738C44.8739 39.9738 44.7732 39.8732 44.7732 39.7491V37.5371H45.2227V39.7491C45.2227 39.8732 45.122 39.9738 44.9979 39.9738Z" fill="#A08A60" stroke="#A08A60" stroke-width="0.75" stroke-linecap="round" stroke-linejoin="round"/>
<path d="M50.5994 26.8711L41.1474 28.4675C40.9368 28.4839 40.7753 28.6594 40.7753 28.8701V35.7589C40.7753 36.0304 40.9227 36.2832 41.1615 36.4143L44.174 38.0949C44.4549 38.2518 44.7849 38.2962 45.0986 38.2237L56.374 35.7448C56.7836 35.6582 56.8796 34.3896 56.5284 34.1625L53.4972 32.222" fill="#CBD0E4"/>
<path d="M40.7737 28.4961L41.3167 28.7512C41.6795 28.9221 41.9089 29.2873 41.9089 29.6875V34.891C41.9089 35.0478 41.9979 35.1906 42.136 35.2608L44.2356 36.4055C44.5727 36.5763 44.6031 37.2434 44.6055 37.6226V38.3366L41.1599 36.4125C40.9211 36.2791 40.7737 36.0286 40.7737 35.7571V28.4961Z" fill="#B1B8D4"/>
<path d="M56.2399 34.0156L44.3676 36.5343L44.3817 38.0792C44.384 38.2664 44.5596 38.4045 44.7445 38.3647L56.5418 35.7314C56.8508 35.6635 56.9374 34.5329 56.6823 34.3457L56.2422 34.018L56.2399 34.0156Z" fill="#919DC2"/>
<path d="M50.5994 26.8711L41.1474 28.4675C40.9368 28.4839 40.7753 28.6594 40.7753 28.8701V35.7589C40.7753 36.0304 40.9227 36.2832 41.1615 36.4143L44.174 38.0949C44.4549 38.2518 44.7849 38.2962 45.0986 38.2237L56.374 35.7448C56.7836 35.6582 56.8796 34.3896 56.5284 34.1625L53.4972 32.222" stroke="#939FC3" stroke-width="0.75" stroke-linecap="round" stroke-linejoin="round"/>
<path d="M47.0706 35.4207C47.0706 35.4207 48.0256 37.3893 47.9835 39.3813C47.9835 39.3813 47.8477 41.0619 49.7976 41.0315C51.7474 40.9987 51.9206 39.9337 51.3167 39.3813C51.3167 39.3813 50.9188 35.7227 50.865 35.1656C50.8111 34.6085 50.0106 33.918 50.0106 33.918" fill="white"/>
<path d="M50.658 34.8289C50.658 34.8289 51.9735 34.7119 52.224 35.1285C52.4744 35.5452 53.488 39.1288 53.488 39.1288C53.488 39.1288 53.8999 40.243 55.7842 39.927C57.6709 39.611 57.0178 38.0591 56.3671 37.8344C56.3671 37.8344 55.9738 34.9811 55.3559 34.0986C54.7379 33.2161 53.8601 32.7012 53.8601 32.7012" fill="white"/>
<path d="M44.0594 27.4594L44.1531 34.0463L54.127 32.698C54.127 32.698 52.5844 30.7669 53.31 27.01C48.886 26.5325 44.0618 27.4571 44.0618 27.4571L44.0594 27.4594Z" fill="white"/>
<path d="M38.3175 20.4618C38.3175 20.4618 37.6083 25.2954 43.7949 27.4606C46.5429 28.2003 53.2281 27.5215 53.2281 27.5215C53.2281 27.5215 62.2212 25.7987 61.0134 18.7016C60.2714 17.2761 59.6792 15.5252 59.6792 15.5252L59.4147 13.9522C59.4147 13.9522 61.0555 12.9948 60.379 9.07645C59.7026 5.15571 52.7131 2.92732 46.9502 3.70445C42.7977 4.53307 40.5928 6.35183 39.8484 9.21221C38.2192 9.52821 36.3092 10.1134 35.7825 13.772C35.5157 16.5762 38.3222 20.4618 38.3222 20.4618H38.3175Z" fill="white"/>
<path d="M44.4887 34.002C44.4887 34.002 44.8608 35.8558 47.2109 35.7224C46.9371 35.3338 47.2109 34.215 47.2109 34.215L44.4887 34.0043V34.002Z" fill="#B2ABA4"/>
<path d="M46.9751 35.1001C46.9751 35.1001 47.9371 36.7175 47.8646 37.9511C47.792 39.1847 48.0752 40.018 48.0752 40.018C48.0752 40.018 50.4722 40.3199 51.3008 39.2175C51.1557 37.8832 50.8233 32.3919 49.4727 33.4358C48.1618 34.4798 46.9751 35.1024 46.9751 35.1024V35.1001Z" fill="#B2ABA4"/>
<path d="M51.569 34.4004C51.569 34.4004 52.8096 35.5544 53.4908 39.1287C54.3475 39.1263 55.9298 38.5575 56.3535 37.7149C56.1756 36.1115 55.7847 33.6256 53.8794 32.5723C52.2853 32.6121 51.569 34.4004 51.569 34.4004Z" fill="#B2ABA4"/>
<path d="M47.0706 35.4207C47.0706 35.4207 48.0256 37.3893 47.9835 39.3813C47.9835 39.3813 47.8477 41.0619 49.7976 41.0315C51.7474 40.9987 51.9206 39.9337 51.3167 39.3813C51.3167 39.3813 50.9188 35.7227 50.865 35.1656C50.8111 34.6085 50.0106 33.918 50.0106 33.918" stroke="#7C6656" stroke-width="0.75" stroke-linecap="round" stroke-linejoin="round"/>
<path d="M50.658 34.8289C50.658 34.8289 51.9735 34.7119 52.224 35.1285C52.4744 35.5452 53.488 39.1288 53.488 39.1288C53.488 39.1288 53.8999 40.243 55.7842 39.927C57.6709 39.611 57.0178 38.0591 56.3671 37.8344C56.3671 37.8344 55.9738 34.9811 55.3559 34.0986C54.7379 33.2161 53.8601 32.7012 53.8601 32.7012" stroke="#7C6656" stroke-width="0.75" stroke-linecap="round" stroke-linejoin="round"/>
<path d="M48.0495 39.9311C50.732 40.3431 51.3008 39.2148 51.3008 39.2148" stroke="#7C6656" stroke-width="0.75" stroke-linecap="round" stroke-linejoin="round"/>
<path d="M44.3806 34.0938C44.2402 34.6111 45.2584 35.5895 47.2129 35.7206" stroke="#7C6656" stroke-width="0.75" stroke-linecap="round" stroke-linejoin="round"/>
<path d="M53.493 27.5215C53.3081 31.4001 54.125 32.6992 54.125 32.6992C54.125 32.6992 52.1986 32.9403 50.2043 33.2071C48.2099 33.474 44.6637 34.0475 44.6637 34.0475C43.8936 31.0303 44.9259 27.8843 44.9259 27.8843" stroke="#7C6656" stroke-width="0.75" stroke-linecap="round" stroke-linejoin="round"/>
<path d="M47.3046 18.5679C47.3795 19.2209 46.9114 19.8131 46.2583 19.888C45.6053 19.9629 45.013 19.4948 44.9381 18.8417C44.8632 18.1887 45.3314 17.5964 45.9845 17.5215C46.6375 17.4466 47.2297 17.9148 47.3046 18.5679Z" fill="#7C6656"/>
<path d="M55.416 17.6343C55.4909 18.2873 55.0227 18.8795 54.3696 18.9544C53.7166 19.0293 53.1244 18.5612 53.0495 17.9081C52.9746 17.2551 53.4427 16.6629 54.0958 16.5879C54.7488 16.513 55.3411 16.9812 55.416 17.6343Z" fill="#7C6656"/>
<path d="M53.584 21.3184C53.584 21.3184 52.7085 22.683 50.8781 22.8937C49.0476 23.1043 47.9475 21.9667 47.9475 21.9667" stroke="#7C6656" stroke-width="0.75" stroke-linecap="round" stroke-linejoin="round"/>
<path d="M59.9818 13.351C63.2729 5.38312 52.2831 2.2278 46.1621 3.88505C39.8468 5.59613 39.8444 9.21257 39.8444 9.21257C39.8444 9.21257 37.1128 8.77485 35.9892 12.5879C34.9125 16.2418 38.3183 20.4622 38.3183 20.4622" stroke="#7C6656" stroke-width="0.75" stroke-linecap="round" stroke-linejoin="round"/>
<path d="M41.3479 12.8145C41.3479 12.8145 42.2233 15.1599 39.4753 17.5334" stroke="#7C6656" stroke-width="0.75" stroke-linecap="round" stroke-linejoin="round"/>
<path d="M43.3524 10.8769C43.3524 10.8769 47.2661 9.64804 47.3691 14.3576" stroke="#7C6656" stroke-width="0.75" stroke-linecap="round" stroke-linejoin="round"/>
<path d="M49.9409 9.62695C49.9409 9.62695 53.0306 10.3385 52.4408 13.7747" stroke="#7C6656" stroke-width="0.75" stroke-linecap="round" stroke-linejoin="round"/>
<path d="M54.7028 9.07617C54.7028 9.07617 57.3572 9.93288 56.875 13.2614" stroke="#7C6656" stroke-width="0.75" stroke-linecap="round" stroke-linejoin="round"/>
<path d="M59.0638 12.5C59.0638 12.5 59.5835 14.4358 59.6771 15.5266C59.6771 15.5266 62.0038 18.6561 60.8171 22.193C59.6303 25.7275 54.6867 27.3871 50.6676 27.764C46.6509 28.1432 41.8922 27.7733 39.617 24.515C37.955 22.1345 38.1048 17.8743 38.3061 15.756" stroke="#7C6656" stroke-width="0.75" stroke-linecap="round" stroke-linejoin="round"/>
<path d="M49.843 29.3196C49.843 29.3196 49.534 31.5433 50.0981 32.1659L51.9122 32.9852L52.3008 31.4543C52.3008 31.4543 51.1398 30.6655 51.1187 29.041" fill="#82AEDD"/>
<path d="M49.843 29.3196C49.843 29.3196 49.534 31.5433 50.0981 32.1659L51.9122 32.9852L52.3008 31.4543C52.3008 31.4543 51.1398 30.6655 51.1187 29.041" stroke="#7C6656" stroke-width="0.75" stroke-linecap="round" stroke-linejoin="round"/>
<path d="M49.5292 27.8848L49.3981 29.1371L50.2455 29.6263C50.3929 29.7105 50.5755 29.7105 50.723 29.6263L51.5703 29.1371L51.4392 27.8848H49.5315H49.5292Z" fill="#82AEDD" stroke="#7C6656" stroke-width="0.75" stroke-linecap="round" stroke-linejoin="round"/>
<path d="M44.0403 27.5684C44.0403 27.5684 42.7201 29.5884 42.6663 31.454C42.6125 33.3196 42.7974 34.1997 45.8825 34.1997C45.8825 34.1997 48.2536 36.1776 49.2461 34.0967C50.1286 32.2522 48.2466 30.733 46.8047 32.086C46.8047 32.086 45.0843 31.5734 45.3909 30.7658C46.1914 28.6685 46.1517 28.1067 46.1517 28.1067" fill="white"/>
<path d="M43.984 27.6758C43.984 27.6758 42.6779 29.4945 42.6662 31.3601C42.6568 32.898 43.4246 34.1971 46.0345 34.2135C46.0345 34.2135 47.0317 35.3768 48.1716 35.0374C48.5508 34.9227 48.9651 34.7003 49.246 34.0964C50.0208 32.4228 48.1903 30.7141 46.6337 32.0834C46.6337 32.0834 45.2667 31.8517 45.3229 30.9926C45.3697 30.281 45.8894 29.3354 45.8894 29.3354" stroke="#7C6656" stroke-width="0.75" stroke-linecap="round" stroke-linejoin="round"/>
<path d="M50.4506 35.3496H52.3559C52.7749 35.3496 53.1167 35.0079 53.1167 34.5889V31.5178H49.6875V34.5889C49.6875 35.0079 50.0292 35.3496 50.4482 35.3496H50.4506Z" fill="#D4EDFC" stroke="#7D7369" stroke-width="0.75" stroke-linecap="round" stroke-linejoin="round"/>
<path d="M46.6347 32.084C46.6347 32.084 46.6488 33.5025 46.0379 34.2141" stroke="#7C6656" stroke-width="0.75" stroke-linecap="round" stroke-linejoin="round"/>
<path d="M53.5401 24.8984H57.4468C57.7464 24.8984 57.9711 25.1723 57.9126 25.4672L56.8803 30.6988C56.8358 30.9212 56.6415 31.0827 56.4145 31.0827H52.5218C52.2222 31.0827 51.9975 30.8088 52.0537 30.5162L53.0719 25.2847C53.1164 25.0599 53.3107 24.8984 53.5401 24.8984Z" fill="white" stroke="#7C6656" stroke-width="0.75" stroke-linecap="round" stroke-linejoin="round"/>
<path d="M56.4315 26.2349H57.0939C57.122 26.2349 57.1477 26.2162 57.1547 26.1881L57.3373 25.521C57.349 25.4812 57.3186 25.4414 57.2765 25.4414H56.614C56.5859 25.4414 56.5602 25.4601 56.5532 25.4882L56.3706 26.1553C56.3589 26.1951 56.3893 26.2349 56.4315 26.2349Z" fill="#7C6656"/>
<path d="M54.2072 27.5062C54.2072 27.5062 54.371 27.141 54.893 27.3845C54.893 27.3845 55.4478 27.134 55.7778 27.567C56.0306 27.8994 55.8644 28.6766 55.5344 28.8755C55.2043 29.0745 54.9445 28.9364 54.9445 28.9364C54.9445 28.9364 54.6238 29.0581 54.4155 28.9457C54.2072 28.8334 54.0691 28.4682 54.0691 28.4682C54.0691 28.4682 54.4412 28.5642 54.4763 28.3301C54.4763 28.3301 54.6706 28.3465 54.7221 28.1522C54.7713 27.9579 54.6332 27.8105 54.5302 27.8198C54.5302 27.8198 54.6051 27.7075 54.5208 27.5951C54.3991 27.4313 54.2095 27.5085 54.2095 27.5085L54.2072 27.5062Z" fill="#B0B0B0"/>
<path d="M54.9287 27.2144C54.9287 27.2144 54.9989 26.7907 55.3196 26.8071C55.6403 26.8235 55.7012 26.8586 55.7012 26.8586C55.7012 26.8586 55.5022 27.2823 54.9287 27.2144Z" fill="#B0B0B0"/>
<path d="M58.637 29.3532C58.4193 30.1537 57.7241 30.6593 57.0827 30.4861C56.4414 30.3129 56.0973 29.5241 56.3126 28.7236C56.5303 27.923 57.2255 27.4174 57.8669 27.5906C58.5083 27.7638 58.8523 28.5527 58.637 29.3532Z" fill="white" stroke="#7C6656" stroke-width="0.75" stroke-linecap="round" stroke-linejoin="round"/>
<path d="M56.3691 37.834C56.3691 37.834 55.5031 39.0137 53.5626 39.0442" stroke="#7C6656" stroke-width="0.75" stroke-linecap="round" stroke-linejoin="round"/>
<path d="M4.85398 25.5215C4.85398 25.5215 3.61807 28.0518 4.85398 30.7928" stroke="#9F978F" stroke-width="0.75" stroke-linecap="round" stroke-linejoin="round"/>
<path d="M6.78715 25.5215C6.78715 25.5215 5.86022 27.5603 6.55542 30.0836" stroke="#9F978F" stroke-width="0.75" stroke-linecap="round" stroke-linejoin="round"/>
<path d="M31.8949 26.6055C31.8949 26.6055 30.57 28.4195 27.293 28.5038" stroke="#9F978F" stroke-width="0.75" stroke-linecap="round" stroke-linejoin="round"/>
<path d="M31.8949 28.5742C31.8949 28.5742 28.9619 30.8916 26.1016 29.5854" stroke="#9F978F" stroke-width="0.75" stroke-linecap="round" stroke-linejoin="round"/>
<g filter="url(#filter2_f_1067_22515)">
<ellipse cx="2.34087" cy="1.37372" rx="2.34087" ry="1.37372" transform="matrix(-0.991078 0.133286 0.134041 0.990976 46.8848 20.0645)" fill="#F5B0B0"/>
</g>
<g filter="url(#filter3_f_1067_22515)">
<ellipse cx="2.34087" cy="1.37372" rx="2.34087" ry="1.37372" transform="matrix(-0.991078 0.133286 0.134041 0.990976 59.043 18.3672)" fill="#F5B0B0"/>
</g>
<path d="M47.3046 18.562C47.3795 19.2151 46.9114 19.8073 46.2583 19.8822C45.6053 19.9571 45.013 19.4889 44.9381 18.8359C44.8632 18.1828 45.3314 17.5906 45.9845 17.5157C46.6375 17.4408 47.2297 17.9089 47.3046 18.562Z" fill="#7C6656"/>
<path d="M55.414 17.6284C55.4889 18.2815 55.0208 18.8737 54.3677 18.9486C53.7146 19.0235 53.1224 18.5553 53.0475 17.9023C52.9726 17.2492 53.4408 16.657 54.0938 16.5821C54.7469 16.5072 55.3391 16.9753 55.414 17.6284Z" fill="#7C6656"/>
<path d="M53.582 21.3125C53.582 21.3125 52.7066 22.6772 50.8761 22.8878C49.0457 23.0985 47.9455 21.9609 47.9455 21.9609" stroke="#7C6656" stroke-width="0.75" stroke-linecap="round" stroke-linejoin="round"/>
<path d="M59.9799 13.3471C63.2709 5.37921 52.2812 2.22389 46.1601 3.88114C39.8448 5.59222 39.8425 9.20866 39.8425 9.20866C39.8425 9.20866 37.1108 8.77094 35.9873 12.584C34.9105 16.2379 38.3163 20.4583 38.3163 20.4583" stroke="#7C6656" stroke-width="0.75" stroke-linecap="round" stroke-linejoin="round"/>
<path d="M41.344 12.8105C41.344 12.8105 42.2194 15.156 39.4714 17.5295" stroke="#7C6656" stroke-width="0.75" stroke-linecap="round" stroke-linejoin="round"/>
<path d="M43.3505 10.873C43.3505 10.873 47.2642 9.64413 47.3672 14.3537" stroke="#7C6656" stroke-width="0.75" stroke-linecap="round" stroke-linejoin="round"/>
<path d="M49.9409 9.62305C49.9409 9.62305 53.0306 10.3346 52.4408 13.7708" stroke="#7C6656" stroke-width="0.75" stroke-linecap="round" stroke-linejoin="round"/>
<path d="M54.7009 9.07227C54.7009 9.07227 57.3553 9.92898 56.8731 13.2575" stroke="#7C6656" stroke-width="0.75" stroke-linecap="round" stroke-linejoin="round"/>
<path d="M59.0619 12.4961C59.0619 12.4961 59.5815 14.4319 59.6752 15.5227C59.6752 15.5227 62.0019 18.6522 60.8151 22.1891C59.6284 25.7236 54.6847 27.3832 50.6657 27.7601C46.6489 28.1393 41.8902 27.7694 39.615 24.5111C37.9531 22.1306 38.1029 17.8704 38.3042 15.7521" stroke="#7C6656" stroke-width="0.75" stroke-linecap="round" stroke-linejoin="round"/>
<path d="M49.843 29.3137C49.843 29.3137 49.534 31.5374 50.0981 32.16L51.9122 32.9793L52.3008 31.4485C52.3008 31.4485 51.1398 30.6596 51.1187 29.0352" fill="#82AEDD"/>
<path d="M49.843 29.3137C49.843 29.3137 49.534 31.5374 50.0981 32.16L51.9122 32.9793L52.3008 31.4485C52.3008 31.4485 51.1398 30.6596 51.1187 29.0352" stroke="#7C6656" stroke-width="0.75" stroke-linecap="round" stroke-linejoin="round"/>
<path d="M49.5292 27.8789L49.3981 29.1312L50.2455 29.6204C50.3929 29.7047 50.5755 29.7047 50.723 29.6204L51.5703 29.1312L51.4392 27.8789H49.5315H49.5292Z" fill="#82AEDD" stroke="#7C6656" stroke-width="0.75" stroke-linecap="round" stroke-linejoin="round"/>
<path d="M44.0364 27.5645C44.0364 27.5645 42.7162 29.5845 42.6624 31.4501C42.6085 33.3157 42.7935 34.1958 45.8786 34.1958C45.8786 34.1958 48.2497 36.1737 49.2422 34.0928C50.1247 32.2483 48.2427 30.7291 46.8008 32.0821C46.8008 32.0821 45.0804 31.5695 45.387 30.7619C46.1875 28.6646 46.1477 28.1028 46.1477 28.1028" fill="white"/>
<path d="M43.9801 27.6719C43.9801 27.6719 42.674 29.4906 42.6623 31.3562C42.6529 32.8941 43.4207 34.1932 46.0306 34.2096C46.0306 34.2096 47.0278 35.3729 48.1677 35.0335C48.5469 34.9188 48.9612 34.6964 49.2421 34.0925C50.0169 32.4189 48.1864 30.7102 46.6298 32.0795C46.6298 32.0795 45.2628 31.8478 45.319 30.9887C45.3658 30.2771 45.8855 29.3315 45.8855 29.3315" stroke="#7C6656" stroke-width="0.75" stroke-linecap="round" stroke-linejoin="round"/>
<path d="M50.4467 35.3457H52.352C52.771 35.3457 53.1128 35.004 53.1128 34.585V31.5139H49.6836V34.585C49.6836 35.004 50.0253 35.3457 50.4443 35.3457H50.4467Z" fill="#D4EDFC" stroke="#7D7369" stroke-width="0.75" stroke-linecap="round" stroke-linejoin="round"/>
<path d="M46.6308 32.0801C46.6308 32.0801 46.6449 33.4986 46.0339 34.2101" stroke="#7C6656" stroke-width="0.75" stroke-linecap="round" stroke-linejoin="round"/>
<path d="M53.5381 24.8965H57.4448C57.7444 24.8965 57.9691 25.1704 57.9106 25.4653L56.8783 30.6968C56.8339 30.9192 56.6396 31.0807 56.4125 31.0807H52.5199C52.2203 31.0807 51.9956 30.8069 52.0517 30.5143L53.07 25.2827C53.1144 25.058 53.3087 24.8965 53.5381 24.8965Z" fill="white" stroke="#7C6656" stroke-width="0.75" stroke-linecap="round" stroke-linejoin="round"/>
<path d="M56.4295 26.233H57.0919C57.12 26.233 57.1458 26.2142 57.1528 26.1861L57.3354 25.519C57.3471 25.4792 57.3166 25.4395 57.2745 25.4395H56.6121C56.584 25.4395 56.5582 25.4582 56.5512 25.4863L56.3686 26.1534C56.3569 26.1932 56.3874 26.233 56.4295 26.233Z" fill="#7C6656"/>
<path d="M54.2052 27.5023C54.2052 27.5023 54.3691 27.1371 54.891 27.3806C54.891 27.3806 55.4458 27.1301 55.7758 27.5631C56.0286 27.8955 55.8625 28.6726 55.5324 28.8716C55.2024 29.0706 54.9425 28.9325 54.9425 28.9325C54.9425 28.9325 54.6219 29.0542 54.4135 28.9418C54.2052 28.8295 54.0671 28.4643 54.0671 28.4643C54.0671 28.4643 54.4393 28.5603 54.4744 28.3262C54.4744 28.3262 54.6687 28.3426 54.7202 28.1483C54.7693 27.954 54.6312 27.8066 54.5282 27.8159C54.5282 27.8159 54.6031 27.7036 54.5189 27.5912C54.3971 27.4274 54.2075 27.5046 54.2075 27.5046L54.2052 27.5023Z" fill="#B0B0B0"/>
<path d="M54.9268 27.2105C54.9268 27.2105 54.997 26.7868 55.3177 26.8032C55.6384 26.8196 55.6992 26.8547 55.6992 26.8547C55.6992 26.8547 55.5003 27.2784 54.9268 27.2105Z" fill="#B0B0B0"/>
<path d="M58.637 29.3513C58.4193 30.1518 57.7241 30.6574 57.0827 30.4842C56.4414 30.311 56.0973 29.5221 56.3126 28.7216C56.5303 27.9211 57.2255 27.4155 57.8669 27.5887C58.5083 27.7619 58.8523 28.5507 58.637 29.3513Z" fill="white" stroke="#7C6656" stroke-width="0.75" stroke-linecap="round" stroke-linejoin="round"/>
<path d="M56.3672 37.832C56.3672 37.832 55.5011 39.0118 53.5606 39.0422" stroke="#7C6656" stroke-width="0.75" stroke-linecap="round" stroke-linejoin="round"/>
<path d="M4.85593 25.5215C4.85593 25.5215 3.62002 28.0518 4.85593 30.7928" stroke="#7C6656" stroke-width="0.75" stroke-linecap="round" stroke-linejoin="round"/>
<path d="M6.78715 25.5215C6.78715 25.5215 5.86022 27.5603 6.55542 30.0836" stroke="#7C6656" stroke-width="0.75" stroke-linecap="round" stroke-linejoin="round"/>
<path d="M31.8949 26.6055C31.8949 26.6055 30.57 28.4195 27.293 28.5038" stroke="#7C6656" stroke-width="0.75" stroke-linecap="round" stroke-linejoin="round"/>
<path d="M31.8949 28.5742C31.8949 28.5742 28.9619 30.8916 26.1016 29.5854" stroke="#7C6656" stroke-width="0.75" stroke-linecap="round" stroke-linejoin="round"/>
<defs>
<filter id="filter0_f_1067_22515" x="23.5859" y="17.0312" width="6.10938" height="4.36914" filterUnits="userSpaceOnUse" color-interpolation-filters="sRGB">
<feFlood flood-opacity="0" result="BackgroundImageFix"/>
<feBlend mode="normal" in="SourceGraphic" in2="BackgroundImageFix" result="shape"/>
<feGaussianBlur stdDeviation="0.375" result="effect1_foregroundBlur_1067_22515"/>
</filter>
<filter id="filter1_f_1067_22515" x="11.6152" y="14.3086" width="6.10938" height="4.36914" filterUnits="userSpaceOnUse" color-interpolation-filters="sRGB">
<feFlood flood-opacity="0" result="BackgroundImageFix"/>
<feBlend mode="normal" in="SourceGraphic" in2="BackgroundImageFix" result="shape"/>
<feGaussianBlur stdDeviation="0.375" result="effect1_foregroundBlur_1067_22515"/>
</filter>
<filter id="filter2_f_1067_22515" x="41.6719" y="19.5918" width="6.1543" height="4.29297" filterUnits="userSpaceOnUse" color-interpolation-filters="sRGB">
<feFlood flood-opacity="0" result="BackgroundImageFix"/>
<feBlend mode="normal" in="SourceGraphic" in2="BackgroundImageFix" result="shape"/>
<feGaussianBlur stdDeviation="0.375" result="effect1_foregroundBlur_1067_22515"/>
</filter>
<filter id="filter3_f_1067_22515" x="53.8301" y="17.8945" width="6.1543" height="4.29297" filterUnits="userSpaceOnUse" color-interpolation-filters="sRGB">
<feFlood flood-opacity="0" result="BackgroundImageFix"/>
<feBlend mode="normal" in="SourceGraphic" in2="BackgroundImageFix" result="shape"/>
<feGaussianBlur stdDeviation="0.375" result="effect1_foregroundBlur_1067_22515"/>
</filter>
</defs>
</svg>
