<svg width="42" height="46" viewBox="0 0 42 46" fill="none" xmlns="http://www.w3.org/2000/svg">
<ellipse cx="22" cy="41.5" rx="20" ry="3.75" fill="#EEEEEE"/>
<path d="M10.1716 34.9471V39.1904V40.3137L10.6708 40.9377L12.1682 41.1873L13.2912 40.8129L13.5408 40.3137V39.4401L13.0416 39.1904L13.1664 37.8176L13.416 35.5711L14.6638 35.8207L14.4142 39.1904L14.6638 40.3137L15.4125 40.9377L17.0347 41.0625L17.7834 40.6881L18.1577 39.9393L17.5338 39.0656L17.9081 36.0703L18.6568 35.9455L19.9047 35.8207L20.1542 35.0719L19.6551 34.5727L19.5303 33.8239L19.9047 32.9502L20.279 31.9518L21.1525 31.0782L22.026 30.3294L22.5251 29.3309L23.2738 29.5805L23.7729 28.5821H25.2703L25.5199 29.2061L26.8925 29.7053L27.8908 29.4557L29.0138 28.8317L29.3881 27.9581L29.2634 27.2093L28.5147 26.2108L28.889 25.9612L30.636 25.462L32.5077 24.0892L33.2564 22.0923L35.2529 20.5946L35.8768 19.097V18.2234L35.3777 16.7257L34.2547 15.1033L34.0051 12.108L33.2564 9.48707L31.1351 5.99256L29.0138 4.12049L27.0173 2.99726L23.7729 1.87402L20.279 1.49961H19.156L17.409 1.25L13.6655 1.62441L10.4212 2.99726L8.05033 4.74451L6.17859 6.99099L4.55641 9.23746L3.80772 10.8599L2.80946 11.2343L1.68641 12.3576L1.0625 13.7304V15.7273L1.43685 17.3497L2.80946 18.5978L4.18206 19.097V19.721L4.6812 21.3435L6.0538 22.5915L7.30163 23.0907L8.67424 23.2155H9.6725L10.1716 24.3388L8.54946 27.2093L7.55119 30.7038L7.17685 32.3262L6.55293 32.7006V33.4495L7.17685 34.1983L9.17337 34.6975L10.1716 34.9471Z" fill="white"/>
<path d="M20.5581 23.5254L22.3419 24.9512C22.3419 24.9512 21.5037 26.8791 20.9212 27.4373C19.9611 27.2496 17.9531 25.8433 17.9531 25.8433" fill="#FFADBE"/>
<path d="M22.3451 24.9512C24.2313 26.0796 25.8591 26.0431 25.8591 26.0431C26.8704 25.1754 27.7794 25.2461 28.6834 26.2795C29.702 27.4592 29.1172 29.2579 27.6015 29.7965C26.0857 30.3352 25.1719 28.7924 25.1719 28.7924C25.1719 28.7924 22.7959 28.5681 20.4492 27.4518" fill="white"/>
<path d="M20.0387 23.2168C21.5545 25.1398 25.8629 26.0489 25.8629 26.0489C26.8766 25.1837 27.9537 25.481 28.8554 26.5145C29.8716 27.6966 29.1113 29.2686 27.5955 29.8048C26.0798 30.3386 25.1684 28.7958 25.1684 28.7958C25.1684 28.7958 20.9136 28.2303 18.5547 26.4925" stroke="#7C6656" stroke-width="0.75" stroke-linecap="round" stroke-linejoin="round"/>
<path d="M22.2291 24.8594C22.5142 25.1055 21.3835 27.226 20.4453 27.4405" stroke="#7C6656" stroke-width="0.75" stroke-linecap="round" stroke-linejoin="round"/>
<path d="M10.3013 24.1643C9.67012 23.6696 9.64818 23.0042 9.64818 23.0042C9.64818 23.0042 7.72061 23.7744 6.02455 22.5119C3.56086 20.6766 4.3699 18.9534 4.3699 18.9534C4.3699 18.9534 1.90622 18.8364 1.23608 16.4747C0.0273849 12.2167 3.85329 10.8591 3.85329 10.8591C3.85329 10.8591 5.55179 7.25923 6.78241 6.17951C12.0997 -0.315896 19.6857 1.5657 19.6857 1.5657C19.6857 1.5657 26.7331 0.476227 31.6873 6.65234C34.8406 10.5837 34.3313 15.161 34.3313 15.161C34.3313 15.161 36.3832 16.9889 35.752 19.2702C35.0453 21.8197 33.0739 21.9927 33.0739 21.9927C33.0739 21.9927 33.3883 23.8207 31.373 25.093C29.4819 26.2848 27.8639 25.5195 27.8639 25.5195C27.8639 25.5195 27.1401 25.8168 25.2442 25.6487C25.2442 25.6487 23.709 25.5975 22.8414 24.8614C22.8414 24.8614 22.1494 24.6542 21.4671 24.937C20.0658 25.5195 18.0262 26.8234 17.3633 26.8039C16.3764 26.7747 10.3037 24.1668 10.3037 24.1668L10.3013 24.1643Z" fill="white"/>
<path d="M13.4384 35.8535C13.3068 36.6749 13.1484 39.0244 13.1484 39.0244" stroke="#7C6656" stroke-width="0.75" stroke-linecap="round" stroke-linejoin="round"/>
<path d="M12.9075 38.9832C12.9075 38.9832 13.6581 39.3074 13.6557 39.9192C13.6557 40.5309 13.1902 41.2451 11.5965 41.0013C10.0052 40.7576 10.0491 39.6511 10.0856 37.9913C10.1222 36.3632 10.3269 33.9697 10.3269 33.9697" stroke="#7C6656" stroke-width="0.75" stroke-linecap="round" stroke-linejoin="round"/>
<path d="M17.8876 35.8535C17.7561 36.6749 17.5977 39.0244 17.5977 39.0244" stroke="#7C6656" stroke-width="0.75" stroke-linecap="round" stroke-linejoin="round"/>
<path d="M17.3528 38.9832C17.3528 38.9832 18.1034 39.3074 18.101 39.9192C18.101 40.5309 17.6355 41.2451 16.0418 41.0013C14.4505 40.7576 14.4944 39.6511 14.5309 37.9913C14.5675 36.3632 14.7722 33.9697 14.7722 33.9697" stroke="#7C6656" stroke-width="0.75" stroke-linecap="round" stroke-linejoin="round"/>
<path d="M11.8627 22.3149C11.8627 22.3149 8.48767 26.4388 7.17419 32.3371C6.13608 33.0537 6.42607 34.226 8.33659 34.5624C10.2495 34.8987 17.5163 36.0711 18.9468 35.9175C20.3772 35.764 20.2456 35.2351 19.4877 34.5551C19.5316 32.8148 18.7664 28.8566 21.3715 24.9984C21.4543 24.8229 20.9962 24.9935 21.0912 24.8595C21.0522 24.9423 18.6958 25.81 18.6958 25.81C18.6958 25.81 16.6926 26.2902 15.3962 23.8017C14.0998 23.1339 11.8627 22.3125 11.8627 22.3125V22.3149Z" fill="#FFADBE"/>
<path d="M11.8648 22.3145C11.8648 22.3145 8.20706 25.7852 7.17626 32.3366C7.17626 32.3366 5.87741 32.9191 6.7425 33.8989C7.60759 34.8787 16.3267 36.1924 19.6312 35.8878C19.6312 35.8878 20.874 35.5441 19.6312 34.4449C19.6312 34.4449 19.6945 27.4547 21.3735 24.9979" stroke="#7C6656" stroke-width="0.75" stroke-linecap="round" stroke-linejoin="round"/>
<g filter="url(#filter0_f_323_6140)">
<ellipse cx="2.0873" cy="1.22007" rx="2.0873" ry="1.22007" transform="matrix(0.988685 0.150009 -0.151833 0.988406 24.7305 16.7402)" fill="#F5B0B0"/>
</g>
<g filter="url(#filter1_f_323_6140)">
<ellipse cx="2.0873" cy="1.22007" rx="2.0873" ry="1.22007" transform="matrix(0.988685 0.150009 -0.151833 0.988406 13.2852 15.3447)" fill="#F5B0B0"/>
</g>
<path d="M28.9428 9.23047C28.9428 9.23047 29.6739 11.853 28.375 13.6322" stroke="#7C6656" stroke-width="0.75" stroke-linecap="round" stroke-linejoin="round"/>
<path d="M10.3013 24.1643C9.67012 23.6696 9.64818 23.0042 9.64818 23.0042C9.64818 23.0042 7.72061 23.7744 6.02455 22.5119C3.56086 20.6766 4.3699 18.9534 4.3699 18.9534C4.3699 18.9534 1.90622 18.8364 1.23608 16.4747C0.0273849 12.2167 3.85329 10.8591 3.85329 10.8591C3.85329 10.8591 5.55179 7.25923 6.78241 6.17951C12.0997 -0.315896 19.6857 1.5657 19.6857 1.5657C19.6857 1.5657 26.7331 0.476227 31.6873 6.65234C34.8406 10.5837 34.3313 15.161 34.3313 15.161C34.3313 15.161 36.3832 16.9889 35.752 19.2702C35.0453 21.8197 33.0739 21.9927 33.0739 21.9927C33.0739 21.9927 33.3883 23.8207 31.373 25.093C29.4819 26.2848 27.8639 25.5195 27.8639 25.5195C27.8639 25.5195 27.1986 26.1142 25.3003 25.946" stroke="#7C6656" stroke-width="0.75" stroke-linecap="round" stroke-linejoin="round"/>
<path d="M23.8114 19.0464C23.8114 19.0464 22.6222 19.9115 20.7214 19.6654C18.8182 19.4193 17.9531 18.291 17.9531 18.291" stroke="#7C6656" stroke-width="0.75" stroke-linecap="round" stroke-linejoin="round"/>
<path d="M8.94531 19.9668C9.10615 20.2057 9.28648 20.4226 9.48143 20.6176C11.3432 22.4723 14.9547 23.9006 17.0723 24.1614" stroke="#7C6656" stroke-width="0.75" stroke-linecap="round" stroke-linejoin="round"/>
<path d="M30.9072 13.8965C30.9097 14.1402 30.9584 14.4205 30.9755 14.5107C31.0193 16.48 32.0038 17.3867 31.185 19.8874C30.4247 22.2101 27.5102 24.294 23.3797 24.8887C22.7461 24.9789 22.1052 24.9862 21.4692 24.935C20.4944 24.857 19.0104 24.6986 18.2891 24.4402" stroke="#7C6656" stroke-width="0.75" stroke-linecap="round" stroke-linejoin="round"/>
<path d="M21.6679 8.09766C21.6679 8.09766 22.0139 11.31 20.3203 12.982" stroke="#7C6656" stroke-width="0.75" stroke-linecap="round" stroke-linejoin="round"/>
<path d="M14.0913 8.58008C14.0913 8.58008 13.9402 11.5268 11.9883 13.3401" stroke="#7C6656" stroke-width="0.75" stroke-linecap="round" stroke-linejoin="round"/>
<path d="M10.408 12.6777C10.408 12.6777 10.1399 16.6847 8.46094 17.5913" stroke="#7C6656" stroke-width="0.75" stroke-linecap="round" stroke-linejoin="round"/>
<path d="M18.287 14.7827C18.287 14.7827 18.1091 14.0126 17.1587 13.8103C16.2156 13.6105 15.582 14.2465 15.582 14.2465" stroke="#7C6656" stroke-width="0.75" stroke-linecap="round" stroke-linejoin="round"/>
<path d="M24.2109 15.7195C24.2109 15.7195 24.5375 14.9982 25.5098 14.9884C26.4748 14.9762 26.9719 15.7244 26.9719 15.7244" stroke="#7C6656" stroke-width="0.75" stroke-linecap="round" stroke-linejoin="round"/>
<path d="M15.3984 23.8789C15.3984 23.8789 15.4399 25.39 17.8548 25.7971C19.3559 26.0481 20.0772 25.0634 20.0772 25.0634" stroke="#7C6656" stroke-width="0.75" stroke-linecap="round" stroke-linejoin="round"/>
<path d="M22.5044 28.8594C22.5044 28.8594 22.5824 29.7344 21.7344 30.4558" stroke="#7C6656" stroke-width="0.75" stroke-linecap="round" stroke-linejoin="round"/>
<path d="M23.823 28.3129L20.6623 25.9561L19.7266 27.745L23.1211 29.5194L23.823 28.3129Z" fill="white" stroke="#7C6656" stroke-width="0.75" stroke-linecap="round" stroke-linejoin="round"/>
<path d="M24.2631 28.8294L23.6367 28.502L23.2485 29.2451L23.8749 29.5725L24.2631 28.8294Z" fill="#7C6656"/>
<path d="M19.0828 30.6747L19.7458 31.0212C20.2577 31.2888 20.4567 31.9235 20.1892 32.4355L19.1249 34.4725C19.0392 34.6367 18.8364 34.6985 18.6744 34.6138L16.7479 33.6069C16.5838 33.5211 16.522 33.3183 16.6067 33.1563L17.6709 31.1193C17.9384 30.6073 18.5731 30.4083 19.085 30.6758L19.0828 30.6747Z" fill="#B2D7EF" stroke="#7C6656" stroke-width="0.75" stroke-linecap="round" stroke-linejoin="round"/>
<path d="M14.3115 25.2461C15.9321 26.8011 18.5615 27.8906 18.5615 27.8906C19.719 27.2276 20.5962 27.4665 21.2908 28.6486C22.0706 29.9964 21.1592 31.6562 19.5703 31.8999C17.9815 32.1461 17.3698 30.4595 17.3698 30.4595C17.3698 30.4595 14.5723 29.5406 12.4766 28.0076" fill="white"/>
<path d="M13.3585 24.0352C14.4941 26.2044 18.5612 27.891 18.5612 27.891C19.7187 27.228 20.7203 27.7179 21.4172 28.9C22.197 30.2478 21.1614 31.6542 19.5725 31.9003C17.9837 32.1465 17.372 30.4599 17.372 30.4599C17.372 30.4599 13.2951 29.1194 11.2969 26.977" stroke="#7C6656" stroke-width="0.75" stroke-linecap="round" stroke-linejoin="round"/>
<path d="M14.3121 25.4609C14.3121 25.4609 13.4226 27.1232 12.2578 27.8446" stroke="#7C6656" stroke-width="0.75" stroke-linecap="round" stroke-linejoin="round"/>
<path d="M5.71837 24.8594C5.71837 24.8594 4.20263 26.8872 4.56329 28.742L5.71837 24.8594Z" fill="white"/>
<path d="M5.71837 24.8594C5.71837 24.8594 4.20263 26.8872 4.56329 28.742" stroke="#7C6656" stroke-width="0.75" stroke-linecap="round" stroke-linejoin="round"/>
<path d="M7.81465 24.8594C7.81465 24.8594 6.29891 25.6271 6.08203 29.5585L7.81465 24.8594Z" fill="white"/>
<path d="M7.81465 24.8594C7.81465 24.8594 6.29891 25.6271 6.08203 29.5585" stroke="#7C6656" stroke-width="0.75" stroke-linecap="round" stroke-linejoin="round"/>
<path d="M32.3453 31.9493C32.3453 31.9493 30.6175 30.0238 32.0796 27.4354C32.7084 26.324 32.5256 24.5301 32.026 22.4682C31.8189 21.6176 31.7799 20.5208 31.8043 19.5264" stroke="#7C6656" stroke-width="0.75" stroke-linecap="round" stroke-linejoin="round"/>
<path d="M26.6587 31.0059L27.631 41.2498H31.4691C31.5446 40.8452 31.7566 40.5528 32.0101 40.5528C32.2635 40.5528 32.478 40.8452 32.5511 41.2498H36.3891L37.3615 31.0059H26.6562H26.6587Z" fill="#E5CEBC"/>
<path d="M28.4648 41.1652V36.1248C28.4648 35.9104 28.6379 35.7373 28.8523 35.7373C29.0668 35.7373 29.2398 35.9104 29.2398 36.1248V41.1652" fill="#BFAD9F"/>
<path d="M30.5664 41.1642V36.1239C30.5664 35.9094 30.7394 35.7363 30.9539 35.7363C31.1683 35.7363 31.3413 35.9094 31.3413 36.1239V41.1642" fill="#BFAD9F"/>
<path d="M32.668 41.1652V36.1248C32.668 35.9104 32.841 35.7373 33.0554 35.7373C33.2699 35.7373 33.4429 35.9104 33.4429 36.1248V41.1652" fill="#BFAD9F"/>
<path d="M34.7656 41.1642V36.1239C34.7656 35.9094 34.9386 35.7363 35.1531 35.7363C35.3675 35.7363 35.5406 35.9094 35.5406 36.1239V41.1642" fill="#BFAD9F"/>
<path d="M26.6587 31.0059L27.631 41.2498H31.4691C31.5446 40.8452 31.7566 40.5528 32.0101 40.5528C32.2635 40.5528 32.478 40.8452 32.5511 41.2498H36.3891L37.3615 31.0059H26.6562H26.6587Z" stroke="#7C6656" stroke-width="0.75" stroke-linecap="round" stroke-linejoin="round"/>
<path d="M37.6076 33.8185L37.9 31.0059H26.125L26.4174 33.8185H37.6076Z" fill="#E5CEBC" stroke="#7C6656" stroke-width="0.75" stroke-linecap="round" stroke-linejoin="round"/>
<path d="M31.75 29.1805C31.75 29.1805 35.1519 29.5729 36.1388 26.4922" stroke="#7C6656" stroke-width="0.75" stroke-linecap="round" stroke-linejoin="round"/>
<path d="M34.2344 28.8711C34.2344 28.8711 35.6746 29.4754 36.4958 28.8711" stroke="#7C6656" stroke-width="0.75" stroke-linecap="round" stroke-linejoin="round"/>
<path d="M35.5376 21.5391C35.0235 22.3653 34.0901 23.1891 32.4062 23.1891" stroke="#7C6656" stroke-width="0.75" stroke-linecap="round" stroke-linejoin="round"/>
<path d="M32.405 25.1012C32.405 25.1012 29.5027 25.1012 28.5938 22.832" stroke="#7C6656" stroke-width="0.75" stroke-linecap="round" stroke-linejoin="round"/>
<path d="M31.488 29.9777C31.488 29.9777 29.0219 30.1775 27.9375 28.0254" stroke="#7C6656" stroke-width="0.75" stroke-linecap="round" stroke-linejoin="round"/>
<path d="M31.0773 25.1006C31.0773 25.1006 30.6118 26.0804 29.7148 25.822" stroke="#7C6656" stroke-width="0.75" stroke-linecap="round" stroke-linejoin="round"/>
<path d="M37.6246 28.6908C37.6246 28.6908 39.4109 29.1685 38.9162 31.2134C38.9162 31.2134 38.3825 30.9453 38.034 30.8721C37.2981 30.7186 36.1089 30.6625 36.1016 29.5438C36.0943 28.2374 37.6246 28.6932 37.6246 28.6932V28.6908Z" fill="#BCDD94"/>
<path d="M27.6392 29.2513C27.6392 29.2513 26.3354 29.9605 27.1079 31.4619C27.1079 31.4619 27.4735 31.1524 27.7318 31.0281C28.2776 30.7697 29.1963 30.5016 28.9892 29.6266C28.7504 28.6054 27.6392 29.2489 27.6392 29.2489V29.2513Z" fill="#BCDD94"/>
<path d="M36.5759 27.1865C36.5759 27.1865 38.1209 26.0092 39.5002 27.7373C39.5002 27.7373 38.8861 27.886 38.5279 28.0736C38.2306 28.2296 38.1648 28.5903 37.8504 28.8755C37.424 29.2606 36.6831 29.5116 36.2396 28.9998C35.4013 28.0346 36.5735 27.1865 36.5735 27.1865H36.5759Z" fill="#97CB5B"/>
<path d="M29.1222 24.6735C29.1222 24.6735 27.6552 23.7595 26.5781 25.4022C26.5781 25.4022 27.1021 25.5948 27.375 25.7849C27.9501 26.1895 28.7469 26.967 29.517 26.2553C30.4138 25.4266 29.1247 24.671 29.1247 24.671L29.1222 24.6735Z" fill="#91C852"/>
<path d="M29.304 25.8459C29.304 25.8459 28.01 26.3699 28.5705 27.8542C28.5705 27.8542 28.9458 27.6032 29.1992 27.5154C29.7353 27.3302 30.6223 27.1815 30.5248 26.3407C30.4103 25.3609 29.304 25.8434 29.304 25.8434V25.8459Z" fill="#BCDD94"/>
<path d="M34.4669 22.0385C34.4669 22.0385 34.8276 20.6907 33.3045 20.2422C33.3045 20.2422 33.2802 20.6907 33.1949 20.949C33.0194 21.4901 32.6052 22.2871 33.3338 22.7136C34.1867 23.2108 34.4645 22.0385 34.4645 22.0385H34.4669Z" fill="#99CC5F"/>
<path d="M31.743 16.6947C31.3847 16.0488 30.505 15.6564 29.7886 16.2536C29.1599 16.7824 29.0868 17.8378 29.6546 18.6933C30.1005 19.3635 30.8486 19.8681 31.6114 20.18C31.7283 20.2288 31.8599 20.2264 31.9769 20.1752C32.7299 19.8413 33.4634 19.3148 33.8874 18.6299C34.4308 17.7622 34.3236 16.7045 33.6778 16.1999C32.9443 15.6223 32.0744 16.0391 31.743 16.6947Z" fill="#EE7474"/>
<path d="M36.951 20.3918C37.1143 19.9239 36.9169 19.3048 36.298 19.2122C35.7497 19.1342 35.1867 19.568 35.0137 20.2383C34.8772 20.7623 34.9577 21.3643 35.1429 21.8883C35.1721 21.9687 35.2306 22.0346 35.3086 22.0687C35.813 22.2978 36.4076 22.4318 36.9388 22.3368C37.6187 22.2198 38.1012 21.6933 38.0647 21.1425C38.0257 20.5137 37.4262 20.2651 36.9486 20.3918H36.951Z" fill="#EE7474"/>
<path d="M27.3981 22.4224C26.9034 22.3737 26.3502 22.7125 26.4063 23.3389C26.4599 23.8897 27.0155 24.3333 27.7076 24.343C28.2486 24.3528 28.8139 24.1286 29.2794 23.8263C29.35 23.78 29.3988 23.7069 29.4158 23.6216C29.5182 23.0756 29.506 22.4688 29.2891 21.974C29.0137 21.3427 28.3875 20.9966 27.8635 21.1624C27.2616 21.35 27.1617 21.991 27.3981 22.4249V22.4224Z" fill="#EE7474"/>
<path d="M26.4672 27.4916C25.931 27.4404 25.334 27.806 25.3949 28.4836C25.4534 29.0807 26.0553 29.5608 26.8034 29.573C27.3907 29.5828 28.0024 29.3415 28.5068 29.0124C28.5848 28.9613 28.6384 28.8808 28.6555 28.7906C28.7651 28.2008 28.753 27.5428 28.519 27.0041C28.2217 26.3192 27.5443 25.9463 26.974 26.1242C26.3234 26.3265 26.2137 27.0212 26.472 27.4916H26.4672Z" fill="#EE7474"/>
<path d="M37.4082 24.9878C37.4521 24.4516 37.0793 23.8569 36.4018 23.9276C35.8048 23.9934 35.3345 24.6028 35.332 25.351C35.332 25.9384 35.5782 26.5477 35.9144 27.0449C35.9656 27.1205 36.046 27.1741 36.1386 27.1887C36.7308 27.2911 37.3888 27.2716 37.9224 27.0279C38.6023 26.7208 38.9679 26.0383 38.7802 25.4704C38.5706 24.8221 37.8737 24.7222 37.4082 24.9854V24.9878Z" fill="#EE7474"/>
<path d="M24.4141 29.0049L26.6999 29.346" stroke="#A1DAF8" stroke-width="0.75" stroke-linecap="round" stroke-linejoin="round"/>
<path d="M24.3086 29.3145L26.5115 30.277" stroke="#A1DAF8" stroke-width="0.75" stroke-linecap="round" stroke-linejoin="round"/>
<path d="M24.1562 29.6045L26.0838 31.0398" stroke="#A1DAF8" stroke-width="0.75" stroke-linecap="round" stroke-linejoin="round"/>
<defs>
<filter id="filter0_f_323_6140" x="23.7852" y="16.2627" width="5.64453" height="3.99316" filterUnits="userSpaceOnUse" color-interpolation-filters="sRGB">
<feFlood flood-opacity="0" result="BackgroundImageFix"/>
<feBlend mode="normal" in="SourceGraphic" in2="BackgroundImageFix" result="shape"/>
<feGaussianBlur stdDeviation="0.375" result="effect1_foregroundBlur_323_6140"/>
</filter>
<filter id="filter1_f_323_6140" x="12.3398" y="14.8672" width="5.64453" height="3.99316" filterUnits="userSpaceOnUse" color-interpolation-filters="sRGB">
<feFlood flood-opacity="0" result="BackgroundImageFix"/>
<feBlend mode="normal" in="SourceGraphic" in2="BackgroundImageFix" result="shape"/>
<feGaussianBlur stdDeviation="0.375" result="effect1_foregroundBlur_323_6140"/>
</filter>
</defs>
</svg>
