<svg width="65" height="46" viewBox="0 0 65 46" fill="none" xmlns="http://www.w3.org/2000/svg">
<ellipse cx="32" cy="41.5" rx="32" ry="3.75" fill="#EEEEEE"/>
<path d="M35.954 17.6003L36.7052 18.3547L37.5817 20.3667H37.0809L35.8288 21.1212L35.4531 22.7559L35.7035 24.2649L36.8304 24.7679L40.3363 25.5224L42.0893 27.7859L42.8405 31.4326V32.8158L43.2162 33.0673V34.0733V38.6002H44.4683L44.5935 40.2349L44.0926 40.7379V41.8697L45.3447 42.4984L46.7221 42.3727L47.4733 41.9954L47.8489 40.9894L47.9742 38.3487H49.9775L50.4784 40.4864L50.1027 41.2409L50.2279 42.2469L51.3548 42.7499L52.7321 42.3727L53.4834 41.8697L53.7338 40.7379L53.4834 38.6002L54.7355 38.3487V33.0673L55.3616 32.8158L54.8607 28.6661L54.3599 25.6481L55.3616 25.8996H58.3666L61.2465 25.1452L62.2481 24.3907L61.4969 23.8877L63.2498 21.8757L63.8759 19.3607L64.0011 15.9655L63.5002 12.9476L62.9994 10.5584L61.9977 8.0434L60.4952 5.90568L58.9927 4.77394L57.8658 4.1452L56.7389 3.01347L55.4868 2.00748L52.3565 1.0015L48.3498 0.75L44.7187 1.37874L41.8389 2.51048L39.4599 4.01945L37.4565 6.28292L36.7052 7.91765L35.954 10.9356V12.0673H36.4548L36.8304 12.5703L35.954 13.9536L35.4531 15.5883L35.954 17.6003Z" fill="white"/>
<path d="M27.6885 10.684C28.0892 12.3942 27.6885 13.9954 27.4381 14.5822L27.6885 15.714L27.8137 17.223L27.4381 19.2349L25.8103 21.6241L23.6818 24.2649L21.5532 29.169L21.3028 30.5523L22.1792 33.3187L22.5549 35.4564L20.8019 35.5822V38.7259V39.4804L21.428 40.4864L21.3028 41.4924L20.4263 41.8696L18.6733 41.7439L17.5465 41.2409L17.4212 40.1091L17.6717 38.2229V35.4564H16.2943L14.6666 38.4744L13.9154 39.7319L14.0406 40.8636L13.5397 41.4924L12.6632 41.6181L11.6616 41.2409L10.7851 40.4864L10.6599 39.4804L11.0355 38.6002L11.912 37.3427L12.7885 35.5822H11.4111L12.2876 31.0553V30.4265C9.08223 31.4325 3.77332 31.0972 1.51953 30.8038L2.02037 29.169L2.52121 26.0253L2.77163 21.8756L2.52121 18.3547L2.14558 16.0912L2.02037 13.199L2.27079 9.92956L3.27248 7.91759L4.14895 6.78585L6.90357 4.39664L9.40778 2.76191L10.6599 2.51041L13.2893 1.63017L16.4196 1.25293L19.675 1.88167L21.9288 2.51041L23.807 3.64215L25.4347 5.02538L26.9372 7.79184C27.0207 8.04333 27.2878 8.97387 27.6885 10.684Z" fill="white"/>
<path d="M42.9679 34.9863C42.7576 33.7967 41.6081 32.7228 40.1858 33.2661C38.9337 33.7515 38.265 35.3459 38.6907 36.9706C39.0238 38.2457 39.9128 39.4252 40.922 40.313C41.0773 40.4488 41.2826 40.5167 41.4879 40.4991C42.8252 40.3809 44.2351 39.9559 45.2493 39.1234C46.5439 38.0671 46.9421 36.372 46.2109 35.2504C45.3845 33.9652 43.8244 34.1488 42.9654 34.9888L42.9679 34.9863Z" fill="#F29AA0"/>
<path d="M29.7823 35.6233C29.6772 34.5443 28.7256 33.5031 27.4159 33.8854C26.2614 34.2325 25.5502 35.6107 25.8182 37.0945C26.026 38.2589 26.7372 39.3756 27.5811 40.2432C27.7113 40.3765 27.8891 40.452 28.0745 40.4495C29.279 40.4394 30.5712 40.1603 31.5378 39.4837C32.7724 38.6312 33.2456 37.1423 32.6722 36.086C32.0236 34.8763 30.6137 34.9316 29.7873 35.6233H29.7823Z" fill="#EF84A1"/>
<path d="M5.10217 37.3822C4.57629 36.9043 3.65474 36.8238 3.18896 37.5934C2.78327 38.275 3.04622 39.2583 3.83003 39.8594C4.44356 40.3322 5.28247 40.556 6.0738 40.6013C6.19651 40.6089 6.31421 40.5661 6.40436 40.4831C6.98283 39.9424 7.48617 39.2307 7.65646 38.4737C7.87683 37.5104 7.45111 36.5799 6.70737 36.3234C5.85844 36.0266 5.19983 36.6805 5.10467 37.3822H5.10217Z" fill="#F3A4B8"/>
<path d="M37.3599 37.4285C36.6838 37.0663 35.6971 37.2223 35.4091 38.1528C35.1587 38.9727 35.6921 39.9359 36.6687 40.3609C37.435 40.6954 38.3741 40.7105 39.213 40.5496C39.3432 40.5244 39.4559 40.449 39.5285 40.3383C39.9943 39.619 40.3374 38.7413 40.3199 37.9038C40.3023 36.8375 39.6112 35.9723 38.7648 35.8969C37.7981 35.8089 37.2773 36.6665 37.3599 37.4285Z" fill="#F5B3D1"/>
<path d="M24.0667 37.0586C23.6836 36.3921 22.762 36.0023 22.0283 36.6386C21.3847 37.202 21.3296 38.3035 21.9356 39.1838C22.4114 39.8729 23.1977 40.3859 23.9966 40.6952C24.1193 40.743 24.257 40.738 24.3747 40.6827C25.151 40.3205 25.9023 39.7572 26.328 39.0354C26.8739 38.1199 26.7437 37.0184 26.0626 36.5078C25.2888 35.9193 24.3948 36.372 24.0642 37.0611L24.0667 37.0586Z" fill="#F4AECE"/>
<path d="M26.231 21.3877C26.231 21.3877 27.0774 24.4836 26.2109 29.1866" stroke="#7C6656" stroke-width="0.75" stroke-linecap="round" stroke-linejoin="round"/>
<path d="M23.4678 24.9141C23.4678 24.9141 23.4578 27.258 22.8242 28.4551" stroke="#7C6656" stroke-width="0.75" stroke-linecap="round" stroke-linejoin="round"/>
<path d="M19.747 31.123C19.7095 33.0923 20.8313 34.5359 20.8138 35.9467C20.7913 38.0367 20.621 39.4199 20.621 39.4199" stroke="#7C6656" stroke-width="0.75" stroke-linecap="round" stroke-linejoin="round"/>
<path d="M21.606 26.9307C21.606 26.9307 21.8689 28.3868 21.1953 30.5824" stroke="#7C6656" stroke-width="0.75" stroke-linecap="round" stroke-linejoin="round"/>
<path d="M17.5553 35.125C17.5553 35.125 17.8558 37.1269 17.4676 39.7198C17.3575 40.4592 17.6805 41.0578 17.8808 41.2691C18.582 42.0059 20.5804 41.9959 21.1313 41.4501C21.6822 40.9069 21.2966 39.8984 20.7206 39.4658" stroke="#7C6656" stroke-width="0.75" stroke-linecap="round" stroke-linejoin="round"/>
<path d="M14.9375 24.9589L17.329 26.5559L19.4175 24.7275" stroke="#7C6656" stroke-width="0.75" stroke-linecap="round" stroke-linejoin="round"/>
<g filter="url(#filter0_f_323_6051)">
<ellipse cx="2.09447" cy="1.22929" rx="2.09447" ry="1.22929" transform="matrix(0.999022 -0.0442186 0.0419552 0.99912 20.8203 16.0254)" fill="#F5B0B0"/>
</g>
<g filter="url(#filter1_f_323_6051)">
<ellipse cx="2.09447" cy="1.22929" rx="2.09447" ry="1.22929" transform="matrix(0.999022 -0.0442186 0.0419552 0.99912 9.28125 16.877)" fill="#F5B0B0"/>
</g>
<path d="M14.2279 15.4357C14.2855 16.1022 13.7971 16.6882 13.1335 16.746C12.4699 16.8038 11.8864 16.3134 11.8288 15.647C11.7712 14.9805 12.2596 14.3945 12.9232 14.3367C13.5868 14.2788 14.1703 14.7692 14.2279 15.4357Z" fill="#7C6656"/>
<path d="M22.4583 14.6349C22.5159 15.3014 22.0276 15.8874 21.364 15.9452C20.7004 16.0031 20.1169 15.5126 20.0593 14.8462C20.0017 14.1797 20.49 13.5937 21.1536 13.5359C21.8173 13.478 22.4007 13.9685 22.4583 14.6349Z" fill="#7C6656"/>
<path d="M15.6016 18.5338C15.6016 18.5338 15.9622 21.68 18.1709 21.5165C20.029 21.3807 19.6609 17.9805 19.6609 17.9805L15.6016 18.5338Z" fill="#F29AA0" stroke="#7C6656" stroke-width="0.75" stroke-linecap="round" stroke-linejoin="round"/>
<path d="M17.6602 40.6094C17.6602 40.6094 19.4081 41.6128 21.434 40.7376" stroke="#7C6656" stroke-width="0.75" stroke-linecap="round" stroke-linejoin="round"/>
<path d="M13.7972 39.7189C13.7972 39.7189 14.0226 40.4281 13.7972 41.0191C13.5719 41.6101 12.9809 42.0301 11.9541 41.3612C10.0034 40.0911 10.5192 38.8613 11.4157 37.9106C12.7279 36.5199 12.9934 34.0879 12.9934 34.0879" stroke="#7C6656" stroke-width="0.75" stroke-linecap="round" stroke-linejoin="round"/>
<path d="M13.7969 39.7191C13.7969 39.7191 16.2034 36.8344 16.2034 34.5332" stroke="#7C6656" stroke-width="0.75" stroke-linecap="round" stroke-linejoin="round"/>
<path d="M13.7983 41.0202C13.7983 41.0202 12.2157 41.1761 10.8008 39.1113" stroke="#7C6656" stroke-width="0.75" stroke-linecap="round" stroke-linejoin="round"/>
<path d="M12.2592 30.8671L21.3019 30.7188C21.3019 30.7188 22.2535 32.854 22.4914 35.4645L14.4278 35.4997H11.3477C11.3477 35.4997 11.7233 32.6779 12.2592 30.8646V30.8671Z" fill="#F3A2AD" stroke="#7C6656" stroke-width="0.75" stroke-linecap="round" stroke-linejoin="round"/>
<path d="M15.9609 5.52344C15.9609 5.52344 18.0469 9.1802 16.9776 12.1076" stroke="#7C6656" stroke-width="0.75" stroke-linecap="round" stroke-linejoin="round"/>
<path d="M17.1602 6.20996C17.1602 6.20996 21.1819 6.89906 21.7754 11.2474" stroke="#7C6656" stroke-width="0.75" stroke-linecap="round" stroke-linejoin="round"/>
<path d="M4.74687 14.9873C4.70931 19.2829 6.03404 21.7048 7.7369 22.8868C10.5341 24.8309 13.9473 24.7932 16.747 24.6951" stroke="#7C6656" stroke-width="0.75" stroke-linecap="round" stroke-linejoin="round"/>
<path d="M18.5 24.5423C25.5594 23.8029 27.4926 20.1285 27.7505 17.5758C28.0085 15.0206 26.859 13.1218 26.5736 12.5082C26.546 12.0454 26.2956 10.3377 25.8223 9.32422" stroke="#7C6656" stroke-width="0.75" stroke-linecap="round" stroke-linejoin="round"/>
<path d="M9.00391 3.05365C9.00391 3.05365 13.5365 0.433061 19.3388 1.78863C25.141 3.14419 27.4424 6.76071 27.7754 11.0412" stroke="#7C6656" stroke-width="0.75" stroke-linecap="round" stroke-linejoin="round"/>
<path d="M4.87066 6.16504C4.87066 6.16504 1.05926 7.77713 2.34141 16.3909C3.4633 23.9131 2.07597 29.2901 1.5 30.7941" stroke="#7C6656" stroke-width="0.75" stroke-linecap="round" stroke-linejoin="round"/>
<path d="M7.60483 24.0039C7.60483 24.0039 8.1232 28.644 6.87109 31.1238" stroke="#7C6656" stroke-width="0.75" stroke-linecap="round" stroke-linejoin="round"/>
<path d="M12.2996 8.57617C12.2996 8.57617 12.1368 13.9758 4.53906 14.9642" stroke="#7C6656" stroke-width="0.75" stroke-linecap="round" stroke-linejoin="round"/>
<path d="M6.51209 4.80915C6.51209 4.80915 7.34098 2.54065 9.0814 2.34449C10.8218 2.14832 11.0823 4.14771 9.8527 5.28951C9.8527 5.28951 12.0764 4.56017 11.9287 6.48412C11.7684 8.56399 9.22164 8.35777 9.22164 8.35777C9.22164 8.35777 9.90028 10.2339 7.98707 11.3933C6.07385 12.5527 5.78837 9.78124 5.78837 9.78124C5.78837 9.78124 4.95197 11.4914 3.88768 10.5936C2.82339 9.69824 3.01121 8.08866 4.27834 7.65106C4.27834 7.65106 2.68065 7.08519 3.66481 5.19646C4.40104 3.78053 6.02377 3.17694 6.50958 4.81167L6.51209 4.80915Z" fill="#F5B1B1" stroke="#7C6656" stroke-width="0.75" stroke-linecap="round" stroke-linejoin="round"/>
<path d="M5.49469 8.4634C6.04311 8.96639 7.02977 8.78029 7.69589 8.04592C8.36451 7.31155 8.45967 6.30808 7.91375 5.80508C7.36533 5.30209 6.37867 5.4882 5.71256 6.22257C5.04393 6.95694 4.94877 7.96041 5.49469 8.4634Z" fill="white"/>
<path d="M12.2574 30.8669C11.8242 28.4551 11.8242 24.7832 11.8242 24.7832" stroke="#7C6656" stroke-width="0.75" stroke-linecap="round" stroke-linejoin="round"/>
<path d="M26.7483 22.1702C26.6857 20.1281 25.028 18.0482 22.5162 18.604C20.305 19.107 18.7925 21.6094 19.108 24.4337C19.3534 26.6494 20.5504 28.8399 22.0254 30.5778C22.2533 30.8443 22.5763 31.0078 22.9269 31.0279C25.1932 31.1612 27.6574 30.7991 29.5581 29.6523C31.9846 28.2036 33.0614 25.4674 32.1149 23.4101C31.0456 21.0561 28.3886 20.9781 26.7483 22.1728V22.1702Z" fill="#EE7474"/>
<path d="M12.7969 28.007C17.3696 31.1181 20.322 26.5056 20.322 26.5056C20.322 26.5056 22.8963 26.6037 22.5257 23.963C22.2202 21.7875 19.8287 21.6593 19.0098 22.2377C18.1909 22.8162 17.5949 24.0359 18.0782 25.1249C18.0782 25.1249 17.62 26.5182 14.7602 25.4896" fill="white"/>
<path d="M12.7578 27.9143C12.7578 27.9143 13.6418 28.4827 13.9348 28.5204C14.2578 28.0728 15.54 25.6509 15.54 25.6509L14.5809 25.4346C14.5809 25.4346 14.4907 25.6257 14.0174 26.3475C13.5416 27.0693 12.7578 27.9143 12.7578 27.9143Z" fill="white"/>
<path d="M12.7969 28.007C17.3696 31.1181 20.322 26.5056 20.322 26.5056C20.322 26.5056 22.8963 26.6037 22.5257 23.963C22.2202 21.7875 19.8287 21.6593 19.0098 22.2377C18.1909 22.8162 17.5949 24.0359 18.0782 25.1249C18.0782 25.1249 17.62 26.5182 14.7602 25.4896" stroke="#7C6656" stroke-width="0.75" stroke-linecap="round" stroke-linejoin="round"/>
<path d="M15.4446 25.8193L13.9922 28.4324" stroke="#7C6656" stroke-width="0.75" stroke-linecap="round" stroke-linejoin="round"/>
<path d="M11.8496 26.0254C11.8496 26.0254 11.8847 28.7944 11.3438 30.5825" stroke="#7C6656" stroke-width="0.75" stroke-linecap="round" stroke-linejoin="round"/>
<path d="M36.6612 18.5359C36.6612 18.5359 34.1144 16.2096 36.7213 12.5855C35.9174 12.4145 35.8799 12.4095 35.9375 11.9492C35.9926 11.489 35.8097 7.00481 40.0093 3.69763C42.0627 1.89692 47.0236 -0.185471 53.4844 1.20279C57.6114 2.27668 57.8142 4.24087 57.8142 4.24087C57.8142 4.24087 61.2024 5.1211 63.0079 10.9005C64.4453 16.2674 64.2675 20.1229 62.7901 22.5297C62.0338 23.3823 61.1949 23.7947 61.1949 23.7947C61.1949 23.7947 61.3952 24.3229 62.0814 24.348C61.0947 25.0648 57.371 26.9711 53.3968 25.276C51.6063 25.5979 47.2364 25.686 45.218 24.9918C43.1796 24.7605 40.1821 23.5407 38.5118 21.6117C36.8415 19.6827 36.6587 18.5384 36.6587 18.5384L36.6612 18.5359Z" fill="white"/>
<path d="M44.5078 38.4414C44.5955 39.2889 44.5654 40.3151 44.5654 40.3151" stroke="#7C6656" stroke-width="0.75" stroke-linecap="round" stroke-linejoin="round"/>
<path d="M44.8251 40.3056C44.8251 40.3056 44.0163 40.5395 43.9787 41.1607C43.9411 41.7819 44.3869 42.5615 46.0772 42.5137C47.7676 42.466 47.7926 41.3367 47.8577 39.6542C47.9228 37.9994 47.8577 35.5498 47.8577 35.5498" stroke="#7C6656" stroke-width="0.75" stroke-linecap="round" stroke-linejoin="round"/>
<path d="M50.0938 38.7637C50.3066 39.5886 50.4293 40.6071 50.4293 40.6071" stroke="#7C6656" stroke-width="0.75" stroke-linecap="round" stroke-linejoin="round"/>
<path d="M50.6789 40.5591C50.6789 40.5591 49.9126 40.9112 49.9677 41.5324C50.0228 42.1511 50.5787 42.8553 52.244 42.5535C53.9093 42.2517 53.7641 41.1326 53.5787 39.4576C53.3959 37.8128 52.9677 35.3984 52.9677 35.3984" stroke="#7C6656" stroke-width="0.75" stroke-linecap="round" stroke-linejoin="round"/>
<path d="M54.6301 31.4004L54.828 37.9971C54.853 38.2436 54.6602 38.4599 54.4123 38.4599L43.4989 38.4901C43.2635 38.4901 43.0732 38.2964 43.0782 38.06L43.2335 33.0829" fill="white"/>
<path d="M54.6301 31.4004L54.828 37.9971C54.853 38.2436 54.6602 38.4599 54.4123 38.4599L43.4989 38.4901C43.2635 38.4901 43.0732 38.2964 43.0782 38.06L43.2335 33.0829" stroke="#7C6656" stroke-width="0.75" stroke-linecap="round" stroke-linejoin="round"/>
<path d="M54.0637 24.8135C54.0637 24.8135 55.3584 30.535 55.3083 32.9268C53.2473 33.2235 49.4509 33.7667 49.4509 33.7667C49.4509 33.7667 48.875 33.9126 48.6095 33.1933C48.4067 33.475 48.1538 33.8397 47.5402 33.7341C46.9267 33.6284 42.8398 32.9268 42.8398 32.9268C42.8398 32.9268 43.511 27.1599 43.6963 25.0725C44.8482 25.2435 45.5544 25.5177 45.5544 25.4372C45.5544 25.3567 48.0987 27.7157 48.9576 27.3863C49.8166 27.0568 51.7273 25.5353 51.5946 25.49C51.4643 25.4447 54.0637 24.8135 54.0637 24.8135Z" fill="#E5BEC3"/>
<path d="M51.3359 18.1738C51.3359 18.1738 51.7466 18.7372 51.942 19.3835" stroke="#7C6656" stroke-width="0.75" stroke-linecap="round" stroke-linejoin="round"/>
<g filter="url(#filter2_f_323_6051)">
<ellipse cx="2.17026" cy="1.2736" rx="2.17026" ry="1.2736" transform="matrix(0.991078 0.133287 -0.13404 0.990976 52.3516 16.8359)" fill="#F5B0B0"/>
</g>
<g filter="url(#filter3_f_323_6051)">
<ellipse cx="2.17026" cy="1.2736" rx="2.17026" ry="1.2736" transform="matrix(0.991078 0.133287 -0.13404 0.990976 40.4258 15.5879)" fill="#F5B0B0"/>
</g>
<path d="M54.2192 15.8398C54.2192 15.8398 53.2225 14.6879 51.5547 15.4525" stroke="#7C6656" stroke-width="0.75" stroke-linecap="round" stroke-linejoin="round"/>
<path d="M45.0059 15.658C45.5512 15.2109 45.6323 14.4044 45.1871 13.8568C44.7419 13.3091 43.9389 13.2277 43.3936 13.6748C42.8483 14.1219 42.7672 14.9283 43.2124 15.476C43.6576 16.0236 44.4606 16.1051 45.0059 15.658Z" fill="#7C6656"/>
<path d="M44.9492 18.4707C44.9492 18.4707 45.9058 19.9244 47.8666 20.123C49.8274 20.3217 50.9869 19.0844 50.9869 19.0844" stroke="#7C6656" stroke-width="0.75" stroke-linecap="round" stroke-linejoin="round"/>
<path d="M38.0411 12.6641C37.5152 13.5267 36.3658 15.2972 36.5712 17.6211C36.8091 20.3246 38.9376 23.0961 43.4953 24.5724C43.4953 24.5724 45.9644 25.3194 47.1639 25.3973" stroke="#7C6656" stroke-width="0.75" stroke-linecap="round" stroke-linejoin="round"/>
<path d="M49.0977 25.5983C51.4967 25.9202 56.0293 24.9193 58.3257 23.4908C59.4751 22.7765 60.7998 21.5718 61.0602 18.7148" stroke="#7C6656" stroke-width="0.75" stroke-linecap="round" stroke-linejoin="round"/>
<path d="M41.3832 7.30859C41.3832 7.30859 37.8072 11.8959 35.9141 12.1977" stroke="#7C6656" stroke-width="0.75" stroke-linecap="round" stroke-linejoin="round"/>
<path d="M43.5284 26.9409C43.5284 26.9409 42.702 32.4336 42.8397 32.929L47.7029 33.764C47.9733 33.8093 48.2463 33.6986 48.4066 33.4748L48.6094 33.1931L48.7196 33.3968C48.8623 33.6609 49.1553 33.8093 49.4533 33.7665L55.3107 32.9265C55.4484 32.4311 54.4141 25.5225 54.4141 25.5225" stroke="#7C6656" stroke-width="0.75" stroke-linecap="round" stroke-linejoin="round"/>
<path d="M45.5508 25.3564C45.5508 25.3564 47.3989 27.1647 48.6059 27.3709C49.8129 27.5772 51.661 25.5224 51.661 25.5224" stroke="#7C6656" stroke-width="0.75" stroke-linecap="round" stroke-linejoin="round"/>
<path d="M48.2518 28.7144C47.9037 29.245 48.4696 29.8134 48.998 29.4638C49.0281 29.4437 49.0531 29.4186 49.0731 29.3884C49.4212 28.8577 48.8553 28.2893 48.3269 28.6389C48.2968 28.659 48.2718 28.6842 48.2518 28.7144Z" fill="#7C6656"/>
<path d="M48.2518 31.1636C47.9037 31.6943 48.4696 32.2626 48.998 31.9131C49.0281 31.8929 49.0531 31.8678 49.0731 31.8376C49.4212 31.307 48.8553 30.7386 48.3269 31.0881C48.2968 31.1083 48.2718 31.1334 48.2518 31.1636Z" fill="#7C6656"/>
<path d="M53.6839 41.0371L49.9727 41.53" stroke="#7C6656" stroke-width="0.75" stroke-linecap="round" stroke-linejoin="round"/>
<path d="M44.1406 41.1309L47.4862 41.2566" stroke="#7C6656" stroke-width="0.75" stroke-linecap="round" stroke-linejoin="round"/>
<path d="M38.0411 12.6641C37.5152 13.5267 36.3658 15.2972 36.5712 17.6211C36.8091 20.3246 38.9376 23.0961 43.4953 24.5724C43.4953 24.5724 45.9644 25.3194 47.1639 25.3973" stroke="#7C6656" stroke-width="0.75" stroke-linecap="round" stroke-linejoin="round"/>
<path d="M49.0977 25.5983C51.4967 25.9202 56.0293 24.9193 58.3257 23.4908C59.4751 22.7765 60.7998 21.5718 61.0602 18.7148" stroke="#7C6656" stroke-width="0.75" stroke-linecap="round" stroke-linejoin="round"/>
<path d="M54.0234 8.50308C54.0234 8.50308 58.3056 7.78883 58.7188 13.0703C59.132 18.3517 61.9342 19.2495 61.9342 19.2495" stroke="#7C6656" stroke-width="0.75" stroke-linecap="round" stroke-linejoin="round"/>
<path d="M56.7015 4.9248C56.7015 4.9248 55.2892 7.90755 54.0195 8.5036" stroke="#7C6656" stroke-width="0.75" stroke-linecap="round" stroke-linejoin="round"/>
<path d="M54.9483 7.46527C54.9483 7.46527 54.9332 5.19929 51.9082 4.81701C48.8831 4.43474 45.8805 5.85569 43.0257 8.77054C40.2911 11.5621 38.3679 13.0736 36.8203 12.548" stroke="#7C6656" stroke-width="0.75" stroke-linecap="round" stroke-linejoin="round"/>
<path d="M54.0241 8.50364C54.0241 8.50364 53.3304 5.37503 49.9297 6.4288" stroke="#7C6656" stroke-width="0.75" stroke-linecap="round" stroke-linejoin="round"/>
<path d="M61.5824 23.6867C63.9814 22.3739 64.7402 17.4773 63.0999 11.2376C61.4597 4.99801 57.8912 4.40448 57.8912 4.40448C57.8912 4.40448 56.9296 1.87946 52.9253 1.13251C48.9211 0.385567 42.8734 0.715027 38.724 4.80939C35.9994 7.5004 35.9844 11.7507 35.9844 11.7507" stroke="#7C6656" stroke-width="0.75" stroke-linecap="round" stroke-linejoin="round"/>
<path d="M60.8292 22.8887C60.8292 22.8887 60.7916 24.0229 62.2641 24.4002C62.2641 24.4002 58.5378 27.0208 53.7773 25.4841" stroke="#7C6656" stroke-width="0.75" stroke-linecap="round" stroke-linejoin="round"/>
<path d="M41.3832 7.30859C41.3832 7.30859 37.8072 11.8959 35.9141 12.1977" stroke="#7C6656" stroke-width="0.75" stroke-linecap="round" stroke-linejoin="round"/>
<path d="M36.4427 13.1973C36.4427 13.1973 34.3066 15.6393 36.6605 18.5365" stroke="#7C6656" stroke-width="0.75" stroke-linecap="round" stroke-linejoin="round"/>
<path d="M45.7243 27.8611C40.5381 29.3952 37.8611 24.8909 37.8611 24.8909C37.8611 24.8909 35.3193 25.3184 35.3519 22.6526C35.3794 20.4545 37.7334 20.0219 38.6174 20.4897C39.5013 20.9575 40.2501 22.0917 39.9095 23.2335C39.9095 23.2335 40.2226 24.5036 43.5682 24.7878" fill="white"/>
<path d="M45.7243 27.8611C40.5381 29.3952 37.8611 24.8909 37.8611 24.8909C37.8611 24.8909 35.3193 25.3184 35.3519 22.6526C35.3794 20.4545 37.7334 20.0219 38.6174 20.4897C39.5013 20.9575 40.2501 22.0917 39.9095 23.2335C39.9095 23.2335 40.2226 24.5036 43.5682 24.7878" stroke="#7C6656" stroke-width="0.75" stroke-linecap="round" stroke-linejoin="round"/>
<path d="M42.4721 22.6181C41.3927 20.8626 38.8961 19.8868 36.9778 21.6473C35.2975 23.2091 35.2349 26.1642 36.9277 28.4704C38.255 30.2837 40.4036 31.5915 42.5672 32.3611C42.9003 32.4793 43.2659 32.4566 43.5814 32.2982C45.6299 31.2645 47.6032 29.7002 48.6875 27.7335C50.0798 25.2362 49.6466 22.2987 47.786 20.9783C45.6674 19.4618 43.306 20.7419 42.4721 22.6156V22.6181Z" fill="#EE7474"/>
<path d="M52.3555 26.6367C50.0416 28.2388 48.4764 27.9998 48.0057 27.8716C48.0057 27.8716 47.9255 29.7402 47.4297 30.4846C47.4297 30.4846 51.1735 32.1772 54.5466 28.284" fill="#E5BEC3"/>
<path d="M47.8019 27.8232C47.7043 27.7955 47.6542 27.7729 47.6542 27.7729C47.226 26.6613 45.9388 26.2312 44.9546 26.4073C43.9705 26.5833 42.3803 28.3815 43.7025 30.1294C45.3102 32.252 47.0507 30.3432 47.0507 30.3432C47.0507 30.3432 47.4714 30.3532 47.6141 29.8653C47.7544 29.38 47.8019 27.8207 47.8019 27.8207V27.8232Z" fill="white"/>
<path d="M54.5493 28.2843C51.1762 32.1774 47.0518 30.349 47.0518 30.349C47.0518 30.349 45.3088 32.2554 43.7036 30.1353C42.3789 28.3874 43.9716 26.5892 44.9557 26.4131C45.9399 26.2371 47.2245 26.6671 47.6553 27.7787C47.6553 27.7787 49.3581 28.5282 52.1528 26.5942" stroke="#7C6656" stroke-width="0.75" stroke-linecap="round" stroke-linejoin="round"/>
<path d="M47.8876 28.0879C47.8876 28.0879 47.7699 29.71 47.6172 30.1024" stroke="#7C6656" stroke-width="0.75" stroke-linecap="round" stroke-linejoin="round"/>
<defs>
<filter id="filter0_f_323_6051" x="20.1211" y="15.1797" width="5.6875" height="3.96289" filterUnits="userSpaceOnUse" color-interpolation-filters="sRGB">
<feFlood flood-opacity="0" result="BackgroundImageFix"/>
<feBlend mode="normal" in="SourceGraphic" in2="BackgroundImageFix" result="shape"/>
<feGaussianBlur stdDeviation="0.375" result="effect1_foregroundBlur_323_6051"/>
</filter>
<filter id="filter1_f_323_6051" x="8.58203" y="16.0312" width="5.6875" height="3.96289" filterUnits="userSpaceOnUse" color-interpolation-filters="sRGB">
<feFlood flood-opacity="0" result="BackgroundImageFix"/>
<feBlend mode="normal" in="SourceGraphic" in2="BackgroundImageFix" result="shape"/>
<feGaussianBlur stdDeviation="0.375" result="effect1_foregroundBlur_323_6051"/>
</filter>
<filter id="filter2_f_323_6051" x="51.4258" y="16.3418" width="5.8125" height="4.09082" filterUnits="userSpaceOnUse" color-interpolation-filters="sRGB">
<feFlood flood-opacity="0" result="BackgroundImageFix"/>
<feBlend mode="normal" in="SourceGraphic" in2="BackgroundImageFix" result="shape"/>
<feGaussianBlur stdDeviation="0.375" result="effect1_foregroundBlur_323_6051"/>
</filter>
<filter id="filter3_f_323_6051" x="39.5" y="15.0938" width="5.8125" height="4.09082" filterUnits="userSpaceOnUse" color-interpolation-filters="sRGB">
<feFlood flood-opacity="0" result="BackgroundImageFix"/>
<feBlend mode="normal" in="SourceGraphic" in2="BackgroundImageFix" result="shape"/>
<feGaussianBlur stdDeviation="0.375" result="effect1_foregroundBlur_323_6051"/>
</filter>
</defs>
</svg>
