<svg width="61" height="46" viewBox="0 0 61 46" fill="none" xmlns="http://www.w3.org/2000/svg">
<path d="M14.6225 24.549V25.9787L14.3626 25.8487L13.0629 27.0185L12.543 28.8381L12.8029 30.0079L13.3228 31.0477L12.9329 33.7771L14.1027 34.1671L13.8427 35.8567L14.4926 38.0663L15.1424 38.9761L17.8719 40.1458H18.5218L19.4316 39.366L19.6915 38.4562L19.8215 37.9363L19.6915 37.5464H19.0416L17.8719 36.5066L18.1318 36.2466H20.0814L19.9515 40.0159V41.5755L20.2114 43.2652L21.5111 44.045H23.4607L24.1106 43.6551L24.5005 43.0053L24.3706 42.2254L23.7207 41.7055V40.1458L24.1106 37.2864L24.5005 35.2068L26.3202 34.557L26.5801 34.297V32.4774L28.1398 30.7877L28.5297 30.2678V29.0981L28.1398 27.7983L26.97 26.7586L25.8003 24.2891L14.6225 24.549Z" fill="white"/>
<path d="M15.0257 25.6211C15.0257 25.6211 12.9461 25.8239 12.5172 28.3999C12.2 30.3053 14.1574 31.8364 14.1574 31.8364" stroke="#7C6656" stroke-width="0.75" stroke-linecap="round" stroke-linejoin="round"/>
<path d="M26.9394 26.5508C27.5528 26.8731 28.4678 27.6296 28.551 29.2724C28.6446 31.1181 26.5234 32.332 26.5234 32.332" stroke="#7C6656" stroke-width="0.75" stroke-linecap="round" stroke-linejoin="round"/>
<path d="M25.5563 28.7812C25.5563 28.7812 24.4489 35.2669 24.0278 37.6688C23.7184 39.4339 23.7574 41.6122 23.7574 41.6122" stroke="#7C6656" stroke-width="0.75" stroke-linecap="round" stroke-linejoin="round"/>
<path d="M23.5728 41.6046C23.5728 41.6046 24.4046 41.7423 24.4852 42.3922C24.5658 43.0395 24.3188 43.9805 22.6032 43.9077C19.9777 43.7959 19.9543 42.5768 20.0141 40.7415C20.0713 39.0051 20.1545 36.0651 20.1545 36.0651C20.1545 36.0651 19.0497 36.1353 18.0879 36.0547" stroke="#7C6656" stroke-width="0.75" stroke-linecap="round" stroke-linejoin="round"/>
<path d="M14.0884 34.3359C14.0884 34.3359 13.4931 36.1816 14.4549 37.9752C15.4167 39.7688 18.4165 40.0704 18.4165 40.0704C18.4165 40.0704 18.6635 41.1466 19.7006 41.2089C20.7378 41.2713 21.7568 40.5201 21.4917 38.5887C21.2239 36.6573 19.4355 37.5047 19.4355 37.5047C19.4355 37.5047 17.9928 37.3201 17.8784 35.919" fill="white"/>
<path d="M14.0884 34.3359C14.0884 34.3359 13.4931 36.1816 14.4549 37.9752C15.4167 39.7688 18.4165 40.0704 18.4165 40.0704C18.4165 40.0704 18.6635 41.1466 19.7006 41.2089C20.7378 41.2713 21.7568 40.5201 21.4917 38.5887C21.2239 36.6573 19.4355 37.5047 19.4355 37.5047C19.4355 37.5047 17.9928 37.3201 17.8784 35.919" stroke="#7C6656" stroke-width="0.75" stroke-linecap="round" stroke-linejoin="round"/>
<path d="M33.4947 38.555C33.8976 37.2501 33.2919 35.5761 31.5763 35.3811C30.0634 35.2199 28.5635 36.4755 28.1528 38.3263C27.8045 39.8964 28.1658 41.69 28.8182 43.1795C30.2999 43.845 32.0884 44.2297 33.6611 43.8918C35.5145 43.5018 36.7908 42.0071 36.6349 40.4995C36.4659 38.7786 34.7944 38.1547 33.4947 38.5524V38.555Z" fill="#EE7474"/>
<path d="M45.5493 42.6253C46.6879 42.7891 48.0006 42.069 47.9408 40.6159C47.8784 39.3344 46.6385 38.2504 45.045 38.1516C43.6933 38.0658 42.248 38.6013 41.0938 39.337C40.7325 40.6549 40.6467 42.1964 41.1302 43.4597C41.6969 44.9518 43.1058 45.8174 44.3405 45.4925C45.7495 45.126 46.0536 43.6547 45.5519 42.6279L45.5493 42.6253Z" fill="#EE7474"/>
<path d="M54.6516 43.3851C54.8232 44.5211 55.8916 45.5739 57.2641 45.0956C58.4728 44.6666 59.1539 43.1668 58.79 41.6097C58.4832 40.2917 57.5526 39.0622 56.5154 38.168C55.1481 38.2018 53.6482 38.5631 52.5799 39.3923C51.3139 40.3645 50.8928 41.9658 51.5609 43.0524C52.3173 44.2975 53.8146 44.1624 54.6542 43.3851H54.6516Z" fill="#EE7474"/>
<path d="M12.1562 37.666C12.1562 37.666 11.6155 39.2621 13.5339 40.1667" stroke="#7C6656" stroke-width="0.75" stroke-linecap="round" stroke-linejoin="round"/>
<path d="M10.9449 37.752C10.9449 37.752 10.0792 40.2526 12.9854 41.2119" stroke="#7C6656" stroke-width="0.75" stroke-linecap="round" stroke-linejoin="round"/>
<path d="M32.9844 34.3358C32.9844 34.3358 33.8552 34.0993 34.8612 35.3678" stroke="#7C6656" stroke-width="0.75" stroke-linecap="round" stroke-linejoin="round"/>
<path d="M41.4087 37.7734C41.4087 37.7734 39.8672 38.1738 39.8672 39.8504" stroke="#7C6656" stroke-width="0.75" stroke-linecap="round" stroke-linejoin="round"/>
<path d="M60.1183 41.5156C60.1183 41.5156 60.5212 43.2807 59.6504 43.9097L60.1183 41.5156Z" fill="#F95DC4"/>
<path d="M60.1183 41.5156C60.1183 41.5156 60.5212 43.2807 59.6504 43.9097" stroke="#7C6656" stroke-width="0.75" stroke-linecap="round" stroke-linejoin="round"/>
<path d="M26.3477 40.2559C26.3477 40.2559 26.3892 41.9585 27.4108 42.7124" stroke="#7C6656" stroke-width="0.75" stroke-linecap="round" stroke-linejoin="round"/>
<path d="M19.9114 37.666C19.9114 37.666 19.8178 39.2699 18.4141 40.0679" stroke="#7C6656" stroke-width="0.75" stroke-linecap="round" stroke-linejoin="round"/>
<path d="M23.7557 41.6118C23.7557 41.6118 22.0478 42.2617 20.418 41.5156" stroke="#7C6656" stroke-width="0.75" stroke-linecap="round" stroke-linejoin="round"/>
<path d="M15.1001 25.8322C15.1001 25.8322 13.1115 29.0062 12.8672 33.7216L17.8348 35.3203L19.1111 33.5059L20.0859 35.4373C20.0859 35.4373 24.5492 35.3437 26.7536 34.2753C26.7536 34.2753 25.8879 28.1068 25.4096 25.9336L21.9419 26.2975L19.0487 31.0338L17.9959 26.1598L15.2535 25.5801L15.1001 25.8322Z" fill="#7C9AC0" stroke="#7C6656" stroke-width="0.75" stroke-linecap="round" stroke-linejoin="round"/>
<path d="M18.4617 32.3551C18.4461 32.6411 18.6671 32.8854 18.953 32.8984C19.239 32.9114 19.4833 32.6931 19.4963 32.4071C19.5119 32.1212 19.2909 31.8768 19.005 31.8638C18.7191 31.8508 18.4747 32.0692 18.4617 32.3551Z" fill="#7C6656"/>
<path d="M24.3883 26.1777L24.4351 27.8674L19.049 31.0335L15.168 27.2461L15.6125 25.8164" stroke="#7C6656" stroke-width="0.75" stroke-linecap="round" stroke-linejoin="round"/>
<path d="M4.01699 7.05499C3.90002 7.61388 3.14357 7.92841 2.32734 7.75945C1.5111 7.59048 0.939221 6.9978 1.0562 6.44151C1.17317 5.88263 1.92962 5.56809 2.74585 5.73706C3.56469 5.90602 4.13137 6.4961 4.01699 7.05499Z" fill="#7C6656" stroke="#7C6656" stroke-width="0.75" stroke-linecap="round" stroke-linejoin="round"/>
<path d="M4.58398 4.34316L4.86993 3.29297C4.86993 3.29297 6.02929 3.49833 6.31523 4.47833C6.60117 5.46093 7.06388 5.39074 7.57078 5.41674C7.57078 5.41674 6.81433 5.97562 6.02149 5.45833C5.22865 4.94103 5.35083 4.17159 4.58398 4.34316Z" fill="#7C6656" stroke="#7C6656" stroke-width="0.75" stroke-linecap="round" stroke-linejoin="round"/>
<path d="M4.71928 3.14648L3.93164 6.9989" stroke="#7C6656" stroke-width="0.75" stroke-linecap="round" stroke-linejoin="round"/>
<path d="M4.86213 8.66016C4.86213 8.66016 4.66079 9.80741 5.7601 10.0937C6.85739 10.382 7.61845 10.4641 7.66073 11.4732" stroke="#7C6656" stroke-width="0.75" stroke-linecap="round" stroke-linejoin="round"/>
<path d="M10.1088 5.53393L11.5567 7.53292C11.5567 7.53292 10.4181 10.2494 10.1764 13.5507C9.59151 14.8608 7.70949 18.1882 10.0724 22.0952C11.1538 24.037 14.8632 25.9762 18.6065 26.4857C20.3325 26.808 23.4545 26.5922 23.4545 26.5922C23.4545 26.5922 27.806 26.6806 30.8396 24.7232C31.9963 23.5717 34.0213 21.8352 34.1253 16.761C34.9363 15.963 37.0211 13.6495 35.1677 9.27457C33.764 6.91685 30.9799 5.74709 30.9799 5.74709C30.9799 5.74709 30.499 3.48815 25.885 1.67632C21.2709 -0.135514 16.5451 1.59313 14.5773 2.53674C12.6121 3.47775 11.5645 5.35977 10.1088 5.53393Z" fill="white"/>
<path d="M12.1967 6.9375C10.8476 8.73893 10.2809 10.9641 10.1795 13.5532C9.88059 14.2316 8.66664 16.3346 9.00977 19.1186C9.3529 21.9053 11.4559 24.6139 16.2389 25.976C16.2389 25.976 17.4814 26.3478 18.6954 26.4283" stroke="#7C6656" stroke-width="0.75" stroke-linecap="round" stroke-linejoin="round"/>
<path d="M21.7285 26.6284C24.8687 26.7219 28.5053 26.2826 30.8371 24.7256C32.6515 23.5142 34.0604 20.6938 34.1384 16.2383" stroke="#7C6656" stroke-width="0.75" stroke-linecap="round" stroke-linejoin="round"/>
<path d="M29.6314 7.23633C29.6314 7.23633 29.5171 9.69023 32.5013 10.7664" stroke="#7C6656" stroke-width="0.75" stroke-linecap="round" stroke-linejoin="round"/>
<path d="M28.2355 7.2279C28.2355 7.2279 27.4296 4.65442 24.1621 4.00195" stroke="#7C6656" stroke-width="0.75" stroke-linecap="round" stroke-linejoin="round"/>
<path d="M25.977 7.21275C25.977 7.21275 25.7327 5.26835 23.3516 4.97461" stroke="#7C6656" stroke-width="0.75" stroke-linecap="round" stroke-linejoin="round"/>
<path d="M31.1543 5.75781C31.1543 5.75781 35.446 7.55405 35.8385 11.3883C36.2285 15.2225 34.362 16.6106 34.362 16.6106" stroke="#7C6656" stroke-width="0.75" stroke-linecap="round" stroke-linejoin="round"/>
<path d="M30.9779 5.74734C30.9779 5.74734 29.9901 2.07949 23.4915 1.15148C16.9928 0.223465 13.681 2.90352 11.994 4.4892C11.994 4.4892 11.1518 5.25344 10.1094 5.53678L11.5573 7.53578" stroke="#7C6656" stroke-width="0.75" stroke-linecap="round" stroke-linejoin="round"/>
<path d="M24.1727 3.89062C24.1727 3.89062 21.9189 7.13476 17.7754 8.24474" stroke="#7C6656" stroke-width="0.75" stroke-linecap="round" stroke-linejoin="round"/>
<path d="M20.21 4.60547C20.21 4.60547 16.7059 7.54807 12.1387 7.49088" stroke="#7C6656" stroke-width="0.75" stroke-linecap="round" stroke-linejoin="round"/>
<path d="M31.5906 11.3027C31.5906 11.3027 31.484 14.3389 33.8053 15.5035" stroke="#7C6656" stroke-width="0.75" stroke-linecap="round" stroke-linejoin="round"/>
<g filter="url(#filter0_f_1067_25258)">
<ellipse cx="2.31301" cy="1.41693" rx="2.31301" ry="1.41693" transform="matrix(0.989197 0.146594 -0.144787 0.989463 24.5215 18.3672)" fill="#F5B0B0"/>
</g>
<g filter="url(#filter1_f_1067_25258)">
<ellipse cx="2.31301" cy="1.41693" rx="2.31301" ry="1.41693" transform="matrix(0.989197 0.146594 -0.144787 0.989463 12.4277 16.625)" fill="#F5B0B0"/>
</g>
<path d="M24.1641 16.3678C24.0601 17.0905 24.5592 17.7611 25.2819 17.8677C26.0045 17.9717 26.6752 17.4726 26.7818 16.7499C26.8857 16.0273 26.3866 15.3566 25.664 15.25C24.9413 15.146 24.2707 15.6451 24.1641 16.3678Z" fill="#7C6656"/>
<path d="M22.7754 18.8457C22.7754 18.8457 23.1757 19.4462 23.3499 20.122" stroke="#7C6656" stroke-width="0.75" stroke-linecap="round" stroke-linejoin="round"/>
<path d="M20.749 18.6156C20.749 18.6156 20.0237 18.0385 19.574 18.3582C18.9969 18.6988 18.8488 19.5696 19.4675 19.9257C19.4675 19.9257 18.4771 19.6086 18.1391 20.3832C17.8012 21.1579 18.0585 22.0989 18.7838 22.2912" stroke="#7C6656" stroke-width="0.75" stroke-linecap="round" stroke-linejoin="round"/>
<path d="M17.7345 15.7236C17.7345 15.7236 17.017 16.0745 16.3178 15.8639C15.3222 15.565 15.2598 14.7852 15.2598 14.7852" stroke="#7C6656" stroke-width="0.75" stroke-linecap="round" stroke-linejoin="round"/>
<defs>
<filter id="filter0_f_1067_25258" x="23.5566" y="17.916" width="6.0957" height="4.38477" filterUnits="userSpaceOnUse" color-interpolation-filters="sRGB">
<feFlood flood-opacity="0" result="BackgroundImageFix"/>
<feBlend mode="normal" in="SourceGraphic" in2="BackgroundImageFix" result="shape"/>
<feGaussianBlur stdDeviation="0.375" result="effect1_foregroundBlur_1067_25258"/>
</filter>
<filter id="filter1_f_1067_25258" x="11.4629" y="16.1738" width="6.0957" height="4.38477" filterUnits="userSpaceOnUse" color-interpolation-filters="sRGB">
<feFlood flood-opacity="0" result="BackgroundImageFix"/>
<feBlend mode="normal" in="SourceGraphic" in2="BackgroundImageFix" result="shape"/>
<feGaussianBlur stdDeviation="0.375" result="effect1_foregroundBlur_1067_25258"/>
</filter>
</defs>
</svg>
