<svg width="47" height="44" viewBox="0 0 47 44" fill="none" xmlns="http://www.w3.org/2000/svg">
<path d="M21.893 40.072L21.7672 36.1727L30.069 34.7891L30.3206 36.6758V41.3299L29.6917 42.462L27.9307 43.0909L27.0502 42.9651L26.4213 42.462L26.1697 41.833L26.4213 41.0783L27.0502 40.701L26.7986 36.6758H25.1634L25.2892 39.9463L25.1634 41.0783L24.6603 42.2104L24.0313 42.7135L23.0251 43.0909L21.7672 42.9651L20.8867 42.0846L21.0125 41.2041L21.893 40.8268V40.072Z" fill="white"/>
<path d="M16.1097 23.941C16.1097 23.941 14.2859 24.2379 12.7513 22.5146C11.1136 20.6756 11.9513 18.9549 11.9513 18.9549C11.9513 18.9549 10.0444 18.2203 10.0746 15.4883C10.1022 13.0455 12.6607 11.8204 12.6607 11.8204C12.6607 11.8204 13.5764 7.28958 17.7173 4.13992C23.2544 -0.0738851 31.0757 2.52987 31.0757 2.52987C31.0757 2.52987 38.9851 2.56509 42.5523 10.7965C43.463 12.2204 44.1171 16.2757 44.1171 16.2757C44.1171 16.2757 47.5234 18.7184 45.1083 22.5951C43.7674 24.7461 41.292 24.1574 41.292 24.1574C41.292 24.1574 41.6014 26.097 38.6329 27.2114C36.5901 27.9787 34.897 26.663 34.897 26.663C34.897 26.663 34.4014 28.1976 32.1599 27.6819" fill="white"/>
<path d="M16.1097 23.941C16.1097 23.941 14.2859 24.2379 12.7513 22.5146C11.1136 20.6756 11.9513 18.9549 11.9513 18.9549C11.9513 18.9549 10.0444 18.2203 10.0746 15.4883C10.1022 13.0455 12.6607 11.8204 12.6607 11.8204C12.6607 11.8204 13.5764 7.28958 17.7173 4.13992C23.2544 -0.0738851 31.0757 2.52987 31.0757 2.52987C31.0757 2.52987 38.9851 2.56509 42.5523 10.7965C43.463 12.2204 44.1171 16.2757 44.1171 16.2757C44.1171 16.2757 47.5234 18.7184 45.1083 22.5951C43.7674 24.7461 41.292 24.1574 41.292 24.1574C41.292 24.1574 41.6014 26.097 38.6329 27.2114C36.5901 27.9787 34.897 26.663 34.897 26.663C34.897 26.663 34.4014 28.1976 32.1599 27.6819" stroke="#7C6656" stroke-width="0.75" stroke-linecap="round" stroke-linejoin="round"/>
<path d="M31.2373 25.3711C31.2373 25.3711 27.9518 25.3988 27.7455 25.595C27.4864 25.8768 26.0851 26.9887 26.0222 26.9837C25.9618 26.9811 27.2096 27.1044 27.2096 27.1044L27.748 29.5296C27.748 29.5296 25.4109 30.0981 24.631 29.4415C23.8512 28.7849 22.5631 27.0491 22.4172 26.5761C22.2411 26.5686 21.0109 26.2289 21.0109 26.2289L20.226 26.4252L20.933 28.8679C20.933 28.8679 19.9015 33.2528 19.8889 34.6339C19.8764 36.015 20.299 36.4905 24.5229 36.6817C28.7467 36.8754 34.08 36.9886 32.9329 34.9811C32.1555 33.927 32.1857 33.0968 32.0926 32.5761C31.9995 32.0553 31.2373 25.3711 31.2373 25.3711Z" fill="#FFADBE"/>
<path d="M26.3991 18.4967C26.3991 18.4967 25.3852 18.1495 25.0305 17.1055C24.5928 17.4702 24.0645 17.6363 23.3551 17.6438C22.7915 17.3797 22.0192 21.6136 23.8331 21.9281C25.6469 22.2425 26.4469 19.5608 26.4016 18.4941L26.3991 18.4967Z" fill="#F2999F"/>
<g filter="url(#filter0_f_1067_24355)">
<ellipse cx="2.10366" cy="1.28868" rx="2.10366" ry="1.28868" transform="matrix(0.996674 0.0814905 -0.0796699 0.996821 29.0176 17.0527)" fill="#F5B0B0"/>
</g>
<g filter="url(#filter1_f_1067_24355)">
<ellipse cx="2.10366" cy="1.28868" rx="2.10366" ry="1.28868" transform="matrix(0.996674 0.0814905 -0.0796699 0.996821 17.1934 15.7949)" fill="#F5B0B0"/>
</g>
<path d="M19.6098 14.3684C19.567 15.0728 20.1054 15.6816 20.8098 15.7244C21.5142 15.7671 22.123 15.2288 22.1658 14.5244C22.2085 13.82 21.6702 13.2112 20.9658 13.1684C20.2614 13.1256 19.6526 13.664 19.6098 14.3684Z" fill="#7C6656"/>
<path d="M26.7871 36.7266C26.9179 39.0838 26.9607 40.7441 26.9607 40.7441" stroke="#7C6656" stroke-width="0.75" stroke-linecap="round" stroke-linejoin="round"/>
<path d="M27.2149 40.7308C27.2149 40.7308 26.2665 40.9774 26.2011 41.6063C26.1332 42.2352 26.3898 43.0276 28.0501 42.9547C29.7105 42.8817 30.201 42.2302 30.3143 40.5522C30.3922 39.4176 30.4501 37.795 30.3897 36.834" stroke="#7C6656" stroke-width="0.75" stroke-linecap="round" stroke-linejoin="round"/>
<path d="M21.7051 36.7266C22.0145 39.2121 21.9114 40.7441 21.9114 40.7441" stroke="#7C6656" stroke-width="0.75" stroke-linecap="round" stroke-linejoin="round"/>
<path d="M21.9922 40.7308C21.9922 40.7308 21.0438 40.9774 20.9784 41.6063C20.9105 42.2352 21.1671 43.0276 22.8275 42.9547C24.4878 42.8817 24.9356 42.1824 25.2174 40.527C25.391 39.5107 25.2274 37.795 25.1671 36.834" stroke="#7C6656" stroke-width="0.75" stroke-linecap="round" stroke-linejoin="round"/>
<path d="M22.6406 25.6498C22.6406 25.6498 22.9953 27.1038 25.0356 27.1038C27.0758 27.1038 27.6695 25.5391 27.6695 25.5391" stroke="#7C6656" stroke-width="0.75" stroke-linecap="round" stroke-linejoin="round"/>
<path d="M22.793 17.3798C22.793 17.3798 24.2898 18.1043 25.1426 17.0352C25.1426 17.0352 25.3565 18.6276 27.437 18.5295" stroke="#7C6656" stroke-width="0.75" stroke-linecap="round" stroke-linejoin="round"/>
<path d="M23.3556 17.6445C23.3556 17.6445 21.4689 21.2219 23.8336 21.9288C26.4751 22.7212 26.4022 18.4948 26.4022 18.4948" stroke="#7C6656" stroke-width="0.75" stroke-linecap="round" stroke-linejoin="round"/>
<path d="M30.8437 14.7227L28.5469 15.4899L30.6248 16.0711" stroke="#7C6656" stroke-width="0.75" stroke-linecap="round" stroke-linejoin="round"/>
<path d="M31.237 25.3711C31.237 25.3711 31.9918 31.4516 32.1452 33.2754C32.2408 34.4075 33.9741 35.6201 32.5427 36.2742C31.1113 36.9282 20.6283 36.9232 20.0648 35.9471C19.2623 34.5534 21.4157 27.2428 21.7025 25.5774" stroke="#7C6656" stroke-width="0.75" stroke-linecap="round" stroke-linejoin="round"/>
<path d="M11.5665 6.54278L8.61051 4.01953L7.36523 5.99939L11.096 7.57674L11.5665 6.54278Z" fill="white" stroke="#7C6656" stroke-width="0.75" stroke-linecap="round" stroke-linejoin="round"/>
<path d="M10.5921 8.93178L6.74556 8.54688L6.73047 10.8865L10.738 10.0563L10.5921 8.93178Z" fill="white" stroke="#7C6656" stroke-width="0.75" stroke-linecap="round" stroke-linejoin="round"/>
<path d="M12.456 4.97999L10.0938 2.04165L12.0535 0.763672L13.4094 4.49698L12.456 4.97999Z" fill="white" stroke="#7C6656" stroke-width="0.75" stroke-linecap="round" stroke-linejoin="round"/>
<path d="M36.1574 23.5781C35.9284 23.7693 35.6894 23.9328 35.4379 24.0712C33.0605 25.3794 29.0706 25.7618 26.8945 25.4146" stroke="#7C6656" stroke-width="0.75" stroke-linecap="round" stroke-linejoin="round"/>
<path d="M16.4204 11.543C16.3475 11.7845 16.2192 12.0461 16.1764 12.1342C15.8318 12.7631 14.1286 14.6348 14.2267 17.3492C14.3248 20.0637 16.3424 23.0498 20.838 24.7605C20.838 24.7605 22.8682 25.3114 23.2556 25.3693" stroke="#7C6656" stroke-width="0.75" stroke-linecap="round" stroke-linejoin="round"/>
<path d="M19.6976 7.48047C19.6976 7.48047 18.2209 9.8729 19.0008 12.0087" stroke="#7C6656" stroke-width="0.75" stroke-linecap="round" stroke-linejoin="round"/>
<path d="M27.2386 8.4375C27.2386 8.4375 25.9783 11.5243 27.1783 13.6677" stroke="#7C6656" stroke-width="0.75" stroke-linecap="round" stroke-linejoin="round"/>
<path d="M34.6182 11.082C34.6182 11.082 33.9263 14.048 35.3427 16.4027" stroke="#7C6656" stroke-width="0.75" stroke-linecap="round" stroke-linejoin="round"/>
<path d="M37.0984 16.1992C37.0984 16.1992 36.2179 20.252 37.6241 21.6281" stroke="#7C6656" stroke-width="0.75" stroke-linecap="round" stroke-linejoin="round"/>
<path d="M27.2744 26.9468C27.2744 26.9468 26.4115 27.3719 25.8581 27.1254C25.3071 26.8763 24.0065 25.07 24.0065 25.07C24.321 23.8952 23.9059 23.1757 22.7009 22.8411C21.3298 22.4663 20.082 23.6587 20.2355 25.1178C20.3889 26.5769 22.4141 26.5744 22.4141 26.5744C22.4141 26.5744 23.7675 29.621 25.4631 29.7216C27.1587 29.8222 27.7474 29.5279 27.7474 29.5279" fill="white"/>
<path d="M28.1323 26.6731C28.1323 26.6731 26.4115 27.3725 25.8581 27.1234C25.3071 26.8744 24.0065 25.0681 24.0065 25.0681C24.321 23.8933 23.9059 23.1738 22.7009 22.8392C21.3298 22.4643 20.082 23.6568 20.2355 25.1159C20.3889 26.575 22.4141 26.5725 22.4141 26.5725C22.4141 26.5725 23.7675 29.619 25.4631 29.7196C27.1587 29.8203 28.9574 29.219 28.9574 29.219" stroke="#7C6656" stroke-width="0.75" stroke-linecap="round" stroke-linejoin="round"/>
<path d="M27.2109 27.1016L27.6688 29.3028" stroke="#7C6656" stroke-width="0.75" stroke-linecap="round" stroke-linejoin="round"/>
<path d="M20.56 26.3184C20.56 26.3184 20.0946 26.5776 19.5436 26.3285C18.9927 26.0794 17.6921 24.2732 17.6921 24.2732C18.0065 23.0983 17.5914 22.3788 16.3864 22.0443C15.0154 21.6694 13.7676 22.8619 13.921 24.321C14.0745 25.7801 16.0996 25.7776 16.0996 25.7776C16.0996 25.7776 17.4531 28.8241 19.1487 28.9247C19.7726 28.9624 20.1549 28.9398 20.7109 28.8518" fill="white"/>
<path d="M20.56 26.3184C20.56 26.3184 20.0946 26.5776 19.5436 26.3285C18.9927 26.0794 17.6921 24.2732 17.6921 24.2732C18.0065 23.0983 17.5914 22.3788 16.3864 22.0443C15.0154 21.6694 13.7676 22.8619 13.921 24.321C14.0745 25.7801 16.0996 25.7776 16.0996 25.7776C16.0996 25.7776 17.4531 28.8241 19.1487 28.9247C19.7726 28.9624 20.1549 28.9398 20.7109 28.8518" stroke="#7C6656" stroke-width="0.75" stroke-linecap="round" stroke-linejoin="round"/>
<path d="M20.2227 26.4238L20.7082 28.3987" stroke="#7C6656" stroke-width="0.75" stroke-linecap="round" stroke-linejoin="round"/>
<path d="M3.57933 26.3815C3.57933 27.3324 2.80701 28.1047 1.85607 28.1047C0.905134 28.1047 0.132812 27.3324 0.132812 26.3815C0.132812 25.4305 0.905134 24.6582 1.85607 24.6582C2.80701 24.6582 3.57933 25.4305 3.57933 26.3815Z" fill="#ED7374"/>
<path d="M1.8366 25.944C1.67811 25.6874 1.3083 25.544 1.02655 25.8006C0.77749 26.0295 0.769943 26.4647 1.019 26.8018C1.21522 27.0685 1.5322 27.2597 1.8517 27.3729C1.89949 27.3905 1.95484 27.388 2.00012 27.3628C2.30201 27.2119 2.59383 26.9804 2.75232 26.6937C2.95861 26.3264 2.8932 25.8962 2.61899 25.7025C2.30704 25.4786 1.95736 25.6672 1.8366 25.944Z" fill="white"/>
<path d="M3.9728 42.3487C3.58539 42.3487 3.27344 42.0342 3.27344 41.6493V35.8984H4.67469V41.6493C4.67469 42.0368 4.36022 42.3487 3.97532 42.3487H3.9728Z" fill="white" stroke="#7C6656" stroke-width="0.75" stroke-linecap="round" stroke-linejoin="round"/>
<path d="M17.8009 42.3487C17.4135 42.3487 17.1016 42.0342 17.1016 41.6493V35.8984H18.5028V41.6493C18.5028 42.0368 18.1883 42.3487 17.8034 42.3487H17.8009Z" fill="white" stroke="#7C6656" stroke-width="0.75" stroke-linecap="round" stroke-linejoin="round"/>
<path d="M21.2721 34.1699H1.01562V36.4164H21.2721V34.1699Z" fill="white" stroke="#7C6656" stroke-width="0.75" stroke-linecap="round" stroke-linejoin="round"/>
<path d="M7.02184 27.5234H2.82313C2.50112 27.5234 2.25962 27.8178 2.32251 28.1348L3.43193 33.7574C3.47973 33.9963 3.68854 34.1699 3.93256 34.1699H8.11618C8.43819 34.1699 8.67969 33.8756 8.61932 33.5611L7.52499 27.9385C7.47719 27.697 7.26838 27.5234 7.02184 27.5234Z" fill="white" stroke="#7C6656" stroke-width="0.75" stroke-linecap="round" stroke-linejoin="round"/>
<path d="M3.91379 28.9583H3.20185C3.17166 28.9583 3.14399 28.9382 3.13644 28.908L2.94022 28.191C2.92764 28.1482 2.96034 28.1055 3.00562 28.1055H3.71757C3.74776 28.1055 3.77543 28.1256 3.78298 28.1558L3.9792 28.8728C3.99178 28.9155 3.95908 28.9583 3.91379 28.9583Z" fill="#7C6656"/>
<path d="M6.30417 30.3262C6.30417 30.3262 6.12807 29.9338 5.56707 30.1954C5.56707 30.1954 4.97085 29.9262 4.61613 30.3916C4.34444 30.7489 4.52305 31.5841 4.87776 31.7979C5.23248 32.0117 5.51172 31.8633 5.51172 31.8633C5.51172 31.8633 5.85637 31.9941 6.08027 31.8734C6.30417 31.7526 6.4526 31.3602 6.4526 31.3602C6.4526 31.3602 6.0526 31.4633 6.01486 31.2117C6.01486 31.2117 5.80606 31.2294 5.75071 31.0206C5.69788 30.8118 5.84631 30.6533 5.957 30.6633C5.957 30.6633 5.8765 30.5426 5.96706 30.4218C6.09788 30.2457 6.30165 30.3287 6.30165 30.3287L6.30417 30.3262Z" fill="#B0B0AF"/>
<path d="M5.5294 30.0085C5.5294 30.0085 5.45393 29.5532 5.10928 29.5708C4.76463 29.5884 4.69922 29.6262 4.69922 29.6262C4.69922 29.6262 4.91305 30.0815 5.5294 30.0085Z" fill="#B0B0AF"/>
<path d="M5.52862 30.625H3.63178L1.73242 34.1696H3.63178L5.52862 30.625Z" fill="white" stroke="#7C6656" stroke-width="0.75" stroke-linecap="round" stroke-linejoin="round"/>
<path d="M9.40147 25.7152C10.3464 25.2225 10.7129 24.057 10.2202 23.1121C9.72749 22.1672 8.56206 21.8007 7.61716 22.2934C6.67225 22.7861 6.30568 23.9515 6.79841 24.8965C7.29114 25.8414 8.45657 26.2079 9.40147 25.7152Z" fill="#FCC85A"/>
<path d="M9.71197 24.2188H7.30696C7.30696 24.2188 7.25413 25.4766 8.50947 25.4766C9.7648 25.4766 9.71197 24.2188 9.71197 24.2188Z" fill="#664B3F"/>
<path d="M9.44307 23.4459C9.44307 23.6321 9.37515 23.7805 9.28961 23.7805C9.20408 23.7805 9.13867 23.6296 9.13867 23.4459C9.13867 23.2623 9.2066 23.1113 9.28961 23.1113C9.37263 23.1113 9.44307 23.2623 9.44307 23.4459Z" fill="#7C6656"/>
<path d="M7.87918 23.4459C7.87918 23.6321 7.81126 23.7805 7.72572 23.7805C7.64019 23.7805 7.57227 23.6296 7.57227 23.4459C7.57227 23.2623 7.64019 23.1113 7.72572 23.1113C7.81126 23.1113 7.87918 23.2623 7.87918 23.4459Z" fill="#7C6656"/>
<mask id="mask0_1067_24355" style="mask-type:luminance" maskUnits="userSpaceOnUse" x="7" y="24" width="3" height="2">
<path d="M9.71002 24.2168H7.30501C7.30501 24.2168 7.25218 25.4746 8.50751 25.4746C9.76285 25.4746 9.71002 24.2168 9.71002 24.2168Z" fill="white"/>
</mask>
<g mask="url(#mask0_1067_24355)">
<path d="M8.67171 26.2102C9.64567 26.2102 10.4352 25.8903 10.4352 25.4957C10.4352 25.1011 9.64567 24.7812 8.67171 24.7812C7.69775 24.7812 6.9082 25.1011 6.9082 25.4957C6.9082 25.8903 7.69775 26.2102 8.67171 26.2102Z" fill="#EB5F62"/>
</g>
<path d="M10.4381 29.5452C10.4381 30.4005 9.74625 31.0924 8.89091 31.0924C8.03557 31.0924 7.34375 30.4005 7.34375 29.5452C7.34375 28.6899 8.03557 27.998 8.89091 27.998C9.74625 27.998 10.4381 28.6899 10.4381 29.5452Z" fill="#5CA2D5"/>
<path d="M8.39423 29.3652H7.94141V30.3061H8.39423V29.3652Z" fill="white"/>
<path d="M8.5 29.4305C8.5 29.4305 8.81446 29.0883 8.8849 28.789C8.95534 28.4921 9.29245 28.6355 9.23459 28.8317C9.17673 29.0279 9.22452 29.1487 9.24213 29.1638C9.25974 29.1789 9.68993 29.1638 9.68993 29.1638C9.68993 29.1638 9.85345 29.2166 9.84087 29.4305C9.83332 29.5588 9.74527 29.8279 9.67232 30.0242C9.622 30.165 9.48616 30.2606 9.33773 30.2606H8.50252V29.4305H8.5Z" fill="white"/>
<path d="M18.7369 33.0664H11.1445V34.1708H18.7747L18.7369 33.0664Z" fill="white" stroke="#7C6656" stroke-width="0.75" stroke-linecap="round" stroke-linejoin="round"/>
<path d="M17.2831 32.7276H12.463C12.0982 32.7276 11.7988 32.4458 11.7737 32.0835L11.6328 30.0156H18.1183L17.9774 32.0835C17.9523 32.4458 17.6504 32.7276 17.2881 32.7276H17.2831Z" fill="#C7D7E1" stroke="#7C6656" stroke-width="0.75" stroke-linecap="round" stroke-linejoin="round"/>
<path d="M11.6298 30.502H10.9883" stroke="#7C6656" stroke-width="0.75" stroke-linecap="round" stroke-linejoin="round"/>
<path d="M18.8212 30.502H18.1797" stroke="#7C6656" stroke-width="0.75" stroke-linecap="round" stroke-linejoin="round"/>
<path d="M16.121 23.8069C16.8354 25.3415 16.7448 26.8987 15.9197 27.2811C15.0945 27.6635 13.8468 26.7327 13.1323 25.1956C12.4178 23.6585 12.5084 22.1038 13.3336 21.7214C14.1587 21.3365 15.4065 22.2698 16.121 23.8069Z" fill="#C7D7E1" stroke="#7C6656" stroke-width="0.75" stroke-linecap="round" stroke-linejoin="round"/>
<defs>
<filter id="filter0_f_1067_24355" x="28.1621" y="16.4629" width="5.69922" height="4.0918" filterUnits="userSpaceOnUse" color-interpolation-filters="sRGB">
<feFlood flood-opacity="0" result="BackgroundImageFix"/>
<feBlend mode="normal" in="SourceGraphic" in2="BackgroundImageFix" result="shape"/>
<feGaussianBlur stdDeviation="0.375" result="effect1_foregroundBlur_1067_24355"/>
</filter>
<filter id="filter1_f_1067_24355" x="16.3379" y="15.2051" width="5.69922" height="4.0918" filterUnits="userSpaceOnUse" color-interpolation-filters="sRGB">
<feFlood flood-opacity="0" result="BackgroundImageFix"/>
<feBlend mode="normal" in="SourceGraphic" in2="BackgroundImageFix" result="shape"/>
<feGaussianBlur stdDeviation="0.375" result="effect1_foregroundBlur_1067_24355"/>
</filter>
</defs>
</svg>
