<svg width="54" height="45" viewBox="0 0 54 45" fill="none" xmlns="http://www.w3.org/2000/svg">
<path d="M23.2087 32.4667H13.8906C13.8906 31.5132 14.6639 30.7422 15.6151 30.7422H23.2087V32.4667Z" fill="#004F26" stroke="#004F26" stroke-width="0.75" stroke-linecap="round" stroke-linejoin="round"/>
<path d="M9.57744 33.7402L4.99023 42.2805" stroke="#7C6656" stroke-width="0.75" stroke-linecap="round" stroke-linejoin="round"/>
<path d="M4.73242 33.8887L9.83514 42.1324" stroke="#7C6656" stroke-width="0.75" stroke-linecap="round" stroke-linejoin="round"/>
<path d="M2.43945 38.1579L12.1294 37.8613" stroke="#7C6656" stroke-width="0.75" stroke-linecap="round" stroke-linejoin="round"/>
<path d="M10.7351 41.4618C12.6405 39.5564 12.6405 36.4671 10.7351 34.5616C8.82962 32.6562 5.7403 32.6562 3.83486 34.5616C1.92943 36.4671 1.92943 39.5564 3.83486 41.4618C5.7403 43.3673 8.82962 43.3673 10.7351 41.4618Z" stroke="#1AAF92" stroke-linecap="round" stroke-linejoin="round"/>
<path d="M44.8668 33.7402L40.2773 42.2805" stroke="#7C6656" stroke-width="0.75" stroke-linecap="round" stroke-linejoin="round"/>
<path d="M40.0234 33.8887L45.1239 42.1324" stroke="#7C6656" stroke-width="0.75" stroke-linecap="round" stroke-linejoin="round"/>
<path d="M37.7285 38.1579L47.4184 37.8613" stroke="#7C6656" stroke-width="0.75" stroke-linecap="round" stroke-linejoin="round"/>
<path d="M47.3213 39.1316C47.9403 36.5089 46.3161 33.8811 43.6934 33.2621C41.0708 32.6431 38.4429 34.2673 37.8239 36.89C37.2049 39.5126 38.8292 42.1405 41.4518 42.7595C44.0745 43.3785 46.7023 41.7542 47.3213 39.1316Z" stroke="#1AAF92" stroke-linecap="round" stroke-linejoin="round"/>
<path d="M29.9764 36.6006H17.9917L12.9141 32.5859H36.2196L42.5723 38.0126" stroke="#7C6656" stroke-width="0.75" stroke-linecap="round" stroke-linejoin="round"/>
<path d="M17.9922 36.6014L21.8495 32.7441" stroke="#7C6656" stroke-width="0.75" stroke-linecap="round" stroke-linejoin="round"/>
<path d="M26.1992 32.7422L29.9766 36.5197L33.8088 32.6875" stroke="#7C6656" stroke-width="0.75" stroke-linecap="round" stroke-linejoin="round"/>
<path d="M7.27148 38.0118L9.7373 27.1016" stroke="#7C6656" stroke-width="0.75" stroke-linecap="round" stroke-linejoin="round"/>
<path d="M12.9155 32.5859H8.81641" stroke="#7C6656" stroke-width="0.75" stroke-linecap="round" stroke-linejoin="round"/>
<path d="M15.8027 38.1071L13.8821 37.5231C13.4555 37.3931 13.2137 36.9415 13.3438 36.5149C13.4738 36.0884 13.9254 35.8466 14.352 35.9766L16.2726 36.5605C16.6992 36.6905 16.941 37.1422 16.811 37.5688C16.681 37.9953 16.2293 38.2371 15.8027 38.1071Z" fill="#1AAF92"/>
<path d="M14.3904 29.9286C14.3904 29.9286 15.3325 27.9828 14.6528 28.1311C14.1464 28.2406 14.0027 28.8291 13.7403 29.283C13.4438 29.7963 13.1267 30.2228 13.0218 30.2639C12.6317 30.4167 13.5852 30.9916 14.3904 29.9309V29.9286Z" fill="white"/>
<path d="M40.8806 32.4667H31.5625C31.5625 31.5132 32.3358 30.7422 33.287 30.7422H40.8806V32.4667Z" fill="#004F26" stroke="#004F26" stroke-width="0.75" stroke-linecap="round" stroke-linejoin="round"/>
<path d="M24.4082 23.7988C24.6796 23.9425 24.7846 24.2801 24.6409 24.5516L24.5359 24.75L26.1737 25.6122L25.5875 26.7277L23.9497 25.8654L23.8448 26.0639C23.7011 26.3353 23.3635 26.4403 23.092 26.2966C22.8206 26.1529 22.7156 25.8153 22.8594 25.5438L23.6554 24.0315C23.7992 23.76 24.1367 23.6551 24.4082 23.7988Z" fill="white" stroke="#7C6656" stroke-width="0.75" stroke-linecap="round" stroke-linejoin="round"/>
<path d="M29.5844 28.1078L25.4785 25.9453" stroke="#7C6656" stroke-width="0.75" stroke-linecap="round" stroke-linejoin="round"/>
<path d="M25.5059 36.52L27.4083 27.1016" stroke="#7C6656" stroke-width="0.75" stroke-linecap="round" stroke-linejoin="round"/>
<path d="M33.4746 38.1071L31.554 37.5231C31.1274 37.3931 30.8856 36.9415 31.0156 36.5149C31.1457 36.0884 31.5973 35.8466 32.0239 35.9766L33.9445 36.5605C34.3711 36.6905 34.6129 37.1422 34.4828 37.5688C34.3528 37.9953 33.9012 38.2371 33.4746 38.1071Z" fill="#1AAF92"/>
<path d="M31.3824 23.1878C31.3824 23.1878 30.1598 24.6203 27.865 24.0113C26.7085 23.5642 24.829 23.2699 24.3477 25.7312C24.4343 26.4338 25.0525 26.9538 26.0014 26.6801C26.9526 26.4064 28.1593 26.7554 28.1593 26.7554C28.1593 26.7554 29.7674 27.3165 30.762 26.8056C31.7588 26.2946 32.5344 25.8658 32.8172 25.3776C33.0978 24.8895 32.7784 22.6518 31.3824 23.1878Z" fill="white"/>
<path d="M30.9531 23.459C30.9531 23.459 30.7044 24.2117 29.2605 24.2117C27.8166 24.2117 26.4754 23.3586 25.4055 23.8833C24.3357 24.4079 24.0073 25.9202 24.7303 26.511C25.4534 27.1018 26.5027 26.7072 26.8312 26.1826" stroke="#7C6656" stroke-width="0.75" stroke-linecap="round" stroke-linejoin="round"/>
<path d="M26.4863 26.3789C27.084 26.2648 28.6419 26.8967 29.9011 26.8488C31.2537 26.7986 32.3897 25.7949 32.3897 25.7949" stroke="#7C6656" stroke-width="0.75" stroke-linecap="round" stroke-linejoin="round"/>
<path d="M31.3827 23.1881C31.3827 23.1881 30.6801 27.1754 33.2075 30.3324C33.2075 30.3324 34.1154 30.3848 34.8042 30.4738C35.5433 30.5719 35.5981 30.8319 35.5981 30.8319C35.5981 30.8319 33.609 31.8584 32.9771 33.405C32.5939 34.3151 32.2996 35.3233 31.9666 35.5879C31.848 36.0806 31.515 36.6851 33.0752 37.1345C34.6332 37.5839 35.4293 36.0966 35.687 35.2298C35.9448 34.363 36.1774 33.6217 37.2176 33.1061C38.2578 32.5906 40.4293 31.5254 40.4134 29.5066C40.3974 27.4879 39.2249 25.9254 38.8759 23.5303C37.5894 23.2041 34.4324 22.3213 33.3763 22.3669C32.3202 22.4148 31.3849 23.1881 31.3849 23.1881H31.3827Z" fill="white"/>
<path d="M29.7989 22.9433L31.6935 23.8906L30.6936 24.7853L30.2725 26.6273L31.904 30.4166L40.7457 31.5744L41.0615 30.785C42.4087 30.9955 49.7978 29.8903 53.324 29.3114L51.0083 26.7852L49.3768 23.9958L48.8505 21.2065V18.5751L49.5347 15.0489L49.3768 12.0491L48.1137 9.20714L43.6929 5.10209L38.4826 3.41797H34.8512L31.5356 4.2074L29.9568 5.31261L27.5885 7.04936L26.9043 18.0488L27.4832 21.2065V21.5223L29.7989 22.9433Z" fill="white"/>
<path d="M35.3422 30.9368C35.3422 30.9368 34.058 31.4957 33.5151 32.3488C32.9745 33.2019 32.2263 35.2708 32.2263 35.2708C31.0516 36.3863 32.8194 37.3398 34.1652 37.098C35.511 36.8585 35.9034 34.3174 36.0676 33.9569C36.2319 33.5965 37.1123 33.1358 37.6712 32.8963C41.7429 30.9825 40.6069 29.7667 40.2784 28.7949" stroke="#7C6656" stroke-width="0.75" stroke-linecap="round" stroke-linejoin="round"/>
<path d="M31.2314 23.5586C31.2314 23.5586 30.2277 26.3574 33.2934 30.4565" stroke="#7C6656" stroke-width="0.75" stroke-linecap="round" stroke-linejoin="round"/>
<path d="M35.3419 24.567C35.3419 24.567 34.2082 26.5629 32.8464 26.5128C31.4298 26.2185 29.5982 25.3243 28.4234 26.4489C27.2509 27.5757 27.7779 29.4371 29.9494 28.7573C30.1502 28.7436 30.7022 28.7322 31.2998 28.9033C31.8997 29.0744 34.0531 29.5215 35.5905 28.2692C36.8656 27.3659 36.8861 24.1108 35.3419 24.567Z" fill="white"/>
<path d="M35.3414 24.5684C35.3414 24.5684 34.2259 26.4115 32.782 26.4115C31.3381 26.4115 29.9968 25.5583 28.927 26.083C27.8572 26.6076 27.5287 28.1177 28.2518 28.7108C28.9749 29.3015 30.0242 28.9069 30.3527 28.3823" stroke="#7C6656" stroke-width="0.75" stroke-linecap="round" stroke-linejoin="round"/>
<path d="M29.9492 28.7587C30.5286 28.6469 32.0432 29.2605 33.2682 29.2171C34.582 29.1692 35.6861 28.193 35.6861 28.193C35.6861 28.193 36.6624 27.4562 37.3946 26.7285" stroke="#7C6656" stroke-width="0.75" stroke-linecap="round" stroke-linejoin="round"/>
<path d="M32.0623 29.9286C32.0623 29.9286 33.0044 27.9828 32.3246 28.1311C31.8182 28.2406 31.6745 28.8291 31.4122 29.283C31.1157 29.7963 30.7986 30.2228 30.6937 30.2639C30.3036 30.4167 31.2571 30.9916 32.0623 29.9309V29.9286Z" fill="white"/>
<path d="M29.5078 28.9566L30.8787 29.6774L30.7738 29.8758C30.6301 30.1473 30.735 30.4849 31.0065 30.6286C31.2779 30.7723 31.6155 30.6674 31.7592 30.3959L32.5553 28.8836C32.699 28.6121 32.5941 28.2745 32.3226 28.1308C32.0512 27.9871 31.7136 28.0921 31.5699 28.3635L31.465 28.562" stroke="#7C6656" stroke-width="0.75" stroke-linecap="round" stroke-linejoin="round"/>
<g filter="url(#filter0_f_1067_23771)">
<ellipse cx="41.1094" cy="19.2992" rx="2.20667" ry="1.15946" transform="rotate(12.3273 41.1094 19.2992)" fill="#F5B0B0"/>
</g>
<g filter="url(#filter1_f_1067_23771)">
<ellipse cx="29.3008" cy="16.8304" rx="2.20667" ry="1.15946" transform="rotate(12.3273 29.3008 16.8304)" fill="#F5B0B0"/>
</g>
<path d="M38.369 16.2077C38.2526 16.7871 38.6244 17.3505 39.2038 17.4669C39.7832 17.5832 40.3466 17.2114 40.463 16.632C40.5793 16.0526 40.2075 15.4892 39.6281 15.3729C39.0487 15.2565 38.4853 15.6283 38.369 16.2077Z" fill="#7C6656"/>
<path d="M31.1873 14.7526C31.071 15.332 31.4428 15.8955 32.0222 16.0118C32.6016 16.1281 33.165 15.7563 33.2813 15.1769C33.3977 14.5975 33.0258 14.0341 32.4464 13.9178C31.8671 13.8014 31.3036 14.1733 31.1873 14.7526Z" fill="#7C6656"/>
<path d="M32.5469 18.1914C32.5469 18.1914 33.2243 19.4802 34.8462 19.8087C36.4657 20.1371 37.5378 19.2042 37.5378 19.2042" stroke="#7C6656" stroke-width="0.75" stroke-linecap="round" stroke-linejoin="round"/>
<path d="M32.207 35.5547C32.207 35.5547 33.1126 36.7386 34.9671 36.5219" stroke="#7C6656" stroke-width="0.75" stroke-linecap="round" stroke-linejoin="round"/>
<path d="M31.8438 23.8262L32.7265 25.2313L34.9255 24.3736L35.7444 24.4671" stroke="#7C6656" stroke-width="0.75" stroke-linecap="round" stroke-linejoin="round"/>
<path d="M34.6895 25.4023C34.6895 25.4023 34.6895 26.3216 36.3432 27.453" stroke="#7C6656" stroke-width="0.75" stroke-linecap="round" stroke-linejoin="round"/>
<path d="M32.8197 29.2066C32.8197 29.2066 37.6578 29.38 40.4886 28.3398C40.4886 28.3398 41.8071 29.6469 40.6779 31.7067C40.6779 31.7067 36.7226 32.2245 34.5214 31.8367C32.3202 31.4512 31.8457 30.9767 31.8457 30.9767L32.3932 29.5785" fill="#FFC48B"/>
<path d="M32.8197 29.2066C32.8197 29.2066 37.6578 29.38 40.4886 28.3398C40.4886 28.3398 41.8071 29.6469 40.6779 31.7067C40.6779 31.7067 36.7226 32.2245 34.5214 31.8367C32.3202 31.4512 31.8457 30.9767 31.8457 30.9767L32.3932 29.5785" stroke="#7C6656" stroke-width="0.75" stroke-linecap="round" stroke-linejoin="round"/>
<path d="M39.169 24.8906C39.169 24.8906 40.1156 27.101 41.1147 28.0134C41.1147 28.0134 40.1339 28.5494 38.8223 28.7958" stroke="#7C6656" stroke-width="0.75" stroke-linecap="round" stroke-linejoin="round"/>
<path d="M34.099 24.2511C27.7417 23.2908 26.1473 19.9012 26.0195 17.5904C25.8941 15.2797 27.0118 13.6169 27.2947 13.074C27.3403 12.6588 27.6368 11.1305 28.1067 10.2363" stroke="#7C6656" stroke-width="0.75" stroke-linecap="round" stroke-linejoin="round"/>
<path d="M47.1875 8.26562C47.1875 8.26562 50.5703 9.87605 49.0511 17.5837C47.7258 24.3128 51.558 27.4539 53.2984 29.2354" stroke="#7C6656" stroke-width="0.75" stroke-linecap="round" stroke-linejoin="round"/>
<path d="M45.2832 25.2812C45.2832 25.2812 45.8649 28.112 47.4365 30.0646" stroke="#7C6656" stroke-width="0.75" stroke-linecap="round" stroke-linejoin="round"/>
<path d="M41.6797 25.6562C41.6797 25.6562 42.0469 28.5235 43.468 30.5879" stroke="#7C6656" stroke-width="0.75" stroke-linecap="round" stroke-linejoin="round"/>
<path d="M36.6451 7.06641C36.6451 7.06641 35.8398 10.78 37.562 13.004" stroke="#7C6656" stroke-width="0.75" stroke-linecap="round" stroke-linejoin="round"/>
<path d="M35.8522 7.45508C35.8522 7.45508 33.6715 9.33239 35.0424 12.6399" stroke="#7C6656" stroke-width="0.75" stroke-linecap="round" stroke-linejoin="round"/>
<path d="M46.9347 16.2168C46.791 20.0877 45.4908 22.2137 43.9032 23.2082C41.2937 24.8415 38.2051 24.6658 35.6777 24.4628" stroke="#7C6656" stroke-width="0.75" stroke-linecap="round" stroke-linejoin="round"/>
<path d="M43.4695 5.1447C43.4695 5.1447 39.4753 2.59676 34.1719 3.57533C28.8684 4.5539 26.633 7.71545 26.1562 11.559" stroke="#7C6656" stroke-width="0.75" stroke-linecap="round" stroke-linejoin="round"/>
<path d="M40.3672 10.1289C40.3672 10.1289 40.2897 15.0012 47.1214 16.2056" stroke="#7C6656" stroke-width="0.75" stroke-linecap="round" stroke-linejoin="round"/>
<path d="M46.5621 6.45827C46.5621 6.45827 45.839 4.40304 44.2651 4.20459C42.6934 4.00614 42.4311 5.80589 43.5306 6.85061C43.5306 6.85061 41.5255 6.1663 41.6373 7.90218C41.7582 9.77949 44.0644 9.62438 44.0644 9.62438C44.0644 9.62438 43.4279 11.3078 45.1456 12.3753C46.8632 13.4429 47.1552 10.9474 47.1552 10.9474C47.1552 10.9474 47.892 12.4985 48.866 11.7047C49.84 10.9109 49.6894 9.45786 48.5466 9.04727C48.5466 9.04727 49.9997 8.55684 49.1329 6.84149C48.4828 5.55726 47.0206 4.99155 46.5621 6.46055V6.45827Z" fill="#F5B0B0" stroke="#7C6656" stroke-width="0.75" stroke-linecap="round" stroke-linejoin="round"/>
<path d="M47.4402 9.76637C46.9383 10.2135 46.0464 10.0333 45.4511 9.36262C44.8557 8.69199 44.7782 7.78641 45.2823 7.33932C45.7864 6.89224 46.676 7.07244 47.2714 7.74307C47.8667 8.4137 47.9443 9.31928 47.4402 9.76637Z" fill="white"/>
<path d="M6.73827 23.7012C7.00972 23.8449 7.11464 24.1825 6.97094 24.4539L6.86601 24.6524L8.50381 25.5146L7.91758 26.63L6.27978 25.7678L6.17485 25.9662C6.03114 26.2377 5.69355 26.3426 5.4221 26.1989C5.15066 26.0552 5.04573 25.7176 5.18943 25.4462L5.98552 23.9338C6.12923 23.6624 6.46682 23.5574 6.73827 23.7012Z" fill="white" stroke="#7C6656" stroke-width="0.75" stroke-linecap="round" stroke-linejoin="round"/>
<path d="M11.9125 28.1078L7.80664 25.9453" stroke="#7C6656" stroke-width="0.75" stroke-linecap="round" stroke-linejoin="round"/>
<path d="M25.2201 2.7632C25.2201 2.7632 33.4479 4.17289 30.1244 13.897C30.1244 13.897 29.8142 14.5038 29.7389 14.5882C29.6568 15.398 29.9556 19.5267 26.4861 21.7347C24.0317 23.3338 19.6065 23.3109 18.2036 22.9505C17.9915 23.0737 16.4997 23.904 15.7036 23.5869C14.9098 23.2722 14.3235 22.4282 14.433 22.5057C14.5425 22.5833 10.7811 20.7516 10.7811 20.7516C10.7811 20.7516 6.93293 18.158 7.50775 14.9691C7.94115 13.5936 9.07028 11.4768 9.07028 11.4768L9.19345 10.3705L9.4649 9.33492C9.4649 9.33492 7.32071 9.28473 8.53879 5.95896C9.48543 3.57753 11.568 1.82796 16.762 0.879046C22.1339 -0.0105656 25.2201 2.7632 25.2201 2.7632Z" fill="white"/>
<path d="M14.0592 22.9085C14.0592 22.9085 13.3361 27.0121 15.9365 30.2626C15.9365 30.2626 16.8694 30.3174 17.5788 30.4086C18.3407 30.509 18.3954 30.7781 18.3954 30.7781C18.3954 30.7781 16.3471 31.8343 15.697 33.4264C15.3023 34.3639 14.9989 35.3995 14.6568 35.671C14.5359 36.1774 14.1915 36.8001 15.7973 37.2632C17.4009 37.7262 18.2198 36.1956 18.4844 35.3037C18.749 34.4118 18.9908 33.65 20.0583 33.1162C21.1281 32.5847 23.3636 31.4898 23.3476 29.4118C23.3316 27.3337 22.125 25.7256 21.7646 23.2598C20.4415 22.9222 17.191 22.0143 16.1053 22.0645C15.0195 22.1124 14.0546 22.9085 14.0546 22.9085H14.0592Z" fill="white"/>
<path d="M23.2249 28.3281C22.5816 28.5973 19.4475 29.5759 19.4475 29.5759C19.4475 29.5759 16.2631 29.7903 15.2412 29.2155L16.0236 30.4404L17.8188 30.4472C17.8188 30.4472 18.3389 30.5385 18.3115 30.819C18.0674 30.9605 16.7376 31.4555 16.108 32.5823C15.4761 33.7091 14.9994 35.3697 14.9903 35.3926C14.9812 35.4154 16.2084 36.8593 17.7891 36.4145C18.4871 35.477 18.8544 34.1631 18.9753 33.8848C19.2125 33.5517 20.4671 32.9381 21.1149 32.5549C21.7627 32.1717 23.0835 31.6311 23.2933 29.3364C23.323 28.9577 23.2865 28.6155 23.2249 28.3281Z" fill="#6594C9"/>
<path d="M14.0604 22.9089C14.0604 22.9089 12.8012 24.3847 10.4403 23.7551C9.24964 23.2944 7.31758 22.9933 6.82031 25.5252C6.90927 26.2483 7.54569 26.7844 8.52198 26.5015C9.50055 26.2187 10.7437 26.5791 10.7437 26.5791C10.7437 26.5791 12.3975 27.1562 13.424 26.6293C14.4482 26.1023 13.627 25.5572 13.9167 25.0553C14.2064 24.5535 15.4974 22.3546 14.0604 22.9066V22.9089Z" fill="white"/>
<path d="M14.1898 22.3691C14.1898 22.3691 13.3617 23.9613 11.8745 23.9613C10.3872 23.9613 9.0072 23.0831 7.90773 23.6237C6.80598 24.1643 6.46839 25.72 7.21201 26.3268C7.95564 26.9358 9.03686 26.5298 9.37445 25.9892" stroke="#7C6656" stroke-width="0.75" stroke-linecap="round" stroke-linejoin="round"/>
<path d="M8.95898 26.3789C9.55662 26.2648 11.1146 26.8967 12.3737 26.8488C13.7264 26.7986 14.8624 25.7949 14.8624 25.7949" stroke="#7C6656" stroke-width="0.75" stroke-linecap="round" stroke-linejoin="round"/>
<g filter="url(#filter2_f_1067_23771)">
<ellipse cx="22.1075" cy="17.2601" rx="2.20667" ry="1.15946" transform="rotate(12.3273 22.1075 17.2601)" fill="#F5B0B0"/>
</g>
<g filter="url(#filter3_f_1067_23771)">
<ellipse cx="10.2969" cy="14.7894" rx="2.20667" ry="1.15946" transform="rotate(12.3273 10.2969 14.7894)" fill="#F5B0B0"/>
</g>
<path d="M19.8117 14.2294C19.6977 14.859 20.1151 15.4634 20.747 15.5798C21.3765 15.6938 21.981 15.2764 22.0974 14.6445C22.2137 14.0127 21.794 13.4105 21.1621 13.2942C20.5326 13.1801 19.9281 13.5975 19.8117 14.2294Z" fill="#7C6656"/>
<path d="M11.9836 12.8075C11.8696 13.4371 12.287 14.0416 12.9188 14.1579C13.5484 14.272 14.1529 13.8545 14.2692 13.2227C14.3856 12.5908 13.9658 11.9886 13.334 11.8723C12.7044 11.7582 12.0999 12.1757 11.9836 12.8075Z" fill="#7C6656"/>
<path d="M13.5352 16.5078C13.5352 16.5078 14.2993 17.8901 16.0671 18.2118C17.8327 18.5334 18.9755 17.4955 18.9755 17.4955" stroke="#7C6656" stroke-width="0.75" stroke-linecap="round" stroke-linejoin="round"/>
<path d="M18.1343 30.8833C18.1343 30.8833 16.8113 31.4581 16.2547 32.3363C15.6981 33.2145 14.9271 35.3451 14.9271 35.3451C13.7182 36.4947 15.5362 37.4733 16.9231 37.2269C18.3077 36.9806 18.7114 34.3665 18.8802 33.9947C19.049 33.6229 19.9569 33.1507 20.5294 32.902C23.399 31.5517 23.5427 29.647 23.2393 28.2578" stroke="#7C6656" stroke-width="0.75" stroke-linecap="round" stroke-linejoin="round"/>
<path d="M14.0593 22.9102C14.0593 22.9102 12.8708 26.1721 16.0255 30.3897" stroke="#7C6656" stroke-width="0.75" stroke-linecap="round" stroke-linejoin="round"/>
<path d="M18.1344 24.3281C18.1344 24.3281 16.9688 26.3811 15.5659 26.3309C14.1083 26.0298 12.2219 25.1083 11.0152 26.267C9.80854 27.4258 10.3514 29.3419 12.5869 28.6416C12.7944 28.6279 13.3624 28.6142 13.9783 28.7922C14.5942 28.9678 16.8114 29.4286 18.3944 28.1375C19.7083 27.2068 19.7266 23.8582 18.1367 24.3281H18.1344Z" fill="white"/>
<path d="M18.1341 24.3281C18.1341 24.3281 16.9867 26.2237 15.4995 26.2237C14.0122 26.2237 12.6322 25.3455 11.5327 25.8861C10.431 26.4267 10.0934 27.9824 10.837 28.5891C11.5806 29.1982 12.6619 28.7922 12.9995 28.2515" stroke="#7C6656" stroke-width="0.75" stroke-linecap="round" stroke-linejoin="round"/>
<path d="M12.5859 28.6413C13.1836 28.5273 14.7415 29.1591 16.0007 29.1112C17.3533 29.061 18.4893 28.0574 18.4893 28.0574L18.9752 27.6719" stroke="#7C6656" stroke-width="0.75" stroke-linecap="round" stroke-linejoin="round"/>
<path d="M17.0684 25.5566C17.0684 25.5566 18.2773 26.7496 18.1359 28.3258" stroke="#7C6656" stroke-width="0.75" stroke-linecap="round" stroke-linejoin="round"/>
<path d="M12.9297 23.7344C12.9297 23.7344 13.5547 24.202 13.6551 25.3927" stroke="#7C6656" stroke-width="0.75" stroke-linecap="round" stroke-linejoin="round"/>
<path d="M14.5449 22.5781C14.5449 22.5781 14.9852 24.8751 18.206 22.9454C18.206 22.9454 18.9382 23.0526 19.2097 23.0708" stroke="#7C6656" stroke-width="0.75" stroke-linecap="round" stroke-linejoin="round"/>
<path d="M14.9297 35.3438C14.9297 35.3438 15.8125 36.6964 17.7901 36.4181" stroke="#7C6656" stroke-width="0.75" stroke-linecap="round" stroke-linejoin="round"/>
<path d="M9.66116 8.67773C9.34866 9.37117 9.36691 10.368 9.319 10.7444C9.0065 11.3146 7.45994 13.0095 7.54434 15.4707C7.63102 17.932 9.38059 20.3043 13.4546 21.8599C13.4546 21.8599 15.8679 22.6401 16.7598 22.6971" stroke="#7C6656" stroke-width="0.75" stroke-linecap="round" stroke-linejoin="round"/>
<path d="M18.5156 22.8669C21.3373 23.2889 24.5399 22.9399 26.7753 21.5143C28.6321 20.3304 29.5514 18.72 29.7407 14.7852" stroke="#7C6656" stroke-width="0.75" stroke-linecap="round" stroke-linejoin="round"/>
<path d="M30.0675 14.8479C34.5019 5.34734 25.7837 2.86784 25.7837 2.86784C20.2453 -1.26543 12.7817 2.08315 12.7817 2.08315C12.7817 2.08315 7.34366 4.36877 8.74423 9.25707" stroke="#7C6656" stroke-width="0.75" stroke-linecap="round" stroke-linejoin="round"/>
<path d="M24.3723 5.6582C24.3723 5.6582 24.313 8.90642 18.9023 9.82113" stroke="#7C6656" stroke-width="0.75" stroke-linecap="round" stroke-linejoin="round"/>
<path d="M25.2207 7.70898C25.2207 7.70898 27.8827 9.96495 28.0355 13.1105" stroke="#7C6656" stroke-width="0.75" stroke-linecap="round" stroke-linejoin="round"/>
<path d="M13.416 9.03821C13.416 9.03821 17.1752 8.5706 18.9339 5.52539" stroke="#7C6656" stroke-width="0.75" stroke-linecap="round" stroke-linejoin="round"/>
<path d="M20.9593 3.32449C20.9593 3.32449 22.3781 4.16164 22.0976 5.3227C21.8809 6.21231 21.3722 6.53394 19.7526 7.07455C18.1331 7.61516 15.5897 5.77434 14.4766 3.71455C15.738 2.83406 18.0031 1.13468 20.9593 3.32449Z" fill="#1BAE91"/>
<path d="M21.4896 6.22829C21.4896 6.22829 17.6688 9.57688 14.4297 3.62788C14.4297 3.62788 18.2071 0.365976 21.9845 4.20043" stroke="#7C6656" stroke-width="0.75" stroke-linecap="round" stroke-linejoin="round"/>
<path d="M18.0703 4.58789C18.0589 4.63579 21.0585 6.15269 23.1069 4.62895" stroke="#7C6656" stroke-width="0.75" stroke-linecap="round" stroke-linejoin="round"/>
<path d="M11.8359 28.9566L13.2069 29.6774L13.1019 29.8758C12.9582 30.1473 13.0631 30.4849 13.3346 30.6286C13.606 30.7723 13.9436 30.6674 14.0873 30.3959L14.8834 28.8836C15.0271 28.6121 14.9222 28.2745 14.6508 28.1308C14.3793 27.9871 14.0417 28.0921 13.898 28.3635L13.7931 28.562" stroke="#7C6656" stroke-width="0.75" stroke-linecap="round" stroke-linejoin="round"/>
<path d="M15.334 29.4504C15.334 29.4504 20.4435 30.2237 23.6941 27.9677C23.6941 27.9677 22.4805 26.225 22.1247 24.8358C21.7688 23.4467 21.6685 23.0977 21.6685 23.0977" stroke="#7C6656" stroke-width="0.75" stroke-linecap="round" stroke-linejoin="round"/>
<defs>
<filter id="filter0_f_1067_23771" x="38.1895" y="17.3223" width="5.83984" height="3.95312" filterUnits="userSpaceOnUse" color-interpolation-filters="sRGB">
<feFlood flood-opacity="0" result="BackgroundImageFix"/>
<feBlend mode="normal" in="SourceGraphic" in2="BackgroundImageFix" result="shape"/>
<feGaussianBlur stdDeviation="0.375" result="effect1_foregroundBlur_1067_23771"/>
</filter>
<filter id="filter1_f_1067_23771" x="26.3809" y="14.8535" width="5.83984" height="3.95312" filterUnits="userSpaceOnUse" color-interpolation-filters="sRGB">
<feFlood flood-opacity="0" result="BackgroundImageFix"/>
<feBlend mode="normal" in="SourceGraphic" in2="BackgroundImageFix" result="shape"/>
<feGaussianBlur stdDeviation="0.375" result="effect1_foregroundBlur_1067_23771"/>
</filter>
<filter id="filter2_f_1067_23771" x="19.1875" y="15.2832" width="5.83984" height="3.95312" filterUnits="userSpaceOnUse" color-interpolation-filters="sRGB">
<feFlood flood-opacity="0" result="BackgroundImageFix"/>
<feBlend mode="normal" in="SourceGraphic" in2="BackgroundImageFix" result="shape"/>
<feGaussianBlur stdDeviation="0.375" result="effect1_foregroundBlur_1067_23771"/>
</filter>
<filter id="filter3_f_1067_23771" x="7.37695" y="12.8125" width="5.83984" height="3.95312" filterUnits="userSpaceOnUse" color-interpolation-filters="sRGB">
<feFlood flood-opacity="0" result="BackgroundImageFix"/>
<feBlend mode="normal" in="SourceGraphic" in2="BackgroundImageFix" result="shape"/>
<feGaussianBlur stdDeviation="0.375" result="effect1_foregroundBlur_1067_23771"/>
</filter>
</defs>
</svg>
