<svg width="53" height="46" viewBox="0 0 53 46" fill="none" xmlns="http://www.w3.org/2000/svg">
<path d="M19.8122 7.91194L20.1698 10.2955L18.6205 11.9639L17.7862 13.7515L17.4287 15.6584L17.9054 17.6843L18.8588 19.5911L21.5999 22.213L22.9108 22.9281L20.5273 23.0472L19.3355 23.2856L18.1438 23.8815L17.0712 24.5965L16.1178 25.7883L15.4027 25.9075L14.8069 26.265L14.3301 26.8609L14.0918 28.1718L14.5685 29.2444L15.6411 29.9594H16.8328L17.4287 29.8403L18.1438 29.1252L18.3821 28.1718L18.2629 27.4567L18.6205 27.0992L19.0972 26.7417L20.1698 26.265H21.4807L22.9108 26.6225L23.3875 28.7677L23.6258 30.4361L23.745 31.3895L24.8176 33.1772L26.2477 34.0114L27.797 34.4881L27.2011 35.6799L26.2477 36.3949L24.8176 36.8716L24.1025 37.3483L23.8642 37.9442L23.6258 38.7784L23.8642 39.4935L24.9368 40.0894L26.1285 40.2085L26.8436 39.9702L27.2011 39.4935L27.0819 38.8976L28.3929 38.5401L29.9422 37.9442L30.6572 37.4675L32.0873 35.799L32.6832 34.8456V34.4881L33.0407 34.2497H33.9941L35.0667 34.6073L35.6626 35.084L36.4968 35.3223L37.5694 35.2032L38.1653 34.8456L38.8803 34.2497L39.2379 33.5347L39.357 32.8196V32.1046L38.7611 31.2704L38.1653 31.032L37.4502 31.2704L36.7352 31.6279L36.4968 31.5087L34.7092 30.6745L33.6366 30.4361L32.9215 28.0526L34.4708 28.1718L36.1393 28.0526L37.8077 27.3376L38.5228 26.7417H38.7611L39.9529 26.5033L40.5488 25.6691L40.668 24.5965L40.4296 24.1198L40.0721 23.5239L39.2379 23.0472L38.5228 23.1664L37.9269 23.4048L37.4502 23.7623L37.331 24.1198L37.0927 24.9541L36.1393 25.3116L34.8284 25.5499L33.0407 25.0732L32.3257 24.5965L33.6366 24.4773L36.4968 23.8815L37.9269 23.2856L38.8803 22.6897L39.8337 20.9021L40.9063 18.0419L41.5022 17.5652L42.2172 16.3734L42.9323 14.7049L43.2898 12.3214L42.9323 10.0571L42.0981 8.26947L40.3104 6.60101L38.8803 5.6476L37.2119 4.2175L34.7092 2.90656L30.7764 2.07234L27.2011 1.83398L25.4135 2.19151L23.6258 2.66821L22.0766 3.62162L20.6465 5.05173L20.0506 6.36266L19.8122 7.91194Z" fill="white"/>
<path d="M30.3154 40.2979C31.7765 39.4685 31.91 38.2457 29.2309 37.9931C26.733 37.7595 23.9538 38.5246 22.1305 39.7426C20.698 40.6983 20.1331 41.4468 19.8828 42.4788C19.8399 42.6552 20.0377 42.8268 20.3237 42.946C22.1734 43.7254 24.5593 44.3737 27.0429 44.531C30.2034 44.736 33.159 43.9995 33.8716 42.8793C34.6987 41.6041 32.6131 40.3504 30.3202 40.2979H30.3154Z" fill="#CBBBA0" stroke="#7C6656" stroke-width="0.75" stroke-linecap="round" stroke-linejoin="round"/>
<path d="M33.3367 41.7949C33.3367 41.7949 33.78 42.5767 31.6396 43.4086C29.3061 44.3167 24.3198 43.7947 21.1641 42.7722" stroke="#7C6656" stroke-width="0.75" stroke-linecap="round" stroke-linejoin="round"/>
<path d="M13.7838 41.0486C15.1424 40.3526 15.3093 39.2442 12.8852 38.9153C10.6257 38.6078 8.07292 39.199 6.37109 40.2358C5.03394 41.0486 4.49288 41.7064 4.22593 42.6336C4.18064 42.7933 4.35464 42.9554 4.60729 43.0745C6.25668 43.854 8.39946 44.5309 10.6471 44.7668C13.5097 45.0719 16.2198 44.5142 16.911 43.525C17.7118 42.3976 15.8646 41.182 13.7814 41.0462L13.7838 41.0486Z" fill="#CBBBA0" stroke="#7C6656" stroke-width="0.75" stroke-linecap="round" stroke-linejoin="round"/>
<path d="M16.4713 42.5234C16.4713 42.5234 16.8456 43.2504 14.8696 43.9249C12.7149 44.6614 8.2077 43.9988 5.38086 42.9501" stroke="#7C6656" stroke-width="0.75" stroke-linecap="round" stroke-linejoin="round"/>
<path d="M47.8975 40.7249C49.2465 40.0075 49.3943 38.8968 46.9655 38.606C44.7012 38.3343 42.158 38.9659 40.4728 40.0289C39.15 40.8632 38.6185 41.5305 38.3658 42.4625C38.3229 42.6222 38.4993 42.7819 38.7543 42.8963C40.418 43.6495 42.5679 44.293 44.8204 44.4932C47.6877 44.7531 50.3882 44.1524 51.0628 43.1537C51.8446 42.0144 49.9783 40.8274 47.8951 40.7249H47.8975Z" fill="#CBBBA0" stroke="#7C6656" stroke-width="0.75" stroke-linecap="round" stroke-linejoin="round"/>
<path d="M50.6083 42.1562C50.6083 42.1562 50.9944 42.8761 49.0304 43.584C46.8876 44.3538 42.3709 43.7627 39.5273 42.7593" stroke="#7C6656" stroke-width="0.75" stroke-linecap="round" stroke-linejoin="round"/>
<path d="M27.2459 38.5393C27.2459 38.5393 27.4819 39.6238 26.5261 40.1005C25.8444 40.4914 23.7231 40.2006 23.6992 38.3796C23.9495 37.4691 24.5573 37.1211 25.2652 36.8613" fill="white"/>
<path d="M28.9465 30.3281L24.0723 31.7535C24.0723 31.7535 24.5609 34.0631 27.719 34.4349C27.2328 35.8269 26.4844 36.2249 24.5633 37.0163C24.7253 38.0888 25.1377 38.6752 27.1851 38.9588C27.1851 38.9588 28.5127 38.6204 29.2397 38.2533C29.9667 37.8862 32.6958 36.4323 32.9294 34.1346C33.6969 34.1346 35.0221 34.3229 35.9112 35.0928C35.6704 34.2752 36.19 32.2254 36.7955 31.5556C35.4011 31.0527 34.5049 30.688 33.2178 30.6332C33.2178 30.6332 32.1071 30.5617 28.9489 30.3281H28.9465Z" fill="#8FBDE2"/>
<g filter="url(#filter0_f_1067_23706)">
<ellipse cx="2.12635" cy="1.24294" rx="2.12635" ry="1.24294" transform="matrix(0.951663 0.307146 -0.308909 0.951092 31.5195 16.1816)" fill="#F5B0B0"/>
</g>
<g filter="url(#filter1_f_1067_23706)">
<ellipse cx="2.12635" cy="1.24294" rx="2.12635" ry="1.24294" transform="matrix(0.951663 0.307146 -0.308909 0.951092 20.6992 13.0371)" fill="#F5B0B0"/>
</g>
<path d="M31.384 15.0002C31.1981 15.6437 31.5676 16.3159 32.2111 16.5018C32.8547 16.6877 33.5268 16.3182 33.7127 15.6747C33.8986 15.0312 33.5292 14.359 32.8856 14.1731C32.2421 13.9872 31.5699 14.3566 31.384 15.0002Z" fill="#7C6656"/>
<path d="M23.3977 13.0217C23.2118 13.6652 23.5812 14.3374 24.2248 14.5233C24.8683 14.7092 25.5405 14.3397 25.7264 13.6962C25.9123 13.0526 25.5429 12.3805 24.8993 12.1946C24.2558 12.0087 23.5836 12.3781 23.3977 13.0217Z" fill="#7C6656"/>
<path d="M20.6587 8.49609C20.418 9.09197 20.213 9.72837 20.039 10.3981C19.6386 10.9463 17.8081 12.4956 17.5673 15.0579C17.3266 17.6202 18.8544 20.6735 22.8683 22.8329C22.8683 22.8329 22.9707 22.8806 23.1447 22.9545" stroke="#7C6656" stroke-width="0.75" stroke-linecap="round" stroke-linejoin="round"/>
<path d="M32.1074 24.5077C33.7473 24.5411 35.5015 24.348 36.8244 23.8308C38.6597 23.1133 40.1661 21.2971 40.9908 17.6074" stroke="#7C6656" stroke-width="0.75" stroke-linecap="round" stroke-linejoin="round"/>
<path d="M25.6056 15.9238C25.6056 15.9238 22.7406 18.6029 24.7213 20.555C26.3111 22.121 29.6051 21.0579 29.598 17.2085L25.6056 15.9238Z" fill="#F29AA0" stroke="#7C6656" stroke-width="0.75" stroke-linecap="round" stroke-linejoin="round"/>
<path d="M36.7949 31.5579C36.7949 31.5579 37.6792 30.7641 38.5492 31.3004C39.8578 32.1108 39.2237 34.0653 38.4086 34.7017C37.6006 35.3333 36.6472 35.6408 35.2433 34.6159C33.837 33.591 31.8277 34.5253 28.3954 34.4371C24.9656 34.3513 23.6832 31.9202 23.6546 30.7618C23.626 29.6034 22.9801 26.7169 22.9801 26.7169C19.8386 25.1915 18.2178 27.4964 18.2178 27.4964C18.623 28.7358 18.2178 29.5295 16.9451 29.9585C15.4983 30.4376 14.092 29.2315 14.1754 27.6608C14.2588 26.0901 15.994 25.8422 15.994 25.8422C18.971 21.6258 24.6057 23.268 24.6057 23.268C24.6057 23.268 25.8522 23.5421 25.9976 23.6184" stroke="#7C6656" stroke-width="0.75" stroke-linecap="round" stroke-linejoin="round"/>
<path d="M36.7283 31.7554C36.7283 31.7554 34.4974 29.8534 29.7852 30.8449" stroke="#7C6656" stroke-width="0.75" stroke-linecap="round" stroke-linejoin="round"/>
<path d="M32.9308 34.1367C32.9308 34.1367 31.9082 38.2983 26.9648 38.8442" stroke="#7C6656" stroke-width="0.75" stroke-linecap="round" stroke-linejoin="round"/>
<path d="M27.7185 34.4375C27.7185 34.4375 27.504 35.8557 25.7282 36.5636C24.782 36.9402 24.0288 36.9497 23.7213 38.2464C23.4186 39.5192 24.8344 40.2342 25.7759 40.2342C26.7174 40.2342 27.2656 39.7265 27.1846 38.9566" stroke="#7C6656" stroke-width="0.75" stroke-linecap="round" stroke-linejoin="round"/>
<path d="M32.084 25.7578C32.084 25.7578 32.8872 27.4001 33.6476 30.4605" stroke="#7C6656" stroke-width="0.75" stroke-linecap="round" stroke-linejoin="round"/>
<path d="M33.663 25.3047C33.663 25.3047 33.8489 26.4583 33.2578 27.5738L33.663 25.3047Z" fill="white"/>
<path d="M33.663 25.3047C33.663 25.3047 33.8489 26.4583 33.2578 27.5738" stroke="#7C6656" stroke-width="0.75" stroke-linecap="round" stroke-linejoin="round"/>
<path d="M21.3906 22.9766C21.3906 22.9766 21.7195 24.2732 21.8721 26.3111L21.3906 22.9766Z" fill="white"/>
<path d="M21.3906 22.9766C21.3906 22.9766 21.7195 24.2732 21.8721 26.3111" stroke="#7C6656" stroke-width="0.75" stroke-linecap="round" stroke-linejoin="round"/>
<path d="M36.7952 31.5566C36.7952 31.5566 35.4676 33.5445 35.9109 35.0223L36.7952 31.5566Z" fill="white"/>
<path d="M36.7952 31.5566C36.7952 31.5566 35.4676 33.5445 35.9109 35.0223" stroke="#7C6656" stroke-width="0.75" stroke-linecap="round" stroke-linejoin="round"/>
<path d="M24.5625 37.0176C24.5625 37.0176 24.5792 38.8863 27.1844 38.9601" stroke="#7C6656" stroke-width="0.75" stroke-linecap="round" stroke-linejoin="round"/>
<path d="M30.6493 24.5094C30.6493 24.5094 29.4051 26.0682 26.1016 23.6895L30.6493 24.5094Z" fill="white"/>
<path d="M30.6493 24.5094C30.6493 24.5094 29.4051 26.0682 26.1016 23.6895" stroke="#7C6656" stroke-width="0.75" stroke-linecap="round" stroke-linejoin="round"/>
<path d="M32.9351 28.0298C34.5559 28.3873 36.8202 28.4183 38.7151 26.695C38.7151 26.695 40.2596 26.8118 40.6315 25.4747C41.0033 24.1351 40.0213 22.829 38.6818 22.9648C37.5019 23.0912 37.0014 23.699 37.1134 24.8454C37.1134 24.8454 34.5249 26.4233 32.108 24.507C32.108 24.507 28.8045 24.1614 27.3887 23.8515" stroke="#7C6656" stroke-width="0.75" stroke-linecap="round" stroke-linejoin="round"/>
<path d="M41.4465 17.7475C46.8046 9.45288 38.9366 5.65595 38.9366 5.65595C34.048 0.49803 25.7868 2.04016 25.7868 2.04016C25.7868 2.04016 19.4204 3.22715 19.89 8.52093" stroke="#7C6656" stroke-width="0.75" stroke-linecap="round" stroke-linejoin="round"/>
<path d="M34.3646 3.02341C34.3646 3.02341 35.4539 4.35818 34.7579 5.39262C34.224 6.18633 33.6091 6.31742 31.8238 6.2626C30.0386 6.20778 28.2152 3.48343 27.8672 1.06178C29.4212 0.656582 32.2576 -0.191949 34.3646 3.02341Z" fill="#1AAF92"/>
<path d="M33.8337 6.06355C33.8337 6.06355 28.8784 7.96321 27.8535 0.960449C27.8535 0.960449 32.7349 -0.870089 35.0541 4.25446" stroke="#7C6656" stroke-width="0.75" stroke-linecap="round" stroke-linejoin="round"/>
<path d="M31.0725 3.2207C31.0439 3.26361 33.437 5.83542 35.9945 5.08223" stroke="#7C6656" stroke-width="0.75" stroke-linecap="round" stroke-linejoin="round"/>
<path d="M36.307 7.21094C36.307 7.21094 33.6732 10.6551 29.0039 10.7338" stroke="#7C6656" stroke-width="0.75" stroke-linecap="round" stroke-linejoin="round"/>
<path d="M28.6114 6.15625C28.6114 6.15625 25.8584 7.67455 22.1211 8.13695" stroke="#7C6656" stroke-width="0.75" stroke-linecap="round" stroke-linejoin="round"/>
<path d="M38.4922 10.2695C38.4922 10.2695 40.5754 12.4576 40.3609 16.3689" stroke="#7C6656" stroke-width="0.75" stroke-linecap="round" stroke-linejoin="round"/>
<path d="M31.8449 30.5593C31.8449 30.5593 28.5747 29.5535 24.0723 31.7558" stroke="#7C6656" stroke-width="0.75" stroke-linecap="round" stroke-linejoin="round"/>
<path d="M26.599 23.6884C26.599 23.6884 26.3273 23.6551 25.9102 23.5859" stroke="#7C6656" stroke-width="0.75" stroke-linecap="round" stroke-linejoin="round"/>
<path d="M42.4175 25.8867C42.4175 25.8867 42.5343 27.4336 40.7109 28.0652" stroke="#7C6656" stroke-width="0.75" stroke-linecap="round" stroke-linejoin="round"/>
<path d="M12.2983 32.7988C12.2983 32.7988 15.1776 33.2445 13.8857 36.2668C13.5187 37.2393 12.4485 37.7017 12.4485 37.7017C12.4485 37.7017 13.7093 38.0878 13.5187 38.9125C13.4162 39.313 13.5806 39.7062 12.6773 39.3201C12.048 38.7457 11.7096 38.238 11.035 38.5407C10.3605 38.8434 10.9778 40.0137 10.9778 40.0137C10.9778 40.0137 11.4951 41.0863 10.6918 41.2484C10.1245 41.339 9.798 40.643 9.71458 40.0137C9.63115 39.3845 9.27839 39.0341 8.14622 39.139C7.58133 37.7589 8.68728 35.4517 8.78262 35.323C8.87796 35.1919 11.4093 32.9299 12.2983 32.8012V32.7988Z" fill="white"/>
<path d="M6.20694 37.1344C5.50857 37.1773 5.00327 36.9342 4.70533 36.4075C4.46936 35.9951 4.10945 35.6757 3.68757 35.4922C3.60891 35.7186 3.52787 35.9427 3.44922 36.1691C3.6685 36.2716 3.90924 36.4504 4.08562 36.7602C4.29775 37.132 4.7673 37.7089 5.69449 37.8304C5.75408 37.8376 5.81605 37.8447 5.8804 37.8471L6.48105 37.132C6.46675 37.132 6.24508 37.132 6.20933 37.132L6.20694 37.1344Z" fill="#E1B995"/>
<path d="M5.87629 37.8505C5.81193 37.8458 5.74996 37.841 5.69037 37.8338C4.76557 37.7123 4.29363 37.1355 4.0815 36.7636C3.73112 36.1463 3.12333 36.051 2.94695 36.0343C2.75388 36.02 2.60372 35.8436 2.62041 35.6482C2.63709 35.4503 2.81109 35.3049 3.00654 35.3216C3.71921 35.3764 4.34845 35.7888 4.70121 36.4085C4.99915 36.9353 5.50446 37.1784 6.20283 37.1355C6.23858 37.1355 6.46025 37.1355 6.47455 37.1355" stroke="#7C6656" stroke-width="0.75" stroke-linecap="round" stroke-linejoin="round"/>
<path d="M9.1943 38.3248C9.24198 38.3487 8.93927 38.7443 9.29203 39.2616C8.62703 39.2353 8.66993 39.14 8.66993 39.14C8.66993 39.14 9.55421 40.1959 8.98456 40.4056C8.47925 40.2602 7.69508 39.6048 7.52585 39.4999C7.4019 39.4236 7.50916 39.9289 7.50916 39.9289C7.50916 39.9289 6.98002 41.1707 6.43896 41.0254C5.89552 40.8585 6.19823 39.9718 6.12672 39.0852C6.05522 38.1985 5.97895 37.4048 6.46757 37.2284C6.95619 37.052 7.7928 37.0234 7.7928 37.0234C7.7928 37.0234 8.50309 37.984 9.19669 38.3296L9.1943 38.3248Z" fill="#E1B995"/>
<path d="M13.8861 33.7551C13.8861 33.7551 13.8098 34.0483 13.1329 34.2318C12.2153 34.4821 11.0307 33.8385 10.4324 34.2318C9.83414 34.6251 10.1964 36.0862 9.96047 36.6106C9.7245 37.1326 9.25972 37.8476 8.12517 37.7713C7.85583 37.5735 7.35291 35.8026 7.8606 34.7919C7.7438 34.32 6.7761 32.9042 7.01683 32.387C7.25757 31.8698 9.55289 33.2784 9.55289 33.2784C9.55289 33.2784 9.82699 33.5335 9.7388 33.0806C9.65061 32.6277 9.12147 31.3335 9.36221 31.3478C9.60294 31.3621 11.8983 32.1749 12.1676 32.5967C12.5752 32.7636 13.5691 33.0568 13.8885 33.7575L13.8861 33.7551Z" fill="#E1B995"/>
<path d="M8.24609 33.5312C8.24609 33.5312 8.62984 34.4894 8.59885 34.4108C8.56787 34.3297 9.09224 33.9746 9.09224 33.9746" stroke="#7C6656" stroke-width="0.75" stroke-linecap="round" stroke-linejoin="round"/>
<path d="M10.4316 32.627L10.7343 33.1537L11.2301 32.9964" stroke="#7C6656" stroke-width="0.75" stroke-linecap="round" stroke-linejoin="round"/>
<path d="M9.7519 33.2755C9.7519 33.2755 9.13695 31.5499 9.35862 31.3449C9.58028 31.1399 11.9781 32.3841 12.2975 32.7988C12.2975 32.7988 14.016 33.1802 14.1757 34.2146C14.3354 35.2491 14.0804 36.5862 12.6812 37.5087C11.2821 38.4311 9.08451 38.7505 8.06675 37.5087C7.04899 36.2668 7.85939 34.7914 7.85939 34.7914C7.85939 34.7914 7.01562 32.5772 7.01562 32.3865C7.01562 32.1958 9.27519 32.8513 9.7519 33.5902L10.1118 33.44" stroke="#7C6656" stroke-width="0.75" stroke-linecap="round" stroke-linejoin="round"/>
<path d="M12.3804 35.2188C12.3804 35.2188 12.2731 35.5381 11.7249 35.3689C11.7249 35.3689 11.8512 35.9386 11.3555 35.9767" stroke="#7C6656" stroke-width="0.75" stroke-linecap="round" stroke-linejoin="round"/>
<path d="M12.427 34.2887C12.427 34.4961 12.2578 34.6653 12.0504 34.6653C11.8431 34.6653 11.6738 34.4961 11.6738 34.2887C11.6738 34.0813 11.8431 33.9121 12.0504 33.9121C12.2578 33.9121 12.427 34.0813 12.427 34.2887Z" fill="#7C6656"/>
<path d="M10.6516 35.4274C10.6516 35.6347 10.4824 35.804 10.275 35.804C10.0677 35.804 9.89844 35.6347 9.89844 35.4274C9.89844 35.22 10.0677 35.0508 10.275 35.0508C10.4824 35.0508 10.6516 35.22 10.6516 35.4274Z" fill="#7C6656"/>
<path d="M12.4488 37.7021C12.4488 37.7021 13.6882 38.1788 13.4999 39.0821C13.3069 40.0046 12.4584 38.932 12.0508 38.7461C11.6813 38.5792 11.3238 38.2765 10.8495 38.6579C10.3251 39.0797 11.8029 41.0795 10.6946 41.2464C9.58622 41.4132 9.93898 39.2943 9.16195 39.2228L7.46251 39.2514C7.46251 39.2514 7.48634 40.9174 6.60206 41.0223C5.71778 41.1272 6.1778 39.5517 6.23262 39.0797C6.28744 38.6054 5.46751 37.4709 6.79036 37.0919C6.79036 37.0919 7.21701 36.9203 7.55308 37.0919" stroke="#7C6656" stroke-width="0.75" stroke-linecap="round" stroke-linejoin="round"/>
<path d="M8.65282 39.3203C8.65282 39.3203 9.43461 40.3285 9.07708 40.3929C8.71956 40.4549 8.13321 40.2356 7.82812 39.7374" stroke="#7C6656" stroke-width="0.75" stroke-linecap="round" stroke-linejoin="round"/>
<path d="M2.12216 37.9375C2.12216 37.9375 1.41664 38.8885 2.12216 39.6393" stroke="#7C6656" stroke-width="0.75" stroke-linecap="round" stroke-linejoin="round"/>
<path d="M0.983656 36.8574C0.983656 36.8574 -0.570394 39.0145 1.33642 40.5852" stroke="#7C6656" stroke-width="0.75" stroke-linecap="round" stroke-linejoin="round"/>
<path d="M50.8625 33.6189C50.3429 32.4152 48.5362 32.8824 48.4647 34.1671C48.3932 35.4518 49.3728 36.8104 48.8818 37.79C48.8818 37.79 51.6896 35.5376 50.8601 33.6189H50.8625Z" fill="#A1DDF0"/>
<path d="M49.2207 37.9929C49.2207 37.9929 50.8534 36.6223 51.8974 36.6057C52.9414 36.589 52.9914 37.6425 52.5505 38.0048C52.1572 38.3289 51.6376 38.3361 51.0489 38.1549C50.4601 37.9738 49.6116 37.857 49.2207 37.9905V37.9929Z" fill="#7FD3EC"/>
<defs>
<filter id="filter0_f_1067_23706" x="30.3496" y="15.916" width="5.61914" height="4.20117" filterUnits="userSpaceOnUse" color-interpolation-filters="sRGB">
<feFlood flood-opacity="0" result="BackgroundImageFix"/>
<feBlend mode="normal" in="SourceGraphic" in2="BackgroundImageFix" result="shape"/>
<feGaussianBlur stdDeviation="0.375" result="effect1_foregroundBlur_1067_23706"/>
</filter>
<filter id="filter1_f_1067_23706" x="19.5293" y="12.7715" width="5.61914" height="4.20117" filterUnits="userSpaceOnUse" color-interpolation-filters="sRGB">
<feFlood flood-opacity="0" result="BackgroundImageFix"/>
<feBlend mode="normal" in="SourceGraphic" in2="BackgroundImageFix" result="shape"/>
<feGaussianBlur stdDeviation="0.375" result="effect1_foregroundBlur_1067_23706"/>
</filter>
</defs>
</svg>
