<svg width="41" height="44" viewBox="0 0 41 44" fill="none" xmlns="http://www.w3.org/2000/svg">
<path d="M6.65222 38.5235L6.90587 35.7334L13.1203 34.7188L14.6422 37.3821L14.3886 40.6795L14.6422 41.1868L15.0227 41.9478L14.3886 42.8356L13.2471 43.0892L11.9789 42.7087L11.3448 41.9478L11.2179 40.1722L11.4716 37.1284L10.0765 36.8748L9.69603 40.9332L10.3302 41.5673L10.0765 42.7087L8.68142 43.0892L7.03269 42.5819L6.52539 41.1868L6.65222 38.5235Z" fill="white"/>
<path d="M19.2734 26.2384C18.69 26.2384 16.7065 26.2206 15.7198 26.0025C15.6893 25.9974 14.1142 25.7336 13.3557 25.5713L13.3253 25.5662C13.2416 25.5485 13.1706 25.5307 13.1122 25.5155L13.1046 25.5104L13.0514 25.4977C12.0596 25.2441 10.8522 24.752 9.65244 24.1153L9.42416 23.9936L9.27958 24.2092L9.25928 24.2244C9.15529 24.2269 9.05129 24.2295 8.94729 24.2295C4.12286 24.2295 1.39611 20.9143 1.28197 20.7748C1.27436 20.7646 1.27436 20.7545 1.27943 20.7443H1.28451L1.30733 20.7291H1.37582C1.56859 20.7291 1.74869 20.7114 1.92371 20.6708L2.41325 20.5592L2.07082 20.1914C0.115175 18.0987 0.954759 13.0993 4.15837 7.75233C7.03477 2.94819 10.0938 2.57532 10.9638 2.57532H11.1541L11.2428 2.48147C11.6106 2.07817 13.0361 0.761719 15.9176 0.761719C16.2423 0.761719 16.5796 0.779474 16.9221 0.812449C19.0451 1.02044 26.2412 2.18216 29.7314 8.389C31.611 11.7321 30.5025 15.7373 30.4543 15.9072L30.2058 16.0898L30.3909 16.3359C30.3909 16.3359 30.4036 16.3511 30.396 16.3663C30.3884 16.3815 30.3732 16.3841 30.3681 16.3841L30.1804 16.2953L30.0257 16.4424L29.5158 16.9801L29.5995 17.1577C29.6553 17.2795 30.9363 20.1838 27.8925 22.2967L27.7935 22.3423L27.7479 22.4159C26.3224 24.7622 23.4029 26.1166 19.5245 26.2333C19.5093 26.2333 19.418 26.2333 19.2709 26.2333L19.2734 26.2384Z" fill="white"/>
<path d="M10.0675 37.6406C9.9305 38.4929 9.76562 40.9406 9.76562 40.9406" stroke="#7C6656" stroke-width="0.75" stroke-linecap="round" stroke-linejoin="round"/>
<path d="M9.51165 40.8973C9.51165 40.8973 10.2929 41.2346 10.2904 41.8713C10.2904 42.508 9.80589 43.2512 8.14701 42.9975C6.49067 42.7439 6.53633 41.5923 6.57438 39.8649C6.61242 38.1705 6.82549 35.6797 6.82549 35.6797" stroke="#7C6656" stroke-width="0.75" stroke-linecap="round" stroke-linejoin="round"/>
<path d="M14.6964 37.6406C14.5594 38.4929 14.3945 40.9406 14.3945 40.9406" stroke="#7C6656" stroke-width="0.75" stroke-linecap="round" stroke-linejoin="round"/>
<path d="M14.1406 40.8973C14.1406 40.8973 14.9218 41.2346 14.9193 41.8713C14.9193 42.508 14.4348 43.2512 12.7759 42.9975C11.1196 42.7439 11.1652 41.5923 11.2033 39.8649C11.2413 38.1705 11.4544 35.6797 11.4544 35.6797" stroke="#7C6656" stroke-width="0.75" stroke-linecap="round" stroke-linejoin="round"/>
<path d="M5.54963 30.4668C5.1514 32.0039 4.47669 33.6425 4.21289 35.8975C5.11589 36.9171 12.8675 37.7085 16.307 37.3915C16.307 37.3915 16.2537 34.822 16.5657 32.8486" fill="white"/>
<path d="M5.54963 30.4668C5.1514 32.0039 4.47669 33.6425 4.21289 35.8975C5.11589 36.9171 12.8675 37.7085 16.307 37.3915C16.307 37.3915 16.2537 34.822 16.5657 32.8486" stroke="#7C6656" stroke-width="0.75" stroke-linecap="round" stroke-linejoin="round"/>
<path d="M8.42609 23.5488C8.42609 23.5488 5.76783 26.1437 5.04492 30.6384C7.33792 31.478 12.8295 33.5528 12.8295 33.5528C12.8295 33.5528 13.494 33.5477 13.7629 33.0404C13.9151 33.355 13.9861 33.6061 14.6963 33.3905C15.4091 33.1723 17.3013 32.5686 17.3013 32.5686C17.3013 32.5686 17.243 29.2433 17.5296 28.3504C17.8162 27.4576 18.354 26.1386 18.354 26.1386H17.2252C17.2252 26.1386 15.3863 27.6656 14.5391 27.7138C14.0673 27.8381 12.2106 25.3954 12.1624 25.0961C11.6069 24.9743 8.42609 23.5539 8.42609 23.5539V23.5488Z" fill="#E5BEC3"/>
<path d="M18.0344 27.0644C17.2075 28.2743 17.3165 30.6866 17.139 32.5686C17.139 32.5686 14.3412 33.6086 14.0901 33.4945C13.839 33.3829 13.7629 33.0404 13.7629 33.0404C13.7629 33.0404 13.4534 33.3727 13.1009 33.4336C12.7483 33.4945 5.04492 30.6384 5.04492 30.6384C6.56429 24.8932 8.42609 23.5488 8.42609 23.5488" stroke="#7C6656" stroke-width="0.75" stroke-linecap="round" stroke-linejoin="round"/>
<path d="M14.6839 18.5684C14.6839 18.5684 14.1512 19.03 13.8164 19.621" stroke="#7C6656" stroke-width="0.75" stroke-linecap="round" stroke-linejoin="round"/>
<g filter="url(#filter0_f_1067_24564)">
<ellipse cx="2.26284" cy="1.32273" rx="2.26284" ry="1.32273" transform="matrix(0.987411 0.158174 -0.160004 0.987116 21.25 17.0234)" fill="#F5B0B0"/>
</g>
<g filter="url(#filter1_f_1067_24564)">
<ellipse cx="2.26284" cy="1.32273" rx="2.26284" ry="1.32273" transform="matrix(0.987411 0.158174 -0.160004 0.987116 9.35938 15.4727)" fill="#F5B0B0"/>
</g>
<path d="M20.756 19.882C20.756 19.882 19.5182 20.7825 17.5397 20.5263C15.5587 20.2701 14.6582 19.0957 14.6582 19.0957" stroke="#7C6656" stroke-width="0.75" stroke-linecap="round" stroke-linejoin="round"/>
<path d="M15.003 15.4431C15.003 15.4431 14.8179 14.6416 13.8286 14.4311C12.847 14.2231 12.1875 14.8851 12.1875 14.8851" stroke="#7C6656" stroke-width="0.75" stroke-linecap="round" stroke-linejoin="round"/>
<path d="M21.168 16.4174C21.168 16.4174 21.5079 15.6665 22.5199 15.6564C23.5244 15.6437 24.0418 16.4224 24.0418 16.4224" stroke="#7C6656" stroke-width="0.75" stroke-linecap="round" stroke-linejoin="round"/>
<path d="M10.8867 14.4141L11.1936 14.9188" stroke="#7C6656" stroke-width="0.75" stroke-linecap="round" stroke-linejoin="round"/>
<path d="M25.2738 16.1934L24.8477 16.5282" stroke="#7C6656" stroke-width="0.75" stroke-linecap="round" stroke-linejoin="round"/>
<path d="M28.1726 16.207C28.4415 17.1912 29.0629 19.2305 28.2132 21.4221C27.224 23.9764 24.3755 26.0614 19.5282 26.2059C19.5282 26.2059 16.9156 26.2338 15.7285 25.9726" stroke="#7C6656" stroke-width="0.75" stroke-linecap="round" stroke-linejoin="round"/>
<path d="M13.7883 25.6215C11.3634 25.2588 7.23649 23.0115 5.4026 20.9797C4.48438 19.9651 3.53319 18.4229 4.08108 15.582" stroke="#7C6656" stroke-width="0.75" stroke-linecap="round" stroke-linejoin="round"/>
<path d="M13.7873 7.67552C13.7873 7.67552 9.82016 5.77822 7.93807 10.7777C6.05598 15.7771 3.07812 15.8608 3.07812 15.8608" stroke="#7C6656" stroke-width="0.75" stroke-linecap="round" stroke-linejoin="round"/>
<path d="M12.1816 3.45312C12.1816 3.45312 12.7194 6.74044 13.7873 7.67641" stroke="#7C6656" stroke-width="0.75" stroke-linecap="round" stroke-linejoin="round"/>
<path d="M13.1758 6.40715C13.1758 6.40715 13.8251 4.21814 16.8765 4.69754C19.928 5.17694 22.4493 7.40146 24.41 11.0287C26.287 14.5037 27.7353 16.5101 29.3891 16.4365" stroke="#7C6656" stroke-width="0.75" stroke-linecap="round" stroke-linejoin="round"/>
<path d="M13.7871 7.67587C13.7871 7.67587 15.3395 4.84006 18.3528 6.81853" stroke="#7C6656" stroke-width="0.75" stroke-linecap="round" stroke-linejoin="round"/>
<path d="M2.17631 20.2548C0.207982 18.3067 0.844645 13.3504 4.1903 7.76753C7.53595 2.18468 11.1758 2.61335 11.1758 2.61335C11.1758 2.61335 12.8195 0.439558 16.9261 0.840326C21.0302 1.24363 26.8236 3.26776 29.7126 8.40419C31.6099 11.7777 30.433 15.8996 30.433 15.8996" stroke="#7C6656" stroke-width="0.75" stroke-linecap="round" stroke-linejoin="round"/>
<path d="M3.12981 19.6953C3.12981 19.6953 2.84825 20.8063 1.30859 20.7556C1.30859 20.7556 4.20021 24.3447 9.26054 24.1951" stroke="#7C6656" stroke-width="0.75" stroke-linecap="round" stroke-linejoin="round"/>
<path d="M26.4219 10.0781C26.4219 10.0781 28.6134 15.5291 30.3738 16.356" stroke="#7C6656" stroke-width="0.75" stroke-linecap="round" stroke-linejoin="round"/>
<path d="M29.5768 17.1719C29.5768 17.1719 30.9693 20.1396 27.8672 22.2829" stroke="#7C6656" stroke-width="0.75" stroke-linecap="round" stroke-linejoin="round"/>
<path d="M12.1035 25.1777C12.1035 25.1777 14.0744 27.6762 14.5386 27.7117C15.0027 27.7447 16.9736 26.4105 16.9736 26.4105" stroke="#7C6656" stroke-width="0.75" stroke-linecap="round" stroke-linejoin="round"/>
<path d="M15.2447 33.3572C15.3995 33.3521 16.8047 33.5906 17.6493 33.1289C18.4255 33.3876 20.0692 33.8341 20.0692 33.8341C20.0692 33.8341 18.6183 33.933 18.5675 35.2342C19.3995 35.2291 20.1782 35.531 20.8098 34.2754C21.1624 35.29 22.3495 35.8962 22.3495 35.8962C22.3495 35.8962 22.73 34.9095 22.1466 34.354C22.5296 34.2196 22.9633 34.316 22.9633 34.316C22.9633 34.316 23.222 36.2793 23.3615 36.9717C23.5036 37.6642 23.4934 38.5925 23.1206 39.2901C22.8923 40.325 23.0318 43.1202 21.1015 42.9528C20.5004 42.7194 20.2493 41.9762 20.4268 41.8215C20.6018 41.6668 20.8656 39.3789 20.4065 39.3408C19.9804 39.3028 18.8998 39.3408 18.8998 39.3408C18.8998 39.3408 18.6335 41.228 18.4204 41.8697C18.2074 42.5089 17.3348 42.9452 16.5586 42.7271C16.1122 42.585 15.4984 42.5647 16.4166 41.2305C16.4648 40.3935 16.5054 38.5697 16.4064 37.7251C16.3101 36.8804 16.6297 35.0795 16.6297 35.0795L15.2422 33.3572H15.2447Z" fill="#FFE596"/>
<path d="M21.3535 34.062C22.5279 34.3511 24.727 34.3207 26.0891 33.7119C27.4513 33.1032 28.3619 31.1805 28.4709 27.4671C28.58 23.7562 25.488 22.2343 25.488 22.2343C25.488 22.2343 23.1088 20.928 20.3592 21.5113C17.6096 22.0947 16.4403 23.7587 15.9355 26.1532C15.7199 26.4804 14.7028 27.429 14.6343 28.9179C14.5709 30.2877 15.3851 31.8578 17.3712 32.9865C17.7009 33.1742 18.0611 33.3036 18.4314 33.3898L21.3586 34.0645L21.3535 34.062Z" fill="white"/>
<mask id="mask0_1067_24564" style="mask-type:alpha" maskUnits="userSpaceOnUse" x="12" y="26" width="5" height="4">
<ellipse cx="2.26284" cy="1.32273" rx="2.26284" ry="1.32273" transform="matrix(0.987411 0.158174 -0.160004 0.987116 12.4043 26.3809)" fill="#F5B0B0"/>
</mask>
<g mask="url(#mask0_1067_24564)">
<path d="M21.3554 34.062C22.5298 34.3511 24.729 34.3207 26.0911 33.7119C27.4532 33.1032 28.3638 31.1805 28.4729 27.4671C28.582 23.7562 25.49 22.2343 25.49 22.2343C25.49 22.2343 23.1107 20.928 20.3611 21.5113C17.6116 22.0947 16.4422 23.7587 15.9375 26.1532C15.7219 26.4804 14.7047 27.429 14.6362 28.9179C14.5728 30.2877 15.387 31.8578 17.3731 32.9865C17.7029 33.1742 18.0631 33.3036 18.4334 33.3898L21.3605 34.0645L21.3554 34.062Z" stroke="#7C6656" stroke-width="0.75" stroke-linecap="round" stroke-linejoin="round"/>
</g>
<path d="M21.3535 34.062C22.5279 34.3511 24.727 34.3207 26.0891 33.7119C27.4513 33.1032 28.3619 31.1805 28.4709 27.4671C28.58 23.7562 25.488 22.2343 25.488 22.2343C25.488 22.2343 23.1088 20.928 20.3592 21.5113C17.6096 22.0947 16.4403 23.7587 15.9355 26.1532C15.7199 26.4804 14.7028 27.429 14.6343 28.9179C14.5709 30.2877 15.3851 31.8578 17.3712 32.9865C17.7009 33.1742 18.0611 33.3036 18.4314 33.3898L21.3586 34.0645L21.3535 34.062Z" stroke="#7C6656" stroke-width="0.75" stroke-linecap="round" stroke-linejoin="round"/>
<path d="M20.8539 39.1898C20.4962 39.3902 18.9134 39.2608 18.9134 39.2608C18.9134 39.2608 18.675 40.5697 18.4645 41.4676C18.2539 42.3655 17.6173 42.9895 16.7168 42.8398C15.408 42.6192 16.1918 41.5944 16.1918 41.5944C16.1918 41.5944 16.7143 40.9019 16.524 39.621C16.207 37.503 16.6306 35.0781 16.6306 35.0781" stroke="#7C6656" stroke-width="0.75" stroke-linecap="round" stroke-linejoin="round"/>
<path d="M20.4069 39.3409C20.7519 40.5888 20.5667 41.8419 20.5667 41.8419C20.5667 41.8419 19.9148 42.9529 21.2389 43.0137C22.152 43.0543 22.7101 42.3593 22.809 41.4411C22.9079 40.5229 22.9865 39.1963 22.9865 39.1963C22.9865 39.1963 23.7779 38.5089 23.1692 36.5761C22.8648 35.6071 22.9815 34.5469 22.9815 34.5469" stroke="#7C6656" stroke-width="0.75" stroke-linecap="round" stroke-linejoin="round"/>
<path d="M26.9316 26.3164C26.9316 26.3164 27.7687 23.8941 28.9532 24.9822C29.7573 25.7204 27.5024 26.5067 27.5024 26.5067C27.5024 26.5067 29.7725 26.6792 29.3083 27.6329C28.6083 29.0711 27.0965 26.8567 27.0965 26.8567" fill="white"/>
<path d="M26.9316 26.3164C26.9316 26.3164 27.7687 23.8941 28.9532 24.9822C29.7573 25.7204 27.5024 26.5067 27.5024 26.5067C27.5024 26.5067 29.7725 26.6792 29.3083 27.6329C28.6083 29.0711 27.0965 26.8567 27.0965 26.8567" stroke="#7C6656" stroke-width="0.75" stroke-linecap="round" stroke-linejoin="round"/>
<path d="M16.6312 35.077C16.6312 35.077 13.2374 31.7288 13.25 30.5442C13.2653 29.3597 14.3509 29.0375 14.9774 29.8112C15.6039 30.5848 17.3566 32.7408 17.6483 33.1264" fill="#FFE596"/>
<path d="M16.6312 35.077C16.6312 35.077 13.2374 31.7288 13.25 30.5442C13.2653 29.3597 14.3509 29.0375 14.9774 29.8112C15.6039 30.5848 17.3566 32.7408 17.6483 33.1264" stroke="#7C6656" stroke-width="0.75" stroke-linecap="round" stroke-linejoin="round"/>
<path d="M19.2433 37.3892C19.2433 37.62 19.0556 37.8077 18.8248 37.8077C18.594 37.8077 18.4062 37.62 18.4062 37.3892C18.4062 37.1584 18.594 36.9707 18.8248 36.9707C19.0556 36.9707 19.2433 37.1584 19.2433 37.3892Z" fill="white" stroke="#7C6656" stroke-width="0.75" stroke-linecap="round" stroke-linejoin="round"/>
<path d="M22.1964 37.3892C22.1964 37.62 22.0087 37.8077 21.7779 37.8077C21.5471 37.8077 21.3594 37.62 21.3594 37.3892C21.3594 37.1584 21.5471 36.9707 21.7779 36.9707C22.0087 36.9707 22.1964 37.1584 22.1964 37.3892Z" fill="white" stroke="#7C6656" stroke-width="0.75" stroke-linecap="round" stroke-linejoin="round"/>
<path d="M20.3514 33.8286C20.3514 33.8286 18.8346 33.6738 18.4414 35.211C18.4414 35.211 20.1764 35.5813 20.8536 34.2344" stroke="#7C6656" stroke-width="0.75" stroke-linecap="round" stroke-linejoin="round"/>
<path d="M21.002 34.2088C21.002 34.2088 21.0527 35.4694 22.3514 35.8955C22.3514 35.8955 22.8105 35.2234 22.0267 34.1758" stroke="#7C6656" stroke-width="0.75" stroke-linecap="round" stroke-linejoin="round"/>
<path d="M2.03349 26.1992C2.03349 26.1992 0.455783 28.3096 0.831186 30.2399L2.03349 26.1992Z" fill="white"/>
<path d="M2.03349 26.1992C2.03349 26.1992 0.455783 28.3096 0.831186 30.2399" stroke="#7C6656" stroke-width="0.75" stroke-linecap="round" stroke-linejoin="round"/>
<path d="M4.21166 26.1992C4.21166 26.1992 2.63395 26.9982 2.4082 31.0896L4.21166 26.1992Z" fill="white"/>
<path d="M4.21166 26.1992C4.21166 26.1992 2.63395 26.9982 2.4082 31.0896" stroke="#7C6656" stroke-width="0.75" stroke-linecap="round" stroke-linejoin="round"/>
<path d="M39.4118 14.6313C40.117 14.1291 40.4569 13.0536 39.6706 12.2952C38.9705 11.6306 37.7327 11.6839 36.8119 12.4575C36.0307 13.1145 35.5234 14.157 35.2773 15.1564C35.7669 16.0619 36.5177 16.9446 37.4384 17.3809C38.5215 17.8983 39.7391 17.6371 40.2413 16.8203C40.8196 15.8894 40.2185 14.9306 39.4118 14.6313Z" fill="#EE7474"/>
<path d="M36.3808 7.79762C36.533 7.20154 36.2261 6.46088 35.4474 6.41015C34.7625 6.36956 34.1132 6.96818 33.9686 7.81284C33.8443 8.52813 34.0472 9.32713 34.3744 9.98409C35.0567 10.253 35.871 10.3874 36.571 10.1997C37.3979 9.98409 37.9407 9.28148 37.8368 8.60676C37.7226 7.83567 36.9566 7.58962 36.3808 7.79762Z" fill="#EE7474"/>
<path d="M24.8398 38.9688C24.8398 38.9688 25.9661 40.3613 24.8398 42.2408V38.9688Z" fill="white"/>
<path d="M24.8398 38.9688C24.8398 38.9688 25.9661 40.3613 24.8398 42.2408" stroke="#7C6656" stroke-width="0.75" stroke-linecap="round" stroke-linejoin="round"/>
<path d="M26.8311 40.0625C26.8311 40.0625 27.6149 41.1887 26.5293 42.2414L26.8311 40.0625Z" fill="white"/>
<path d="M26.8311 40.0625C26.8311 40.0625 27.6149 41.1887 26.5293 42.2414" stroke="#7C6656" stroke-width="0.75" stroke-linecap="round" stroke-linejoin="round"/>
<path d="M32.4085 29.6641L30.2246 30.1333" stroke="#7C6656" stroke-width="0.75" stroke-linecap="round" stroke-linejoin="round"/>
<path d="M29.6816 31.9277L32.1497 32.8434" stroke="#7C6656" stroke-width="0.75" stroke-linecap="round" stroke-linejoin="round"/>
<path d="M28.6875 33.416L29.8974 35.2144" stroke="#7C6656" stroke-width="0.75" stroke-linecap="round" stroke-linejoin="round"/>
<path d="M14.7555 29.0108C14.8493 29.4014 14.5069 29.7438 14.1163 29.65C13.9336 29.6069 13.7814 29.4547 13.7383 29.272C13.6445 28.8814 13.9869 28.539 14.3775 28.6329C14.5601 28.676 14.7123 28.8282 14.7555 29.0108Z" fill="#7C6656"/>
<path d="M14.6305 31.1397C14.7243 31.5303 14.3819 31.8727 13.9913 31.7789C13.8086 31.7358 13.6564 31.5836 13.6133 31.401C13.5195 31.0103 13.8619 30.6679 14.2525 30.7618C14.4351 30.8049 14.5873 30.9571 14.6305 31.1397Z" fill="#7C6656"/>
<path d="M8.1978 28.453C10.2777 30.6852 14.1484 31.9458 14.1484 31.9458C14.1484 31.9458 14.2677 30.2235 15.3381 29.214C14.6862 28.8969 11.7717 27.7707 10.3082 25.252C10.3082 25.252 8.91055 24.8005 8.27643 26.1854C7.6423 27.5703 8.1978 28.453 8.1978 28.453Z" fill="#E5BEC3"/>
<path d="M14.6152 32.2805C14.8435 32.7345 15.5131 33.7745 16.8144 33.5741C18.4682 33.3179 19.4168 31.5931 18.6051 30.1904C17.8822 28.9576 16.9665 28.7091 15.7642 29.4015L15.2316 29.2493C15.2316 29.2493 14.2373 30.9361 14.1992 31.6083C14.2931 31.9964 14.6152 32.2805 14.6152 32.2805Z" fill="white"/>
<path d="M10.3457 25.3887C11.5277 27.6462 15.7611 29.4014 15.7611 29.4014C16.966 28.709 17.8791 28.9601 18.602 30.1903C19.4137 31.593 18.4676 33.3203 16.8112 33.574C15.1574 33.8302 14.5208 32.0749 14.5208 32.0749C14.5208 32.0749 10.2772 30.6798 8.19727 28.4502" stroke="#7C6656" stroke-width="0.75" stroke-linecap="round" stroke-linejoin="round"/>
<path d="M15.2817 29.1875C15.2817 29.1875 14.2595 30.3112 14.1758 31.8407L15.2817 29.1875Z" fill="#7C6656"/>
<path d="M15.2817 29.1875C15.2817 29.1875 14.2595 30.3112 14.1758 31.8407" stroke="#7C6656" stroke-width="0.75" stroke-linecap="round" stroke-linejoin="round"/>
<defs>
<filter id="filter0_f_1067_24564" x="20.2773" y="16.582" width="5.99023" height="4.20898" filterUnits="userSpaceOnUse" color-interpolation-filters="sRGB">
<feFlood flood-opacity="0" result="BackgroundImageFix"/>
<feBlend mode="normal" in="SourceGraphic" in2="BackgroundImageFix" result="shape"/>
<feGaussianBlur stdDeviation="0.375" result="effect1_foregroundBlur_1067_24564"/>
</filter>
<filter id="filter1_f_1067_24564" x="8.38672" y="15.0312" width="5.99023" height="4.20898" filterUnits="userSpaceOnUse" color-interpolation-filters="sRGB">
<feFlood flood-opacity="0" result="BackgroundImageFix"/>
<feBlend mode="normal" in="SourceGraphic" in2="BackgroundImageFix" result="shape"/>
<feGaussianBlur stdDeviation="0.375" result="effect1_foregroundBlur_1067_24564"/>
</filter>
</defs>
</svg>
