<svg width="32" height="45" viewBox="0 0 32 45" fill="none" xmlns="http://www.w3.org/2000/svg">
<path d="M9.13165 36.9749V33.9673L9.39318 30.0445L9.78546 25.2063L10.8316 24.1602L21.5541 26.3831L23.1232 28.9984L23.3848 30.829L22.8617 32.2674L21.9464 33.1828L21.031 35.275L20.3772 40.5055L20.7695 42.2054L21.2926 42.99V43.513L20.3772 44.1668H18.9388L17.8927 43.9053L17.1082 43.2515L16.4544 39.1978L16.1928 37.4979H13.5776L12.27 42.5977L11.8777 43.513L10.8316 44.2976L9.52394 44.5591H8.6086L7.82403 44.1668L7.5625 43.1207L8.08555 42.4669L8.6086 41.9439L9.00089 39.8517L9.13165 36.9749Z" fill="white"/>
<path d="M9.18669 32.4238C9.18669 32.4238 9.09515 35.5857 9.08469 38.0388C9.07423 40.4919 8.45703 42.1866 8.45703 42.1866" stroke="#7C6656" stroke-width="0.75" stroke-linecap="round" stroke-linejoin="round"/>
<path d="M8.45877 42.2622C8.1554 42.3695 7.68988 42.5996 7.61666 43.0311C7.50943 43.6797 7.72388 44.5166 9.45256 44.5427C11.1812 44.5689 12.1437 43.5986 12.5412 41.8961C12.9387 40.1936 13.6134 37.3587 13.6134 37.3587C13.6134 37.3587 16.6105 37.6019 17.2852 37.2227" stroke="#7C6656" stroke-width="0.75" stroke-linecap="round" stroke-linejoin="round"/>
<path d="M16.2012 37.418C16.2012 37.418 16.8001 42.706 17.2865 43.3546C17.7729 44.0032 19.2035 44.2464 20.2025 44.1365C21.2015 44.0293 21.5258 43.2735 21.3088 42.8132C21.0917 42.3529 20.5791 42.183 20.5791 42.183" stroke="#7C6656" stroke-width="0.75" stroke-linecap="round" stroke-linejoin="round"/>
<path d="M20.3105 28.1758C20.3105 28.1758 21.3096 31.2016 20.9853 34.7113C20.661 38.2236 19.9706 39.3037 20.6793 42.0575" stroke="#7C6656" stroke-width="0.75" stroke-linecap="round" stroke-linejoin="round"/>
<path d="M21.5078 27.0859C21.5078 27.0859 22.7684 27.609 23.2417 30.0542C23.5974 31.8875 21.9498 33.4515 21.9498 33.4515" stroke="#7C6656" stroke-width="0.75" stroke-linecap="round" stroke-linejoin="round"/>
<path d="M20.7816 26.9168C20.7816 26.9168 22.4475 30.2983 22.2069 35.0424L17.0706 36.1329L15.98 34.1872L14.8058 36.0205C14.8058 36.0205 10.3468 35.4713 8.25195 34.1767C8.25195 34.1767 9.74788 28.091 10.4514 25.9648L13.8852 26.684L16.2965 31.721L17.8473 26.9508L20.6535 26.65L20.7816 26.9168Z" fill="#7C9AC0" stroke="#7C6656" stroke-width="0.75" stroke-linecap="round" stroke-linejoin="round"/>
<path d="M16.7504 33.0979C16.7347 33.3856 16.4915 33.6053 16.2038 33.5922C15.9161 33.5765 15.6965 33.3333 15.7095 33.0456C15.7252 32.7579 15.9684 32.5383 16.2561 32.5513C16.5438 32.5644 16.7635 32.8102 16.7504 33.0979Z" fill="#7C6656"/>
<path d="M11.4521 26.3125L11.2324 27.9993L16.2982 31.7208L20.5689 28.3262L20.2707 26.8486" stroke="#7C6656" stroke-width="0.75" stroke-linecap="round" stroke-linejoin="round"/>
<path d="M20.6787 42.1445C20.6787 42.1445 18.9631 43.3109 17.0801 42.665" stroke="#7C6656" stroke-width="0.75" stroke-linecap="round" stroke-linejoin="round"/>
<path d="M31.1509 9.28651L29.213 10.8426C29.213 10.8426 29.5949 13.7821 28.9515 17.0486C29.1712 18.4765 30.1127 22.2032 26.7835 25.3677C25.2196 26.963 21.1032 27.86 17.3372 27.3605C15.5745 27.2141 12.6062 26.1758 12.6062 26.1758C12.6062 26.1758 8.35903 25.1062 5.93731 22.3994C5.11874 20.9741 3.61758 18.7511 4.86506 13.8004C4.2897 12.8093 2.8827 10.0136 5.84316 6.25805C7.83075 4.34369 10.8435 3.94879 10.8435 3.94879C10.8435 3.94879 11.9105 1.88535 16.8691 1.35446C21.825 0.823561 25.9544 3.75787 27.6125 5.19364C29.2706 6.62942 29.7858 8.73469 31.1509 9.29174V9.28651Z" fill="white"/>
<path d="M28.7518 10.0918C29.5835 12.1971 29.539 14.509 28.9506 17.0484C29.0604 17.7859 29.6802 20.1474 28.6054 22.7601C27.5331 25.3727 24.7688 27.4414 19.7684 27.4911C19.7684 27.4911 18.4634 27.5198 17.2656 27.2766" stroke="#7C6656" stroke-width="0.75" stroke-linecap="round" stroke-linejoin="round"/>
<path d="M14.2695 26.6654C11.1966 25.9201 7.78634 24.5288 5.93735 22.3974C4.49897 20.7393 3.87915 17.6271 4.98802 13.2832" stroke="#7C6656" stroke-width="0.75" stroke-linecap="round" stroke-linejoin="round"/>
<path d="M11.7554 5.74805C11.7554 5.74805 11.214 8.15931 8.03125 8.41037" stroke="#7C6656" stroke-width="0.75" stroke-linecap="round" stroke-linejoin="round"/>
<path d="M13.1094 6.11164C13.1094 6.11164 14.5765 3.82853 17.9188 4.0639" stroke="#7C6656" stroke-width="0.75" stroke-linecap="round" stroke-linejoin="round"/>
<path d="M15.3086 6.70016C15.3086 6.70016 16.0618 4.87995 18.4521 5.22777" stroke="#7C6656" stroke-width="0.75" stroke-linecap="round" stroke-linejoin="round"/>
<path d="M10.6695 3.91016C10.6695 3.91016 6.0274 4.51166 4.62824 8.12856C3.2317 11.7454 4.67532 13.5892 4.67532 13.5892" stroke="#7C6656" stroke-width="0.75" stroke-linecap="round" stroke-linejoin="round"/>
<path d="M10.8438 3.94359C10.8438 3.94359 12.7764 0.648373 19.3302 1.47479C25.8841 2.30121 28.3842 5.78211 29.6003 7.7697C29.6003 7.7697 30.2149 8.73473 31.1512 9.28655L29.2133 10.8426" stroke="#7C6656" stroke-width="0.75" stroke-linecap="round" stroke-linejoin="round"/>
<path d="M17.9414 3.95312C17.9414 3.95312 19.2647 7.70078 22.9915 9.87667" stroke="#7C6656" stroke-width="0.75" stroke-linecap="round" stroke-linejoin="round"/>
<path d="M21.5938 5.70117C21.5938 5.70117 24.2116 9.48805 28.6575 10.6466" stroke="#7C6656" stroke-width="0.75" stroke-linecap="round" stroke-linejoin="round"/>
<path d="M8.77426 9.17383C8.77426 9.17383 8.07076 12.1474 5.50781 12.6626" stroke="#7C6656" stroke-width="0.75" stroke-linecap="round" stroke-linejoin="round"/>
<g filter="url(#filter0_f_1067_25441)">
<ellipse cx="2.33308" cy="1.36379" rx="2.33308" ry="1.36379" transform="matrix(0.987411 0.158174 -0.160004 0.987116 22.2539 18.5371)" fill="#F5B0B0"/>
</g>
<g filter="url(#filter1_f_1067_25441)">
<ellipse cx="2.33308" cy="1.36379" rx="2.33308" ry="1.36379" transform="matrix(0.987411 0.158174 -0.160004 0.987116 9.4375 16.4453)" fill="#F5B0B0"/>
</g>
<path d="M15.2554 16.0028C15.122 16.7246 14.429 17.2032 13.7046 17.0699C12.9828 16.9365 12.5042 16.2434 12.6375 15.519C12.7709 14.7972 13.464 14.3186 14.1884 14.452C14.9102 14.5854 15.3888 15.2784 15.2554 16.0028Z" fill="#7C6656"/>
<path d="M21.0603 20.9958C21.0603 20.9958 19.6794 22.1674 17.6552 21.796C15.631 21.422 14.8281 19.8477 14.8281 19.8477" stroke="#7C6656" stroke-width="0.75" stroke-linecap="round" stroke-linejoin="round"/>
<path d="M14.7404 18.834C14.7404 18.834 14.165 19.276 13.7832 19.8644" stroke="#7C6656" stroke-width="0.75" stroke-linecap="round" stroke-linejoin="round"/>
<path d="M11.8606 15.9922L11.0996 16.0863" stroke="#7C6656" stroke-width="0.75" stroke-linecap="round" stroke-linejoin="round"/>
<path d="M23.9885 16.4785L21.7891 17.4252L24.012 18.1052" stroke="#7C6656" stroke-width="0.75" stroke-linecap="round" stroke-linejoin="round"/>
<path d="M4.65022 12.5193C4.15594 11.7765 3.05753 11.3895 2.25204 12.1793C1.54592 12.8776 1.55899 14.1564 2.32788 15.1293C2.97907 15.9557 4.03564 16.5128 5.06081 16.7978C6.01015 16.3245 6.94379 15.5765 7.42239 14.6402C7.99251 13.5418 7.76237 12.276 6.93333 11.7347C5.99184 11.1096 4.98497 11.6955 4.65022 12.5193Z" fill="#EE7474"/>
<path d="M2.3148 6.488C1.77082 6.16371 0.95225 6.25263 0.677649 7.00582C0.439661 7.67009 0.839795 8.48082 1.6296 8.86788C2.2991 9.1974 3.14645 9.22878 3.88656 9.09802C4.34946 8.50436 4.7156 7.7407 4.73652 6.99536C4.76267 6.11925 4.22916 5.38175 3.5335 5.2876C2.74108 5.17514 2.27557 5.86034 2.3148 6.488Z" fill="#EE7474"/>
<path d="M5.44767 21.4057C5.44767 21.4057 3.62223 19.2141 2.19168 19.5828C0.622534 19.9856 0.531 21.5704 1.22666 22.3105C1.71309 22.831 3.21948 24.2903 3.21948 24.2903" fill="white"/>
<path d="M5.44767 21.4057C5.44767 21.4057 3.62223 19.2141 2.19168 19.5828C0.622534 19.9856 0.531 21.5704 1.22666 22.3105C1.71309 22.831 3.21948 24.2903 3.21948 24.2903" stroke="#7C6656" stroke-width="0.75" stroke-linecap="round" stroke-linejoin="round"/>
<path d="M7.5956 24.1017C7.5956 24.1017 9.70873 24.0024 10.8725 25.2394C12.0337 26.4764 11.4322 29.1701 10.4959 29.9677C9.55966 30.7654 6.20952 31.9135 3.88456 30.0096C1.55961 28.1083 2.82539 24.6536 3.55243 23.7591C4.27947 22.8647 6.96533 19.9043 8.29388 19.2295C9.62242 18.5574 11.1628 18.8922 11.1602 20.5005C11.1576 21.952 8.7777 24.0991 8.7777 24.0991" fill="white"/>
<path d="M7.5956 24.1017C7.5956 24.1017 9.70873 24.0024 10.8725 25.2394C12.0337 26.4764 11.4322 29.1701 10.4959 29.9677C9.55966 30.7654 6.20952 31.9135 3.88456 30.0096C1.55961 28.1083 2.82539 24.6536 3.55243 23.7591C4.27947 22.8647 6.96533 19.9043 8.29388 19.2295C9.62242 18.5574 11.1628 18.8922 11.1602 20.5005C11.1576 21.952 8.7777 24.0991 8.7777 24.0991" stroke="#7C6656" stroke-width="0.75" stroke-linecap="round" stroke-linejoin="round"/>
<path d="M10.8668 25.4408C10.8668 25.4408 9.78931 24.7477 9.11719 25.3963" stroke="#7C6656" stroke-width="0.75" stroke-linecap="round" stroke-linejoin="round"/>
<path d="M12.2114 42.5376C12.2114 42.5376 11.0188 43.4869 8.57617 42.2656" stroke="#7C6656" stroke-width="0.75" stroke-linecap="round" stroke-linejoin="round"/>
<defs>
<filter id="filter0_f_1067_25441" x="21.2754" y="18.1055" width="6.12891" height="4.29297" filterUnits="userSpaceOnUse" color-interpolation-filters="sRGB">
<feFlood flood-opacity="0" result="BackgroundImageFix"/>
<feBlend mode="normal" in="SourceGraphic" in2="BackgroundImageFix" result="shape"/>
<feGaussianBlur stdDeviation="0.375" result="effect1_foregroundBlur_1067_25441"/>
</filter>
<filter id="filter1_f_1067_25441" x="8.45898" y="16.0137" width="6.12891" height="4.29297" filterUnits="userSpaceOnUse" color-interpolation-filters="sRGB">
<feFlood flood-opacity="0" result="BackgroundImageFix"/>
<feBlend mode="normal" in="SourceGraphic" in2="BackgroundImageFix" result="shape"/>
<feGaussianBlur stdDeviation="0.375" result="effect1_foregroundBlur_1067_25441"/>
</filter>
</defs>
</svg>
