<svg width="62" height="51" viewBox="0 0 62 51" fill="none" xmlns="http://www.w3.org/2000/svg">
<ellipse cx="29" cy="46.5" rx="18" ry="3.75" fill="#EEEEEE"/>
<path d="M20.9992 29.1875L22.4898 29.9375L23.8563 30.5625L22.6141 31.4375L20.1297 32.5625H18.5148L18.018 31.9375L17.2727 31.1875H15.782L14.6641 32.0625L14.1672 33.3125L14.2914 34.4375L15.0367 35.4375L16.1547 35.9375L17.3969 35.5625L18.018 35.0625L19.5086 35.4375L20.6266 35.5625L21.8688 35.3125L23.2352 34.8125L22.8625 39.0625L23.2352 39.1875L23.732 43.9375L23.4836 45.8125L22.7383 46.6875L22.8625 47.4375L24.3531 47.9375L26.0922 47.6875L26.8375 46.9375L27.2102 44.6875L27.5828 41.5625H30.0672L31.5578 47.1875L32.3031 47.9375L33.5453 48.1875L35.1602 48.0625L35.657 47.1875V46.4375L34.6633 45.8125L34.2906 43.4375V39.1875L35.1602 39.0625L34.9117 38.1875L34.4148 34.6875L36.1539 35.1875H37.2719L39.2594 34.8125L40.0047 34.3125L41.1227 33.6875L41.9922 34.0625L43.4828 33.6875L44.2281 32.6875L44.4766 31.0625L43.8555 30.1875L42.4891 29.3125L41.3711 29.5625L40.1289 30.4375L39.8805 31.4375L38.5141 32.0625L36.8992 32.1875L35.657 32.0625L34.6633 31.4375L37.1477 30.3125L38.7625 29.5625L40.0047 28.5625L40.9984 27.0625L41.6195 24.4375L41.7438 22.3125L42.2406 21.3125L42.8617 19.1875L45.843 21.0625L47.0852 21.4375L47.2094 21.9375L45.9672 23.4375L48.0789 23.0625L50.1906 22.1875H51.557L54.4141 21.6875L56.7742 20.8125L58.3891 19.5625L59.7555 18.1875L60.7492 16.4375L60.9977 14.1875L60.5008 12.4375L59.0102 10.4375L56.7742 8.9375L53.6688 7.8125L50.4391 7.5625L46.7125 8.1875L44.725 8.9375L42.3648 10.9375L41.3711 12.3125L38.5141 10.3125L36.2781 9.5625L34.5391 8.5625L31.5578 7.8125L29.1977 7.6875L24.85 8.5625L21.3719 10.3125L19.757 11.8125L19.0117 13.0625L17.2727 11.0625L19.5086 10.3125L21.3719 8.8125L22.1172 7.8125L22.7383 6.5625V4.9375L21.8688 3.3125L20.0055 1.8125L17.2727 0.8125H15.0367L11.807 1.4375L9.81953 2.8125L8.57734 4.5625L8.32891 6.1875L8.70156 7.8125L9.57109 8.8125L7.83203 9.0625L4.47813 10.0625L2.36641 11.8125L1.24844 13.6875L1 15.9375L1.74531 18.0625L3.23594 19.6875L5.22344 20.9375L8.95 21.9375H10.9375L12.4281 22.6875L14.7883 23.1875L14.4156 22.8125L13.5461 21.6875L13.7945 21.5625L17.2727 19.6875L18.3906 18.5625L19.1359 16.9375L19.6328 19.1875L18.7633 20.5625L18.018 22.9375V24.6875L18.3906 26.1875L19.1359 27.4375L20.9992 29.1875Z" fill="white"/>
<path d="M15.5544 11.1432C19.5368 11.1432 22.7651 8.81664 22.7651 5.94662C22.7651 3.07661 19.5368 0.75 15.5544 0.75C11.5721 0.75 8.34375 3.07661 8.34375 5.94662C8.34375 8.81664 11.5721 11.1432 15.5544 11.1432Z" fill="white" stroke="#7C6656" stroke-width="0.75" stroke-linecap="round" stroke-linejoin="round"/>
<path d="M18.3474 5.0365C18.1072 4.43718 17.4282 4.14861 16.8327 4.39031C16.7812 4.41005 16.7273 4.43964 16.6709 4.46924C16.6881 4.36812 16.6954 4.2744 16.6954 4.19054C16.6954 3.54435 16.1758 3.02148 15.5312 3.02148C14.8866 3.02148 14.3695 3.54435 14.3695 4.19054C14.3695 4.34592 14.4013 4.54076 14.4553 4.74547C14.269 4.62462 14.0852 4.53336 13.9283 4.48404C13.3131 4.29413 12.6636 4.64188 12.4773 5.26094C12.2886 5.88 12.6342 6.53358 13.2494 6.72103C13.3401 6.74816 13.4504 6.77035 13.5705 6.78269C13.4822 6.87147 13.4062 6.96026 13.3499 7.04412C12.9896 7.57932 13.1317 8.3069 13.6636 8.66945C14.1955 9.03201 14.9185 8.88896 15.2788 8.35376C15.3621 8.22797 15.443 8.05533 15.5092 7.86048C15.6023 8.08986 15.7126 8.29456 15.8253 8.43515C16.2297 8.93829 16.9626 9.01474 17.4601 8.60779C17.9577 8.20084 18.0361 7.4634 17.6317 6.96273C17.5532 6.86654 17.4454 6.76295 17.318 6.66183C17.4626 6.63717 17.5949 6.60264 17.7003 6.55825C18.2959 6.31654 18.5826 5.63336 18.3425 5.03404L18.3474 5.0365Z" fill="#FFDB57"/>
<path d="M15.4274 6.73868C15.8619 6.73868 16.2141 6.38422 16.2141 5.94698C16.2141 5.50973 15.8619 5.15527 15.4274 5.15527C14.9929 5.15527 14.6406 5.50973 14.6406 5.94698C14.6406 6.38422 14.9929 6.73868 15.4274 6.73868Z" fill="#A48A7B"/>
<path d="M25.2259 32.9974C21.9245 36.8153 17.8878 35.0222 17.8878 35.0222C17.8878 35.0222 16.1819 36.8917 14.6109 34.8126C13.3143 33.0985 14.8731 31.335 15.8363 31.1624C16.7996 30.9897 18.0569 31.4115 18.4785 32.5016C18.4785 32.5016 20.1451 33.2366 22.8804 31.34" fill="white"/>
<path d="M25.2259 32.9974C21.9245 36.8154 17.8878 35.0223 17.8878 35.0223C17.8878 35.0223 16.1819 36.8918 14.6109 34.8127C13.3143 33.0986 14.8731 31.3351 15.8363 31.1625C16.7996 30.9898 18.0569 31.4116 18.4785 32.5017C18.4785 32.5017 20.1451 33.2367 22.8804 31.34L23.6794 30.79" stroke="#7C6656" stroke-width="0.75" stroke-linecap="round" stroke-linejoin="round"/>
<path d="M22.0625 31.9863C22.0625 31.9863 22.2243 32.5067 23.6752 34.0877" stroke="#7C6656" stroke-width="0.75" stroke-linecap="round" stroke-linejoin="round"/>
<path d="M33.6953 34.2035C38.0727 36.697 41.2834 33.651 41.2834 33.651C41.2834 33.651 43.5114 34.8423 44.303 32.3537C44.9574 30.3017 42.9035 29.1622 41.9403 29.3225C40.9746 29.4829 39.9281 30.3042 39.8938 31.4707C39.8938 31.4707 38.5653 32.7237 35.3571 31.8506" fill="white"/>
<path d="M33.6953 34.2035C38.0727 36.697 41.2834 33.651 41.2834 33.651C41.2834 33.651 43.5114 34.8423 44.303 32.3537C44.9574 30.3017 42.9035 29.1622 41.9403 29.3225C40.9746 29.4829 39.9281 30.3042 39.8938 31.4707C39.8938 31.4707 37.5997 33.0344 35.6781 31.9319C34.9674 31.5793 34.71 31.2512 34.71 31.2512" stroke="#7C6656" stroke-width="0.75" stroke-linecap="round" stroke-linejoin="round"/>
<path d="M36.2797 32.4131C36.2797 32.4131 36.3925 32.9976 35.5469 34.9732" stroke="#7C6656" stroke-width="0.75" stroke-linecap="round" stroke-linejoin="round"/>
<path d="M26.6675 46.5104C26.6675 46.5104 27.8244 43.7678 27.5866 41.4889C28.5205 41.5086 30.0253 41.4001 30.0817 41.3631C30.1626 41.6936 30.9126 45.9358 31.6135 47.1665C32.241 46.8335 33.5964 46.3378 34.7115 45.9259C34.6699 45.0824 34.4542 42.6432 34.3513 41.8243C34.2483 41.0055 34.3218 39.1582 34.3218 39.1582C34.3218 39.1582 25.0891 39.6219 23.1406 39.2026C23.2632 40.1669 24.2362 43.5286 23.3367 45.8692C24.9151 46.2071 26.2729 46.101 26.67 46.5104H26.6675Z" fill="#8FBDE2"/>
<path d="M34.3203 39.3242C34.3375 40.37 34.3473 41.2677 34.3497 41.8251C34.3595 44.1386 34.8693 45.9908 34.8693 45.9908" stroke="#7C6656" stroke-width="0.75" stroke-linecap="round" stroke-linejoin="round"/>
<path d="M34.6208 45.9883C34.6208 45.9883 36.9051 46.5161 34.9664 48.1118C33.736 48.4793 31.991 48.1118 31.5547 47.0513C32.5914 46.7307 34.6233 45.9907 34.6233 45.9907L34.6208 45.9883Z" fill="white"/>
<path d="M34.6213 45.9878C34.6213 45.9878 35.5576 46.1728 35.658 46.7844C35.7585 47.3961 35.5576 48.1853 33.9375 48.21C32.3174 48.2346 31.4155 47.3196 31.0429 45.714C30.6704 44.1084 30.1091 41.4349 30.1091 41.4349C30.1091 41.4349 27.3003 41.6643 26.668 41.3066" stroke="#7C6656" stroke-width="0.75" stroke-linecap="round" stroke-linejoin="round"/>
<path d="M27.6812 41.4941C27.6812 41.4941 27.0513 46.4811 26.5954 47.0928C26.1395 47.7044 24.7988 47.9338 23.8626 47.8302C22.9263 47.7291 22.6224 47.0163 22.8258 46.5822C23.0293 46.1482 23.5096 45.9879 23.5096 45.9879" stroke="#7C6656" stroke-width="0.75" stroke-linecap="round" stroke-linejoin="round"/>
<path d="M23.2266 39.2646C23.5329 42.4611 24.0672 43.3095 23.4128 45.8696" stroke="#7C6656" stroke-width="0.75" stroke-linecap="round" stroke-linejoin="round"/>
<path d="M26.6685 46.511C26.6685 46.511 24.823 45.8796 23.5117 45.9906" stroke="#7C6656" stroke-width="0.75" stroke-linecap="round" stroke-linejoin="round"/>
<path d="M34.8697 45.9883C34.8697 45.9883 33.2913 46.1017 31.8281 47.0858" stroke="#7C6656" stroke-width="0.75" stroke-linecap="round" stroke-linejoin="round"/>
<path d="M34.1724 31.6803C34.1724 31.6803 34.5817 38.3839 35.1797 39.1559C35.1797 39.1559 27.8049 40.0931 22.8956 39.1559C22.5917 35.846 23.8319 32.7754 23.8319 32.7754C23.8319 32.7754 24.3049 31.0292 24.5892 30.7949C25.5132 31.0243 31.8538 32.1268 33.5572 31.4904C35.2582 30.8541 34.1749 31.6803 34.1749 31.6803H34.1724Z" fill="white"/>
<path d="M23.8312 32.7787C23.8312 32.7787 22.5935 35.8493 22.895 39.1591C27.8042 40.0964 35.1791 39.1591 35.1791 39.1591C34.5811 38.3872 34.1718 31.6836 34.1718 31.6836" stroke="#7C6656" stroke-width="0.75" stroke-linecap="round" stroke-linejoin="round"/>
<path d="M30.7155 31.6784C30.7155 31.6784 29.4533 33.0596 27.6813 32.628C25.4582 32.0854 25.7205 31.126 25.7205 31.126" stroke="#7C6656" stroke-width="0.75" stroke-linecap="round" stroke-linejoin="round"/>
<path d="M19.5317 17.4395C19.5317 17.4395 19.4778 18.7812 19.4557 19.1906C19.1665 19.8294 17.6396 21.7802 17.9263 24.4267C18.2106 27.0731 20.2743 29.495 24.762 30.8491C24.762 30.8491 27.409 31.5002 28.3698 31.4903" stroke="#7C6656" stroke-width="0.75" stroke-linecap="round" stroke-linejoin="round"/>
<path d="M30.2617 31.5351C33.3205 31.767 36.7224 31.1381 39.0042 29.4239C40.8988 28.0008 41.7591 26.1905 41.6537 21.9336" stroke="#7C6656" stroke-width="0.75" stroke-linecap="round" stroke-linejoin="round"/>
<g filter="url(#filter0_f_323_6262)">
<ellipse cx="2.07809" cy="1.22185" rx="2.07809" ry="1.22185" transform="matrix(0.991043 0.133546 -0.13378 0.991011 32.6289 23.6875)" fill="#F5B0B0"/>
</g>
<g filter="url(#filter1_f_323_6262)">
<ellipse cx="2.07809" cy="1.22185" rx="2.07809" ry="1.22185" transform="matrix(0.991043 0.133546 -0.13378 0.991011 21.2148 22.4902)" fill="#F5B0B0"/>
</g>
<path d="M32.3105 21.6794C32.2443 22.37 32.7492 22.9816 33.4331 23.0482C34.1193 23.1148 34.7272 22.6068 34.7933 21.9186C34.8595 21.2281 34.3546 20.6164 33.6708 20.5498C32.9845 20.4832 32.3767 20.9913 32.3105 21.6794Z" fill="#7C6656"/>
<path d="M23.8027 20.8659C23.7365 21.5565 24.2414 22.1682 24.9252 22.2348C25.6115 22.3014 26.2193 21.7933 26.2855 21.1052C26.3517 20.4146 25.8468 19.8029 25.163 19.7363C24.4767 19.6697 23.8689 20.1778 23.8027 20.8659Z" fill="#7C6656"/>
<path d="M41.863 22.0743C45.8703 11.4789 36.3312 9.49343 36.3312 9.49343C30.0715 5.47573 22.3363 9.67594 22.3363 9.67594C22.3363 9.67594 16.6893 12.569 18.5716 17.7311" stroke="#7C6656" stroke-width="0.75" stroke-linecap="round" stroke-linejoin="round"/>
<path d="M35.1866 12.5176C35.1866 12.5176 35.3802 16.0247 29.6523 17.4404" stroke="#7C6656" stroke-width="0.75" stroke-linecap="round" stroke-linejoin="round"/>
<path d="M36.2578 14.6602C36.2578 14.6602 39.2872 16.8823 39.6989 20.2613" stroke="#7C6656" stroke-width="0.75" stroke-linecap="round" stroke-linejoin="round"/>
<path d="M23.7109 17.0276C23.7109 17.0276 27.7035 16.226 29.3481 12.8027" stroke="#7C6656" stroke-width="0.75" stroke-linecap="round" stroke-linejoin="round"/>
<path d="M30.8084 10.1102C30.8084 10.1102 32.5216 10.5616 32.573 11.8515C32.6122 12.8405 32.1809 13.3264 30.6637 14.3672C29.1491 15.4104 25.98 14.2463 24.2227 12.436C25.2668 11.1486 27.1074 8.70932 30.8084 10.1102Z" fill="#1AAF92"/>
<path d="M32.2096 12.9738C32.2096 12.9738 29.2464 17.5859 24.1484 12.3597C24.1484 12.3597 27.092 7.85121 32.1238 10.7171" stroke="#7C6656" stroke-width="0.75" stroke-linecap="round" stroke-linejoin="round"/>
<path d="M28.1953 12.2798C28.1978 12.334 31.7443 13.0222 33.4109 10.832" stroke="#7C6656" stroke-width="0.75" stroke-linecap="round" stroke-linejoin="round"/>
<path d="M26.6689 24.4668L30.6713 24.711C30.6713 24.711 30.7472 27.8457 28.2203 27.567C25.6909 27.2883 26.6713 24.4668 26.6713 24.4668H26.6689Z" fill="#F29AA0" stroke="#7C6656" stroke-width="0.75" stroke-linecap="round" stroke-linejoin="round"/>
<path d="M10.2634 22.0101C15.3448 22.0101 19.4642 19.042 19.4642 15.3806C19.4642 11.7191 15.3448 8.75098 10.2634 8.75098C5.18186 8.75098 1.0625 11.7191 1.0625 15.3806C1.0625 19.042 5.18186 22.0101 10.2634 22.0101Z" fill="white" stroke="#7C6656" stroke-width="0.75" stroke-linecap="round" stroke-linejoin="round"/>
<path d="M13.0579 20.7451C13.1853 21.411 13.6216 22.3162 14.8544 23.2855C14.8544 23.2855 12.678 22.9994 10.9844 21.7983" fill="white"/>
<path d="M13.0579 20.7451C13.1853 21.411 13.6216 22.3162 14.8544 23.2855C14.8544 23.2855 12.678 22.9994 10.9844 21.7983" stroke="#7C6656" stroke-width="0.75" stroke-linecap="round" stroke-linejoin="round"/>
<path d="M10.2495 13.8044C9.75197 12.9017 8.5314 12.3541 7.53142 13.1878C6.65643 13.9277 6.55349 15.4026 7.34514 16.5988C7.96523 17.536 9.00444 18.2414 10.0657 18.6779C10.2299 18.7445 10.4113 18.742 10.573 18.6705C11.6196 18.2019 12.6416 17.4669 13.2274 16.5124C13.9823 15.2965 13.8352 13.8192 12.9382 13.1138C11.9162 12.3048 10.7103 12.8869 10.2495 13.8068V13.8044Z" fill="#EE7474"/>
<path d="M50.9303 22.1253C56.4923 22.1253 61.0013 18.8767 61.0013 14.8693C61.0013 10.8619 56.4923 7.61328 50.9303 7.61328C45.3683 7.61328 40.8594 10.8619 40.8594 14.8693C40.8594 18.8767 45.3683 22.1253 50.9303 22.1253Z" fill="white" stroke="#7C6656" stroke-width="0.75" stroke-linecap="round" stroke-linejoin="round"/>
<path d="M47.6361 21.1914C47.4277 21.8351 46.8861 22.6811 45.543 23.4925C45.543 23.4925 49.3983 23.4679 51.1409 21.1939" fill="white"/>
<path d="M47.6361 21.1914C47.4277 21.8351 46.8861 22.6811 45.543 23.4925C45.543 23.4925 49.3983 23.4679 51.1409 21.1939" stroke="#7C6656" stroke-width="0.75" stroke-linecap="round" stroke-linejoin="round"/>
<path d="M48.8288 14.1621H46.9023V18.1749H48.8288V14.1621Z" fill="#5CA3D6"/>
<path d="M49.2734 14.4404C49.2734 14.4404 50.6092 12.9779 50.9033 11.7052C51.1974 10.4326 52.6288 11.0492 52.3837 11.8853C52.1361 12.7189 52.342 13.2368 52.4131 13.301C52.4842 13.3651 54.3101 13.301 54.3101 13.301C54.3101 13.301 55.0013 13.5279 54.9523 14.4404C54.9229 14.983 54.543 16.1348 54.2415 16.9783C54.0258 17.5826 53.4572 17.9846 52.8175 17.9846H49.2734V14.438V14.4404Z" fill="#5CA3D6"/>
<defs>
<filter id="filter0_f_323_6262" x="31.707" y="23.1836" width="5.63281" height="3.98438" filterUnits="userSpaceOnUse" color-interpolation-filters="sRGB">
<feFlood flood-opacity="0" result="BackgroundImageFix"/>
<feBlend mode="normal" in="SourceGraphic" in2="BackgroundImageFix" result="shape"/>
<feGaussianBlur stdDeviation="0.375" result="effect1_foregroundBlur_323_6262"/>
</filter>
<filter id="filter1_f_323_6262" x="20.293" y="21.9863" width="5.63281" height="3.98438" filterUnits="userSpaceOnUse" color-interpolation-filters="sRGB">
<feFlood flood-opacity="0" result="BackgroundImageFix"/>
<feBlend mode="normal" in="SourceGraphic" in2="BackgroundImageFix" result="shape"/>
<feGaussianBlur stdDeviation="0.375" result="effect1_foregroundBlur_323_6262"/>
</filter>
</defs>
</svg>
