<svg width="54" height="43" viewBox="0 0 54 43" fill="none" xmlns="http://www.w3.org/2000/svg">
<path d="M14.0169 15.7955L14.5207 16.6771L14.3947 17.5587L15.1504 20.9591L16.1579 22.5963L18.1729 24.3594L20.3139 25.1151L21.9511 25.4929L20.1879 26.7523L18.6767 27.382L17.2913 27.256L16.2838 26.5004L16.4098 25.8707L16.2838 24.8632L16.0319 24.3594L15.4022 24.2335L14.8985 24.4854L14.5207 24.1076L13.6391 23.8557L12.8835 23.9816L12.1278 24.6113L11.75 25.4929L11.8759 26.6263L12.8835 27.6339L13.6391 27.7598L14.5207 28.8933L16.0319 30.0267L17.921 30.6564L19.8101 30.5305L20.6917 30.2786L21.5733 29.9008L21.3214 33.679L21.1955 37.2053L20.6917 39.7241L20.4398 40.3538L19.8101 40.8575L19.6842 41.4872L20.062 42.2428L21.0695 42.6207H22.3289L23.4624 42.1169L23.9661 41.4872L24.5958 39.9759L25.0996 37.709L25.6033 35.5681L27.8703 35.8199L28.6259 40.3538L28.7518 41.1094L29.1297 41.6132L30.2631 42.2428H31.6484L32.53 41.991L32.7819 41.4872L32.656 40.8575L32.1522 40.2278L31.9003 37.709L32.2781 34.6865L32.53 32.1677V30.2786L32.1522 28.1376L33.0338 28.2636L33.9154 29.1451L34.4191 30.6564L33.9154 31.1602L33.6635 31.9158V32.7974L34.0413 33.3011L35.6785 33.553L37.1898 32.6714L37.6935 31.1602L37.5676 29.397L36.4341 27.6339L34.2932 25.7448L32.53 25.367L31.0187 25.241L33.7894 24.1076L36.3082 22.4703L38.4492 20.0775L38.9529 17.3068L38.3232 14.6621L37.1898 12.773L38.1973 9.62451L38.0714 7.60948L36.686 5.09069L34.2932 3.20159L31.0187 1.9422L26.7368 1.3125L23.3364 1.43844L20.4398 2.5719L19.1804 3.45347L17.4173 4.08317L14.7725 5.97226L13.3872 8.49105L12.8835 10.8839L13.2613 14.1583L14.0169 15.7955Z" fill="white"/>
<path d="M1.29548 17.6437L1.2854 17.6235C0.305591 15.6765 1.04108 13.3089 3.15434 12.2459C5.26761 11.183 7.57734 11.994 8.55715 13.9436L8.56722 13.9637C9.54703 15.9108 8.81155 18.2784 6.69828 19.3414C4.58502 20.4043 2.27529 19.5932 1.29548 17.6437ZM6.17185 15.1828L6.16682 15.1702C5.81167 14.465 4.9981 14.1375 4.27017 14.5028C3.53972 14.8705 3.32562 15.6992 3.68077 16.407L3.68581 16.4196C4.04096 17.1248 4.85453 17.4523 5.58246 17.087C6.31291 16.7193 6.527 15.8906 6.17185 15.1828Z" fill="#F8B133" stroke="#7C6656" stroke-width="0.75" stroke-linecap="round" stroke-linejoin="round"/>
<path d="M52.5815 11.6043C52.3347 10.8789 51.5488 10.4935 50.8234 10.7379C49.4053 11.219 48.3852 11.5766 47.6472 11.8461C47.9923 11.0149 48.287 10.4381 48.292 10.4306C48.6421 9.7505 48.3726 8.91678 47.695 8.56415C47.015 8.21404 46.1787 8.48103 45.8286 9.1611C45.7984 9.22156 45.0654 10.6497 44.4886 12.3726C43.9345 14.0224 43.728 15.7351 43.7204 15.8057C43.6423 16.4757 44.0554 17.0903 44.675 17.2892C44.7581 17.3144 44.8438 17.3346 44.9345 17.3447C45.6951 17.4353 46.3828 16.8913 46.4734 16.1306C46.4734 16.1281 46.4835 16.0399 46.5062 15.8913C46.5767 15.9618 46.6497 16.0349 46.7278 16.1104C47.36 16.7276 48.0023 17.3094 48.0275 17.3321C48.1787 17.4706 48.3525 17.5663 48.5363 17.6242C49.0376 17.7829 49.6068 17.6494 49.9846 17.2338C50.4985 16.6671 50.4556 15.7906 49.8889 15.2767C49.564 14.982 49.2139 14.6546 48.889 14.3448C49.7302 14.0425 50.773 13.6773 51.7176 13.3574C52.443 13.1106 52.8309 12.3247 52.584 11.5993L52.5815 11.6043Z" fill="#F8B133" stroke="#7C6656" stroke-width="0.75" stroke-linecap="round" stroke-linejoin="round"/>
<path d="M8.25977 26.9727C8.25977 26.9727 8.3983 29.2849 11.033 29.4965" stroke="#7C6656" stroke-width="0.75" stroke-linecap="round" stroke-linejoin="round"/>
<path d="M6.36328 27.7539C6.36328 27.7539 6.69324 30.5447 10.5571 30.8747" stroke="#7C6656" stroke-width="0.75" stroke-linecap="round" stroke-linejoin="round"/>
<path d="M38.5766 4.82673C38.5766 4.82673 40.4999 3.63001 40.9506 2.14227" stroke="#7C6656" stroke-width="0.75" stroke-linecap="round" stroke-linejoin="round"/>
<path d="M39.5965 6.6737L42.4139 5.62557" stroke="#7C6656" stroke-width="0.75" stroke-linecap="round" stroke-linejoin="round"/>
<path d="M40.0499 8.62081C40.0499 8.62081 42.2822 8.1804 43.2209 8.78455" stroke="#7C6656" stroke-width="0.75" stroke-linecap="round" stroke-linejoin="round"/>
<path d="M21.0872 38.0007C20.8781 39.1946 20.5859 40.2827 20.5859 40.2827C20.5859 40.2827 21.606 41.9552 24.1148 41.1164C24.7898 38.8394 25.548 35.6355 25.548 35.6355L27.8275 35.6935C27.8275 35.6935 28.0592 39.6958 28.8728 41.2172C30.2631 41.1366 31.4293 41.2398 32.1421 40.1618C31.923 39.0837 31.7089 38.3432 32.0439 35.9932C32.3789 33.6432 32.729 33.3812 32.4368 33.0865C29.4571 33.4593 21.3491 33.084 21.3491 33.084C21.3491 33.084 21.1476 37.6631 21.0872 38.0032V38.0007Z" fill="#6594C9"/>
<g filter="url(#filter0_f_1067_23929)">
<ellipse cx="2.24703" cy="1.31349" rx="2.24703" ry="1.31349" transform="matrix(0.993692 -0.112144 0.110301 0.993898 31.4727 15.9219)" fill="#F5B0B0"/>
</g>
<g filter="url(#filter1_f_1067_23929)">
<ellipse cx="2.24703" cy="1.31349" rx="2.24703" ry="1.31349" transform="matrix(0.993692 -0.112144 0.110301 0.993898 19.6855 17.6035)" fill="#F5B0B0"/>
</g>
<path d="M33.1076 14.2502C33.2033 14.9504 32.7146 15.5977 32.0144 15.696C31.3142 15.7917 30.6668 15.303 30.5686 14.6028C30.4729 13.9026 30.9615 13.2553 31.6618 13.157C32.362 13.0588 33.0093 13.55 33.1076 14.2502Z" fill="#7C6656"/>
<path d="M21.6404 25.6742C21.6404 25.6742 19.7765 27.3719 18.1342 27.3719C18.1342 27.3719 16.9756 27.3518 16.2577 26.3946C16.2577 26.3946 16.5776 24.576 15.9857 24.3216C15.6028 24.0824 15.0462 24.241 14.9177 24.576C14.9177 24.576 14.1193 23.5408 13.0513 23.969C11.9833 24.3997 11.739 25.2763 11.7289 25.7851C11.7088 26.649 12.3989 27.6213 13.7541 27.8908C13.7541 27.8908 15.0386 30.4423 18.3987 30.5884C19.8923 30.6539 21.454 29.9008 21.454 29.9008" stroke="#7C6656" stroke-width="0.75" stroke-linecap="round" stroke-linejoin="round"/>
<path d="M21.7647 27.5527C21.7647 27.5527 21.2005 33.9278 21.1904 36.2904C21.1804 38.653 20.5859 40.2852 20.5859 40.2852C20.5859 40.2852 21.271 41.5849 24.1148 41.1189" stroke="#7C6656" stroke-width="0.75" stroke-linecap="round" stroke-linejoin="round"/>
<path d="M20.4415 40.413C20.1644 40.5339 19.8345 40.7455 19.774 41.0981C19.6707 41.7228 19.8773 42.5288 21.5422 42.554C23.2071 42.5792 24.134 41.6447 24.5169 40.005C24.8998 38.3653 25.5496 35.6349 25.5496 35.6349C25.5496 35.6349 28.222 35.8691 28.8719 35.5039" stroke="#7C6656" stroke-width="0.75" stroke-linecap="round" stroke-linejoin="round"/>
<path d="M27.8281 35.6934C27.8281 35.6934 28.4049 40.7864 28.8734 41.411C29.3419 42.0357 30.7197 42.2699 31.6819 42.1641C32.6441 42.0609 32.9564 41.3329 32.7473 40.8896C32.6441 40.668 32.4677 40.5168 32.3191 40.4211" stroke="#7C6656" stroke-width="0.75" stroke-linecap="round" stroke-linejoin="round"/>
<path d="M31.7853 26.793C31.7853 26.793 32.7475 29.7072 32.4352 33.0874C32.1229 36.4702 31.4579 37.5104 32.1405 40.1627C32.1405 40.1627 31.7904 41.2634 28.8711 41.2181" stroke="#7C6656" stroke-width="0.75" stroke-linecap="round" stroke-linejoin="round"/>
<path d="M22.0039 15.0254L24.4144 15.6299L22.6437 16.3402" stroke="#7C6656" stroke-width="0.75" stroke-linecap="round" stroke-linejoin="round"/>
<path d="M30.4472 17.4219L25.873 18.0012C25.873 18.0012 25.9285 21.4217 28.2886 21.5376C30.6487 21.656 31.2633 19.4873 30.4472 17.4219Z" fill="#F2999F" stroke="#7C6656" stroke-width="0.75" stroke-linecap="round" stroke-linejoin="round"/>
<path d="M30.8594 25.4181C30.8594 25.4181 33.8996 24.6952 36.2294 27.3475C38.5568 29.9998 37.6097 32.5261 36.3478 33.2264C35.5443 33.6697 34.1187 33.6042 33.7912 32.7528C33.4638 31.9015 33.7182 31.1534 34.5116 30.6194" stroke="#7C6656" stroke-width="0.75" stroke-linecap="round" stroke-linejoin="round"/>
<path d="M34.3692 30.5933C34.3692 30.5933 33.9687 28.2029 32.3164 28.1777" stroke="#7C6656" stroke-width="0.75" stroke-linecap="round" stroke-linejoin="round"/>
<path d="M30.1658 25.3008C30.0374 25.8096 29.2943 26.7163 27.5791 27.0186C26.098 27.278 24.6497 26.6307 23.957 25.7088" stroke="#7C6656" stroke-width="0.75" stroke-linecap="round" stroke-linejoin="round"/>
<path d="M20.207 27.0781C20.207 27.0781 20.3153 28.5995 21.4564 29.9067" stroke="#7C6656" stroke-width="0.75" stroke-linecap="round" stroke-linejoin="round"/>
<path d="M33.8179 25.6738C33.8179 25.6738 33.828 26.7796 32.9414 28.1775" stroke="#7C6656" stroke-width="0.75" stroke-linecap="round" stroke-linejoin="round"/>
<path d="M36.7253 10.1738C37.0528 10.9471 37.0049 12.0453 37.0477 12.4634C37.3777 13.1007 39.0401 15.0124 38.8814 17.7277C38.7227 20.4429 36.8689 23.0146 32.33 24.6266C32.33 24.6266 29.645 25.4251 28.6602 25.4629" stroke="#7C6656" stroke-width="0.75" stroke-linecap="round" stroke-linejoin="round"/>
<path d="M26.7198 25.601C23.5915 25.9914 20.0677 25.5229 17.6396 23.8908C15.622 22.5357 14.5062 20.7322 14.4004 16.3848" stroke="#7C6656" stroke-width="0.75" stroke-linecap="round" stroke-linejoin="round"/>
<path d="M14.184 16.4553C9.53931 5.85119 19.2291 3.34248 19.2291 3.34248C25.4505 -1.07296 33.6013 2.81857 33.6013 2.81857C33.6013 2.81857 39.5431 5.48345 37.8707 10.846" stroke="#7C6656" stroke-width="0.75" stroke-linecap="round" stroke-linejoin="round"/>
<path d="M20.5645 6.45312C20.5645 6.45312 20.5443 10.0399 26.4937 11.1935" stroke="#7C6656" stroke-width="0.75" stroke-linecap="round" stroke-linejoin="round"/>
<path d="M19.5735 8.69141C19.5735 8.69141 16.5761 11.112 16.3242 14.5803" stroke="#7C6656" stroke-width="0.75" stroke-linecap="round" stroke-linejoin="round"/>
<path d="M32.5681 10.4737C32.5681 10.4737 28.4297 9.85658 26.5684 6.45117" stroke="#7C6656" stroke-width="0.75" stroke-linecap="round" stroke-linejoin="round"/>
<path d="M25.4245 2.72323C25.4245 2.72323 23.7016 3.31263 23.747 4.62995C23.7822 5.63999 24.2608 6.10093 25.893 7.04799C27.5252 7.99506 30.6837 6.57194 32.3486 4.59469C31.1824 3.363 29.112 1.01801 25.4245 2.72323Z" fill="#1AAF92"/>
<path d="M24.2056 5.74481C24.2056 5.74481 27.5883 10.2182 32.4219 4.50808C32.4219 4.50808 29.0669 0.137981 24.125 3.4376" stroke="#7C6656" stroke-width="0.75" stroke-linecap="round" stroke-linejoin="round"/>
<path d="M28.2682 4.73486C28.2682 4.79027 24.6865 5.76001 22.8125 3.6543" stroke="#7C6656" stroke-width="0.75" stroke-linecap="round" stroke-linejoin="round"/>
<path d="M32.4354 33.0865C32.4354 33.0865 26.8084 33.827 21.3477 33.084" stroke="#7C6656" stroke-width="0.75" stroke-linecap="round" stroke-linejoin="round"/>
<defs>
<filter id="filter0_f_1067_23929" x="30.8633" y="14.8965" width="5.97461" height="4.1582" filterUnits="userSpaceOnUse" color-interpolation-filters="sRGB">
<feFlood flood-opacity="0" result="BackgroundImageFix"/>
<feBlend mode="normal" in="SourceGraphic" in2="BackgroundImageFix" result="shape"/>
<feGaussianBlur stdDeviation="0.375" result="effect1_foregroundBlur_1067_23929"/>
</filter>
<filter id="filter1_f_1067_23929" x="19.0762" y="16.5781" width="5.97461" height="4.1582" filterUnits="userSpaceOnUse" color-interpolation-filters="sRGB">
<feFlood flood-opacity="0" result="BackgroundImageFix"/>
<feBlend mode="normal" in="SourceGraphic" in2="BackgroundImageFix" result="shape"/>
<feGaussianBlur stdDeviation="0.375" result="effect1_foregroundBlur_1067_23929"/>
</filter>
</defs>
</svg>
