<svg width="74" height="49" viewBox="0 0 74 49" fill="none" xmlns="http://www.w3.org/2000/svg">
<ellipse cx="37.4746" cy="45.0781" rx="32" ry="3.75" fill="#EEEEEE"/>
<path d="M16.7226 43.1152C16.7226 43.1152 15.1346 44.4068 16.772 44.9526C18.4094 45.5007 19.9433 44.5997 19.7433 43.614C18.2141 43.5058 16.725 43.1152 16.725 43.1152H16.7226Z" fill="white"/>
<path d="M27.4371 42.7656L24.4023 43.8431C24.4023 43.8431 24.9858 45.7722 27.7359 45.0123C29.178 44.563 28.4111 43.8854 28.3052 43.5608C28.1994 43.2361 27.4371 42.7656 27.4371 42.7656Z" fill="white"/>
<path d="M17.4519 28.9786C17.4519 28.9786 14.2242 30.943 14.3889 31.6982C14.5536 32.4533 15.4217 34.0507 15.4217 34.0507C15.4217 34.0507 14.1631 34.373 14.5677 35.3917C14.9723 36.4103 15.1206 37.3419 16.4639 36.8432C17.3484 36.2998 26.0152 36.0504 26.0152 36.0504C26.0152 36.0504 28.4219 33.8484 28.3019 31.844C28.182 29.8396 28.1584 28.9551 28.1584 28.9551L17.4519 28.9763V28.9786Z" fill="white"/>
<path d="M31.4922 10.5848C31.4922 10.5848 31.1464 6.08901 23.2065 4.99978C17.1486 4.62337 13.6716 6.78537 11.4954 9.41553C9.77572 11.3846 11.2602 15.3793 11.8413 16.2285C11.5496 17.5624 11.0767 18.4588 11.0767 18.4588C11.0767 18.4588 9.38755 22.0182 11.3872 25.3706C13.3869 28.723 20.294 30.0239 25.0509 29.424C28.1586 28.9559 32.4144 28.4595 33.4495 21.7782C34.3505 20.115 37.0301 15.5628 34.6399 12.201C33.7248 10.62 31.4898 10.5824 31.4898 10.5824L31.4922 10.5848Z" fill="white"/>
<path d="M54.7242 39.29L54.7713 43.2187C54.7713 43.2187 56.1734 43.7692 54.5619 44.9973C53.6632 45.4019 51.3389 45.2113 51.4142 42.7035C51.4918 40.1957 51.3789 37.8008 51.3789 37.8008" fill="white"/>
<path d="M59.2408 39.2923L59.2879 43.2211C59.2879 43.2211 60.9605 43.7692 59.349 44.9973C58.4503 45.4019 56.126 45.2113 56.2013 42.7035C56.2789 40.1957 56.166 37.8008 56.166 37.8008" fill="white"/>
<path d="M50.3057 30.9006C47.5579 31.5617 47.1415 29.8725 47.1415 29.8725C47.1415 29.8725 45.5606 31.1029 43.648 30.3854C40.8696 29.3432 41.1613 27.5294 41.1613 27.5294C41.1613 27.5294 38.8464 28.0799 37.5925 26.0685C35.334 22.4432 38.5194 20.1588 38.5194 20.1588C38.5194 20.1588 39.1334 16.3665 39.9827 15.035C43.3186 7.33739 50.7151 7.30445 50.7151 7.30445C50.7151 7.30445 58.0292 4.86955 63.2071 8.81009C67.0794 11.7578 67.9358 15.9925 67.9358 15.9925C67.9358 15.9925 70.3283 17.1381 70.3542 19.4225C70.3824 21.9774 68.5992 22.6643 68.5992 22.6643C68.5992 22.6643 69.3802 24.2758 67.8511 25.9932C66.416 27.6047 64.7104 27.3271 64.7104 27.3271C64.7104 27.3271 64.4163 29.7737 60.6005 30.0066" fill="white"/>
<path d="M50.5627 28.671C50.5627 28.671 53.6351 28.6969 53.828 28.8804C54.0703 29.1439 55.3807 30.1837 55.4395 30.179C55.496 30.1767 55.2843 31.3294 55.2843 31.3294L56.0183 30.7107C56.0183 30.7107 56.4064 31.1953 57.1381 30.579C57.8674 29.9649 58.6767 30.2402 58.8155 29.7956C58.9801 29.7885 60.1846 28.584 60.1846 28.584L60.6034 30.0143L60.2035 31.9411C60.2035 31.9411 61.168 36.0416 61.1798 37.3331C61.1915 38.6247 60.7963 39.0693 56.8464 39.2481C52.8964 39.4269 47.909 39.5351 48.9818 37.6578C49.7087 36.6721 49.6805 35.8957 49.7675 35.4088C49.8546 34.9218 50.5674 28.671 50.5674 28.671H50.5627Z" fill="#FFADBE"/>
<path d="M50.5629 28.6699C50.5629 28.6699 49.8571 34.3561 49.7136 36.0617C49.6242 37.1203 48.0033 38.2542 49.3419 38.8659C50.6805 39.4776 60.4836 39.4729 61.0106 38.5601C61.761 37.2568 59.7473 30.4202 59.4791 28.8628" stroke="#7C6656" stroke-width="0.75" stroke-linecap="round" stroke-linejoin="round"/>
<path d="M54.7248 39.291C54.6025 41.4954 54.5625 43.0481 54.5625 43.0481" stroke="#7C6656" stroke-width="0.75" stroke-linecap="round" stroke-linejoin="round"/>
<path d="M54.3244 43.0328C54.3244 43.0328 55.2113 43.2633 55.2725 43.8515C55.336 44.4396 55.0961 45.1807 53.5434 45.1124C51.9907 45.0442 51.5319 44.4349 51.4261 42.8658C51.3531 41.8048 51.299 40.2873 51.3555 39.3887" stroke="#7C6656" stroke-width="0.75" stroke-linecap="round" stroke-linejoin="round"/>
<path d="M59.4759 39.291C59.1866 41.6153 59.283 43.0481 59.283 43.0481" stroke="#7C6656" stroke-width="0.75" stroke-linecap="round" stroke-linejoin="round"/>
<path d="M59.2096 43.0328C59.2096 43.0328 60.0965 43.2633 60.1577 43.8515C60.2212 44.4396 59.9812 45.1807 58.4285 45.1124C56.8758 45.0442 56.4571 44.3902 56.1936 42.8422C56.0313 41.8918 56.1842 40.2873 56.2407 39.3887" stroke="#7C6656" stroke-width="0.75" stroke-linecap="round" stroke-linejoin="round"/>
<path d="M59.7413 28.3516L58.558 28.6715L58.0898 29.9466C58.0898 29.9466 60.193 30.7135 60.2777 31.057C60.6706 30.3324 60.4918 29.1256 59.7437 28.3516H59.7413Z" fill="white"/>
<path d="M60.1295 29.4704C60.1295 29.4704 59.5696 29.261 59.0308 29.9809C58.0875 29.9456 58.1016 29.7033 58.1016 29.7033L58.5556 28.6705L59.739 28.3505C59.739 28.3505 60.2259 28.1223 60.1271 29.4704H60.1295Z" fill="#FFADBE"/>
<path d="M65.2727 5.25956L63.5346 7.24928L64.0251 4.82058C64.0251 4.82058 62.6632 5.00866 62.7841 3.89478C62.9049 2.78089 63.4959 2.99881 63.4959 2.99881C63.4959 2.99881 62.4963 2.14759 63.3626 1.46211C64.2271 0.779416 64.924 0.859878 65.3326 1.49319C65.3326 1.49319 66.5295 0.676221 67.2474 1.66314C67.9629 2.65054 66.7641 3.57364 66.7641 3.57364C66.7641 3.57364 67.7243 3.97165 67.4365 4.80317C67.1509 5.63421 66.0959 6.21007 65.2745 5.25677L65.2727 5.25956Z" fill="#EBCFB6"/>
<path d="M66.2969 8.84631L68.3088 7.16712C68.3088 7.16712 67.5094 5.97372 68.1008 5.35283C68.6922 4.73193 69.2186 5.54974 69.2186 5.54974C69.2186 5.54974 69.1722 3.53108 70.5517 4.02663C71.9295 4.52496 71.0909 5.94243 71.0909 5.94243C71.0909 5.94243 72.5812 5.27574 73.0392 6.2496C73.7006 7.65686 72.6316 8.16593 71.319 8.16351C71.319 8.16351 72.2027 9.34652 71.0076 9.78098C69.8126 10.2154 69.0979 8.39153 69.0979 8.39153L66.2959 8.8417L66.2969 8.84631Z" fill="#E1B995"/>
<path d="M16.642 36.2969H27.0685C27.0685 36.2969 27.0262 40.8891 27.8049 43.3122C26.6921 44.2297 24.5866 43.9827 24.5866 43.9827C24.5866 43.9827 23.0927 38.9412 23.0668 38.8188C23.0409 38.6965 20.726 38.713 20.719 38.7318C20.6178 39.5881 20.1826 42.9405 19.8603 44.1615C19.0463 44.3356 16.195 43.4087 16.3926 43.4322C16.5902 43.4557 17.3783 41.3831 16.849 39.6634C16.4679 37.9201 16.2467 36.2498 16.6396 36.2992L16.642 36.2969Z" fill="#B2ABA4"/>
<path d="M26.9473 31.1465C26.9473 31.1465 27.1096 37.1008 27.119 39.3075C27.1284 41.5142 27.6836 43.0387 27.6836 43.0387" stroke="#7C6656" stroke-width="0.75" stroke-linecap="round" stroke-linejoin="round"/>
<path d="M27.9126 43.2041C27.9126 43.2041 28.2961 43.4322 28.4396 43.7992C28.6537 44.3497 28.3431 45.1355 26.7881 45.159C25.2331 45.1826 24.3673 44.3098 24.0097 42.7782C23.6521 41.2467 23.0452 38.6965 23.0452 38.6965C23.0452 38.6965 20.3491 38.9153 19.7422 38.5742" stroke="#7C6656" stroke-width="0.75" stroke-linecap="round" stroke-linejoin="round"/>
<path d="M20.7175 38.75C20.7175 38.75 20.1788 43.8386 19.7412 44.422C19.3036 45.0055 18.1768 45.2454 17.2781 45.149C16.3794 45.0525 15.8877 44.4761 16.0806 44.0621C16.2759 43.648 16.5935 43.4551 16.5935 43.4551" stroke="#7C6656" stroke-width="0.75" stroke-linecap="round" stroke-linejoin="round"/>
<path d="M17.0207 30.4355C17.0207 30.4355 16.122 33.1575 16.4137 36.3146C16.7054 39.4717 17.3265 40.7774 16.689 43.257" stroke="#7C6656" stroke-width="0.75" stroke-linecap="round" stroke-linejoin="round"/>
<path d="M16.7695 36.353L26.8855 36.2871" stroke="#7C6656" stroke-width="0.75" stroke-linecap="round" stroke-linejoin="round"/>
<path d="M27.9117 43.2031C26.9612 44.3065 24.5898 43.9842 24.5898 43.9842" stroke="#7C6656" stroke-width="0.75" stroke-linecap="round" stroke-linejoin="round"/>
<path d="M16.5938 43.4551C16.5938 43.4551 18.2923 44.5067 19.8662 44.1585" stroke="#7C6656" stroke-width="0.75" stroke-linecap="round" stroke-linejoin="round"/>
<path d="M22.0057 30.8047L22.3468 34.6676L21.2553 35.7074L20.166 34.6676L20.5071 30.8047H22.0057Z" fill="#82AEDD" stroke="#7C6656" stroke-width="0.75" stroke-linecap="round" stroke-linejoin="round"/>
<path d="M22.2151 29.4277L22.3468 30.6864L21.4952 31.178C21.347 31.2627 21.1635 31.2627 21.0176 31.178L20.166 30.6864L20.2978 29.4277H22.2151Z" fill="#82AEDD" stroke="#7C6656" stroke-width="0.75" stroke-linecap="round" stroke-linejoin="round"/>
<path d="M16.9626 29.2051C16.9626 29.2051 14.5065 30.7907 14.3889 31.6988C14.2736 32.6069 15.8381 34.2654 15.8381 34.2654" stroke="#7C6656" stroke-width="0.75" stroke-linecap="round" stroke-linejoin="round"/>
<path d="M15.4237 34.0508C15.4237 34.0508 13.8475 34.8459 14.9744 36.4104C15.579 37.2503 16.4659 36.8433 16.4659 36.8433" stroke="#7C6656" stroke-width="0.75" stroke-linecap="round" stroke-linejoin="round"/>
<path d="M11.3437 15.1577C7.87133 7.21778 18.8484 3.82068 25.0332 5.35926C31.4134 6.94723 31.491 10.5819 31.491 10.5819C31.491 10.5819 34.227 10.0879 35.4363 13.8943C36.5937 17.5432 33.2578 21.8554 33.2578 21.8554" stroke="#7C6656" stroke-width="0.75" stroke-linecap="round" stroke-linejoin="round"/>
<path d="M30.0561 14.2344C30.0561 14.2344 29.2256 16.6081 32.0346 18.9371" stroke="#7C6656" stroke-width="0.75" stroke-linecap="round" stroke-linejoin="round"/>
<path d="M27.9992 12.3273C27.9992 12.3273 24.0422 11.1722 24.0352 15.9079" stroke="#7C6656" stroke-width="0.75" stroke-linecap="round" stroke-linejoin="round"/>
<path d="M21.3554 11.207C21.3554 11.207 18.2641 11.9857 18.9299 15.4252" stroke="#7C6656" stroke-width="0.75" stroke-linecap="round" stroke-linejoin="round"/>
<path d="M12.2483 14.2832C12.2483 14.2832 11.7661 16.2405 11.6931 17.3392C11.6931 17.3392 9.42056 20.5316 10.6862 24.0604C11.9519 27.5893 16.9534 29.1514 20.9998 29.4501C25.0439 29.7489 29.8172 29.2784 32.0357 25.9566C33.6566 23.5288 33.419 19.2542 33.172 17.1274" stroke="#7C6656" stroke-width="0.75" stroke-linecap="round" stroke-linejoin="round"/>
<g filter="url(#filter0_f_1067_22429)">
<ellipse cx="2.34087" cy="1.37372" rx="2.34087" ry="1.37372" transform="matrix(-0.986082 -0.166258 -0.165508 0.986209 17.168 20.9434)" fill="#F5B0B0"/>
</g>
<g filter="url(#filter1_f_1067_22429)">
<ellipse cx="2.34087" cy="1.37372" rx="2.34087" ry="1.37372" transform="matrix(-0.986082 -0.166258 -0.165508 0.986209 29.2852 22.9238)" fill="#F5B0B0"/>
</g>
<path d="M23.7402 20.8184C23.9567 21.1595 24.3801 21.4065 24.8812 21.4418C25.4106 21.4794 25.8834 21.2677 26.1375 20.9289" stroke="#7C6656" stroke-width="0.75" stroke-linecap="round" stroke-linejoin="round"/>
<path d="M15.8496 19.2441C15.9955 19.6205 16.3625 19.9452 16.8471 20.0769C17.3576 20.2157 17.8658 20.1005 18.1786 19.8182" stroke="#7C6656" stroke-width="0.75" stroke-linecap="round" stroke-linejoin="round"/>
<path d="M21.8206 24.4762C21.5689 23.8199 20.9337 23.2858 20.0327 23.1329C19.127 22.9776 18.3859 23.2505 17.9766 23.8175" stroke="#7C6656" stroke-width="0.75" stroke-linecap="round" stroke-linejoin="round"/>
<path d="M21.6607 18.3379L21.3125 19.3071" stroke="#7C6656" stroke-width="0.75" stroke-linecap="round" stroke-linejoin="round"/>
<path d="M20.25 18.459L20.2571 19.1271" stroke="#7C6656" stroke-width="0.75" stroke-linecap="round" stroke-linejoin="round"/>
<path d="M19.1855 25.373L19.7925 25.4766" stroke="#7C6656" stroke-width="0.75" stroke-linecap="round" stroke-linejoin="round"/>
<path d="M26.1683 31.1457C26.3612 31.2963 27.2505 32.1644 27.401 32.4396C27.5116 32.6396 27.5257 32.8795 27.4434 33.0913C27.2716 33.5406 27.0152 33.91 27.0152 33.91C27.0152 33.91 26.6035 33.6912 25.9566 34.0793C24.6533 34.8628 25.0955 36.6436 26.1612 37.0012C27.8645 37.5753 28.3044 35.9637 28.3044 35.9637C28.3044 35.9637 30.1794 34.4652 30.3064 33.143C30.4217 31.9385 28.7914 29.4707 28.1609 28.9531" fill="white"/>
<path d="M26.5494 31.4233C26.7423 31.5739 27.2505 32.1644 27.401 32.4396C27.5116 32.6396 27.5257 32.8795 27.4434 33.0913C27.2716 33.5406 27.0152 33.91 27.0152 33.91C27.0152 33.91 26.6035 33.6912 25.9566 34.0793C24.6533 34.8628 25.0955 36.6436 26.1612 37.0012C27.8645 37.5753 28.3044 35.9637 28.3044 35.9637C28.3044 35.9637 30.1794 34.4652 30.3064 33.143C30.4217 31.9385 28.7914 29.4707 28.1609 28.9531" stroke="#7C6656" stroke-width="0.75" stroke-linecap="round" stroke-linejoin="round"/>
<path d="M28.3018 35.7046C28.1936 35.627 27.1938 35.3494 27.0879 34.1543" stroke="#7C6656" stroke-width="0.75" stroke-linecap="round" stroke-linejoin="round"/>
<path d="M6.43293 12.3147L7.86253 15.1548L7.25057 15.8521L8.77049 17.5619L8.06274 18.1234L5.38249 15.8713L6.10508 14.9534L3.64844 12.7188L6.43293 12.3147Z" fill="#9BAAB3" stroke="#9BAAB3" stroke-width="0.75" stroke-linecap="round" stroke-linejoin="round"/>
<path d="M7.05993 19.436L6.94488 20.2157L4.33267 20.5948L4.15191 19.3493L0.597783 18.6598L2.57564 16.5304L5.75789 18.4577L5.3048 19.2343L7.05993 19.436Z" fill="#86959D" stroke="#86959D" stroke-width="0.75" stroke-linecap="round" stroke-linejoin="round"/>
<path d="M50.3057 30.9006C47.5579 31.5617 47.1415 29.8725 47.1415 29.8725C47.1415 29.8725 45.5606 31.1029 43.648 30.3854C40.8696 29.3432 41.1613 27.5294 41.1613 27.5294C41.1613 27.5294 38.8464 28.0799 37.5925 26.0685C35.334 22.4432 38.5194 20.1588 38.5194 20.1588C38.5194 20.1588 39.1334 16.3665 39.9827 15.035C43.3186 7.33739 50.7151 7.30445 50.7151 7.30445C50.7151 7.30445 58.0292 4.86955 63.2071 8.81009C67.0794 11.7578 67.9358 15.9925 67.9358 15.9925C67.9358 15.9925 70.3283 17.1381 70.3542 19.4225C70.3824 21.9774 68.5992 22.6643 68.5992 22.6643C68.5992 22.6643 69.3802 24.2758 67.8511 25.9932C66.416 27.6047 64.7104 27.3271 64.7104 27.3271C64.7104 27.3271 64.4163 29.7737 60.6005 30.0066" stroke="#7C6656" stroke-width="0.75" stroke-linecap="round" stroke-linejoin="round"/>
<path d="M58.6012 28.9297C58.6012 28.9297 58.2695 30.2895 56.3616 30.2895C54.4536 30.2895 53.8984 28.8262 53.8984 28.8262" stroke="#7C6656" stroke-width="0.75" stroke-linecap="round" stroke-linejoin="round"/>
<path d="M45.9609 26.9941C46.175 27.1729 46.3985 27.3259 46.6338 27.4552C48.8569 28.6786 52.5881 29.0362 54.6231 28.7115" stroke="#7C6656" stroke-width="0.75" stroke-linecap="round" stroke-linejoin="round"/>
<path d="M64.4192 15.7422C64.4875 15.968 64.6074 16.2127 64.6474 16.295C64.9697 16.8832 66.5624 18.6335 66.4707 21.1719C66.3789 23.7103 64.4922 26.5028 60.2882 28.1025C60.2882 28.1025 58.3896 28.6177 58.0273 28.6718" stroke="#7C6656" stroke-width="0.75" stroke-linecap="round" stroke-linejoin="round"/>
<path d="M61.3535 11.9395C61.3535 11.9395 62.7345 14.1767 62.0052 16.1741" stroke="#7C6656" stroke-width="0.75" stroke-linecap="round" stroke-linejoin="round"/>
<path d="M54.3008 12.8359C54.3008 12.8359 55.4794 15.7225 54.3572 17.7269" stroke="#7C6656" stroke-width="0.75" stroke-linecap="round" stroke-linejoin="round"/>
<path d="M47.4002 15.3086C47.4002 15.3086 48.0471 18.0823 46.7227 20.2843" stroke="#7C6656" stroke-width="0.75" stroke-linecap="round" stroke-linejoin="round"/>
<path d="M45.0835 20.0938C45.0835 20.0938 45.9069 23.8837 44.5918 25.1706" stroke="#7C6656" stroke-width="0.75" stroke-linecap="round" stroke-linejoin="round"/>
<g filter="url(#filter2_f_1067_22429)">
<ellipse cx="2.11635" cy="1.24197" rx="2.11635" ry="1.24197" transform="matrix(-0.985387 0.17033 0.171079 0.985257 52.9512 20.8926)" fill="#F5B0B0"/>
</g>
<g filter="url(#filter3_f_1067_22429)">
<ellipse cx="2.11635" cy="1.24197" rx="2.11635" ry="1.24197" transform="matrix(-0.985387 0.17033 0.171079 0.985257 63.8789 18.9473)" fill="#F5B0B0"/>
</g>
<path d="M53.4902 19.6914C53.2808 20.0372 52.8644 20.2937 52.3633 20.3384C51.8364 20.3854 51.3564 20.1854 51.0977 19.8537" stroke="#7C6656" stroke-width="0.75" stroke-linecap="round" stroke-linejoin="round"/>
<path d="M61.3485 17.9531C61.2121 18.3319 60.8498 18.666 60.3675 18.8071C59.8593 18.9553 59.3512 18.8518 59.0312 18.5766" stroke="#7C6656" stroke-width="0.75" stroke-linecap="round" stroke-linejoin="round"/>
<path d="M55.5879 17.3496L55.8843 18.1283" stroke="#7C6656" stroke-width="0.75" stroke-linecap="round" stroke-linejoin="round"/>
<path d="M56.9316 17.2578L56.9387 17.9259" stroke="#7C6656" stroke-width="0.75" stroke-linecap="round" stroke-linejoin="round"/>
<path d="M59.3521 22.3442C59.3521 22.3442 57.0748 21.7184 55.668 23.8357" stroke="#7C6656" stroke-width="0.75" stroke-linecap="round" stroke-linejoin="round"/>
<path d="M59.4766 28.3164C59.4766 28.3164 61.3445 29.415 60.1447 31.7111" stroke="#7C6656" stroke-width="0.75" stroke-linecap="round" stroke-linejoin="round"/>
<path d="M53.6527 30.1499C53.6527 30.1499 53.9703 30.9922 54.5067 31.1757C55.043 31.3592 57.0851 30.9545 57.0851 30.9545C57.6191 29.95 58.3625 29.7265 59.4023 30.2652C60.5763 30.8863 60.6704 32.4954 59.6329 33.3941C58.5954 34.2905 57.2145 32.9965 57.2145 32.9965C57.2145 32.9965 54.3443 34.2152 53.121 33.1989C51.8977 32.1826 51.6836 31.6085 51.6836 31.6085" fill="white"/>
<path d="M53.2426 29.4141C53.2426 29.4141 53.9719 30.9903 54.5082 31.1738C55.0446 31.3573 57.0866 30.9526 57.0866 30.9526C57.6207 29.9481 58.3641 29.7246 59.4039 30.2633C60.5778 30.8844 60.6719 32.4936 59.6345 33.3922C58.597 34.2886 57.216 32.9947 57.216 32.9947C57.216 32.9947 54.3459 34.2133 53.1226 33.197C51.8993 32.1807 51.0547 30.6233 51.0547 30.6233" stroke="#7C6656" stroke-width="0.75" stroke-linecap="round" stroke-linejoin="round"/>
<path d="M53.5982 30.2969L51.8809 31.5061" stroke="#7C6656" stroke-width="0.75" stroke-linecap="round" stroke-linejoin="round"/>
<path d="M57.7421 30.2596C57.8832 30.9137 57.328 31.5865 56.5023 31.7629C55.6765 31.9394 54.8955 31.5536 54.7543 30.8995C54.6132 30.2455 55.1684 29.5727 55.9941 29.3963C56.8199 29.2198 57.6009 29.6056 57.7421 30.2596Z" fill="white" stroke="#7C6656" stroke-width="0.75" stroke-linecap="round" stroke-linejoin="round"/>
<path d="M28.0508 36.4782C29.1118 36.3253 29.7658 36.9934 30.3092 37.5933C30.9138 38.2591 30.815 40.2094 30.7115 40.7834C30.6198 41.2915 30.8503 41.8138 31.1985 42.1949C31.5467 42.576 32.0007 42.8419 32.4477 43.1007C33.0288 43.4371 33.6216 43.7805 34.278 43.9311C34.9344 44.084 35.6731 44.0205 36.2024 43.6065C36.6635 43.2465 36.9999 42.6231 37.5833 42.5901C38.115 42.5619 38.5126 43.0489 38.9737 43.3147C39.5948 43.67 40.3852 43.6159 41.0463 43.3453C41.7074 43.0748 42.272 42.6113 42.8225 42.1573C43.2154 41.8326 43.6247 41.4868 43.7188 40.9598C43.7612 40.7269 43.7141 40.4752 43.5659 40.2893C43.1895 39.8118 42.5331 40.0541 42.2508 40.487C42.0179 40.8445 41.9756 41.2868 41.9403 41.7126C42.3849 41.6279 42.8131 42.0702 42.806 42.5243C42.799 42.976 42.4484 43.3712 42.0297 43.5429C41.6109 43.7147 41.1381 43.6982 40.6911 43.6253C39.7124 43.4629 38.7996 43.0418 37.8986 42.6231C38.5691 41.2445 39.496 39.9906 40.6205 38.946C39.8771 38.1909 38.4797 38.3344 37.8092 39.1554C37.1387 39.9765 37.214 41.268 37.8751 42.0985C37.1811 42.3055 36.3694 42.0279 35.9483 41.4374L35.8613 41.7197C35.666 42.3549 35.9319 43.0395 36.5082 43.3735C36.7011 43.4841 36.8846 43.6182 37.0611 43.7453C37.5481 44.0981 38.1785 44.4393 38.7196 44.1781C39.1102 43.9899 39.3007 43.5547 39.5854 43.2277C39.8136 42.9642 40.11 42.7689 40.3405 42.5055C40.6605 42.1408 40.8463 41.5668 40.3241 41.1904C40.1335 41.0539 39.8983 40.9975 39.6654 40.9904C38.7243 40.9669 37.781 41.2445 36.9999 41.7715C36.4776 41.6915 36.0942 41.1786 36.0471 40.654C35.9742 39.8565 36.5435 39.0754 37.1128 38.6473C37.3551 38.4661 37.6445 38.3508 37.9433 38.3273C39.2984 38.2191 39.6724 39.7459 40.6887 40.3011C41.2439 40.6046 41.9685 40.5669 42.4884 40.2047C43.0083 39.8447 43.2977 39.1766 43.206 38.5508C42.8178 38.1932 42.2226 38.1062 41.7168 38.2685C41.0628 38.4779 40.5593 39.0566 40.3053 39.6777C40.1806 39.9812 40.1947 40.334 40.3805 40.6046C40.7899 41.2021 41.6015 40.9198 42.2673 41.0116C42.8672 41.0939 43.4036 41.5433 43.5871 42.122C43.7706 42.7007 43.5941 43.3759 43.1495 43.79C44.0693 43.7711 44.9727 43.3265 45.5397 42.6019C45.6761 42.4255 45.7514 42.1996 45.6997 41.9832C45.5985 41.5527 45.1139 41.4939 44.7422 41.5927C43.5824 41.9008 42.9801 43.1736 41.9873 43.8441C41.1616 44.4016 40.0488 44.5028 39.136 44.1028C38.2232 43.7029 37.5434 42.816 37.3928 41.8326C37.2399 41.8467 37.0893 41.875 36.9434 41.915C35.7554 42.2396 34.5344 41.5315 34.2474 40.3317C34.2262 40.247 34.2074 40.16 34.1863 40.0753C34.0969 39.6965 34.0051 39.3036 34.0616 38.9178C34.1392 38.3744 34.5768 37.8309 35.2473 38.045C35.4096 38.0968 35.5578 38.1956 35.6684 38.325C36.1483 38.8731 36.0401 39.6589 35.8425 40.2823C35.7813 40.4752 35.7625 40.6846 35.8166 40.8798C36.0212 41.635 36.8329 41.4915 37.3575 41.181C37.9174 40.8493 38.3973 40.3787 38.7408 39.8259C38.8467 39.6565 38.9431 39.4612 38.9078 39.2636C38.8561 38.9719 38.5479 38.8096 38.2726 38.7084C37.3646 38.3697 36.393 38.2073 35.4237 38.2309C35.1955 38.2356 34.965 38.172 34.8026 38.0097C34.4615 37.6709 34.6968 37.224 34.9226 36.8828C35.2237 36.4288 35.539 35.9583 36.0895 35.7748C36.32 35.6995 36.5765 35.7019 36.7929 35.8101C37.4728 36.1465 37.2799 37.0428 37.5833 37.6662C37.9127 38.3485 38.8349 38.5908 39.5477 38.3367C40.3758 38.045 41.0063 37.1275 40.6534 36.2288C40.5523 35.97 40.3688 35.7466 40.1359 35.596C39.3972 35.1208 38.5973 35.5607 38.2468 36.203C37.9997 36.657 37.948 37.1934 37.9856 37.7086C37.5128 38.0309 37.0164 38.3626 36.4165 38.3485C36.0918 38.3414 35.7695 38.205 35.5813 37.9391C35.1814 37.3745 35.5813 36.6805 35.9624 36.1488C36.2777 35.7113 36.6117 35.2572 37.1434 35.069C37.3716 34.989 37.6257 34.9773 37.8515 35.0643C38.5126 35.316 38.435 36.0736 38.7761 36.5676C39.1596 37.1228 39.9383 37.2004 40.6111 37.1769C41.2839 37.1534 42.0297 37.1016 42.5543 37.5227C43.086 36.9558 43.66 36.2547 43.54 35.5019C43.4224 34.7608 42.719 34.3374 41.9826 34.4762C40.9122 34.6785 40.6205 36.0759 41.251 36.8264C41.5168 37.144 41.9073 37.3275 42.319 37.3698C43.3283 37.478 43.7659 38.7484 42.9472 39.3507C42.8272 39.4377 42.6978 39.5106 42.5567 39.5601C41.6133 39.8988 40.4441 39.2307 40.2582 38.245C41.0887 38.172 41.9262 38.7696 42.1285 39.5765C42.2814 40.1882 42.1026 40.8493 42.3943 41.4468C42.4673 41.595 42.5708 41.7268 42.7072 41.8185C43.2718 42.1996 43.8858 41.7644 44.2623 41.2962C44.5846 40.8963 44.8433 40.2941 44.4528 39.9059C44.2952 39.7483 44.0646 39.6847 43.8435 39.7036C43.2954 39.753 42.9142 40.1788 42.5237 40.5058C42.3355 40.6634 42.1944 40.8775 42.1591 41.1198C42.0838 41.6327 42.4743 41.8303 42.8225 41.9855C43.2318 42.169 43.6388 42.3525 44.0482 42.5337C44.6034 42.7831 45.2197 43.0371 45.8055 42.863C45.8055 42.863 50.1413 43.0536 50.3954 38.6943C50.6495 34.335 53.8042 35.8948 54.8088 35.0055C55.8133 34.1162 57.1896 34.3868 57.6436 33.3281" stroke="#7C6656" stroke-width="0.75" stroke-linecap="round" stroke-linejoin="round"/>
<path d="M22.4902 35.2556C23.2619 34.6227 24.1841 34.6486 25.0381 34.9286" stroke="#7C6656" stroke-width="0.75" stroke-linecap="round" stroke-linejoin="round"/>
<path d="M59.3984 30.2666C59.3984 30.2666 60.0524 28.0693 61.3511 28.8269C62.6497 29.5844 63.3743 30.9018 64.4611 30.5795" stroke="#7C6656" stroke-width="0.75" stroke-linecap="round" stroke-linejoin="round"/>
<defs>
<filter id="filter0_f_1067_22429" x="11.5625" y="19.748" width="6.13867" height="4.32031" filterUnits="userSpaceOnUse" color-interpolation-filters="sRGB">
<feFlood flood-opacity="0" result="BackgroundImageFix"/>
<feBlend mode="normal" in="SourceGraphic" in2="BackgroundImageFix" result="shape"/>
<feGaussianBlur stdDeviation="0.375" result="effect1_foregroundBlur_1067_22429"/>
</filter>
<filter id="filter1_f_1067_22429" x="23.6797" y="21.7285" width="6.13867" height="4.32031" filterUnits="userSpaceOnUse" color-interpolation-filters="sRGB">
<feFlood flood-opacity="0" result="BackgroundImageFix"/>
<feBlend mode="normal" in="SourceGraphic" in2="BackgroundImageFix" result="shape"/>
<feGaussianBlur stdDeviation="0.375" result="effect1_foregroundBlur_1067_22429"/>
</filter>
<filter id="filter2_f_1067_22429" x="48.2324" y="20.4512" width="5.69141" height="4.05078" filterUnits="userSpaceOnUse" color-interpolation-filters="sRGB">
<feFlood flood-opacity="0" result="BackgroundImageFix"/>
<feBlend mode="normal" in="SourceGraphic" in2="BackgroundImageFix" result="shape"/>
<feGaussianBlur stdDeviation="0.375" result="effect1_foregroundBlur_1067_22429"/>
</filter>
<filter id="filter3_f_1067_22429" x="59.1602" y="18.5059" width="5.69141" height="4.05078" filterUnits="userSpaceOnUse" color-interpolation-filters="sRGB">
<feFlood flood-opacity="0" result="BackgroundImageFix"/>
<feBlend mode="normal" in="SourceGraphic" in2="BackgroundImageFix" result="shape"/>
<feGaussianBlur stdDeviation="0.375" result="effect1_foregroundBlur_1067_22429"/>
</filter>
</defs>
</svg>
