<svg width="77" height="45" viewBox="0 0 77 45" fill="none" xmlns="http://www.w3.org/2000/svg">
<ellipse cx="37.6422" cy="41.2143" rx="32.0953" ry="3.76117" fill="#EEEEEE"/>
<path d="M7.06999 23.9937C8.23872 25.5058 7.95889 27.681 6.44683 28.8473C4.93477 30.0161 2.75957 29.7362 1.59319 28.2242C0.424465 26.7121 0.704302 24.5369 2.21636 23.3705C3.72842 22.2018 5.90362 22.4816 7.06999 23.9937Z" fill="#F1EEDA" stroke="#938A81" stroke-width="0.75" stroke-linecap="round" stroke-linejoin="round"/>
<path d="M6.61837 28.7704L6.32617 28.9961L8.98967 32.4447L9.28186 32.2191L6.61837 28.7704Z" stroke="#938A81" stroke-width="0.75" stroke-linecap="round" stroke-linejoin="round"/>
<path d="M4.73155 23.832L4.17188 28.1942" stroke="#938A81" stroke-width="0.75" stroke-linecap="round" stroke-linejoin="round"/>
<path d="M2.26953 25.7324L6.63169 26.2944" stroke="#938A81" stroke-width="0.75" stroke-linecap="round" stroke-linejoin="round"/>
<path d="M7.8625 15.1832L8.80313 16.7117L9.03829 19.6512L9.62618 21.2973L10.4492 22.5907L12.3305 24.0016L14.5645 24.7071L12.5656 25.1774L10.4492 26.2356L9.15586 27.4114L8.33282 28.4696L8.21524 29.0575L7.27461 29.2926L6.56914 29.9981L6.33398 31.1739L6.8043 32.2321L7.62735 32.9376H8.80313L9.74376 32.7024L10.4492 31.7618V30.7036L10.5668 30.1157L11.2723 29.2926L12.2129 28.5872L13.9766 28.2344H15.2699L15.5051 31.6442L15.6227 32.4672L14.5645 34.7012L14.3293 36.1122L14.7996 38.3462L15.2699 39.1692L14.7996 39.7571L15.2699 40.2274L16.3281 40.4626H17.1512L18.0918 39.9923L18.5621 39.2868L18.4446 38.4637L17.9742 37.1704L17.7391 36.1122L18.327 35.1716L19.15 34.5837H22.0895L23.3828 35.877V36.5207L22.6774 38.5813V39.2868L23.0301 39.9923L23.3828 40.345L24.5586 40.4626H25.7344L26.3223 39.9923L26.2047 39.5219L25.9696 39.1692L26.7926 36.4649L26.675 34.8188L25.4993 32.2321L25.7344 29.1751L27.4981 29.7629H28.7914H30.0848L31.3782 29.4102L32.6715 28.8223H33.377H34.3176L35.3758 27.9993L35.7286 27.0586L35.4934 25.6477L34.3176 24.8247L33.1418 24.5895L32.4364 24.8247L31.8485 25.6477L31.3782 26.5883L29.7321 26.9411L27.2629 26.3532L25.7344 25.0598L26.7926 24.7071L29.2618 23.1786L30.9079 21.65L31.8485 19.6512L31.6133 16.7117L30.9079 15.1832L30.5551 13.6547L31.9661 10.8328L32.3188 8.834L31.6133 6.48243L30.2024 4.71876L27.2629 2.71992L23.5004 1.42656L19.8555 1.19141L16.7985 1.54414L13.9766 2.71992L12.3305 4.24844L11.5074 5.77696L10.0965 5.89454L8.80313 6.71759L7.8625 7.77579L7.15703 9.18673L6.92188 11.1856L7.15703 12.7141L7.8625 15.1832Z" fill="white"/>
<path d="M25.5277 32.2383C25.5277 32.2383 15.456 32.3323 15.5618 32.2806C15.6653 32.2289 14.2731 34.0913 14.5271 36.0031C14.7811 37.915 15.2726 39.1284 15.2726 39.1284C15.2726 39.1284 17.0645 39.7798 18.4613 38.8062C17.9769 37.4376 17.6523 36.3371 17.8405 35.9232C18.0286 35.507 18.7858 34.5663 18.7858 34.5663L22.0756 34.5757C22.0756 34.5757 23.5148 35.8103 23.4231 36.3982C23.3314 36.9861 22.7999 38.6863 22.7999 38.6863C22.7999 38.6863 24.4131 39.7633 26.0286 39.2154C26.339 38.1548 27.6982 35.7139 25.5277 32.2406V32.2383Z" fill="#B2ABA4"/>
<path d="M15.4178 27.0898C15.4178 27.0898 15.1897 29.693 15.5448 32.2939" stroke="#7C6656" stroke-width="0.75" stroke-linecap="round" stroke-linejoin="round"/>
<path d="M19.1172 34.634C19.1172 34.634 21.6122 34.8527 22.2189 34.5117" stroke="#7C6656" stroke-width="0.75" stroke-linecap="round" stroke-linejoin="round"/>
<path d="M25.3398 26.3789C25.3398 26.3789 26.1135 28.5024 25.5256 32.239" stroke="#7C6656" stroke-width="0.75" stroke-linecap="round" stroke-linejoin="round"/>
<path d="M25.3897 32.2944L15.666 32.2285" stroke="#7C6656" stroke-width="0.75" stroke-linecap="round" stroke-linejoin="round"/>
<path d="M20.3586 26.8145L20.0176 30.6757L21.1087 31.7151L22.1975 30.6757L21.8565 26.8145H20.3586Z" fill="#82AEDD" stroke="#7C6656" stroke-width="0.75" stroke-linecap="round" stroke-linejoin="round"/>
<path d="M20.1493 25.4375L20.0176 26.6956L20.8688 27.1871C21.017 27.2717 21.2004 27.2717 21.3486 27.1871L22.1998 26.6956L22.0681 25.4375H20.1516H20.1493Z" fill="#82AEDD" stroke="#7C6656" stroke-width="0.75" stroke-linecap="round" stroke-linejoin="round"/>
<path d="M15.2817 28.3C15.2817 28.3 13.257 27.8462 11.7755 28.8268C10.7784 29.6193 10.421 30.2565 10.421 30.2565C10.421 30.2565 11.2252 32.2013 9.32282 32.8809C7.4204 33.5628 6.28694 32.0461 6.32927 30.8585C6.3716 29.671 7.07942 29.1866 8.18231 28.9373C8.18231 28.9373 9.26167 26.9549 11.1218 25.9108C12.956 24.8809 14.8584 24.8809 14.8584 24.8809" fill="white"/>
<path d="M15.2817 28.3C15.2817 28.3 13.257 27.8462 11.7755 28.8268C10.7784 29.6193 10.421 30.2565 10.421 30.2565C10.421 30.2565 11.2252 32.2013 9.32282 32.8809C7.4204 33.5628 6.28694 32.0461 6.32927 30.8585C6.3716 29.671 7.07942 29.1866 8.18231 28.9373C8.18231 28.9373 9.26167 26.9549 11.1218 25.9108C12.956 24.8809 14.8584 24.8809 14.8584 24.8809" stroke="#7C6656" stroke-width="0.75" stroke-linecap="round" stroke-linejoin="round"/>
<path d="M10.4204 30.2565L8.27344 28.7656" stroke="#7C6656" stroke-width="0.75" stroke-linecap="round" stroke-linejoin="round"/>
<path d="M25.8359 25.3098C25.8359 25.3098 27.8512 27.1017 29.622 26.9629C30.8777 26.7536 31.5009 26.3727 31.5009 26.3727C31.5009 26.3727 31.7407 24.2821 33.7349 24.6113C35.729 24.9406 35.9829 26.8148 35.3692 27.833C34.7531 28.8512 33.9042 28.9312 32.8154 28.6137C32.8154 28.6137 30.9036 29.9894 28.7777 29.8318C26.6519 29.6743 26.1628 29.2533 26.1628 29.2533" stroke="#7C6656" stroke-width="0.75" stroke-linecap="round" stroke-linejoin="round"/>
<path d="M31.502 26.373L32.6566 28.7199" stroke="#7C6656" stroke-width="0.75" stroke-linecap="round" stroke-linejoin="round"/>
<g filter="url(#filter0_f_1067_22731)">
<ellipse cx="2.09672" cy="1.22562" rx="2.09672" ry="1.22562" transform="matrix(0.9994 0.0346239 -0.0364765 0.999335 24.373 17.2305)" fill="#F5B0B0"/>
</g>
<g filter="url(#filter1_f_1067_22731)">
<ellipse cx="2.09672" cy="1.22562" rx="2.09672" ry="1.22562" transform="matrix(0.9994 0.0346239 -0.0364765 0.999335 12.791 17.168)" fill="#F5B0B0"/>
</g>
<path d="M16.108 14.9297L17.9798 16.2959H15.5859" stroke="#7C6656" stroke-width="0.75" stroke-linecap="round" stroke-linejoin="round"/>
<path d="M25.8836 14.9043L24.0117 16.2706H26.4056" stroke="#7C6656" stroke-width="0.75" stroke-linecap="round" stroke-linejoin="round"/>
<path d="M18.8125 20.6182C18.8125 20.6182 18.4621 19.6517 19.5674 19.2637C20.3316 18.9956 21.1265 19.44 21.6391 19.3365C22.1517 19.2331 22.8878 18.9086 23.431 19.1696C23.431 19.1696 23.4921 20.122 23.8543 20.4371C24.2164 20.7522 20.7596 19.7175 18.8125 20.6158" stroke="#7C6656" stroke-width="0.75" stroke-linecap="round" stroke-linejoin="round"/>
<path d="M9.24703 12.168C8.10887 18.0281 9.23057 21.673 11.1824 23.1733C13.193 24.7183 16.4687 25.499 18.5287 25.4872L20.3041 25.5225" stroke="#7C6656" stroke-width="0.75" stroke-linecap="round" stroke-linejoin="round"/>
<path d="M30.4113 11.3418C30.6017 12.2989 30.6699 13.3265 30.6394 14.4176C30.8675 15.0479 32.1279 17.2466 31.6529 19.7392C31.1779 22.2319 27.7799 24.8045 24.5418 25.4206C23.7822 25.5664 22.9944 25.5217 21.9668 25.5547" stroke="#7C6656" stroke-width="0.75" stroke-linecap="round" stroke-linejoin="round"/>
<path d="M31.2313 12.2969C35.4312 4.72249 24.828 0.308599 18.5281 1.25863C12.0284 2.23924 11.6098 5.84889 11.6098 5.84889C11.6098 5.84889 8.93375 5.09874 7.37231 8.77424C5.87671 12.2969 8.7903 16.9013 8.7903 16.9013" stroke="#7C6656" stroke-width="0.75" stroke-linecap="round" stroke-linejoin="round"/>
<path d="M12.6936 9.61523C12.6936 9.61523 13.2979 12.0562 10.2832 14.1091" stroke="#7C6656" stroke-width="0.75" stroke-linecap="round" stroke-linejoin="round"/>
<path d="M14.9199 7.91287C14.9199 7.91287 18.967 7.13685 18.5272 11.8494" stroke="#7C6656" stroke-width="0.75" stroke-linecap="round" stroke-linejoin="round"/>
<path d="M21.6367 7.42383C21.6367 7.42383 24.6397 8.49144 23.6544 11.8495" stroke="#7C6656" stroke-width="0.75" stroke-linecap="round" stroke-linejoin="round"/>
<path d="M26.4551 7.42383C26.4551 7.42383 29.0042 8.58315 28.1412 11.8495" stroke="#7C6656" stroke-width="0.75" stroke-linecap="round" stroke-linejoin="round"/>
<path d="M22.8011 38.6848C22.8011 38.6848 23.683 36.4649 23.3561 35.9217C23.0292 35.3785 22.2227 34.6895 22.2227 34.6895" stroke="#7C6656" stroke-width="0.75" stroke-linecap="round" stroke-linejoin="round"/>
<path d="M25.9237 39.128C25.9237 39.128 25.7755 39.3279 24.5104 39.3279C23.2452 39.3279 22.8008 38.6836 22.8008 38.6836" stroke="#7C6656" stroke-width="0.75" stroke-linecap="round" stroke-linejoin="round"/>
<path d="M25.5273 32.3887C25.5273 32.3887 27.077 34.7261 26.7549 36.5016C26.4327 38.277 25.9224 39.1283 25.9224 39.1283" stroke="#7C6656" stroke-width="0.75" stroke-linecap="round" stroke-linejoin="round"/>
<path d="M25.9232 39.1288C25.9232 39.1288 26.7745 39.6814 26.0267 40.2011C25.5493 40.5327 23.915 40.5492 23.2495 40.147C22.4194 39.6485 22.7345 38.8066 22.7345 38.8066" stroke="#7C6656" stroke-width="0.75" stroke-linecap="round" stroke-linejoin="round"/>
<path d="M18.3933 38.6848C18.3933 38.6848 17.5114 36.4649 17.8383 35.9217C18.1652 35.3785 18.9717 34.6895 18.9717 34.6895" stroke="#7C6656" stroke-width="0.75" stroke-linecap="round" stroke-linejoin="round"/>
<path d="M15.2715 39.128C15.2715 39.128 15.4196 39.3279 16.6848 39.3279C17.9499 39.3279 18.3944 38.6836 18.3944 38.6836" stroke="#7C6656" stroke-width="0.75" stroke-linecap="round" stroke-linejoin="round"/>
<path d="M15.6661 32.3887C15.6661 32.3887 14.1164 34.7261 14.4386 36.5016C14.7608 38.277 15.2711 39.1283 15.2711 39.1283" stroke="#7C6656" stroke-width="0.75" stroke-linecap="round" stroke-linejoin="round"/>
<path d="M15.2703 39.1288C15.2703 39.1288 14.4191 39.6814 15.1669 40.2011C15.6442 40.5327 17.2786 40.5492 17.9441 40.147C18.7742 39.6485 18.4591 38.8066 18.4591 38.8066" stroke="#7C6656" stroke-width="0.75" stroke-linecap="round" stroke-linejoin="round"/>
<path d="M36.9726 20.6518C37.3138 18.7708 36.0654 16.9693 34.1844 16.6281C32.3033 16.287 30.5019 17.5353 30.1607 19.4163C29.8195 21.2974 31.0679 23.0988 32.9489 23.44C34.83 23.7812 36.6314 22.5328 36.9726 20.6518Z" fill="#F1EEDA" stroke="#938A81" stroke-width="0.75" stroke-linecap="round" stroke-linejoin="round"/>
<path d="M33.8904 23.5296L33.5215 23.5449L33.7024 27.8986L34.0713 27.8833L33.8904 23.5296Z" stroke="#938A81" stroke-width="0.75" stroke-linecap="round" stroke-linejoin="round"/>
<path d="M35.208 18.4062L32.2285 21.642" stroke="#938A81" stroke-width="0.75" stroke-linecap="round" stroke-linejoin="round"/>
<path d="M32.1016 18.5352L35.3373 21.5122" stroke="#938A81" stroke-width="0.75" stroke-linecap="round" stroke-linejoin="round"/>
<path d="M50.7566 34.7569C50.7566 34.7569 50.7213 37.5083 50.8271 38.7993C50.0323 39.4507 49.0023 40.2949 51.2034 40.9063C52.7436 41.1697 53.9053 40.5771 53.8159 39.0438C53.7266 37.5106 53.7524 33.9927 54.0652 33.6094" fill="white"/>
<path d="M55.312 34.6203C55.312 34.6203 55.3379 37.4728 55.9399 39.1988C55.3685 39.615 54.9217 39.8337 55.3661 40.6756C55.8106 41.5175 57.9623 41.4093 58.7148 40.2617C58.9311 39.4575 58.6136 38.0136 58.6066 37.6162C58.5995 37.2188 58.6654 33.6797 58.6654 33.6797" fill="white"/>
<path d="M50.6527 35.0938C50.6245 36.0438 50.6645 38.0614 50.8456 38.8492" stroke="#7C6656" stroke-width="0.75" stroke-linecap="round" stroke-linejoin="round"/>
<path d="M50.9216 38.8359C50.9216 38.8359 50.035 39.0664 49.9739 39.6543C49.9104 40.2422 50.1502 40.9829 51.7023 40.9147C53.2543 40.8465 53.9363 40.2116 53.8046 38.6455C53.6917 37.2839 53.6494 36.2398 53.8916 35.1934" stroke="#7C6656" stroke-width="0.75" stroke-linecap="round" stroke-linejoin="round"/>
<path d="M55.3105 35.4883C55.3929 36.436 55.6656 38.4348 55.9384 39.1967" stroke="#7C6656" stroke-width="0.75" stroke-linecap="round" stroke-linejoin="round"/>
<path d="M56.0126 39.1733C56.0126 39.1733 55.159 39.5049 55.1661 40.0951C55.1731 40.6854 55.4953 41.3932 57.0309 41.1463C58.5664 40.8994 59.1661 40.1869 58.8557 38.6489C58.5852 37.3109 58.423 36.2785 58.5406 35.2109" stroke="#7C6656" stroke-width="0.75" stroke-linecap="round" stroke-linejoin="round"/>
<path d="M61.4278 25.815C63.5725 25.9726 63.8123 24.4864 63.8123 24.4864C63.8123 24.4864 65.5619 25.4623 67.3397 24.4628C69.924 23.0096 69.3644 21.2624 69.3644 21.2624C69.3644 21.2624 71.7347 21.4552 72.6683 19.2776C74.3497 15.3529 70.8553 13.5798 70.8553 13.5798C70.8553 13.5798 69.6724 9.92546 68.6307 8.74027C64.3461 1.86899 56.8517 2.73437 56.8517 2.73437C56.8517 2.73437 50.2414 0.822544 44.7388 6.12062C41.2349 9.49512 41.1573 13.9349 41.1573 13.9349C41.1573 13.9349 38.968 15.4305 39.2902 17.6903C39.65 20.2183 41.5171 20.6274 41.5171 20.6274C41.5171 20.6274 40.9904 22.337 42.7634 23.8044C44.426 25.1777 46.0697 24.6463 46.0697 24.6463C46.0697 24.6463 46.5471 27.28 51.2808 27.2894" fill="white"/>
<path d="M61.4278 25.815C63.5725 25.9726 63.8123 24.4864 63.8123 24.4864C63.8123 24.4864 65.5619 25.4623 67.3397 24.4628C69.924 23.0096 69.3644 21.2624 69.3644 21.2624C69.3644 21.2624 71.7347 21.4552 72.6683 19.2776C74.3497 15.3529 70.8553 13.5798 70.8553 13.5798C70.8553 13.5798 69.6724 9.92546 68.6307 8.74027C64.3461 1.86899 56.8517 2.73437 56.8517 2.73437C56.8517 2.73437 50.2414 0.822544 44.7388 6.12062C41.2349 9.49512 41.1573 13.9349 41.1573 13.9349C41.1573 13.9349 38.968 15.4305 39.2902 17.6903C39.65 20.2183 41.5171 20.6274 41.5171 20.6274C41.5171 20.6274 40.9904 22.337 42.7634 23.8044C44.426 25.1777 46.0697 24.6463 46.0697 24.6463C46.0697 24.6463 46.5471 27.28 51.2808 27.2894" stroke="#7C6656" stroke-width="0.75" stroke-linecap="round" stroke-linejoin="round"/>
<g filter="url(#filter2_f_1067_22731)">
<ellipse cx="2.09672" cy="1.22562" rx="2.09672" ry="1.22562" transform="matrix(0.999619 0.0276143 -0.0294673 0.999566 56.9277 16.6992)" fill="#F5B0B0"/>
</g>
<g filter="url(#filter3_f_1067_22731)">
<ellipse cx="2.09672" cy="1.22562" rx="2.09672" ry="1.22562" transform="matrix(0.999619 0.0276143 -0.0294673 0.999566 45.8164 16.7168)" fill="#F5B0B0"/>
</g>
<path d="M50.6528 25.0718C50.3306 26.6168 48.2024 33.7914 48.9549 35.0942C49.4817 36.0066 59.0385 35.8208 60.3765 35.2094C61.7145 34.598 60.5035 33.3258 60.4141 32.2653C60.2707 30.5604 59.5652 24.8766 59.5652 24.8766L59.3536 24.2676L56.9902 24.5592C56.9902 24.5592 57.2536 25.0459 55.9438 25.8102C54.9726 26.3769 52.2989 26.043 51.9673 24.8954C51.6051 24.839 50.7586 24.5968 50.6598 25.0695L50.6528 25.0718Z" fill="#FFADBE"/>
<path d="M64.8636 21.666C64.6802 21.8753 64.4826 22.0611 64.2686 22.2233C62.2581 23.7683 57.1928 24.9606 55.1328 24.9488" stroke="#7C6656" stroke-width="0.75" stroke-linecap="round" stroke-linejoin="round"/>
<path d="M44.5946 13.1445C44.5617 13.3773 44.4794 13.6384 44.4535 13.7254C44.2254 14.3556 42.9156 16.3262 43.3929 18.8189C43.868 21.3115 46.156 23.7854 50.5535 24.7283C50.5535 24.7283 52.5076 24.9494 52.8721 24.9494" stroke="#7C6656" stroke-width="0.75" stroke-linecap="round" stroke-linejoin="round"/>
<path d="M47.0484 8.92578C47.0484 8.92578 46.0255 11.3455 47.0484 13.208" stroke="#7C6656" stroke-width="0.75" stroke-linecap="round" stroke-linejoin="round"/>
<path d="M54.1516 8.73828C54.1516 8.73828 53.425 11.7695 54.8383 13.5778" stroke="#7C6656" stroke-width="0.75" stroke-linecap="round" stroke-linejoin="round"/>
<path d="M61.3436 10.1348C61.3436 10.1348 61.1249 12.9731 62.7687 14.9484" stroke="#7C6656" stroke-width="0.75" stroke-linecap="round" stroke-linejoin="round"/>
<path d="M64.3595 14.5117C64.3595 14.5117 64.122 18.38 65.6153 19.4524" stroke="#7C6656" stroke-width="0.75" stroke-linecap="round" stroke-linejoin="round"/>
<path d="M55.832 19.113C55.832 19.113 53.0901 17.2694 50.668 19.5622" stroke="#7C6656" stroke-width="0.75" stroke-linecap="round" stroke-linejoin="round"/>
<path d="M50.8381 15.4184C50.8381 15.4184 50.2573 15.9217 49.4625 15.8793C48.6676 15.837 48.3008 15.2773 48.3008 15.2773" stroke="#7C6656" stroke-width="0.75" stroke-linecap="round" stroke-linejoin="round"/>
<path d="M56.5762 15.4184C56.5762 15.4184 57.157 15.9217 57.9518 15.8793C58.7467 15.837 59.1135 15.2773 59.1135 15.2773" stroke="#7C6656" stroke-width="0.75" stroke-linecap="round" stroke-linejoin="round"/>
<path d="M49.8844 24.4375C49.8844 24.4375 48.8356 25.6862 48.8803 25.6415C48.925 25.5968 50.8791 28.0707 50.8791 28.0707L51.1778 24.8772" fill="#FFADBE"/>
<path d="M48.9801 25.4372C48.9801 25.4372 48.3828 26.1309 47.8067 26.1192C47.2306 26.1074 45.4199 25.0092 45.4199 25.0092C45.2576 23.864 44.6274 23.389 43.4446 23.5442C42.1042 23.7276 41.4551 25.235 42.1324 26.4555C42.8096 27.6759 44.5827 26.9211 44.5827 26.9211C44.5827 26.9211 46.9014 29.0869 48.4252 28.5413C49.949 27.9981 50.3535 27.5231 50.3535 27.5231" fill="white"/>
<path d="M48.9805 25.5977L50.0904 27.2861" stroke="#7C6656" stroke-width="0.75" stroke-linecap="round" stroke-linejoin="round"/>
<path d="M49.8177 24.6604C49.8177 24.6604 48.3809 26.1348 47.8048 26.1231C47.2286 26.1113 45.4179 25.0132 45.4179 25.0132C45.2557 23.8679 44.6254 23.3929 43.4426 23.5481C42.1022 23.7315 41.4532 25.2389 42.1304 26.4594C42.8077 27.6798 44.5808 26.925 44.5808 26.925C44.5808 26.925 46.8994 29.0908 48.4232 28.5452C49.0111 28.3359 49.4532 28.136 49.947 27.8797" stroke="#7C6656" stroke-width="0.75" stroke-linecap="round" stroke-linejoin="round"/>
<path d="M59.5634 24.8789C59.5634 24.8789 60.2689 30.5626 60.4123 32.2675C60.5017 33.3257 61.7127 34.6003 60.3747 35.2117C59.0367 35.8231 49.4799 36.0089 48.9531 35.0965C48.203 33.7937 50.3829 26.6285 50.651 25.0741" stroke="#7C6656" stroke-width="0.75" stroke-linecap="round" stroke-linejoin="round"/>
<path d="M51.9609 24.8964C51.9609 24.8964 52.3325 26.2556 54.4748 26.2556C56.617 26.2556 57.2402 24.793 57.2402 24.793" stroke="#7C6656" stroke-width="0.75" stroke-linecap="round" stroke-linejoin="round"/>
<path d="M56.5765 24.0794C57.5876 25.702 57.0915 27.8372 55.4689 28.846C53.8463 29.8572 51.7111 29.361 50.6999 27.7384C49.6887 26.1158 50.1849 23.9806 51.8075 22.9694C53.4301 21.9583 55.5653 22.4544 56.5765 24.077V24.0794Z" fill="#E1EAF0" stroke="#938A81" stroke-width="0.75" stroke-linecap="round" stroke-linejoin="round"/>
<path d="M55.6513 28.7892L55.3379 28.9844L57.6418 32.6829L57.9552 32.4877L55.6513 28.7892Z" stroke="#938A81" stroke-width="0.75" stroke-linecap="round" stroke-linejoin="round"/>
<path d="M55.0772 25.012C55.571 25.8068 55.3288 26.8509 54.534 27.3447C53.7391 27.8386 52.695 27.5964 52.2012 26.8015C51.7074 26.0067 51.9496 24.9626 52.7444 24.4688C53.5392 23.975 54.5833 24.2172 55.0772 25.012Z" stroke="#938A81" stroke-width="0.75" stroke-linecap="round" stroke-linejoin="round"/>
<path d="M44.4021 20.0658C45.2972 18.3766 44.6535 16.2816 42.9643 15.3864C41.2751 14.4913 39.18 15.135 38.2849 16.8242C37.3897 18.5134 38.0334 20.6085 39.7227 21.5036C41.4119 22.3988 43.5069 21.7551 44.4021 20.0658Z" fill="#E1EAF0" stroke="#938A81" stroke-width="0.75" stroke-linecap="round" stroke-linejoin="round"/>
<path d="M42.5443 21.7431L42.1914 21.8516L43.4712 26.0168L43.8241 25.9084L42.5443 21.7431Z" stroke="#938A81" stroke-width="0.75" stroke-linecap="round" stroke-linejoin="round"/>
<path d="M42.9598 17.945C43.235 18.8386 42.7317 19.7863 41.8381 20.0614C40.9445 20.3365 39.9969 19.8333 39.7217 18.9397C39.4466 18.0461 39.9498 17.0984 40.8434 16.8233C41.737 16.5482 42.6847 17.0514 42.9598 17.945Z" stroke="#938A81" stroke-width="0.75" stroke-linecap="round" stroke-linejoin="round"/>
<path d="M59.9646 25.3223C62.4572 28.8002 58.9604 31.18 58.9604 31.18C58.9604 31.18 59.0898 33.1718 57.0463 32.9366C55.3625 32.7438 55.2144 30.8931 55.6447 30.2511C56.0751 29.6068 57.0039 29.1177 57.8505 29.4704C57.8505 29.4704 58.9158 29.0871 58.0645 26.8931" fill="white"/>
<path d="M59.6157 24.5918C59.6157 24.5918 60.5539 26.0286 60.5869 26.2544C60.2482 26.513 58.1506 27.2843 58.1506 27.2843L58.0166 26.7529C58.0166 26.7529 57.6662 25.6735 58.2141 25.2902C58.7597 24.9069 59.618 24.5918 59.618 24.5918H59.6157Z" fill="#FFADBE"/>
<path d="M57.9069 26.4395C59.0639 28.6946 57.8505 29.4707 57.8505 29.4707C57.0016 29.1179 56.0727 29.607 55.6447 30.2514C55.2144 30.8957 55.3625 32.744 57.0463 32.9369C59.0898 33.172 58.9604 31.1802 58.9604 31.1802C58.9604 31.1802 62.4572 28.8005 59.9646 25.3225L59.4072 24.4336" stroke="#7C6656" stroke-width="0.75" stroke-linecap="round" stroke-linejoin="round"/>
<path d="M60.4128 26.2539L58.2188 27.3286" stroke="#7C6656" stroke-width="0.75" stroke-linecap="round" stroke-linejoin="round"/>
<path d="M4.5412 14.8398C4.5412 14.8398 4.07794 16.707 7.64291 17.1867" stroke="#9F978F" stroke-width="0.75" stroke-linecap="round" stroke-linejoin="round"/>
<path d="M2.86152 14.9805C2.86152 14.9805 1.20837 18.054 8.1502 18.5078" stroke="#9F978F" stroke-width="0.75" stroke-linecap="round" stroke-linejoin="round"/>
<path d="M74.7707 17.2402C74.7707 17.2402 75.147 20.2479 72.4121 21.9222" stroke="#9F978F" stroke-width="0.75" stroke-linecap="round" stroke-linejoin="round"/>
<path d="M76.3182 19.1445C76.3182 19.1445 75.822 22.2415 71.7891 23.2927" stroke="#9F978F" stroke-width="0.75" stroke-linecap="round" stroke-linejoin="round"/>
<defs>
<filter id="filter0_f_1067_22731" x="23.5781" y="16.5508" width="5.69141" height="3.95312" filterUnits="userSpaceOnUse" color-interpolation-filters="sRGB">
<feFlood flood-opacity="0" result="BackgroundImageFix"/>
<feBlend mode="normal" in="SourceGraphic" in2="BackgroundImageFix" result="shape"/>
<feGaussianBlur stdDeviation="0.375" result="effect1_foregroundBlur_1067_22731"/>
</filter>
<filter id="filter1_f_1067_22731" x="11.9961" y="16.4883" width="5.69141" height="3.95312" filterUnits="userSpaceOnUse" color-interpolation-filters="sRGB">
<feFlood flood-opacity="0" result="BackgroundImageFix"/>
<feBlend mode="normal" in="SourceGraphic" in2="BackgroundImageFix" result="shape"/>
<feGaussianBlur stdDeviation="0.375" result="effect1_foregroundBlur_1067_22731"/>
</filter>
<filter id="filter2_f_1067_22731" x="56.1406" y="16.0059" width="5.69336" height="3.95312" filterUnits="userSpaceOnUse" color-interpolation-filters="sRGB">
<feFlood flood-opacity="0" result="BackgroundImageFix"/>
<feBlend mode="normal" in="SourceGraphic" in2="BackgroundImageFix" result="shape"/>
<feGaussianBlur stdDeviation="0.375" result="effect1_foregroundBlur_1067_22731"/>
</filter>
<filter id="filter3_f_1067_22731" x="45.0293" y="16.0234" width="5.69336" height="3.95312" filterUnits="userSpaceOnUse" color-interpolation-filters="sRGB">
<feFlood flood-opacity="0" result="BackgroundImageFix"/>
<feBlend mode="normal" in="SourceGraphic" in2="BackgroundImageFix" result="shape"/>
<feGaussianBlur stdDeviation="0.375" result="effect1_foregroundBlur_1067_22731"/>
</filter>
</defs>
</svg>
