<svg width="37" height="44" viewBox="0 0 37 44" fill="none" xmlns="http://www.w3.org/2000/svg">
<path d="M3.09227 17.3152L4.06952 18.5368L4.55814 19.8805L5.65754 22.6901L6.8791 24.2781L8.22281 25.2554L10.2995 25.9883L11.521 26.2326L9.20006 26.8434L6.8791 26.4769L5.65754 25.9883L4.80245 25.2554L4.55814 24.0338L3.94736 23.423L3.09227 23.1787H2.35934L1.38209 23.6673L1.01562 25.1332L1.50425 26.2326L2.72581 26.8434L3.70305 28.3093L5.29108 29.4087L7.12341 30.0194L9.68868 30.2638L12.0096 30.0194L12.1318 33.3176L12.0096 39.5476L11.7653 41.0135L11.1546 41.5021L11.0324 42.235L11.521 42.8458L12.8647 43.0901L13.9641 42.8458L14.9414 42.235L15.1857 41.5021L15.9186 36.1272H17.6288L18.3617 41.7464L18.7282 42.235L19.7055 42.8458L21.2935 43.0901L22.515 42.6015V41.7464L21.7821 41.2578L22.0264 34.5392L21.1713 25.2554L20.1941 23.1787L20.0719 21.7129L20.5605 20.4913L21.4156 19.514L22.1486 19.0254L22.8815 18.7811L23.4923 18.0482L23.9809 17.4374L25.0803 16.7045L26.0576 16.338L27.5234 16.0937L27.157 15.1164L25.9354 13.2841L27.2791 9.00865V7.17632L26.7905 5.46614L25.3246 3.75596L23.248 2.16793L18.3617 0.824219H15.0635L12.3761 1.31284L10.2995 2.04578L7.48988 3.6338L6.14617 5.34398L5.53539 6.93201L4.31383 7.17632L3.45874 7.66494L2.72581 8.52003L1.99287 9.74159L1.50425 11.3296V12.9176L1.99287 14.75L3.09227 17.3152Z" fill="white"/>
<path d="M18.9401 33.3398C18.9401 33.3398 14.1467 33.8285 12.0383 33.3667C12.0847 35.3652 11.9113 40.3833 11.9113 40.3833L11.7305 41.148C11.7305 41.148 13.6776 42.201 15.0971 41.8565C15.2192 40.9844 15.747 36.467 15.9229 36.0761C16.4506 36.103 17.6648 36.2423 17.6648 36.2007C17.6648 36.1592 18.3928 41.7295 18.3928 41.7295C18.3928 41.7295 20.5526 42.2108 21.9891 41.1651C21.8303 40.6472 21.7643 39.8361 21.8718 37.6324C21.9793 35.4263 22.2896 34.0215 22.2896 34.0215L20.9264 33.914C20.9264 33.914 20.5184 34.2438 19.7732 34.1412C19.0305 34.041 18.9377 33.3398 18.9377 33.3398H18.9401Z" fill="#A5A4A4"/>
<path d="M29.1172 14.1891C29.1172 14.1891 29.3591 11.9072 30.1482 11.6825C30.9373 11.4577 30.7785 12.4203 30.7785 12.4203C30.7785 12.4203 31.6165 11.702 32.0807 12.4472C32.689 13.4244 31.4064 14.3479 29.1172 14.1891Z" fill="#F478C4"/>
<path d="M32.5154 11.0933C32.5154 11.0933 32.0879 8.10052 33.0236 7.56059C33.9593 7.02066 34.0644 8.30086 34.0644 8.30086C34.0644 8.30086 34.9024 7.1135 35.7355 7.91484C36.8275 8.96538 35.4887 10.5583 32.5154 11.0933Z" fill="#F478C4"/>
<path d="M16.3906 27.461L16.4151 31.4897L17.6439 32.4572L18.6701 31.2747L17.9396 27.3145L16.3906 27.461Z" fill="#35A8E0" stroke="#7C6656" stroke-width="0.75" stroke-linecap="round" stroke-linejoin="round"/>
<path d="M16.0396 26.0607L16.0273 27.3751L16.9557 27.8002C17.117 27.8735 17.3051 27.8564 17.4517 27.7538L18.2823 27.1625L18.0234 25.875L16.042 26.0631L16.0396 26.0607Z" fill="#35A8E0" stroke="#7C6656" stroke-width="0.75" stroke-linecap="round" stroke-linejoin="round"/>
<path d="M18.2695 25.6597C18.8803 25.5082 19.6963 25.2786 20.6442 24.9414" stroke="#7C6656" stroke-width="0.75" stroke-linecap="round" stroke-linejoin="round"/>
<g filter="url(#filter0_f_1067_24422)">
<ellipse cx="2.16399" cy="1.32564" rx="2.16399" ry="1.32564" transform="matrix(0.978318 -0.207108 0.208895 0.977938 21.5645 16.8867)" fill="#F5B0B0"/>
</g>
<g filter="url(#filter1_f_1067_24422)">
<ellipse cx="2.16399" cy="1.32564" rx="2.16399" ry="1.32564" transform="matrix(0.978318 -0.207108 0.208895 0.977938 10.3906 19.2969)" fill="#F5B0B0"/>
</g>
<path d="M14.4009 16.5356C14.5206 17.2124 14.0711 17.8574 13.3943 17.9771C12.7176 18.0968 12.0726 17.6472 11.9529 16.9705C11.8332 16.2938 12.2827 15.6488 12.9595 15.5291C13.6362 15.4094 14.2812 15.8589 14.4009 16.5356Z" fill="#7C6656"/>
<path d="M4.12729 13.9238C3.83167 20.1196 5.52719 23.6987 7.7602 24.9496C10.0592 26.2396 13.526 26.4326 15.6417 26.1125" stroke="#7C6656" stroke-width="0.75" stroke-linecap="round" stroke-linejoin="round"/>
<path d="M25.7631 9.91797C26.1027 10.8732 25.8193 12.151 25.9512 13.2773C26.281 13.8905 28.0034 15.8303 27.8862 18.4664C27.7689 21.1001 26.198 23.4284 21.8199 25.0531C21.8199 25.0531 19.9607 25.7152 18.9102 25.83" stroke="#7C6656" stroke-width="0.75" stroke-linecap="round" stroke-linejoin="round"/>
<path d="M26.7486 10.7777C29.9393 2.36361 18.3784 -0.592563 12.0434 1.32528C5.50811 3.30176 5.61561 7.07638 5.61561 7.07638C5.61561 7.07638 2.75228 6.70502 1.69685 10.7166C0.680517 14.5596 4.36474 18.8595 4.36474 18.8595" stroke="#7C6656" stroke-width="0.75" stroke-linecap="round" stroke-linejoin="round"/>
<path d="M7.29033 10.7871C7.29033 10.7871 8.2749 13.2058 5.48242 15.7662" stroke="#7C6656" stroke-width="0.75" stroke-linecap="round" stroke-linejoin="round"/>
<path d="M9.32617 8.7029C9.32617 8.7029 13.372 7.30055 13.6236 12.2112" stroke="#7C6656" stroke-width="0.75" stroke-linecap="round" stroke-linejoin="round"/>
<path d="M16.1602 7.19922C16.1602 7.19922 19.4071 7.84664 18.8964 11.4478" stroke="#7C6656" stroke-width="0.75" stroke-linecap="round" stroke-linejoin="round"/>
<path d="M21.1113 6.48047C21.1113 6.48047 23.9063 7.29403 23.5031 10.7804" stroke="#7C6656" stroke-width="0.75" stroke-linecap="round" stroke-linejoin="round"/>
<path d="M17.6523 18.5867C17.6523 18.5867 18.5099 17.9539 19.0962 18.5158C19.6826 19.0777 19.6337 19.9817 18.8812 20.485C18.8812 20.485 19.5018 20.485 19.7803 21.0933C20.0588 21.7016 20.0197 22.6984 18.764 22.8206" stroke="#7C6656" stroke-width="0.75" stroke-linecap="round" stroke-linejoin="round"/>
<path d="M22.7701 14.4355C22.7701 14.4355 21.4484 14.7605 20.5957 16.0333" stroke="#7C6656" stroke-width="0.75" stroke-linecap="round" stroke-linejoin="round"/>
<path d="M21.1278 28.053C20.1726 27.4642 19.6107 26.9218 19.039 26.2157C18.2303 25.2165 19.5056 23.8142 20.4267 25.0211C21.5823 26.5333 23.1532 26.8876 23.1532 26.8876C23.1532 26.8876 25.3202 28.654 26.8667 28.9862C27.2601 31.6224 27.778 32.6314 25.203 33.655C22.6694 34.6616 20.9275 33.9164 20.9275 33.9164C20.9275 33.9164 19.9063 34.3 19.166 33.6062C18.4258 32.9123 18.6896 31.6639 19.2882 31.5637C19.8867 31.4635 20.6343 31.7958 20.6343 31.7958C20.6343 31.7958 21.443 31.7958 21.465 31.3683C21.487 30.9407 21.3575 28.6979 21.3575 28.6979C21.3575 28.6979 21.4674 28.2655 21.1303 28.0554L21.1278 28.053Z" fill="#FFE596"/>
<path d="M23.1516 26.8856C23.1516 26.8856 21.5831 26.5314 20.4251 25.0191C19.504 23.8122 18.2312 25.2145 19.0374 26.2138C19.8461 27.213 20.6083 27.9289 22.5726 28.7668" stroke="#7C6656" stroke-width="0.75" stroke-linecap="round" stroke-linejoin="round"/>
<path d="M24.452 27.7803C25.3731 28.4961 27.3178 29.3341 28.7519 29.3341C30.186 29.3341 31.7447 28.0002 33.2985 24.7777C34.8524 21.5552 32.7317 19.0022 32.7317 19.0022C32.7317 19.0022 31.1535 16.9182 28.5051 16.349C25.8568 15.7822 24.1759 16.7863 22.7907 18.6919C22.4706 18.8947 21.2051 19.3296 20.5601 20.6122C19.9665 21.7922 20.0129 23.5342 21.3688 25.2663C22.3387 26.505 24.452 27.7803 24.452 27.7803Z" fill="white"/>
<g filter="url(#filter2_f_1067_24422)">
<ellipse cx="1.10492" cy="0.676867" rx="1.10492" ry="0.676867" transform="matrix(0.784183 0.620529 -0.619096 0.785316 26.373 23.2793)" fill="#F5B0B0"/>
</g>
<g filter="url(#filter3_f_1067_24422)">
<ellipse cx="1.10492" cy="0.676867" rx="1.10492" ry="0.676867" transform="matrix(0.784183 0.620529 -0.619096 0.785316 21.8105 19.6914)" fill="#F5B0B0"/>
</g>
<path d="M33.8711 21.0456C33.8711 21.0456 35.0096 19.3892 35.8012 20.3469C36.4706 21.158 34.1814 21.5636 34.1814 21.5636C34.1814 21.5636 36.2385 22.04 35.7181 22.9195C35.0951 23.97 34.0079 22.3649 34.0079 22.3649" stroke="#7C6656" stroke-width="0.75" stroke-linecap="round" stroke-linejoin="round"/>
<path d="M28.0054 23.0452L26.5859 22.6152L27.1088 23.5387" stroke="#7C6656" stroke-width="0.75" stroke-linecap="round" stroke-linejoin="round"/>
<path d="M23.6293 19.3574L23.7075 20.6303L23.082 20.149" stroke="#7C6656" stroke-width="0.75" stroke-linecap="round" stroke-linejoin="round"/>
<path d="M23.6494 21.6426C23.6494 21.6426 21.8146 23.1549 22.3765 23.8731C23.3073 25.0605 24.9931 22.7982 24.9931 22.7982" fill="#F2999F"/>
<path d="M23.6494 21.6426C23.6494 21.6426 21.8146 23.1549 22.3765 23.8731C23.3073 25.0605 24.9931 22.7982 24.9931 22.7982" stroke="#7C6656" stroke-width="0.75" stroke-linecap="round" stroke-linejoin="round"/>
<path d="M23.7344 21.373C23.7344 21.373 23.7466 21.8275 24.2767 21.8934C24.2767 21.8934 24.4087 22.6655 25.4739 22.7119" stroke="#7C6656" stroke-width="0.75" stroke-linecap="round" stroke-linejoin="round"/>
<path d="M26.865 28.9844C26.865 28.9844 27.9742 31.8306 26.1101 33.2794C24.2484 34.7281 20.9258 33.9146 20.9258 33.9146" stroke="#7C6656" stroke-width="0.75" stroke-linecap="round" stroke-linejoin="round"/>
<path d="M20.9273 33.9142C20.9273 33.9142 20.2407 34.4297 19.4932 33.9069C18.7456 33.3841 18.3864 32.1063 18.9557 31.6983C19.5249 31.2903 20.5144 31.7912 20.5144 31.7912C20.5144 31.7912 21.7359 31.8645 22.4444 30.8848" stroke="#7C6656" stroke-width="0.75" stroke-linecap="round" stroke-linejoin="round"/>
<path d="M21.1289 28.0527C21.1289 28.0527 21.8594 30.9161 21.2779 31.5415" stroke="#7C6656" stroke-width="0.75" stroke-linecap="round" stroke-linejoin="round"/>
<path d="M24.452 27.7803C25.3731 28.4961 27.3178 29.3341 28.7519 29.3341C30.186 29.3341 31.7447 28.0002 33.2985 24.7777C34.8524 21.5552 32.7317 19.0022 32.7317 19.0022C32.7317 19.0022 31.1535 16.9182 28.5051 16.349C25.8568 15.7822 24.1759 16.7863 22.7907 18.6919C22.4706 18.8947 21.2051 19.3296 20.5601 20.6122C19.9665 21.7922 20.0129 23.5342 21.3688 25.2663C22.3387 26.505 24.452 27.7803 24.452 27.7803Z" stroke="#7C6656" stroke-width="0.75" stroke-linecap="round" stroke-linejoin="round"/>
<path d="M27.7761 32.2328C28.1475 32.8753 27.7761 33.7842 26.9503 34.2606C26.1221 34.737 25.1522 34.6051 24.7808 33.9601C24.4095 33.3176 24.7808 32.4087 25.6066 31.9323C26.4348 31.4559 27.4048 31.5878 27.7761 32.2328Z" fill="white" stroke="#7C6656" stroke-width="0.75" stroke-linecap="round" stroke-linejoin="round"/>
<path d="M11.8399 28.6465C11.8399 28.6465 12.4605 39.4328 11.7569 40.9793C11.7569 40.9793 10.3448 42.1178 11.471 42.7481C12.5973 43.3785 14.9745 42.9314 15.2163 41.4777C15.4582 40.0241 15.876 36.1639 15.876 36.1639" stroke="#7C6656" stroke-width="0.75" stroke-linecap="round" stroke-linejoin="round"/>
<path d="M11.6699 41.2383C11.6699 41.2383 13.2384 42.2204 15.1489 41.7318" stroke="#7C6656" stroke-width="0.75" stroke-linecap="round" stroke-linejoin="round"/>
<path d="M21.7836 40.9794C21.7836 40.9794 23.1958 42.1179 22.0695 42.7483C20.9408 43.3761 18.5661 42.9315 18.3217 41.4778C18.0774 40.0242 17.6621 36.1641 17.6621 36.1641" stroke="#7C6656" stroke-width="0.75" stroke-linecap="round" stroke-linejoin="round"/>
<path d="M21.8716 41.2383C21.8716 41.2383 20.3031 42.2204 18.3926 41.7318" stroke="#7C6656" stroke-width="0.75" stroke-linecap="round" stroke-linejoin="round"/>
<path d="M22.1689 34.1914C22.1689 34.1914 21.673 39.7299 21.8709 41.2373" stroke="#7C6656" stroke-width="0.75" stroke-linecap="round" stroke-linejoin="round"/>
<path d="M15.875 36.1607C15.875 36.1607 17.5705 36.1387 18.1105 36.0898" stroke="#7C6656" stroke-width="0.75" stroke-linecap="round" stroke-linejoin="round"/>
<path d="M11.8327 26.1423C11.8327 26.1423 7.10284 28.0382 4.69882 25.0845C4.69882 25.0845 4.93824 23.3376 2.93489 23.1788C0.931532 23.02 0.362287 25.622 1.61805 26.4599C2.21172 26.8582 2.74921 26.951 2.74921 26.951C2.74921 26.951 4.69882 31.1336 11.8425 29.9854" stroke="#7C6656" stroke-width="0.75" stroke-linecap="round" stroke-linejoin="round"/>
<path d="M4.70006 25.3711C4.70006 25.3711 4.21877 26.7246 2.79688 27.03" stroke="#7C6656" stroke-width="0.75" stroke-linecap="round" stroke-linejoin="round"/>
<path d="M12.0352 33.3691C12.0352 33.3691 16.4205 33.9213 18.7806 33.3691" stroke="#7C6656" stroke-width="0.75" stroke-linecap="round" stroke-linejoin="round"/>
<defs>
<filter id="filter0_f_1067_24422" x="21.0723" y="15.6133" width="5.77148" height="4.24414" filterUnits="userSpaceOnUse" color-interpolation-filters="sRGB">
<feFlood flood-opacity="0" result="BackgroundImageFix"/>
<feBlend mode="normal" in="SourceGraphic" in2="BackgroundImageFix" result="shape"/>
<feGaussianBlur stdDeviation="0.375" result="effect1_foregroundBlur_1067_24422"/>
</filter>
<filter id="filter1_f_1067_24422" x="9.89844" y="18.0234" width="5.77148" height="4.24414" filterUnits="userSpaceOnUse" color-interpolation-filters="sRGB">
<feFlood flood-opacity="0" result="BackgroundImageFix"/>
<feBlend mode="normal" in="SourceGraphic" in2="BackgroundImageFix" result="shape"/>
<feGaussianBlur stdDeviation="0.375" result="effect1_foregroundBlur_1067_24422"/>
</filter>
<filter id="filter2_f_1067_24422" x="25.1074" y="22.8789" width="3.42578" height="3.23438" filterUnits="userSpaceOnUse" color-interpolation-filters="sRGB">
<feFlood flood-opacity="0" result="BackgroundImageFix"/>
<feBlend mode="normal" in="SourceGraphic" in2="BackgroundImageFix" result="shape"/>
<feGaussianBlur stdDeviation="0.375" result="effect1_foregroundBlur_1067_24422"/>
</filter>
<filter id="filter3_f_1067_24422" x="20.5449" y="19.291" width="3.42578" height="3.23438" filterUnits="userSpaceOnUse" color-interpolation-filters="sRGB">
<feFlood flood-opacity="0" result="BackgroundImageFix"/>
<feBlend mode="normal" in="SourceGraphic" in2="BackgroundImageFix" result="shape"/>
<feGaussianBlur stdDeviation="0.375" result="effect1_foregroundBlur_1067_24422"/>
</filter>
</defs>
</svg>
