<svg width="64" height="42" viewBox="0 0 64 42" fill="none" xmlns="http://www.w3.org/2000/svg">
<path d="M20.8728 32.2909L19.7706 31.9603L19.8808 33.1727L21.3136 34.0544L21.9749 35.4872V36.4792L20.6523 37.6916L18.7787 38.3529H16.3539L12.0554 38.0222L10.6226 37.6916L9.63068 38.1324L8.74894 37.912L8.41829 37.3609L8.52851 36.5894L9.18981 35.7077L9.52046 35.4872L9.63068 35.0464L9.96133 34.4953L10.8431 34.2748H11.3941L11.6146 33.2829L11.9452 32.0705L10.8431 32.2909L9.30003 32.1807L7.86721 31.9603L7.31613 31.7399L6.65483 32.1807L5.99353 32.0705L5.33223 31.6296V30.5275L5.66288 29.8662L6.10374 29.4253L6.65483 29.2049H7.42634L8.41829 29.6457L10.6226 29.9764L11.5044 29.5355L12.1657 28.9844H11.2839L9.74089 28.6538L8.85916 27.9925L8.52851 27.3312H7.97743H6.65483L5.33223 26.7801L4.00963 25.3473L3.67898 24.1349V23.4736L2.68703 23.2532L1.47464 22.3714L0.703125 20.3875L0.923558 18.7343L1.69508 17.1913L2.68703 16.53L3.34833 16.0891L4.23006 14.4358L5.88331 12.0111L7.20591 10.6885L8.74894 9.47609L10.4022 8.48414L12.1657 7.93305L14.8109 7.49219L17.4561 7.71262L20.2115 7.82284L22.9669 8.48414L25.3917 9.5863L27.596 11.3498L29.2492 13.4439L30.6821 16.9708L30.9025 19.9467L31.674 21.0488L32.3353 22.9225L32.1149 24.2451L30.0208 25.5677L29.2492 27.4414L28.0369 28.5436L27.4858 30.307L26.8245 31.0786H25.9427L25.5019 30.9683L24.3997 31.5194L22.0852 32.2909H20.8728Z" fill="white"/>
<path d="M19.2735 29.1848C19.2735 29.1848 18.5482 29.9695 17.6489 29.8637C16.7517 29.7579 15.5548 29.37 14.6091 28.1862C14.2167 28.0055 13.1873 27.8203 13.1873 27.8203C13.1873 27.8203 11.4789 30.0665 11.1659 29.7293C11.8228 30.503 12.5877 31.8564 12.5877 31.8564L11.8294 32.154C11.8294 32.154 11.1174 34.0828 11.6817 34.9579C11.4106 35.4076 10.8705 36.5054 11.1395 37.8522C12.7949 38.0749 17.9619 38.8508 19.4697 38.1983C20.9774 37.5458 22.4587 37.0499 21.7004 34.6449C21.3169 34.096 20.5674 33.2893 19.7474 33.1416C19.8642 32.8087 19.8334 31.9402 19.8334 31.9402L20.1839 32.0725L21.1383 29.78C21.1383 29.78 20.6203 29.5772 20.0163 29.068C19.829 29.0988 19.2691 29.1826 19.2691 29.1826L19.2735 29.1848Z" fill="#FFADBE"/>
<path d="M21.9995 22.96C21.9995 22.96 20.904 23.5044 18.3447 22.5059C18.0406 23.5838 17.6217 26.3238 19.3764 26.7536C20.322 27.0358 21.6424 25.4949 21.9995 22.96Z" fill="#F299A0"/>
<path d="M17.9093 20.1503C17.83 20.7653 17.2678 21.1996 16.655 21.1202C16.04 21.0409 15.6058 20.4788 15.6851 19.866C15.7645 19.251 16.3266 18.8167 16.9394 18.8961C17.5544 18.9754 17.9887 19.5375 17.9093 20.1503Z" fill="#7C6656"/>
<path d="M7.94727 24.4238C8.09275 24.6399 8.25587 24.836 8.43222 25.0124C10.1185 26.6877 13.3854 27.9772 15.3009 28.2109" stroke="#7C6656" stroke-width="0.75" stroke-linecap="round" stroke-linejoin="round"/>
<path d="M26.0287 14.6992C26.0287 14.6992 26.6922 17.0711 25.5195 18.6802" stroke="#7C6656" stroke-width="0.75" stroke-linecap="round" stroke-linejoin="round"/>
<path d="M19.447 13.6797C19.447 13.6797 19.7622 16.585 18.2324 18.0994" stroke="#7C6656" stroke-width="0.75" stroke-linecap="round" stroke-linejoin="round"/>
<path d="M12.5913 14.1211C12.5913 14.1211 12.4568 16.7861 10.6934 18.4284" stroke="#7C6656" stroke-width="0.75" stroke-linecap="round" stroke-linejoin="round"/>
<path d="M9.26467 17.8281C9.26467 17.8281 9.02439 21.4543 7.50781 22.2721" stroke="#7C6656" stroke-width="0.75" stroke-linecap="round" stroke-linejoin="round"/>
<path d="M27.3875 29.452C27.6608 29.3594 27.9474 29.2249 28.2405 29.0398C30.0635 27.8891 29.777 26.2359 29.777 26.2359C29.777 26.2359 31.5603 26.0771 32.1973 23.7714C32.766 21.706 30.9078 20.0571 30.9078 20.0571C30.9078 20.0571 31.3641 15.9174 28.5073 12.364C24.0236 6.78041 17.6487 7.77236 17.6487 7.77236C17.6487 7.77236 10.7844 6.07502 5.98118 11.954C4.87019 12.9327 3.33598 16.1885 3.33598 16.1885C3.33598 16.1885 -0.124825 17.4207 0.972933 21.2695C1.58133 23.4055 3.80991 23.5091 3.80991 23.5091C3.80991 23.5091 3.08028 25.0676 5.31106 26.7252C6.84528 27.8671 8.5889 27.1661 8.5889 27.1661C8.5889 27.1661 8.56686 28.6342 10.952 28.9097C10.952 28.9097 11.891 29.0177 12.4399 28.5769" stroke="#7C6656" stroke-width="0.75" stroke-linecap="round" stroke-linejoin="round"/>
<path d="M17.8086 28.913C22.5391 29.7771 26.4033 27.5089 27.3666 25.331C28.3299 23.1531 27.4283 21.5572 27.3401 20.9289C27.4878 20.347 27.6002 19.765 27.673 19.1875" stroke="#7C6656" stroke-width="0.75" stroke-linecap="round" stroke-linejoin="round"/>
<path d="M22.2657 22.8589C22.2657 22.8589 21.5515 23.1631 20.0503 22.903C18.5492 22.6429 17.9805 22.1602 17.9805 22.1602" stroke="#7C6656" stroke-width="0.75" stroke-linecap="round" stroke-linejoin="round"/>
<path d="M21.9986 22.9597C21.9986 22.9597 21.3527 27.2074 19.3754 26.7533C17.4004 26.2992 18.1851 22.2852 18.1851 22.2852" stroke="#7C6656" stroke-width="0.75" stroke-linecap="round" stroke-linejoin="round"/>
<path d="M7.57769 31.528C6.81279 32.3061 5.85831 32.2687 5.42847 31.7066C4.99862 31.1467 5.33589 29.2201 6.95607 29.1914C7.85764 29.1738 7.86426 29.5243 9.67842 29.9144C11.4926 30.3046 12.436 28.5852 12.436 28.5852C12.436 28.5852 12.899 27.968 13.1855 27.8203" stroke="#7C6656" stroke-width="0.75" stroke-linecap="round" stroke-linejoin="round"/>
<path d="M7.41406 31.7219C7.41406 31.7219 11.329 33.4589 13.5928 31.1113" stroke="#7C6656" stroke-width="0.75" stroke-linecap="round" stroke-linejoin="round"/>
<path d="M19.9039 33.0387L19.2734 29.1855" stroke="#7C6656" stroke-width="0.75" stroke-linecap="round" stroke-linejoin="round"/>
<path d="M19.2741 33.0391C19.2741 33.0391 21.1985 33.2573 21.8532 34.9745C22.5079 36.6916 20.9891 38.4816 17.4137 38.3956C13.8382 38.3096 11.1445 37.8533 11.1445 37.8533" stroke="#7C6656" stroke-width="0.75" stroke-linecap="round" stroke-linejoin="round"/>
<path d="M11.8211 32.4258C11.8211 32.4258 10.8005 34.8902 12.564 36.085" stroke="#7C6656" stroke-width="0.75" stroke-linecap="round" stroke-linejoin="round"/>
<path d="M11.6847 34.957C11.6847 34.957 10.5539 36.5199 11.1424 37.805" stroke="#7C6656" stroke-width="0.75" stroke-linecap="round" stroke-linejoin="round"/>
<path d="M19.0291 29.1844C19.0291 29.1844 18.5132 29.9911 17.2965 29.8457C15.7556 29.6627 15.3875 29.1094 14.6094 28.1836" stroke="#7C6656" stroke-width="0.75" stroke-linecap="round" stroke-linejoin="round"/>
<path d="M11.3302 35.5826C11.3302 35.5826 9.74087 35.2277 8.89441 36.0851C8.11408 36.8787 8.36978 37.8133 9.12807 38.0095C10.1619 38.2785 10.5124 37.6921 10.5124 37.6921L11.2354 37.8685" stroke="#7C6656" stroke-width="0.75" stroke-linecap="round" stroke-linejoin="round"/>
<path d="M11.4763 34.2702C11.031 34.2261 10.2595 34.2504 9.77672 34.8323C9.61139 35.0307 9.50338 35.2379 9.43945 35.4407" stroke="#7C6656" stroke-width="0.75" stroke-linecap="round" stroke-linejoin="round"/>
<path d="M18.3193 33.6797C18.3193 33.6797 17.8299 33.8031 17.2656 33.6797" stroke="#7C6656" stroke-width="0.75" stroke-linecap="round" stroke-linejoin="round"/>
<path d="M11.3301 29.7266L12.4499 31.4834" stroke="#7C6656" stroke-width="0.75" stroke-linecap="round" stroke-linejoin="round"/>
<path d="M25.173 30.8132C26.0746 31.4282 27.0026 31.2034 27.3156 30.5685C27.6264 29.9359 26.921 28.1129 25.3251 28.3995C24.4368 28.5582 24.5007 28.9043 22.7967 29.6405C21.4852 30.207 20.4337 29.4465 20.0215 29.0696" stroke="#7C6656" stroke-width="0.75" stroke-linecap="round" stroke-linejoin="round"/>
<path d="M25.3713 30.9746C25.3713 30.9746 22.3976 33.0709 19.834 31.9445" stroke="#7C6656" stroke-width="0.75" stroke-linecap="round" stroke-linejoin="round"/>
<path d="M21.1406 29.7812L20.3867 31.7233" stroke="#7C6656" stroke-width="0.75" stroke-linecap="round" stroke-linejoin="round"/>
<path d="M34.5209 35.4451C34.5209 35.4451 36.5313 35.9477 37.5453 35.498C38.5593 35.0461 39.2603 35.6303 39.4565 36.1373C39.6504 36.6443 39.3793 37.4621 37.7018 37.4621C36.0243 37.4621 34.5209 37.0366 34.5209 37.0366C34.5209 37.0366 34.3821 37.6979 34.5209 37.9691C34.6598 38.2424 35.5768 39.6466 34.3005 40.2704C33.022 40.8942 32.2439 40.6429 31.7325 40.2704C31.3335 39.9794 31.4635 39.5694 32.0477 39.2564C32.6318 38.9434 33.1388 38.9831 30.8397 38.2424C30.8397 38.2424 29.0696 37.5458 29.0079 37.9911C28.944 38.4364 29.5303 38.8265 28.7897 39.1374C28.049 39.4504 26.7022 38.4628 27.348 37.0344C27.8947 35.8242 28.8007 35.8617 28.8007 35.8617" fill="#FFE596"/>
<path d="M34.5209 35.4451C34.5209 35.4451 36.5313 35.9477 37.5453 35.498C38.5593 35.0461 39.2603 35.6303 39.4565 36.1373C39.6504 36.6443 39.3793 37.4621 37.7018 37.4621C36.0243 37.4621 34.5209 37.0366 34.5209 37.0366C34.5209 37.0366 34.3821 37.6979 34.5209 37.9691C34.6598 38.2424 35.5768 39.6466 34.3005 40.2704C33.022 40.8942 32.2439 40.6429 31.7325 40.2704C31.3335 39.9794 31.4635 39.5694 32.0477 39.2564C32.6318 38.9434 33.1388 38.9831 30.8397 38.2424C30.8397 38.2424 29.0696 37.5458 29.0079 37.9911C28.944 38.4364 29.5303 38.8265 28.7897 39.1374C28.049 39.4504 26.7022 38.4628 27.348 37.0344C27.8947 35.8242 28.8007 35.8617 28.8007 35.8617" stroke="#7C6656" stroke-width="0.75" stroke-linecap="round" stroke-linejoin="round"/>
<path d="M29.3477 33.522C29.3477 33.522 27.9965 32.993 27.1699 31.4874C26.5108 30.2861 25.186 31.364 25.7701 32.3669C26.3543 33.3699 26.9406 34.1084 28.5784 35.1224" fill="#FFE596"/>
<path d="M29.3477 33.522C29.3477 33.522 27.9965 32.993 27.1699 31.4874C26.5108 30.2861 25.186 31.364 25.7701 32.3669C26.3543 33.3699 26.9406 34.1084 28.5784 35.1224" stroke="#7C6656" stroke-width="0.75" stroke-linecap="round" stroke-linejoin="round"/>
<path d="M29.2501 33.6719C29.2501 33.6719 27.9033 35.561 29.8431 36.586C31.7829 37.611 33.2863 36.7315 33.672 35.4309" fill="white"/>
<path d="M29.2501 33.6719C29.2501 33.6719 27.9033 35.561 29.8431 36.586C31.7829 37.611 33.2863 36.7315 33.672 35.4309" stroke="#7C6656" stroke-width="0.75" stroke-linecap="round" stroke-linejoin="round"/>
<path d="M32.621 34.9946C33.5887 35.4046 35.4822 35.6801 36.7321 35.3451C37.982 35.01 39.0312 33.4846 39.6352 30.3148C40.2392 27.1449 37.7946 25.4123 37.7946 25.4123C37.7946 25.4123 35.9319 23.9641 33.4917 24.0853C31.0515 24.2066 29.8193 25.4763 29.0566 27.4602C28.8252 27.7115 27.8222 28.3838 27.5599 29.6535C27.3174 30.8196 27.7627 32.3273 29.3498 33.5199C30.4828 34.373 32.6232 34.9924 32.6232 34.9924L32.621 34.9946Z" fill="white"/>
<g filter="url(#filter0_f_1067_24475)">
<ellipse cx="1.15069" cy="0.704901" rx="1.15069" ry="0.704901" transform="matrix(0.925775 0.378076 -0.376384 0.926464 33.9824 30.7109)" fill="#F5B0B0"/>
</g>
<g filter="url(#filter1_f_1067_24475)">
<ellipse cx="1.15069" cy="0.704901" rx="1.15069" ry="0.704901" transform="matrix(0.925775 0.378076 -0.376384 0.926464 28.3477 28.4336)" fill="#F5B0B0"/>
</g>
<path d="M32.4582 32.2055H32.4494C31.9159 32.1989 31.4001 32.0358 30.9548 31.7316C30.8027 31.628 30.6595 31.5089 30.5316 31.3767C30.234 31.0725 30.2406 30.5831 30.5448 30.2855C30.8512 29.9879 31.3384 29.9946 31.636 30.2987C31.6933 30.3561 31.7572 30.4112 31.8234 30.4575C32.0195 30.5919 32.2356 30.6603 32.4648 30.6625C32.8903 30.6669 33.2319 31.0174 33.2275 31.4428C33.2231 31.866 32.8792 32.2055 32.456 32.2055H32.4582Z" fill="#F299A0" stroke="#7C6656" stroke-width="0.75" stroke-linecap="round" stroke-linejoin="round"/>
<path d="M32.621 34.9946C33.5887 35.4046 35.4822 35.6801 36.7321 35.3451C37.982 35.01 39.0312 33.4846 39.6352 30.3148C40.2392 27.1449 37.7946 25.4123 37.7946 25.4123C37.7946 25.4123 35.9319 23.9641 33.4917 24.0853C31.0515 24.2066 29.8193 25.4763 29.0566 27.4602C28.8252 27.7115 27.8222 28.3838 27.5599 29.6535C27.3174 30.8196 27.7627 32.3273 29.3498 33.5199C30.4828 34.373 32.6232 34.9924 32.6232 34.9924L32.621 34.9946Z" stroke="#7C6656" stroke-width="0.75" stroke-linecap="round" stroke-linejoin="round"/>
<path d="M38.7363 26.0995C38.7363 26.0995 38.9457 24.2986 39.9796 24.7284C40.8547 25.0921 39.2014 26.3839 39.2014 26.3839C39.2014 26.3839 41.0443 25.8945 41.0002 26.8159C40.9473 27.9181 39.402 27.0959 39.402 27.0959" stroke="#7C6656" stroke-width="0.75" stroke-linecap="round" stroke-linejoin="round"/>
<path d="M35.0834 30.8397C35.0834 30.8397 34.9687 29.8852 34.0605 30.3283" stroke="#7C6656" stroke-width="0.75" stroke-linecap="round" stroke-linejoin="round"/>
<path d="M30.0742 28.7552C30.0742 28.7552 30.8369 28.1689 31.1543 29.13" stroke="#7C6656" stroke-width="0.75" stroke-linecap="round" stroke-linejoin="round"/>
<g filter="url(#filter2_f_1067_24475)">
<ellipse cx="1.96141" cy="1.20155" rx="1.96141" ry="1.20155" transform="matrix(0.991309 0.131552 -0.129741 0.991548 23.1035 22.2637)" fill="#F5B0B0"/>
</g>
<g filter="url(#filter3_f_1067_24475)">
<ellipse cx="1.96141" cy="1.20155" rx="1.96141" ry="1.20155" transform="matrix(0.991309 0.131552 -0.129741 0.991548 12.8281 20.9395)" fill="#F5B0B0"/>
</g>
<path d="M25.3721 20.571C25.3721 20.571 24.3933 20.2911 23.5469 21.4417C23.5469 21.4417 24.3889 21.283 24.7923 21.5387" stroke="#7C6656" stroke-width="0.75" stroke-linecap="round" stroke-linejoin="round"/>
<path d="M53.899 38.1656L52.932 38.24H52.7832L53.0064 38.5375L53.6759 38.9838L54.6429 39.1326L55.6099 39.0582L56.2794 38.8351L56.5026 38.4631V37.9424L55.9819 37.4961H55.6843L54.8661 37.868L53.899 38.1656Z" fill="white"/>
<path d="M44.5999 37.9419L45.0463 37.7188L45.567 37.8675L46.6084 38.1651L48.0218 38.3882L47.873 38.6858L47.2779 39.0577L46.3109 39.2065L45.4926 39.1321L44.8231 38.8346L44.4512 38.3139L44.5999 37.9419Z" fill="white"/>
<path d="M44.3785 31.397H44.8992V30.8019H54.9414V27.9751L55.5365 23.9582L55.0902 23.4375H54.7183L50.9989 23.9582H48.4697L45.643 23.8094L44.8992 24.1814L44.1552 24.9253L43.4857 25.6691L42.8906 26.1898L43.0394 27.1569L43.9321 28.4215V28.5702L43.337 29.1653L43.0394 29.8348L43.337 30.7275L44.3785 31.397Z" fill="white"/>
<path d="M59.9776 5.25947C59.9776 5.25947 63.7461 7.17046 62.6787 11.5073C62.2315 13.8319 61.0518 15.2416 61.0518 15.2416C61.0518 15.2416 61.2113 18.8005 59.7933 20.5586C58.3731 22.3167 56.2562 23.1305 55.0967 23.4026C53.2989 23.7825 47.1281 24.792 43.7821 23.1148C41.7933 21.9322 38.7281 20.5001 39.1034 16.7928C39.0787 15.0819 40.1146 13.4655 40.1146 13.4655C40.1146 13.4655 40.4899 11.577 40.0495 11.4331C39.609 11.2892 38.7663 10.1606 38.7484 8.83414C38.7304 7.50769 38.3394 3.84534 44.3034 1.72977C48.5439 0.293162 51.6315 0.039114 55.6405 1.9456C58.1731 2.8921 58.3574 5.12683 58.3574 5.12683C58.3574 5.12683 59.0855 4.75362 59.9754 5.25947H59.9776Z" fill="white"/>
<path d="M45.0968 30.7891H55.0564C55.0564 30.7891 55.0159 35.1776 55.7598 37.4932C54.6968 38.37 52.6856 38.134 52.6856 38.134C52.6856 38.134 51.2586 33.3161 51.2339 33.1991C51.2092 33.0822 48.998 33.098 48.9912 33.116C48.8946 33.9343 48.4789 37.138 48.171 38.3048C47.3935 38.4712 44.6699 37.5854 44.8586 37.6079C45.0474 37.6304 45.8002 35.6497 45.2946 34.0063C44.9305 32.3403 44.7193 30.7441 45.0946 30.7913L45.0968 30.7891Z" fill="#B2ABA4"/>
<g filter="url(#filter4_f_1067_24475)">
<ellipse cx="2.11229" cy="1.29397" rx="2.11229" ry="1.29397" transform="matrix(0.991309 0.131552 -0.129741 0.991548 42.1094 15.5527)" fill="#F5B0B0"/>
</g>
<g filter="url(#filter5_f_1067_24475)">
<ellipse cx="2.11229" cy="1.29397" rx="2.11229" ry="1.29397" transform="matrix(0.991309 0.131552 -0.129741 0.991548 53.416 16.1484)" fill="#F5B0B0"/>
</g>
<path d="M53.5163 16.2652C52.8846 16.2652 52.3725 15.7529 52.3725 15.1209C52.3725 14.4889 52.8846 13.9766 53.5163 13.9766C54.148 13.9766 54.6602 14.4889 54.6602 15.1209C54.6602 15.7529 54.148 16.2652 53.5163 16.2652Z" fill="#7C6656"/>
<path d="M44.5526 14.5329C44.5122 15.1624 44.9886 15.7087 45.6178 15.7492C46.247 15.7896 46.7931 15.313 46.8335 14.6835C46.874 14.054 46.3976 13.5077 45.7684 13.4672C45.1392 13.4268 44.5931 13.9034 44.5526 14.5329Z" fill="#7C6656"/>
<path d="M60.617 11.166C61.7046 16.7686 60.6327 20.2533 58.7675 21.6877C56.8462 23.1647 53.7158 23.9112 51.7473 23.8999L50.0506 23.9336" stroke="#7C6656" stroke-width="0.75" stroke-linecap="round" stroke-linejoin="round"/>
<path d="M40.3916 10.377C40.2095 11.292 40.1444 12.2744 40.1713 13.3176C39.9534 13.9201 38.7489 16.0222 39.2028 18.4053C39.6567 20.7884 42.9039 23.248 45.9983 23.837C46.7242 23.9764 47.477 23.9337 48.459 23.9652" stroke="#7C6656" stroke-width="0.75" stroke-linecap="round" stroke-linejoin="round"/>
<path d="M54.9392 25.8672C54.9392 25.8672 55.0943 31.5574 55.1033 33.6662C55.1122 35.7751 55.6426 37.2319 55.6426 37.2319" stroke="#7C6656" stroke-width="0.75" stroke-linecap="round" stroke-linejoin="round"/>
<path d="M55.8608 37.3854C55.8608 37.3854 56.2271 37.6035 56.3642 37.9542C56.5687 38.4803 56.272 39.2312 54.7866 39.2537C53.3012 39.2762 52.4743 38.4421 52.1327 36.9785C51.7911 35.5149 51.2113 33.0778 51.2113 33.0778C51.2113 33.0778 48.6361 33.2869 48.0563 32.9609" stroke="#7C6656" stroke-width="0.75" stroke-linecap="round" stroke-linejoin="round"/>
<path d="M48.9902 33.1309C48.9902 33.1309 48.4756 37.9938 48.0576 38.5513C47.6397 39.1089 46.5633 39.3382 45.7048 39.246C44.8464 39.1538 44.3767 38.603 44.561 38.2073C44.7475 37.8116 45.0509 37.6273 45.0509 37.6273" stroke="#7C6656" stroke-width="0.75" stroke-linecap="round" stroke-linejoin="round"/>
<path d="M45.457 25.1855C45.457 25.1855 44.5986 27.7867 44.8773 30.8038C45.1559 33.8209 45.7492 35.0687 45.1402 37.4383" stroke="#7C6656" stroke-width="0.75" stroke-linecap="round" stroke-linejoin="round"/>
<path d="M45.2179 30.8422L54.8809 30.7793" stroke="#7C6656" stroke-width="0.75" stroke-linecap="round" stroke-linejoin="round"/>
<path d="M52.6883 38.1331C52.6883 38.1331 54.9557 38.4411 55.8613 37.3867" stroke="#7C6656" stroke-width="0.75" stroke-linecap="round" stroke-linejoin="round"/>
<path d="M45.0499 37.6289C45.0499 37.6289 46.6724 38.6339 48.1758 38.3011" stroke="#7C6656" stroke-width="0.75" stroke-linecap="round" stroke-linejoin="round"/>
<path d="M50.2191 25.4727L50.5449 29.1642L49.5022 30.1579L48.4618 29.1642L48.7876 25.4727H50.2191Z" fill="#82AEDD" stroke="#7C6656" stroke-width="0.75" stroke-linecap="round" stroke-linejoin="round"/>
<path d="M50.4191 24.1582L50.5449 25.361L49.7314 25.8309C49.5899 25.9118 49.4146 25.9118 49.273 25.8309L48.4595 25.361L48.5854 24.1582H50.4168H50.4191Z" fill="#82AEDD" stroke="#7C6656" stroke-width="0.75" stroke-linecap="round" stroke-linejoin="round"/>
<path d="M39.6086 11.2886C35.5929 4.04706 45.7255 -0.172841 51.7457 0.735438C57.957 1.67294 58.357 5.12396 58.357 5.12396C58.357 5.12396 60.9143 4.40678 62.4064 7.92074C63.8356 11.2886 61.0514 15.6906 61.0514 15.6906" stroke="#7C6656" stroke-width="0.75" stroke-linecap="round" stroke-linejoin="round"/>
<path d="M57.3216 8.72656C57.3216 8.72656 56.7441 11.0602 59.625 13.0229" stroke="#7C6656" stroke-width="0.75" stroke-linecap="round" stroke-linejoin="round"/>
<path d="M55.1934 7.09827C55.1934 7.09827 51.3259 6.35636 51.7462 10.8618" stroke="#7C6656" stroke-width="0.75" stroke-linecap="round" stroke-linejoin="round"/>
<path d="M48.7754 6.63086C48.7754 6.63086 45.9057 7.65155 46.8473 10.862" stroke="#7C6656" stroke-width="0.75" stroke-linecap="round" stroke-linejoin="round"/>
<path d="M44.1719 6.63086C44.1719 6.63086 41.7359 7.73923 42.5606 10.862" stroke="#7C6656" stroke-width="0.75" stroke-linecap="round" stroke-linejoin="round"/>
<path d="M45.4023 24.0117C45.4023 24.0117 43.0563 25.527 42.9439 26.3948C42.8338 27.2626 44.3282 28.8476 44.3282 28.8476" stroke="#7C6656" stroke-width="0.75" stroke-linecap="round" stroke-linejoin="round"/>
<path d="M43.9339 28.6445C43.9339 28.6445 42.4171 29.5506 43.5047 30.8995C44.1721 31.7268 45.0508 31.3244 45.0508 31.3244" stroke="#7C6656" stroke-width="0.75" stroke-linecap="round" stroke-linejoin="round"/>
<path d="M55.3316 23.7578C55.3316 23.7578 58.3586 26.7907 59.1991 29.6279C59.1991 29.6279 60.5654 30.5384 59.671 31.73C59.026 32.5888 57.3361 32.8811 56.7699 31.5456C56.489 30.8824 56.88 30.3653 56.88 30.3653C56.88 30.3653 56.0193 28.7264 55.2889 27.962" fill="white"/>
<path d="M55.3316 23.7578C55.3316 23.7578 58.3586 26.7907 59.1991 29.6279C59.1991 29.6279 60.5654 30.5384 59.671 31.73C59.026 32.5888 57.3361 32.8811 56.7699 31.5456C56.489 30.8824 56.88 30.3653 56.88 30.3653C56.88 30.3653 56.0193 28.7264 55.289 27.962" stroke="#7C6656" stroke-width="0.75" stroke-linecap="round" stroke-linejoin="round"/>
<path d="M59.1172 29.3672C59.1172 29.3672 58.6138 30.4149 57.1149 30.3969" stroke="#7C6656" stroke-width="0.75" stroke-linecap="round" stroke-linejoin="round"/>
<path d="M47.1142 16.791L51.1906 17.2227C51.1906 17.2227 51.5928 21.3841 48.6355 20.9884C46.3142 20.6782 46.7771 18.8212 47.1142 16.791Z" fill="#F299A0" stroke="#7C6656" stroke-width="0.75" stroke-linecap="round" stroke-linejoin="round"/>
<defs>
<filter id="filter0_f_1067_24475" x="32.9604" y="30.2905" width="3.64369" height="3.01674" filterUnits="userSpaceOnUse" color-interpolation-filters="sRGB">
<feFlood flood-opacity="0" result="BackgroundImageFix"/>
<feBlend mode="normal" in="SourceGraphic" in2="BackgroundImageFix" result="shape"/>
<feGaussianBlur stdDeviation="0.361607" result="effect1_foregroundBlur_1067_24475"/>
</filter>
<filter id="filter1_f_1067_24475" x="27.3256" y="28.0131" width="3.64369" height="3.01674" filterUnits="userSpaceOnUse" color-interpolation-filters="sRGB">
<feFlood flood-opacity="0" result="BackgroundImageFix"/>
<feBlend mode="normal" in="SourceGraphic" in2="BackgroundImageFix" result="shape"/>
<feGaussianBlur stdDeviation="0.361607" result="effect1_foregroundBlur_1067_24475"/>
</filter>
<filter id="filter2_f_1067_24475" x="21.9771" y="21.5299" width="5.82896" height="4.36607" filterUnits="userSpaceOnUse" color-interpolation-filters="sRGB">
<feFlood flood-opacity="0" result="BackgroundImageFix"/>
<feBlend mode="normal" in="SourceGraphic" in2="BackgroundImageFix" result="shape"/>
<feGaussianBlur stdDeviation="0.482143" result="effect1_foregroundBlur_1067_24475"/>
</filter>
<filter id="filter3_f_1067_24475" x="11.7017" y="20.2056" width="5.82896" height="4.36607" filterUnits="userSpaceOnUse" color-interpolation-filters="sRGB">
<feFlood flood-opacity="0" result="BackgroundImageFix"/>
<feBlend mode="normal" in="SourceGraphic" in2="BackgroundImageFix" result="shape"/>
<feGaussianBlur stdDeviation="0.482143" result="effect1_foregroundBlur_1067_24475"/>
</filter>
<filter id="filter4_f_1067_24475" x="40.8971" y="14.7623" width="6.27809" height="4.70192" filterUnits="userSpaceOnUse" color-interpolation-filters="sRGB">
<feFlood flood-opacity="0" result="BackgroundImageFix"/>
<feBlend mode="normal" in="SourceGraphic" in2="BackgroundImageFix" result="shape"/>
<feGaussianBlur stdDeviation="0.519231" result="effect1_foregroundBlur_1067_24475"/>
</filter>
<filter id="filter5_f_1067_24475" x="52.2037" y="15.358" width="6.27809" height="4.70192" filterUnits="userSpaceOnUse" color-interpolation-filters="sRGB">
<feFlood flood-opacity="0" result="BackgroundImageFix"/>
<feBlend mode="normal" in="SourceGraphic" in2="BackgroundImageFix" result="shape"/>
<feGaussianBlur stdDeviation="0.519231" result="effect1_foregroundBlur_1067_24475"/>
</filter>
</defs>
</svg>
