<svg width="54" height="49" viewBox="0 0 54 49" fill="none" xmlns="http://www.w3.org/2000/svg">
<path d="M47.145 41.9206C47.145 41.9206 44.9702 37.3965 37.2019 34.4708C29.4335 31.5452 22.4863 28.7393 19.5393 22.3161C16.5922 15.8928 18.3981 11.8209 14.2512 9.26915C10.0091 6.65635 7.68273 12.8523 7.81958 17.655C7.82935 19.0238 6.78592 18.9749 5.80602 17.044C4.82857 15.1131 1.67139 13.7053 0.444685 19.2022C-0.78202 24.6991 0.29318 32.7893 6.66618 38.7677C13.0416 44.7485 26.1371 43.2551 32.251 44.5725C38.365 45.8899 41.9645 47.7084 44.9237 46.8798C47.883 46.0512 48.2666 43.5338 47.145 41.9182V41.9206Z" fill="#B4D6F2"/>
<path d="M3.92855 32.2144C3.92855 32.2144 1.35296 26.0087 3.17591 21.3746C4.99886 16.7405 9.36564 22.6089 9.92767 23.2346C10.4897 23.8603 13.967 29.1103 20.2838 31.3418C26.5982 33.5733 33.7336 35.0569 36.6928 36.4159C39.6521 37.7748 44.4978 40.0112 45.0452 44.0661C45.595 48.1234 36.7001 44.9118 35.7178 44.55C34.7355 44.1883 30.3198 43.4868 27.0893 43.2302C23.8588 42.9736 16.1076 42.9638 11.9266 40.6638C7.74551 38.3614 5.53157 36.1495 3.92855 32.212V32.2144Z" fill="#75ACDE"/>
<path d="M9.32341 20.6094C12.9351 28.2059 22.7121 31.4737 22.7121 31.4737C13.6242 26.5683 11.1073 20.1964 10.8702 19.3385C10.8702 19.3385 10.5403 18.4928 9.82436 18.6712C8.9422 18.8912 9.08882 20.1133 9.32586 20.6119L9.32341 20.6094Z" fill="#75ACDE"/>
<path d="M25.3395 31.8578C25.3395 31.8578 18.7979 29.1716 15.5528 24.5962C12.3076 20.0207 11.4695 15.3524 11.5843 13.4753C11.6992 11.5982 13.4024 11.1142 13.9449 11.168C14.4898 11.2218 15.7336 11.6935 16.3983 15.0493C17.0629 18.4051 16.9921 21.9418 18.9054 25.0092C20.8212 28.0767 24.0077 31.0781 25.3371 31.8578H25.3395Z" fill="#75ACDE"/>
<path d="M14.5464 42.1738C14.2092 42.081 6.24536 39.8323 4.95023 34.6923C4.05586 31.1434 5.12373 28.9021 5.83971 27.8829C6.49705 26.9492 7.36454 26.321 8.10741 26.2477C8.42264 26.2159 8.74275 26.2233 9.06287 26.2722C10.5388 26.4872 12.9873 27.6824 12.8212 33.2502C12.6501 38.9867 16.0957 42.3034 16.1201 42.3278L14.5464 42.1763V42.1738Z" fill="#B4D6F2"/>
<path d="M14.6801 41.6956C14.6801 41.6956 12.1436 39.3101 12.3269 33.2363C12.5077 27.1626 9.48497 26.6127 8.16052 26.7447C6.83363 26.8767 4.19694 29.6532 5.43587 34.5733C6.67479 39.4934 14.6801 41.698 14.6801 41.698V41.6956Z" fill="#75ACDE"/>
<path d="M22.8009 31.3074C22.8009 31.3074 45.4925 37.5204 48.2025 39.1873C50.9125 40.8567 52.8356 44.1392 52.9994 44.8455C52.2394 46.0407 49.9644 47.2286 47.897 47.671C44.8449 48.3236 40.9571 47.9423 35.9159 47.0746C31.2559 46.2705 16.6161 40.7076 15.9098 40.1772C15.2036 39.6444 15.0399 39.0969 15.0961 38.7669C15.1499 38.437 18.571 36.3399 21.8308 36.2201C21.8308 36.2201 21.2883 32.0968 21.4496 31.6275C21.6133 31.1583 22.1216 31.124 22.8009 31.3074Z" fill="#CAD1F1" stroke="#7C6656" stroke-width="0.75" stroke-linecap="round" stroke-linejoin="round"/>
<path d="M15.0977 38.7646C15.0977 38.7646 27.2841 43.5479 32.7945 45.271C32.7945 45.271 40.6019 47.3241 44.8465 47.1432C49.0911 46.9623 50.9018 46.0213 52.7468 45.0803" stroke="#7C6656" stroke-width="0.75" stroke-linecap="round" stroke-linejoin="round"/>
<path d="M21.832 36.2178L53.0006 44.8456" stroke="#7C6656" stroke-width="0.75" stroke-linecap="round" stroke-linejoin="round"/>
<path d="M32.1778 30.1855C32.1778 30.1855 30.4257 32.9988 30.7776 36.4646C30.7776 36.4646 29.7268 36.863 29.8734 37.7331C30.0054 38.5299 31.7843 39.4049 33.5877 38.5006C33.8785 38.3564 34.074 38.0728 34.0985 37.7478C34.1742 36.7408 33.3556 34.0938 35.2445 32.615" fill="white"/>
<path d="M37.7109 32.666C37.7109 32.666 37.9553 35.5599 39.3237 39.6025C39.3237 39.6025 38.3243 40.1329 38.6713 40.9444C38.989 41.6874 40.9268 42.1127 42.4614 40.8075C42.7082 40.5973 42.8328 40.2747 42.779 39.9545C42.6129 38.9573 41.3593 36.6451 41.3593 33.6339" fill="white"/>
<path d="M32.1778 30.1855C32.1778 30.1855 30.4525 31.8842 30.7776 36.4646C30.7776 36.4646 29.7268 36.863 29.8734 37.7331C30.0054 38.5299 31.7843 39.4049 33.5877 38.5006C33.8785 38.3564 34.074 38.0728 34.0985 37.7478C34.1742 36.7408 33.3556 34.0938 35.2445 32.615" stroke="#7C6656" stroke-width="0.75" stroke-linecap="round" stroke-linejoin="round"/>
<path d="M37.7097 32.666C37.7097 32.666 37.5899 35.2593 38.9584 39.3019C38.9584 39.3019 38.323 40.1354 38.67 40.9444C38.9877 41.6874 40.9255 42.1127 42.4601 40.8075C42.7069 40.5973 42.8315 40.2747 42.7778 39.9545C42.6116 38.9573 41.358 36.6451 41.358 33.6339" stroke="#7C6656" stroke-width="0.75" stroke-linecap="round" stroke-linejoin="round"/>
<path d="M32.7323 28.1035C32.7323 28.1035 31.0144 30.2788 30.7773 31.0903C32.5319 32.3246 33.524 33.3584 35.4716 33.5075C35.6255 33.1311 36.0067 32.3539 36.0067 32.3539L36.4124 32.5568L36.5688 34.0697C36.5688 34.0697 37.9665 34.9349 39.7577 34.6392C41.5489 34.3434 42.4506 34.0428 42.4506 34.0428L42.4433 32.4321C42.4433 32.4321 43.2985 31.4813 43.3987 30.7041C38.9318 30.0197 32.7323 28.106 32.7323 28.106V28.1035Z" fill="#A7A4DF"/>
<path d="M32.5847 28.1348C32.5847 28.1348 30.9767 30.3834 30.7812 31.0873C30.7812 31.0873 33.6476 33.4215 35.4755 33.5046C35.4755 33.5046 35.7296 32.83 36.0106 32.3509" stroke="#7C6656" stroke-width="0.75" stroke-linecap="round" stroke-linejoin="round"/>
<path d="M35.2422 31.8745C35.2422 31.8745 36.2025 32.4659 36.5666 32.6346C36.5666 32.6346 36.4811 33.7882 36.5666 34.0693C36.5666 34.0693 38.7732 35.4478 42.4485 34.04C42.4485 34.04 42.3581 32.6541 42.4411 32.4293C42.5267 32.2044 43.509 31.872 43.3966 30.1855" stroke="#7C6656" stroke-width="0.75" stroke-linecap="round" stroke-linejoin="round"/>
<path d="M35.5038 22.435C32.3148 20.3917 27.0415 20.0642 25.9296 19.9297C24.8177 19.7953 21.3869 19.9224 21.3673 21.5258C21.3478 23.1291 23.3418 23.3393 23.3418 23.3393C23.3418 23.3393 23.0974 24.0139 23.9307 24.1288C24.764 24.2437 25.6584 23.0509 25.6584 23.0509C25.6584 23.0509 30.7729 23.2709 33.3363 25.3998" fill="white"/>
<path d="M35.5038 22.435C32.3148 20.3917 27.0415 20.0642 25.9296 19.9297C24.8177 19.7953 21.3869 19.9224 21.3673 21.5258C21.3478 23.1291 23.3418 23.3393 23.3418 23.3393C23.3418 23.3393 23.0974 24.0139 23.9307 24.1288C24.764 24.2437 25.6584 23.0509 25.6584 23.0509C25.6584 23.0509 30.7729 23.2709 33.3363 25.3998" stroke="#7C6656" stroke-width="0.75" stroke-linecap="round" stroke-linejoin="round"/>
<path d="M31.2007 20.7393C31.2007 20.7393 30.6288 21.6705 31.2374 24.2051" stroke="#7C6656" stroke-width="0.75" stroke-linecap="round" stroke-linejoin="round"/>
<path d="M32.4728 22.6455C32.4728 22.6455 32.3653 25.8791 32.5266 26.6295C32.2114 27.1696 31.5027 28.3893 31.7031 28.7583C31.901 29.1274 33.6165 31.2049 38.5111 31.7084C41.3921 31.9675 44.322 31.8013 44.1803 30.1882C44.0386 28.575 43.8406 25.1117 43.8944 23.7503" fill="white"/>
<path d="M32.4717 22.6455C32.4717 22.6455 32.2028 26.2433 32.7552 27.5729" stroke="#7C6656" stroke-width="0.75" stroke-linecap="round" stroke-linejoin="round"/>
<path d="M32.475 26.7813C32.475 26.7813 31.3729 28.3553 31.5122 28.6926C31.649 29.0299 34.0951 31.3079 38.6476 31.7209C43.2661 32.1413 43.9992 30.9241 44.1629 30.3278C44.3266 29.7314 43.4738 26.2582 44.0847 23.2666" stroke="#7C6656" stroke-width="0.75" stroke-linecap="round" stroke-linejoin="round"/>
<path d="M43.6358 24.1562C48.6062 24.8211 49.3393 29.1594 49.3393 29.1594C49.3393 29.1594 51.5508 29.1301 50.693 31.5743C49.9868 33.5882 47.6507 33.2167 46.9787 32.5079C46.3067 31.8016 46.2603 30.9901 46.9298 30.0442C46.9298 30.0442 46.6048 27.5707 43.0078 27.0624" fill="white"/>
<path d="M43.6361 24.1562C48.6065 24.8211 49.3396 29.1594 49.3396 29.1594C49.3396 29.1594 51.8028 29.8414 50.5174 32.09C49.667 33.5834 47.651 33.1361 46.979 32.4273C46.307 31.7209 46.4854 30.7579 46.9301 30.0442C46.9301 30.0442 46.0431 27.4265 43.8536 27.1406C43.0765 26.9915 42.6758 27.0941 42.6758 27.0941" stroke="#7C6656" stroke-width="0.75" stroke-linecap="round" stroke-linejoin="round"/>
<path d="M44.6172 27.1258C44.6172 27.1258 45.0547 26.7323 45.5655 24.6621" stroke="#7C6656" stroke-width="0.75" stroke-linecap="round" stroke-linejoin="round"/>
<path d="M41.2869 23.8092C41.2869 23.8092 40.2923 25.789 37.7045 25.217C35.1167 24.6451 35.1094 23.2666 35.1094 23.2666" stroke="#7C6656" stroke-width="0.75" stroke-linecap="round" stroke-linejoin="round"/>
<path d="M51.4025 7.2379C51.4025 7.2379 53.2694 11.0703 50.0927 13.1185C50.0267 13.4069 49.9754 13.7296 49.9754 13.7296C49.9754 13.7296 51.6126 17.0243 50.1587 20.2604C48.7047 23.4964 43.7075 25.0167 37.139 24.0024C33.8596 23.3204 30.5852 22.6263 28.1269 19.2851C27.0297 17.6182 27.6357 13.0916 27.6357 13.0916C27.6357 13.0916 26.9197 10.3053 27.5575 6.81995C28.1953 3.33458 31.7605 1.72388 34.9788 1.3597C37.1023 0.707115 41.237 -0.969575 48.2966 3.535C50.491 5.27768 51.4 7.23545 51.4 7.23545L51.4025 7.2379Z" fill="white"/>
<path d="M50.1433 11.4932C50.2923 12.2948 50.0211 13.3263 49.9771 13.7296C50.1579 14.4017 51.3407 16.5575 50.6271 19.0994C49.916 21.6389 47.4919 23.6675 42.8564 24.2565C42.8564 24.2565 40.1464 24.4594 39.2031 24.2908" stroke="#7C6656" stroke-width="0.75" stroke-linecap="round" stroke-linejoin="round"/>
<path d="M37.3342 24.0219C34.2894 23.7457 31.1762 22.3844 29.2091 20.3361C27.5767 18.635 26.8949 16.9094 27.694 12.7666" stroke="#7C6656" stroke-width="0.75" stroke-linecap="round" stroke-linejoin="round"/>
<g filter="url(#filter0_f_323_6212)">
<ellipse cx="2.09049" cy="1.22198" rx="2.09049" ry="1.22198" transform="matrix(0.995006 0.0998155 -0.10166 0.994819 44.5273 16.2598)" fill="#F5B0B0"/>
</g>
<g filter="url(#filter1_f_323_6212)">
<ellipse cx="2.09049" cy="1.22198" rx="2.09049" ry="1.22198" transform="matrix(0.995006 0.0998155 -0.10166 0.994819 33.0078 15.4434)" fill="#F5B0B0"/>
</g>
<path d="M37.9668 14.304C37.9082 14.9883 37.307 15.4967 36.6228 15.4381C35.9386 15.3794 35.4303 14.7781 35.489 14.0938C35.5476 13.4094 36.1488 12.901 36.833 12.9597C37.5172 13.0183 38.0255 13.6196 37.9668 14.304Z" fill="#7C6656"/>
<path d="M46.459 15.0266C46.4004 15.711 45.7992 16.2194 45.115 16.1607C44.4308 16.1021 43.9225 15.5008 43.9812 14.8164C44.0398 14.1321 44.641 13.6237 45.3252 13.6823C46.0094 13.741 46.5177 14.3423 46.459 15.0266Z" fill="#7C6656"/>
<path d="M43.8233 18.419C43.8233 18.419 42.6454 19.6362 40.7296 19.4725C38.8138 19.3087 37.9219 17.918 37.9219 17.918" stroke="#7C6656" stroke-width="0.75" stroke-linecap="round" stroke-linejoin="round"/>
<path d="M27.4925 12.7491C25.2786 1.73578 34.9822 1.35938 34.9822 1.35938C41.7927 -1.54183 48.7155 3.83287 48.7155 3.83287C48.7155 3.83287 53.7982 7.58709 51.1054 12.3263" stroke="#7C6656" stroke-width="0.75" stroke-linecap="round" stroke-linejoin="round"/>
<path d="M35.5913 4.625C35.5913 4.625 34.8314 8.02238 40.2318 10.3443" stroke="#7C6656" stroke-width="0.75" stroke-linecap="round" stroke-linejoin="round"/>
<path d="M34.1904 6.54297C34.1904 6.54297 30.85 8.21722 29.8945 11.4533" stroke="#7C6656" stroke-width="0.75" stroke-linecap="round" stroke-linejoin="round"/>
<path d="M46.1446 10.9158C46.1446 10.9158 42.3496 9.47623 41.2891 5.86133" stroke="#7C6656" stroke-width="0.75" stroke-linecap="round" stroke-linejoin="round"/>
<path d="M39.841 3.05576C39.841 3.05576 38.2917 3.90388 38.5532 5.15529C38.7535 6.11584 39.2863 6.47757 41.0041 7.11305C42.7196 7.74853 45.5053 5.86409 46.7687 3.69857C45.4491 2.71357 43.0812 0.814466 39.841 3.05576Z" fill="#1AAF92"/>
<path d="M39.1767 6.14808C39.1767 6.14808 43.1525 9.86564 46.8253 3.60616C46.8253 3.60616 42.8935 -0.0160787 38.7148 3.95812" stroke="#7C6656" stroke-width="0.75" stroke-linecap="round" stroke-linejoin="round"/>
<path d="M42.8931 4.5104C42.9029 4.56417 39.6382 6.08444 37.5 4.38086" stroke="#7C6656" stroke-width="0.75" stroke-linecap="round" stroke-linejoin="round"/>
<defs>
<filter id="filter0_f_323_6212" x="43.6484" y="15.7002" width="5.66797" height="3.96777" filterUnits="userSpaceOnUse" color-interpolation-filters="sRGB">
<feFlood flood-opacity="0" result="BackgroundImageFix"/>
<feBlend mode="normal" in="SourceGraphic" in2="BackgroundImageFix" result="shape"/>
<feGaussianBlur stdDeviation="0.375" result="effect1_foregroundBlur_323_6212"/>
</filter>
<filter id="filter1_f_323_6212" x="32.1289" y="14.8838" width="5.66797" height="3.96777" filterUnits="userSpaceOnUse" color-interpolation-filters="sRGB">
<feFlood flood-opacity="0" result="BackgroundImageFix"/>
<feBlend mode="normal" in="SourceGraphic" in2="BackgroundImageFix" result="shape"/>
<feGaussianBlur stdDeviation="0.375" result="effect1_foregroundBlur_323_6212"/>
</filter>
</defs>
</svg>
