<svg width="37" height="44" viewBox="0 0 37 44" fill="none" xmlns="http://www.w3.org/2000/svg">
<path d="M14.5137 25.2758L13.3325 24.7508L20.945 19.8945H30.6576L33.2826 21.4695L32.3638 22.9133L31.3138 23.8321L30.1326 24.6196L28.9513 25.1446L27.9013 25.4071L28.6888 28.2946L29.2138 30.5258L29.3451 32.6259V34.0696L28.5576 34.4634L27.77 34.7259L27.5075 35.7759L26.72 38.2696V38.9259L27.5075 40.2384L27.9013 41.1572L28.0325 41.9447L27.6388 42.9947L26.195 43.5197H24.8825L23.9638 43.1259L23.57 42.4697L23.7013 41.6822L24.2263 41.3894L23.1763 39.9759L22.7825 38.7946L22.9138 37.2196L23.1763 36.0384H20.945L20.5513 35.7759L19.895 38.7946L20.945 40.6322L21.0763 41.3894V42.2072L20.1575 42.9947L18.9762 43.2572H18.0575L17.0075 42.7322L16.745 42.0759L16.8762 41.3894L17.27 40.8947L15.9575 38.6634V38.0071L16.22 36.8259L16.8762 34.7259L15.4325 34.2009L16.3512 31.1821H15.8262L15.0387 30.9196L14.2512 30.0008L12.545 29.8696L10.9699 29.2133L10.7074 29.3446L9.52619 29.7383L8.21368 29.2133L7.55742 28.5571L7.29492 27.3758V26.4571L7.81993 25.5383L8.60743 25.0133L9.52619 24.6196L10.5762 24.8821L11.6262 25.5383L12.02 26.5883L12.9387 26.9821H17.5325L18.1887 26.0633L16.6137 25.8008L14.5137 25.2758Z" fill="white"/>
<path d="M9.3235 5.77268L10.9169 7.69157C10.9169 7.69157 9.95087 10.5056 9.92987 13.8472C9.42587 15.207 7.75374 18.6825 10.3945 22.4625C11.6125 24.3473 15.4792 26.0536 19.2854 26.3161C21.0468 26.5261 24.1758 26.0982 24.1758 26.0982C24.1758 26.0982 28.5675 25.8961 31.4918 23.7225C32.5811 22.4862 34.5053 20.5988 34.2716 15.48C35.0355 14.6216 36.9833 12.1515 34.8229 7.86745C33.2531 5.58631 30.3682 4.59143 30.3682 4.59143C30.3682 4.59143 29.733 2.34704 24.9633 0.82978C20.1963 -0.68748 15.5448 1.37053 13.6285 2.45204C11.7123 3.53355 10.7804 5.49706 9.32612 5.77268H9.3235Z" fill="white"/>
<g filter="url(#filter0_f_1067_25314)">
<ellipse cx="2.34179" cy="1.36888" rx="2.34179" ry="1.36888" transform="matrix(0.999919 0.0127376 -0.0145912 0.999894 25.0898 17.3438)" fill="#F5B0B0"/>
</g>
<g filter="url(#filter1_f_1067_25314)">
<ellipse cx="2.34179" cy="1.36888" rx="2.34179" ry="1.36888" transform="matrix(0.999919 0.0127376 -0.0145912 0.999894 12.0586 17.1387)" fill="#F5B0B0"/>
</g>
<path d="M11.5206 7.04688C10.2816 8.95001 9.85895 11.2338 9.92982 13.8483C9.6752 14.5518 8.59107 16.7516 9.12394 19.5341C9.6542 22.3166 11.9563 24.9075 16.8651 25.9601C16.8651 25.9601 18.1435 26.2515 19.3694 26.2515" stroke="#7C6656" stroke-width="0.75" stroke-linecap="round" stroke-linejoin="round"/>
<path d="M22.4414 26.2512C25.6124 26.1357 29.2481 25.4506 31.4925 23.7259C33.2407 22.3819 34.4719 19.4472 34.254 14.9531" stroke="#7C6656" stroke-width="0.75" stroke-linecap="round" stroke-linejoin="round"/>
<path d="M29.1094 6.18359C29.1094 6.18359 29.1592 8.66423 32.2384 9.54886" stroke="#7C6656" stroke-width="0.75" stroke-linecap="round" stroke-linejoin="round"/>
<path d="M27.701 6.26974C27.701 6.26974 26.7166 3.72872 23.3828 3.29297" stroke="#7C6656" stroke-width="0.75" stroke-linecap="round" stroke-linejoin="round"/>
<path d="M25.4226 6.40714C25.4226 6.40714 25.0472 4.46463 22.627 4.32812" stroke="#7C6656" stroke-width="0.75" stroke-linecap="round" stroke-linejoin="round"/>
<path d="M30.543 4.59375C30.543 4.59375 34.9897 6.11888 35.6381 9.95403C36.2865 13.7918 34.4989 15.3143 34.4989 15.3143" stroke="#7C6656" stroke-width="0.75" stroke-linecap="round" stroke-linejoin="round"/>
<path d="M30.3651 4.59507C30.3651 4.59507 29.1261 0.964677 22.5136 0.463299C15.9012 -0.0380791 12.746 2.88356 11.1499 4.59507C11.1499 4.59507 10.3519 5.42195 9.32031 5.77633L10.9137 7.69522" stroke="#7C6656" stroke-width="0.75" stroke-linecap="round" stroke-linejoin="round"/>
<path d="M23.3822 3.17969C23.3822 3.17969 21.3295 6.59746 17.2266 7.99397" stroke="#7C6656" stroke-width="0.75" stroke-linecap="round" stroke-linejoin="round"/>
<path d="M19.44 4.16406C19.44 4.16406 16.1062 7.36396 11.502 7.61071" stroke="#7C6656" stroke-width="0.75" stroke-linecap="round" stroke-linejoin="round"/>
<path d="M31.3516 10.1523C31.3516 10.1523 31.4461 13.2184 33.8637 14.2369" stroke="#7C6656" stroke-width="0.75" stroke-linecap="round" stroke-linejoin="round"/>
<path d="M14.4141 15.586C14.4141 16.4077 15.0808 17.0744 15.9024 17.0744C16.7241 17.0744 17.3908 16.4077 17.3908 15.586C17.3908 14.7644 16.7241 14.0977 15.9024 14.0977C15.0808 14.0977 14.4141 14.7644 14.4141 15.586Z" fill="#7C6656"/>
<path d="M17.2344 19.6055C17.2344 19.6055 18.3841 21.0151 20.45 21.0151C22.5159 21.0151 23.5948 19.6055 23.5948 19.6055" stroke="#7C6656" stroke-width="0.75" stroke-linecap="round" stroke-linejoin="round"/>
<path d="M23.8691 18.625C23.8691 18.625 24.3574 19.1658 24.6278 19.8168" stroke="#7C6656" stroke-width="0.75" stroke-linecap="round" stroke-linejoin="round"/>
<path d="M16.9803 15.4695C16.45 15.4695 16.0169 15.0364 16.0169 14.5061C16.0169 14.4431 15.9644 14.3906 15.9014 14.3906C15.8384 14.3906 15.7859 14.4431 15.7859 14.5061C15.7859 15.0364 15.3528 15.4695 14.8225 15.4695C14.7595 15.4695 14.707 15.522 14.707 15.585C14.707 15.648 14.7595 15.7005 14.8225 15.7005C15.3528 15.7005 15.7859 16.1336 15.7859 16.6639C15.7859 16.7269 15.8384 16.7794 15.9014 16.7794C15.9644 16.7794 16.0169 16.7269 16.0169 16.6639C16.0169 16.1336 16.45 15.7005 16.9803 15.7005C17.0433 15.7005 17.0958 15.648 17.0958 15.585C17.0958 15.522 17.0433 15.4695 16.9803 15.4695Z" fill="white"/>
<path d="M23.5703 15.586C23.5703 16.4077 24.2371 17.0744 25.0587 17.0744C25.8803 17.0744 26.5471 16.4077 26.5471 15.586C26.5471 14.7644 25.8803 14.0977 25.0587 14.0977C24.2371 14.0977 23.5703 14.7644 23.5703 15.586Z" fill="#7C6656"/>
<path d="M26.1033 15.4695C25.5731 15.4695 25.14 15.0364 25.14 14.5061C25.14 14.4431 25.0875 14.3906 25.0245 14.3906C24.9615 14.3906 24.909 14.4431 24.909 14.5061C24.909 15.0364 24.4758 15.4695 23.9456 15.4695C23.8826 15.4695 23.8301 15.522 23.8301 15.585C23.8301 15.648 23.8826 15.7005 23.9456 15.7005C24.4758 15.7005 24.909 16.1336 24.909 16.6639C24.909 16.7269 24.9615 16.7794 25.0245 16.7794C25.0875 16.7794 25.14 16.7269 25.14 16.6639C25.14 16.1336 25.5731 15.7005 26.1033 15.7005C26.1663 15.7005 26.2188 15.648 26.2188 15.585C26.2188 15.522 26.1663 15.4695 26.1033 15.4695Z" fill="white"/>
<path d="M27 16.3223H27.6431" stroke="#7C6656" stroke-width="0.75" stroke-linecap="round" stroke-linejoin="round"/>
<path d="M27.8325 32.0664C27.8325 32.0664 27.9795 34.4079 27.3941 36.1641C26.8087 37.9202 26.7221 38.4767 26.7221 38.8862C26.7221 39.2957 27.7511 40.6712 27.8509 41.1096C27.9506 41.548 28.4782 43.1886 26.079 43.5377C23.6377 43.7425 23.2098 42.2803 23.9711 41.5768" stroke="#7C6656" stroke-width="0.75" stroke-linecap="round" stroke-linejoin="round"/>
<path d="M24.3483 41.4951C24.3483 41.4951 22.768 39.8571 22.8258 38.5393C22.8835 37.2215 23.2353 36.0508 23.2353 36.0508" stroke="#7C6656" stroke-width="0.75" stroke-linecap="round" stroke-linejoin="round"/>
<path d="M20.525 35.8691C19.9396 37.6253 19.853 38.1818 19.853 38.5913C19.853 39.0008 20.882 40.3763 20.9817 40.8147C21.0815 41.253 21.6091 42.8937 19.2098 43.2428C16.7686 43.4476 16.3407 41.8358 17.1019 41.1323" stroke="#7C6656" stroke-width="0.75" stroke-linecap="round" stroke-linejoin="round"/>
<path d="M17.4791 41.0481C17.4791 41.0481 15.8989 39.4101 15.9566 38.0923C16.0144 36.7746 16.983 34.1758 16.983 34.1758" stroke="#7C6656" stroke-width="0.75" stroke-linecap="round" stroke-linejoin="round"/>
<path d="M27.777 25.4688C27.777 25.4688 26.874 25.9071 25.0785 26.0594C24.627 26.0988 23.0441 26.2326 23.0441 26.2326L20.6029 30.6978L18.8284 26.2536L17.1982 26.1408C17.1982 26.1408 17.2455 29.3669 15.3555 34.2127L19.9046 35.6197L21.0964 33.7244L22.1805 35.6197C22.1805 35.6197 27.2205 35.2417 29.3888 34.0499C29.3888 34.0499 29.6933 29.548 27.777 25.4714V25.4688Z" fill="#7C9AC0" stroke="#7C6656" stroke-width="0.75" stroke-linecap="round" stroke-linejoin="round"/>
<path d="M24.0125 26.1484L24.4378 27.3717L20.957 30.8708" stroke="#7C6656" stroke-width="0.75" stroke-linecap="round" stroke-linejoin="round"/>
<path d="M18.1648 26.1641L17.5742 27.5789L20.5589 30.9705" stroke="#7C6656" stroke-width="0.75" stroke-linecap="round" stroke-linejoin="round"/>
<path d="M21.4721 32.1989C21.4721 32.4509 21.2673 32.6557 21.0153 32.6557C20.7633 32.6557 20.5586 32.4509 20.5586 32.1989C20.5586 31.9469 20.7633 31.7422 21.0153 31.7422C21.2673 31.7422 21.4721 31.9469 21.4721 32.1989Z" fill="#7C6656"/>
<path d="M7.3493 7.69467C6.01579 7.69467 4.93166 6.61054 4.93166 5.27703C4.93166 5.11691 4.80303 4.98828 4.64291 4.98828C4.48278 4.98828 4.35416 5.11691 4.35416 5.27703C4.35416 6.61054 3.27003 7.69467 1.93914 7.69467C1.77902 7.69467 1.65039 7.8233 1.65039 7.98342C1.65039 8.14355 1.77902 8.27218 1.93914 8.27218C3.27265 8.27218 4.35416 9.35631 4.35416 10.6872C4.35416 10.8473 4.48278 10.9759 4.64291 10.9759C4.80303 10.9759 4.93166 10.8473 4.93166 10.6872C4.93166 9.35368 6.01579 8.27218 7.3493 8.27218C7.50943 8.27218 7.63805 8.14355 7.63805 7.98342C7.63805 7.8233 7.50943 7.69467 7.3493 7.69467Z" fill="#EF8198" stroke="#EF8198" stroke-width="0.75" stroke-linecap="round" stroke-linejoin="round"/>
<path d="M3.58252 13.2327C2.91576 13.2327 2.37501 12.692 2.37501 12.0252C2.37501 11.9465 2.30938 11.8809 2.23063 11.8809C2.15188 11.8809 2.08626 11.9465 2.08626 12.0252C2.08626 12.692 1.5455 13.2327 0.878751 13.2327C0.8 13.2327 0.734375 13.2984 0.734375 13.3771C0.734375 13.4559 0.8 13.5215 0.878751 13.5215C1.5455 13.5215 2.08626 14.0622 2.08626 14.729C2.08626 14.8078 2.15188 14.8734 2.23063 14.8734C2.30938 14.8734 2.37501 14.8078 2.37501 14.729C2.37501 14.0622 2.91576 13.5215 3.58252 13.5215C3.66127 13.5215 3.72689 13.4559 3.72689 13.3771C3.72689 13.2984 3.66127 13.2327 3.58252 13.2327Z" fill="#EF8198" stroke="#EF8198" stroke-width="0.75" stroke-linecap="round" stroke-linejoin="round"/>
<path d="M23.0445 36.0178C23.0445 36.0178 20.9655 36.086 20.5586 35.8262" stroke="#7C6656" stroke-width="0.75" stroke-linecap="round" stroke-linejoin="round"/>
<path d="M31.6074 31.3691C31.6074 31.3691 32.7861 32.6764 31.6074 34.2698" stroke="#7C6656" stroke-width="0.75" stroke-linecap="round" stroke-linejoin="round"/>
<path d="M33.5364 32.8184C33.5364 32.8184 33.7254 34.795 31.0898 35.845" stroke="#7C6656" stroke-width="0.75" stroke-linecap="round" stroke-linejoin="round"/>
<path d="M17.2402 41.0471C17.2402 41.0471 19.8364 42.2809 20.9153 40.9316" stroke="#7C6656" stroke-width="0.75" stroke-linecap="round" stroke-linejoin="round"/>
<path d="M24.3496 41.4939C24.3496 41.4939 26.2344 42.4442 27.8488 41.1133" stroke="#7C6656" stroke-width="0.75" stroke-linecap="round" stroke-linejoin="round"/>
<path d="M19.2135 28.0649C15.15 31.6612 10.8948 29.2121 10.8948 29.2121C10.8948 29.2121 8.67407 30.7477 7.52169 28.2146C6.57406 26.1277 8.61632 24.6682 9.6637 24.718C10.7111 24.7679 11.9238 25.5055 12.105 26.7367C12.105 26.7367 14.7536 27.6371 17.0872 26.3298" fill="white"/>
<path d="M19.2135 28.0649C15.15 31.6612 10.8948 29.2121 10.8948 29.2121C10.8948 29.2121 8.67407 30.7477 7.52169 28.2146C6.57406 26.1277 8.61632 24.6682 9.6637 24.718C10.7111 24.7679 11.9238 25.5055 12.105 26.7367C12.105 26.7367 14.7536 27.6371 17.0872 26.3298" stroke="#7C6656" stroke-width="0.75" stroke-linecap="round" stroke-linejoin="round"/>
<path d="M9.66211 30.4736V29.7754" stroke="#7C6656" stroke-width="0.75" stroke-linecap="round" stroke-linejoin="round"/>
<path d="M9.66246 18.0156L3.06055 20.1576L9.32646 23.3234" fill="#F5B0D0"/>
<path d="M9.66246 18.0156L3.06055 20.1576L9.32646 23.3234" stroke="#7C6656" stroke-width="0.75" stroke-linecap="round" stroke-linejoin="round"/>
<path d="M9.66211 24.7147V18.0156" stroke="#7C6656" stroke-width="0.75" stroke-linecap="round" stroke-linejoin="round"/>
<path d="M13.8702 27.2188C13.8702 27.2188 14.1458 28.9959 13.248 29.7755" stroke="#7C6656" stroke-width="0.75" stroke-linecap="round" stroke-linejoin="round"/>
<path d="M25.3888 30.0242C21.5536 33.001 17.5452 30.8039 17.5452 30.8039C17.5452 30.8039 15.3218 32.3395 14.1721 29.8064C13.2244 27.7195 15.2667 26.26 16.3141 26.3098C17.3615 26.3597 18.5742 27.0973 18.7554 28.3285C18.7554 28.3285 21.0969 29.0897 23.4331 27.7825C23.4331 27.7825 24.5986 27.1367 25.3993 27.8218C26.1973 28.507 25.9059 29.6279 25.3914 30.0269L25.3888 30.0242Z" fill="white" stroke="#7C6656" stroke-width="0.75" stroke-linecap="round" stroke-linejoin="round"/>
<path d="M16.3129 19.6055L9.71094 21.7501L15.9742 24.9159" fill="#9ED9F8"/>
<path d="M16.3129 19.6055L9.71094 21.7501L15.9742 24.9159" stroke="#7C6656" stroke-width="0.75" stroke-linecap="round" stroke-linejoin="round"/>
<path d="M16.3145 26.3071V19.6055" stroke="#7C6656" stroke-width="0.75" stroke-linecap="round" stroke-linejoin="round"/>
<path d="M16.3145 32.0674V31.3691" stroke="#7C6656" stroke-width="0.75" stroke-linecap="round" stroke-linejoin="round"/>
<path d="M19.9708 28.5312C19.9708 28.5312 20.173 30.1036 19.2148 31.1458" stroke="#7C6656" stroke-width="0.75" stroke-linecap="round" stroke-linejoin="round"/>
<defs>
<filter id="filter0_f_1067_25314" x="24.3203" y="16.623" width="6.18359" height="4.23828" filterUnits="userSpaceOnUse" color-interpolation-filters="sRGB">
<feFlood flood-opacity="0" result="BackgroundImageFix"/>
<feBlend mode="normal" in="SourceGraphic" in2="BackgroundImageFix" result="shape"/>
<feGaussianBlur stdDeviation="0.375" result="effect1_foregroundBlur_1067_25314"/>
</filter>
<filter id="filter1_f_1067_25314" x="11.2891" y="16.418" width="6.18359" height="4.23828" filterUnits="userSpaceOnUse" color-interpolation-filters="sRGB">
<feFlood flood-opacity="0" result="BackgroundImageFix"/>
<feBlend mode="normal" in="SourceGraphic" in2="BackgroundImageFix" result="shape"/>
<feGaussianBlur stdDeviation="0.375" result="effect1_foregroundBlur_1067_25314"/>
</filter>
</defs>
</svg>
