<svg width="43" height="49" viewBox="0 0 43 49" fill="none" xmlns="http://www.w3.org/2000/svg">
<ellipse cx="21.9002" cy="45.0885" rx="18.3416" ry="3.76237" fill="#EEEEEE"/>
<path d="M24.7692 30.3898C24.7692 30.3898 27.5403 30.7773 30.21 32.4085C32.8798 34.0373 34.6168 35.2044 38.0525 33.4493C38.0525 33.4493 37.8182 36.8378 34.2135 37.0788C30.6088 37.3199 31.4807 38.8879 29.6423 39.4557C27.8039 40.0234 26.4927 39.2011 24.9449 39.8454C23.3971 40.4898 21.0248 40.5867 19.9929 40.2667C18.9611 39.9491 18.4249 39.4219 17.1925 40.055C16.1043 37.1937 15.3203 31.9782 15.8362 29.207" fill="#EF8198"/>
<path d="M24.7692 30.3898C24.7692 30.3898 27.5403 30.7773 30.21 32.4085C32.8798 34.0373 34.6168 35.2044 38.0525 33.4493C38.0525 33.4493 37.8182 36.8378 34.2135 37.0788C30.6088 37.3199 31.4807 38.8879 29.6423 39.4557C27.8039 40.0234 26.4927 39.2011 24.9449 39.8454C23.3971 40.4898 21.0248 40.5867 19.9929 40.2667C18.9611 39.9491 18.4249 39.4219 17.1925 40.055C16.1043 37.1937 15.3203 31.9782 15.8362 29.207" stroke="#7C6656" stroke-width="0.75" stroke-linecap="round" stroke-linejoin="round"/>
<path d="M33.4957 37.1534C33.4957 37.1534 30.0532 35.9211 28.0098 33.623" stroke="#7C6656" stroke-width="0.75" stroke-linecap="round" stroke-linejoin="round"/>
<path d="M20.7168 38.2715C20.7168 38.2715 21.9514 40.8804 23.7695 42.2276C24.0038 43.4284 24.7744 44.404 25.8918 43.3C26.4415 42.5746 27.3247 41.6847 25.8918 40.3712C24.7496 39.4114 23.5037 37.956 23.2018 37.1562" fill="white"/>
<path d="M15.658 38.3198C15.658 38.3198 15.2097 39.8608 17.2846 41.6452C17.0008 42.3932 16.2888 44.6393 19.3596 43.0983C21.0628 42.1589 20.1053 41.2081 19.5849 40.6471C19.0645 40.0861 18.4269 39.4553 18.4269 38.2207" fill="white"/>
<path d="M18.762 39.8616C18.762 39.8616 17.559 40.6231 16.793 40.9228C17.0295 41.4567 17.1985 41.8059 17.1985 41.8059C17.1985 41.8059 16.4348 43.1487 17.5162 43.6038C18.5976 44.0589 20.3166 42.6756 20.1589 41.7316C19.8322 40.9092 18.762 39.8594 18.762 39.8594V39.8616Z" fill="#F6B7C2"/>
<path d="M25.063 39.8521C25.063 39.7372 24.0897 41.1949 23.0781 41.5599C23.4363 42.0262 23.9297 42.2628 23.9297 42.2628C23.9297 42.2628 23.754 43.752 25.063 43.7723C26.3719 43.7925 26.845 41.8235 26.4373 41.1498C26.0295 40.4762 25.063 39.8499 25.063 39.8499V39.8521Z" fill="#F6B7C2"/>
<path d="M15.843 31.5924C12.8038 31.7613 9.37934 30.9525 9.37934 30.9525L9.25768 30.9165C9.25768 30.9165 7.73694 32.667 6.24099 30.8061C5.00637 29.2718 6.39418 27.6227 7.27509 27.4425C8.15599 27.26 9.32301 27.6159 9.7353 28.5982C9.7353 28.5982 11.1637 29.3394 15.4015 28.7244" fill="white"/>
<path d="M13.0653 28.9542L13.0473 31.5248C13.0473 31.5248 10.2717 31.2319 9.34346 30.8218C8.97848 31.1756 7.81371 32.0948 6.47996 31.135C5.14622 30.1753 5.68693 28.3751 6.47996 27.9088C7.273 27.4424 9.05057 27.0729 9.64986 28.7739C10.8507 28.8731 13.0653 28.9542 13.0653 28.9542Z" fill="#F6B7C2"/>
<path d="M15.843 31.5924C12.8038 31.7613 9.37934 30.9525 9.37934 30.9525L9.25768 30.9165C9.25768 30.9165 7.73694 32.667 6.24099 30.8061C5.00637 29.2718 6.39418 27.6227 7.27509 27.4425C8.15599 27.26 9.32301 27.6159 9.7353 28.5982C9.7353 28.5982 11.1637 29.3394 15.4015 28.7244" stroke="#7C6656" stroke-width="0.75" stroke-linecap="round" stroke-linejoin="round"/>
<path d="M13.0649 28.9551L13.0469 31.5257" stroke="#7C6656" stroke-width="0.75" stroke-linecap="round" stroke-linejoin="round"/>
<path d="M23.8934 30.6336C23.8934 30.6336 23.409 34.6641 23.5667 35.7298C23.7244 36.7976 16.2289 35.4436 16.2289 35.4436C16.2289 35.4436 15.4381 33.3664 15.4178 31.2036C15.3976 29.0408 15.553 28.6758 15.553 28.6758C15.553 28.6758 20.9916 30.6899 23.8957 30.6336H23.8934Z" fill="white"/>
<path d="M17.2882 29.4665C17.2882 29.4665 16.5898 30.3023 16.6033 30.6898C15.7607 30.6245 15.416 30.3902 15.416 30.3902C15.416 30.3902 15.5039 29.0091 15.7742 28.9551C16.3848 29.1421 17.2882 29.4688 17.2882 29.4688V29.4665Z" fill="#EF8198"/>
<path d="M21.1558 30.4043L20.7188 31.3911C20.7188 31.3911 21.5839 31.9904 21.9466 31.7696C22.3093 31.5488 23.429 30.58 23.429 30.58L21.1581 30.4043H21.1558Z" fill="#EF8198"/>
<path d="M20.7169 30.4554C20.7169 30.4554 19.9081 31.4151 18.3287 30.9195C16.7472 30.4238 17.2856 29.3965 17.2856 29.3965L20.0635 29.989L20.7146 30.4576L20.7169 30.4554Z" fill="white"/>
<path d="M18.4058 29.8585C18.4058 29.8585 14.747 29.1015 12.1494 26.2921C10.8156 24.1901 9.42329 22.9239 11.1581 19.1322C10.7165 17.1316 10.5317 15.4644 11.6109 13.225C12.6901 10.9856 16.2204 8.55691 19.895 8.35414C23.5673 8.15138 26.9963 10.1723 26.9963 10.1723L28.6477 10.5395C28.6477 10.5395 29.5714 8.88358 30.3667 8.88584C31.162 8.88809 32.7187 8.72137 33.5816 10.3322C34.6653 9.582 36.3032 9.00975 37.4522 10.2804C38.6012 11.5511 39.4393 12.1504 38.2835 14.6286C39.0991 15.0859 40.9127 16.0908 40.007 18.952C39.4032 20.2429 38.0402 20.653 36.8754 20.0176C36.6524 22.0566 36.9498 24.4109 33.2572 28.3693C31.8514 29.8427 28.9653 29.7706 28.9653 29.7706C28.9653 29.7706 22.7585 31.778 18.408 29.854L18.4058 29.8585Z" fill="white"/>
<g filter="url(#filter0_f_1067_22345)">
<ellipse cx="2.16352" cy="1.26965" rx="2.16352" ry="1.26965" transform="matrix(0.962979 0.269575 -0.270308 0.962774 23.4297 23.5996)" fill="#F5B0B0"/>
</g>
<g filter="url(#filter1_f_1067_22345)">
<ellipse cx="2.16352" cy="1.26965" rx="2.16352" ry="1.26965" transform="matrix(0.962979 0.269575 -0.270308 0.962774 12.166 20.6699)" fill="#F5B0B0"/>
</g>
<path d="M17.0938 23.4609C17.0938 23.4609 17.6525 24.6595 19.1101 25.0312C20.5678 25.4007 21.5816 24.6009 21.5816 24.6009" stroke="#7C6656" stroke-width="0.75" stroke-linecap="round" stroke-linejoin="round"/>
<path d="M29.6475 29.3965C29.429 29.5474 29.1992 29.6713 28.9649 29.7727C26.7322 30.7325 22.4268 30.8046 19.8945 30.1602" stroke="#7C6656" stroke-width="0.75" stroke-linecap="round" stroke-linejoin="round"/>
<path d="M12.8363 16.7012C12.7507 16.9107 12.6132 17.1337 12.5682 17.2058C12.2077 17.7353 10.527 19.2583 10.3806 21.6847C10.2341 24.1134 11.7751 26.9476 15.6344 28.8603C15.6344 28.8603 17.3962 29.5249 17.7364 29.6128" stroke="#7C6656" stroke-width="0.75" stroke-linecap="round" stroke-linejoin="round"/>
<path d="M16.1105 13.3594C16.1105 13.3594 14.5898 15.3645 15.1012 17.3358" stroke="#7C6656" stroke-width="0.75" stroke-linecap="round" stroke-linejoin="round"/>
<path d="M22.7508 14.8633C22.7508 14.8633 21.3607 17.506 22.2461 19.5201" stroke="#7C6656" stroke-width="0.75" stroke-linecap="round" stroke-linejoin="round"/>
<path d="M29.0992 17.8574C29.0992 17.8574 28.2274 20.4415 29.2862 22.663" stroke="#7C6656" stroke-width="0.75" stroke-linecap="round" stroke-linejoin="round"/>
<path d="M30.8689 22.6309C30.8689 22.6309 29.7357 26.168 30.8689 27.5152" stroke="#7C6656" stroke-width="0.75" stroke-linecap="round" stroke-linejoin="round"/>
<path d="M29.5474 29.7865C32.7421 30.2776 38.3767 24.6768 36.2364 18.1117C33.8573 10.8144 26.9926 10.1746 26.9926 10.1746C26.9926 10.1746 24.9762 8.771 20.209 8.54346C14.4414 8.26634 9.39709 13.6554 11.0124 18.8034" stroke="#7C6656" stroke-width="0.75" stroke-linecap="round" stroke-linejoin="round"/>
<path d="M28.6465 10.5418C28.6465 10.5418 29.2863 8.82729 31.1608 8.89037C33.0352 8.95345 33.5804 10.3368 33.5804 10.3368C33.5804 10.3368 34.743 8.49385 37.451 10.2849C40.0959 12.0355 38.1517 14.8472 38.1517 14.8472C38.1517 14.8472 39.6003 14.5655 40.2334 16.9559C40.8665 19.3463 38.1021 21.5114 36.6197 19.7698" stroke="#7C6656" stroke-width="0.75" stroke-linecap="round" stroke-linejoin="round"/>
<path d="M23.2542 22.0765C23.1213 22.6961 23.5178 23.3044 24.1351 23.4373C24.7547 23.5702 25.363 23.1737 25.4959 22.5564C25.6288 21.9368 25.2323 21.3285 24.615 21.1956C23.9954 21.0627 23.3871 21.4592 23.2542 22.0765Z" fill="#7C6656"/>
<path d="M15.5686 20.4378C15.4357 21.0574 15.8322 21.6657 16.4495 21.7986C17.0691 21.9315 17.6774 21.535 17.8103 20.9177C17.9432 20.2981 17.5467 19.6898 16.9294 19.5569C16.3099 19.424 15.7016 19.8205 15.5686 20.4378Z" fill="#7C6656"/>
<path d="M15.5531 29.3965C15.5531 29.3965 15.0597 31.8792 16.1118 35.2834" stroke="#7C6656" stroke-width="0.75" stroke-linecap="round" stroke-linejoin="round"/>
<path d="M18.2936 37.6602C18.2936 37.6602 18.0931 39.298 19.5891 40.6476C20.4587 41.4316 20.4993 42.8487 18.5099 43.4953C17.4623 43.8355 17.0455 43.3353 16.9869 42.7721C16.9284 42.2089 17.2866 41.6456 17.2866 41.6456" stroke="#7C6656" stroke-width="0.75" stroke-linecap="round" stroke-linejoin="round"/>
<path d="M17.288 41.6461C17.288 41.6461 14.9855 39.6049 15.5172 37.6133" stroke="#7C6656" stroke-width="0.75" stroke-linecap="round" stroke-linejoin="round"/>
<path d="M23.9301 42.2644C23.9301 42.2644 23.8851 42.9313 24.2095 43.3954C24.5317 43.8595 25.1377 44.0983 25.8925 43.2963C27.3253 41.7733 26.6111 40.8135 25.6244 40.1805C24.1802 39.2523 23.4277 37.1953 23.4277 37.1953" stroke="#7C6656" stroke-width="0.75" stroke-linecap="round" stroke-linejoin="round"/>
<path d="M23.9295 42.266C23.9295 42.266 21.2102 40.2744 20.7168 38.2715" stroke="#7C6656" stroke-width="0.75" stroke-linecap="round" stroke-linejoin="round"/>
<path d="M23.8933 34.8184L15.999 34.9107C15.999 34.9107 15.0505 36.5576 14.9941 38.9052C14.9941 38.9052 19.0337 39.0156 21.0658 38.8939C23.7085 38.7362 25.7993 37.986 25.7993 37.986C25.7993 37.986 25.1617 37.9477 24.9612 37.2425C24.7471 36.4855 24.3754 35.6835 23.8933 34.8184Z" fill="#EF8198" stroke="#7C6656" stroke-width="0.75" stroke-linecap="round" stroke-linejoin="round"/>
<path d="M23.7094 31.541C23.7094 31.541 23.581 33.3907 23.7094 34.8393" stroke="#7C6656" stroke-width="0.75" stroke-linecap="round" stroke-linejoin="round"/>
<path d="M24.2999 30.8734C24.7595 31.1731 25.2484 31.3578 25.2484 31.3578C27.4428 32.277 28.3507 29.9903 28.3507 29.9903C28.1615 28.8841 28.6053 28.2578 29.743 28.0528C31.034 27.8275 32.0816 29.0283 31.8135 30.3553C31.5476 31.6823 30.0382 31.6778 30.0382 31.6778C30.0382 31.6778 27.9384 35.2712 24.5838 33.9059C24.5838 33.9059 23.4258 33.4711 22.8828 32.9056C22.8828 32.9056 22.9639 31.5291 23.4956 31.1123" fill="white"/>
<path d="M26.6055 31.4322L27.3354 33.8766C27.3354 33.8766 29.0139 33.1715 29.9804 31.7634C30.9604 31.5809 32.5577 31.1483 31.6498 29.1387C30.9469 27.5797 28.8269 27.9762 28.5723 28.6498C28.3177 29.3234 28.3492 29.9903 28.3492 29.9903C28.3492 29.9903 27.8018 31.0943 26.6077 31.4344L26.6055 31.4322Z" fill="#F6B7C2"/>
<path d="M23.8941 30.6324C24.3537 30.932 25.2459 31.3578 25.2459 31.3578C27.4402 32.277 28.3482 29.9903 28.3482 29.9903C28.1589 28.8841 28.6027 28.2578 29.7405 28.0528C31.0314 27.8275 32.079 29.0283 31.8109 30.3553C31.5451 31.6823 30.0356 31.6778 30.0356 31.6778C30.0356 31.6778 27.9359 35.2712 24.5812 33.9059C24.5812 33.9059 23.7094 33.4981 23.4277 33.1917" stroke="#7C6656" stroke-width="0.75" stroke-linecap="round" stroke-linejoin="round"/>
<path d="M26.6152 31.541L27.3677 33.9787" stroke="#7C6656" stroke-width="0.75" stroke-linecap="round" stroke-linejoin="round"/>
<path d="M18.762 39.8613C18.762 39.8613 17.6581 40.7873 16.793 40.9472" stroke="#7C6656" stroke-width="0.75" stroke-linecap="round" stroke-linejoin="round"/>
<path d="M25.063 39.7383C25.063 39.7383 24.3803 41.1486 23.0781 41.5609" stroke="#7C6656" stroke-width="0.75" stroke-linecap="round" stroke-linejoin="round"/>
<path d="M21.1358 30.582L20.7168 31.3931C20.7168 31.3931 20.9106 31.6657 21.5797 31.8144C22.2511 31.9631 22.8751 30.715 23.8935 30.6338" stroke="#7C6656" stroke-width="0.75" stroke-linecap="round" stroke-linejoin="round"/>
<path d="M17.2875 29.5312C17.2875 29.5312 16.7378 30.1576 16.6905 30.6802C16.6905 30.6802 15.6451 30.5879 15.5527 30.3288" stroke="#7C6656" stroke-width="0.75" stroke-linecap="round" stroke-linejoin="round"/>
<path d="M20.7161 30.5202C20.7161 30.5202 19.7699 31.2929 18.6862 31.0294C17.2871 30.6892 17.2871 29.6934 17.2871 29.6934" stroke="#7C6656" stroke-width="0.75" stroke-linecap="round" stroke-linejoin="round"/>
<path d="M18.5993 32.2219C18.7751 31.9268 19.1918 31.7556 19.5163 32.0439C19.8024 32.3008 19.8227 32.7919 19.5456 33.1817C19.3293 33.4881 18.9711 33.7134 18.6128 33.8485C18.5565 33.8688 18.4957 33.8666 18.4439 33.8418C18.0969 33.6751 17.7612 33.4205 17.5742 33.0961C17.3332 32.6838 17.3985 32.1926 17.7049 31.9651C18.0564 31.706 18.4551 31.9133 18.5993 32.2219Z" fill="#F3A4B8"/>
<path d="M7.25476 28.5812L1.45117 7.84961" stroke="#7C6656" stroke-width="0.75" stroke-linecap="round" stroke-linejoin="round"/>
<path d="M1.596 8.18474C1.596 8.18474 7.66093 8.96201 10.6033 5.22212C13.5456 1.48223 16.9453 1.35156 16.9453 1.35156L19.9981 13.3034C19.9981 13.3034 16.2694 13.5197 13.7687 16.0813C11.2679 18.6429 4.90107 19.5148 4.90107 19.5148C4.90107 19.5148 4.59918 11.0144 1.59375 8.18474H1.596Z" fill="white" stroke="#7C6656" stroke-width="0.75" stroke-linecap="round" stroke-linejoin="round"/>
<path d="M1.9723 7.61701C1.9723 7.9572 1.69744 8.23206 1.35724 8.23206C1.01705 8.23206 0.742188 7.9572 0.742188 7.61701C0.742188 7.27681 1.01705 7.00195 1.35724 7.00195C1.69744 7.00195 1.9723 7.27681 1.9723 7.61701Z" fill="white" stroke="#7C6656" stroke-width="0.75" stroke-linecap="round" stroke-linejoin="round"/>
<path d="M20.1586 36.7188C20.1586 36.7188 19.5098 37.7776 18.5703 37.4149" stroke="#7C6656" stroke-width="0.75" stroke-linecap="round" stroke-linejoin="round"/>
<path d="M13.7276 12.4644C14.4466 11.1317 13.9492 9.4685 12.6166 8.74944C11.2839 8.03038 9.62065 8.52779 8.90159 9.86045C8.18253 11.1931 8.67994 12.8564 10.0126 13.5754C11.3453 14.2945 13.0085 13.7971 13.7276 12.4644Z" fill="#E25553"/>
<path d="M5.44996 9.32379L4.98633 9.30273L4.87309 11.7964L5.33672 11.8175L5.44996 9.32379Z" fill="#7C6656"/>
<path d="M6.07886 9.35308L5.61523 9.33203L5.502 11.8257L5.96562 11.8468L6.07886 9.35308Z" fill="#7C6656"/>
<path d="M6.70972 9.38238L6.24609 9.36133L6.13286 11.855L6.59649 11.8761L6.70972 9.38238Z" fill="#7C6656"/>
<path d="M14.9288 6.92854L15.1621 6.52734L13.0042 5.27243L12.7709 5.67362L14.9288 6.92854Z" fill="#7C6656"/>
<path d="M14.6104 7.47542L14.8438 7.07422L13.8758 6.51132L13.6425 6.91252L14.6104 7.47542Z" fill="#7C6656"/>
<path d="M13.421 6.78401L13.6543 6.38281L12.6864 5.81991L12.453 6.22111L13.421 6.78401Z" fill="#7C6656"/>
<path d="M15.2472 6.38167L15.4805 5.98047L14.5125 5.41757L14.2792 5.81877L15.2472 6.38167Z" fill="#7C6656"/>
<path d="M14.0557 5.68831L14.2891 5.28711L13.3211 4.72421L13.0878 5.12541L14.0557 5.68831Z" fill="#7C6656"/>
<path d="M7.33878 15.7922L7.10547 16.1934L9.26336 17.4483L9.49668 17.0471L7.33878 15.7922Z" fill="#7C6656"/>
<path d="M7.6591 15.2453L7.42578 15.6465L8.39372 16.2094L8.62703 15.8082L7.6591 15.2453Z" fill="#7C6656"/>
<path d="M8.8466 15.9367L8.61328 16.3379L9.58122 16.9008L9.81453 16.4996L8.8466 15.9367Z" fill="#7C6656"/>
<path d="M7.9755 14.7023L7.74219 15.1035L9.90008 16.3584L10.1334 15.9572L7.9755 14.7023Z" fill="#7C6656"/>
<path d="M16.7551 11.3832L17.2188 11.4043L17.2695 10.2857L16.8059 10.2647L16.7551 11.3832Z" fill="#7C6656"/>
<path d="M16.6926 12.7582L17.1562 12.7793L17.207 11.6607L16.7434 11.6397L16.6926 12.7582Z" fill="#7C6656"/>
<path d="M16.1262 11.3539L16.5898 11.375L16.6406 10.2564L16.177 10.2354L16.1262 11.3539Z" fill="#7C6656"/>
<path d="M16.0618 12.727L16.5254 12.748L16.5762 11.6295L16.1126 11.6084L16.0618 12.727Z" fill="#7C6656"/>
<path d="M17.386 11.4125L17.8496 11.4336L17.9004 10.315L17.4368 10.294L17.386 11.4125Z" fill="#7C6656"/>
<path d="M17.3254 12.7875L17.7891 12.8086L17.8399 11.69L17.3762 11.669L17.3254 12.7875Z" fill="#7C6656"/>
<path d="M13.958 10.4399C13.4624 9.96231 12.6941 9.83614 12.0588 10.1854C11.6172 10.4264 11.3333 10.8432 11.2455 11.3006C11.1351 11.6498 10.8963 11.9584 10.5493 12.1477C9.87568 12.5149 9.04209 12.3009 8.62305 11.6745C8.67486 11.9472 8.76949 12.2153 8.90917 12.4721C9.63462 13.8013 11.2995 14.2902 12.6288 13.567C13.7665 12.9475 14.2892 11.6385 13.9625 10.4422L13.958 10.4399Z" fill="#465E91"/>
<path d="M13.3164 44.3828C13.3164 44.3828 13.7602 46.7484 16.4412 46.3519" stroke="#7C6656" stroke-width="0.75" stroke-linecap="round" stroke-linejoin="round"/>
<path d="M14.4142 43.0801C14.4142 43.0801 14.3691 44.4792 15.9575 44.9838" stroke="#7C6656" stroke-width="0.75" stroke-linecap="round" stroke-linejoin="round"/>
<path d="M42.302 33.1875C42.302 33.1875 42.712 36.0487 40.3262 36.7179" stroke="#7C6656" stroke-width="0.75" stroke-linecap="round" stroke-linejoin="round"/>
<path d="M40.6761 33.877C40.6761 33.877 41.3408 35.9744 38.3105 36.7923" stroke="#7C6656" stroke-width="0.75" stroke-linecap="round" stroke-linejoin="round"/>
<defs>
<filter id="filter0_f_1067_22345" x="22.3086" y="23.3008" width="5.72266" height="4.20898" filterUnits="userSpaceOnUse" color-interpolation-filters="sRGB">
<feFlood flood-opacity="0" result="BackgroundImageFix"/>
<feBlend mode="normal" in="SourceGraphic" in2="BackgroundImageFix" result="shape"/>
<feGaussianBlur stdDeviation="0.375" result="effect1_foregroundBlur_1067_22345"/>
</filter>
<filter id="filter1_f_1067_22345" x="11.0449" y="20.3711" width="5.72266" height="4.20898" filterUnits="userSpaceOnUse" color-interpolation-filters="sRGB">
<feFlood flood-opacity="0" result="BackgroundImageFix"/>
<feBlend mode="normal" in="SourceGraphic" in2="BackgroundImageFix" result="shape"/>
<feGaussianBlur stdDeviation="0.375" result="effect1_foregroundBlur_1067_22345"/>
</filter>
</defs>
</svg>
