<svg width="60" height="60" viewBox="0 0 60 60" fill="none" xmlns="http://www.w3.org/2000/svg">
<path d="M24.7104 55.2672C24.7104 55.2672 22.9363 56.6305 23.7992 57.7868C24.662 58.943 27.9892 58.5426 28.5725 57.2104C29.1593 56.1335 28.6968 55.1119 27.9823 54.7012" fill="white"/>
<path d="M35.3949 55.2672C35.3949 55.2672 37.1689 56.6305 36.3061 57.7868C35.4432 58.943 32.116 58.5426 31.5327 57.2104C30.946 56.1335 31.4085 55.1119 32.1229 54.7012" fill="white"/>
<path d="M22.8223 45.8745C22.8223 45.8745 22.8188 53.3435 24.1752 56.1702C25.5317 56.6431 28.9313 55.8631 28.9313 55.8631C28.9313 55.8631 28.2065 51.7593 28.8382 48.8842C30.0876 48.829 31.4682 48.6806 31.4682 48.6806C31.4682 48.6806 32.0549 53.1399 31.1472 55.8631C32.4415 56.2186 34.5089 56.5119 35.9033 56.1702C36.2588 54.5342 37.7049 47.1861 37.2459 43.9107C34.074 43.7588 23.2882 43.707 23.2882 43.707C23.2882 43.707 22.805 44.5181 22.8326 45.8745H22.8223Z" fill="#8EBDE2"/>
<path d="M21.75 39.25L21 33.5L26.5 32.5L40.75 29.75V37.5L34.75 42.5L21.75 39.25Z" fill="white"/>
<path d="M28.6043 48.6825C28.6043 48.6825 28.0831 53.6043 28.9253 55.865C28.9253 55.865 26.1503 56.8832 24.1692 56.1722C24.1692 56.1722 22.2501 48.1648 23.0578 44.6133" stroke="#7C6656" stroke-linecap="round" stroke-linejoin="round"/>
<path d="M24.2673 56.1719C24.2673 56.1719 22.8936 56.7104 23.7945 57.7907C24.647 58.8123 28.982 58.9918 28.8267 55.9648" stroke="#7C6656" stroke-linecap="round" stroke-linejoin="round"/>
<path d="M31.4616 48.6825C31.4616 48.6825 31.9828 53.6043 31.1406 55.865C31.1406 55.865 33.9156 56.8832 35.8967 56.1722C35.8967 56.1722 37.8157 48.1648 37.0081 44.6133" stroke="#7C6656" stroke-linecap="round" stroke-linejoin="round"/>
<path d="M35.7959 56.1719C35.7959 56.1719 37.1695 56.7104 36.2687 57.7907C35.4162 58.8123 31.0812 58.9918 31.2365 55.9648" stroke="#7C6656" stroke-linecap="round" stroke-linejoin="round"/>
<path d="M28.834 48.8857C28.834 48.8857 31.2949 48.8857 32.1888 48.3887" stroke="#7C6656" stroke-linecap="round" stroke-linejoin="round"/>
<path d="M23.4919 34.2879C23.4919 34.2879 21.8663 41.7948 21.7559 45.8192C29.1592 46.2196 35.3995 46.2024 38.989 45.7226C38.8751 43.3342 36.0621 31.2023 35.679 30.7812" fill="white"/>
<path d="M43.1793 5.99741C43.1793 5.99741 49.599 10.9537 44.8981 17.2284C44.7842 17.2181 44.7669 17.9878 44.7669 17.9878C44.7669 17.9878 47.076 20.9905 46.8206 23.693C46.5652 26.399 46.2062 31.6624 35.9726 34.3546C32.887 34.8757 26.6744 35.2692 22.3808 34.2855C19.2365 33.6436 15.2294 31.8246 13.9109 27.324C13.9109 27.324 12.9618 24.3108 13.2897 21.8465C12.9169 20.5522 11.5743 17.7841 12.0437 12.8002C12.5131 7.81632 16.6514 4.95161 21.2901 3.75396C23.8339 2.51489 27.9963 0.799512 33.8293 1.90743C39.6622 3.01535 43.1793 5.99395 43.1793 5.99395V5.99741Z" fill="white"/>
<path d="M44.5453 14.8262C44.9181 15.9168 44.7489 17.4113 44.7697 17.9877C45.1597 18.8885 47.2513 21.6635 46.7715 25.3566C46.2917 29.0531 43.32 32.3803 36.9625 34.144C36.9625 34.144 32.4307 35.1138 29.2001 34.9413C26.86 34.9482 20.1159 34.1957 16.9509 31.7349C14.3244 29.6916 13.1647 27.1306 13.4373 21.1768" stroke="#7C6656" stroke-linecap="round" stroke-linejoin="round"/>
<g filter="url(#filter0_f_1099_23548)">
<ellipse cx="3.04724" cy="1.79136" rx="3.04724" ry="1.79136" transform="matrix(0.997765 -0.0668173 0.0666567 0.997776 36.6016 22.1191)" fill="#F5B0B0"/>
</g>
<g filter="url(#filter1_f_1099_23548)">
<ellipse cx="3.04724" cy="1.79136" rx="3.04724" ry="1.79136" transform="matrix(0.997765 -0.0668173 0.0666567 0.997776 19 23.1543)" fill="#F5B0B0"/>
</g>
<path d="M35.2416 24.2617C35.2416 24.2617 33.8162 25.7355 31.1034 25.8977C28.3905 26.0599 26.8926 24.7587 26.8926 24.7587" stroke="#7C6656" stroke-linecap="round" stroke-linejoin="round"/>
<path d="M13.1418 21.1979C7.80586 6.26004 21.2907 3.75773 21.2907 3.75773C30.2196 -1.68176 40.9882 4.41696 40.9882 4.41696C40.9882 4.41696 48.854 8.62774 46.0549 15.7964" stroke="#7C6656" stroke-linecap="round" stroke-linejoin="round"/>
<path d="M22.8093 8.19141C22.8093 8.19141 22.4366 13.0925 30.4612 15.2393" stroke="#7C6656" stroke-linecap="round" stroke-linejoin="round"/>
<path d="M21.2429 11.1602C21.2429 11.1602 16.9148 14.1802 16.2383 18.8983" stroke="#7C6656" stroke-linecap="round" stroke-linejoin="round"/>
<path d="M38.8371 14.8363C38.8371 14.8363 33.2388 13.5972 31.0195 8.76172" stroke="#7C6656" stroke-linecap="round" stroke-linejoin="round"/>
<path d="M28.2847 5.16287C28.2847 5.16287 26.0274 6.22592 26.2863 8.01032C26.4865 9.38055 27.2078 9.93624 29.5721 10.982C31.9363 12.0278 36.0263 9.6118 37.9971 6.66771C36.223 5.16287 33.0512 2.28091 28.2847 5.16287Z" fill="#1AAF92"/>
<path d="M27.0762 9.45885C27.0762 9.45885 32.357 15.0433 38.0795 6.53892C38.0795 6.53892 32.854 1.09252 26.6172 6.32838" stroke="#7C6656" stroke-linecap="round" stroke-linejoin="round"/>
<path d="M32.4604 7.4785C32.4707 7.55443 27.7353 9.41476 24.8672 6.82617" stroke="#7C6656" stroke-linecap="round" stroke-linejoin="round"/>
<path d="M26.4575 21.4774C26.4575 21.4774 26.0054 20.6318 24.8215 20.7215C23.4927 20.8182 23.0371 22.1263 23.0371 22.1263" stroke="#7C6656" stroke-linecap="round" stroke-linejoin="round"/>
<path d="M34.9258 20.8515C34.9258 20.8515 35.2502 19.9506 36.4341 19.8609C37.7629 19.7643 38.4048 20.9895 38.4048 20.9895" stroke="#7C6656" stroke-linecap="round" stroke-linejoin="round"/>
<path d="M34.3919 34.7773C34.0191 35.4538 33.1459 36.2891 31.2304 36.5376C29.1871 36.8034 27.7064 36.2684 26.8125 34.9637" stroke="#7C6656" stroke-linecap="round" stroke-linejoin="round"/>
<path d="M38.3369 45.1875H22.8398" stroke="#7C6656" stroke-linecap="round" stroke-linejoin="round"/>
<path d="M37.4772 36.6898C37.4462 36.5621 39.0856 41.7186 38.989 45.7223C38.989 45.7223 29.4215 46.7784 21.7559 45.8189C21.7559 45.8189 22.1907 39.8652 22.9639 37.3145" fill="white"/>
<path d="M37.4772 36.6898C37.4462 36.5621 39.0856 41.7186 38.989 45.7223C38.989 45.7223 29.4215 46.7784 21.7559 45.8189C21.7559 45.8189 22.1907 39.8652 22.9639 37.3145" stroke="#7C6656" stroke-linecap="round" stroke-linejoin="round"/>
<path d="M37.9941 33.8379C49.2355 30.5107 48.3554 21.8234 48.3554 21.8234C48.4693 21.0295 48.1311 19.9182 48.1311 19.9182C44.5623 18.0785 45.4631 12.4492 49.8913 12.4492C53.8363 12.4492 54.5991 15.2863 54.2125 17.1743C53.9744 18.3305 52.2452 19.4764 52.2452 19.4764C52.2452 19.4764 57.1946 34.0001 38.9226 38.9771" fill="white"/>
<path d="M37.9941 33.8379C49.2355 30.5107 48.3554 21.8234 48.3554 21.8234C48.4693 21.0295 48.1311 19.9182 48.1311 19.9182C44.5623 18.0785 45.4631 12.4492 49.8913 12.4492C53.8363 12.4492 54.5991 15.2863 54.2125 17.1743C53.9744 18.3305 52.2452 19.4764 52.2452 19.4764C52.2452 19.4764 56.4215 34.221 38.1495 39.198" stroke="#7C6656" stroke-linecap="round" stroke-linejoin="round"/>
<path d="M39.8203 33.1562C39.8203 33.1562 40.4381 35.5585 39.8203 38.4439" stroke="#7C6656" stroke-linecap="round" stroke-linejoin="round"/>
<path d="M22.2767 34.1309C11.0353 30.8037 11.9154 22.1163 11.9154 22.1163C11.8015 21.3225 12.1397 20.2111 12.1397 20.2111C15.7085 18.3715 14.8077 12.7422 10.3795 12.7422C6.43448 12.7422 5.67171 15.5793 6.05827 17.4672C6.29642 18.6235 8.0256 19.7694 8.0256 19.7694C8.0256 19.7694 3.84934 34.514 22.1213 39.491" fill="white"/>
<path d="M22.2767 34.1309C11.0353 30.8037 11.9154 22.1163 11.9154 22.1163C11.8015 21.3225 12.1397 20.2111 12.1397 20.2111C15.7085 18.3715 14.8077 12.7422 10.3795 12.7422C6.43448 12.7422 5.67171 15.5793 6.05827 17.4672C6.29642 18.6235 8.0256 19.7694 8.0256 19.7694C8.0256 19.7694 3.84934 34.514 22.1213 39.491" stroke="#7C6656" stroke-linecap="round" stroke-linejoin="round"/>
<path d="M20.4465 33.4492C20.4465 33.4492 19.8286 35.8514 20.4465 38.7369" stroke="#7C6656" stroke-linecap="round" stroke-linejoin="round"/>
<defs>
<filter id="filter0_f_1099_23548" x="35.4257" y="20.6112" width="8.67214" height="6.18385" filterUnits="userSpaceOnUse" color-interpolation-filters="sRGB">
<feFlood flood-opacity="0" result="BackgroundImageFix"/>
<feBlend mode="normal" in="SourceGraphic" in2="BackgroundImageFix" result="shape"/>
<feGaussianBlur stdDeviation="0.64655" result="effect1_foregroundBlur_1099_23548"/>
</filter>
<filter id="filter1_f_1099_23548" x="17.8241" y="21.6464" width="8.67214" height="6.18385" filterUnits="userSpaceOnUse" color-interpolation-filters="sRGB">
<feFlood flood-opacity="0" result="BackgroundImageFix"/>
<feBlend mode="normal" in="SourceGraphic" in2="BackgroundImageFix" result="shape"/>
<feGaussianBlur stdDeviation="0.64655" result="effect1_foregroundBlur_1099_23548"/>
</filter>
</defs>
</svg>
