<svg width="640" height="440" viewBox="0 0 640 440" fill="none" xmlns="http://www.w3.org/2000/svg">
<ellipse cx="320" cy="410" rx="180" ry="30" fill="#EEEEEE"/>
<path d="M192.169 136.012L195.794 148.096L192.169 166.223V179.516L181.293 178.307L171.625 183.141L168 190.392V202.477L174.042 218.186L182.501 232.688L188.544 243.564L189.752 261.691L190.961 279.818L197.003 293.111L205.462 300.361L216.338 305.195H233.256L251.383 299.153V374.077L246.549 395.829L242.924 398.246L236.882 404.288V411.539L246.549 417.581H262.259L274.344 412.747L281.595 401.871L286.428 383.745L293.679 353.533H316.64L321.474 394.621L326.307 407.914L332.35 412.747L344.434 416.373H355.31L363.769 410.331L364.978 404.288L360.144 400.663L355.31 387.37V363.201L360.144 330.573L368.603 328.156L373.437 322.113V314.863L369.812 310.029L380.688 293.111L381.896 282.234L378.271 273.775L366.186 261.691L351.685 253.232L377.062 248.398L395.189 238.73L404.857 229.062L414.524 214.561L421.775 192.809V169.848L416.941 151.721L431.443 132.386L433.86 121.51L435.068 105.8L429.026 84.0481L418.15 67.1297L400.023 49.0029L349.268 24.8339L329.933 21.2085H302.138L286.428 23.6254L271.927 28.4592L261.051 29.6677L238.09 35.7099L218.755 46.586L201.837 65.9213L192.169 88.8819L189.752 105.8L192.169 136.012Z" fill="white"/>
<path d="M389.146 353.535L391.563 359.577L397.605 370.453L392.771 369.245L385.521 363.203L384.312 358.369L381.895 353.535L378.27 352.327L374.645 354.744V361.994L378.27 371.662L387.938 381.33L398.814 386.163L401.231 390.997L396.397 399.456L397.605 404.29L401.231 407.915L408.481 410.332V418.792L412.107 420L416.94 417.583L419.357 411.541L436.276 410.332L443.526 406.707L444.735 403.082H450.777L456.819 400.665L459.236 394.622L462.862 384.955L466.487 383.746L471.321 382.538L472.529 380.121L471.321 377.704L466.487 376.496L461.653 377.704L456.819 382.538L453.194 390.997L449.569 395.831H444.735L441.109 397.039L438.693 394.622L433.859 383.746L442.318 382.538L450.777 376.496L455.611 369.245L456.819 357.16L453.194 348.701L461.653 324.532L459.236 322.115L444.735 326.949L435.067 334.2L436.276 311.239L433.859 310.031L424.191 314.865L415.732 320.907L408.481 326.949L401.231 329.366L393.98 332.991L389.146 340.242V353.535Z" fill="white"/>
<path d="M361.281 314.168C361.281 314.168 349.487 307.521 346.852 298.361C345.039 292.488 342.985 286.784 342.985 286.784C342.985 286.784 302.405 278.567 285.221 284.923C282.538 298.24 276.061 315.884 251.771 310.712C251.481 327.05 251.771 367.34 251.771 367.34L245.27 397.575C245.27 397.575 259.529 410.167 278.695 406.349C283.481 392.886 292.907 352.959 292.907 352.959L316.496 353.515C316.496 353.515 323.094 404.391 325.801 409.781C334.115 408.886 352.145 409.056 357.897 396.391C356.133 388.149 353.595 380.222 356.955 356.464C360.314 332.705 361.329 314.168 361.329 314.168H361.281Z" fill="#8FBDE2"/>
<path d="M418.634 128.74C420.084 136.668 417.353 146.867 416.87 150.855C418.634 157.501 425.401 177.368 419.311 202.746C412.713 230.274 391.806 249.006 345.934 254.613C345.934 254.613 319.13 256.474 309.801 254.782" stroke="#7C6656" stroke-width="6" stroke-linecap="round" stroke-linejoin="round"/>
<path d="M291.385 252.027C261.294 249.151 229.246 237.381 209.911 217.03C193.839 200.136 188.497 181.188 196.594 140.27" stroke="#7C6656" stroke-width="6" stroke-linecap="round" stroke-linejoin="round"/>
<path d="M193.499 140.272C172.134 31.2452 271.227 28.0065 271.227 28.0065C338.731 -0.343779 407.637 55.7043 407.637 55.7043C407.637 55.7043 455.468 95.6074 425.619 140.272" stroke="#7C6656" stroke-width="6" stroke-linecap="round" stroke-linejoin="round"/>
<path d="M275.067 60.123C275.067 60.123 267.381 93.6697 320.698 116.896" stroke="#7C6656" stroke-width="6" stroke-linecap="round" stroke-linejoin="round"/>
<path d="M261.122 79.0522C261.122 79.0522 227.986 95.4389 218.391 127.415" stroke="#7C6656" stroke-width="6" stroke-linecap="round" stroke-linejoin="round"/>
<path d="M379.118 122.87C379.118 122.87 341.656 108.441 331.336 72.6465" stroke="#7C6656" stroke-width="6" stroke-linecap="round" stroke-linejoin="round"/>
<path d="M310.912 47.9241C348.422 4.95153 390.452 37.0239 390.452 37.0239C360.023 102.015 317.462 69.0721 317.462 69.0721C317.462 69.0721 312.12 67.7669 309.703 58.341C308.422 53.3863 310.912 47.9483 310.912 47.9483V47.9241Z" fill="#1AAF92"/>
<path d="M317.439 69.0714C317.439 69.0714 360.001 102.014 390.43 37.0232C390.43 37.0232 348.4 4.97504 310.89 47.9235" stroke="#7C6656" stroke-width="6" stroke-linecap="round" stroke-linejoin="round"/>
<path d="M352.553 49.5396C352.698 50.0471 321.955 68.0289 299.309 53.2132" stroke="#7C6656" stroke-width="6" stroke-linecap="round" stroke-linejoin="round"/>
<g filter="url(#filter0_f_888_32171)">
<ellipse cx="21.5614" cy="12.6036" rx="21.5614" ry="12.6036" transform="matrix(0.991598 0.129361 -0.131199 0.991356 357.493 176.466)" fill="#F5B0B0"/>
</g>
<g filter="url(#filter1_f_888_32171)">
<ellipse cx="21.5614" cy="12.6036" rx="21.5614" ry="12.6036" transform="matrix(0.991598 0.129361 -0.131199 0.991356 243.813 165.013)" fill="#F5B0B0"/>
</g>
<path d="M291.432 155.28C290.731 162.047 284.689 166.953 277.946 166.252C271.178 165.551 266.272 159.509 266.973 152.766C267.674 145.999 273.716 141.092 280.459 141.793C287.227 142.494 292.133 148.536 291.432 155.28Z" fill="#7C6656"/>
<path d="M375.296 163.91C374.595 170.678 368.553 175.584 361.81 174.883C355.043 174.182 350.136 168.14 350.837 161.397C351.538 154.629 357.58 149.723 364.324 150.424C371.091 151.125 375.997 157.167 375.296 163.91Z" fill="#7C6656"/>
<path d="M348.227 187.862C348.227 187.862 335.877 195.186 318.282 190.642C296.699 185.059 291.479 174.618 291.479 174.618" stroke="#7C6656" stroke-width="6" stroke-linecap="round" stroke-linejoin="round"/>
<path d="M457.668 381.549L462.139 384.86C462.139 384.86 463.202 388.968 459.674 394.793C456.145 400.618 455.347 402.527 446.018 403.446C445.027 402.189 441.547 397.162 441.547 397.162C441.547 397.162 448.121 398.515 451.915 396.364C456.097 394.02 456.363 388.92 457.668 381.524V381.549Z" fill="#E1B995"/>
<path d="M419.938 381.575C419.938 381.575 432.216 394.843 425.618 410.626C430.621 412.729 449.836 410.553 444.301 400.475C438.549 394.288 433.401 383.049 433.401 383.049L419.938 381.575Z" fill="#E1B995"/>
<path d="M454.862 369.301C454.862 369.301 444.155 374.594 438.088 369.277C431.998 363.96 432.457 347.694 424.094 342.595C415.732 337.495 409.665 348.637 400.965 345.857C392.264 343.078 390.185 338.873 395.067 334.546C399.95 330.22 408.554 327.126 408.554 327.126C408.554 327.126 433.037 309.459 435.647 310.812C436.251 318.208 434.366 335.126 434.366 335.126C434.366 335.126 455.514 318.836 462.112 322.921C460.251 329.084 453.557 347.308 453.557 347.308C453.557 347.308 460.276 351.658 454.837 369.301H454.862Z" fill="#E1B995"/>
<path d="M252.472 275.397C252.472 275.397 251.167 336.569 251.07 359.24C250.973 381.911 245.27 397.572 245.27 397.572" stroke="#7C6656" stroke-width="6" stroke-linecap="round" stroke-linejoin="round"/>
<path d="M247.709 397.553C247.709 397.553 238.476 399.366 237.485 405.36C236.494 411.354 238.476 419.088 254.452 419.329C270.428 419.571 279.322 410.604 282.995 394.87C286.669 379.136 292.905 352.937 292.905 352.937C292.905 352.937 320.264 355.185 326.5 351.68" stroke="#7C6656" stroke-width="6" stroke-linecap="round" stroke-linejoin="round"/>
<path d="M316.47 353.513C316.47 353.513 322.004 402.383 326.5 408.377C330.995 414.371 344.216 416.619 353.448 415.603C362.681 414.613 365.678 407.628 363.672 403.374C361.666 399.12 356.929 397.549 356.929 397.549" stroke="#7C6656" stroke-width="6" stroke-linecap="round" stroke-linejoin="round"/>
<path d="M354.438 268.1C354.438 268.1 363.67 296.064 360.673 328.499C357.676 360.958 351.296 370.939 357.845 396.389" stroke="#7C6656" stroke-width="6" stroke-linecap="round" stroke-linejoin="round"/>
<path d="M434.394 331.932C434.394 331.932 437.947 312.863 435.675 310.784C433.427 308.706 411.796 322.893 408.582 327.098C408.582 327.098 391.156 330.965 389.536 341.455C387.917 351.944 390.503 365.503 404.69 374.856C418.878 384.21 441.161 387.449 451.482 374.856C461.802 362.264 453.584 347.304 453.584 347.304C453.584 347.304 462.14 324.851 462.14 322.917C462.14 320.984 439.228 327.63 434.394 335.123" stroke="#7C6656" stroke-width="6" stroke-linecap="round" stroke-linejoin="round"/>
<path d="M413.1 390.03C413.1 390.03 406.961 417.462 409.861 418.743C412.762 420.024 418.562 422.513 423.42 399.819" stroke="#7C6656" stroke-width="6" stroke-linecap="round" stroke-linejoin="round"/>
<path d="M399.54 371.569C399.54 371.569 384.87 369.056 384.217 358.735C384.217 358.735 383.565 351.315 378.078 352.282C372.592 353.249 372.278 364.536 380.664 375.194C389.051 385.853 399.54 386.361 399.54 386.361" stroke="#7C6656" stroke-width="6" stroke-linecap="round" stroke-linejoin="round"/>
<path d="M399.539 379.378C399.539 379.378 399.539 384.864 402.439 392.937" stroke="#7C6656" stroke-width="6" stroke-linecap="round" stroke-linejoin="round"/>
<path d="M400.99 392.934C400.99 392.934 394.706 396.801 398.041 404.777C401.957 409.949 407.612 409.707 407.612 409.707" stroke="#7C6656" stroke-width="6" stroke-linecap="round" stroke-linejoin="round"/>
<path d="M434.704 384.865C434.704 384.865 437.943 395.185 440.505 396.804C443.091 398.424 448.891 406.81 437.604 409.711C426.317 412.611 423.417 411.958 423.417 411.958" stroke="#7C6656" stroke-width="6" stroke-linecap="round" stroke-linejoin="round"/>
<path d="M447.297 334.521C447.297 334.521 442.125 340.635 441.81 341.457C441.496 342.279 437.943 340.007 437.943 340.007" stroke="#7C6656" stroke-width="6" stroke-linecap="round" stroke-linejoin="round"/>
<path d="M426.175 324.198L423.419 331.932L418.247 329.998" stroke="#7C6656" stroke-width="6" stroke-linecap="round" stroke-linejoin="round"/>
<path d="M437.942 356.466C437.942 356.466 440.842 351.56 422.208 351.56" stroke="#7C6656" stroke-width="6" stroke-linecap="round" stroke-linejoin="round"/>
<path d="M405.99 337.713C405.99 337.713 413.918 336.215 416.238 347.308" stroke="#7C6656" stroke-width="6" stroke-linecap="round" stroke-linejoin="round"/>
<path d="M419.938 354.025H414.38L413.099 349.699" stroke="#7C6656" stroke-width="6" stroke-linecap="round" stroke-linejoin="round"/>
<path d="M413.654 351.56C413.654 351.56 403.6 363.113 409.086 368.358C414.573 373.602 418.246 355.016 418.246 355.016" stroke="#7C6656" stroke-width="6" stroke-linecap="round" stroke-linejoin="round"/>
<path d="M442.608 396.975C443.599 395.984 445.098 395.597 446.5 396.105C446.596 396.153 448.554 396.806 450.222 396.008C451.333 395.476 452.204 394.292 452.808 392.479C455.345 384.914 458.802 374.522 469.799 376.624C471.805 377.035 473.061 378.896 472.675 380.878C472.288 382.836 470.403 384.141 468.421 383.754C464.844 383.078 463.08 384.576 459.672 394.775C458.101 399.513 455.297 401.639 453.243 402.606C450.512 403.887 447.805 403.766 446.016 403.452" stroke="#7C6656" stroke-width="6" stroke-linecap="round" stroke-linejoin="round"/>
<path d="M220.662 218.043C220.662 218.043 206.475 171.373 180.058 179.929C153.641 188.485 179.116 227.518 183.103 233.101C187.091 238.684 189.847 246.877 190.113 263.602C190.403 280.327 194.052 302.587 222.209 305.342C249.061 307.977 272.916 287.868 270.16 254.925C267.164 218.986 236.469 211.735 220.662 218.092V218.043Z" fill="white" stroke="#7C6656" stroke-width="6" stroke-linecap="round" stroke-linejoin="round"/>
<path d="M220.663 218.046C220.663 218.046 209.497 223.677 204.301 231.895" stroke="#7C6656" stroke-width="6" stroke-linecap="round" stroke-linejoin="round"/>
<path d="M355.646 256.281C355.646 256.281 380.855 267.761 381.387 282.794C381.918 297.827 363.042 317.042 363.042 317.042" stroke="#7C6656" stroke-width="6" stroke-linecap="round" stroke-linejoin="round"/>
<path d="M370.851 310.595C370.851 310.595 380.035 326.957 361.836 328.963" stroke="#7C6656" stroke-width="6" stroke-linecap="round" stroke-linejoin="round"/>
<path d="M334.404 255.824C334.404 255.824 332.06 267.159 309.969 267.159C287.879 267.159 277.269 251.087 277.269 251.087" stroke="#7C6656" stroke-width="6" stroke-linecap="round" stroke-linejoin="round"/>
<path d="M245.242 397.553C245.242 397.553 250.39 408.188 277.266 406.52" stroke="#7C6656" stroke-width="6" stroke-linecap="round" stroke-linejoin="round"/>
<path d="M326.478 408.357C347.07 411.837 356.931 397.553 356.931 397.553" stroke="#7C6656" stroke-width="6" stroke-linecap="round" stroke-linejoin="round"/>
<path d="M251.745 310.713C251.745 310.713 258.754 315.982 268.76 310.713C278.766 305.469 285.195 284.925 285.195 284.925C306.657 280.719 342.959 286.786 342.959 286.786C342.959 286.786 345.787 300.296 351.177 306.967C355.527 312.333 361.255 313.033 361.255 313.033" stroke="#7C6656" stroke-width="6" stroke-linecap="round" stroke-linejoin="round"/>
<path d="M344.653 255.894C344.653 255.894 345.813 277.84 342.985 286.806" stroke="#7C6656" stroke-width="6" stroke-linecap="round" stroke-linejoin="round"/>
<path d="M285.195 284.927C285.195 284.927 281.062 256.383 273.376 250.486" stroke="#7C6656" stroke-width="6" stroke-linecap="round" stroke-linejoin="round"/>
<path d="M370.197 267.159C370.197 267.159 368.651 275.667 360.191 279.51" stroke="#7C6656" stroke-width="6" stroke-linecap="round" stroke-linejoin="round"/>
<defs>
<filter id="filter0_f_888_32171" x="346.363" y="169.533" width="61.7141" height="44.4333" filterUnits="userSpaceOnUse" color-interpolation-filters="sRGB">
<feFlood flood-opacity="0" result="BackgroundImageFix"/>
<feBlend mode="normal" in="SourceGraphic" in2="BackgroundImageFix" result="shape"/>
<feGaussianBlur stdDeviation="4.70586" result="effect1_foregroundBlur_888_32171"/>
</filter>
<filter id="filter1_f_888_32171" x="232.683" y="158.08" width="61.7141" height="44.4333" filterUnits="userSpaceOnUse" color-interpolation-filters="sRGB">
<feFlood flood-opacity="0" result="BackgroundImageFix"/>
<feBlend mode="normal" in="SourceGraphic" in2="BackgroundImageFix" result="shape"/>
<feGaussianBlur stdDeviation="4.70586" result="effect1_foregroundBlur_888_32171"/>
</filter>
</defs>
</svg>
