<svg width="256" height="256" viewBox="0 0 256 256" fill="none" xmlns="http://www.w3.org/2000/svg">
<g clip-path="url(#clip0_522_14194)">
<path opacity="0.4" d="M128 232C167.765 232 200 227.971 200 223C200 218.029 167.765 214 128 214C88.2355 214 56 218.029 56 223C56 227.971 88.2355 232 128 232Z" fill="#E1D6CF"/>
<path d="M51.0909 180.838L54.2931 182.439L57.4954 185.107L64.4336 190.445L72.973 192.579L78.3101 190.978L81.5124 188.843L85.2483 185.107L86.3158 181.371L95.9225 182.439L104.996 185.107L93.254 202.72L92.1866 206.456L93.254 210.192L99.1248 216.063L104.996 217.664L106.597 217.13L107.664 213.928L106.597 211.793L107.13 210.726L110.333 205.922L130.08 173.9L146.625 150.416L173.844 129.068L178.648 125.332L183.985 119.995L187.721 113.59L188.788 106.652V100.247L184.518 86.9047L182.917 81.0339L177.047 71.4271L170.642 63.9552L159.968 56.4832L146.091 51.1461L139.687 50.6124L135.417 49.0113L126.344 47.4102H117.805L110.866 49.0113L100.726 54.3484L94.8551 60.7529L89.518 68.7586L85.782 77.2979L83.1135 87.4384L79.3775 95.4441L77.7764 105.051L79.9112 116.793L86.3158 128L90.5854 132.804L83.6472 138.675L76.709 146.147L73.5067 153.619L70.8381 163.225L69.7707 171.231L68.7033 175.501L67.6359 174.433L65.501 172.298L62.8325 170.697L59.6302 169.63L55.8943 170.164L51.0909 173.9L50.0234 175.501V178.169L51.0909 180.838Z" fill="white"/>
<g filter="url(#filter0_f_522_14194)">
<path d="M103.738 112.653C108.348 115.891 113.623 116.334 115.521 113.642C117.418 110.951 115.219 106.145 110.609 102.907C105.999 99.6695 100.723 99.2266 98.826 101.918C96.9285 104.609 99.1275 109.415 103.738 112.653Z" fill="#F5B0B0"/>
</g>
<path d="M142.253 133.743C142.253 133.743 135.411 136.539 128.024 132.526C120.648 128.512 119.527 121.382 119.527 121.382" stroke="#7C6656" stroke-width="2.5" stroke-linecap="round" stroke-linejoin="round"/>
<path d="M173.122 123.655C172.332 125.011 171.467 126.367 170.549 127.722C169.909 130.615 168.703 139.656 160.985 147.832C153.268 156.009 142.348 159.852 123.69 152.903C123.69 152.903 112.151 148.142 108.98 145.569" stroke="#7C6656" stroke-width="2.5" stroke-linecap="round" stroke-linejoin="round"/>
<path d="M101.807 141.685C91.7621 136.006 82.2727 125.257 79.4654 114.37C77.1491 105.414 77.0424 95.0387 87.4818 79.7959" stroke="#7C6656" stroke-width="2.5" stroke-linecap="round" stroke-linejoin="round"/>
<path d="M85.3789 78.2693C100.494 33.587 140.02 50.4096 140.02 50.4096C175.619 53.3557 184.905 87.4171 184.905 87.4171C184.905 87.4171 197.864 112.587 178.319 125.14" stroke="#7C6656" stroke-width="2.5" stroke-linecap="round" stroke-linejoin="round"/>
<path d="M140.02 65.6094C140.02 65.6094 127.606 82.9763 137.757 99.2545" stroke="#7C6656" stroke-width="2.5" stroke-linecap="round" stroke-linejoin="round"/>
<path d="M124.564 108.788C124.35 108.617 124.179 108.393 124.073 108.126L120.347 98.8928C120.017 98.0708 120.411 97.1422 121.233 96.8113C122.055 96.4804 122.984 96.8753 123.315 97.6973L127.04 106.93C127.371 107.752 126.976 108.681 126.154 109.012C125.599 109.236 125.001 109.129 124.564 108.788Z" fill="#7C6656"/>
<path d="M114.477 107.623C114.039 107.282 113.794 106.716 113.89 106.129C114.018 105.254 114.84 104.656 115.715 104.784L125.557 106.268C126.432 106.406 127.03 107.218 126.902 108.093C126.774 108.968 125.952 109.566 125.076 109.438L115.235 107.954C114.947 107.911 114.69 107.794 114.477 107.623Z" fill="#7C6656"/>
<path d="M148.591 121.894C148.815 122.044 149.082 122.129 149.371 122.14L159.308 122.62C160.194 122.663 160.941 121.98 160.984 121.094C161.027 120.208 160.344 119.461 159.458 119.418L149.52 118.938C148.634 118.895 147.887 119.578 147.844 120.464C147.812 121.062 148.111 121.596 148.581 121.894H148.591Z" fill="#010101"/>
<path d="M153.011 131.043C153.481 131.341 154.089 131.384 154.623 131.107C155.402 130.69 155.701 129.73 155.295 128.94L150.663 120.133C150.247 119.354 149.286 119.045 148.496 119.461C147.717 119.877 147.418 120.838 147.823 121.628L152.456 130.434C152.595 130.69 152.787 130.893 153.011 131.043Z" fill="#010101"/>
<path d="M98.3038 183.304C98.3038 183.304 87.8858 181.937 85.9004 182.172C84.4914 188.022 80.5526 191.501 74.0093 191.939C61.766 192.974 57.1868 184.873 55.3828 181.809C56.7705 174.134 65.6087 171.573 65.6087 172.32C65.6087 173.067 67.8396 174.391 69.3233 176.269C68.8857 171.594 69.3767 162.425 70.9992 157.365C79.2824 164.816 110.259 173.078 112.992 173.9C111.721 179.322 111.358 177.326 113.194 183.207C115.03 189.089 117.09 197.735 106.171 211.323C102.648 210 96.0836 205.378 93.3723 201.994C96.1156 197.703 101.004 192.227 98.3038 183.304Z" fill="#8FBDE2"/>
<path d="M69.6451 178.617C67.1687 146.296 89.4671 133.081 89.4671 133.081" stroke="#7C6656" stroke-width="2.5" stroke-linecap="round" stroke-linejoin="round"/>
<path d="M98.8919 183.602C97.4829 182.406 85.9121 181.819 85.9121 181.819C85.9121 181.819 83.1582 194.031 68.9935 191.629C58.2872 189.814 55.3945 181.819 55.3945 181.819" stroke="#7C6656" stroke-width="2.5" stroke-linecap="round" stroke-linejoin="round"/>
<path d="M98.8932 183.602C98.8932 183.602 99.2881 193.646 97.0892 196.368C94.901 199.101 91.8268 204.982 92.1257 207.8C92.4246 210.618 96.4061 215.966 103.045 217.087C109.685 218.197 107.208 213.063 106.162 211.334C106.162 211.334 110.026 205.74 111.638 201.78C114.862 193.871 115.31 189.249 113.218 182.631C109.685 171.465 126.635 151.12 127.148 149.178" stroke="#7C6656" stroke-width="2.5" stroke-linecap="round" stroke-linejoin="round"/>
<path d="M71.875 158.55C71.875 158.55 89.765 168.979 112.992 173.899" stroke="#7C6656" stroke-width="2.5" stroke-linecap="round" stroke-linejoin="round"/>
<path d="M69.325 176.28C69.325 176.28 62.9419 166.545 55.3845 170.473C47.8272 174.401 47.2294 181.136 55.3845 183.207" stroke="#7C6656" stroke-width="2.5" stroke-linecap="round" stroke-linejoin="round"/>
<path d="M174.221 150.17C182.995 167.462 192.389 180.239 197.939 183.911C200.256 185.448 203.319 183.537 202.945 180.784C199.316 153.596 182.643 138.172 179.035 135.109C178.598 134.735 178.267 134.255 178.064 133.71C176.74 130.017 170.346 115.319 152.328 115.255C152.126 115.255 151.923 115.233 151.72 115.19C149.222 114.678 131.279 111.465 123.786 122.492C117.733 131.383 119.366 140.211 120.562 144.075C120.935 145.281 120.583 146.594 119.644 147.437C116.933 149.86 111.51 155.731 107.892 166.384C102.907 181.082 90.3965 191.49 95.0825 195.236C99.7684 198.983 108.991 199.186 110.816 195.236C112.642 191.287 117.082 175.777 117.082 175.777C117.082 175.777 111.19 197.873 112.247 201.363C113.303 204.854 114.969 214.503 131.951 221.004C147.034 227.184 154.858 217.129 151.304 215.005C158.423 218.325 172.844 212.849 164.657 208.857C156.47 204.865 152.115 204.811 149.179 199.784C152.574 197.926 153.044 197.457 152.328 194.607C151.613 191.757 152.883 188.917 152.883 188.917C152.883 188.917 155.733 188.458 154.154 185.523C152.574 182.587 148.123 176.791 146.479 171.86C144.835 166.928 144.195 156.5 144.195 155.859C150.674 156.329 158.701 155.496 158.701 155.496C158.701 155.496 155.499 195.866 170.325 200.766C175.032 200.766 175.289 181.744 175.289 181.744C175.289 181.744 176.132 158.859 174.232 150.159L174.221 150.17Z" fill="#FDEEF6"/>
<path d="M117.082 175.788C117.082 175.788 112.642 191.287 110.816 195.247C108.991 199.197 99.7684 198.983 95.0825 195.247C90.3965 191.511 102.907 181.093 107.892 166.395C111.51 155.742 116.933 149.871 119.644 147.448C120.583 146.605 120.935 145.292 120.562 144.086C119.366 140.222 117.733 131.394 123.786 122.503C131.279 111.476 149.233 114.7 151.72 115.201C151.923 115.244 152.126 115.266 152.328 115.266C170.346 115.34 176.74 130.028 178.064 133.721C178.256 134.266 178.587 134.746 179.035 135.12C182.654 138.172 199.327 153.607 202.945 180.795C203.308 183.548 200.256 185.459 197.939 183.922C192.389 180.239 184.554 173.899 174.221 150.181" stroke="#DA929C" stroke-width="2.5" stroke-linecap="round" stroke-linejoin="round"/>
<path d="M111.669 193.081C111.669 193.081 110.026 205.986 119.75 213.821C129.474 221.645 136.199 223.075 143.468 221.645C147.449 220.866 155.092 218.325 151.292 215.006C147.492 211.686 137.885 210.362 133.199 204.022" stroke="#DA929C" stroke-width="2.5" stroke-linecap="round" stroke-linejoin="round"/>
<path d="M172.406 142.347C172.406 142.347 179.333 168.52 172.854 199.027C172.342 201.45 169.225 202.208 167.688 200.265C161.497 192.419 156.32 182.482 158.999 151.43" fill="#FDEEF6"/>
<path d="M172.406 142.347C172.406 142.347 179.333 168.52 172.854 199.027C172.342 201.45 169.225 202.208 167.688 200.265C161.497 192.419 156.32 182.482 158.999 151.43" stroke="#DA929C" stroke-width="2.5" stroke-linecap="round" stroke-linejoin="round"/>
<path d="M157.228 155.508C157.228 155.508 145.369 157.931 133.51 152.903L157.228 155.508Z" fill="white"/>
<path d="M157.228 155.508C157.228 155.508 145.369 157.931 133.51 152.903" stroke="#DA929C" stroke-width="2.5" stroke-linecap="round" stroke-linejoin="round"/>
<path d="M144.418 182.267C142.753 179.417 143.949 156.34 143.949 156.34C143.949 156.34 145.294 176.418 151.463 182.267C157.633 188.117 153.406 189.921 153.406 189.921" stroke="#DA929C" stroke-width="2.5" stroke-linecap="round" stroke-linejoin="round"/>
<path d="M141.707 181.799C139.978 182.076 138.516 183.528 138.206 185.246C137.096 184.766 135.698 185.054 134.865 185.93C134.032 186.815 133.83 188.224 134.374 189.303C132.218 189.932 131.204 192.953 132.559 194.757C133.467 195.974 135.047 196.465 136.199 197.468C137.213 198.354 137.875 199.625 138.985 200.393C140.095 201.162 142.017 201.044 142.38 199.742C143.127 201.162 145.091 201.781 146.521 201.055C147.952 200.329 148.603 198.376 147.898 196.935C149.158 198.44 151.89 198.269 152.958 196.625C154.025 194.981 153.075 192.419 151.197 191.875C152.776 190.338 152.979 187.605 151.645 185.855C150.268 184.051 148.517 184.606 146.703 183.859C144.91 183.112 143.981 181.436 141.718 181.799H141.707Z" fill="white" stroke="#DA929C" stroke-width="2.5" stroke-linecap="round" stroke-linejoin="round"/>
<path d="M148.506 198.717C148.506 198.717 150.822 203.851 160.151 206.979C169.481 210.106 167.111 212.156 163.631 214.216C159.041 217.183 157.227 217.375 151.292 215.006" stroke="#DA929C" stroke-width="2.5" stroke-linecap="round" stroke-linejoin="round"/>
<path d="M165.212 149.029C165.212 150.171 162.522 183.656 168.852 193.082C168.852 193.082 170.592 183.197 170.272 174.989" stroke="#DA929C" stroke-width="2.5" stroke-linecap="round" stroke-linejoin="round"/>
<path d="M176.91 144.321C176.91 144.321 188.3 171.519 197.789 177.689C197.789 177.689 195.419 168.989 192.729 164.56" stroke="#DA929C" stroke-width="2.5" stroke-linecap="round" stroke-linejoin="round"/>
<g filter="url(#filter1_f_522_14194)">
<path d="M130.389 130.038C132.522 133.771 136.571 135.478 139.434 133.85C142.296 132.222 142.887 127.876 140.754 124.142C138.622 120.408 134.572 118.702 131.71 120.33C128.848 121.958 128.256 126.304 130.389 130.038Z" fill="#F4B5D2"/>
</g>
<path d="M85.6035 144.888C88.6243 166.396 108.884 166.61 108.884 166.61C108.884 166.61 114.018 175.693 121.149 170.719C128.279 165.745 125.824 158.401 122.472 156.266C119.121 154.132 113.794 152.872 110.538 156.288C110.538 156.288 105.554 157.697 97.9856 146.713" fill="white"/>
<path d="M85.6035 144.888C88.6243 166.396 108.884 166.61 108.884 166.61C108.884 166.61 114.018 175.693 121.149 170.719C128.279 165.745 125.824 158.401 122.472 156.266C119.121 154.132 113.794 152.872 110.538 156.288C110.538 156.288 105.554 157.697 97.9856 146.713" stroke="#7C6656" stroke-width="2.5" stroke-linecap="round" stroke-linejoin="round"/>
<path d="M127.157 69.795C127.157 69.795 107.975 67.4893 96.7461 81.3551" stroke="#7C6656" stroke-width="2.5" stroke-linecap="round" stroke-linejoin="round"/>
<path d="M155.274 84.7275C155.274 84.7275 153.438 103.621 160.996 112.086" stroke="#7C6656" stroke-width="2.5" stroke-linecap="round" stroke-linejoin="round"/>
<path d="M164.101 79.059C164.101 79.059 156.586 79.4433 155.262 84.727C154.248 88.7832 155.636 91.1636 161.037 96.7889C166.449 102.414 180.635 100.343 189.495 94.3659C186.26 88.1428 180.688 76.4545 164.09 79.059H164.101Z" fill="#1AAF92"/>
<path d="M155.818 89.6911C155.818 89.6911 164.187 111.328 189.89 94.1209C189.89 94.1209 181.511 72.9326 158.113 80.4365" stroke="#7C6656" stroke-width="2.5" stroke-linecap="round" stroke-linejoin="round"/>
<path d="M173.123 90.2993C173.059 90.5235 157.72 90.2993 152.66 79.7959" stroke="#7C6656" stroke-width="2.5" stroke-linecap="round" stroke-linejoin="round"/>
<path d="M195.067 48.9793C194.597 51.2636 191.502 52.5445 188.161 51.8507C184.82 51.1569 182.493 48.7445 182.963 46.4602C183.432 44.1759 186.528 42.895 189.869 43.5889C193.21 44.2827 195.537 46.6951 195.067 48.9793Z" fill="#7C6656" stroke="#7C6656" stroke-width="2.5" stroke-linecap="round" stroke-linejoin="round"/>
<path d="M197.383 37.8779L198.557 33.5869C198.557 33.5869 203.296 34.4195 204.46 38.433C205.623 42.4465 207.523 42.1583 209.594 42.2757C209.594 42.2757 206.499 44.56 203.264 42.4465C200.03 40.333 200.521 37.1841 197.383 37.8886" fill="#7C6656"/>
<path d="M197.383 37.8779L198.557 33.5869C198.557 33.5869 203.296 34.4195 204.46 38.433C205.623 42.4465 207.523 42.1583 209.594 42.2757C209.594 42.2757 206.499 44.56 203.264 42.4465C200.03 40.333 200.521 37.1841 197.383 37.8886" stroke="#7C6656" stroke-width="2.5" stroke-linecap="round" stroke-linejoin="round"/>
<path d="M197.938 33L194.715 48.7445" stroke="#7C6656" stroke-width="2.5" stroke-linecap="round" stroke-linejoin="round"/>
<path d="M206.489 84.3322C205.09 86.2002 201.749 86.0508 199.017 84.0013C196.284 81.9519 195.206 78.7817 196.604 76.9243C198.003 75.0564 201.344 75.2058 204.076 77.2552C206.809 79.3047 207.887 82.4749 206.489 84.3322Z" fill="#7C6656" stroke="#7C6656" stroke-width="2.5" stroke-linecap="round" stroke-linejoin="round"/>
<path d="M201.462 72.0675C200.608 73.2096 198.548 73.1242 196.872 71.8646C195.196 70.6051 194.535 68.6624 195.389 67.5202C196.242 66.3781 198.303 66.4635 199.978 67.7231C201.654 68.9826 202.316 70.9253 201.462 72.0675Z" fill="#7C6656" stroke="#7C6656" stroke-width="2.5" stroke-linecap="round" stroke-linejoin="round"/>
<path d="M206.274 83.9799L215.871 71.0962C215.871 71.0962 214.024 70.6265 213.213 68.6838C212.401 66.7304 211.142 61.6281 209.391 60.7422L201.834 70.7012" stroke="#7C6656" stroke-width="2.5" stroke-linecap="round" stroke-linejoin="round"/>
<path d="M213.928 73.2212C213.928 73.2212 212.999 73.1038 211.473 71.4173C210 69.7948 211.665 66.4004 207.598 63.3049L205.922 65.3117C205.922 65.3117 208.164 67.0729 208.345 69.5066C208.516 71.7482 209.968 73.2639 209.968 73.2639C209.968 73.2639 208.047 72.1965 207.171 69.7842C206.296 67.3718 204.93 67.1263 204.93 67.1263L209.402 60.7324C209.402 60.7324 211.067 62.547 212.145 65.6105C213.224 68.674 215.881 71.0864 215.881 71.0864L213.939 73.2212H213.928Z" fill="#7C6656" stroke="#7C6656" stroke-width="2.5" stroke-linecap="round" stroke-linejoin="round"/>
<path d="M150.651 120.144C150.651 120.144 155.529 120.464 155.476 122.449C155.422 124.435 149.957 125.299 149.957 125.299" stroke="#DA929C" stroke-width="2.5" stroke-linecap="round" stroke-linejoin="round"/>
<path d="M99.3943 148.634C99.3943 148.634 95.9145 152.38 90.1504 154.494" stroke="#7C6656" stroke-width="2.5" stroke-linecap="round" stroke-linejoin="round"/>
<path d="M102.555 142.56C102.555 142.56 103.462 151.046 114.104 153.821" stroke="#7C6656" stroke-width="2.5" stroke-linecap="round" stroke-linejoin="round"/>
<path d="M65.1405 171.86C65.1405 171.86 56.8466 174.006 54.8398 182.14" stroke="#7C6656" stroke-width="2.5" stroke-linecap="round" stroke-linejoin="round"/>
<path d="M93.375 202.72C93.375 202.72 99.534 209.743 106.173 211.323" stroke="#7C6656" stroke-width="2.5" stroke-linecap="round" stroke-linejoin="round"/>
</g>
<defs>
<filter id="filter0_f_522_14194" x="96.1445" y="98.1567" width="22.0586" height="19.2466" filterUnits="userSpaceOnUse" color-interpolation-filters="sRGB">
<feFlood flood-opacity="0" result="BackgroundImageFix"/>
<feBlend mode="normal" in="SourceGraphic" in2="BackgroundImageFix" result="shape"/>
<feGaussianBlur stdDeviation="1" result="effect1_foregroundBlur_522_14194"/>
</filter>
<filter id="filter1_f_522_14194" x="127.107" y="117.713" width="16.9277" height="18.7539" filterUnits="userSpaceOnUse" color-interpolation-filters="sRGB">
<feFlood flood-opacity="0" result="BackgroundImageFix"/>
<feBlend mode="normal" in="SourceGraphic" in2="BackgroundImageFix" result="shape"/>
<feGaussianBlur stdDeviation="1" result="effect1_foregroundBlur_522_14194"/>
</filter>
<clipPath id="clip0_522_14194">
<rect width="256" height="256" fill="white"/>
</clipPath>
</defs>
</svg>
