<svg width="256" height="256" viewBox="0 0 256 256" fill="none" xmlns="http://www.w3.org/2000/svg">
<g clip-path="url(#clip0_522_13982)">
<path opacity="0.4" d="M96.4641 215.272C60.7162 215.272 31.7368 211.365 31.7368 206.545C31.7368 201.725 60.7162 197.818 96.4641 197.818C132.212 197.818 161.191 201.725 161.191 206.545C161.191 211.365 132.212 215.272 96.4641 215.272Z" fill="#E1D6CF"/>
<path d="M74.2608 114.947C75.7154 123.674 77.776 128.037 78.6245 129.128L79.3517 134.219L75.7154 131.674L62.9881 127.31L52.4426 126.219L44.079 128.037L39.7154 132.037L37.8972 136.765L37.1699 141.856L40.079 147.31L45.8972 149.492L51.7154 148.401L54.9881 145.492V142.219L64.8063 144.401L75.3517 150.219L80.8063 156.401L82.2608 161.128L78.9881 170.219L75.7154 173.492L70.9881 173.856L63.7154 176.765L59.3517 179.31L53.8972 185.492L51.7154 192.037L50.9881 195.674L49.8972 197.492L50.6245 200.401L53.1699 202.583L56.4426 204.037L62.2608 204.765L67.3517 203.31L70.2608 200.401L69.5336 197.492V194.219L71.7154 190.583L75.7154 188.765L79.7154 187.31L85.1699 186.947H88.4426L91.3517 188.037L96.4426 190.219L105.534 190.583L112.443 190.219L121.17 193.856L122.988 197.128V202.219L124.443 205.856L129.897 207.674H136.079L140.079 206.583L142.624 203.674V201.492L141.534 199.31L141.17 197.128L140.806 194.583L138.988 188.765L134.988 184.765L130.988 181.492L135.352 175.31L137.17 169.128L139.715 168.765L149.17 170.947H161.897L169.897 174.947L168.443 178.219L169.534 184.401L174.988 188.037L181.17 187.31L184.079 185.492L186.261 181.492L186.988 177.856L185.17 170.219L181.534 166.583L177.534 161.856L178.624 158.219L179.715 149.856L178.624 141.856L184.443 126.219L188.443 118.947L191.715 112.401V102.947L188.443 93.8556L181.897 84.4011L172.079 76.0375L156.079 67.6738L137.534 63.6738L123.352 64.4011L114.988 66.5829L107.352 67.3102L99.3517 69.492L92.079 72.4011L83.3517 79.3102L77.5336 88.7647L74.2608 100.037V114.947Z" fill="white"/>
<g filter="url(#filter0_f_522_13982)">
<path d="M161 149.947L163.743 154.368L165.571 149L169.686 154.368L171.057 149L177 155" stroke="#F5B0B0" stroke-width="5" stroke-linecap="round" stroke-linejoin="round"/>
</g>
<g filter="url(#filter1_f_522_13982)">
<path d="M99 142.579L102.771 149.947L105.286 141L110.943 149.947L112.829 141L121 151" stroke="#F5B0B0" stroke-width="5" stroke-linecap="round" stroke-linejoin="round"/>
</g>
<path d="M129.537 181.744C137.705 183.68 140.378 192.723 141.011 199.554C140.285 201.893 130.528 203.966 122.959 203.229C124.1 193.046 119.572 193.391 112.338 190.592C98.1337 192.308 88.0882 186.836 88.0882 186.836C88.0882 186.836 83.941 185.73 77.2479 187.85C70.5548 189.97 69.9327 193.253 69.9557 199.439C56.7077 202.492 54.0697 197.435 51.8809 195.257C53.1596 175.431 70.0825 174.844 74.414 174.003L78.7455 170.893C78.7455 170.893 90.8415 181.952 107.269 183.207C123.697 184.463 126.381 185.223 129.514 181.744H129.537Z" fill="#8FBDE2"/>
<path d="M79.2076 115.238C78.7122 121.344 78.3206 127.853 79.8412 134.673" stroke="#7C6656" stroke-width="2.5" stroke-linecap="round" stroke-linejoin="round"/>
<path d="M89.8164 144.466C90.8417 162.978 110.299 173.392 127.026 169.983C143.753 166.573 144.087 169.983 150.239 170.823C156.379 171.664 170.721 173.738 176.862 162.391C183.002 151.044 177.887 142.196 177.887 142.196C177.887 142.196 183.255 135.019 184.591 121.195" stroke="#7C6656" stroke-width="2.5" stroke-linecap="round" stroke-linejoin="round"/>
<path d="M90.4739 149.016C90.2435 147.967 82.3063 132.934 71.3853 129.616C60.4643 126.298 45.1082 123.222 38.9565 133.637C32.8048 144.051 41.6291 150.859 48.7946 149.43C55.7527 148.048 56.1559 142.254 53.633 136.54" stroke="#7C6656" stroke-width="2.5" stroke-linecap="round" stroke-linejoin="round"/>
<path d="M130.622 181.63C136.382 184.672 141.75 190.074 141.013 199.555C141.013 199.555 143.823 200.281 143.063 203.507C142.291 206.721 131.797 210.016 125.403 206.709C118.998 203.403 128.502 196.998 117.719 192.494C110.127 189.326 115.265 190.766 104.84 190.72C94.4257 190.673 88.1012 186.837 88.1012 186.837C88.1012 186.837 82.825 185.443 75.2218 188.611C64.4391 193.104 73.9431 199.509 67.538 202.827C61.1329 206.133 50.6381 202.85 49.8778 199.624C49.106 196.41 51.9284 195.673 51.9284 195.673C50.3962 175.962 75.2218 173.912 75.2218 173.912C80.3367 170.836 82.249 160.341 82.249 160.341C79.0349 144.985 55.0388 142.197 55.0388 142.197" stroke="#7C6656" stroke-width="2.5" stroke-linecap="round" stroke-linejoin="round"/>
<path d="M176.793 162.494C182.945 166.757 187.783 172.367 186.297 179.475C184.051 190.188 174.006 189.359 170.077 184.037C166.264 178.864 169.524 174.751 174.708 172.459" stroke="#7C6656" stroke-width="2.5" stroke-linecap="round" stroke-linejoin="round"/>
<path d="M162.969 171.262C167.3 173.232 170.307 175.397 170.307 175.397" stroke="#7C6656" stroke-width="2.5" stroke-linecap="round" stroke-linejoin="round"/>
<path d="M137.29 168.531C136.599 168.577 135.39 186.191 112.35 187.608" stroke="#7C6656" stroke-width="2.5" stroke-linecap="round" stroke-linejoin="round"/>
<path d="M51.9277 195.672C51.9277 195.672 57.0772 202.135 69.9796 198.679" stroke="#7C6656" stroke-width="2.5" stroke-linecap="round" stroke-linejoin="round"/>
<path d="M35.373 149.615C35.373 149.615 37.2508 154.626 43.7366 154.626" stroke="#7C6656" stroke-width="2.5" stroke-linecap="round" stroke-linejoin="round"/>
<path d="M39.5547 157.529C39.5547 157.529 42.5384 162.31 51.9272 159.58" stroke="#7C6656" stroke-width="2.5" stroke-linecap="round" stroke-linejoin="round"/>
<path d="M146.818 190.453C146.818 190.453 152.959 195.361 147.844 202.134" stroke="#7C6656" stroke-width="2.5" stroke-linecap="round" stroke-linejoin="round"/>
<path d="M151.426 187.85C151.426 187.85 155.527 189.555 155.009 193.345" stroke="#7C6656" stroke-width="2.5" stroke-linecap="round" stroke-linejoin="round"/>
<path d="M190.849 176.641C190.849 176.641 195.064 184.152 186.562 189.785" stroke="#7C6656" stroke-width="2.5" stroke-linecap="round" stroke-linejoin="round"/>
<path d="M49.0256 180.051C49.0256 180.051 43.3923 180.73 43.7379 189.774" stroke="#7C6656" stroke-width="2.5" stroke-linecap="round" stroke-linejoin="round"/>
<path d="M39.554 184.924C39.554 184.924 35.1994 190.511 41.0055 195.015" stroke="#7C6656" stroke-width="2.5" stroke-linecap="round" stroke-linejoin="round"/>
<path d="M206.041 100.851L196.168 109.215L208.091 106.991C208.091 106.991 207.066 113.65 212.526 113.131C217.987 112.624 216.962 109.721 216.962 109.721C216.962 109.721 221.063 114.675 224.473 110.493C227.883 106.312 227.548 102.89 224.473 100.851C224.473 100.851 228.574 95.0449 223.793 91.4622C219.012 87.8795 214.404 93.6856 214.404 93.6856C214.404 93.6856 212.526 88.9624 208.425 90.2987C204.324 91.635 201.433 96.7614 206.041 100.851Z" fill="#F5B1BE"/>
<path d="M79.8398 75.9446L72.8472 65.1965C72.8472 65.1965 78.3077 60.7613 76.4299 57.0057C74.5521 53.2502 70.9118 56.326 70.9118 56.326C70.9118 56.326 74.0337 46.9371 66.8683 47.2827C59.7029 47.6283 61.5806 55.4735 61.5806 55.4735C61.5806 55.4735 55.5672 50.2089 52.019 54.1027C46.9041 59.7359 51.1665 63.6642 57.3067 65.542C57.3067 65.542 51.4661 69.8043 56.4312 73.5599C61.3963 77.3154 67.3752 69.8043 67.3752 69.8043L79.8283 75.9446H79.8398Z" fill="#F5B1BE"/>
<path d="M74.8418 117.946C67.181 64.954 114.816 66.7165 114.816 66.7165C146.508 54.9316 176.586 79.642 176.586 79.642C176.586 79.642 201.297 98.0624 188.187 119.697" stroke="#7C6656" stroke-width="2.5" stroke-linecap="round" stroke-linejoin="round"/>
<path d="M122.291 85.4609C122.291 85.4609 123.927 108.651 143.741 115.275" stroke="#7C6656" stroke-width="2.5" stroke-linecap="round" stroke-linejoin="round"/>
<path d="M153.039 90.748C153.039 90.748 156.138 106.231 168.05 114.295" stroke="#7C6656" stroke-width="2.5" stroke-linecap="round" stroke-linejoin="round"/>
<path d="M118.318 108.926C118.318 108.926 121.728 126.459 139.826 129.362" stroke="#7C6656" stroke-width="2.5" stroke-linecap="round" stroke-linejoin="round"/>
<path d="M176.517 115.238C176.517 115.238 172.588 129.362 154.156 130.894" stroke="#7C6656" stroke-width="2.5" stroke-linecap="round" stroke-linejoin="round"/>
<path d="M137.292 130.216C137.292 130.216 135.898 144.386 128.387 143.534C120.876 142.681 122.754 120.689 122.754 120.689" stroke="#7C6656" stroke-width="2.5" stroke-linecap="round" stroke-linejoin="round"/>
<path d="M125.483 123.072C125.483 123.072 124.296 140.087 127.706 142.195C132.314 145.064 134.135 140.306 134.135 140.306" stroke="#7C6656" stroke-width="2.5" stroke-linecap="round" stroke-linejoin="round"/>
<path d="M168.418 127.324C168.418 127.324 169.397 145.249 162.969 145.411C156.552 145.583 156.713 130.907 156.713 130.907" stroke="#7C6656" stroke-width="2.5" stroke-linecap="round" stroke-linejoin="round"/>
<path d="M165.331 127.854C165.331 127.854 167.335 141.735 162.957 143.567C158.58 145.41 157.094 136.367 157.094 136.367" stroke="#7C6656" stroke-width="2.5" stroke-linecap="round" stroke-linejoin="round"/>
<path d="M146.818 124.076C146.818 124.076 148.016 126.979 146.818 129.364" stroke="#7C6656" stroke-width="2.5" stroke-linecap="round" stroke-linejoin="round"/>
<path d="M150.401 126.471C150.401 126.471 152.083 129.028 149.883 130.906" stroke="#7C6656" stroke-width="2.5" stroke-linecap="round" stroke-linejoin="round"/>
<path d="M147.913 146.447C147.913 146.447 147.188 148.912 146.543 147.795C145.575 146.124 143.467 141.194 140.909 143.809C138.352 146.424 129.251 157.345 132.603 159.568C135.956 161.791 138.859 161.273 142.96 157.518C147.061 153.762 150.137 158.508 150.137 158.508C150.137 158.508 153.224 162.586 156.288 160.133C159.572 157.506 151.991 144.558 150.978 143.809C149.964 143.06 148.282 143.371 147.913 146.447Z" fill="#F4A5A7" stroke="#7C6656" stroke-width="2.5" stroke-linecap="round" stroke-linejoin="round"/>
<path d="M178.682 88.1103C178.682 88.1103 190.732 96.2319 194.234 80.6914" stroke="#7C6656" stroke-width="2.5" stroke-linecap="round" stroke-linejoin="round"/>
<path d="M160.148 100.896C160.148 100.896 165.919 103.869 169.444 99.7675C172.969 95.6664 173.027 91.2312 173.027 91.2312C173.027 91.2312 168.937 89.3534 169.444 87.1301C169.951 84.9067 174.236 84.3998 171.068 80.6443C167.9 76.8888 161.864 77.7413 161.645 73.1333C161.426 68.5253 164.997 67.5 164.997 67.5C164.997 67.5 155.067 68.1797 156.968 73.6402C158.869 79.1006 152.89 79.7803 151.012 79.2734C149.134 78.7666 142.476 77.5685 144.699 82.6834C146.923 87.7982 146.024 88.8235 144.25 91.0469C142.476 93.2702 145.552 96.6802 148.628 97.7054C148.628 97.7054 153.178 99.5141 155.632 97.7976C155.632 97.7976 157.463 100.009 160.159 100.885L160.148 100.896Z" fill="#1AAF92"/>
<path d="M160.148 100.896C160.148 100.896 165.919 103.869 169.444 99.7675C172.969 95.6664 173.027 91.2312 173.027 91.2312C173.027 91.2312 168.937 89.3534 169.444 87.1301C169.951 84.9067 174.236 84.3998 171.068 80.6443C167.9 76.8888 161.864 77.7413 161.645 73.1333C161.426 68.5253 164.997 67.5 164.997 67.5C164.997 67.5 155.067 68.1797 156.968 73.6402C158.869 79.1006 152.89 79.7803 151.012 79.2734C149.134 78.7666 142.476 77.5685 144.699 82.6834C146.923 87.7982 146.024 88.8235 144.25 91.0469C142.476 93.2702 145.552 96.6802 148.628 97.7054" stroke="#7C6656" stroke-width="2.5" stroke-linecap="round" stroke-linejoin="round"/>
<path d="M153.224 106.6C153.224 106.6 149.076 102.234 155.101 97.5566C159.709 93.9739 163.119 90.3912 160.907 85.7832" stroke="#7C6656" stroke-width="2.5" stroke-linecap="round" stroke-linejoin="round"/>
<path d="M84.3446 139.432L76.5801 150.963" stroke="#7C6656" stroke-width="2.5" stroke-linecap="round" stroke-linejoin="round"/>
<path d="M141.012 199.555C141.012 199.555 135.125 204.094 123.916 203.817" stroke="#7C6656" stroke-width="2.5" stroke-linecap="round" stroke-linejoin="round"/>
<path d="M114.816 66.7181C114.816 66.7181 113.042 60.8429 107.996 60.4512L114.816 66.7181Z" fill="white"/>
<path d="M114.816 66.7181C114.816 66.7181 113.042 60.8429 107.996 60.4512" stroke="#7C6656" stroke-width="2.5" stroke-linecap="round" stroke-linejoin="round"/>
<path d="M112.339 93.9844C112.339 93.9844 93.0777 95.5165 84.334 113.165" stroke="#7C6656" stroke-width="2.5" stroke-linecap="round" stroke-linejoin="round"/>
<path d="M78.7695 170.893C78.7695 170.893 95.4505 186.122 125.287 184.06" stroke="#7C6656" stroke-width="2.5" stroke-linecap="round" stroke-linejoin="round"/>
</g>
<defs>
<filter id="filter0_f_522_13982" x="156.5" y="144.5" width="25" height="15" filterUnits="userSpaceOnUse" color-interpolation-filters="sRGB">
<feFlood flood-opacity="0" result="BackgroundImageFix"/>
<feBlend mode="normal" in="SourceGraphic" in2="BackgroundImageFix" result="shape"/>
<feGaussianBlur stdDeviation="1" result="effect1_foregroundBlur_522_13982"/>
</filter>
<filter id="filter1_f_522_13982" x="94.5" y="136.5" width="31" height="19" filterUnits="userSpaceOnUse" color-interpolation-filters="sRGB">
<feFlood flood-opacity="0" result="BackgroundImageFix"/>
<feBlend mode="normal" in="SourceGraphic" in2="BackgroundImageFix" result="shape"/>
<feGaussianBlur stdDeviation="1" result="effect1_foregroundBlur_522_13982"/>
</filter>
<clipPath id="clip0_522_13982">
<rect width="256" height="256" fill="white"/>
</clipPath>
</defs>
</svg>
