<svg width="256" height="256" viewBox="0 0 256 256" fill="none" xmlns="http://www.w3.org/2000/svg">
<g clip-path="url(#clip0_522_14448)">
<path d="M176.841 110.227L170.81 134.351H172.914L175.719 134.912L181.329 138.839L182.451 148.937L174.597 156.792H170.109L162.255 163.329L153.839 169.134L147.668 170.817L134.764 170.256L126.349 169.134L121.861 187.087L129.154 195.503L132.52 206.162L130.276 220.188L131.398 222.993V225.237L125.788 226.359L119.055 225.237L112.884 221.31L112.323 219.627L114.006 215.7L115.689 210.089L112.884 204.479L105.591 196.625L85.9549 191.575L73.0513 200.552L72.4903 207.845L73.0513 211.772L70.8072 214.017L64.0749 215.7L57.3426 215.139L53.9764 212.894V211.211L56.2205 208.406L57.3426 196.064L59.5867 190.453L62.9528 185.965L68.5631 181.477L73.0513 178.111L73.6123 173.623L76.9785 161.28L80.9057 152.304L60.7087 140.522L57.9036 137.717L52.2933 120.886L50.6103 115.837L46.1221 111.91L45 105.177L47.8051 97.884L52.2933 94.5179L57.9036 93.9568L62.9528 95.6399L66.319 100.128L67.4411 105.738L66.319 110.227L64.0749 113.593L66.88 125.935L68.5631 128.74L70.8072 130.424L81.4667 134.351L86.516 136.034L76.4175 123.13L72.4903 109.666L74.1734 97.884L79.7836 87.7856L85.9549 82.1753L89.8821 74.3209L93.8093 62.5394L101.103 56.3681L111.762 52.4409L126.91 50.7578L137.569 51.8799L150.473 55.8071L162.816 63.1004L169.548 70.3937L173.475 72.0768L179.085 79.3702L183.012 87.2245L184.135 93.3958L181.89 104.055L176.841 110.227Z" fill="white"/>
<path d="M120.671 143.732C120.671 143.732 116.878 139.726 111.582 138.334C104.883 136.573 94.3922 136.517 95.3459 139.569C96.2997 142.621 105.523 146.57 111.56 148.511C117.596 150.441 127.728 152.472 120.671 143.732Z" fill="#FDDDC2"/>
<path d="M73.4096 178.583C73.4096 178.583 61.1007 185.887 58.7332 190.959C56.3656 196.03 55.8495 205.097 55.9954 209.013C59.4289 209.562 68.1584 211.784 73.1179 211.975C71.7041 202.909 73.4545 200.754 74.4531 199.284C75.463 197.814 83.9457 193.652 86.4815 191.621C90.2629 191.744 106.095 196.389 106.095 196.389C106.095 196.389 112.951 204.367 114.51 206.477C116.463 210.236 113.579 215.947 112.188 218.797C121.288 223.397 127.919 221.456 129.636 221.131C130.713 218.842 131.992 209.327 131.992 209.327C131.992 209.327 133.058 204.906 130.713 199.307C128.368 193.708 121.568 187.02 121.568 187.02L122.129 185.191C122.129 185.191 99.9237 176.563 74.0268 173.051C73.376 175.542 73.3872 178.583 73.3872 178.583H73.4096Z" fill="#8FBDE2"/>
<g filter="url(#filter0_f_522_14448)">
<path d="M147.392 113.224C151.887 114.895 156.327 114.121 157.309 111.496C158.291 108.87 155.443 105.386 150.948 103.715C146.453 102.044 142.013 102.818 141.031 105.443C140.049 108.069 142.897 111.553 147.392 113.224Z" fill="#F5B0B0"/>
</g>
<g filter="url(#filter1_f_522_14448)">
<path d="M93.5329 96.3934C98.028 98.0647 102.468 97.2909 103.45 94.6651C104.432 92.0394 101.583 88.5559 97.0884 86.8846C92.5932 85.2133 88.1533 85.987 87.1715 88.6128C86.1896 91.2386 89.0377 94.7221 93.5329 96.3934Z" fill="#F5B0B0"/>
</g>
<path d="M105.523 82.1754C104.379 84.8235 105.602 87.8979 108.25 89.0424C110.898 90.1869 113.972 88.9639 115.117 86.3158C116.261 83.6678 115.038 80.5933 112.39 79.4489C109.742 78.3044 106.668 79.5274 105.523 82.1754Z" fill="#7C6656"/>
<path d="M177.29 99.5889C177.391 102.832 177.121 106.321 176.37 110.024C170.815 137.065 165.575 147.388 154.837 150.092C144.099 152.808 128.795 153.268 119.504 150.373" stroke="#7C6656" stroke-width="2.5" stroke-linecap="round" stroke-linejoin="round"/>
<path d="M98.9495 63.9316C93.5299 68.2067 89.5915 74.2321 86.4386 82.0752C84.4301 84.1959 75.7678 89.8398 73.3554 100.656C70.943 111.473 75.1283 127.765 91.1175 139.154C91.1175 139.154 97.7937 144.271 103.808 146.245" stroke="#7C6656" stroke-width="2.5" stroke-linecap="round" stroke-linejoin="round"/>
<path d="M138.994 89.7832C139.521 88.7846 140.082 87.7523 140.969 87.0566C142.001 86.2599 143.37 86.0019 144.671 86.1029C145.973 86.1926 147.23 86.6078 148.475 87.0005C150.158 87.5391 151.965 88.1674 152.963 89.6261C154.22 91.455 153.749 93.9797 152.829 95.9994C151.897 98.0191 151.516 100.476 151.078 102.653C150.809 104.011 149.866 105.009 148.823 105.918C147.634 106.951 145.805 106.468 144.323 105.941C142.192 105.178 140.06 104.404 137.928 103.641C136.525 103.136 134.146 102.72 133.709 101.004C133.305 99.3543 135.033 97.2448 135.751 95.8872C136.828 93.8562 137.905 91.8253 138.982 89.8056L138.994 89.7832Z" fill="#7C6656" stroke="#7C6656" stroke-width="2.5" stroke-linecap="round" stroke-linejoin="round"/>
<path d="M150.53 87.4276C150.53 87.4276 147.613 90.5806 147.972 94.2385C148.331 97.8515 152.46 96.8865 152.46 96.8865L151.125 102.407C151.125 102.407 147.299 97.3017 145.391 99.3999C143.495 101.487 143.506 105.65 143.506 105.65L137.918 103.641C137.918 103.641 142.956 99.0969 141.037 97.8739C139.119 96.6509 135.416 97.0885 135.416 97.0885L138.288 91.0967C138.288 91.0967 140.735 95.1137 143.315 91.6016C145.896 88.0896 145.133 86.1709 145.133 86.1709L150.519 87.4388L150.53 87.4276Z" fill="white" stroke="#7C6656" stroke-linecap="round" stroke-linejoin="round"/>
<path d="M138.994 89.7832C139.521 88.7846 140.082 87.7523 140.969 87.0566C142.001 86.2599 143.37 86.0019 144.671 86.1029C145.973 86.1926 147.23 86.6078 148.475 87.0005C150.158 87.5391 151.965 88.1674 152.963 89.6261C154.22 91.455 153.749 93.9797 152.829 95.9994C151.897 98.0191 151.516 100.476 151.078 102.653C150.809 104.011 149.866 105.009 148.823 105.918C147.634 106.951 145.805 106.468 144.323 105.941C142.192 105.178 140.06 104.404 137.928 103.641C136.525 103.136 134.146 102.72 133.709 101.004C133.305 99.3543 135.033 97.2448 135.751 95.8872C136.828 93.8562 137.905 91.8253 138.982 89.8056L138.994 89.7832Z" stroke="#7C6656" stroke-width="2.5" stroke-linecap="round" stroke-linejoin="round"/>
<path d="M102.707 78.4726C103.234 77.474 103.795 76.4417 104.681 75.7461C105.714 74.9494 107.083 74.6913 108.384 74.7923C109.686 74.8821 110.942 75.2972 112.188 75.69C113.871 76.2285 115.678 76.8569 116.676 78.3156C117.933 80.1445 117.462 82.6691 116.542 84.6888C115.61 86.7085 115.229 89.1658 114.791 91.3426C114.522 92.7003 113.579 93.6989 112.536 94.6078C111.346 95.6401 109.517 95.1576 108.036 94.6302C105.904 93.8672 103.773 93.093 101.641 92.33C100.238 91.8251 97.8593 91.4099 97.4217 89.6932C97.0178 88.0438 98.7457 85.9343 99.4639 84.5766C100.541 82.5457 101.618 80.5148 102.695 78.4951L102.707 78.4726Z" fill="#7C6656" stroke="#7C6656" stroke-width="2.5" stroke-linecap="round" stroke-linejoin="round"/>
<path d="M114.253 76.117C114.253 76.117 111.313 78.3948 111.672 82.0527C112.031 85.6657 116.183 85.576 116.183 85.576L114.847 91.0965C114.847 91.0965 111.021 85.9911 109.114 88.0894C107.217 90.1764 107.229 94.3392 107.229 94.3392L101.641 92.3307C101.641 92.3307 106.679 87.7864 104.76 86.5634C102.841 85.3403 99.1387 85.7779 99.1387 85.7779L102.011 79.7862C102.011 79.7862 105.142 84.2183 107.722 80.7062C110.303 77.1942 108.856 74.8604 108.856 74.8604L114.242 76.1283L114.253 76.117Z" fill="white" stroke="#7C6656" stroke-linecap="round" stroke-linejoin="round"/>
<path d="M102.707 78.4726C103.234 77.474 103.795 76.4417 104.681 75.7461C105.714 74.9494 107.083 74.6913 108.384 74.7923C109.686 74.8821 110.942 75.2972 112.188 75.69C113.871 76.2285 115.678 76.8569 116.676 78.3156C117.933 80.1445 117.462 82.6691 116.542 84.6888C115.61 86.7085 115.229 89.1658 114.791 91.3426C114.522 92.7003 113.579 93.6989 112.536 94.6078C111.346 95.6401 109.517 95.1576 108.036 94.6302C105.904 93.8672 103.773 93.093 101.641 92.33C100.238 91.8251 97.8593 91.4099 97.4217 89.6932C97.0178 88.0438 98.7457 85.9343 99.4639 84.5766C100.541 82.5457 101.618 80.5148 102.695 78.4951L102.707 78.4726Z" stroke="#7C6656" stroke-width="2.5" stroke-linecap="round" stroke-linejoin="round"/>
<g style="mix-blend-mode:multiply">
<path d="M101.978 110.529C100.34 105.581 93.6297 92.2621 84.2494 94.7755C74.869 97.2889 76.0696 104.212 77.5395 106.804C80.7261 112.414 82.858 110.552 85.5173 115.623C89.1303 122.513 95.4362 123.657 99.2288 121.682C103.021 119.708 103.605 115.466 101.967 110.529H101.978Z" fill="#FDDDC2"/>
</g>
<g style="mix-blend-mode:multiply">
<path d="M149.957 113.874C144.852 112.841 129.962 112.056 127.482 121.447C125.003 130.839 131.623 133.229 134.596 133.24C141.048 133.263 140.487 130.48 146.221 130.693C153.996 130.985 158.126 126.059 158.283 121.795C158.451 117.52 155.062 114.917 149.957 113.874Z" fill="#FDDDC2"/>
</g>
<path d="M124.15 105.38C122.299 105.458 120.335 105.167 119.056 103.82C118.562 103.304 118.068 102.642 117.362 102.619C116.879 102.608 116.453 102.9 116.082 103.192C115.308 103.786 114.568 104.437 113.872 105.133C113.221 105.784 112.559 106.648 112.795 107.545C113.008 108.376 113.95 108.836 114.803 108.836C115.656 108.836 116.475 108.499 117.283 108.252C118.102 108.005 119.011 107.837 119.796 108.174C120.481 108.465 120.963 109.094 121.457 109.655C121.962 110.216 122.59 110.754 123.342 110.754C124.038 110.754 124.666 110.294 124.991 109.677C125.317 109.071 125.373 108.342 125.317 107.657C125.317 107.657 125.294 105.167 124.15 105.38Z" stroke="#7C6656" stroke-width="2.5" stroke-linecap="round" stroke-linejoin="round"/>
<path d="M87.3687 136.898C87.3687 136.898 69.932 131.703 68.0133 128.64C66.1058 125.576 62.6723 113.166 63.57 112.886C64.4676 112.605 70.4257 104.751 65.4999 98.2207C60.5741 91.6904 49.3984 93.1939 46.425 100.117C43.4403 107.04 46.6943 113.638 51.2947 116.005C51.2947 116.005 54.6272 135.787 60.1253 139.793C65.6121 143.799 81.1076 152.842 81.1076 152.842C81.1076 152.842 72.58 167.597 73.4104 178.582C73.4104 178.582 59.452 185.247 57.4772 194.212C55.4912 203.178 55.738 208.866 55.738 208.866C55.738 208.866 54.3579 209.54 53.3032 211.335C52.2597 213.13 56.6581 216.014 63.8505 215.475C68.3948 215.139 73.7358 214.914 73.0962 211.728C72.4566 208.541 71.3346 201.259 75.3066 198.555C79.2899 195.839 85.4724 192.08 85.4724 192.08" stroke="#7C6656" stroke-width="2.5" stroke-linecap="round" stroke-linejoin="round"/>
<path d="M125.753 168.742C125.753 168.742 125.596 176.765 121.591 187.02C121.591 187.02 132.991 197.467 132.261 206.623C131.532 215.779 129.636 221.142 129.636 221.142C129.636 221.142 130.758 222.197 131.24 224.216C131.723 226.236 126.662 227.717 119.941 225.092C115.7 223.442 110.65 221.658 112.188 218.797C113.736 215.936 116.934 209.304 113.927 205.546C110.909 201.787 106.095 196.378 106.095 196.378C106.095 196.378 89.511 191.767 83.2051 190.869" stroke="#7C6656" stroke-width="2.5" stroke-linecap="round" stroke-linejoin="round"/>
<path d="M127.92 151.957C127.92 151.957 145.323 156.961 148.689 155.671C152.055 154.38 161.918 147.839 161.368 147.087C160.818 146.324 160.773 136.461 168.639 134.206C176.493 131.951 184.527 139.861 182.743 147.188C180.97 154.515 174.406 157.836 169.301 156.95C169.301 156.95 154.748 170.751 147.948 170.65C141.149 170.549 123.342 168.462 123.342 168.462" fill="white"/>
<path d="M127.92 151.957C127.92 151.957 145.323 156.961 148.689 155.671C152.055 154.38 161.918 147.839 161.368 147.087C160.818 146.324 160.773 136.461 168.639 134.206C176.493 131.951 184.527 139.861 182.743 147.188C180.97 154.515 174.406 157.836 169.301 156.95C169.301 156.95 154.748 170.751 147.948 170.65C141.149 170.549 123.342 168.462 123.342 168.462" stroke="#7C6656" stroke-width="2.5" stroke-linecap="round" stroke-linejoin="round"/>
<path d="M201.718 59.3081C201.718 59.3081 201.336 68.6324 189.375 70.4501C189.375 70.4501 198.8 76.1613 199.025 84.3635C199.025 84.3635 203.333 73.5694 211.031 72.7503C211.031 72.7503 200.023 69.6759 201.706 59.2969L201.718 59.3081Z" fill="#F8AC50"/>
<path d="M200.572 89.9854C200.572 89.9854 198.406 96.1791 190.002 94.956C190.002 94.956 195.175 100.723 193.637 106.289C193.637 106.289 198.743 99.9155 204.084 100.937C204.084 100.937 197.307 96.6167 200.572 89.9854Z" fill="#F8AC50"/>
<path d="M189.171 108.174C189.171 108.174 187.69 113.122 181.025 112.46C181.025 112.46 185.3 116.814 184.291 121.246C184.291 121.246 188.083 116.051 192.324 116.668C192.324 116.668 186.838 113.515 189.171 108.174Z" fill="#F8AC50"/>
<path d="M88.7263 30C88.7263 30 83.9801 38.0339 93.0238 46.0678C93.0238 46.0678 82.0052 45.7312 77.3599 52.4972C77.3599 52.4972 79.6153 41.0971 73.5898 36.2274C73.5898 36.2274 84.4962 39.6384 88.7263 30Z" fill="#F8AC50"/>
<path d="M73.0053 56.3682C73.0053 56.3682 71.4569 62.7414 79.1766 66.2871C79.1766 66.2871 71.7037 68.318 69.9645 73.8161C69.9645 73.8161 69.1454 65.6924 64.1074 63.6503C64.1074 63.6503 72.1413 63.7064 73.0053 56.3682Z" fill="#F8AC50"/>
<path d="M72.703 77.833C72.703 77.833 71.2556 82.7925 77.2137 85.8557C77.2137 85.8557 71.2556 87.1909 69.6959 91.4547C69.6959 91.4547 69.3369 85.0366 65.4434 83.2413C65.4434 83.2413 71.7605 83.5779 72.703 77.833Z" fill="#F8AC50"/>
<path d="M93.0234 65.0979C93.0234 65.0979 97.9717 49.7707 131.117 50.859C157.194 53.451 169.57 70.5286 169.57 70.5286C169.57 70.5286 177.985 73.5806 182.339 85.4856C186.692 97.3906 179.938 106.692 179.938 106.692" stroke="#7C6656" stroke-width="2.5" stroke-linecap="round" stroke-linejoin="round"/>
<path d="M163.344 77.4736C163.344 77.4736 167.406 85.4402 166.777 92.3408" stroke="#7C6656" stroke-width="2.5" stroke-linecap="round" stroke-linejoin="round"/>
<path d="M158.27 71.3816C158.27 71.3816 149.586 75.6454 128.154 68.4082" stroke="#7C6656" stroke-width="2.5" stroke-linecap="round" stroke-linejoin="round"/>
<path d="M152.627 52.7554C152.627 52.7554 154.714 60.2395 149.979 63.2578C146.343 65.5804 143.561 65.0082 136.301 61.5523C129.03 58.1076 126.405 43.5546 129.344 32.9287C136.492 34.0508 149.743 35.6665 152.638 52.7554H152.627Z" fill="#1AAF92"/>
<path d="M144.953 64.3462C144.953 64.3462 121.053 63.2467 129.457 32.4688C129.457 32.4688 152.919 33.7142 153.256 59.0614" stroke="#7C6656" stroke-width="2.5" stroke-linecap="round" stroke-linejoin="round"/>
<path d="M138.681 47.6279C138.49 47.7626 143.719 62.6971 155.646 64.2006" stroke="#7C6656" stroke-width="2.5" stroke-linecap="round" stroke-linejoin="round"/>
<path d="M96.9727 143.036C96.9727 143.036 94.2461 147.614 102.112 151.553C107.408 154.212 116.339 154.661 120.648 151.126" stroke="#7C6656" stroke-width="2.5" stroke-linecap="round" stroke-linejoin="round"/>
<path d="M86.1794 135.147C86.1794 135.147 78.5382 140.589 75.9238 149.768" stroke="#7C6656" stroke-width="2.5" stroke-linecap="round" stroke-linejoin="round"/>
<path d="M135.605 154.985C135.605 154.985 137.389 161.381 132.082 168.629" stroke="#7C6656" stroke-width="2.5" stroke-linecap="round" stroke-linejoin="round"/>
<path d="M55.7383 208.855C55.7383 208.855 63.0204 211.403 73.1077 211.717" stroke="#7C6656" stroke-width="2.5" stroke-linecap="round" stroke-linejoin="round"/>
<path d="M129.647 221.131C129.647 221.131 121.546 223.375 112.199 218.797" stroke="#7C6656" stroke-width="2.5" stroke-linecap="round" stroke-linejoin="round"/>
<path d="M74.0488 173.051C74.0488 173.051 107.25 178.033 120.984 185.281" stroke="#7C6656" stroke-width="2.5" stroke-linecap="round" stroke-linejoin="round"/>
<path d="M107.756 64.1895C107.756 64.1895 120.166 65.4911 127.661 60.9355" stroke="#7C6656" stroke-width="2.5" stroke-linecap="round" stroke-linejoin="round"/>
</g>
<defs>
<filter id="filter0_f_522_14448" x="138.838" y="100.833" width="20.6641" height="15.2729" filterUnits="userSpaceOnUse" color-interpolation-filters="sRGB">
<feFlood flood-opacity="0" result="BackgroundImageFix"/>
<feBlend mode="normal" in="SourceGraphic" in2="BackgroundImageFix" result="shape"/>
<feGaussianBlur stdDeviation="1" result="effect1_foregroundBlur_522_14448"/>
</filter>
<filter id="filter1_f_522_14448" x="84.9785" y="84.0024" width="20.6641" height="15.2729" filterUnits="userSpaceOnUse" color-interpolation-filters="sRGB">
<feFlood flood-opacity="0" result="BackgroundImageFix"/>
<feBlend mode="normal" in="SourceGraphic" in2="BackgroundImageFix" result="shape"/>
<feGaussianBlur stdDeviation="1" result="effect1_foregroundBlur_522_14448"/>
</filter>
<clipPath id="clip0_522_14448">
<rect width="256" height="256" fill="white"/>
</clipPath>
</defs>
</svg>
