<svg width="256" height="256" viewBox="0 0 256 256" fill="none" xmlns="http://www.w3.org/2000/svg">
<g clip-path="url(#clip0_522_14291)">
<path opacity="0.4" d="M128 232C167.765 232 200 227.971 200 223C200 218.029 167.765 214 128 214C88.2355 214 56 218.029 56 223C56 227.971 88.2355 232 128 232Z" fill="#E1D6CF"/>
<path d="M144.025 148.168L137.053 150.313L140.271 152.458L144.025 154.603L147.779 157.821L149.388 159.966V163.72L148.316 168.547L144.561 173.91L146.707 178.2L145.098 181.418L142.953 183.027L142.416 184.636L140.807 185.172V185.708L139.199 194.825L138.126 208.769L139.735 213.059L142.416 217.35L140.271 221.104L135.981 222.176L130.081 221.64C128.651 221.104 125.791 219.924 125.791 219.495C125.791 219.066 124.719 215.741 124.182 214.132L123.11 208.769L121.501 194.289L111.847 193.753L110.775 194.289L107.021 210.378L105.412 215.741L102.194 220.568L98.44 222.713L93.6133 223.249L88.7867 222.176L86.1052 220.031L85.5689 216.813L88.2504 214.132L89.8593 212.523L92.0044 198.043V186.245L89.323 185.172L91.4681 172.837L90.9319 170.156L85.5689 171.765L80.2059 172.301L74.843 171.765L68.9437 168.01L65.1896 160.502V150.849L63.5807 143.341L57.1452 132.615L55 125.643L56.0726 119.208L61.4356 115.99L65.1896 116.526L66.7985 100.973L65.1896 92.3925V81.1303L66.7985 74.1584L71.0889 64.5051L78.597 56.997L91.4681 51.0977L101.121 50.0251L108.63 46.271H119.356L133.836 48.4162L155.287 56.997L163.332 63.4325L169.767 72.5496L173.521 81.1303V90.2473L170.304 97.7555L166.013 105.264L167.622 115.99L167.086 125.643L162.259 136.905L154.215 144.413L144.025 148.168Z" fill="white"/>
<path d="M140.54 185.151C140.54 185.151 120.729 191.919 92.0047 186.085C91.7902 199.578 89.3125 213.554 89.3125 213.554C89.3125 213.554 93.3454 219.153 104.179 217.393C107.096 205.413 110.453 193.754 110.453 193.754L120.965 194.44C120.965 194.44 122.938 212.32 124.74 216.986C125.362 218.348 130.693 220.086 134.576 217.072C138.459 214.058 139.22 213.446 138.866 211.494C138.512 209.542 137.858 204.211 138.866 198.398C139.875 192.584 140.529 185.151 140.529 185.151H140.54Z" fill="#8FBDE2"/>
<path d="M92.5088 159.344C92.5088 159.344 91.9296 186.491 91.8867 196.552C91.8438 206.613 89.3125 213.564 89.3125 213.564" stroke="#7C6656" stroke-width="2.5" stroke-linecap="round" stroke-linejoin="round"/>
<path d="M89.3133 213.553C89.3133 213.553 86.2993 214.358 85.8596 217.018C85.4198 219.678 86.2993 223.11 93.3892 223.217C100.479 223.324 104.426 219.345 106.056 212.363C107.687 205.38 110.454 193.753 110.454 193.753C110.454 193.753 122.596 194.751 125.363 193.195" stroke="#7C6656" stroke-width="2.5" stroke-linecap="round" stroke-linejoin="round"/>
<path d="M120.91 194.011C120.91 194.011 123.366 215.699 125.361 218.359C127.356 221.019 133.224 222.016 137.321 221.566C141.418 221.126 142.748 218.026 141.858 216.138C140.968 214.251 138.865 213.553 138.865 213.553" stroke="#7C6656" stroke-width="2.5" stroke-linecap="round" stroke-linejoin="round"/>
<path d="M140.539 182.908C139.209 197.313 136.378 201.743 139.285 213.037" stroke="#7C6656" stroke-width="2.5" stroke-linecap="round" stroke-linejoin="round"/>
<path d="M89.3125 213.553C89.3125 213.553 91.5971 218.272 103.524 217.532" stroke="#7C6656" stroke-width="2.5" stroke-linecap="round" stroke-linejoin="round"/>
<path d="M125.361 218.347C134.5 219.892 138.876 213.553 138.876 213.553" stroke="#7C6656" stroke-width="2.5" stroke-linecap="round" stroke-linejoin="round"/>
<path d="M138.309 150.859C138.309 150.859 149.496 155.954 149.732 162.626C149.968 169.297 141.591 177.824 141.591 177.824" stroke="#7C6656" stroke-width="2.5" stroke-linecap="round" stroke-linejoin="round"/>
<path d="M145.055 174.962C145.055 174.962 149.131 182.223 141.055 183.114" stroke="#7C6656" stroke-width="2.5" stroke-linecap="round" stroke-linejoin="round"/>
<path d="M135.016 149.981C135.016 149.981 143.082 164.783 142.127 184.432C137.29 186.245 128.666 189.227 114.347 189.109C100.028 188.98 89.3125 185.591 89.3125 185.591C89.3125 185.591 93.5707 163.088 92.5088 156.888C91.447 150.689 95.2547 147.578 95.2547 147.578L103.514 148.554C103.514 148.554 130.8 152.18 136.131 150.506" fill="white"/>
<path d="M166.26 94.2598C166.903 97.7779 165.691 102.304 165.477 104.074C166.26 107.024 169.263 115.84 166.56 127.103C163.632 139.319 154.354 147.632 133.996 150.12C133.996 150.12 122.101 150.946 117.961 150.195" stroke="#7C6656" stroke-width="2.5" stroke-linecap="round" stroke-linejoin="round"/>
<path d="M109.776 148.972C96.4222 147.695 82.1997 142.472 73.6189 133.441C66.4862 125.943 64.1158 117.534 67.7089 99.375" stroke="#7C6656" stroke-width="2.5" stroke-linecap="round" stroke-linejoin="round"/>
<path d="M66.3383 99.3751C56.8673 50.9905 100.844 49.5532 100.844 49.5532C130.801 36.9717 161.381 61.8451 161.381 61.8451C161.381 61.8451 182.607 79.5536 169.361 99.3751" stroke="#7C6656" stroke-width="2.5" stroke-linecap="round" stroke-linejoin="round"/>
<path d="M102.548 63.8076C102.548 63.8076 99.1367 78.6952 122.798 89.0028" stroke="#7C6656" stroke-width="2.5" stroke-linecap="round" stroke-linejoin="round"/>
<path d="M96.3482 72.2061C96.3482 72.2061 81.643 79.4782 77.3848 93.6686" stroke="#7C6656" stroke-width="2.5" stroke-linecap="round" stroke-linejoin="round"/>
<path d="M148.713 91.6527C148.713 91.6527 132.088 85.2494 127.508 69.3643" stroke="#7C6656" stroke-width="2.5" stroke-linecap="round" stroke-linejoin="round"/>
<path d="M118.443 58.3916C135.09 39.3209 153.742 53.5542 153.742 53.5542C140.238 82.3962 121.35 67.7767 121.35 67.7767C121.35 67.7767 118.979 67.1975 117.907 63.0144C117.338 60.8156 118.443 58.4023 118.443 58.4023V58.3916Z" fill="#1AAF92"/>
<path d="M121.35 67.777C121.35 67.777 140.238 82.3964 153.742 53.5544C153.742 53.5544 135.09 39.3318 118.443 58.3918" stroke="#7C6656" stroke-width="2.5" stroke-linecap="round" stroke-linejoin="round"/>
<path d="M136.924 59.1104C136.988 59.3356 123.345 67.3156 113.295 60.7407" stroke="#7C6656" stroke-width="2.5" stroke-linecap="round" stroke-linejoin="round"/>
<g filter="url(#filter0_f_522_14291)">
<path d="M148.464 129.224C153.878 129.912 158.545 127.812 158.888 124.533C159.232 121.254 155.122 118.038 149.708 117.35C144.295 116.663 139.628 118.763 139.284 122.042C138.941 125.321 143.051 128.536 148.464 129.224Z" fill="#F5B0B0"/>
</g>
<g filter="url(#filter1_f_522_14291)">
<path d="M92.6888 122.137C98.1022 122.825 102.769 120.725 103.113 117.446C103.456 114.167 99.3462 110.951 93.9327 110.263C88.5193 109.576 83.8524 111.676 83.5089 114.955C83.1654 118.234 87.2754 121.45 92.6888 122.137Z" fill="#F5B0B0"/>
</g>
<path d="M109.81 106.036C109.499 109.039 106.817 111.217 103.825 110.906C100.822 110.595 98.6443 107.913 98.9554 104.921C99.2664 101.917 101.948 99.7401 104.94 100.051C107.944 100.362 110.121 103.044 109.81 106.036Z" fill="#7C6656"/>
<path d="M147.017 109.865C146.706 112.868 144.024 115.046 141.032 114.735C138.029 114.424 135.851 111.742 136.162 108.75C136.473 105.746 139.155 103.569 142.147 103.88C145.151 104.191 147.328 106.873 147.017 109.865Z" fill="#7C6656"/>
<path d="M135.017 120.494C135.017 120.494 129.536 123.744 121.727 121.727C112.149 119.25 109.832 114.616 109.832 114.616" stroke="#7C6656" stroke-width="2.5" stroke-linecap="round" stroke-linejoin="round"/>
<path d="M183.582 206.452L185.566 207.922C185.566 207.922 186.038 209.745 184.472 212.33C182.906 214.915 182.552 215.762 178.412 216.17C177.972 215.612 176.428 213.381 176.428 213.381C176.428 213.381 179.345 213.982 181.029 213.027C182.885 211.987 183.003 209.724 183.582 206.441V206.452Z" fill="#E1B995"/>
<path d="M166.84 206.463C166.84 206.463 172.289 212.351 169.36 219.355C171.581 220.289 180.108 219.323 177.652 214.851C175.099 212.105 172.814 207.117 172.814 207.117L166.84 206.463Z" fill="#E1B995"/>
<path d="M182.338 201.014C182.338 201.014 177.587 203.363 174.895 201.003C172.192 198.644 172.396 191.425 168.684 189.162C164.973 186.899 162.281 191.843 158.42 190.61C154.558 189.376 153.636 187.51 155.803 185.59C157.969 183.67 161.788 182.297 161.788 182.297C161.788 182.297 172.653 174.457 173.811 175.057C174.08 178.339 173.243 185.848 173.243 185.848C173.243 185.848 182.628 178.618 185.556 180.431C184.73 183.166 181.759 191.253 181.759 191.253C181.759 191.253 184.741 193.184 182.328 201.014H182.338Z" fill="#E1B995"/>
<path d="M173.242 184.432C173.242 184.432 174.819 175.969 173.811 175.047C172.813 174.124 163.214 180.42 161.787 182.287C161.787 182.287 154.054 184.003 153.335 188.658C152.616 193.313 153.764 199.33 160.06 203.481C166.356 207.632 176.246 209.069 180.826 203.481C185.406 197.893 181.759 191.254 181.759 191.254C181.759 191.254 185.556 181.289 185.556 180.431C185.556 179.573 175.388 182.523 173.242 185.848" stroke="#7C6656" stroke-width="2.5" stroke-linecap="round" stroke-linejoin="round"/>
<path d="M163.792 210.217C163.792 210.217 161.068 222.39 162.355 222.959C163.642 223.527 166.217 224.632 168.372 214.561" stroke="#7C6656" stroke-width="2.5" stroke-linecap="round" stroke-linejoin="round"/>
<path d="M157.775 202.023C157.775 202.023 151.264 200.907 150.975 196.327C150.975 196.327 150.685 193.034 148.251 193.463C145.816 193.892 145.676 198.901 149.398 203.632C153.12 208.362 157.775 208.587 157.775 208.587" stroke="#7C6656" stroke-width="2.5" stroke-linecap="round" stroke-linejoin="round"/>
<path d="M157.775 205.486C157.775 205.486 157.775 207.921 159.062 211.504" stroke="#7C6656" stroke-width="2.5" stroke-linecap="round" stroke-linejoin="round"/>
<path d="M158.431 211.504C158.431 211.504 155.642 213.22 157.123 216.76C158.86 219.055 161.37 218.948 161.37 218.948" stroke="#7C6656" stroke-width="2.5" stroke-linecap="round" stroke-linejoin="round"/>
<path d="M173.392 207.922C173.392 207.922 174.829 212.502 175.966 213.22C177.114 213.939 179.688 217.661 174.679 218.948C169.67 220.235 168.383 219.946 168.383 219.946" stroke="#7C6656" stroke-width="2.5" stroke-linecap="round" stroke-linejoin="round"/>
<path d="M178.971 185.579C178.971 185.579 176.676 188.293 176.536 188.657C176.397 189.022 174.82 188.014 174.82 188.014" stroke="#7C6656" stroke-width="2.5" stroke-linecap="round" stroke-linejoin="round"/>
<path d="M169.595 181L168.373 184.432L166.088 183.574" stroke="#7C6656" stroke-width="2.5" stroke-linecap="round" stroke-linejoin="round"/>
<path d="M174.819 195.318C174.819 195.318 176.106 193.141 167.836 193.141" stroke="#7C6656" stroke-width="2.5" stroke-linecap="round" stroke-linejoin="round"/>
<path d="M160.641 186.995C160.641 186.995 164.159 186.33 165.188 191.253" stroke="#7C6656" stroke-width="2.5" stroke-linecap="round" stroke-linejoin="round"/>
<path d="M166.839 194.235H164.372L163.793 192.315" stroke="#7C6656" stroke-width="2.5" stroke-linecap="round" stroke-linejoin="round"/>
<path d="M164.039 193.141C164.039 193.141 159.577 198.268 162.012 200.595C164.447 202.923 166.077 194.674 166.077 194.674" stroke="#7C6656" stroke-width="2.5" stroke-linecap="round" stroke-linejoin="round"/>
<path d="M176.9 213.295C177.34 212.855 178.005 212.683 178.627 212.909C178.67 212.93 179.539 213.22 180.279 212.866C180.772 212.63 181.159 212.104 181.427 211.3C182.553 207.943 184.087 203.33 188.967 204.264C189.857 204.446 190.415 205.272 190.243 206.151C190.072 207.02 189.235 207.599 188.356 207.428C186.768 207.127 185.985 207.792 184.473 212.319C183.776 214.421 182.532 215.365 181.62 215.794C180.408 216.362 179.206 216.309 178.413 216.169" stroke="#7C6656" stroke-width="2.5" stroke-linecap="round" stroke-linejoin="round"/>
<path d="M137.772 156.105C137.772 156.105 143.457 170.038 142.127 184.433C142.127 184.433 127.121 192.949 89.3125 185.58C89.3125 185.58 93.2167 165.984 91.1252 158.776" stroke="#7C6656" stroke-width="2.5" stroke-linecap="round" stroke-linejoin="round"/>
<path d="M78.394 133.891C78.394 133.891 72.0979 113.18 60.3744 116.977C48.651 120.774 59.9561 138.096 61.7259 140.574C63.4957 143.051 64.7184 146.687 64.8364 154.11C64.9651 161.532 66.5847 171.411 79.0804 172.633C90.9969 173.803 101.583 164.879 100.361 150.259C99.0307 134.31 85.4087 131.092 78.394 133.913V133.891Z" fill="white" stroke="#7C6656" stroke-width="2.5" stroke-linecap="round" stroke-linejoin="round"/>
<path d="M78.3923 133.892C78.3923 133.892 73.4369 136.391 71.1309 140.038" stroke="#7C6656" stroke-width="2.5" stroke-linecap="round" stroke-linejoin="round"/>
<path d="M128.88 150.656C128.88 150.656 127.839 155.686 118.036 155.686C108.232 155.686 103.523 148.554 103.523 148.554" stroke="#7C6656" stroke-width="2.5" stroke-linecap="round" stroke-linejoin="round"/>
<path d="M144.755 155.687C144.755 155.687 144.069 159.462 140.314 161.167" stroke="#7C6656" stroke-width="2.5" stroke-linecap="round" stroke-linejoin="round"/>
</g>
<defs>
<filter id="filter0_f_522_14291" x="137.264" y="115.22" width="23.6445" height="16.1348" filterUnits="userSpaceOnUse" color-interpolation-filters="sRGB">
<feFlood flood-opacity="0" result="BackgroundImageFix"/>
<feBlend mode="normal" in="SourceGraphic" in2="BackgroundImageFix" result="shape"/>
<feGaussianBlur stdDeviation="1" result="effect1_foregroundBlur_522_14291"/>
</filter>
<filter id="filter1_f_522_14291" x="81.4883" y="108.133" width="23.6445" height="16.1348" filterUnits="userSpaceOnUse" color-interpolation-filters="sRGB">
<feFlood flood-opacity="0" result="BackgroundImageFix"/>
<feBlend mode="normal" in="SourceGraphic" in2="BackgroundImageFix" result="shape"/>
<feGaussianBlur stdDeviation="1" result="effect1_foregroundBlur_522_14291"/>
</filter>
<clipPath id="clip0_522_14291">
<rect width="256" height="256" fill="white"/>
</clipPath>
</defs>
</svg>
