<svg width="256" height="256" viewBox="0 0 256 256" fill="none" xmlns="http://www.w3.org/2000/svg">
<g clip-path="url(#clip0_522_15264)">
<path d="M116.878 222.765L75.6151 191.075C74.6378 190.379 74.8369 189.248 76.0766 188.551L136.089 154.853C137.32 154.156 139.111 154.156 140.098 154.853L183.533 184.823C184.51 185.519 184.311 186.651 183.071 187.347L120.887 222.765C119.656 223.462 117.865 223.462 116.878 222.765Z" fill="white" stroke="#7C6656" stroke-width="2.5" stroke-linecap="round" stroke-linejoin="round"/>
<path d="M118.534 216.006L83.3154 190.877C82.3833 190.207 82.5734 189.13 83.7497 188.461L135.102 159.423C136.279 158.753 137.989 158.762 138.93 159.423L174.148 184.552C175.08 185.221 174.89 186.298 173.714 186.968L122.361 216.006C121.185 216.675 119.475 216.666 118.534 216.006Z" fill="#9ED9F8" stroke="#7C6656" stroke-width="2.5" stroke-linecap="round" stroke-linejoin="round"/>
<path d="M99.0078 205.545C98.2296 205.988 97.0985 205.979 96.4832 205.545C95.8678 205.101 95.9945 204.396 96.7727 203.952C97.5509 203.509 98.682 203.518 99.2974 203.952C99.9127 204.396 99.786 205.101 99.0078 205.545Z" fill="#7C6656"/>
<g style="mix-blend-mode:multiply" opacity="0.2">
<path d="M146.902 173.295L164.828 186.09" stroke="#7C6656" stroke-width="2.5" stroke-linecap="round" stroke-linejoin="round"/>
</g>
<g style="mix-blend-mode:multiply" opacity="0.2">
<path d="M143.609 175.158L161.535 187.953" stroke="#7C6656" stroke-width="2.5" stroke-linecap="round" stroke-linejoin="round"/>
</g>
<g style="mix-blend-mode:multiply" opacity="0.2">
<path d="M140.314 177.022L158.24 189.809" stroke="#7C6656" stroke-width="2.5" stroke-linecap="round" stroke-linejoin="round"/>
</g>
<g style="mix-blend-mode:multiply" opacity="0.2">
<path d="M137.012 178.887L154.938 191.673" stroke="#7C6656" stroke-width="2.5" stroke-linecap="round" stroke-linejoin="round"/>
</g>
<g style="mix-blend-mode:multiply" opacity="0.2">
<path d="M133.719 180.751L151.645 193.537" stroke="#7C6656" stroke-width="2.5" stroke-linecap="round" stroke-linejoin="round"/>
</g>
<g style="mix-blend-mode:multiply" opacity="0.2">
<path d="M130.426 182.614L148.352 195.4" stroke="#7C6656" stroke-width="2.5" stroke-linecap="round" stroke-linejoin="round"/>
</g>
<g style="mix-blend-mode:multiply" opacity="0.2">
<path d="M127.131 184.479L145.048 197.265" stroke="#7C6656" stroke-width="2.5" stroke-linecap="round" stroke-linejoin="round"/>
</g>
<g style="mix-blend-mode:multiply" opacity="0.2">
<path d="M110.443 178.66L116.579 183.031" stroke="#7C6656" stroke-width="2.5" stroke-linecap="round" stroke-linejoin="round"/>
</g>
<g style="mix-blend-mode:multiply" opacity="0.2">
<path d="M106.02 180.579L136.695 202.468" stroke="#7C6656" stroke-width="2.5" stroke-linecap="round" stroke-linejoin="round"/>
</g>
<g style="mix-blend-mode:multiply" opacity="0.2">
<path d="M123.093 194.387L122.433 195.31L123.211 196.097L121.673 196.079L120.632 196.875L120.343 195.943L118.922 195.654L120.288 195.093L120.442 194.115L121.573 194.703L123.093 194.387Z" fill="#7C6656"/>
<path d="M126.675 196.947L126.015 197.87L126.793 198.648L125.255 198.63L124.214 199.427L123.925 198.495L122.504 198.205L123.87 197.644L124.024 196.676L125.155 197.255L126.675 196.947Z" fill="#7C6656"/>
<path d="M130.261 199.5L129.601 200.423L130.379 201.201L128.841 201.192L127.8 201.988L127.511 201.056L126.09 200.767L127.456 200.206L127.61 199.229L128.741 199.817L130.261 199.5Z" fill="#7C6656"/>
<path d="M133.843 202.061L133.183 202.984L133.961 203.762L132.423 203.744L131.382 204.54L131.093 203.608L129.672 203.318L131.029 202.757L131.192 201.789L132.323 202.368L133.843 202.061Z" fill="#7C6656"/>
</g>
<g style="mix-blend-mode:multiply" opacity="0.2">
<path d="M99.1523 184.47L129.828 206.359" stroke="#7C6656" stroke-width="2.5" stroke-linecap="round" stroke-linejoin="round"/>
</g>
<g style="mix-blend-mode:multiply" opacity="0.2">
<path d="M116.226 198.278L115.557 199.201L116.344 199.979L114.797 199.97L113.765 200.758L113.475 199.826L112.055 199.536L113.412 198.975L113.575 198.007L114.706 198.586L116.226 198.278Z" fill="#7C6656"/>
<path d="M119.808 200.83L119.139 201.753L119.926 202.531L118.379 202.522L117.347 203.319L117.057 202.386L115.637 202.097L116.994 201.536L117.157 200.559L118.288 201.147L119.808 200.83Z" fill="#7C6656"/>
<path d="M123.382 203.392L122.722 204.315L123.509 205.093L121.962 205.075L120.93 205.871L120.641 204.939L119.211 204.649L120.577 204.088L120.731 203.12L121.871 203.699L123.382 203.392Z" fill="#7C6656"/>
<path d="M126.968 205.942L126.308 206.865L127.086 207.644L125.548 207.635L124.516 208.431L124.227 207.499L122.797 207.209L124.163 206.648L124.317 205.671L125.448 206.25L126.968 205.942Z" fill="#7C6656"/>
</g>
<path d="M177.568 33L169.922 48.0484" stroke="#76A7C6" stroke-width="2.5" stroke-linecap="round" stroke-linejoin="round"/>
<path d="M173.742 53.3242L192.546 53.469" stroke="#76A7C6" stroke-width="2.5" stroke-linecap="round" stroke-linejoin="round"/>
<path d="M211.43 41.2342L212.344 46.8807C212.453 47.5774 212.905 48.1656 213.539 48.4733L218.715 50.9255C220.316 51.6857 220.352 53.9479 218.778 54.7623L213.683 57.3774C213.059 57.7032 212.634 58.3095 212.543 59.0062L211.81 64.6799C211.584 66.4354 209.439 67.1684 208.182 65.9287L204.119 61.8928C203.621 61.3952 202.906 61.178 202.218 61.3047L196.59 62.3634C194.853 62.6891 193.486 60.8794 194.282 59.2958L196.861 54.1832C197.178 53.5588 197.169 52.8077 196.825 52.1924L194.083 47.1702C193.233 45.6138 194.536 43.7588 196.282 44.0303L201.938 44.908C202.635 45.0166 203.34 44.7723 203.82 44.2655L207.747 40.103C208.96 38.8181 211.132 39.4787 211.412 41.2251L211.43 41.2342Z" fill="#82AEDD"/>
<path d="M164.654 118.781C164.654 118.781 171.197 119.846 176.702 113.664C182.577 107.068 179.571 100.895 179.571 100.895C179.571 100.895 186.412 98.2599 186.304 88.4595C186.204 79.6968 177.027 75.302 177.027 75.302C177.027 75.302 173.742 59.0491 158.888 47.7506C139.025 32.6168 110.977 41.957 110.977 41.957C110.977 41.957 82.6048 42.0833 69.8083 71.611C66.5415 76.7188 64.1951 91.266 64.1951 91.266C64.1951 91.266 51.9762 100.029 60.6395 113.935C65.4495 121.651 74.3295 119.539 74.3295 119.539C74.3295 119.539 73.2195 126.497 83.8682 130.495C91.196 133.247 97.2694 128.528 97.2694 128.528C97.2694 128.528 99.0472 134.032 107.088 132.182" fill="white"/>
<path d="M164.654 118.781C164.654 118.781 171.197 119.846 176.702 113.664C182.577 107.068 179.571 100.895 179.571 100.895C179.571 100.895 186.412 98.2599 186.304 88.4595C186.204 79.6968 177.027 75.302 177.027 75.302C177.027 75.302 173.742 59.0491 158.888 47.7506C139.025 32.6168 110.977 41.957 110.977 41.957C110.977 41.957 82.6048 42.0833 69.8083 71.611C66.5415 76.7188 64.1951 91.266 64.1951 91.266C64.1951 91.266 51.9762 100.029 60.6395 113.935C65.4495 121.651 74.3295 119.539 74.3295 119.539C74.3295 119.539 73.2195 126.497 83.8682 130.495C91.196 133.247 97.2694 128.528 97.2694 128.528C97.2694 128.528 99.0472 134.032 107.088 132.182" stroke="#7C6656" stroke-width="2.5" stroke-linecap="round" stroke-linejoin="round"/>
<path d="M135.838 153.932C135.838 153.932 136.28 167.64 129.115 177.214C129.115 177.214 131.326 180.183 129.115 182.864C126.561 186.672 115.136 183.171 117.844 176.7C120.551 170.23 122.888 165.618 121.869 156.594" fill="white"/>
<path d="M135.838 153.932C135.838 153.932 136.28 167.64 129.115 177.214C129.115 177.214 131.326 180.183 129.115 182.864C126.561 186.672 115.136 183.171 117.844 176.7C120.551 170.23 122.888 165.618 121.869 156.594" stroke="#7C6656" stroke-width="2.5" stroke-linecap="round" stroke-linejoin="round"/>
<path d="M123.124 156.187C123.124 156.187 116.825 156.566 116.365 156.566H115.913C115.913 156.566 115.155 162.568 107.864 166.746C104.29 169.191 98.0631 169.191 98.0631 169.191C98.0631 169.191 96.9261 172.296 94.2639 172.449C91.6017 172.603 88.4161 170.319 89.1742 164.327C89.9322 158.326 95.8793 158.931 96.5922 158.786C97.3051 158.633 99.6785 158.407 101.727 157.496C103.776 156.584 103.758 154.021 103.758 154.021" fill="white"/>
<path d="M123.124 156.187C123.124 156.187 116.825 156.566 116.365 156.566H115.913C115.913 156.566 115.155 162.568 107.864 166.746C104.29 169.191 98.0631 169.191 98.0631 169.191C98.0631 169.191 96.9261 172.296 94.2639 172.449C91.6017 172.603 88.4161 170.319 89.1742 164.327C89.9322 158.326 95.8793 158.931 96.5922 158.786C97.3051 158.633 99.6785 158.407 101.727 157.496C103.776 156.584 103.758 154.021 103.758 154.021" stroke="#7C6656" stroke-width="2.5" stroke-linecap="round" stroke-linejoin="round"/>
<path d="M140.84 124.386C143.547 138.139 140.072 159.96 140.072 159.96C140.072 159.96 141.21 162.631 139.468 163.226C137.726 163.813 133.052 166.511 120.887 165.311C108.722 164.111 95.8893 156.621 95.7539 152.072C95.6185 147.524 99.0568 146.685 99.0568 146.685C101.15 132.607 107.883 123.492 107.883 123.492C107.883 123.492 117.223 124.701 119.921 124.738C121.663 126.064 126.644 129.43 133.918 127.968C137.726 126.741 138.692 124.025 138.692 124.025L140.84 124.377V124.386Z" fill="#FFADBE"/>
<path d="M107.882 123.492C107.882 123.492 101.15 132.598 99.0563 146.685C99.0563 146.685 95.6271 147.533 95.7534 152.072C95.8888 156.62 108.721 164.102 120.886 165.311C133.051 166.511 137.735 163.822 139.467 163.226C141.209 162.64 140.072 159.959 140.072 159.959C140.072 159.959 143.537 138.138 140.839 124.385" stroke="#7C6656" stroke-width="2.5" stroke-linecap="round" stroke-linejoin="round"/>
<g filter="url(#filter0_f_522_15264)">
<path d="M157.337 98.7776C162.131 98.1353 165.728 95.4554 165.372 92.7918C165.015 90.1282 160.839 88.4897 156.044 89.1319C151.25 89.7742 147.653 92.4542 148.009 95.1178C148.366 97.7813 152.542 99.4199 157.337 98.7776Z" fill="#F5B0B0"/>
</g>
<g filter="url(#filter1_f_522_15264)">
<path d="M109.961 106.106C114.622 105.481 118.111 102.816 117.755 100.152C117.398 97.4887 113.33 95.8357 108.668 96.4601C104.007 97.0846 100.518 99.7501 100.875 102.414C101.231 105.077 105.299 106.73 109.961 106.106Z" fill="#F5B0B0"/>
</g>
<path d="M153.166 82.6396C153.608 85.1394 151.939 87.5218 149.448 87.964C146.948 88.4062 144.566 86.7367 144.124 84.246C143.682 81.7462 145.351 79.3638 147.842 78.9216C150.342 78.4794 152.724 80.1489 153.166 82.6396Z" fill="#7C6656"/>
<path d="M130.271 95.9862C130.271 95.9862 133.718 96.5909 136.019 96.1848C138.979 95.6614 140.649 94.1543 140.649 94.1543C140.649 94.1543 144.069 111.048 139.557 112.726C135.045 114.405 131.327 104.072 130.262 95.9953L130.271 95.9862Z" fill="#F29AA0" stroke="#7C6656" stroke-width="2.5" stroke-linecap="round" stroke-linejoin="round"/>
<path d="M111.43 86.9521L119.958 88.5856L112.847 91.6358" stroke="#7C6656" stroke-width="2.5" stroke-linecap="round" stroke-linejoin="round"/>
<path d="M138.701 124.503C138.701 124.503 133.097 133.211 120.68 124.927" stroke="#7C6656" stroke-width="2.5" stroke-linecap="round" stroke-linejoin="round"/>
<path d="M92.7383 117.481C93.5595 118.167 94.4168 118.754 95.3192 119.25C103.847 123.943 118.16 125.315 125.966 124.069" stroke="#7C6656" stroke-width="2.5" stroke-linecap="round" stroke-linejoin="round"/>
<path d="M163.544 74.3096C163.806 75.1759 164.266 76.1144 164.419 76.4303C165.656 78.6864 171.765 85.4005 171.413 95.1378C171.061 104.875 163.824 115.587 147.697 121.724C147.697 121.724 141.895 123.998 137.473 123.998" stroke="#7C6656" stroke-width="2.5" stroke-linecap="round" stroke-linejoin="round"/>
<path d="M151.777 59.7344C151.777 59.7344 157.075 68.3165 154.277 75.9782" stroke="#7C6656" stroke-width="2.5" stroke-linecap="round" stroke-linejoin="round"/>
<path d="M124.73 63.1738C124.73 63.1738 129.252 74.2467 124.947 81.9355" stroke="#7C6656" stroke-width="2.5" stroke-linecap="round" stroke-linejoin="round"/>
<path d="M98.2631 72.6582C98.2631 72.6582 100.745 83.2979 95.6641 91.7447" stroke="#7C6656" stroke-width="2.5" stroke-linecap="round" stroke-linejoin="round"/>
<path d="M89.3627 91.0127C89.3627 91.0127 92.5212 105.551 87.4766 110.487" stroke="#7C6656" stroke-width="2.5" stroke-linecap="round" stroke-linejoin="round"/>
<path d="M182.703 162.17L160.25 177.792L134.242 166.629L145.541 157.279L177.703 156.792L182.703 162.17Z" fill="#FAD9BE"/>
<path d="M142.879 125.316L146.218 165.483C146.218 165.483 134.911 167.288 132.014 165.113C131.518 159.121 128.332 120.84 128.332 120.84L142.879 125.307V125.316Z" fill="#FDD45F"/>
<path d="M168.715 123.158L172.054 163.325C172.054 163.325 183.506 163.244 186.005 160.618C185.509 154.626 182.324 116.345 182.324 116.345L168.715 123.149V123.158Z" fill="#FFF599"/>
<path d="M168.743 123.447L171.982 162.46C171.982 162.46 167.109 166.62 158.987 167.297C150.856 167.973 146.218 165.483 146.218 165.483L142.879 125.315L168.743 123.456V123.447Z" fill="#FFE083"/>
<path d="M167.786 111.887L141.174 114.107L128.332 120.848L142.103 125.378L168.716 123.158L181.558 116.417L167.786 111.887Z" fill="#FAD9BE"/>
<path d="M167.786 111.887L141.174 114.107L128.332 120.848L142.103 125.378L168.716 123.158L181.558 116.417L167.786 111.887Z" stroke="#7C6656" stroke-width="2.5" stroke-linecap="round" stroke-linejoin="round"/>
<path d="M128.332 120.848L132.059 165.717L156.1 175.788L157.192 182.737C157.192 182.737 158.573 185.309 160.314 185.165H160.387C162.128 185.011 163.067 182.25 163.067 182.25L162.995 175.211L185.294 161.286L181.567 116.417" stroke="#7C6656" stroke-width="2.5" stroke-linecap="round" stroke-linejoin="round"/>
<path d="M131.922 164.03C131.922 164.03 139.069 167.73 145.224 165.284L145.558 165.095C148.211 166.845 153.273 167.775 158.986 167.297C164.545 166.836 169.283 165.167 171.674 163.082L172.035 163.055C178.506 164.454 184.949 159.626 184.949 159.626" stroke="#7C6656" stroke-width="2.5" stroke-linecap="round" stroke-linejoin="round"/>
<path d="M162.921 174.452L156.035 175.021C156.035 175.021 156.757 185.462 160.349 185.155C163.94 184.857 162.93 174.443 162.93 174.443L162.921 174.452Z" fill="#7C6656"/>
<path d="M161.036 118.069C161.117 119.061 158.401 120.099 154.963 120.388C151.525 120.677 148.673 120.099 148.592 119.107C148.51 118.114 151.227 117.076 154.665 116.787C158.103 116.499 160.955 117.076 161.036 118.069Z" fill="#7C6656"/>
<path d="M121.915 132.191C128.413 138.689 135.614 135.675 135.614 135.675C136.805 130.883 139.693 129.141 144.638 130.323C150.242 131.686 152.336 138.373 148.925 143.255C145.505 148.137 139.44 145.448 139.44 145.448C127.763 148.922 118.296 144.347 112.963 140.557L121.924 132.2L121.915 132.191Z" fill="white"/>
<path d="M108.207 136.479C108.207 136.479 121.085 150.909 139.44 145.44C139.44 145.44 145.514 148.129 148.925 143.247C152.345 138.365 150.242 131.687 144.638 130.315C139.693 129.142 136.805 130.875 135.614 135.667C135.614 135.667 126.039 139.683 119.009 128.483" stroke="#7C6656" stroke-width="2.5" stroke-linecap="round" stroke-linejoin="round"/>
<path d="M121.328 132.561L113.477 139.844" stroke="#7C6656" stroke-width="2.5" stroke-linecap="round" stroke-linejoin="round"/>
</g>
<defs>
<filter id="filter0_f_522_15264" x="143.984" y="84.9927" width="25.4121" height="17.9243" filterUnits="userSpaceOnUse" color-interpolation-filters="sRGB">
<feFlood flood-opacity="0" result="BackgroundImageFix"/>
<feBlend mode="normal" in="SourceGraphic" in2="BackgroundImageFix" result="shape"/>
<feGaussianBlur stdDeviation="2" result="effect1_foregroundBlur_522_15264"/>
</filter>
<filter id="filter1_f_522_15264" x="96.8496" y="92.3281" width="24.9297" height="17.9097" filterUnits="userSpaceOnUse" color-interpolation-filters="sRGB">
<feFlood flood-opacity="0" result="BackgroundImageFix"/>
<feBlend mode="normal" in="SourceGraphic" in2="BackgroundImageFix" result="shape"/>
<feGaussianBlur stdDeviation="2" result="effect1_foregroundBlur_522_15264"/>
</filter>
<clipPath id="clip0_522_15264">
<rect width="256" height="256" fill="white"/>
</clipPath>
</defs>
</svg>
