<svg width="256" height="256" viewBox="0 0 256 256" fill="none" xmlns="http://www.w3.org/2000/svg">
<g clip-path="url(#clip0_522_15081)">
<path opacity="0.4" d="M128 223.695C165.555 223.695 196 219.889 196 215.195C196 210.5 165.555 206.695 128 206.695C90.4446 206.695 60 210.5 60 215.195C60 219.889 90.4446 223.695 128 223.695Z" fill="#E1D6CF"/>
<path d="M77.7627 91.3142L79.5743 100.221L78.8195 109.129L81.6879 123.018L86.368 130.113L100.861 139.021L106.447 141.738L101.616 168.158L101.012 176.159L104.937 177.065L103.428 201.673L101.918 207.108L99.6533 209.373L99.3514 213.298L101.465 215.261H109.466L113.845 213.6L116.411 210.128L119.279 200.768L122.752 187.482H132.867L136.339 209.826L138.453 212.845L143.133 214.355L148.568 214.657L151.889 213.751L153.399 211.486V208.769L151.134 207.259L149.323 194.578L151.134 184.01L151.436 176.31L153.097 175.857L152.493 168.309L161.098 169.215L162.608 167.403L163.967 164.233L165.627 164.686L168.949 164.233L173.025 162.572L174.836 159.553L173.931 154.118L171.817 151.249L169.703 149.891L171.817 143.701L176.95 128.906L176.497 126.641L179.064 119.848L179.366 112.45L177.705 105.203L174.836 99.0136L180.422 88.5967L181.932 81.954L181.026 74.5565L179.215 70.1784L175.893 64.2905L170.458 58.1007L162.306 52.6658L149.473 46.9289L139.358 44.3625L125.771 43.3057L114.297 45.7212L109.013 48.1367L101.616 49.4954L93.0106 53.1187L85.7641 58.7046L80.3292 66.1022L78.2156 72.141L77.0078 79.6895L77.7627 91.3142Z" fill="white"/>
<path d="M151.814 176.651C151.814 176.651 107.954 176.225 105.164 176.028C104.78 179.482 106.087 199.747 102.219 206.271C104.573 208.045 116.676 209.652 116.676 209.652C116.676 209.652 122.266 189.812 122.588 187.146C122.588 187.146 132.368 188.484 132.607 187.935C132.845 187.385 132.368 188.484 132.368 188.484L136.434 209.808C136.434 209.808 141.754 207.08 150.611 206.375C149.771 202.34 149.232 195.599 149.875 191.119C150.508 186.638 151.825 176.661 151.825 176.661L151.814 176.651Z" fill="#8EBDE2"/>
<path d="M103.029 206.936C103.029 206.936 99.8134 208.045 99.3778 210.617C98.9526 213.189 99.2223 215.627 106.078 215.637C111.886 215.637 114.582 213.231 116.667 209.653" stroke="#7C6656" stroke-width="2.5" stroke-linecap="round" stroke-linejoin="round"/>
<path d="M132.834 187.385C132.834 187.385 135.209 208.936 137.138 211.508C139.067 214.081 144.74 215.045 148.702 214.609C152.664 214.184 153.95 211.187 153.089 209.362C152.228 207.536 150.196 206.862 150.196 206.862" stroke="#7C6656" stroke-width="2.5" stroke-linecap="round" stroke-linejoin="round"/>
<path d="M149.139 150.733C149.139 150.733 153.101 162.733 151.814 176.651C150.528 190.58 147.79 195.444 150.601 206.375" stroke="#7C6656" stroke-width="2.5" stroke-linecap="round" stroke-linejoin="round"/>
<path d="M105.372 153.865C105.372 153.865 104.656 180.115 104.615 189.843C104.573 199.572 101.98 207.111 101.98 207.111C101.98 207.111 113.472 207.277 116.905 209.652C117.703 207.858 117.973 206.78 118.315 205.141C119.726 198.358 122.568 187.147 122.568 187.147C122.568 187.147 134.453 188.111 137.129 186.607" stroke="#7C6656" stroke-width="2.5" stroke-linecap="round" stroke-linejoin="round"/>
<path d="M151.463 207.526C151.463 207.526 143.083 205.877 137.141 210.233" stroke="#7C6656" stroke-width="2.5" stroke-linecap="round" stroke-linejoin="round"/>
<path d="M106.067 141.938C106.067 141.938 100.705 164.475 101.203 176.361C101.203 176.361 142.916 177.553 152.976 176.029C152.976 176.029 151.286 149.603 146.826 139.397" fill="white"/>
<path d="M106.067 141.938C106.067 141.938 100.705 164.475 101.203 176.361C101.203 176.361 142.916 177.553 152.976 176.029C152.976 176.029 151.286 149.603 146.826 139.397" stroke="#7C6656" stroke-width="2.5" stroke-linecap="round" stroke-linejoin="round"/>
<path d="M139.95 144.043C139.328 146.117 136.994 149.737 129.879 150.66C123.739 151.458 118.201 148.492 115.525 144.572" stroke="#7C6656" stroke-width="2.5" stroke-linecap="round" stroke-linejoin="round"/>
<path d="M174.838 88.0088C175.637 91.3795 174.693 95.808 174.579 97.5296C175.481 100.34 180.926 109.249 178.406 120.16C175.896 131.07 166.033 140.156 146.494 143.568C146.494 143.568 135.054 144.968 131.02 144.449" stroke="#7C6656" stroke-width="2.5" stroke-linecap="round" stroke-linejoin="round"/>
<path d="M123.055 143.671C110.091 143.111 96.0997 138.787 87.3567 130.49C80.0967 123.603 77.3795 115.617 79.9412 97.8926" stroke="#7C6656" stroke-width="2.5" stroke-linecap="round" stroke-linejoin="round"/>
<g filter="url(#filter0_f_522_15081)">
<path d="M160.161 120.355C165.756 120.565 170.387 118.215 170.504 115.106C170.621 111.998 166.179 109.307 160.583 109.097C154.987 108.887 150.357 111.237 150.24 114.346C150.123 117.455 154.565 120.145 160.161 120.355Z" fill="#F5B0B0"/>
</g>
<g filter="url(#filter1_f_522_15081)">
<path d="M104.672 119.399C110.113 119.603 114.617 117.249 114.734 114.14C114.851 111.031 110.535 108.345 105.095 108.141C99.6544 107.937 95.1496 110.292 95.0329 113.4C94.9162 116.509 99.2319 119.195 104.672 119.399Z" fill="#F5B0B0"/>
</g>
<path d="M157.374 104.946C157.26 107.86 154.812 110.131 151.898 110.017C148.984 109.903 146.712 107.456 146.826 104.541C146.94 101.627 149.388 99.3558 152.302 99.4699C155.217 99.584 157.488 102.031 157.374 104.946Z" fill="#7C6656"/>
<path d="M146.858 119.849C146.858 119.849 142.108 125.242 133.945 124.931C125.793 124.62 121.738 118.905 121.738 118.905" stroke="#7C6656" stroke-width="2.5" stroke-linecap="round" stroke-linejoin="round"/>
<path d="M79.0598 97.8617C67.4751 51.6264 108.535 48.0898 108.535 48.0898C136.828 34.4308 167.247 55.8268 167.247 55.8268C167.247 55.8268 189.545 70.7304 179.07 91.3485" stroke="#7C6656" stroke-width="2.5" stroke-linecap="round" stroke-linejoin="round"/>
<path d="M111.781 62.9824C111.781 62.9824 109.23 77.5334 132.596 86.2971" stroke="#7C6656" stroke-width="2.5" stroke-linecap="round" stroke-linejoin="round"/>
<path d="M106.221 71.3955C106.221 71.3955 92.3965 79.1636 88.9844 93.0715" stroke="#7C6656" stroke-width="2.5" stroke-linecap="round" stroke-linejoin="round"/>
<path d="M157.769 87.5421C157.769 87.5421 141.393 82.2008 136.176 67.0898" stroke="#7C6656" stroke-width="2.5" stroke-linecap="round" stroke-linejoin="round"/>
<path d="M129.039 55.5039C129.039 55.5039 121.976 58.0137 122.235 63.4379C122.433 67.5968 124.424 69.474 131.186 73.2907C137.948 77.1073 150.891 71.0816 157.643 62.8571C152.779 57.8374 144.129 48.2958 129.039 55.5039Z" fill="#1AAF92"/>
<path d="M124.167 68.0114C124.167 68.0114 138.323 86.2545 157.936 62.5042C157.936 62.5042 143.903 44.6863 123.721 58.5216" stroke="#7C6656" stroke-width="2.5" stroke-linecap="round" stroke-linejoin="round"/>
<path d="M140.842 63.6556C140.842 63.8838 126.146 68.0634 118.326 59.4863" stroke="#7C6656" stroke-width="2.5" stroke-linecap="round" stroke-linejoin="round"/>
<path d="M121.231 103.576C121.231 103.576 117.3 97.7992 110.684 103.182" stroke="#7C6656" stroke-width="2.5" stroke-linecap="round" stroke-linejoin="round"/>
<path d="M134.297 149.511C134.297 149.511 137.761 150.082 141.619 145.757C144.378 142.666 140.281 136.547 140.281 136.547C140.281 136.547 145.052 136.329 143.424 133.571C139.7 130.086 133.581 132.783 129.557 135.479C125.533 138.186 126.902 148.36 123.324 149.366C119.746 150.372 113.793 144.803 113.793 144.803L111.553 158.306C111.553 158.306 123.791 166.904 133.561 156.937C134.764 155.33 136.506 151.99 136.776 150.051" fill="white"/>
<path d="M114.209 144.627C114.209 144.627 120.152 150.196 123.74 149.19C127.329 148.184 125.949 138.01 129.973 135.303C133.997 132.596 140.116 129.91 143.84 133.394C145.468 136.153 140.697 136.371 140.697 136.371C140.697 136.371 144.794 142.49 142.035 145.581C138.177 149.905 134.713 149.335 134.713 149.335" stroke="#7C6656" stroke-width="2.5" stroke-linecap="round" stroke-linejoin="round"/>
<path d="M137.263 148.993C137.263 148.993 137.108 157.041 128.303 160.765C119.497 164.488 110.879 157.912 110.879 157.912" stroke="#7C6656" stroke-width="2.5" stroke-linecap="round" stroke-linejoin="round"/>
<path d="M120.307 149.064L116.293 160.732" stroke="#7C6656" stroke-width="2.5" stroke-linecap="round" stroke-linejoin="round"/>
<path d="M112.786 143.765C112.786 143.765 119.289 148.774 120.305 149.064C119.019 152.819 116.312 161.23 116.312 161.23C116.312 161.23 110.287 157.807 108.119 155.941" fill="white"/>
<path d="M112.786 143.765C112.786 143.765 119.289 148.774 120.305 149.064C119.019 152.819 116.312 161.23 116.312 161.23C116.312 161.23 110.287 157.807 108.119 155.941" stroke="#7C6656" stroke-width="2.5" stroke-linecap="round" stroke-linejoin="round"/>
<path d="M138.329 162.782L153.035 123.568C153.357 122.707 154.259 122.199 155.172 122.365L175.78 126.172C176.952 126.389 177.636 127.603 177.221 128.712L162.515 167.926C162.193 168.787 161.291 169.295 160.378 169.129L139.771 165.323C138.599 165.105 137.914 163.892 138.329 162.782Z" fill="#DDF1FD" stroke="#7C6656" stroke-width="2.5" stroke-linecap="round" stroke-linejoin="round"/>
<path d="M160.036 130.953C159.196 130.797 158.636 129.988 158.792 129.138C158.947 128.298 159.756 127.738 160.607 127.893C161.447 128.049 162.007 128.858 161.851 129.708C161.696 130.559 160.887 131.108 160.036 130.953Z" fill="#7C6656"/>
<path d="M156.405 130.29C155.565 130.134 155.005 129.325 155.161 128.475C155.316 127.635 156.125 127.074 156.976 127.23C157.816 127.386 158.376 128.195 158.22 129.045C158.065 129.895 157.256 130.445 156.405 130.29Z" fill="#7C6656"/>
<path d="M158.647 134.168C157.807 134.012 157.247 133.203 157.403 132.353C157.558 131.512 158.367 130.952 159.218 131.108C160.058 131.264 160.618 132.073 160.462 132.923C160.307 133.773 159.498 134.323 158.647 134.168Z" fill="#7C6656"/>
<path d="M155.028 133.503C154.188 133.348 153.628 132.539 153.784 131.688C153.939 130.848 154.748 130.288 155.599 130.444C156.439 130.599 156.999 131.408 156.843 132.259C156.688 133.109 155.879 133.659 155.028 133.503Z" fill="#7C6656"/>
<path d="M174.09 153.366C170.211 145.474 159.311 150.193 160.421 158.261C161.479 165.967 169.62 165.065 172.213 163.001C174.806 160.937 175.967 157.172 174.09 153.366Z" fill="white" stroke="#7C6656" stroke-width="2.5" stroke-linecap="round" stroke-linejoin="round"/>
</g>
<defs>
<filter id="filter0_f_522_15081" x="146.238" y="105.084" width="28.2676" height="19.2842" filterUnits="userSpaceOnUse" color-interpolation-filters="sRGB">
<feFlood flood-opacity="0" result="BackgroundImageFix"/>
<feBlend mode="normal" in="SourceGraphic" in2="BackgroundImageFix" result="shape"/>
<feGaussianBlur stdDeviation="2" result="effect1_foregroundBlur_522_15081"/>
</filter>
<filter id="filter1_f_522_15081" x="91.0312" y="104.129" width="27.7051" height="19.2827" filterUnits="userSpaceOnUse" color-interpolation-filters="sRGB">
<feFlood flood-opacity="0" result="BackgroundImageFix"/>
<feBlend mode="normal" in="SourceGraphic" in2="BackgroundImageFix" result="shape"/>
<feGaussianBlur stdDeviation="2" result="effect1_foregroundBlur_522_15081"/>
</filter>
<clipPath id="clip0_522_15081">
<rect width="256" height="256" fill="white"/>
</clipPath>
</defs>
</svg>
