<svg width="256" height="256" viewBox="0 0 256 256" fill="none" xmlns="http://www.w3.org/2000/svg">
<g clip-path="url(#clip0_522_13772)">
<path opacity="0.4" d="M127.999 235.636C168.567 235.636 201.454 231.729 201.454 226.909C201.454 222.089 168.567 218.182 127.999 218.182C87.4316 218.182 54.5449 222.089 54.5449 226.909C54.5449 231.729 87.4316 235.636 127.999 235.636Z" fill="#E1D6CF"/>
<path d="M94.4377 64.2301C93.1474 68.4882 95.1783 77.4264 95.9847 81.9425C91.3396 84.136 87.1797 94.3375 86.0506 98.5848C84.2442 110.327 91.4269 119.606 95.2441 122.778C76.0507 119.069 69.9217 126.972 67.0185 130.036C64.6959 132.488 64.9754 136.972 65.4055 138.907C54.0508 153.101 63.255 172.348 69.2765 180.197C77.0184 190.262 97.8785 202.993 107.341 208.1L119.921 212.778L133.954 199.552C142.599 206.907 151.964 207.993 155.566 207.617C160.599 211.875 163.147 210.251 163.792 208.907C167.824 202.133 163.953 198.907 162.663 195.52C161.631 192.81 157.502 193.531 155.566 194.23C148.857 195.133 146.104 189.875 145.566 187.133L149.276 181.326C159.599 188.165 168.416 190.95 171.534 191.488L184.276 192.617L188.469 193.101C194.018 193.875 194.652 188.692 194.276 186.004C193.792 181.649 189.76 178.746 188.469 177.455C187.437 176.423 184.921 177.025 183.792 177.455C172.437 177.326 163.47 170.735 160.405 167.455C158.728 165.649 153.47 151.757 151.05 145.036C159.179 144.262 166.158 141.595 168.631 140.359C179.082 137.262 184.276 121.004 185.566 113.262C194.211 101.52 195.727 89.5526 195.405 85.0365C195.276 70.585 182.018 60.413 175.405 57.1334C170.631 50.5528 158.685 45.6818 153.308 44.0689C128.018 37.2302 112.771 43.37 108.309 47.2947C101.051 51.4882 96.0506 58.9076 94.4377 64.2301Z" fill="white"/>
<g filter="url(#filter0_f_522_13772)">
<path d="M144.831 120.89C149.306 122.838 153.832 122.355 154.94 119.81C156.048 117.265 153.318 113.622 148.842 111.674C144.367 109.726 139.84 110.21 138.732 112.755C137.625 115.3 140.355 118.942 144.831 120.89Z" fill="#F5B0B0"/>
</g>
<g filter="url(#filter1_f_522_13772)">
<path d="M98.3852 99.4019C102.861 101.35 107.387 100.866 108.495 98.3213C109.603 95.7763 106.873 92.1339 102.397 90.1857C97.9212 88.2375 93.3949 88.7213 92.2871 91.2663C91.1794 93.8113 93.9096 97.4537 98.3852 99.4019Z" fill="#F5B0B0"/>
</g>
<path d="M117.07 89.5614C117.07 89.5614 112.931 87.0323 108.523 86.8672" stroke="#7C6656" stroke-width="2.5" stroke-linecap="round" stroke-linejoin="round"/>
<path d="M139.264 99.2227C139.264 99.2227 147.264 100.048 151.331 108.647" stroke="#7C6656" stroke-width="2.5" stroke-linecap="round" stroke-linejoin="round"/>
<path d="M135.725 108.307C123.823 110.424 122.801 101.897 122.801 101.897C122.801 101.897 116.597 105.417 112.809 98.2637" stroke="#7C6656" stroke-width="2.5" stroke-linecap="round" stroke-linejoin="round"/>
<path d="M100.421 71.125C98.5006 73.9843 97.8296 78.4437 97.3341 80.085C95.507 82.3869 87.3316 88.7869 85.8555 99.832C84.3793 110.877 90.3974 122.789 107.409 132.802C107.409 132.802 117.587 138.108 121.53 139.027" stroke="#7C6656" stroke-width="2.5" stroke-linecap="round" stroke-linejoin="round"/>
<path d="M129.209 141.112C141.482 145.117 156.027 145.984 167.082 141.308C176.259 137.427 181.585 130.934 185.394 113.52" stroke="#7C6656" stroke-width="2.5" stroke-linecap="round" stroke-linejoin="round"/>
<path d="M185.396 113.521C212.358 74.4809 175.321 56.8294 175.321 56.8294C153.726 34.2127 117.907 43.5133 117.907 43.5133C117.907 43.5133 91.9253 49.6036 94.4749 72.4784" stroke="#7C6656" stroke-width="2.5" stroke-linecap="round" stroke-linejoin="round"/>
<path d="M168.344 68.752C168.344 68.752 165.629 83.2035 140.793 83.2035" stroke="#7C6656" stroke-width="2.5" stroke-linecap="round" stroke-linejoin="round"/>
<path d="M170.572 78.5352C170.572 78.5352 180.74 90.6022 179.057 104.754" stroke="#7C6656" stroke-width="2.5" stroke-linecap="round" stroke-linejoin="round"/>
<path d="M113.107 73.5598C113.107 73.5598 130.15 75.4075 141.071 63.8359" stroke="#7C6656" stroke-width="2.5" stroke-linecap="round" stroke-linejoin="round"/>
<path d="M149.184 49.9639C149.184 49.9639 153.571 55.9922 150.32 60.3071C147.822 63.6206 145.138 64.0335 137.427 63.3729C129.716 62.7122 122.48 50.4903 121.551 39.9407C128.364 38.5575 140.833 35.564 149.174 49.9742L149.184 49.9639Z" fill="#1AAF92"/>
<path d="M146.17 62.9808C146.17 62.9808 124.286 70.0208 121.52 39.4867C121.52 39.4867 143.063 32.7255 151.868 55.435" stroke="#7C6656" stroke-width="2.5" stroke-linecap="round" stroke-linejoin="round"/>
<path d="M134.908 50.0254C134.773 50.2112 144.508 61.8963 155.749 59.2434" stroke="#7C6656" stroke-width="2.5" stroke-linecap="round" stroke-linejoin="round"/>
<path d="M155.284 194.809C155.78 194.603 160.208 201.767 157.772 208.064C153.302 208.043 142.03 210.283 134.484 199.248C137.87 195.707 144.549 186.686 144.549 186.686C144.549 186.686 148.058 197.865 155.284 194.809Z" fill="#8EBDE2"/>
<path d="M184.912 192.363C184.912 192.363 187.152 183.403 181.268 177.881C177.201 177.179 168.551 173.638 165.96 172.028C163.369 170.418 157.258 164.441 155.823 155.326C153.852 167.424 155.916 171.718 150.012 180.059C157.599 185.334 164.794 189.37 172.876 191.042C180.959 192.714 184.922 192.363 184.922 192.363H184.912Z" fill="#8EBDE2"/>
<path d="M153.635 151.787C153.635 151.787 157.97 166.652 163.358 170.419C167.302 173.175 177.944 178.492 184.365 176.984C190.785 175.477 194.687 183.756 193.996 189.485C193.304 195.214 185.366 192.375 185.366 192.375C185.366 192.375 169.789 192.85 159.983 187.606C154.254 184.117 149.98 181.289 149.98 181.289" stroke="#7C6656" stroke-width="2.5" stroke-linecap="round" stroke-linejoin="round"/>
<path d="M134.249 160.705C134.249 160.705 138.75 175.373 141.63 181.288C148.804 196.07 152.52 195.389 158.043 193.469C163.627 191.528 167.478 202.429 165.103 207.683C162.729 212.937 156.009 207.848 156.009 207.848C156.009 207.848 139.72 210.8 130.853 193.727C126.446 188.679 121.191 184.22 121.191 184.22" stroke="#7C6656" stroke-width="2.5" stroke-linecap="round" stroke-linejoin="round"/>
<path d="M149.443 181.959C149.443 181.959 144.901 184.374 141.082 185.737" stroke="#7C6656" stroke-width="2.5" stroke-linecap="round" stroke-linejoin="round"/>
<path d="M106.563 136.848C106.563 136.848 116.214 127.537 133.432 132.605C150.64 137.673 158.846 153.694 153.169 172.357C147.492 191.02 119.125 213.09 119.125 213.09C119.125 213.09 73.1694 196.212 62.8159 168.538C52.4624 140.853 75.2958 125.957 90.5628 129.271C100.369 131.397 106.573 136.848 106.573 136.848H106.563Z" fill="#EE7374" stroke="#7C6656" stroke-width="2.5" stroke-linecap="round" stroke-linejoin="round"/>
<path d="M105.407 138.686C105.407 138.686 100.173 143.475 99.1719 146.964L105.407 138.686Z" fill="#EE7374"/>
<path d="M105.407 138.686C105.407 138.686 100.173 143.475 99.1719 146.964" stroke="#7C6656" stroke-width="2.5" stroke-linecap="round" stroke-linejoin="round"/>
<path d="M123.533 137.519C123.533 137.519 146.14 139.191 150.919 147.924C150.919 147.924 147.43 128.9 126.785 125.235C110.671 122.365 103.91 132.905 107.348 139.119C109.99 143.898 114.831 144.332 118.744 142.814C122.656 141.297 124.493 138.427 123.11 134.463" fill="white"/>
<path d="M123.533 137.519C123.533 137.519 146.14 139.191 150.919 147.924C150.919 147.924 147.43 128.9 126.785 125.235C110.671 122.365 103.91 132.905 107.348 139.119C109.99 143.898 114.831 144.332 118.744 142.814C122.656 141.297 124.493 138.427 123.11 134.463" stroke="#7C6656" stroke-width="2.5" stroke-linecap="round" stroke-linejoin="round"/>
<path d="M99.1624 130.325C99.1624 130.325 88.8502 127.858 82.6463 133.288C82.0063 138.522 81.2528 142.217 74.6257 143.982C69.0309 145.479 62.5381 137.242 65.9135 131.605C69.289 125.969 77.3509 122.398 88.014 121.324C90.2127 122.078 91.9469 122.553 94.4243 126.104C96.9017 129.655 99.1727 130.325 99.1727 130.325H99.1624Z" fill="white"/>
<path d="M92.9787 122.645C89.882 121.809 86.1143 121.54 81.5414 122.242C65.366 124.73 62.3621 136.89 67.6266 141.659C71.673 145.334 76.4008 144.178 79.6007 141.473C82.8007 138.769 83.6162 135.465 81.0356 132.162" stroke="#7C6656" stroke-width="2.5" stroke-linecap="round" stroke-linejoin="round"/>
<path d="M82.4297 134.918C82.4297 134.918 88.9226 124.658 106.409 132.916" stroke="#7C6656" stroke-width="2.5" stroke-linecap="round" stroke-linejoin="round"/>
<path d="M61.0185 86.7566C56.8792 83.4843 50.0044 83.3295 46.9076 89.2443C44.2135 94.4778 46.6496 101.631 52.7502 105.688C57.9218 109.136 64.8895 110.323 71.1656 110.055C75.6352 105.647 79.5062 99.732 80.4868 93.6004C81.6636 86.3746 78.0507 79.696 72.4043 78.1579C65.963 76.3721 61.3902 81.523 61.0185 86.7566Z" fill="#EE7374"/>
<path d="M77.6066 49.4042C76.2131 46.3075 72.3215 44.181 68.8015 46.6378C65.715 48.8262 64.9718 53.6365 67.2634 57.7758C69.1937 61.2855 72.8273 64.0313 76.4918 65.7345C80.3524 64.5371 84.3266 62.3074 86.7007 59.0971C89.5188 55.319 89.4362 50.4262 86.6698 47.8765C83.5214 44.9449 79.3717 46.5242 77.6066 49.4146V49.4042Z" fill="#EE7374"/>
<path d="M62.2891 185.736C62.2891 185.736 65.3342 197.452 76.689 199.517" stroke="#7C6656" stroke-width="2.5" stroke-linecap="round" stroke-linejoin="round"/>
<path d="M63.6719 199.518C63.6719 199.518 69.3699 205.391 79.1247 204.039" stroke="#7C6656" stroke-width="2.5" stroke-linecap="round" stroke-linejoin="round"/>
<path d="M201.046 185.375C201.046 185.788 203.461 196.627 194.078 199.517" stroke="#7C6656" stroke-width="2.5" stroke-linecap="round" stroke-linejoin="round"/>
<path d="M205.473 195.213C205.473 195.213 202.707 202.903 196.338 204.039" stroke="#7C6656" stroke-width="2.5" stroke-linecap="round" stroke-linejoin="round"/>
<path d="M142.383 132.906C142.383 132.906 144.241 137.18 143.498 141.763" stroke="#7C6656" stroke-width="2.5" stroke-linecap="round" stroke-linejoin="round"/>
<path d="M180.316 177.498C180.316 177.498 188.967 182.845 185.374 192.373" stroke="#7C6656" stroke-width="2.5" stroke-linecap="round" stroke-linejoin="round"/>
<path d="M155.09 194.572C155.09 194.572 160.065 198.598 157.774 208.064" stroke="#7C6656" stroke-width="2.5" stroke-linecap="round" stroke-linejoin="round"/>
<path d="M203.389 84.627C203.389 84.627 207.25 93.9998 201.676 105.262" stroke="#7C6656" stroke-width="2.5" stroke-linecap="round" stroke-linejoin="round"/>
<path d="M210.119 98.1387C210.119 98.1387 209.118 107.419 201.324 114.262" stroke="#7C6656" stroke-width="2.5" stroke-linecap="round" stroke-linejoin="round"/>
</g>
<defs>
<filter id="filter0_f_522_13772" x="135.895" y="107.887" width="21.8833" height="16.7891" filterUnits="userSpaceOnUse" color-interpolation-filters="sRGB">
<feFlood flood-opacity="0" result="BackgroundImageFix"/>
<feBlend mode="normal" in="SourceGraphic" in2="BackgroundImageFix" result="shape"/>
<feGaussianBlur stdDeviation="1.29554" result="effect1_foregroundBlur_522_13772"/>
</filter>
<filter id="filter1_f_522_13772" x="89.4499" y="86.3992" width="21.8833" height="16.7891" filterUnits="userSpaceOnUse" color-interpolation-filters="sRGB">
<feFlood flood-opacity="0" result="BackgroundImageFix"/>
<feBlend mode="normal" in="SourceGraphic" in2="BackgroundImageFix" result="shape"/>
<feGaussianBlur stdDeviation="1.29554" result="effect1_foregroundBlur_522_13772"/>
</filter>
<clipPath id="clip0_522_13772">
<rect width="256" height="256" fill="white"/>
</clipPath>
</defs>
</svg>
