<svg width="256" height="256" viewBox="0 0 256 256" fill="none" xmlns="http://www.w3.org/2000/svg">
<g clip-path="url(#clip0_522_14073)">
<path opacity="0.4" d="M127.917 224.666C170.949 224.666 205.833 219.592 205.833 213.333C205.833 207.074 170.949 202 127.917 202C84.8845 202 50 207.074 50 213.333C50 219.592 84.8845 224.666 127.917 224.666Z" fill="#E1D6CF"/>
<path d="M104.938 207.124C105.407 207.007 104.393 211.58 113.902 213.009C117.729 214.437 123.924 211.665 122.41 207.124C120.886 202.582 111.258 199.182 111.258 199.182L104.938 207.124Z" fill="white"/>
<path d="M127.325 199.896C127.325 199.896 125.385 205.504 128.434 209.725C131.472 213.947 140.065 212.401 142.719 210.887C145.374 209.374 142.666 202.583 138.338 200.685C134.01 198.787 127.325 199.896 127.325 199.896Z" fill="white"/>
<path d="M103.03 179.224C103.03 179.224 100.589 198.051 105.535 208.211C109.075 206.27 114.32 204.01 119.746 205.108C119.885 200.961 119.714 189.469 120.865 186.473C124.277 186.292 127.134 187.188 126.74 186.665C126.345 186.143 124.277 197.582 126.772 205.769C129.319 206.217 128.328 205.823 131.931 204.916C135.535 204.01 142.731 204.671 142.731 204.671C142.731 204.671 141.174 187.742 144.372 175.589" fill="#8FBDE2"/>
<path d="M107.167 164.364C107.167 164.364 99.2883 191.826 105.536 209.118C106.655 212.22 113.35 213.158 117.422 212.721C121.495 212.284 122.817 209.203 121.932 207.327C121.047 205.451 119.736 205.12 119.736 205.12" stroke="#7C6656" stroke-width="2.5" stroke-linecap="round" stroke-linejoin="round"/>
<path d="M120.247 204.235C119.095 197.348 120.364 189.15 120.854 186.463C120.854 186.463 129.18 186.143 131.547 185.354" stroke="#7C6656" stroke-width="2.5" stroke-linecap="round" stroke-linejoin="round"/>
<path d="M119.734 205.108C119.734 205.108 111.632 203.733 105.523 208.211" stroke="#7C6656" stroke-width="2.5" stroke-linecap="round" stroke-linejoin="round"/>
<path d="M126.334 186.144C125.663 190.973 125.151 201.73 127.603 208.51C128.722 211.612 135.417 212.55 139.49 212.113C143.562 211.676 144.884 208.595 143.999 206.719C143.114 204.842 141.803 204.512 141.803 204.512" stroke="#7C6656" stroke-width="2.5" stroke-linecap="round" stroke-linejoin="round"/>
<path d="M144.137 176.368C143.657 179.055 141.174 196.751 142.325 203.638" stroke="#7C6656" stroke-width="2.5" stroke-linecap="round" stroke-linejoin="round"/>
<path d="M142.72 204.661C142.72 204.661 134.511 201.537 127.326 207.667" stroke="#7C6656" stroke-width="2.5" stroke-linecap="round" stroke-linejoin="round"/>
<path d="M151.28 151.038C151.28 151.038 145.609 161.39 149.969 178.937C149.969 178.937 115.737 183.489 99.8848 178.394C99.8848 178.394 103.659 162.072 105.642 151.806L104.416 141.721L110.375 141.785C110.375 141.785 143.988 142.733 146.866 141.785C149.745 140.836 151.291 151.038 151.291 151.038H151.28Z" fill="white"/>
<path d="M151.28 151.038C151.28 151.038 145.609 161.39 149.969 178.937C149.969 178.937 115.737 183.489 99.8848 178.393C99.8848 178.393 102.251 160.985 107.763 152.03" stroke="#7C6656" stroke-width="2.5" stroke-linecap="round" stroke-linejoin="round"/>
<path d="M144.711 144.162C144.072 146.294 141.673 150.015 134.36 150.964C128.049 151.785 122.356 148.736 119.605 144.706" stroke="#7C6656" stroke-width="2.5" stroke-linecap="round" stroke-linejoin="round"/>
<path d="M110.364 153.522C110.386 162.519 121.356 162.86 121.356 162.86C121.356 162.86 123.776 160.781 127.24 161.805C134.212 163.873 133.509 171.986 129.49 175.429C123.914 180.195 118.712 174.161 118.712 174.161C118.712 174.161 106.782 173.052 101.687 164.992C97.6994 158.681 98.1578 145.569 105.951 140.526" fill="white"/>
<path d="M110.364 153.522C110.386 162.519 121.356 162.86 121.356 162.86C121.356 162.86 123.776 160.781 127.24 161.805C134.212 163.873 133.509 171.986 129.49 175.429C123.914 180.195 118.712 174.161 118.712 174.161C118.712 174.161 106.782 173.052 101.687 164.992C97.6994 158.681 98.1578 145.569 105.951 140.526" stroke="#7C6656" stroke-width="2.5" stroke-linecap="round" stroke-linejoin="round"/>
<path d="M110.78 156.314C110.78 156.314 106.889 159.022 100.492 159.63" stroke="#7C6656" stroke-width="2.5" stroke-linecap="round" stroke-linejoin="round"/>
<path d="M144.489 155.271C144.467 164.269 136.429 164.322 136.429 164.322C136.429 164.322 134.404 162.531 130.939 163.554C123.967 165.623 124.67 173.735 128.689 177.179C134.265 181.944 139.212 175.409 139.212 175.409C139.212 175.409 148.7 173.554 152.463 165.569C154.499 161.252 155.309 150.73 146.706 143.854" fill="white"/>
<path d="M144.489 155.271C144.467 164.269 136.429 164.322 136.429 164.322C136.429 164.322 134.404 162.531 130.939 163.554C123.967 165.623 124.67 173.735 128.689 177.179C134.265 181.944 139.212 175.409 139.212 175.409C139.212 175.409 148.7 173.554 152.463 165.569C154.499 161.252 155.309 150.73 146.706 143.854" stroke="#7C6656" stroke-width="2.5" stroke-linecap="round" stroke-linejoin="round"/>
<path d="M144.49 157.029C144.49 157.029 150.023 158.308 153.616 155.952" stroke="#7C6656" stroke-width="2.5" stroke-linecap="round" stroke-linejoin="round"/>
<path d="M90.0684 147.755C90.0684 147.755 83.8852 158.81 90.0684 167.488" stroke="#7C6656" stroke-width="2.5" stroke-linecap="round" stroke-linejoin="round"/>
<path d="M82.765 157.615C82.765 157.615 78.714 168.073 90.0676 174.843" stroke="#7C6656" stroke-width="2.5" stroke-linecap="round" stroke-linejoin="round"/>
<path d="M125.641 144.685C125.641 144.685 105.791 144.557 91.143 130.772C83.9257 123.299 80.9194 112.212 83.7658 99.6752C81.2819 91.6797 74.6722 76.2003 87.8275 59.1645C98.9253 46.0305 111.345 46.5529 111.345 46.5529C111.345 46.5529 127.528 37.4487 147.741 42.5552C167.943 47.6616 181.055 55.7957 186.738 70.2836C190.053 80.1874 186.716 90.0592 181.119 90.4963C180.959 92.6604 180.799 94.7606 180.799 94.7606C180.799 94.7606 188.113 104.835 186.077 116.988C184.04 129.141 177.473 134.099 163.785 140.228C150.097 146.358 125.63 144.685 125.63 144.685H125.641Z" fill="white"/>
<path d="M181.044 84.9629C181.993 88.3956 181.193 92.9797 181.15 94.7494C182.185 97.6065 188.123 106.54 185.958 117.84C183.805 129.141 174.018 138.853 154.094 143.128C154.094 143.128 142.388 145.004 138.23 144.631" stroke="#7C6656" stroke-width="2.5" stroke-linecap="round" stroke-linejoin="round"/>
<path d="M130.011 144.162C116.674 144.088 102.144 140.186 92.8368 132.009C85.1077 125.218 82.0055 117.116 83.9457 98.8115" stroke="#7C6656" stroke-width="2.5" stroke-linecap="round" stroke-linejoin="round"/>
<g filter="url(#filter0_f_522_14073)">
<path d="M163.903 120.81C169.529 120.908 174.14 118.322 174.204 115.034C174.267 111.746 169.758 109.001 164.133 108.903C158.508 108.805 153.896 111.391 153.832 114.679C153.769 117.967 158.278 120.712 163.903 120.81Z" fill="#F5B0B0"/>
</g>
<g filter="url(#filter1_f_522_14073)">
<path d="M109.923 121.447C115.548 121.545 120.16 118.959 120.223 115.671C120.287 112.383 115.778 109.638 110.152 109.539C104.527 109.441 99.9154 112.027 99.8519 115.316C99.7885 118.604 104.297 121.349 109.923 121.447Z" fill="#F5B0B0"/>
</g>
<path d="M151.014 117.841C151.014 117.841 146.345 123.566 137.955 123.566C129.565 123.566 125.184 117.841 125.184 117.841" stroke="#7C6656" stroke-width="2" stroke-linecap="round" stroke-linejoin="round"/>
<path d="M83.3379 98.8101C69.6496 51.7645 111.695 46.5407 111.695 46.5407C140.234 31.4132 172.301 52.2122 172.301 52.2122C172.301 52.2122 195.776 66.6468 185.83 88.2347" stroke="#7C6656" stroke-width="2.5" stroke-linecap="round" stroke-linejoin="round"/>
<path d="M115.257 60.4971C115.257 60.4971 113.21 75.5393 137.549 83.6414" stroke="#7C6656" stroke-width="2.5" stroke-linecap="round" stroke-linejoin="round"/>
<path d="M109.873 69.3662C109.873 69.3662 95.9715 77.8841 93.0078 92.2974" stroke="#7C6656" stroke-width="2.5" stroke-linecap="round" stroke-linejoin="round"/>
<path d="M163.443 83.9396C163.443 83.9396 146.417 79.089 140.469 63.7695" stroke="#7C6656" stroke-width="2.5" stroke-linecap="round" stroke-linejoin="round"/>
<path d="M132.687 52.1597C132.687 52.1597 125.533 55.0168 126.003 60.571C126.365 64.8353 128.487 66.6796 135.587 70.3362C142.687 73.9929 155.735 67.3086 162.356 58.5881C157.164 53.6203 147.91 44.1536 132.697 52.1491L132.687 52.1597Z" fill="#1AAF92"/>
<path d="M128.168 65.1878C128.168 65.1878 143.424 83.3856 162.634 58.2263C162.634 58.2263 147.528 40.4656 127.326 55.4652" stroke="#7C6656" stroke-width="2" stroke-linecap="round" stroke-linejoin="round"/>
<path d="M145.129 60.0706C145.139 60.3051 130.204 65.1664 121.846 56.6592" stroke="#7C6656" stroke-width="2" stroke-linecap="round" stroke-linejoin="round"/>
<path d="M113.211 102.67C114.149 101.103 116.036 99.9299 118.307 99.7167C120.695 99.4929 122.87 100.388 124.053 101.892" stroke="#7C6656" stroke-width="2.5" stroke-linecap="round" stroke-linejoin="round"/>
<path d="M161.547 102.67C160.609 101.103 158.722 99.9299 156.451 99.7167C154.063 99.4929 151.888 100.388 150.705 101.892" stroke="#7C6656" stroke-width="2.5" stroke-linecap="round" stroke-linejoin="round"/>
</g>
<defs>
<filter id="filter0_f_522_14073" x="151.832" y="106.9" width="24.373" height="15.9131" filterUnits="userSpaceOnUse" color-interpolation-filters="sRGB">
<feFlood flood-opacity="0" result="BackgroundImageFix"/>
<feBlend mode="normal" in="SourceGraphic" in2="BackgroundImageFix" result="shape"/>
<feGaussianBlur stdDeviation="1" result="effect1_foregroundBlur_522_14073"/>
</filter>
<filter id="filter1_f_522_14073" x="97.8516" y="107.537" width="24.373" height="15.9131" filterUnits="userSpaceOnUse" color-interpolation-filters="sRGB">
<feFlood flood-opacity="0" result="BackgroundImageFix"/>
<feBlend mode="normal" in="SourceGraphic" in2="BackgroundImageFix" result="shape"/>
<feGaussianBlur stdDeviation="1" result="effect1_foregroundBlur_522_14073"/>
</filter>
<clipPath id="clip0_522_14073">
<rect width="256" height="256" fill="white"/>
</clipPath>
</defs>
</svg>
