<svg width="256" height="256" viewBox="0 0 256 256" fill="none" xmlns="http://www.w3.org/2000/svg">
<g clip-path="url(#clip0_522_15179)">
<path opacity="0.4" d="M126.624 221.308C163.727 221.308 193.806 217.548 193.806 212.91C193.806 208.272 163.727 204.512 126.624 204.512C89.5199 204.512 59.4414 208.272 59.4414 212.91C59.4414 217.548 89.5199 221.308 126.624 221.308Z" fill="#E1D6CF"/>
<path d="M97.0762 158.227L101.47 155.786L96.0997 180.687L96.5879 184.593L98.0527 186.546L103.912 187.523L104.4 203.635L100.982 205.588L100.494 208.029L101.959 211.447L105.865 212.912H110.259L114.165 211.447L116.118 208.518L117.095 205.1L117.583 199.241L117.095 188.499H123.93L124.419 203.635L121.977 205.588L121.001 207.541L121.977 209.982L123.442 211.936L126.86 212.424H131.254L134.184 210.959L135.648 208.518L136.625 205.1L137.113 195.335V188.499L146.39 186.546L147.855 184.593V183.128L146.878 180.199L144.437 176.293L143.461 168.481L142.484 157.739H148.343L151.273 156.274L155.179 147.486L159.085 145.533L162.991 146.021H168.85L174.709 143.091L180.568 136.256L181.545 131.861L187.892 130.885L193.751 126.49L196.681 119.655L197.169 112.331L194.239 105.007L188.869 100.613L183.009 84.9886L178.615 77.6647L169.827 66.9231L159.085 59.1109L141.996 53.2519L133.695 52.7636L124.419 51.2988H111.236L99.0292 54.2284L86.8228 60.0875L76.0811 70.3409L68.269 84.0121L65.3394 96.2185L63.8747 97.6833L57.5273 105.495L57.0391 113.308L60.4569 121.12L64.8512 124.537L65.3394 132.35L67.7807 136.256L74.1281 141.138L80.9637 142.603L83.405 142.115L89.7523 147.974L90.2406 153.345L92.6819 157.251L97.0762 158.227Z" fill="white"/>
<path d="M154.953 143.325C154.953 143.325 154.796 161.693 143.371 157.201" stroke="#7C6656" stroke-width="2.5" stroke-linecap="round" stroke-linejoin="round"/>
<path d="M140.764 144.33C140.764 144.33 133.177 142.572 132.376 143.324C129.378 148.011 120.765 150.599 120.521 150.579C120.287 150.57 114.33 150.013 114.33 150.013C114.33 150.013 110.102 144.642 105.542 143.324C104.858 143.294 101.05 147.65 101.05 147.65L102.641 150.091L100.747 157.903C100.747 157.903 96.7432 174.924 96.6944 180.285C96.6456 185.646 98.2861 187.492 114.682 188.234C131.077 188.986 151.78 189.425 147.327 181.632C144.309 177.541 144.426 174.318 144.065 172.297C143.704 170.276 140.745 144.33 140.745 144.33H140.764Z" fill="#FFADBE"/>
<path d="M123.488 188.41C123.996 197.56 124.162 204.005 124.162 204.005" stroke="#7C6656" stroke-width="2.5" stroke-linecap="round" stroke-linejoin="round"/>
<path d="M125.151 203.946C125.151 203.946 121.469 204.903 121.215 207.344C120.952 209.785 121.948 212.861 128.393 212.578C134.838 212.295 136.742 209.766 137.181 203.252C137.484 198.848 137.709 192.55 137.474 188.819" stroke="#7C6656" stroke-width="2.5" stroke-linecap="round" stroke-linejoin="round"/>
<path d="M103.764 188.41C104.965 198.058 104.564 204.005 104.564 204.005" stroke="#7C6656" stroke-width="2.5" stroke-linecap="round" stroke-linejoin="round"/>
<path d="M104.877 203.946C104.877 203.946 101.196 204.903 100.942 207.344C100.678 209.785 101.674 212.861 108.119 212.578C114.564 212.295 116.302 209.58 117.396 203.155C118.07 199.209 117.435 192.55 117.201 188.819" stroke="#7C6656" stroke-width="2.5" stroke-linecap="round" stroke-linejoin="round"/>
<path d="M110.17 145.415C110.17 145.415 111.547 151.059 119.466 151.059C127.386 151.059 129.69 144.985 129.69 144.985" stroke="#7C6656" stroke-width="2.5" stroke-linecap="round" stroke-linejoin="round"/>
<path d="M140.763 144.33C140.763 144.33 143.693 167.932 144.289 175.012C144.66 179.406 151.388 184.113 145.831 186.652C140.275 189.191 99.5837 189.172 97.3963 185.383C94.2812 179.973 102.64 151.595 103.753 145.131" stroke="#7C6656" stroke-width="2.5" stroke-linecap="round" stroke-linejoin="round"/>
<path d="M101.713 206.572C101.713 206.572 107.416 204.287 109.779 208.086C109.779 208.086 114.827 208.779 116.497 206.992" stroke="#7C6656" stroke-width="2.5" stroke-linecap="round" stroke-linejoin="round"/>
<path d="M121.984 206.572C121.984 206.572 126.594 204.287 128.947 208.086C128.947 208.086 133.996 208.779 135.665 206.992" stroke="#7C6656" stroke-width="2.5" stroke-linecap="round" stroke-linejoin="round"/>
<path d="M157.443 144.232C157.443 144.232 164.552 148.549 172.09 144.672C183.037 139.037 180.977 131.704 180.977 131.704C180.977 131.704 190.791 132.866 194.99 123.97C202.567 107.935 188.34 100.045 188.34 100.045C188.34 100.045 183.994 84.7042 179.844 79.6166C163.116 50.4481 131.878 52.8894 131.878 52.8894C131.878 52.8894 104.74 43.9445 81.089 65.0958C66.0311 78.5619 65.0351 96.979 65.0351 96.979C65.0351 96.979 55.7191 102.848 56.7152 112.281C57.8284 122.827 65.5038 124.809 65.5038 124.809C65.5038 124.809 63.0527 131.831 70.1911 138.178C76.8802 144.135 83.7841 142.172 83.7841 142.172C83.7841 142.172 87.8367 149.75 96.6937 149.486" stroke="#7C6656" stroke-width="2.5" stroke-linecap="round" stroke-linejoin="round"/>
<g filter="url(#filter0_f_522_15179)">
<path d="M140.37 121.221C145.271 121.435 149.342 119.537 149.463 116.981C149.583 114.425 145.708 112.18 140.806 111.965C135.905 111.751 131.834 113.649 131.713 116.205C131.593 118.761 135.468 121.006 140.37 121.221Z" fill="#F5B0B0"/>
</g>
<g filter="url(#filter1_f_522_15179)">
<path d="M90.9596 119.532C95.8609 119.746 99.9319 117.848 100.052 115.292C100.173 112.736 96.2974 110.491 91.3961 110.276C86.4948 110.062 82.4238 111.96 82.3032 114.516C82.1827 117.072 86.0583 119.317 90.9596 119.532Z" fill="#F5B0B0"/>
</g>
<path d="M104.066 119.263C104.066 119.263 108.197 123.462 115.872 123.745C123.548 124.028 127.718 120.132 127.718 120.132" stroke="#7C6656" stroke-width="2.5" stroke-linecap="round" stroke-linejoin="round"/>
<path d="M162.239 132.7C161.448 133.54 160.598 134.273 159.69 134.927C151.106 141.03 135.902 144.301 127.348 143.93" stroke="#7C6656" stroke-width="2.5" stroke-linecap="round" stroke-linejoin="round"/>
<path d="M79.4305 94.2368C79.2548 95.2035 78.8837 96.2679 78.7568 96.6195C77.2822 104.373 72.8 107.312 74.3917 117.732C75.9834 128.151 87.6235 139.127 105.728 143.707C105.728 143.707 115.444 145.474 122.866 144.136" stroke="#7C6656" stroke-width="2.5" stroke-linecap="round" stroke-linejoin="round"/>
<path d="M90.2496 77.0967C90.2496 77.0967 85.6307 86.9791 89.5954 94.8693" stroke="#7C6656" stroke-width="2.5" stroke-linecap="round" stroke-linejoin="round"/>
<path d="M119.76 77.4092C119.76 77.4092 116.284 89.8793 121.87 97.6035" stroke="#7C6656" stroke-width="2.5" stroke-linecap="round" stroke-linejoin="round"/>
<path d="M149.387 84.3047C149.387 84.3047 148.049 96.0522 154.572 104.499" stroke="#7C6656" stroke-width="2.5" stroke-linecap="round" stroke-linejoin="round"/>
<path d="M161.241 102.916C161.241 102.916 159.669 118.931 165.704 123.609" stroke="#7C6656" stroke-width="2.5" stroke-linecap="round" stroke-linejoin="round"/>
<path d="M128.723 106.05C128.723 106.05 129.934 103.12 133.83 102.954C137.697 102.788 139.777 105.718 139.777 105.718" stroke="#7C6656" stroke-width="2.5" stroke-linecap="round" stroke-linejoin="round"/>
<path d="M104.691 105.856C104.691 105.856 103.88 102.789 100.043 102.106C96.2342 101.432 93.7832 104.059 93.7832 104.059" stroke="#7C6656" stroke-width="2.5" stroke-linecap="round" stroke-linejoin="round"/>
<path d="M104.564 138.578C109.31 137.279 110.97 134.359 109.69 129.457C108.196 123.901 101.488 121.967 96.7028 125.493C91.9179 129.008 96.0583 136.088 96.0583 136.088C96.0583 136.088 87.9923 146.712 90.3262 153.919C90.3262 153.919 92.2304 160.012 99.0464 157.239C105.072 154.788 104.554 138.578 104.554 138.578H104.564Z" fill="white" stroke="#7C6656" stroke-width="2.5" stroke-linecap="round" stroke-linejoin="round"/>
<path d="M126.029 139.504L148.127 106.84C148.616 106.117 149.553 105.854 150.344 106.205L168.38 114.222C169.406 114.681 169.767 115.941 169.142 116.869L147.053 149.533C146.565 150.256 145.628 150.52 144.837 150.168L126.8 142.151C125.775 141.692 125.414 140.432 126.039 139.504H126.029Z" fill="#CACAE7" stroke="#7C6656" stroke-width="2.5" stroke-linecap="round" stroke-linejoin="round"/>
<path d="M152.894 115.151C152.152 114.819 151.82 113.96 152.152 113.218C152.484 112.475 153.344 112.143 154.086 112.475C154.828 112.807 155.16 113.667 154.828 114.409C154.496 115.151 153.637 115.483 152.894 115.151Z" fill="#7C6656"/>
<path d="M149.728 113.735C148.986 113.403 148.654 112.544 148.986 111.802C149.318 111.059 150.178 110.727 150.92 111.059C151.662 111.391 151.994 112.251 151.662 112.993C151.33 113.735 150.471 114.067 149.728 113.735Z" fill="#7C6656"/>
<path d="M150.92 117.788C150.178 117.456 149.846 116.596 150.178 115.854C150.51 115.112 151.369 114.78 152.111 115.112C152.853 115.444 153.185 116.304 152.853 117.046C152.521 117.788 151.662 118.12 150.92 117.788Z" fill="#7C6656"/>
<path d="M147.746 116.37C147.004 116.038 146.672 115.179 147.004 114.436C147.336 113.694 148.195 113.362 148.937 113.694C149.679 114.026 150.011 114.886 149.679 115.628C149.347 116.37 148.488 116.702 147.746 116.37Z" fill="#7C6656"/>
<path d="M160.842 138.752C159.026 130.666 148.011 132.59 147.249 140.217C146.526 147.501 154.173 148.468 156.995 147.15C159.827 145.832 161.711 142.638 160.832 138.742L160.842 138.752Z" fill="white" stroke="#7C6656" stroke-width="2.5" stroke-linecap="round" stroke-linejoin="round"/>
<path d="M178.334 48.061C177.684 47.9246 176.536 47.4316 175.09 46.7638C176.799 50.0869 174.485 53.6822 172.806 54.9809C170.187 56.9944 166.634 56.8896 162.652 54.7793C159.092 52.8964 157.605 49.658 158.516 46.2851C159.485 43.2167 161.557 41.5388 163.995 41.0245C162.651 40.2327 161.595 39.5958 161.068 39.2189C160.305 38.6102 162.149 36.0366 163.13 36.5735C164.196 37.533 166.954 39.0602 169.703 40.5871C170.488 38.8322 171.829 36.4293 172.595 35.2991C173.183 34.574 176.837 36.196 175.952 37.391C175.163 38.6476 173.873 40.9835 173.167 42.4086C175.314 43.4683 177.673 44.6418 178.651 44.9442C179.727 45.5425 179.237 47.9118 178.334 48.0513V48.061ZM162.807 46.1966C161.203 48.5917 162.976 51.3989 164.053 51.9973C166.796 53.3872 170.055 53.5028 171.624 50.6768C172.862 48.4468 171.604 45.6939 170.066 44.8475C167.625 43.4957 164.422 43.7628 162.797 46.1963L162.807 46.1966Z" fill="#EF8198"/>
<path d="M196.038 64.9079C195.452 64.578 194.519 63.7592 193.339 62.6791C193.954 66.3705 190.65 69.0868 188.655 69.8096C185.545 70.9195 182.199 69.7463 179.051 66.5175C176.234 63.6307 175.811 60.0915 177.714 57.1679C179.58 54.5461 182.06 53.5835 184.534 53.8323C183.494 52.6684 182.681 51.7456 182.305 51.2266C181.762 50.4194 184.31 48.521 185.077 49.3349C185.803 50.5677 187.953 52.8682 190.112 55.169C191.395 53.7414 193.404 51.8565 194.474 51.0186C195.252 50.5042 198.24 53.1714 197.033 54.0346C195.901 54.9879 193.952 56.8161 192.843 57.9655C194.572 59.6284 196.462 61.4621 197.285 62.0529C198.128 62.957 196.933 65.0614 196.038 64.9178V64.9079ZM181.83 58.3932C179.57 60.1827 180.403 63.4018 181.246 64.2961C183.439 66.4514 186.503 67.5676 188.864 65.3609C190.723 63.6181 190.372 60.6085 189.169 59.3323C187.255 57.2927 184.121 56.5752 181.83 58.3932Z" fill="#EF8198"/>
<path d="M207.532 88.2531C207.098 87.7421 206.515 86.6503 205.785 85.222C205.081 88.8941 201.034 90.2891 198.905 90.2751C195.604 90.2365 192.877 87.9678 191.054 83.8402C189.424 80.1579 190.259 76.6949 193.056 74.6085C195.717 72.8015 198.376 72.7626 200.61 73.8542C200.047 72.4015 199.603 71.2454 199.426 70.6247C199.199 69.6802 202.244 68.793 202.683 69.8219C202.934 71.2361 204.148 74.1343 205.372 77.0426C207.078 76.155 209.61 75.0866 210.912 74.6756C211.817 74.4678 213.696 78.0011 212.258 78.3983C210.866 78.8946 208.403 79.9357 206.966 80.6261C208.006 82.7865 209.138 85.1645 209.699 86.0114C210.173 87.1489 208.32 88.7062 207.532 88.2629V88.2531ZM196.487 77.191C193.745 78.0774 193.403 81.3889 193.877 82.5264C195.173 85.3098 197.67 87.4252 200.648 86.1745C203.002 85.1888 203.714 82.2497 203.029 80.6273C201.952 78.0555 199.259 76.286 196.477 77.1908L196.487 77.191Z" fill="#EF8198"/>
</g>
<defs>
<filter id="filter0_f_522_15179" x="129.834" y="110.072" width="21.5082" height="13.0428" filterUnits="userSpaceOnUse" color-interpolation-filters="sRGB">
<feFlood flood-opacity="0" result="BackgroundImageFix"/>
<feBlend mode="normal" in="SourceGraphic" in2="BackgroundImageFix" result="shape"/>
<feGaussianBlur stdDeviation="0.938564" result="effect1_foregroundBlur_522_15179"/>
</filter>
<filter id="filter1_f_522_15179" x="80.4237" y="108.383" width="21.5082" height="13.0428" filterUnits="userSpaceOnUse" color-interpolation-filters="sRGB">
<feFlood flood-opacity="0" result="BackgroundImageFix"/>
<feBlend mode="normal" in="SourceGraphic" in2="BackgroundImageFix" result="shape"/>
<feGaussianBlur stdDeviation="0.938564" result="effect1_foregroundBlur_522_15179"/>
</filter>
<clipPath id="clip0_522_15179">
<rect width="256" height="256" fill="white"/>
</clipPath>
</defs>
</svg>
