<svg width="256" height="256" viewBox="0 0 256 256" fill="none" xmlns="http://www.w3.org/2000/svg">
<g clip-path="url(#clip0_522_14249)">
<path opacity="0.4" d="M128 232C167.765 232 200 227.971 200 223C200 218.029 167.765 214 128 214C88.2355 214 56 218.029 56 223C56 227.971 88.2355 232 128 232Z" fill="#E1D6CF"/>
<path d="M97.8636 214.441L101.046 211.789L101.576 198V182.619L148.778 182.089L146.126 198L147.717 208.607L148.248 212.85L150.9 215.502L149.839 219.214L144.535 221.336L138.171 220.275L133.928 217.093L131.276 205.955L129.155 193.226L119.078 192.696L118.017 194.818L112.714 215.502L111.123 218.153L106.349 221.336H101.576L96.8029 219.744L95.7422 217.623L97.8636 214.441Z" fill="white"/>
<path d="M148.747 182.078C148.747 182.078 104.494 181.643 101.63 181.441C101.237 184.974 102.574 205.7 98.6172 212.372C101.025 214.186 113.404 215.83 113.404 215.83C113.404 215.83 119.121 195.538 119.45 192.812C119.45 192.812 129.452 194.181 129.696 193.618C129.94 193.056 129.452 194.181 129.452 194.181L133.61 215.989C133.61 215.989 139.052 213.199 148.11 212.478C147.251 208.352 146.7 201.457 147.357 196.875C148.004 192.293 148.747 182.088 148.747 182.088V182.078Z" fill="#8FBDE2"/>
<path d="M99.4524 213.051C99.4524 213.051 96.1641 214.186 95.7186 216.816C95.2837 219.447 95.5595 221.94 102.571 221.95C108.511 221.95 111.269 219.489 113.401 215.83" stroke="#7C6656" stroke-width="2.5" stroke-linecap="round" stroke-linejoin="round"/>
<path d="M129.939 193.057C129.939 193.057 132.369 215.098 134.341 217.729C136.314 220.36 142.117 221.346 146.168 220.901C150.22 220.466 151.536 217.4 150.655 215.533C149.775 213.666 147.696 212.977 147.696 212.977" stroke="#7C6656" stroke-width="2.5" stroke-linecap="round" stroke-linejoin="round"/>
<path d="M148.745 182.079C147.43 196.325 145.224 201.299 148.109 212.479" stroke="#7C6656" stroke-width="2.5" stroke-linecap="round" stroke-linejoin="round"/>
<path d="M101.851 158.774C101.851 158.774 101.119 185.621 101.077 195.571C101.035 205.52 98.3828 213.232 98.3828 213.232C98.3828 213.232 110.136 213.402 113.647 215.831C114.463 213.996 114.739 212.892 115.089 211.216C116.532 204.279 119.438 192.813 119.438 192.813C119.438 192.813 131.594 193.799 134.331 192.261" stroke="#7C6656" stroke-width="2.5" stroke-linecap="round" stroke-linejoin="round"/>
<path d="M148.981 213.656C148.981 213.656 140.41 211.969 134.332 216.424" stroke="#7C6656" stroke-width="2.5" stroke-linecap="round" stroke-linejoin="round"/>
<path d="M148.746 182.079H101.725" stroke="#7C6656" stroke-width="2.5" stroke-linecap="round" stroke-linejoin="round"/>
<path d="M99.5801 182.238C99.5801 182.238 133.661 187.86 150.855 181.442C150.855 181.442 146.008 166.2 145.881 156.728" stroke="#7C6656" stroke-width="2.5" stroke-linecap="round" stroke-linejoin="round"/>
<path d="M102.338 156.717C102.338 156.717 100.747 179.066 99.5801 182.227C99.5801 182.227 133.661 187.849 150.855 181.432C150.855 181.432 146.008 166.189 145.881 156.717" fill="white"/>
<path d="M102.338 156.717C102.338 156.717 100.747 179.066 99.5801 182.227C99.5801 182.227 133.661 187.849 150.855 181.432C150.855 181.432 146.008 166.189 145.881 156.717" stroke="#7C6656" stroke-width="2.5" stroke-linecap="round" stroke-linejoin="round"/>
<path d="M146.89 147.117C146.19 146.364 142.403 144.752 142.403 144.752C134.299 147.033 100.589 146.216 100.589 146.216C92.6125 154.394 91.817 164.853 99.4436 170.835C107.06 176.818 122.419 171.365 122.419 171.365C122.419 171.365 129.176 175.502 133.015 169.286L144.598 166.242L146.89 147.107V147.117Z" fill="white"/>
<path d="M136.94 148.729C136.335 150.671 134.097 154.054 127.245 154.924C121.337 155.667 116.001 152.898 113.424 149.228" stroke="#7C6656" stroke-width="2.5" stroke-linecap="round" stroke-linejoin="round"/>
<path d="M105.689 156.866C110.208 164.153 120.635 159.379 120.635 159.379C120.635 159.379 122.183 156.409 126.829 156.176C134.053 155.805 135.867 163.919 133.098 168.396C129.258 174.601 122.502 170.475 122.502 170.475C122.502 170.475 107.355 177.072 99.7386 171.09C92.1227 165.107 91.762 154.405 99.7386 146.227" stroke="#7C6656" stroke-width="2.5" stroke-linecap="round" stroke-linejoin="round"/>
<path d="M106.783 158.774C106.783 158.774 100.376 164.311 95.582 163.961" stroke="#7C6656" stroke-width="2.5" stroke-linecap="round" stroke-linejoin="round"/>
<path d="M140.335 158.509C137.577 167.027 125.188 165.446 125.188 165.446C125.188 165.446 122.048 162.646 118.452 162.561C111.218 162.402 109.584 170.824 112.353 175.301C116.193 181.506 124.583 175.088 124.583 175.088C124.583 175.088 139.804 178.769 147.431 172.787C155.047 166.804 154.877 155.285 146.9 147.117" fill="white"/>
<path d="M140.334 158.509C137.576 167.027 124.307 165.086 124.307 165.086C124.307 165.086 122.641 162.381 119.056 162.296C111.822 162.137 110.019 170.039 112.787 174.516C116.627 180.721 123.384 176.595 123.384 176.595C123.384 176.595 139.21 179.077 146.826 173.094C154.442 167.112 154.877 155.295 146.9 147.117" stroke="#7C6656" stroke-width="2.5" stroke-linecap="round" stroke-linejoin="round"/>
<path d="M140.291 160.875C140.291 160.875 146.677 165.786 151.46 165.425" stroke="#7C6656" stroke-width="2.5" stroke-linecap="round" stroke-linejoin="round"/>
<path d="M85.7056 162.402C85.7056 162.402 81.9295 167.048 85.7056 173.635" stroke="#7C6656" stroke-width="2.5" stroke-linecap="round" stroke-linejoin="round"/>
<path d="M77.2217 166.688C77.2217 166.688 73.0319 175.736 84.8695 181.432" stroke="#7C6656" stroke-width="2.5" stroke-linecap="round" stroke-linejoin="round"/>
<path d="M74.6769 83.7606C74.6769 83.7606 75.1436 88.746 79.4077 92.3736L79.9699 95.3437C79.9699 95.3437 71.4629 103.013 74.0086 122.35C74.7936 132.883 86.5464 139.565 104.016 146.11C117.668 150.14 142.425 149.112 152.449 146.057C158.919 143.384 174.735 138.165 175.891 114.628C175.933 109.769 179.678 98.0697 179.678 98.0697C179.678 98.0697 184.461 85.8502 176.05 69.5469C169.123 56.2031 153.117 53.8165 153.117 53.8165C153.117 53.8165 142.892 46.6036 127.999 46.0308C113.107 45.458 94.4593 53.0739 94.4593 53.0739C94.4593 53.0739 73.001 62.4613 74.6875 83.7606H74.6769Z" fill="white"/>
<path d="M80.9444 85.6489C79.7034 88.9583 80.0746 93.5725 79.9685 95.3333C78.6851 98.0699 72.0025 106.386 73.1269 117.789C74.2513 129.181 83.0658 139.682 102.435 145.707C102.435 145.707 113.859 148.624 118.017 148.624" stroke="#7C6656" stroke-width="2.5" stroke-linecap="round" stroke-linejoin="round"/>
<path d="M126.195 148.889C139.422 150.013 154.167 147.457 164.127 140.191C172.39 134.155 176.187 126.402 175.911 108.094" stroke="#7C6656" stroke-width="2.5" stroke-linecap="round" stroke-linejoin="round"/>
<g filter="url(#filter0_f_522_14249)">
<path d="M146.484 127.991C151.955 128.686 156.671 126.563 157.018 123.25C157.365 119.936 153.212 116.686 147.741 115.991C142.271 115.296 137.555 117.419 137.207 120.733C136.86 124.046 141.014 127.296 146.484 127.991Z" fill="#F5B0B0"/>
</g>
<g filter="url(#filter1_f_522_14249)">
<path d="M92.3886 121.627C97.8592 122.322 102.575 120.199 102.923 116.886C103.27 113.572 99.1163 110.323 93.6456 109.628C88.175 108.933 83.4588 111.055 83.1117 114.369C82.7646 117.682 86.918 120.932 92.3886 121.627Z" fill="#F5B0B0"/>
</g>
<path d="M176.515 108.146C194.304 62.758 153.116 53.8055 153.116 53.8055C126.195 36.2506 92.5486 53.9858 92.5486 53.9858C92.5486 53.9858 67.9929 66.1841 75.9165 88.4699" stroke="#7C6656" stroke-width="2.5" stroke-linecap="round" stroke-linejoin="round"/>
<path d="M148.333 67.3193C148.333 67.3193 149.012 82.4134 124.17 88.2473" stroke="#7C6656" stroke-width="2.5" stroke-linecap="round" stroke-linejoin="round"/>
<path d="M152.861 76.5801C152.861 76.5801 165.876 86.2645 167.51 100.818" stroke="#7C6656" stroke-width="2.5" stroke-linecap="round" stroke-linejoin="round"/>
<path d="M98.4668 86.2211C98.4668 86.2211 115.778 82.9435 123.044 68.2949" stroke="#7C6656" stroke-width="2.5" stroke-linecap="round" stroke-linejoin="round"/>
<path d="M130.456 57.04C130.456 57.04 137.287 60.5086 136.322 65.9713C135.58 70.1611 133.31 71.8053 125.948 74.7965C118.587 77.7877 106.251 69.9808 100.48 60.7525C106.07 56.2975 116.084 47.7481 130.456 57.04Z" fill="#1AAF92"/>
<path d="M133.768 70.3636C133.768 70.3636 117.019 87.0275 100.238 60.361C100.238 60.361 116.807 44.1213 135.465 60.7959" stroke="#7C6656" stroke-width="2.5" stroke-linecap="round" stroke-linejoin="round"/>
<path d="M117.412 63.755C117.38 63.9884 131.742 70.1406 140.79 62.4609" stroke="#7C6656" stroke-width="2.5" stroke-linecap="round" stroke-linejoin="round"/>
<path d="M110.762 105.77L96.0605 103.819" stroke="#7C6656" stroke-width="2.5" stroke-linecap="round" stroke-linejoin="round"/>
<path d="M133.355 108.094L147.675 109.494" stroke="#7C6656" stroke-width="2.5" stroke-linecap="round" stroke-linejoin="round"/>
<path d="M124.168 124.662C124.168 124.662 116.181 119.677 109.572 126.985" stroke="#7C6656" stroke-width="2.5" stroke-linecap="round" stroke-linejoin="round"/>
<path d="M130.682 118.509C130.682 118.509 126.004 119.432 124.169 124.661C122.334 129.89 126.206 135.258 126.206 135.258" stroke="#7C6656" stroke-width="2.5" stroke-linecap="round" stroke-linejoin="round"/>
<path d="M126.196 95.6611L124.17 100.816" stroke="#7C6656" stroke-width="2.5" stroke-linecap="round" stroke-linejoin="round"/>
</g>
<defs>
<filter id="filter0_f_522_14249" x="135.188" y="113.859" width="23.8516" height="16.2632" filterUnits="userSpaceOnUse" color-interpolation-filters="sRGB">
<feFlood flood-opacity="0" result="BackgroundImageFix"/>
<feBlend mode="normal" in="SourceGraphic" in2="BackgroundImageFix" result="shape"/>
<feGaussianBlur stdDeviation="1" result="effect1_foregroundBlur_522_14249"/>
</filter>
<filter id="filter1_f_522_14249" x="81.0918" y="107.496" width="23.8516" height="16.2632" filterUnits="userSpaceOnUse" color-interpolation-filters="sRGB">
<feFlood flood-opacity="0" result="BackgroundImageFix"/>
<feBlend mode="normal" in="SourceGraphic" in2="BackgroundImageFix" result="shape"/>
<feGaussianBlur stdDeviation="1" result="effect1_foregroundBlur_522_14249"/>
</filter>
<clipPath id="clip0_522_14249">
<rect width="256" height="256" fill="white"/>
</clipPath>
</defs>
</svg>
