<svg width="256" height="256" viewBox="0 0 256 256" fill="none" xmlns="http://www.w3.org/2000/svg">
<g clip-path="url(#clip0_522_14648)">
<path opacity="0.4" d="M129 231C168.765 231 201 226.971 201 222C201 217.029 168.765 213 129 213C89.2355 213 57 217.029 57 222C57 226.971 89.2355 231 129 231Z" fill="#E1D6CF"/>
<path d="M154.673 182.809L146.25 183.41L148.055 185.817L146.25 203.864L146.852 211.685L148.657 215.896L148.055 218.904L143.844 221.31H137.828L131.812 218.904L129.406 215.294L127.601 202.06L128.203 190.629H123.39L121.585 197.247V211.083V212.888L124.593 217.099L123.39 220.107L117.374 221.912L110.757 221.31L106.546 218.904L104.741 214.693L102.335 197.848L104.14 182.207L100.53 181.004V164.761L105.343 148.519L110.155 143.104L94.5142 134.081L86.6936 124.455L83.6857 112.424V97.3841L79.4746 79.3366L82.4825 61.8907L88.4984 51.6638L98.1237 43.8432L109.554 39.6321L115.57 38.429L120.984 35.421L137.227 31.21H147.453L162.493 34.8195L178.736 41.4369L189.564 49.2575L194.979 55.2733L200.393 63.6954L202.198 70.9144L199.791 83.5477L194.377 93.173L195.58 96.7825L197.986 102.798L199.19 107.611V116.635L194.979 128.666L187.76 136.487L179.939 141.3L176.931 143.706L175.728 149.722L170.314 153.933L167.306 155.738L167.907 165.965L167.306 169.574L164.298 173.184L161.29 174.387L157.079 173.184L153.469 170.176V174.988L154.673 182.809Z" fill="white"/>
<path d="M104.693 215.367C105.223 215.235 104.08 220.396 114.812 222.008C119.131 223.621 126.122 220.492 124.413 215.367C122.693 210.241 111.828 206.403 111.828 206.403L104.693 215.367Z" fill="white"/>
<path d="M129.96 207.21C129.96 207.21 127.77 213.539 131.211 218.303C134.64 223.068 144.338 221.323 147.334 219.615C150.33 217.906 147.274 210.242 142.389 208.1C137.504 205.959 129.96 207.21 129.96 207.21Z" fill="white"/>
<path d="M102.528 182.171C102.528 182.171 99.7721 205.128 105.355 216.594C109.349 214.404 115.269 211.853 121.393 213.093C121.55 208.412 121.357 193.734 122.657 190.353C126.507 190.148 129.731 191.159 129.286 190.569C128.841 189.98 126.507 204.598 129.322 213.838C132.198 214.344 131.079 213.899 135.145 212.876C139.212 211.853 147.333 212.599 147.333 212.599C147.333 212.599 145.577 191.796 149.186 178.068" fill="#8FBDE2"/>
<path d="M107.198 167.107C107.92 164.568 97.5729 196.091 105.357 217.616C106.621 221.117 114.177 222.188 118.773 221.683C123.369 221.189 124.861 217.712 123.862 215.595C122.863 213.477 121.383 213.104 121.383 213.104" stroke="#7C6656" stroke-width="2.5" stroke-linecap="round" stroke-linejoin="round"/>
<path d="M121.971 212.118C120.672 204.345 122.103 193.397 122.657 190.365C122.657 190.365 132.054 190.004 134.725 189.113" stroke="#7C6656" stroke-width="2.5" stroke-linecap="round" stroke-linejoin="round"/>
<path d="M121.394 213.093C121.394 213.093 112.25 211.541 105.355 216.594" stroke="#7C6656" stroke-width="2.5" stroke-linecap="round" stroke-linejoin="round"/>
<path d="M128.829 189.979C128.071 195.43 127.494 209.278 130.261 216.93C131.524 220.432 139.08 221.49 143.676 220.997C148.273 220.504 149.764 217.027 148.766 214.909C147.767 212.792 146.287 212.419 146.287 212.419" stroke="#7C6656" stroke-width="2.5" stroke-linecap="round" stroke-linejoin="round"/>
<path d="M148.923 178.946C148.381 181.978 145.578 203.659 146.877 211.432" stroke="#7C6656" stroke-width="2.5" stroke-linecap="round" stroke-linejoin="round"/>
<path d="M147.323 212.588C147.323 212.588 138.059 209.062 129.949 215.98" stroke="#7C6656" stroke-width="2.5" stroke-linecap="round" stroke-linejoin="round"/>
<path d="M158.354 152.068C158.354 152.068 151.953 162.042 156.874 181.846C156.874 181.846 118.241 186.984 100.35 181.233C100.35 181.233 104.609 164.521 106.847 152.922L105.463 141.54L112.189 141.612C112.189 141.612 150.125 142.683 153.373 141.612C156.622 140.541 158.366 152.056 158.366 152.056L158.354 152.068Z" fill="white"/>
<path d="M155.876 150.612C155.876 150.612 150.053 162.271 154.962 182.075C154.962 182.075 118.229 186.984 100.338 181.233C100.338 181.233 98.4734 160.731 104.694 150.612" stroke="#7C6656" stroke-width="2.5" stroke-linecap="round" stroke-linejoin="round"/>
<path d="M152.651 147.713C151.929 150.119 149.222 154.318 140.968 155.389C133.845 156.316 127.421 152.874 124.316 148.326" stroke="#7C6656" stroke-width="2.5" stroke-linecap="round" stroke-linejoin="round"/>
<path d="M91.6886 169.021C91.6886 169.021 85.5645 179.885 93.1685 187.417" stroke="#7C6656" stroke-width="2.5" stroke-linecap="round" stroke-linejoin="round"/>
<path d="M80.8946 171.68C80.8946 171.68 76.1902 184.842 89.5574 192.194" stroke="#7C6656" stroke-width="2.5" stroke-linecap="round" stroke-linejoin="round"/>
<path d="M131.116 148.303C131.116 148.303 108.713 148.158 92.1814 132.601C84.0359 124.167 80.643 111.654 83.8555 97.505C81.0521 88.4812 73.5925 71.0113 88.4395 51.7847C100.964 36.9617 114.981 37.5512 114.981 37.5512C114.981 37.5512 133.245 27.2762 156.057 33.0393C178.857 38.8025 193.656 47.9827 200.069 64.3337C203.811 75.5111 200.045 86.6524 193.729 87.1457C193.548 89.5882 193.368 91.9584 193.368 91.9584C193.368 91.9584 201.621 103.328 199.323 117.044C197.037 130.773 189.614 136.355 174.165 143.273C158.716 150.192 131.104 148.303 131.104 148.303H131.116Z" fill="white"/>
<path d="M193.643 80.9131C194.714 84.7873 193.812 89.9609 193.764 91.9582C194.931 95.1826 201.632 105.265 199.19 118.019C196.76 130.772 185.715 141.733 163.227 146.558C163.227 146.558 150.017 148.675 145.324 148.254" stroke="#7C6656" stroke-width="2.5" stroke-linecap="round" stroke-linejoin="round"/>
<path d="M136.05 147.713C120.998 147.629 104.599 143.225 94.0955 133.997C85.3725 126.333 81.8713 117.189 84.0611 96.5303" stroke="#7C6656" stroke-width="2.5" stroke-linecap="round" stroke-linejoin="round"/>
<g filter="url(#filter0_f_522_14648)">
<path d="M175.968 120.989C182.081 120.989 187.037 118.264 187.037 114.902C187.037 111.54 182.081 108.814 175.968 108.814C169.856 108.814 164.9 111.54 164.9 114.902C164.9 118.264 169.856 120.989 175.968 120.989Z" fill="#F5B0B0"/>
</g>
<g filter="url(#filter1_f_522_14648)">
<path d="M112.201 120.989C118.314 120.989 123.269 118.264 123.269 114.902C123.269 111.54 118.314 108.814 112.201 108.814C106.088 108.814 101.133 111.54 101.133 114.902C101.133 118.264 106.088 120.989 112.201 120.989Z" fill="#F5B0B0"/>
</g>
<path d="M83.3861 96.5418C67.9254 43.434 115.378 37.5505 115.378 37.5505C147.587 20.4776 183.778 43.9514 183.778 43.9514C183.778 43.9514 210.272 60.2422 199.046 84.6064" stroke="#7C6656" stroke-width="2.5" stroke-linecap="round" stroke-linejoin="round"/>
<path d="M119.397 53.3008C119.397 53.3008 117.087 70.2775 144.556 79.4215" stroke="#7C6656" stroke-width="2.5" stroke-linecap="round" stroke-linejoin="round"/>
<path d="M113.319 63.2979C113.319 63.2979 97.63 72.9112 94.2852 89.178" stroke="#7C6656" stroke-width="2.5" stroke-linecap="round" stroke-linejoin="round"/>
<path d="M173.78 79.7571C173.78 79.7571 154.565 74.2827 147.852 56.9932" stroke="#7C6656" stroke-width="2.5" stroke-linecap="round" stroke-linejoin="round"/>
<path d="M139.081 43.879C139.081 43.879 131.007 47.1035 131.537 53.372C131.946 58.1846 134.34 60.2661 142.353 64.393C150.366 68.5198 165.093 60.976 172.565 51.1341C166.705 45.5273 156.262 34.8432 139.093 43.867L139.081 43.879Z" fill="#1AAF92"/>
<path d="M133.978 58.594C133.978 58.594 151.195 79.132 172.876 50.7373C172.876 50.7373 155.827 30.6925 133.027 47.6211" stroke="#7C6656" stroke-width="2.5" stroke-linecap="round" stroke-linejoin="round"/>
<path d="M153.121 52.8072C153.133 53.0719 136.277 58.5583 126.844 48.957" stroke="#7C6656" stroke-width="2.5" stroke-linecap="round" stroke-linejoin="round"/>
<path d="M134.064 88.4199C131.453 90.5977 128.229 92.4987 123.344 91.9813" stroke="#7C6656" stroke-width="2.5" stroke-linecap="round" stroke-linejoin="round"/>
<path d="M158.512 87.7354C161.123 89.9011 164.347 91.8141 169.232 91.2967" stroke="#7C6656" stroke-width="2.5" stroke-linecap="round" stroke-linejoin="round"/>
<path d="M131.85 101.378C131.609 105.252 127.951 107.887 124.246 106.973C121.43 106.275 119.445 103.58 119.613 100.68C119.854 96.8058 123.512 94.1709 127.217 95.0853C130.033 95.7831 132.018 98.4782 131.85 101.378Z" fill="#7C6656"/>
<path d="M171.639 100.705C171.398 104.579 167.74 107.214 164.035 106.3C161.219 105.602 159.234 102.907 159.403 100.007C159.643 96.133 163.301 93.498 167.007 94.4124C169.822 95.1103 171.807 97.8054 171.639 100.705Z" fill="#7C6656"/>
<path d="M101.47 89.9727C101.47 89.9727 105.946 101.102 101.181 103.953C95.6585 107.25 91.64 100.356 94.4915 91.3804" fill="url(#paint0_linear_522_14648)"/>
<path d="M112.418 78.9033C112.418 78.9033 114.92 86.5795 111.611 89.2145C108.303 91.8494 104.332 86.8442 107.424 78.9033" fill="url(#paint1_linear_522_14648)"/>
<path d="M101.468 89.9727C101.468 89.9727 105.944 101.102 101.179 103.953C95.6569 107.25 92.5286 100.813 94.0807 94.4725" stroke="#7C6656" stroke-width="2.5" stroke-linecap="round" stroke-linejoin="round"/>
<path d="M112.417 78.9033C112.417 78.9033 114.92 86.5795 111.611 89.2145C108.302 91.8494 105.33 87.8428 106.509 83.0182" stroke="#7C6656" stroke-width="2.5" stroke-linecap="round" stroke-linejoin="round"/>
<path d="M154.974 116.527C154.974 116.527 152.291 123.722 146.047 123.89C139.79 124.071 137.119 116.527 137.119 116.527C137.119 116.527 145.072 115.745 145.734 111.257C145.734 111.257 149.247 117.417 154.974 116.527Z" fill="#F29AA0"/>
<path d="M146.045 110.113C146.045 110.113 144.974 118.307 133.039 116.177" stroke="#7C6656" stroke-width="2.5" stroke-linecap="round" stroke-linejoin="round"/>
<path d="M146.047 110.113C146.047 110.113 147.118 118.307 159.053 116.177" stroke="#7C6656" stroke-width="2.5" stroke-linecap="round" stroke-linejoin="round"/>
<path d="M154.974 116.526C154.974 116.526 151.052 124.551 145.529 124.551C140.007 124.551 137.119 116.526 137.119 116.526" stroke="#7C6656" stroke-width="2.5" stroke-linecap="round" stroke-linejoin="round"/>
<path d="M164.804 173.123C158.295 176.624 154.096 171.535 153.771 164.954C153.362 156.507 157.176 150.768 157.176 150.768C157.176 150.768 153.843 141.263 163.372 136.607C169.063 133.828 181.263 141.083 175.019 150.828C172.829 154.257 168.101 155.208 168.101 155.208C168.101 155.208 166.549 156.904 167.944 164.629C167.944 164.629 169.725 170.464 164.792 173.111L164.804 173.123Z" fill="white"/>
<path d="M164.804 173.123C158.295 176.624 154.096 171.535 153.771 164.954C153.362 156.507 157.176 150.768 157.176 150.768C157.176 150.768 153.843 141.263 163.372 136.607C169.063 133.828 181.263 141.083 175.019 150.828C172.829 154.257 168.101 155.208 168.101 155.208C168.101 155.208 166.549 156.904 167.944 164.629C167.944 164.629 169.725 170.464 164.792 173.111L164.804 173.123Z" stroke="#7C6656" stroke-width="2.5" stroke-linecap="round" stroke-linejoin="round"/>
<path d="M155.084 130.929C155.084 130.929 157.238 129.882 159.74 129.762C162.243 129.641 168.692 130.52 170.496 138.605C172.301 146.69 164.793 154.138 163.229 155.245C161.653 156.352 157.466 156.821 155.842 156.869H153.869C152.244 156.809 148.057 156.34 146.481 155.245C144.905 154.138 137.409 146.69 139.214 138.605C141.019 130.52 147.468 129.653 149.97 129.762C152.473 129.882 154.627 130.929 154.627 130.929" fill="#EC676B"/>
<path d="M155.084 130.929C155.084 130.929 157.238 129.882 159.74 129.762C162.243 129.641 168.692 130.52 170.496 138.605C172.301 146.69 164.793 154.138 163.229 155.245C161.653 156.352 157.466 156.821 155.842 156.869H153.869C152.244 156.809 148.057 156.34 146.481 155.245C144.905 154.138 137.409 146.69 139.214 138.605C141.019 130.52 147.468 129.653 149.97 129.762C152.473 129.882 154.627 130.929 154.627 130.929" stroke="#7C6656" stroke-width="2.5" stroke-linecap="round" stroke-linejoin="round"/>
<path d="M157.008 122.723C157.008 122.723 153.747 125.743 155.083 130.928" stroke="#7C6656" stroke-width="2.5" stroke-linecap="round" stroke-linejoin="round"/>
<path d="M154.854 126.826C154.854 126.826 153.976 119.005 145.145 121.796C145.145 121.796 145.433 128.895 154.854 126.826Z" fill="#B8D2A2" stroke="#5EA43E" stroke-width="2.5" stroke-linecap="round" stroke-linejoin="round"/>
<path d="M109.735 143.634C109.735 143.634 100.435 150.119 104.537 164.244C106.45 170.814 115.486 173.46 122.2 170.284C131.236 165.989 138.876 156.472 138.876 156.472C138.876 156.472 149.873 153.596 148.212 141.745C147.226 134.67 132.74 127.824 127.554 139.82C125.737 144.031 127.819 149.06 127.819 149.06C127.819 149.06 124.101 155.702 116.328 156.532" fill="white"/>
<path d="M109.735 143.634C109.735 143.634 100.435 150.119 104.537 164.244C106.45 170.814 115.486 173.46 122.2 170.284C131.236 165.989 138.876 156.472 138.876 156.472C138.876 156.472 149.873 153.596 148.212 141.745C147.226 134.67 132.74 127.824 127.554 139.82C125.737 144.031 127.819 149.06 127.819 149.06C127.819 149.06 124.45 152.959 116.328 156.532" stroke="#7C6656" stroke-width="2.5" stroke-linecap="round" stroke-linejoin="round"/>
<path d="M117.75 153.861C117.75 153.861 110.446 152.61 104.322 159.035" stroke="#7C6656" stroke-width="2.5" stroke-linecap="round" stroke-linejoin="round"/>
<path d="M91.8432 33.2188C91.8432 33.2188 86.814 27.4075 83.9023 31.3899C80.9786 35.3724 87.5239 38.6691 87.5239 38.6691" stroke="#7C6656" stroke-width="2.5" stroke-linecap="round" stroke-linejoin="round"/>
<path d="M76.3466 32.6299C76.3466 32.6299 71.3174 26.8186 68.4057 30.8011C65.4941 34.7836 72.0273 38.0802 72.0273 38.0802" stroke="#7C6656" stroke-width="2.5" stroke-linecap="round" stroke-linejoin="round"/>
<path d="M68.7436 42.6162C68.7436 42.6162 63.7144 36.8049 60.8027 40.7874C57.879 44.7698 64.4243 48.0665 64.4243 48.0665" stroke="#7C6656" stroke-width="2.5" stroke-linecap="round" stroke-linejoin="round"/>
<path d="M61.7049 30.2236C61.7049 30.2236 56.6756 24.4124 53.7519 28.3948C50.8282 32.3773 57.3735 35.674 57.3735 35.674" stroke="#7C6656" stroke-width="2.5" stroke-linecap="round" stroke-linejoin="round"/>
<path d="M83.3505 44.8184C83.3505 44.8184 78.3213 39.0071 75.4096 42.9896C72.498 46.972 79.0312 50.2687 79.0312 50.2687" stroke="#7C6656" stroke-width="2.5" stroke-linecap="round" stroke-linejoin="round"/>
<path d="M75.542 56.6455C75.542 56.6455 70.5127 50.8342 67.6011 54.8167C64.6894 58.7992 71.2226 62.0959 71.2226 62.0959" stroke="#7C6656" stroke-width="2.5" stroke-linecap="round" stroke-linejoin="round"/>
</g>
<defs>
<filter id="filter0_f_522_14648" x="160.649" y="104.563" width="30.6387" height="20.6768" filterUnits="userSpaceOnUse" color-interpolation-filters="sRGB">
<feFlood flood-opacity="0" result="BackgroundImageFix"/>
<feBlend mode="normal" in="SourceGraphic" in2="BackgroundImageFix" result="shape"/>
<feGaussianBlur stdDeviation="2.12549" result="effect1_foregroundBlur_522_14648"/>
</filter>
<filter id="filter1_f_522_14648" x="96.8818" y="104.563" width="30.6387" height="20.6768" filterUnits="userSpaceOnUse" color-interpolation-filters="sRGB">
<feFlood flood-opacity="0" result="BackgroundImageFix"/>
<feBlend mode="normal" in="SourceGraphic" in2="BackgroundImageFix" result="shape"/>
<feGaussianBlur stdDeviation="2.12549" result="effect1_foregroundBlur_522_14648"/>
</filter>
<linearGradient id="paint0_linear_522_14648" x1="98.3777" y1="91.1999" x2="98.5461" y2="104.519" gradientUnits="userSpaceOnUse">
<stop stop-color="white"/>
<stop offset="0.62" stop-color="#B0DFF9"/>
<stop offset="0.88" stop-color="#AADDF9"/>
</linearGradient>
<linearGradient id="paint1_linear_522_14648" x1="109.674" y1="80.3351" x2="109.939" y2="88.2158" gradientUnits="userSpaceOnUse">
<stop stop-color="white"/>
<stop offset="0.59" stop-color="#B0DFF9"/>
<stop offset="1" stop-color="#AADDF9"/>
</linearGradient>
<clipPath id="clip0_522_14648">
<rect width="256" height="256" fill="white"/>
</clipPath>
</defs>
</svg>
