<svg width="256" height="256" viewBox="0 0 256 256" fill="none" xmlns="http://www.w3.org/2000/svg">
<g clip-path="url(#clip0_522_15569)">
<path opacity="0.4" d="M128 236C165.555 236 196 231.971 196 227C196 222.029 165.555 218 128 218C90.4446 218 60 222.029 60 227C60 231.971 90.4446 236 128 236Z" fill="#E1D6CF"/>
<path d="M112.509 221.615C112.509 221.615 107.306 225.613 109.837 229.004C112.367 232.395 122.125 231.221 123.835 227.314C125.556 224.156 124.2 221.16 122.105 219.955" fill="white"/>
<path d="M143.846 221.615C143.846 221.615 149.049 225.613 146.518 229.004C143.988 232.395 134.23 231.221 132.52 227.314C130.799 224.156 132.155 221.16 134.25 219.955" fill="white"/>
<path d="M106.971 194.073C106.971 194.073 106.961 215.977 110.939 224.267C114.916 225.654 124.887 223.367 124.887 223.367C124.887 223.367 122.761 211.331 124.613 202.9C128.278 202.738 132.326 202.303 132.326 202.303C132.326 202.303 134.047 215.38 131.385 223.367C135.181 224.409 141.244 225.269 145.333 224.267C146.376 219.47 150.617 197.92 149.271 188.314C139.968 187.869 108.337 187.717 108.337 187.717C108.337 187.717 106.92 190.095 107.001 194.073H106.971Z" fill="#8FBDE2"/>
<path d="M123.926 202.303C123.926 202.303 122.398 216.737 124.867 223.367C124.867 223.367 116.729 226.353 110.919 224.268C110.919 224.268 105.291 200.785 107.66 190.369" stroke="#7C6656" stroke-width="2.5" stroke-linecap="round" stroke-linejoin="round"/>
<path d="M111.212 224.267C111.212 224.267 107.184 225.847 109.826 229.015C112.326 232.011 125.039 232.537 124.584 223.66" stroke="#7C6656" stroke-width="2.5" stroke-linecap="round" stroke-linejoin="round"/>
<path d="M132.307 202.303C132.307 202.303 133.835 216.737 131.365 223.367C131.365 223.367 139.503 226.353 145.313 224.268C145.313 224.268 150.941 200.784 148.573 190.369" stroke="#7C6656" stroke-width="2.5" stroke-linecap="round" stroke-linejoin="round"/>
<path d="M145.02 224.267C145.02 224.267 149.048 225.847 146.407 229.015C143.906 232.011 131.193 232.537 131.649 223.66" stroke="#7C6656" stroke-width="2.5" stroke-linecap="round" stroke-linejoin="round"/>
<path d="M124.605 202.9C124.605 202.9 131.822 202.9 134.444 201.442" stroke="#7C6656" stroke-width="2.5" stroke-linecap="round" stroke-linejoin="round"/>
<path d="M108.935 160.094C108.935 160.094 104.168 182.109 103.844 193.911C125.555 195.085 143.856 195.035 154.383 193.628C154.049 186.623 145.799 151.044 144.676 149.81" fill="white"/>
<path d="M166.671 77.1235C166.671 77.1235 185.498 91.6587 171.712 110.061C171.378 110.03 171.328 112.287 171.328 112.287C171.328 112.287 178.099 121.094 177.35 129.019C176.601 136.955 175.548 152.391 145.537 160.286C136.488 161.814 118.268 162.968 105.676 160.084C96.455 158.201 84.7034 152.867 80.8368 139.667C80.8368 139.667 78.0532 130.831 79.0148 123.604C77.9216 119.808 73.9842 111.69 75.3608 97.074C76.7374 82.4578 88.8737 74.0566 102.478 70.5442C109.938 66.9104 122.145 61.8798 139.251 65.1289C156.357 68.3781 166.671 77.1134 166.671 77.1134V77.1235Z" fill="white"/>
<path d="M170.68 103.016C171.773 106.214 171.277 110.597 171.338 112.287C172.481 114.929 178.615 123.067 177.208 133.898C175.801 144.739 167.086 154.496 148.442 159.669C148.442 159.669 135.151 162.513 125.677 162.007C118.815 162.027 99.0361 159.82 89.7542 152.603C82.0514 146.611 78.6504 139.101 79.45 121.64" stroke="#7C6656" stroke-width="2.5" stroke-linecap="round" stroke-linejoin="round"/>
<g filter="url(#filter0_f_522_15569)">
<path d="M155.502 134.415C160.426 134.26 164.349 131.916 164.263 129.18C164.176 126.445 160.115 124.352 155.19 124.507C150.266 124.662 146.343 127.006 146.429 129.742C146.515 132.478 150.577 134.57 155.502 134.415Z" fill="#F5B0B0"/>
</g>
<g filter="url(#filter1_f_522_15569)">
<path d="M106.741 136.941C111.528 136.79 115.34 134.45 115.254 131.714C115.167 128.978 111.216 126.883 106.429 127.033C101.641 127.184 97.8296 129.524 97.9157 132.26C98.0018 134.996 101.953 137.091 106.741 136.941Z" fill="#F5B0B0"/>
</g>
<path d="M143.391 130.689C143.391 130.689 139.211 135.012 131.255 135.487C123.299 135.963 118.906 132.147 118.906 132.147" stroke="#7C6656" stroke-width="2.5" stroke-linecap="round" stroke-linejoin="round"/>
<path d="M78.5777 121.7C62.929 77.8923 102.476 70.5538 102.476 70.5538C128.661 54.6015 160.242 72.4871 160.242 72.4871C160.242 72.4871 183.31 84.836 175.101 105.859" stroke="#7C6656" stroke-width="2.5" stroke-linecap="round" stroke-linejoin="round"/>
<path d="M106.93 83.5615C106.93 83.5615 105.837 97.9348 129.37 104.231" stroke="#7C6656" stroke-width="2.5" stroke-linecap="round" stroke-linejoin="round"/>
<path d="M102.337 92.2666C102.337 92.2666 89.6441 101.123 87.6602 114.96" stroke="#7C6656" stroke-width="2.5" stroke-linecap="round" stroke-linejoin="round"/>
<path d="M153.938 103.046C153.938 103.046 137.52 99.4124 131.012 85.2314" stroke="#7C6656" stroke-width="2.5" stroke-linecap="round" stroke-linejoin="round"/>
<path d="M122.984 74.6743C122.984 74.6743 116.364 77.7919 117.123 83.0249C117.71 87.0434 119.826 88.673 126.759 91.74C133.693 94.807 145.687 87.7216 151.467 79.0875C146.264 74.6743 136.962 66.2224 122.984 74.6743Z" fill="#1AAF92"/>
<path d="M119.442 87.2764C119.442 87.2764 134.929 103.654 151.711 78.7132C151.711 78.7132 136.386 62.7406 118.096 78.0957" stroke="#7C6656" stroke-width="2.5" stroke-linecap="round" stroke-linejoin="round"/>
<path d="M135.233 81.4658C135.264 81.6885 121.376 87.1442 112.965 79.5527" stroke="#7C6656" stroke-width="2.5" stroke-linecap="round" stroke-linejoin="round"/>
<path d="M117.631 122.521C117.631 122.521 116.305 120.042 112.833 120.305C108.936 120.588 107.6 124.424 107.6 124.424" stroke="#7C6656" stroke-width="2.5" stroke-linecap="round" stroke-linejoin="round"/>
<path d="M142.471 120.689C142.471 120.689 143.422 118.047 146.894 117.784C150.791 117.5 152.674 121.093 152.674 121.093" stroke="#7C6656" stroke-width="2.5" stroke-linecap="round" stroke-linejoin="round"/>
<path d="M140.9 161.531C139.807 163.515 137.246 165.965 131.628 166.693C125.636 167.473 121.293 165.904 118.672 162.078" stroke="#7C6656" stroke-width="2.5" stroke-linecap="round" stroke-linejoin="round"/>
<path d="M152.469 192.059H107.021" stroke="#7C6656" stroke-width="2.5" stroke-linecap="round" stroke-linejoin="round"/>
<path d="M149.949 167.14C149.858 166.765 154.666 181.887 154.383 193.629C154.383 193.629 126.325 196.726 103.844 193.912C103.844 193.912 105.119 176.452 107.386 168.972" fill="white"/>
<path d="M149.949 167.14C149.858 166.765 154.666 181.887 154.383 193.629C154.383 193.629 126.325 196.726 103.844 193.912C103.844 193.912 105.119 176.452 107.386 168.972" stroke="#7C6656" stroke-width="2.5" stroke-linecap="round" stroke-linejoin="round"/>
<path d="M126.973 32.7489C122.539 24.3678 111.344 19.1145 101.961 26.5845C93.732 33.2246 92.5274 46.7577 99.623 57.8818C105.625 67.3054 116.223 74.3402 126.74 78.4497C137.287 74.4414 147.966 67.5382 154.029 58.1551C161.226 47.1322 160.132 33.5181 151.964 26.8882C142.672 19.2663 131.396 24.4083 126.983 32.759L126.973 32.7489Z" fill="#F08395"/>
<path d="M151.469 158.768C184.436 149.01 181.855 123.533 181.855 123.533C182.189 121.205 181.197 117.946 181.197 117.946C170.731 112.551 173.373 96.042 186.359 96.042C197.929 96.042 200.166 104.362 199.032 109.899C198.334 113.29 193.263 116.65 193.263 116.65C193.263 116.65 207.777 159.244 154.192 173.84" fill="white"/>
<path d="M151.469 158.768C184.436 149.01 181.855 123.533 181.855 123.533C182.189 121.205 181.197 117.946 181.197 117.946C170.731 112.551 173.373 96.042 186.359 96.042C197.929 96.042 200.166 104.362 199.032 109.899C198.334 113.29 193.263 116.65 193.263 116.65C193.263 116.65 205.51 159.892 151.924 174.488" stroke="#7C6656" stroke-width="2.5" stroke-linecap="round" stroke-linejoin="round"/>
<path d="M156.822 156.774C156.822 156.774 158.634 163.819 156.822 172.281" stroke="#7C6656" stroke-width="2.5" stroke-linecap="round" stroke-linejoin="round"/>
<path d="M105.373 159.628C72.4053 149.871 74.9865 124.394 74.9865 124.394C74.6524 122.066 75.6444 118.806 75.6444 118.806C86.1105 113.411 83.4687 96.9023 70.4822 96.9023C58.9127 96.9023 56.6757 105.223 57.8094 110.759C58.5078 114.15 63.579 117.511 63.579 117.511C63.579 117.511 51.3313 160.752 104.917 175.348" fill="white"/>
<path d="M105.373 159.628C72.4053 149.871 74.9865 124.394 74.9865 124.394C74.6524 122.066 75.6444 118.806 75.6444 118.806C86.1105 113.411 83.4687 96.9023 70.4822 96.9023C58.9127 96.9023 56.6757 105.223 57.8094 110.759C58.5078 114.15 63.579 117.511 63.579 117.511C63.579 117.511 51.3313 160.752 104.917 175.348" stroke="#7C6656" stroke-width="2.5" stroke-linecap="round" stroke-linejoin="round"/>
<path d="M100.008 157.635C100.008 157.635 98.1967 164.68 100.008 173.142" stroke="#7C6656" stroke-width="2.5" stroke-linecap="round" stroke-linejoin="round"/>
<path d="M89.8552 62.7705C89.8552 62.7705 88.7114 72.1739 101.283 75.2206" stroke="#F08395" stroke-width="2.5" stroke-linecap="round" stroke-linejoin="round"/>
<path d="M82.2344 64.3506C82.2344 64.3506 80.5642 77.1954 96.7595 79.5538" stroke="#F08395" stroke-width="2.5" stroke-linecap="round" stroke-linejoin="round"/>
<path d="M165.264 62.4873C165.264 62.4873 166.407 71.8907 153.836 74.9374" stroke="#F08395" stroke-width="2.5" stroke-linecap="round" stroke-linejoin="round"/>
<path d="M172.896 64.0664C172.896 64.0664 174.566 76.9112 158.371 79.2697" stroke="#F08395" stroke-width="2.5" stroke-linecap="round" stroke-linejoin="round"/>
</g>
<defs>
<filter id="filter0_f_522_15569" x="142.428" y="120.5" width="25.8359" height="17.9233" filterUnits="userSpaceOnUse" color-interpolation-filters="sRGB">
<feFlood flood-opacity="0" result="BackgroundImageFix"/>
<feBlend mode="normal" in="SourceGraphic" in2="BackgroundImageFix" result="shape"/>
<feGaussianBlur stdDeviation="2" result="effect1_foregroundBlur_522_15569"/>
</filter>
<filter id="filter1_f_522_15569" x="93.9141" y="123.026" width="25.3418" height="17.9224" filterUnits="userSpaceOnUse" color-interpolation-filters="sRGB">
<feFlood flood-opacity="0" result="BackgroundImageFix"/>
<feBlend mode="normal" in="SourceGraphic" in2="BackgroundImageFix" result="shape"/>
<feGaussianBlur stdDeviation="2" result="effect1_foregroundBlur_522_15569"/>
</filter>
<clipPath id="clip0_522_15569">
<rect width="256" height="256" fill="white"/>
</clipPath>
</defs>
</svg>
