<svg width="256" height="256" viewBox="0 0 256 256" fill="none" xmlns="http://www.w3.org/2000/svg">
<g clip-path="url(#clip0_522_14920)">
<path opacity="0.4" d="M128.606 213.999C163.692 213.999 192.135 210.444 192.135 206.058C192.135 201.672 163.692 198.117 128.606 198.117C93.5193 198.117 65.0762 201.672 65.0762 206.058C65.0762 210.444 93.5193 213.999 128.606 213.999Z" fill="#E1D6CF"/>
<path d="M125.083 202.883L125.869 199.741L129.796 187.173L129.011 176.962H124.298L121.941 181.675L118.014 186.388L114.086 189.53L108.588 191.101L103.089 191.886L102.304 194.243L99.9471 195.814H96.8051L93.6632 192.672V188.744V183.246L96.0196 181.675L99.1616 180.889L102.304 180.104H105.446L107.802 178.533L109.373 176.962L108.588 175.391L103.875 173.82L103.089 169.892L105.446 162.823L107.017 151.826L100.733 150.255L93.6632 151.826L91.3067 154.968V158.11L90.5212 162.037L88.1645 164.394L84.237 166.75L79.5241 165.965L76.3819 164.394L73.2399 158.895L74.0254 154.182L76.3819 150.255L80.3096 149.469L81.8806 147.898L84.237 145.542L86.5935 142.399L90.5212 140.043L96.0196 137.686L105.446 136.115L100.733 134.544L91.3067 129.046L88.95 132.188L84.237 134.544L77.9531 135.33L70.8834 134.544L66.956 130.617L62.2429 129.831L55.9589 126.689L52.8168 121.191L52.0312 112.55L54.3878 107.837L58.3153 105.481L61.4573 99.1966L64.5993 98.4111L65.385 93.6981L67.7415 81.9155L71.6689 74.0604L76.3819 66.9909L81.8806 61.4924L88.95 55.9938L93.6632 52.8518L101.518 49.7098L106.231 48.9243H111.73L117.228 47.3532L127.44 45.7822H140.793L153.362 48.9243L165.93 54.4228L177.712 65.4199L183.996 75.6315L187.138 83.4865L187.924 91.3416L186.353 99.1966L183.211 104.695L180.854 106.266V111.765L176.927 120.405L172.214 126.689L165.144 132.973L154.147 137.686L145.506 140.043L150.22 143.97L154.933 145.542L162.788 144.756L167.501 143.185V141.614L168.286 137.686L170.643 135.33L174.57 134.544L178.498 135.33L180.854 138.472L182.425 143.185L180.069 147.898L176.927 150.255H173.785L170.643 153.397L163.573 156.539H154.933L147.863 155.753L151.005 170.678L149.434 173.034L145.506 174.605L144.721 182.46L140.008 195.814L138.437 200.527L137.651 205.24L136.08 206.811L131.367 207.596L126.654 206.025L125.083 202.883Z" fill="white"/>
<path d="M91.4686 157.465C91.4686 161.804 87.6001 165.321 82.8281 165.321C78.056 165.321 74.1875 161.804 74.1875 157.465C74.1875 153.127 78.8415 147.254 83.6136 147.254C88.3856 147.254 91.4686 153.127 91.4686 157.465Z" fill="white"/>
<path d="M52.9789 109.55L57.6919 105.622L58.4774 104.051L59.2629 101.695L60.8339 100.124L63.1904 99.3382L65.547 96.9817L67.118 85.1991L75.7585 67.918L86.7556 57.7064L100.895 50.6369L111.106 49.0659L113.463 47.4948L128.387 45.9238L144.098 46.7093L159.022 50.6369L174.732 62.4195L185.729 78.9151L187.3 93.8397L184.158 102.48L180.231 105.622L178.66 115.834L170.805 127.616L155.095 137.828L139.385 140.185L120.532 138.614L103.251 135.472L96.9672 132.33L90.6832 129.187L89.8977 130.758L85.1846 133.115L80.4716 134.686H73.402L69.4745 133.115L66.3325 129.973L62.4049 129.187L57.6919 126.831L52.9789 120.547L52.1934 114.263L52.9789 109.55Z" fill="white"/>
<path d="M182.593 143.01C182.593 147.349 179.076 150.865 174.738 150.865C166.883 154.007 166.883 147.349 166.883 143.01C166.883 138.672 170.4 135.155 174.738 135.155C179.076 135.155 182.593 138.672 182.593 143.01Z" fill="white"/>
<path d="M169.709 153.78C169.709 153.78 167.092 144.635 165.59 142.973C164.704 143.928 154.644 149.541 144.334 139.241C142.036 139.878 134.373 140.386 134.373 140.386L131.916 144.884L130.254 140.177C130.254 140.177 119.119 139.162 116.342 138.684C113.029 137.56 97.6742 130.952 84.1309 145.849C84.8573 149.64 91.8628 154.078 91.8628 154.078C91.8628 154.078 96.7587 147.978 107.546 151.382C106.232 154.536 104.431 166.378 104.431 166.378C104.431 166.378 98.8185 175.184 107.864 175.145C116.899 175.115 146.205 174.528 146.205 174.528C146.205 174.528 151.38 174.767 150.235 168.497C149.101 162.467 147.648 155.681 147.648 155.681C147.648 155.681 160.057 158.556 169.709 153.77V153.78Z" fill="#FFADBE"/>
<path d="M109.358 175.154C109.358 175.154 109.129 179.224 103.507 180.06C100.472 180.478 99.6659 180.548 99.6659 180.548C99.6659 180.548 96.2029 184.06 103.577 192.389C106.263 191.673 115.259 190.2 118.463 185.712C121.737 181.075 122.503 180.369 122.474 177.672C125.519 177.871 129.549 177.642 129.549 177.642C129.549 177.642 130.166 182.717 128.444 189.852C126.733 196.987 124.693 200.728 124.693 200.728C124.693 200.728 128.872 205.346 137.987 199.823C140.286 196.917 145.003 183.304 145.182 175.124C139.808 174.677 109.348 175.174 109.348 175.174L109.358 175.154Z" fill="#7A7066"/>
<path d="M115.048 138.077C115.048 138.077 93.544 131.161 81.1152 148.755C81.1152 148.755 73.8709 149.789 73.5226 156.347C73.1743 162.905 79.0454 167.93 85.0856 165.94C90.3995 164.149 92.0911 160.835 90.3995 155.661C90.3995 155.661 95.1461 146.108 108.261 152.466" stroke="#7C6656" stroke-width="2.5" stroke-linecap="round" stroke-linejoin="round"/>
<path d="M149.648 156.098C156.415 157.59 165.868 157.72 173.779 150.525C173.779 150.525 180.228 151.013 181.78 145.43C183.332 139.838 179.233 134.385 173.64 134.952C168.714 135.479 166.625 138.017 167.092 142.803C167.092 142.803 156.286 149.391 146.195 141.39" stroke="#7C6656" stroke-width="2.5" stroke-linecap="round" stroke-linejoin="round"/>
<g filter="url(#filter0_f_522_14920)">
<path d="M113.619 115.692C117.957 115.692 121.478 113.582 121.483 110.979C121.487 108.376 117.975 106.266 113.636 106.266C109.298 106.266 105.777 108.376 105.773 110.979C105.768 113.582 109.281 115.692 113.619 115.692Z" fill="#F5B0B0"/>
</g>
<g filter="url(#filter1_f_522_14920)">
<path d="M163.736 116.619C168.074 116.619 171.595 114.509 171.6 111.906C171.605 109.303 168.092 107.193 163.753 107.193C159.415 107.193 155.895 109.303 155.89 111.906C155.885 114.509 159.398 116.619 163.736 116.619Z" fill="#F5B0B0"/>
</g>
<path d="M122.094 104.841C124.892 104.841 127.159 102.573 127.159 99.776C127.159 96.9786 124.892 94.7109 122.094 94.7109C119.297 94.7109 117.029 96.9786 117.029 99.776C117.029 102.573 119.297 104.841 122.094 104.841Z" fill="#7C6656"/>
<path d="M156.803 104.841C159.601 104.841 161.868 102.573 161.868 99.776C161.868 96.9786 159.601 94.7109 156.803 94.7109C154.006 94.7109 151.738 96.9786 151.738 99.776C151.738 102.573 154.006 104.841 156.803 104.841Z" fill="#7C6656"/>
<path d="M131.248 109.866C131.248 109.866 136.881 111.18 140.871 111.18C146.006 111.18 149.289 109.866 149.289 109.866C149.289 109.866 150.016 128.863 141.916 129.818C133.816 130.773 130.631 118.842 131.248 109.866Z" stroke="#7C6656" stroke-width="2.5" stroke-linecap="round" stroke-linejoin="round"/>
<path d="M88.0117 126.495C88.7879 127.381 89.6238 128.167 90.5293 128.854C99.0374 135.391 114.412 139.292 123.119 139.242" stroke="#7C6656" stroke-width="2.5" stroke-linecap="round" stroke-linejoin="round"/>
<path d="M146.394 147.023C146.394 147.023 149.071 166.219 150.056 170.11C151.041 174.001 147.598 175.264 143.528 175.155C139.458 175.045 107.187 175.155 107.187 175.155C107.187 175.155 101.236 175.155 103.754 168.498C105.913 162.766 106.331 152.785 106.331 152.785" stroke="#7C6656" stroke-width="2.5" stroke-linecap="round" stroke-linejoin="round"/>
<path d="M140.345 140.316C140.345 140.316 135.629 140.386 134.375 140.386C133.658 140.386 131.917 144.884 131.917 144.884C131.917 144.884 131.141 140.286 130.255 140.177C129.369 140.067 123.061 139.231 123.061 139.231" stroke="#7C6656" stroke-width="2.5" stroke-linecap="round" stroke-linejoin="round"/>
<path d="M134.343 152.774H129.049L130.074 145.251H133.318L134.343 152.774Z" fill="white" stroke="#7C6656" stroke-width="2.5" stroke-linecap="round" stroke-linejoin="round"/>
<path d="M84.1309 145.849C84.1309 145.849 84.4393 151.879 91.8628 154.078" stroke="#7C6656" stroke-width="2.5" stroke-linecap="round" stroke-linejoin="round"/>
<path d="M165.373 143.65C165.373 143.65 169.373 148.457 169.304 153.78" stroke="#7C6656" stroke-width="2.5" stroke-linecap="round" stroke-linejoin="round"/>
<path d="M131.696 153.78L131.01 174.14" stroke="#7C6656" stroke-width="2.5" stroke-linecap="round" stroke-linejoin="round"/>
<path d="M144.732 175.066C144.732 175.066 145.22 190.182 137.319 200.74C137.319 200.74 139.757 204.014 137.319 206.969C134.503 211.169 121.905 207.308 124.89 200.173C127.865 193.038 130.452 187.953 129.328 178.002" stroke="#7C6656" stroke-width="2.5" stroke-linecap="round" stroke-linejoin="round"/>
<path d="M130.711 177.563C130.711 177.563 123.766 177.981 123.258 177.981H122.76C122.76 177.981 121.925 184.598 113.884 189.206C109.944 191.902 103.077 191.902 103.077 191.902C103.077 191.902 101.824 195.326 98.888 195.495C95.9525 195.664 92.4398 193.146 93.2757 186.539C94.1116 179.921 100.669 180.588 101.455 180.429C102.242 180.26 104.859 180.011 107.117 179.006C109.376 178.001 109.356 175.175 109.356 175.175" stroke="#7C6656" stroke-width="2.5" stroke-linecap="round" stroke-linejoin="round"/>
<path d="M73.7616 50.7773C73.7616 50.7773 71.8411 40.1596 67.4228 36.1792C63.0046 32.2087 59.0242 34.5671 57.84 36.1891C56.6559 37.8111 55.4817 43.5628 63.1439 45.4734C70.7465 47.374 73.7616 50.7773 73.7616 50.7773Z" fill="#83D0F5"/>
<path d="M68.8759 56.6286C68.8759 56.6286 61.751 52.8273 57.3527 53.5737C52.9643 54.32 52.4966 57.763 52.9046 59.2059C53.3126 60.6488 56.1386 64.0122 60.8256 60.4C65.4727 56.8177 68.8759 56.6286 68.8759 56.6286Z" fill="#B7E2FA"/>
<path d="M193.223 87.9049C193.223 87.9049 200.069 79.566 205.87 78.2425C211.672 76.9191 214 80.9194 214.239 82.9096C214.478 84.8998 212.707 90.4922 205.084 88.4324C197.521 86.3924 193.233 87.895 193.233 87.895L193.223 87.9049Z" fill="#A4DBF8"/>
<path d="M194.646 95.3877C194.646 95.3877 202.727 95.537 206.2 98.3332C209.672 101.129 208.399 104.354 207.344 105.418C206.289 106.483 202.179 108.045 199.841 102.602C197.532 97.2087 194.646 95.3877 194.646 95.3877Z" fill="#C6E8FB"/>
<path d="M104.312 101.576C104.312 101.576 105.307 109.338 100.979 109.786C96.65 110.224 96.8391 105.069 96.8391 105.069" stroke="#7C6656" stroke-width="2.5" stroke-linecap="round" stroke-linejoin="round"/>
<path d="M187.801 147.023C187.801 147.023 190.119 154.357 180.994 156.119" stroke="#7C6656" stroke-width="2.5" stroke-linecap="round" stroke-linejoin="round"/>
<path d="M193.553 147.023C193.553 147.023 196.927 158.537 182.408 161.084" stroke="#7C6656" stroke-width="2.5" stroke-linecap="round" stroke-linejoin="round"/>
<path d="M70.1406 164.896C70.1406 164.896 72.6383 175.065 84.1317 174.07" stroke="#7C6656" stroke-width="2.5" stroke-linecap="round" stroke-linejoin="round"/>
<path d="M173.173 86.9795C173.402 87.9547 173.849 89.0194 173.989 89.3677C175.193 91.9351 181.472 99.7367 180.417 110.424C179.372 121.111 170.685 132.416 152.515 138.078C152.515 138.078 144.365 139.76 142.822 139.899" stroke="#7C6656" stroke-width="2.5" stroke-linecap="round" stroke-linejoin="round"/>
<path d="M163.71 70.083C163.71 70.083 166.098 80.9395 160.406 87.8953" stroke="#7C6656" stroke-width="2.5" stroke-linecap="round" stroke-linejoin="round"/>
<path d="M134.682 72.5801C134.682 72.5801 134.483 85.7651 126.781 91.6959" stroke="#7C6656" stroke-width="2.5" stroke-linecap="round" stroke-linejoin="round"/>
<path d="M105.743 80.6807C105.743 80.6807 104.092 92.6119 95.5039 99.299" stroke="#7C6656" stroke-width="2.5" stroke-linecap="round" stroke-linejoin="round"/>
<path d="M90.3913 100.324C90.3913 100.324 92.8791 116.534 86.998 121.629" stroke="#7C6656" stroke-width="2.5" stroke-linecap="round" stroke-linejoin="round"/>
<path d="M180.538 106.086C191.235 100.931 186.896 82.7804 186.896 82.7804C186.896 82.7804 183.831 69.1376 169.86 57.4154C146.167 37.5333 111.856 48.5988 111.856 48.5988C111.856 48.5988 86.3912 47.2056 70.1811 77.6457C70.1811 77.6457 61.3247 95.6471 67.0366 109.867C72.7484 124.087 88.0132 127.62 88.0132 127.62" stroke="#7C6656" stroke-width="2.5" stroke-linecap="round" stroke-linejoin="round"/>
<path d="M65.0054 97.4287C65.0054 97.4287 59.4727 98.5731 58.7662 104.842C58.7662 104.842 48.6361 109.867 53.2235 121.63C56.975 131.252 67.0255 130.148 67.0255 130.148C67.0255 130.148 68.8565 135.481 78.9269 135.193C88.7485 134.914 90.0322 129.869 90.0322 129.869" stroke="#7C6656" stroke-width="2.5" stroke-linecap="round" stroke-linejoin="round"/>
<path d="M98.1016 181.752C98.1016 181.752 99.2161 189.126 102.46 190.947" stroke="#7C6656" stroke-width="2.5" stroke-linecap="round" stroke-linejoin="round"/>
<path d="M137.32 200.748C137.32 200.748 131.728 203.962 125.061 201.425" stroke="#7C6656" stroke-width="2.5" stroke-linecap="round" stroke-linejoin="round"/>
</g>
<defs>
<filter id="filter0_f_522_14920" x="103.773" y="104.266" width="19.709" height="13.4263" filterUnits="userSpaceOnUse" color-interpolation-filters="sRGB">
<feFlood flood-opacity="0" result="BackgroundImageFix"/>
<feBlend mode="normal" in="SourceGraphic" in2="BackgroundImageFix" result="shape"/>
<feGaussianBlur stdDeviation="1" result="effect1_foregroundBlur_522_14920"/>
</filter>
<filter id="filter1_f_522_14920" x="153.891" y="105.193" width="19.709" height="13.4263" filterUnits="userSpaceOnUse" color-interpolation-filters="sRGB">
<feFlood flood-opacity="0" result="BackgroundImageFix"/>
<feBlend mode="normal" in="SourceGraphic" in2="BackgroundImageFix" result="shape"/>
<feGaussianBlur stdDeviation="1" result="effect1_foregroundBlur_522_14920"/>
</filter>
<clipPath id="clip0_522_14920">
<rect width="256" height="256" fill="white"/>
</clipPath>
</defs>
</svg>
