<svg width="256" height="256" viewBox="0 0 256 256" fill="none" xmlns="http://www.w3.org/2000/svg">
<g clip-path="url(#clip0_522_14829)">
<path opacity="0.4" d="M129 231C168.765 231 201 226.971 201 222C201 217.029 168.765 213 129 213C89.2355 213 57 217.029 57 222C57 226.971 89.2355 231 129 231Z" fill="#E1D6CF"/>
<path d="M104.499 145.161L112.135 143.399H116.246L130.342 141.049L132.104 136.938L138.565 131.064L155.598 125.778L170.282 126.953L185.553 130.477L177.33 141.049L172.631 143.399L171.456 145.161L170.282 149.272V152.796V161.019L167.345 168.067L163.234 171.004H159.122L156.185 169.242L153.836 167.48V175.115L155.011 182.751L155.598 186.275L155.011 188.037L157.947 190.973L162.059 198.021L163.234 206.832L162.059 216.816L163.234 218.578L164.408 221.515L162.646 223.277L157.947 224.452L149.725 223.864L145.026 220.928V218.578L145.613 212.705V206.832L142.677 201.545L135.041 195.085H129.755L120.358 195.672L115.659 199.196L109.785 206.244V213.88L110.96 219.753L109.785 222.69L102.737 224.452H95.6893L91.5779 223.277V220.928L93.3399 216.816L92.7526 205.07L93.3399 199.196L97.4513 192.735L101.563 187.449L100.975 186.275L101.563 181.576L103.325 171.004L106.849 160.432L103.325 161.019L98.0386 165.718L95.6893 173.353L96.864 175.115L98.0386 179.814L95.6893 185.1L91.5779 188.037H85.7045L79.831 182.751L78.6562 176.877L81.0057 172.766L84.5298 170.416L85.1171 166.892L88.0538 158.669L92.1652 152.796L98.0386 148.097L104.499 145.161Z" fill="white"/>
<path d="M93.8567 215.64C93.8567 215.64 90.2856 221.325 91.2489 222.911C92.2121 224.497 100.928 225.836 104.711 224.368C108.505 222.899 111.794 221.161 108.634 214.312C105.463 207.476 93.8684 215.628 93.8684 215.628L93.8567 215.64Z" fill="white"/>
<path d="M145.837 212.986C145.837 212.986 141.079 221.961 149.502 223.476C157.924 224.992 165.865 223.864 163.856 220.739C161.848 217.615 160.003 213.327 160.003 213.327L145.837 212.986Z" fill="white"/>
<path d="M152.544 185.299L103.007 184.946C103.007 184.946 92.7875 194.684 92.6701 200.91C92.5526 207.136 94.1972 218.037 94.1972 218.037C94.1972 218.037 106.555 219.036 109.339 218.014C109.033 213.209 108.599 206.302 112.158 202.895C115.717 199.489 120.04 195.812 120.04 195.812C120.04 195.812 134.301 194.59 135.722 195.777C137.144 196.952 143.945 202.402 145.202 205.668C146.459 208.933 144.779 218.625 144.779 218.625C144.779 218.625 162.881 218.484 162.881 217.591C162.881 216.592 163.973 201.286 162.881 199.383C161.789 197.48 152.556 185.31 152.556 185.31L152.544 185.299Z" fill="#8EBDE2"/>
<path d="M107.027 177.782C107.18 179.791 107.027 182.493 105.089 184.454C105.089 184.454 92.4023 193.511 92.4727 203.12C92.5432 212.729 93.5535 217.945 93.5535 217.945C93.5535 217.945 92.2026 219.495 91.3568 221.492C90.511 223.489 95.386 225.486 102.857 224.394C107.967 223.654 111.726 222.162 110.633 218.943C109.541 215.725 108.272 207.079 111.691 203.379C115.109 199.678 120.548 195.391 120.548 195.391C120.548 195.391 132.142 195.121 137.252 195.297" stroke="#7C6656" stroke-width="2.5" stroke-linecap="round" stroke-linejoin="round"/>
<path d="M93.5508 217.945C93.5508 217.945 99.4594 218.956 109.961 217.945" stroke="#7C6656" stroke-width="2.5" stroke-linecap="round" stroke-linejoin="round"/>
<path d="M149.49 177.438C149.337 179.447 149.49 180.728 150.301 184.111C150.301 184.111 162.987 193.168 162.917 202.776C162.846 212.385 161.836 217.601 161.836 217.601C161.836 217.601 163.187 219.152 164.033 221.148C164.89 223.145 160.003 225.142 152.532 224.05C147.423 223.31 143.664 221.818 144.756 218.599C145.848 215.381 147.117 206.735 143.699 203.035C140.269 199.335 135.711 195.752 135.711 195.752" stroke="#7C6656" stroke-width="2.5" stroke-linecap="round" stroke-linejoin="round"/>
<path d="M162.176 217.945C162.176 217.945 156.267 218.956 145.766 217.945" stroke="#7C6656" stroke-width="2.5" stroke-linecap="round" stroke-linejoin="round"/>
<path d="M156.973 156.248C156.973 156.248 150.724 167.654 155.528 186.99C155.528 186.99 117.809 192.006 100.342 186.391C100.342 186.391 104.5 168.406 106.685 157.094L105.334 145.981L111.901 146.052C111.901 146.052 148.939 147.097 152.11 146.052C155.282 145.006 156.985 156.248 156.985 156.248H156.973Z" fill="white"/>
<path d="M156.973 156.248C156.973 156.248 150.724 167.654 155.528 186.99C155.528 186.99 117.809 192.005 100.342 186.39C100.342 186.39 102.95 167.208 109.023 157.341" stroke="#7C6656" stroke-width="2.5" stroke-linecap="round" stroke-linejoin="round"/>
<path d="M149.736 148.675C149.031 151.024 146.388 155.124 138.33 156.169C131.376 157.074 125.103 153.714 122.072 149.274" stroke="#7C6656" stroke-width="2.5" stroke-linecap="round" stroke-linejoin="round"/>
<path d="M128.712 149.248C128.712 149.248 106.839 149.107 90.6992 133.919C82.7466 125.684 79.434 113.468 82.5704 99.6532C79.8334 90.8431 72.5503 73.7867 87.0459 55.0152C99.2744 40.5431 112.959 41.1187 112.959 41.1187C112.959 41.1187 130.791 31.0869 153.063 36.7136C175.324 42.3403 189.772 51.3032 196.033 67.2672C199.686 78.18 196.01 89.0576 189.843 89.5392C189.666 91.9238 189.49 94.2379 189.49 94.2379C189.49 94.2379 197.549 105.339 195.305 118.73C193.073 132.133 185.825 137.584 170.742 144.338C155.659 151.093 128.7 149.248 128.7 149.248H128.712Z" fill="white"/>
<path d="M189.757 83.4453C190.803 87.2278 189.922 92.2789 189.875 94.2289C191.014 97.3771 197.557 107.221 195.173 119.673C192.8 132.124 182.016 142.826 160.061 147.536C160.061 147.536 147.163 149.604 142.582 149.192" stroke="#7C6656" stroke-width="2.5" stroke-linecap="round" stroke-linejoin="round"/>
<path d="M133.527 148.671C118.832 148.589 102.821 144.29 92.5656 135.28C84.0491 127.797 80.6308 118.87 82.7687 98.7002" stroke="#7C6656" stroke-width="2.5" stroke-linecap="round" stroke-linejoin="round"/>
<g filter="url(#filter0_f_522_14829)">
<path d="M169.987 122.061C175.673 122.313 180.407 119.823 180.561 116.5C180.714 113.177 176.23 110.278 170.544 110.026C164.857 109.773 160.124 112.263 159.97 115.586C159.816 118.91 164.301 121.809 169.987 122.061Z" fill="#F5B0B0"/>
</g>
<g filter="url(#filter1_f_522_14829)">
<path d="M115.382 121.235C121.068 121.487 125.802 118.998 125.955 115.674C126.109 112.351 121.624 109.452 115.938 109.2C110.252 108.948 105.518 111.437 105.364 114.761C105.211 118.084 109.696 120.983 115.382 121.235Z" fill="#F5B0B0"/>
</g>
<path d="M82.1099 98.6992C67.0269 46.8604 113.345 41.1044 113.345 41.1044C144.791 24.4356 180.126 47.3537 180.126 47.3537C180.126 47.3537 205.992 63.259 195.032 87.0463" stroke="#7C6656" stroke-width="2.5" stroke-linecap="round" stroke-linejoin="round"/>
<path d="M117.269 56.4805C117.269 56.4805 115.014 73.0553 141.832 81.9829" stroke="#7C6656" stroke-width="2.5" stroke-linecap="round" stroke-linejoin="round"/>
<path d="M111.347 66.2578C111.347 66.2578 96.0293 75.6435 92.7637 91.5253" stroke="#7C6656" stroke-width="2.5" stroke-linecap="round" stroke-linejoin="round"/>
<path d="M170.365 82.3149C170.365 82.3149 151.606 76.9701 145.051 60.0898" stroke="#7C6656" stroke-width="2.5" stroke-linecap="round" stroke-linejoin="round"/>
<path d="M136.487 47.2961C136.487 47.2961 128.605 50.4443 129.122 56.5644C129.521 61.2631 131.859 63.2953 139.682 67.3245C147.506 71.3537 161.884 63.9884 169.179 54.3795C163.458 48.9054 153.262 38.4742 136.499 47.2844L136.487 47.2961Z" fill="#1AAF92"/>
<path d="M131.506 61.653C131.506 61.653 148.316 81.7048 169.484 53.9823C169.484 53.9823 152.838 34.412 130.578 50.9398" stroke="#7C6656" stroke-width="2.5" stroke-linecap="round" stroke-linejoin="round"/>
<path d="M150.196 56.0124C150.208 56.2708 133.751 61.6274 124.541 52.2534" stroke="#7C6656" stroke-width="2.5" stroke-linecap="round" stroke-linejoin="round"/>
<path d="M157.821 170.074C166.854 173.998 171.611 163.766 169.955 148.413C169.955 148.413 179.693 134.328 166.913 130.546C155.565 127.186 148.776 140.19 156.587 147.544C156.587 147.544 156.587 150.633 155.753 152.607C151.466 162.674 152.887 167.936 157.821 170.074Z" fill="white" stroke="#7C6656" stroke-width="2.5" stroke-linecap="round" stroke-linejoin="round"/>
<path d="M106.53 144.269C85.4213 149.801 84.5755 170.605 84.5755 170.605C84.5755 170.605 75.2368 173.659 79.9003 182.916C83.7415 190.539 92.9158 188.049 95.2886 184.901C97.6615 181.753 98.8597 176.854 95.4648 173.142C95.4648 173.142 97.5323 161.677 107.188 159.951" stroke="#7C6656" stroke-width="2.5" stroke-linecap="round" stroke-linejoin="round"/>
<path d="M103.337 160.666C103.337 160.666 100.658 158.129 97.3457 149.472" stroke="#7C6656" stroke-width="2.5" stroke-linecap="round" stroke-linejoin="round"/>
<path d="M155.975 119.927C155.681 119.093 155.376 118.236 154.8 117.566C154.213 116.897 153.285 116.462 152.439 116.72C151.018 117.155 150.489 119.222 149.009 119.41C147.329 119.622 146.26 117.178 144.58 117.249C142.877 117.319 141.855 119.915 140.199 119.528C139.341 119.328 138.883 118.388 138.131 117.93C137.133 117.319 135.782 117.672 134.901 118.447C134.02 119.222 133.515 120.315 133.033 121.384" stroke="#7C6656" stroke-width="2.5" stroke-linecap="round" stroke-linejoin="round"/>
<path d="M129.31 100.687C129.839 103.941 127.619 107.019 124.365 107.536C121.111 108.064 118.033 105.844 117.516 102.59C117 99.3364 119.208 96.2588 122.462 95.7419C125.716 95.2133 128.793 97.4334 129.31 100.687Z" fill="#7C6656"/>
<path d="M168.886 100.356C169.415 103.61 167.195 106.688 163.941 107.205C160.687 107.733 157.609 105.513 157.093 102.259C156.576 99.0054 158.784 95.9277 162.038 95.4108C165.292 94.8822 168.37 97.1024 168.886 100.356Z" fill="#7C6656"/>
<path d="M126.585 85.1582C126.585 85.1582 123.578 90.3503 118.82 89.6455" stroke="#7C6656" stroke-width="2.5" stroke-linecap="round" stroke-linejoin="round"/>
<path d="M71.0565 74.5839C71.0565 74.5839 66.3578 61.2748 55.2453 57.3043C44.1445 53.3221 40.3503 65.7738 48.021 69.9792C55.6916 74.1846 64.725 69.4976 71.0565 74.5722V74.5839Z" fill="#9BB2DD"/>
<path d="M69.0835 80.2936C69.0835 80.2936 59.827 75.3951 51.7569 78.8017C43.6868 82.2201 47.8805 90.9245 54.1885 89.3621C60.4966 87.7998 63.0691 80.693 69.0835 80.2818V80.2936Z" fill="#98BDE5"/>
<path d="M200.896 133.333C200.896 133.333 197.713 147.547 183.934 152.398" stroke="#7C6656" stroke-width="2.5" stroke-linecap="round" stroke-linejoin="round"/>
<path d="M208.552 130.005C208.552 130.005 208.247 145.229 195.689 153.123" stroke="#7C6656" stroke-width="2.5" stroke-linecap="round" stroke-linejoin="round"/>
<path d="M69.7288 171.296C69.7288 171.296 64.3487 181.116 74.2631 191.313" stroke="#7C6656" stroke-width="2.5" stroke-linecap="round" stroke-linejoin="round"/>
<path d="M60.9785 176.724C60.9785 176.724 61.4954 194.873 75.5916 200.91" stroke="#7C6656" stroke-width="2.5" stroke-linecap="round" stroke-linejoin="round"/>
</g>
<defs>
<filter id="filter0_f_522_14829" x="157.967" y="108.008" width="24.5977" height="16.0708" filterUnits="userSpaceOnUse" color-interpolation-filters="sRGB">
<feFlood flood-opacity="0" result="BackgroundImageFix"/>
<feBlend mode="normal" in="SourceGraphic" in2="BackgroundImageFix" result="shape"/>
<feGaussianBlur stdDeviation="1" result="effect1_foregroundBlur_522_14829"/>
</filter>
<filter id="filter1_f_522_14829" x="103.361" y="107.182" width="24.5977" height="16.0708" filterUnits="userSpaceOnUse" color-interpolation-filters="sRGB">
<feFlood flood-opacity="0" result="BackgroundImageFix"/>
<feBlend mode="normal" in="SourceGraphic" in2="BackgroundImageFix" result="shape"/>
<feGaussianBlur stdDeviation="1" result="effect1_foregroundBlur_522_14829"/>
</filter>
<clipPath id="clip0_522_14829">
<rect width="256" height="256" fill="white"/>
</clipPath>
</defs>
</svg>
