<svg width="256" height="256" viewBox="0 0 256 256" fill="none" xmlns="http://www.w3.org/2000/svg">
<g clip-path="url(#clip0_522_14764)">
<path opacity="0.4" d="M128.275 220.181C164.424 220.181 193.73 216.518 193.73 211.999C193.73 207.48 164.424 203.817 128.275 203.817C92.1253 203.817 62.8203 207.48 62.8203 211.999C62.8203 216.518 92.1253 220.181 128.275 220.181Z" fill="#E1D6CF"/>
<path d="M142.671 143.883L132.59 146.254L128.51 151.32C128.51 151.32 137.238 151.09 140.227 148.803C143.217 146.516 142.671 143.893 142.671 143.893V143.883Z" fill="#867559"/>
<path d="M116.844 150.65C116.844 150.65 97.7104 154.594 80.7899 144.324C72.3034 138.618 67.1423 128.558 67.3101 115.907C63.2819 108.721 53.7465 95.1784 62.9148 76.0864C70.9082 61.1695 82.9613 59.124 82.9613 59.124C82.9613 59.124 96.6719 47.0499 117.17 47.8157C137.657 48.5814 151.944 53.7321 160.389 66.509C165.613 75.3626 164.417 85.5485 159.13 87.1115C159.424 89.22 159.696 91.2761 159.696 91.2761C159.696 91.2761 168.791 99.4688 169.337 111.585C169.882 123.701 164.564 129.816 152.647 138.523C140.73 147.23 116.844 150.639 116.844 150.639V150.65Z" fill="white"/>
<path d="M157.924 81.8125C159.54 84.9176 159.707 89.4912 160.033 91.2116C161.617 93.7397 169.159 101.125 169.4 112.454C169.641 123.773 162.225 135.123 143.92 143.326C143.92 143.326 133.042 147.533 128.961 148.026" stroke="#7C6656" stroke-width="2.5" stroke-linecap="round" stroke-linejoin="round"/>
<path d="M120.946 149.252C108.095 151.917 93.3043 151.141 82.6778 145.182C73.8556 140.231 69.2085 133.066 67.3203 115.055" stroke="#7C6656" stroke-width="2.5" stroke-linecap="round" stroke-linejoin="round"/>
<g filter="url(#filter0_f_522_14764)">
<path d="M151.918 116.094C157.347 115.011 161.24 111.56 160.613 108.385C159.986 105.21 155.076 103.515 149.647 104.597C144.218 105.68 140.325 109.132 140.952 112.307C141.579 115.481 146.489 117.177 151.918 116.094Z" fill="#F5B0B0"/>
</g>
<g filter="url(#filter1_f_522_14764)">
<path d="M100.15 128.003C105.579 126.92 109.472 123.469 108.845 120.294C108.218 117.119 103.309 115.423 97.8793 116.506C92.4501 117.589 88.5572 121.04 89.1843 124.215C89.8114 127.39 94.721 129.086 100.15 128.003Z" fill="#F5B0B0"/>
</g>
<path d="M66.7332 115.171C43.9068 72.6967 83.2971 59.0596 83.2971 59.0596C107.655 38.6564 142.786 52.0942 142.786 52.0942C142.786 52.0942 168.34 61.1786 163.19 83.9945" stroke="#7C6656" stroke-width="2.5" stroke-linecap="round" stroke-linejoin="round"/>
<path d="M91.4902 73.0752C91.4902 73.0752 94.3121 87.7403 119.551 87.6249" stroke="#7C6656" stroke-width="2.5" stroke-linecap="round" stroke-linejoin="round"/>
<path d="M86.2344 81.3936C86.2344 81.3936 74.6009 92.4397 74.7058 106.916" stroke="#7C6656" stroke-width="2.5" stroke-linecap="round" stroke-linejoin="round"/>
<path d="M111.105 70.6299C123.431 81.099 140.436 77.3121 140.436 77.3121" stroke="#7C6656" stroke-width="2.5" stroke-linecap="round" stroke-linejoin="round"/>
<path d="M103.806 53.0704C103.806 53.0704 98.6237 58.6092 101.372 63.3612C103.481 67.0118 106.135 67.7671 113.992 68.0608C121.838 68.3545 130.671 56.9308 132.916 46.4092C126.213 44.1644 114.013 39.5907 103.806 53.0809V53.0704Z" fill="#1AAF92"/>
<path d="M105.231 66.5704C105.231 66.5704 126.421 76.3996 133.019 45.9469C133.019 45.9469 112.133 36.4428 100.416 58.2517" stroke="#7C6656" stroke-width="2.5" stroke-linecap="round" stroke-linejoin="round"/>
<path d="M118.197 54.916C118.312 55.1153 107.035 65.6893 96.0312 61.6192" stroke="#7C6656" stroke-width="2.5" stroke-linecap="round" stroke-linejoin="round"/>
<path d="M106.093 98.4189C104.267 100.748 101.855 102.961 97.5957 103.401" stroke="#7C6656" stroke-width="2.5" stroke-linecap="round" stroke-linejoin="round"/>
<path d="M110.802 108.468C111.306 111.825 108.662 114.73 105.337 114.615C102.809 114.531 100.627 112.591 100.249 110.094C99.7459 106.737 102.389 103.831 105.715 103.947C108.243 104.031 110.425 105.971 110.802 108.468Z" fill="#7C6656"/>
<path d="M144.611 100.663C145.114 104.02 142.471 106.926 139.146 106.81C136.617 106.726 134.435 104.786 134.058 102.289C133.554 98.9324 136.198 96.0266 139.523 96.142C142.051 96.2259 144.233 98.1666 144.611 100.663Z" fill="#7C6656"/>
<path d="M138.139 114.627C138.139 114.627 125.855 112.843 119.498 121.529" stroke="#7C6656" stroke-width="2.5" stroke-linecap="round" stroke-linejoin="round"/>
<path d="M90.5359 206.079C90.9974 205.953 90.0848 210.474 99.4629 211.702C103.25 213.034 109.303 210.191 107.719 205.754C106.135 201.316 96.5992 198.148 96.5992 198.148L90.5254 206.079H90.5359Z" fill="white"/>
<path d="M112.427 198.547C112.427 198.547 110.622 204.097 113.696 208.198C116.769 212.3 125.183 210.611 127.774 209.079C130.365 207.548 127.574 200.908 123.273 199.124C118.972 197.341 112.427 198.547 112.427 198.547Z" fill="white"/>
<path d="M88.1122 177.179C88.1122 177.179 86.0877 197.236 91.1334 207.138C94.5846 205.166 99.7038 202.837 105.054 203.823C105.117 199.743 104.708 186.955 105.778 183.976C109.134 183.735 111.956 184.564 111.558 184.06C111.159 183.546 109.365 196.333 111.977 204.337C114.495 204.736 113.519 204.358 117.033 203.404C120.558 202.439 127.649 202.963 127.649 202.963C127.649 202.963 125.782 184.857 128.709 172.825" fill="#8FBDE2"/>
<path d="M91.9305 163.96C92.5179 161.736 84.021 189.388 91.1542 208.019C92.3186 211.05 98.9169 211.858 102.914 211.344C106.91 210.83 108.159 207.777 107.257 205.952C106.354 204.127 105.054 203.823 105.054 203.823" stroke="#7C6656" stroke-width="2.5" stroke-linecap="round" stroke-linejoin="round"/>
<path d="M105.537 202.953C104.278 196.208 105.348 186.63 105.778 183.976C105.778 183.976 113.96 183.515 116.278 182.696" stroke="#7C6656" stroke-width="2.5" stroke-linecap="round" stroke-linejoin="round"/>
<path d="M105.055 203.823C105.055 203.823 97.0617 202.616 91.1348 207.138" stroke="#7C6656" stroke-width="2.5" stroke-linecap="round" stroke-linejoin="round"/>
<path d="M111.171 183.546C110.594 188.308 110.332 200.393 112.86 207.012C114.024 210.044 120.623 210.852 124.619 210.338C128.616 209.834 129.864 206.771 128.962 204.946C128.06 203.12 126.759 202.816 126.759 202.816" stroke="#7C6656" stroke-width="2.5" stroke-linecap="round" stroke-linejoin="round"/>
<path d="M128.498 173.601C128.068 176.255 125.981 195.2 127.25 201.945" stroke="#7C6656" stroke-width="2.5" stroke-linecap="round" stroke-linejoin="round"/>
<path d="M127.649 202.953C127.649 202.953 119.519 200.036 112.564 206.194" stroke="#7C6656" stroke-width="2.5" stroke-linecap="round" stroke-linejoin="round"/>
<path d="M128.08 195.19C128.08 195.19 133.86 196.659 132.927 194.309C131.993 191.97 136.714 192.169 139.609 192.305C142.504 192.442 148.2 185.455 148.987 184.018C145.767 183.21 138.686 179.99 132.749 171.262C136.798 168.923 151.725 165.367 139.431 151.499C138.445 150.293 141.413 149.579 141.413 149.579C141.413 149.579 154.232 145.236 165.509 133.834C159.33 128.389 152.344 121.592 152.197 117.889C148.966 130.33 145.295 142.97 132.591 151.289C133.766 153.062 119.363 158.727 120.024 165.556C120.685 172.385 127.661 183.525 127.661 183.525L128.217 188.697L128.091 195.169L128.08 195.19Z" fill="#D6C19C"/>
<path d="M126.055 169.803C126.076 171.041 125.1 172.058 123.863 172.079C122.625 172.1 121.607 171.125 121.586 169.887C121.565 168.649 122.541 167.632 123.779 167.611C125.017 167.59 126.034 168.565 126.055 169.803Z" fill="#A7AAA0" stroke="#7C6656" stroke-width="2.5" stroke-linecap="round" stroke-linejoin="round"/>
<path d="M131.091 147.596C130.461 149.694 128.752 152.379 121.555 153.313C115.345 154.121 109.744 151.121 107.037 147.155" stroke="#7C6656" stroke-width="2.5" stroke-linecap="round" stroke-linejoin="round"/>
<path d="M165.508 133.855C165.508 133.855 155.365 127.256 152.396 116.389C152.396 116.389 149.836 141.984 132.58 151.321C141.727 149.81 150.822 148.897 165.508 133.855Z" stroke="#7C6656" stroke-width="2.5" stroke-linecap="round" stroke-linejoin="round"/>
<path d="M86.5394 146.904C79.7208 146.243 64.0801 133.13 64.0801 133.13C64.0801 133.13 79.5949 117.08 85.805 99.583C85.805 99.583 95.6343 138.994 106.869 144.397C118.115 149.799 135.539 152.096 135.539 152.096C135.539 152.096 117.538 161.705 120.307 166.541C120.307 166.541 132.769 188.277 132.045 188.119C131.322 187.962 118.817 190.112 122.09 196.921C125.363 203.729 105.673 198.053 97.019 197.393C88.3646 196.732 85.2281 202.166 85.2281 202.166C77.9689 191.34 82.3014 171.671 82.3014 171.671C82.3014 171.671 75.0842 161.317 77.0144 158.002C78.9445 154.687 86.5394 146.904 86.5394 146.904Z" fill="#D6C19C"/>
<path d="M82.3014 171.661C82.3014 171.661 77.9689 191.33 85.2281 202.156C85.2281 202.156 88.3646 196.722 97.019 197.383C105.673 198.044 125.363 203.729 122.09 196.911C118.817 190.103 131.322 187.952 132.045 188.11C132.769 188.267 120.307 166.531 120.307 166.531C117.548 161.685 135.539 152.087 135.539 152.087C135.539 152.087 118.115 149.789 106.869 144.387C95.6238 138.984 85.805 99.5732 85.805 99.5732C79.5949 117.06 64.0801 133.121 64.0801 133.121C64.0801 133.121 79.7208 146.233 86.5394 146.894" stroke="#7C6656" stroke-width="2.5" stroke-linecap="round" stroke-linejoin="round"/>
<path d="M89.9168 144.701C89.9168 144.701 76.5419 153.618 77.0245 159.765C77.507 165.912 85.6893 174.598 85.6893 174.598" stroke="#7C6656" stroke-width="2.5" stroke-linecap="round" stroke-linejoin="round"/>
<path d="M94.238 157.688C94.238 157.688 91.8462 160.164 92.57 161.391C93.2939 162.619 96.3465 164.801 96.3465 164.801" stroke="#7C6656" stroke-width="2.5" stroke-linecap="round" stroke-linejoin="round"/>
<path d="M94.0605 145.509C94.0605 145.509 112.408 156.45 117.453 164.412" stroke="#7C6656" stroke-width="2.5" stroke-linecap="round" stroke-linejoin="round"/>
<path d="M112.491 169.803C112.512 171.041 111.536 172.058 110.298 172.079C109.06 172.1 108.043 171.125 108.022 169.887C108.001 168.649 108.976 167.632 110.214 167.611C111.452 167.59 112.47 168.565 112.491 169.803Z" fill="#A7AAA0" stroke="#7C6656" stroke-width="2.5" stroke-linecap="round" stroke-linejoin="round"/>
<path d="M116.311 180.378C116.332 181.616 115.356 182.634 114.118 182.655C112.881 182.676 111.863 181.7 111.842 180.462C111.821 179.224 112.797 178.207 114.035 178.186C115.272 178.165 116.29 179.14 116.311 180.378Z" fill="#A7AAA0" stroke="#7C6656" stroke-width="2.5" stroke-linecap="round" stroke-linejoin="round"/>
<path d="M95.5281 163.772C95.5281 163.772 100.605 161.286 97.9723 169.972C95.3393 178.658 97.9723 187.627 97.9723 187.627L104.623 184.868C104.623 184.868 103.574 175.395 104.235 172.584C105.284 168.136 106.039 162.891 104.193 162.042C102.347 161.202 100.469 159.304 93.6504 161.276" fill="#B19975"/>
<path d="M95.5281 163.772C95.5281 163.772 100.605 161.286 97.9723 169.972C95.3393 178.658 97.9723 187.627 97.9723 187.627L104.623 184.868C104.623 184.868 103.574 175.395 104.235 172.584C105.284 168.136 106.039 162.891 104.193 162.042C102.347 161.202 100.469 159.304 93.6504 161.276" stroke="#7C6656" stroke-width="2.5" stroke-linecap="round" stroke-linejoin="round"/>
<path d="M132.969 162.166C132.969 162.166 130.168 167.799 131.458 169.53C132.749 171.261 141.372 183.65 148.987 184.038C148.987 184.038 143.27 192.954 138.791 192.304C134.322 191.654 132.361 192.482 132.917 194.318C133.473 196.154 127.168 195.661 127.168 195.661" stroke="#7C6656" stroke-width="2.5" stroke-linecap="round" stroke-linejoin="round"/>
<path d="M138.453 150.303C138.453 150.303 145.061 157.667 142.921 162.744C141.002 167.297 132.746 171.272 132.746 171.272" stroke="#7C6656" stroke-width="2.5" stroke-linecap="round" stroke-linejoin="round"/>
<path d="M99.6718 163.688C99.6718 163.688 95.9793 172.699 84.1465 175.805" stroke="#7C6656" stroke-width="2.5" stroke-linecap="round" stroke-linejoin="round"/>
<path d="M85.5117 202.731C85.5117 202.731 86.9803 201.651 89.3091 202.081" stroke="#7C6656" stroke-width="2.5" stroke-linecap="round" stroke-linejoin="round"/>
<path d="M130.9 167.612C130.9 167.612 136.88 169.06 136.649 169.847C136.418 170.644 133.145 181.228 140.845 182.666L133.764 186.505C133.764 186.505 130.177 181.323 131.708 173.225C131.708 173.225 132.306 169.354 131.456 169.532C130.617 169.71 130.89 167.612 130.89 167.612H130.9Z" fill="#B19975" stroke="#7C6656" stroke-width="2.5" stroke-linecap="round" stroke-linejoin="round"/>
<path d="M115.533 185.391C115.533 185.391 119.089 197.328 121.575 198.136L115.533 185.391Z" fill="#A7AAA0"/>
<path d="M115.533 185.391C115.533 185.391 119.089 197.328 121.575 198.136" stroke="#7C6656" stroke-width="2.5" stroke-linecap="round" stroke-linejoin="round"/>
<path d="M92.4336 183.546C92.4336 183.546 94.4582 195.599 96.21 197.015L92.4336 183.546Z" fill="#A7AAA0"/>
<path d="M92.4336 183.546C92.4336 183.546 94.4582 195.599 96.21 197.015" stroke="#7C6656" stroke-width="2.5" stroke-linecap="round" stroke-linejoin="round"/>
<path d="M149.952 199.512C149.952 199.512 164.355 203.666 170.019 192.693C170.397 191.948 170.659 191.193 170.848 190.417C172.243 184.731 169.075 178.741 169.075 178.741C169.075 178.741 169.359 184.395 168.792 183.913C168.226 183.43 167.858 182.318 167.858 182.318C167.858 182.318 166.799 188.759 165.823 190.207C164.848 191.655 160.085 191.602 158.858 190.585C159.603 192.651 160.369 193.27 161.501 193.438C162.634 193.606 156.225 195.106 153.393 194.099C155.312 195.945 157.683 197.686 159.267 197.886C157.757 199.742 157.484 200.015 155.984 200.288C154.463 200.235 150.078 199.186 150.078 199.186L149.941 199.512H149.952Z" fill="#F3A15B" stroke="#7C6656" stroke-width="2" stroke-linecap="round" stroke-linejoin="round"/>
<path d="M170.628 191.213C170.628 191.213 166.401 198.524 156.131 195.629" stroke="#7C6656" stroke-width="2" stroke-linecap="round" stroke-linejoin="round"/>
<path d="M162.256 192.221C162.256 192.221 166.378 194.435 170.795 190.899" stroke="#7C6656" stroke-width="2" stroke-linecap="round" stroke-linejoin="round"/>
<path d="M166.422 190.762C166.422 190.762 169.821 189.849 171.069 185.244" stroke="#7C6656" stroke-width="2" stroke-linecap="round" stroke-linejoin="round"/>
<path d="M185.881 163.939C185.881 163.939 187.958 168.816 193.77 169.75C193.696 169.351 193.665 168.428 193.665 168.428C193.665 168.428 196.77 168.848 197.808 168.344C196.696 167.851 196.004 166.551 196.004 166.551C196.004 166.551 199.801 166.246 200.966 165.512C200.043 165.04 199.959 164.904 199.959 164.904C199.959 164.904 202.518 163.267 203.001 162.512C202.256 162.134 199.172 160.928 199.046 160.718C201.763 159.312 202.225 156.774 202.413 156.365C201.805 156.407 200.777 156.48 200.777 156.48C200.777 156.48 201.836 153.868 202.246 152.085C200.148 152.232 198.354 153.113 198.354 153.113C198.354 153.113 199.067 151.55 198.249 151.707C197.431 151.864 194.294 152.871 193.717 153.27C193.717 153.27 193.277 152.127 193.854 151.76C193.287 151.875 192.479 152.116 192.479 152.116C192.479 152.116 192.217 150.301 192.647 149.84C192.647 149.84 190.276 150.69 189.962 151.676C189.804 150.973 189.857 150.249 189.857 150.249C189.857 150.249 187.434 152.315 187.087 155.022C186.857 153.753 187.087 152.987 187.087 152.987C187.087 152.987 184.937 153.648 184.664 156.197C184.664 156.197 184.465 155.777 184.444 155.389C184.444 155.389 183.196 160.382 185.797 163.729" fill="#F3A15B"/>
<path d="M185.881 163.939C185.881 163.939 187.958 168.816 193.77 169.75C193.696 169.351 193.665 168.428 193.665 168.428C193.665 168.428 196.77 168.848 197.808 168.344C196.696 167.851 196.004 166.551 196.004 166.551C196.004 166.551 199.801 166.246 200.966 165.512C200.043 165.04 199.959 164.904 199.959 164.904C199.959 164.904 202.518 163.267 203.001 162.512C202.256 162.134 199.172 160.928 199.046 160.718C201.763 159.312 202.225 156.774 202.413 156.365C201.805 156.407 200.777 156.48 200.777 156.48C200.777 156.48 201.836 153.868 202.246 152.085C200.148 152.232 198.354 153.113 198.354 153.113C198.354 153.113 199.067 151.55 198.249 151.707C197.431 151.864 194.294 152.871 193.717 153.27C193.717 153.27 193.277 152.127 193.854 151.76C193.287 151.875 192.479 152.116 192.479 152.116C192.479 152.116 192.217 150.301 192.647 149.84C192.647 149.84 190.276 150.69 189.962 151.676C189.804 150.973 189.857 150.249 189.857 150.249C189.857 150.249 187.434 152.315 187.087 155.022C186.857 153.753 187.087 152.987 187.087 152.987C187.087 152.987 184.937 153.648 184.664 156.197C184.664 156.197 184.465 155.777 184.444 155.389C184.444 155.389 183.196 160.382 185.797 163.729" stroke="#7C6656" stroke-width="2" stroke-linecap="round" stroke-linejoin="round"/>
<path d="M185.891 163.888C185.891 163.888 183.887 164.57 181.506 164.265" stroke="#7C6656" stroke-width="2" stroke-linecap="round" stroke-linejoin="round"/>
<path d="M200.619 153.722C200.619 153.722 194.724 160.74 185.881 163.939" stroke="#7C6656" stroke-width="2" stroke-linecap="round" stroke-linejoin="round"/>
<path d="M199.779 162.943C199.779 162.943 195.352 164.223 190.705 161.862" stroke="#7C6656" stroke-width="2" stroke-linecap="round" stroke-linejoin="round"/>
<path d="M188.628 162.785C188.628 162.785 187.463 159.879 187.841 156.963" stroke="#7C6656" stroke-width="2" stroke-linecap="round" stroke-linejoin="round"/>
<path d="M193.055 160.005C193.055 160.005 191.776 156.774 192.562 153.187" stroke="#7C6656" stroke-width="2" stroke-linecap="round" stroke-linejoin="round"/>
<path d="M199.476 158.726C199.476 158.726 196.581 159.335 195.584 158.433" stroke="#7C6656" stroke-width="2" stroke-linecap="round" stroke-linejoin="round"/>
</g>
<defs>
<filter id="filter0_f_522_14764" x="138.885" y="102.271" width="23.7949" height="16.1509" filterUnits="userSpaceOnUse" color-interpolation-filters="sRGB">
<feFlood flood-opacity="0" result="BackgroundImageFix"/>
<feBlend mode="normal" in="SourceGraphic" in2="BackgroundImageFix" result="shape"/>
<feGaussianBlur stdDeviation="1" result="effect1_foregroundBlur_522_14764"/>
</filter>
<filter id="filter1_f_522_14764" x="87.1172" y="114.179" width="23.7949" height="16.1509" filterUnits="userSpaceOnUse" color-interpolation-filters="sRGB">
<feFlood flood-opacity="0" result="BackgroundImageFix"/>
<feBlend mode="normal" in="SourceGraphic" in2="BackgroundImageFix" result="shape"/>
<feGaussianBlur stdDeviation="1" result="effect1_foregroundBlur_522_14764"/>
</filter>
<clipPath id="clip0_522_14764">
<rect width="256" height="256" fill="white"/>
</clipPath>
</defs>
</svg>
