<svg width="256" height="256" viewBox="0 0 256 256" fill="none" xmlns="http://www.w3.org/2000/svg">
<g clip-path="url(#clip0_522_15337)">
<path d="M146.075 112.854L136.475 115.254L135.675 116.054L140.475 118.054L148.075 119.654L154.875 119.254L160.875 118.054L169.275 116.854L174.475 117.654L178.475 119.254L180.875 122.454V127.654L179.275 132.054L175.675 133.254L172.075 132.854L167.675 130.454L162.075 132.054L155.675 133.254H149.675L144.075 132.854L140.075 131.254V145.654L137.275 146.454L132.875 160.854L131.275 169.654L131.675 174.054L133.675 177.654V179.254L132.075 181.254H126.475L122.475 180.054L118.875 177.654L118.075 175.654L117.675 164.854L118.075 154.454L111.675 152.854L109.275 156.454L106.875 158.454L102.475 159.654H97.275L90.475 157.254L86.875 158.854L83.275 158.054L80.875 155.254L80.475 150.454L81.275 147.654L84.075 144.854L86.875 144.054L89.675 144.454L94.475 146.454L97.275 147.254L98.075 140.054L99.275 131.654L90.075 133.254L80.875 131.254L74.875 128.054L70.875 123.254L68.475 122.854L64.075 120.054L62.875 118.054L71.275 113.254L75.275 110.454L76.075 112.454V115.654L76.475 117.254L78.875 118.454L82.475 120.054L88.475 121.254L93.275 119.654L97.275 117.254L101.275 114.454L94.075 112.454L86.075 108.454L78.875 102.454L74.875 93.2541L74.475 80.4541L70.875 68.0541L70.475 56.8541C70.875 54.7208 71.675 50.3741 71.675 50.0541C71.675 49.7341 73.0083 46.7208 73.675 45.2541L79.275 39.2541L86.475 33.6541L95.275 30.0541H97.675L108.075 24.4541L117.675 22.4541L128.475 23.2541L142.075 26.0541L154.475 32.4541L164.475 43.6541L167.275 52.4541L166.475 62.0541L161.675 70.0541L165.675 76.8541L167.675 85.2541L166.075 94.8541L161.675 102.454L153.675 108.854L146.075 112.854Z" fill="white"/>
<path d="M99.762 114.842C99.762 114.842 91.506 123.962 83.3364 120.88C76.9332 118.461 75.9924 116.099 75.9924 116.099C75.9924 116.099 76.8277 110.647 72.6613 108.832C68.4949 107.008 63.8004 109.85 62.946 113.834C62.1012 117.818 63.9349 122.531 70.0116 122.656C70.0116 122.656 77.6436 136.931 99.282 131.978" stroke="#7C6656" stroke-width="2.5" stroke-linecap="round" stroke-linejoin="round"/>
<path d="M90.7656 120.899C90.7656 120.899 90.7368 125.92 94.596 131.479" stroke="#7C6656" stroke-width="2.5" stroke-linecap="round" stroke-linejoin="round"/>
<path d="M208.999 192.794C209.143 194.08 209.143 196.95 209.105 199.494C209.066 202.346 207.396 204.928 204.804 206.147L146.782 233.373C144.391 234.496 141.588 234.275 139.399 232.787L52.7015 173.766C50.6567 172.374 49.4375 170.061 49.4375 167.584V165.952C49.4375 162.899 51.2999 160.144 54.1319 159.011L108.026 137.44C110.033 136.634 112.298 136.778 114.199 137.834C130.586 146.944 208.759 190.499 209.009 192.794H208.999Z" fill="#BBB5AF" stroke="#7C6656" stroke-width="2.5" stroke-linecap="round" stroke-linejoin="round"/>
<path d="M207.954 193.465C207.954 193.465 147.205 224.464 142.837 222.716C138.469 220.969 53.6816 165.088 53.6816 165.088" stroke="#7C6656" stroke-width="2.5" stroke-linecap="round" stroke-linejoin="round"/>
<path d="M202.242 192.592C202.242 192.592 146.543 220.105 143.394 218.358C140.246 216.611 57.0521 163.12 57.0521 163.12C57.0521 163.12 55.7465 161.373 59.2313 159.846C62.7257 158.32 109.161 140.339 109.161 140.339C109.161 140.339 111.042 139.609 112.646 140.339C114.249 141.069 199.18 189.318 199.18 189.318" fill="#E8F0E1"/>
<path d="M202.242 192.592C202.242 192.592 146.543 220.105 143.394 218.358C140.246 216.611 57.0521 163.12 57.0521 163.12C57.0521 163.12 55.7465 161.373 59.2313 159.846C62.7257 158.32 109.161 140.339 109.161 140.339C109.161 140.339 111.042 139.609 112.646 140.339C114.249 141.069 199.18 189.318 199.18 189.318" stroke="#7C6656" stroke-width="2.5" stroke-linecap="round" stroke-linejoin="round"/>
<path d="M168.995 204.822C170.082 204.822 170.963 203.941 170.963 202.854C170.963 201.767 170.082 200.886 168.995 200.886C167.908 200.886 167.027 201.767 167.027 202.854C167.027 203.941 167.908 204.822 168.995 204.822Z" stroke="#7C6656" stroke-width="2.5" stroke-linecap="round" stroke-linejoin="round"/>
<path d="M103.235 116.465C103.235 116.465 100.672 135.962 97.0719 145.005C96.3231 147.953 93.9327 146.253 92.9535 145.869C91.9743 145.476 84.7647 141.895 80.4831 148.375C76.4703 154.586 82.9119 159.396 85.8399 158.714C88.7679 158.033 90.6879 156.353 92.6847 158.148C94.6719 159.943 102.141 160.721 105.03 159.213C107.92 157.706 110.608 155.7 111.472 152.868C112.682 153.242 117.894 154.711 117.894 154.711L118.106 175.754C118.106 175.754 121.744 180.977 128.55 181.361C135.357 181.745 133.61 177.319 131.67 174.919C132.006 171.847 132.563 159.29 134.963 154.058C137.363 148.826 139.389 133.505 138.64 127.111C137.891 120.727 136.144 117.156 136.144 117.156L103.226 116.455L103.235 116.465Z" fill="white"/>
<path d="M97.8137 140.607C97.7849 142.863 96.5081 147.414 96.4985 147.452C94.7801 146.627 89.8745 144.707 89.8745 144.707C89.8745 144.707 84.8537 147.625 85.3241 151.859C85.7945 156.083 87.7529 158.137 87.7529 158.137L90.7961 157.359C90.7961 157.359 96.6425 161.324 102.105 159.855C107.567 158.387 110.706 156.179 111.897 153.02C115.91 154.623 117.897 154.729 117.897 154.729L118.262 174.745C118.262 174.745 126.316 179.055 132.374 175.311C131.366 172.815 129.926 175.446 131.759 165.097C133.286 159.308 136.262 151.868 136.146 146.358C135.974 146.838 126.671 150.025 116.255 147.337C109.823 145.676 101.385 140.444 97.7945 140.627L97.8137 140.607Z" fill="#8FBDE2"/>
<path d="M117.896 154.72C117.896 154.72 117.032 174.237 118.424 176.867C119.816 179.497 124.865 181.197 128.552 181.379C132.238 181.561 133.841 179.008 133.323 177.213C132.805 175.427 131.038 174.515 131.038 174.515" stroke="#7C6656" stroke-width="2.5" stroke-linecap="round" stroke-linejoin="round"/>
<path d="M131.48 174.102C130.482 163.705 133.611 160.182 136.798 147.645C136.904 147.213 137.01 146.781 137.115 146.349" stroke="#7C6656" stroke-width="2.5" stroke-linecap="round" stroke-linejoin="round"/>
<path d="M136.156 116.464C136.156 116.464 144.863 121.753 158.515 118.768C166.905 116.915 176.006 115.926 179.423 120.477C182.841 125.027 181.027 130.499 178.147 132.121C174.998 133.888 168.719 133.475 167.001 129.443" stroke="#7C6656" stroke-width="2.5" stroke-linecap="round" stroke-linejoin="round"/>
<path d="M167.528 130.701C167.528 130.701 156.757 135.751 140.398 131.604" stroke="#7C6656" stroke-width="2.5" stroke-linecap="round" stroke-linejoin="round"/>
<path d="M89.3945 155.431C89.3945 155.431 92.5913 160.231 101.126 159.914C109.66 159.597 111.475 152.877 111.475 152.877C111.475 152.877 117.465 155.008 122.399 154.192" stroke="#7C6656" stroke-width="2.5" stroke-linecap="round" stroke-linejoin="round"/>
<path d="M90.7756 156.861C90.7756 156.861 87.2236 159.77 83.6236 158.301C80.0236 156.832 78.0748 151.13 81.0892 147.51C83.086 145.11 86.0236 143.642 89.3932 144.563C91.2268 145.062 95.8828 147.107 95.8828 147.107" stroke="#7C6656" stroke-width="2.5" stroke-linecap="round" stroke-linejoin="round"/>
<path d="M99.7518 127.12C99.7518 127.12 98.955 135.386 98.1486 138.842C97.3518 142.307 97.035 148.567 94.9902 150.17" stroke="#7C6656" stroke-width="2.5" stroke-linecap="round" stroke-linejoin="round"/>
<path d="M183.713 152.982C183.713 161.344 177.31 167.181 169.409 166.01C161.509 164.838 155.105 157.11 155.105 148.749C155.105 140.387 161.509 134.55 169.409 135.722C177.31 136.893 183.713 144.621 183.713 152.982Z" fill="#FFF9C7" stroke="#7C6656" stroke-width="2.5" stroke-linecap="round" stroke-linejoin="round"/>
<path d="M175.074 146.704L172.252 156.285L169.43 145.869" stroke="#7C6656" stroke-width="2.5" stroke-linecap="round" stroke-linejoin="round"/>
<path d="M169.256 145.85L166.434 155.421L163.621 145.015" stroke="#7C6656" stroke-width="2.5" stroke-linecap="round" stroke-linejoin="round"/>
<path d="M176.129 150.851L162.67 148.854" stroke="#7C6656" stroke-width="2.5" stroke-linecap="round" stroke-linejoin="round"/>
<path d="M75.1183 93.2608C79.9567 100.086 78.3439 109.542 71.5183 114.371C64.6927 119.21 55.2367 117.597 50.4079 110.771C45.5695 103.946 47.1823 94.4896 54.0079 89.6608C60.8335 84.8224 70.2895 86.4352 75.1183 93.2608Z" fill="#FFF9C7" stroke="#7C6656" stroke-width="2.5" stroke-linecap="round" stroke-linejoin="round"/>
<path d="M64.7694 94.4707L68.1102 104.349L59.8926 97.9267" stroke="#7C6656" stroke-width="2.5" stroke-linecap="round" stroke-linejoin="round"/>
<path d="M59.7479 98.0312L63.0887 107.91L54.8711 101.487" stroke="#7C6656" stroke-width="2.5" stroke-linecap="round" stroke-linejoin="round"/>
<path d="M67.9946 97.0811L56.3594 105.318" stroke="#7C6656" stroke-width="2.5" stroke-linecap="round" stroke-linejoin="round"/>
<path d="M166.347 186.055C166.347 186.055 166.606 180.084 163.438 175.495C160.27 170.906 155.259 168.986 151.736 170.484C148.213 171.981 150.238 176.493 155.47 178.02C160.693 179.546 164.965 181.255 166.347 186.055Z" fill="white" stroke="#7C6656" stroke-width="2.5" stroke-linecap="round" stroke-linejoin="round"/>
<path d="M174.756 186.764C174.756 186.764 175.524 178.268 180.487 172.307C185.46 166.355 192.333 164.483 196.634 167.199C200.935 169.907 197.469 175.955 190.385 177.231C183.3 178.508 177.434 180.198 174.746 186.764H174.756Z" fill="white" stroke="#7C6656" stroke-width="2.5" stroke-linecap="round" stroke-linejoin="round"/>
<g filter="url(#filter0_f_522_15337)">
<path d="M152.333 91.3365C156.973 91.0263 160.588 88.554 160.407 85.8145C160.226 83.075 156.317 81.1056 151.676 81.4158C147.035 81.7261 143.42 84.1984 143.602 86.9379C143.783 89.6774 147.692 91.6467 152.333 91.3365Z" fill="#F5B0B0"/>
</g>
<g filter="url(#filter1_f_522_15337)">
<path d="M104.184 95.9625C108.825 95.6523 112.44 93.18 112.259 90.4405C112.077 87.7009 108.168 85.7316 103.528 86.0418C98.887 86.352 95.272 88.8243 95.4533 91.5638C95.6346 94.3034 99.5436 96.2727 104.184 95.9625Z" fill="#F5B0B0"/>
</g>
<path d="M114.775 79.3895C115.053 82.0775 113.095 84.4679 110.407 84.7463C107.719 85.0247 105.328 83.0663 105.05 80.3783C104.771 77.6903 106.73 75.2999 109.418 75.0215C112.106 74.7431 114.496 76.7015 114.775 79.3895Z" fill="#7C6656"/>
<path d="M138.353 84.6209C138.353 84.6209 132.516 87.0977 129.463 82.8545C129.463 82.8545 128.35 88.8833 120.43 88.1153" stroke="#7C6656" stroke-width="2.5" stroke-linecap="round" stroke-linejoin="round"/>
<path d="M136.155 85.5137C136.155 85.5137 142.001 99.9137 132.795 101.882C124.808 103.59 123.166 88.1729 123.166 88.1729" stroke="#7C6656" stroke-width="2.5" stroke-linecap="round" stroke-linejoin="round"/>
<path d="M146.908 72.5244L139.891 78.5436L148.079 77.6028" stroke="#7C6656" stroke-width="2.5" stroke-linecap="round" stroke-linejoin="round"/>
<path d="M110.426 116.464C110.426 116.464 114.803 122.032 123.578 121.801C132.352 121.571 133.159 117.04 133.159 117.04" stroke="#7C6656" stroke-width="2.5" stroke-linecap="round" stroke-linejoin="round"/>
<path d="M145.189 119.315C145.189 119.315 146.821 126.976 142.309 131.968" stroke="#7C6656" stroke-width="2.5" stroke-linecap="round" stroke-linejoin="round"/>
<path d="M87.7417 158.128C87.7417 158.128 80.7145 151.072 89.3065 145.581" stroke="#7C6656" stroke-width="2.5" stroke-linecap="round" stroke-linejoin="round"/>
<path d="M132.201 175.265C132.201 175.265 129.043 178.855 118.387 175.265" stroke="#7C6656" stroke-width="2.5" stroke-linecap="round" stroke-linejoin="round"/>
<path d="M138.374 123.991C138.086 123.568 140.87 131.968 139.891 145.879H139.315C139.315 145.879 132.009 147.885 120.086 147.175C108.163 146.464 103.104 140.599 97.8047 140.618" stroke="#7C6656" stroke-width="2.5" stroke-linecap="round" stroke-linejoin="round"/>
<path d="M161.278 60.4961C162.325 63.5201 161.874 67.6865 161.941 69.2801C163.035 71.7857 168.882 79.4753 167.595 89.7569C166.309 100.039 158.082 109.332 140.418 114.324C140.418 114.324 130.011 116.685 126.248 116.589" stroke="#7C6656" stroke-width="2.5" stroke-linecap="round" stroke-linejoin="round"/>
<path d="M118.827 116.637C106.837 117.338 93.5503 114.678 84.7183 107.862C77.3839 102.208 74.1295 95.1039 74.8111 78.5439" stroke="#7C6656" stroke-width="2.5" stroke-linecap="round" stroke-linejoin="round"/>
<path d="M73.8316 78.5435C58.8172 37.0619 97.2748 29.9387 97.2748 29.9387C122.494 13.0811 151.457 30.6875 151.457 30.6875C151.457 30.6875 173.134 43.5707 165.435 63.5387" stroke="#7C6656" stroke-width="2.5" stroke-linecap="round" stroke-linejoin="round"/>
<path d="M100.741 42.3037C100.741 42.3037 99.7612 55.9453 122.11 61.8109" stroke="#7C6656" stroke-width="2.5" stroke-linecap="round" stroke-linejoin="round"/>
<path d="M96.4195 50.5791C96.4195 50.5791 84.4195 59.0367 82.5859 72.1599" stroke="#7C6656" stroke-width="2.5" stroke-linecap="round" stroke-linejoin="round"/>
<path d="M145.401 60.592C145.401 60.592 129.82 57.2128 123.59 43.792" stroke="#7C6656" stroke-width="2.5" stroke-linecap="round" stroke-linejoin="round"/>
<path d="M119.875 35.8808C138.854 23.5064 151.459 40.3064 151.459 40.3064C132.796 61.8584 120.095 44.6648 120.095 44.6648C120.095 44.6648 118.195 43.5896 118.291 39.7208C118.339 37.6856 119.875 35.8712 119.875 35.8712V35.8808Z" fill="#1AAF92"/>
<path d="M120.094 44.6648C120.094 44.6648 132.795 61.8584 151.457 40.3064C151.457 40.3064 138.852 23.5064 119.873 35.8808" stroke="#7C6656" stroke-width="2.5" stroke-linecap="round" stroke-linejoin="round"/>
<path d="M135.617 40.9972C135.617 41.2084 121.927 44.7508 114.871 36.6484" stroke="#7C6656" stroke-width="2.5" stroke-linecap="round" stroke-linejoin="round"/>
</g>
<defs>
<filter id="filter0_f_522_15337" x="141.127" y="78.9152" width="21.7555" height="14.922" filterUnits="userSpaceOnUse" color-interpolation-filters="sRGB">
<feFlood flood-opacity="0" result="BackgroundImageFix"/>
<feBlend mode="normal" in="SourceGraphic" in2="BackgroundImageFix" result="shape"/>
<feGaussianBlur stdDeviation="1.23429" result="effect1_foregroundBlur_522_15337"/>
</filter>
<filter id="filter1_f_522_15337" x="92.9787" y="83.5412" width="21.7555" height="14.922" filterUnits="userSpaceOnUse" color-interpolation-filters="sRGB">
<feFlood flood-opacity="0" result="BackgroundImageFix"/>
<feBlend mode="normal" in="SourceGraphic" in2="BackgroundImageFix" result="shape"/>
<feGaussianBlur stdDeviation="1.23429" result="effect1_foregroundBlur_522_15337"/>
</filter>
<clipPath id="clip0_522_15337">
<rect width="256" height="256" fill="white"/>
</clipPath>
</defs>
</svg>
