<svg width="256" height="256" viewBox="0 0 256 256" fill="none" xmlns="http://www.w3.org/2000/svg">
<g clip-path="url(#clip0_522_15388)">
<path opacity="0.4" d="M128 224C167.765 224 200 219.971 200 215C200 210.029 167.765 206 128 206C88.2355 206 56 210.029 56 215C56 219.971 88.2355 224 128 224Z" fill="#E1D6CF"/>
<path d="M140.598 140.741C140.598 140.741 153.287 137.723 163.012 148.794C172.727 159.865 168.774 170.41 163.507 173.333C160.153 175.183 154.202 174.91 152.835 171.356C151.469 167.803 152.531 164.68 155.842 162.451" stroke="#7C6656" stroke-width="2.5" stroke-linecap="round" stroke-linejoin="round"/>
<path d="M155.254 162.347C155.254 162.347 153.582 152.37 146.686 152.265" stroke="#7C6656" stroke-width="2.5" stroke-linecap="round" stroke-linejoin="round"/>
<path d="M152.94 141.813C152.94 141.813 152.982 146.429 149.281 152.264" stroke="#7C6656" stroke-width="2.5" stroke-linecap="round" stroke-linejoin="round"/>
<path d="M99 203L101.5 199L103 175L104.5 170L146 173.5L146.5 176.5L145 186C144.833 189.333 144.5 196.1 144.5 196.5C144.5 196.9 144.833 199.333 145 200.5L146 202L146.5 204L145.5 207.5C144.167 207.833 141.4 208.5 141 208.5C140.6 208.5 136.833 207.833 135 207.5L132 205.5L130 202L129.5 194V181.5L120.5 181L116.5 198.5L115 202.5L113 206.5L107 208.5L102.5 208L100 206L99 203Z" fill="white"/>
<path d="M101.004 191.785C100.132 196.768 100.468 201.772 100.468 201.772C100.468 201.772 105.315 208.354 115.45 203.959C117.437 194.245 119.634 181.912 119.634 181.912L129.149 182.154C129.149 182.154 128.297 198.618 130.978 205.305C136.782 205.599 141.576 206.556 145.024 202.403C144.604 197.83 145.35 193.214 146.749 183.405C148.147 173.596 149.114 174.69 147.884 173.459C134.879 177.665 101.625 172.492 101.625 172.492C101.625 172.492 101.257 190.365 101.004 191.795V191.785Z" fill="#8FBDE2"/>
<path d="M101.625 172.481C101.625 175.099 101.447 181.439 101.436 184.635C101.394 194.497 100.469 201.762 100.469 201.762C100.469 201.762 103.791 206.913 115.451 203.948" stroke="#7C6656" stroke-width="2.5" stroke-linecap="round" stroke-linejoin="round"/>
<path d="M99.911 202.351C98.7966 202.95 97.5034 203.96 97.3878 205.442C97.1775 208.07 98.334 211.351 105.273 210.856C112.201 210.362 115.723 206.136 116.712 199.176C117.71 192.226 119.624 181.902 119.624 181.902C119.624 181.902 130.779 182.88 133.491 181.355" stroke="#7C6656" stroke-width="2.5" stroke-linecap="round" stroke-linejoin="round"/>
<path d="M129.139 182.143C129.139 182.143 129.212 203.285 130.873 206.092C132.535 208.899 138.149 210.487 142.186 210.498C146.223 210.498 147.853 207.617 147.19 205.693C146.854 204.726 146.202 204.021 145.624 203.559" stroke="#7C6656" stroke-width="2.5" stroke-linecap="round" stroke-linejoin="round"/>
<path d="M145.655 144.989C145.655 144.989 149.671 157.153 148.367 171.263C147.064 185.382 143.363 191.07 145.003 202.393C145.003 202.393 143.058 206.798 130.957 205.295" stroke="#7C6656" stroke-width="2.5" stroke-linecap="round" stroke-linejoin="round"/>
<path d="M103.832 148.164C103.832 148.164 99.6165 160.35 98.9121 171.273C98.9121 171.273 134.259 179.064 150.481 173.67C150.481 173.67 149.062 152.496 145.666 144.989" fill="white"/>
<path d="M103.832 148.164C103.832 148.164 99.6165 160.35 98.9121 171.273C98.9121 171.273 134.259 179.064 150.481 173.67C150.481 173.67 149.062 152.496 145.666 144.989" stroke="#7C6656" stroke-width="2.5" stroke-linecap="round" stroke-linejoin="round"/>
<path d="M138.967 139.154C138.389 141.267 135.414 145.609 128.528 145.967C118.487 146.482 114.576 137.482 114.608 136.673" stroke="#7C6656" stroke-width="2.5" stroke-linecap="round" stroke-linejoin="round"/>
<path d="M144.341 141.394C144.341 141.394 113.431 138.618 105.293 131.69C97.1665 126.99 88.5769 125.76 83.0363 109.517C79.2725 97.6262 84.9288 84.2109 84.9288 84.2109C84.9288 84.2109 81.8903 70.8378 87.7043 57.5171C93.5183 44.186 105.882 40.9268 120.601 39.0133C132.313 37.1524 143.783 35.4598 161.236 43.9337C178.688 52.4181 187.236 63.4888 188.981 70.1439C190.726 76.7989 190.937 96.1438 181.012 94.1462C180.181 97.2582 179.75 98.8247 179.75 98.8247C179.75 98.8247 183.935 108.213 181.001 119.105C178.057 129.997 167.607 140.763 144.341 141.394Z" fill="white"/>
<g filter="url(#filter0_f_522_15388)">
<path d="M160.478 116.221C165.287 116.933 169.513 115.293 169.918 112.559C170.323 109.825 166.753 107.031 161.945 106.319C157.136 105.607 152.91 107.246 152.505 109.98C152.1 112.715 155.67 115.508 160.478 116.221Z" fill="#F5B0B0"/>
</g>
<g filter="url(#filter1_f_522_15388)">
<path d="M110.252 107.608C115.06 108.32 119.286 106.681 119.691 103.946C120.096 101.212 116.526 98.4185 111.718 97.7064C106.91 96.9943 102.683 98.6335 102.279 101.368C101.874 104.102 105.443 106.896 110.252 107.608Z" fill="#F5B0B0"/>
</g>
<path d="M161.782 100.654C161.235 103.556 158.428 105.469 155.526 104.912C152.625 104.365 150.711 101.568 151.268 98.6562C151.815 95.7545 154.612 93.841 157.524 94.3983C160.426 94.945 162.339 97.7521 161.782 100.654Z" fill="#7C6656"/>
<path d="M116.838 88.9414L125.564 94.5346L117.616 94.9867" stroke="#7C6656" stroke-width="2.5" stroke-linecap="round" stroke-linejoin="round"/>
<path d="M147.053 109.664L128.181 105.868C128.181 105.868 123.85 119.473 133.028 123.079C142.206 126.685 147.526 118.926 147.043 109.664H147.053Z" fill="#F29AA0" stroke="#7C6656" stroke-width="2.5" stroke-linecap="round" stroke-linejoin="round"/>
<path d="M181.517 89.3408C181.78 92.8418 180.129 97.1208 179.751 98.824C180.213 101.778 184.24 111.556 180.003 122.09C175.756 132.614 165.011 140.331 144.909 140.668C144.909 140.668 133.228 140.247 129.275 139.091" stroke="#7C6656" stroke-width="2.5" stroke-linecap="round" stroke-linejoin="round"/>
<path d="M121.412 137.062C108.522 134.444 95.2018 127.894 87.7582 118.211C81.5763 110.169 79.5577 101.547 84.9301 84.2002" stroke="#7C6656" stroke-width="2.5" stroke-linecap="round" stroke-linejoin="round"/>
<path d="M83.9944 84.2C79.7259 36.0691 121.401 39.0444 121.401 39.0444C151.901 29.8556 178.963 56.0973 178.963 56.0973C178.963 56.0973 198.918 74.5486 185.166 93.536" stroke="#7C6656" stroke-width="2.5" stroke-linecap="round" stroke-linejoin="round"/>
<path d="M122.538 53.1104C122.538 53.1104 117.68 67.2721 139.685 79.7516" stroke="#7C6656" stroke-width="2.5" stroke-linecap="round" stroke-linejoin="round"/>
<path d="M115.64 60.6602C115.64 60.6602 100.563 66.2428 94.9492 79.6265" stroke="#7C6656" stroke-width="2.5" stroke-linecap="round" stroke-linejoin="round"/>
<path d="M164.685 84.989C164.685 84.989 149.136 77.0408 146.297 61.0918" stroke="#7C6656" stroke-width="2.5" stroke-linecap="round" stroke-linejoin="round"/>
<path d="M146.75 44.8272C146.75 44.8272 139.148 44.8693 137.582 50.1366C136.373 54.1843 137.655 56.6444 142.849 62.5635C148.043 68.4826 162.436 67.0528 171.656 61.4491C168.681 55.0148 163.613 42.9874 146.76 44.8377L146.75 44.8272Z" fill="#1AAF92"/>
<path d="M137.887 55.1618C137.887 55.1618 145.32 77.3664 172.035 61.2071C172.035 61.2071 164.581 39.4546 140.631 45.931" stroke="#7C6656" stroke-width="2.5" stroke-linecap="round" stroke-linejoin="round"/>
<path d="M155.308 56.5704C155.234 56.7912 139.769 55.8555 135.164 45.0371" stroke="#7C6656" stroke-width="2.5" stroke-linecap="round" stroke-linejoin="round"/>
<path d="M88.3037 116.75C88.3037 116.75 80.9652 107.94 75.2144 109.422C68.9062 111.041 68.5383 117.412 71.3349 120.388C73.2904 122.48 79.3462 128.346 79.3462 128.346" fill="white"/>
<path d="M88.3037 116.75C88.3037 116.75 80.9652 107.94 75.2144 109.422C68.9062 111.041 68.5383 117.412 71.3349 120.388C73.2904 122.48 79.3462 128.346 79.3462 128.346" stroke="#7C6656" stroke-width="2.5" stroke-linecap="round" stroke-linejoin="round"/>
<path d="M96.9349 127.589C96.9349 127.589 105.43 127.19 110.108 132.163C114.776 137.136 112.358 147.965 108.594 151.171C104.831 154.378 91.3628 158.993 82.0162 151.34C72.6697 143.696 77.7583 129.808 80.681 126.212C83.6038 122.617 94.4012 110.715 99.742 108.003C105.083 105.301 111.275 106.647 111.265 113.112C111.254 118.947 101.687 127.579 101.687 127.579" fill="white"/>
<path d="M96.9349 127.589C96.9349 127.589 105.43 127.19 110.108 132.163C114.776 137.136 112.358 147.965 108.594 151.171C104.831 154.378 91.3628 158.993 82.0162 151.34C72.6697 143.696 77.7583 129.808 80.681 126.212C83.6038 122.617 94.4012 110.715 99.742 108.003C105.083 105.301 111.275 106.647 111.265 113.112C111.254 118.947 101.687 127.579 101.687 127.579" stroke="#7C6656" stroke-width="2.5" stroke-linecap="round" stroke-linejoin="round"/>
<path d="M110.088 132.972C110.088 132.972 105.757 130.186 103.055 132.793" stroke="#7C6656" stroke-width="2.5" stroke-linecap="round" stroke-linejoin="round"/>
<path d="M84.509 80.4262C82.5219 77.4404 78.1063 75.8844 74.8681 79.0594C72.0295 81.8665 72.082 87.0077 75.173 90.9187C77.7909 94.241 82.0383 96.4803 86.1596 97.6263C89.976 95.7234 93.7294 92.7165 95.6533 88.9527C97.9453 84.537 97.0201 79.4484 93.6873 77.2721C89.9024 74.7594 85.8547 77.1144 84.509 80.4262Z" fill="#EE7474"/>
<path d="M75.1196 56.1814C72.9328 54.8777 69.6421 55.2352 68.5381 58.2631C67.5814 60.9335 69.19 64.1927 72.3651 65.7487C75.0565 67.0734 78.4629 67.1996 81.4382 66.6739C83.2991 64.2873 84.771 61.2174 84.8551 58.221C84.9603 54.699 82.8155 51.7342 80.0189 51.3557C76.8333 50.9036 74.9619 53.6582 75.1196 56.1814Z" fill="#EE7474"/>
</g>
<defs>
<filter id="filter0_f_522_15388" x="145.997" y="99.6752" width="30.43" height="23.1892" filterUnits="userSpaceOnUse" color-interpolation-filters="sRGB">
<feFlood flood-opacity="0" result="BackgroundImageFix"/>
<feBlend mode="normal" in="SourceGraphic" in2="BackgroundImageFix" result="shape"/>
<feGaussianBlur stdDeviation="3.23884" result="effect1_foregroundBlur_522_15388"/>
</filter>
<filter id="filter1_f_522_15388" x="95.7704" y="91.0624" width="30.43" height="23.1892" filterUnits="userSpaceOnUse" color-interpolation-filters="sRGB">
<feFlood flood-opacity="0" result="BackgroundImageFix"/>
<feBlend mode="normal" in="SourceGraphic" in2="BackgroundImageFix" result="shape"/>
<feGaussianBlur stdDeviation="3.23884" result="effect1_foregroundBlur_522_15388"/>
</filter>
<clipPath id="clip0_522_15388">
<rect width="256" height="256" fill="white"/>
</clipPath>
</defs>
</svg>
