<svg width="256" height="256" viewBox="0 0 256 256" fill="none" xmlns="http://www.w3.org/2000/svg">
<g clip-path="url(#clip0_522_15217)">
<path opacity="0.4" d="M128 229C167.765 229 200 224.971 200 220C200 215.029 167.765 211 128 211C88.2355 211 56 215.029 56 220C56 224.971 88.2355 229 128 229Z" fill="#E1D6CF"/>
<path d="M89.3857 195.563L90.4575 186.452L88.3138 185.38L83.4904 183.236L82.9545 178.413L84.5623 168.23L92.0653 146.257L97.4246 138.754L92.0653 137.683L87.2419 134.467L86.1701 130.716H84.5623L74.9156 129.644L67.4126 123.213L64.197 116.245V110.35L58.8378 108.207L53.4785 103.919L50.7988 92.6648L54.0144 83.0181L61.5174 76.0511L65.2689 74.9792L74.3797 62.1169L84.5623 51.3984L92.0653 46.575L103.856 41.2157L116.718 38.5361L131.188 39.072L139.227 40.6798H141.907L149.41 41.2157L166.559 47.1109L180.493 57.2936L191.212 70.1558L196.035 81.9463L198.179 91.593L197.107 102.311L199.787 110.35L203.002 115.71L202.467 122.141L200.323 128.036L197.643 131.787L193.356 134.467L188.532 136.075L186.389 142.506L183.173 146.793L178.35 149.473L173.526 150.545H168.167L164.416 148.937L160.128 152.153L152.625 154.296L149.41 153.76L148.338 156.44L144.586 160.728L139.763 161.263L136.011 158.584L134.404 160.728L135.475 171.982L136.547 185.916L132.26 187.524L126.901 189.668L124.757 200.922V205.745L125.293 208.425L126.901 210.033L127.437 212.713L125.829 215.392L123.149 215.928H119.934L116.182 215.392L111.359 212.177L109.215 206.817L108.679 199.85L108.143 192.347L107.071 192.883L104.928 206.817L105.464 209.497L107.607 212.177L107.071 215.392L103.32 217L96.8887 215.928L90.4575 212.177L89.3857 205.745V195.563Z" fill="white"/>
<path d="M95.2315 138.49C85.5312 137.043 85.9599 130.183 85.9599 130.183C85.9599 130.183 77.2029 132.766 70.3001 126.539C60.2568 117.492 64.5121 110.279 64.5121 110.279C64.5121 110.279 53.7721 108.757 51.8106 98.1345C48.2735 79.0018 65.584 74.6179 65.584 74.6179C65.584 74.6179 74.5018 59.5584 80.3327 55.3245C106.272 29.0855 138.717 40.4472 138.717 40.4472C138.717 40.4472 170.026 38.5714 189.18 67.6509C201.377 86.1618 197.262 105.991 197.262 105.991C197.262 105.991 205.504 114.834 201.795 124.566C197.658 135.446 188.944 135.392 188.944 135.392C188.944 135.392 189.576 143.528 180.219 148.265C171.451 152.703 164.677 148.694 164.677 148.694C164.677 148.694 153.433 159.616 138.213 149.048" fill="white"/>
<path d="M108.641 187.592C108.641 187.592 108.973 209.393 110.699 212.234C112.424 215.074 118.169 216.628 122.285 216.586C126.401 216.543 128.031 213.584 127.334 211.634C126.637 209.672 124.611 208.782 124.611 208.782" fill="white"/>
<path d="M132.587 154.064C132.587 154.064 131.943 164.269 129.232 178.46C126.509 192.651 123.261 196.789 125.062 208.3" fill="white"/>
<path d="M89.9706 187.216C89.9706 187.216 89.0488 209.007 90.603 211.933C92.1572 214.87 97.8059 216.756 101.922 216.949C106.038 217.142 107.828 214.291 107.238 212.287C106.659 210.293 104.687 209.275 104.687 209.275" fill="white"/>
<path d="M115.844 154.997C115.844 154.997 114.59 165.276 111.053 179.285C107.516 193.294 104.032 197.239 105.168 208.836" fill="white"/>
<path d="M108.641 187.592C108.641 187.592 108.973 209.393 110.699 212.234C112.424 215.074 118.169 216.628 122.285 216.586C126.401 216.543 128.031 213.584 127.334 211.634C126.637 209.672 124.611 208.782 124.611 208.782" stroke="#7C6656" stroke-width="2.5" stroke-linecap="round" stroke-linejoin="round"/>
<path d="M132.587 154.064C132.587 154.064 131.943 164.269 129.232 178.46C126.509 192.651 123.261 196.789 125.062 208.3" stroke="#7C6656" stroke-width="2.5" stroke-linecap="round" stroke-linejoin="round"/>
<path d="M89.9706 187.216C89.9706 187.216 89.0488 209.007 90.603 211.933C92.1572 214.87 97.8059 216.756 101.922 216.949C106.038 217.142 107.828 214.291 107.238 212.287C106.659 210.293 104.687 209.275 104.687 209.275" stroke="#7C6656" stroke-width="2.5" stroke-linecap="round" stroke-linejoin="round"/>
<path d="M115.844 154.997C115.844 154.997 114.59 165.276 111.053 179.285C107.516 193.294 104.032 197.239 105.168 208.836" stroke="#7C6656" stroke-width="2.5" stroke-linecap="round" stroke-linejoin="round"/>
<path d="M101.931 132.595C101.931 132.595 85.9497 148.147 84.0846 171.567C83.5058 178.824 83.0449 184.044 83.0449 184.044C83.0449 184.044 110.377 197.142 136.348 186.359C136.348 186.359 136.445 178.877 134.43 166.551C132.404 154.225 134.247 144.01 134.247 144.01C134.247 144.01 132.479 145.907 124.236 145.168C115.994 144.428 112.778 136.443 112.778 136.443L101.942 132.584L101.931 132.595Z" fill="#FFADBE"/>
<path d="M135.074 143.763C135.074 143.763 132.523 155.018 134.538 167.334C136.553 179.649 136.339 186.359 136.339 186.359C110.367 197.142 83.0352 184.044 83.0352 184.044C83.0352 184.044 83.4961 178.824 84.0749 171.567C85.9399 148.137 101.921 132.595 101.921 132.595" stroke="#7C6656" stroke-width="2.5" stroke-linecap="round" stroke-linejoin="round"/>
<g filter="url(#filter0_f_522_15217)">
<path d="M159.736 127.21C164.951 129.178 170.064 128.425 171.157 125.528C172.25 122.631 168.91 118.688 163.695 116.72C158.481 114.752 153.368 115.505 152.274 118.402C151.181 121.299 154.522 125.242 159.736 127.21Z" fill="#F5B0B0"/>
</g>
<g filter="url(#filter1_f_522_15217)">
<path d="M107.675 113.05C112.745 114.963 117.74 114.166 118.834 111.269C119.927 108.372 116.704 104.473 111.634 102.56C106.565 100.647 101.569 101.444 100.476 104.341C99.3824 107.238 102.606 111.137 107.675 113.05Z" fill="#F5B0B0"/>
</g>
<path d="M167.905 108.928C166.768 112.926 162.61 115.252 158.601 114.116C154.603 112.979 152.277 108.821 153.413 104.812C154.549 100.814 158.708 98.4879 162.717 99.624C166.715 100.76 169.041 104.919 167.905 108.928Z" fill="#7C6656"/>
<path d="M146.919 120.547C146.919 120.547 141.174 124.899 133.681 122.777C126.189 120.654 123.842 114.009 123.842 114.009" stroke="#7C6656" stroke-width="2.5" stroke-linecap="round" stroke-linejoin="round"/>
<path d="M84.1172 116.603C84.7281 117.717 85.4141 118.736 86.1966 119.679C93.5924 128.564 108.813 136.303 117.988 138.318" stroke="#7C6656" stroke-width="2.5" stroke-linecap="round" stroke-linejoin="round"/>
<path d="M182.781 99.0459C182.695 100.118 182.792 101.361 182.824 101.768C183.21 104.791 187.047 114.877 182.438 125.489C177.829 136.1 165.171 144.803 144.677 144.578C144.677 144.578 134.119 144.578 128.674 141.952" stroke="#7C6656" stroke-width="2.5" stroke-linecap="round" stroke-linejoin="round"/>
<path d="M179.78 82.9883C179.78 82.9883 181.259 94.8752 174.453 101.767" stroke="#7C6656" stroke-width="2.5" stroke-linecap="round" stroke-linejoin="round"/>
<path d="M148.859 73.3418C148.859 73.3418 148.28 87.5332 139.834 93.7178" stroke="#7C6656" stroke-width="2.5" stroke-linecap="round" stroke-linejoin="round"/>
<path d="M115.588 70.5234C115.588 70.5234 113.016 83.2464 103.348 89.8597" stroke="#7C6656" stroke-width="2.5" stroke-linecap="round" stroke-linejoin="round"/>
<path d="M93.5295 85.2832C93.5295 85.2832 90.7105 102.722 82.9824 105.991" stroke="#7C6656" stroke-width="2.5" stroke-linecap="round" stroke-linejoin="round"/>
<path d="M95.2315 138.49C85.5312 137.043 85.9599 130.183 85.9599 130.183C85.9599 130.183 77.2029 132.766 70.3001 126.539C60.2568 117.492 64.5121 110.279 64.5121 110.279C64.5121 110.279 53.7721 108.757 51.8106 98.1345C48.2735 79.0018 65.584 74.6179 65.584 74.6179C65.584 74.6179 74.5018 59.5584 80.3327 55.3245C106.272 29.0855 138.717 40.4472 138.717 40.4472C138.717 40.4472 170.026 38.5714 189.18 67.6509C201.377 86.1618 197.261 105.991 197.261 105.991C197.261 105.991 205.504 114.834 201.795 124.566C197.658 135.446 188.944 135.392 188.944 135.392C188.944 135.392 189.576 143.528 180.219 148.265C171.451 152.703 164.677 148.694 164.677 148.694C164.677 148.694 153.433 159.616 138.213 149.048" stroke="#7C6656" stroke-width="2.5" stroke-linecap="round" stroke-linejoin="round"/>
<path d="M118.385 92.7637L125.963 100.181L117.988 99.2698" stroke="#7C6656" stroke-width="2.5" stroke-linecap="round" stroke-linejoin="round"/>
<path d="M112.939 136.957C112.939 136.957 116.091 149.069 132.512 144.021" stroke="#7C6656" stroke-width="2.5" stroke-linecap="round" stroke-linejoin="round"/>
<path d="M187.671 87.2866C173.812 76.2572 153.628 78.5509 142.599 92.41C131.57 106.269 133.863 126.452 147.723 137.482C161.582 148.511 181.765 146.217 192.794 132.358C203.823 118.499 201.53 98.316 187.671 87.2866ZM187.242 127.942C178.656 138.736 162.943 140.526 152.149 131.94C141.356 123.355 139.566 107.641 148.151 96.8475C156.737 86.0539 172.45 84.2639 183.244 92.8495C194.037 101.435 195.827 117.148 187.242 127.942Z" fill="#7A7066"/>
<path d="M174.625 143.721C191.924 139.893 202.844 122.765 199.015 105.466C195.187 88.1674 178.059 77.2476 160.76 81.0764C143.461 84.9052 132.541 102.032 136.37 119.331C140.199 136.63 157.326 147.55 174.625 143.721Z" stroke="#7C6656" stroke-width="2.5" stroke-linecap="round" stroke-linejoin="round"/>
<path opacity="0.3" d="M189.086 125.302C196.212 113.493 192.416 98.1425 180.607 91.016C168.798 83.8894 153.447 87.6854 146.321 99.4946C139.194 111.304 142.99 126.654 154.799 133.781C166.609 140.907 181.959 137.111 189.086 125.302Z" fill="white"/>
<path d="M189.086 125.302C196.212 113.493 192.416 98.1425 180.607 91.016C168.798 83.8894 153.447 87.6854 146.321 99.4946C139.194 111.304 142.99 126.654 154.799 133.781C166.609 140.907 181.959 137.111 189.086 125.302Z" stroke="#7C6656" stroke-width="2.5" stroke-linecap="round" stroke-linejoin="round"/>
<path opacity="0.3" d="M175.9 125.681C174.175 126.742 172.213 127.492 170.08 127.824" stroke="#83C3EC" stroke-width="2.5" stroke-miterlimit="10"/>
<path opacity="0.3" d="M183.264 111.211C183.617 115.841 181.902 120.215 178.826 123.334" stroke="#83C3EC" stroke-width="2.5" stroke-miterlimit="10"/>
<path d="M150.253 138.776L145.892 135.306L134.773 149.279L139.134 152.749L150.253 138.776Z" fill="#7C6656"/>
<path d="M122.168 172.254L119.467 170.099C118.417 169.263 118.234 167.72 119.081 166.669L137.592 143.217C138.428 142.167 139.972 141.984 141.022 142.831L143.723 144.986C144.774 145.822 144.956 147.365 144.109 148.416L125.598 171.868C124.762 172.918 123.219 173.1 122.168 172.254Z" fill="#9F9F9F" stroke="#7C6656" stroke-width="2.5" stroke-linecap="round" stroke-linejoin="round"/>
<path d="M99.3164 142.81C100.292 163.239 120.453 161.781 120.453 161.781C120.453 161.781 125.877 169.627 132.844 162.693C138.579 156.98 133.648 149.605 130.132 148.469C126.617 147.333 121.686 148.255 119.553 152.092C119.553 152.092 114.43 153.818 111.107 143.067" fill="white"/>
<path d="M99.4883 142.476C99.4883 142.476 99.7777 146.356 100.314 147.3C102.35 147.268 112.34 145.713 112.34 145.713L110.85 142.391C110.85 142.391 110.089 142.551 106.906 142.734C103.722 142.916 99.4883 142.476 99.4883 142.476Z" fill="#FFADBE"/>
<path d="M98.6094 141.416C99.5848 161.845 120.443 161.77 120.443 161.77C120.443 161.77 126.167 168.534 132.834 162.681C138.922 157.343 133.638 149.594 130.122 148.458C126.606 147.322 122.501 148.415 120.368 152.263C120.368 152.263 112.544 152.327 110.496 140.054" stroke="#7C6656" stroke-width="2.5" stroke-linecap="round" stroke-linejoin="round"/>
<path d="M111.644 145.811L100.711 147.279" stroke="#7C6656" stroke-width="2.5" stroke-linecap="round" stroke-linejoin="round"/>
<path d="M146.95 158.308C144.442 161.459 140.251 162.306 137.604 160.194C134.956 158.083 134.838 153.817 137.346 150.666C139.855 147.514 144.045 146.668 146.693 148.779C149.34 150.891 149.458 155.157 146.95 158.308Z" fill="white" stroke="#7C6656" stroke-width="2.5" stroke-linecap="round" stroke-linejoin="round"/>
<path d="M65.445 150.033C65.445 150.033 59.7856 161.62 65.445 174.171" stroke="#9F978F" stroke-width="2.5" stroke-linecap="round" stroke-linejoin="round"/>
<path d="M74.288 150.033C74.288 150.033 70.0435 159.369 73.2269 170.924" stroke="#9F978F" stroke-width="2.5" stroke-linecap="round" stroke-linejoin="round"/>
<path d="M189.268 154.997C189.268 154.997 183.201 163.304 168.195 163.69" stroke="#9F978F" stroke-width="2.5" stroke-linecap="round" stroke-linejoin="round"/>
<path d="M189.267 164.011C189.267 164.011 175.836 174.622 162.738 168.641" stroke="#9F978F" stroke-width="2.5" stroke-linecap="round" stroke-linejoin="round"/>
</g>
<defs>
<filter id="filter0_f_522_15217" x="148.066" y="111.624" width="27.2988" height="20.6831" filterUnits="userSpaceOnUse" color-interpolation-filters="sRGB">
<feFlood flood-opacity="0" result="BackgroundImageFix"/>
<feBlend mode="normal" in="SourceGraphic" in2="BackgroundImageFix" result="shape"/>
<feGaussianBlur stdDeviation="2" result="effect1_foregroundBlur_522_15217"/>
</filter>
<filter id="filter1_f_522_15217" x="96.2617" y="97.5186" width="26.7852" height="20.5728" filterUnits="userSpaceOnUse" color-interpolation-filters="sRGB">
<feFlood flood-opacity="0" result="BackgroundImageFix"/>
<feBlend mode="normal" in="SourceGraphic" in2="BackgroundImageFix" result="shape"/>
<feGaussianBlur stdDeviation="2" result="effect1_foregroundBlur_522_15217"/>
</filter>
<clipPath id="clip0_522_15217">
<rect width="256" height="256" fill="white"/>
</clipPath>
</defs>
</svg>
