<svg width="256" height="256" viewBox="0 0 256 256" fill="none" xmlns="http://www.w3.org/2000/svg">
<g clip-path="url(#clip0_522_13705)">
<path opacity="0.4" d="M128 220C181.572 220 225 215.075 225 209C225 202.925 181.572 198 128 198C74.4284 198 31 202.925 31 209C31 215.075 74.4284 220 128 220Z" fill="#E1D6CF"/>
<path d="M110.45 132.301L125.742 138.854L115.911 137.216L100.62 132.301L94.613 126.839L87.5135 125.201L82.0524 127.932L80.4141 136.123L83.1446 142.131L89.698 143.223L92.9747 142.131L125.742 155.237L121.373 168.344L122.465 172.167L120.28 171.621L117.004 171.075L111.543 171.621L106.628 177.628V181.997L109.904 184.728L112.089 183.635L122.465 191.281L129.564 192.919L134.479 190.189L140.487 181.997H148.678L155.778 196.196L164.516 204.934H172.161L178.169 202.749L181.445 199.473L181.991 197.288L177.622 194.011H173.8L166.154 176.536L168.885 171.075L175.984 154.145L191.275 147.592L206.02 136.669L212.028 133.939L214.758 131.754L215.85 126.293L212.574 120.286L206.02 118.648L200.559 120.832L198.921 125.201L196.19 129.024L183.084 133.939L197.829 123.017L203.836 109.364L202.744 96.257L197.829 85.8809L203.29 67.8591L201.105 60.2135L193.46 48.7451L181.991 41.0995L166.154 35.6383L146.494 34L132.841 36.7306L121.373 42.1917L115.911 43.8301L104.443 51.4757L95.7053 61.8518L93.5208 70.0435V84.2425L96.7975 96.8031L97.8897 100.08L99.5281 117.555L106.628 127.386L110.45 132.301Z" fill="white"/>
<path d="M53.9295 167.254L55.0218 163.431L57.7523 162.885L70.8591 171.623H73.0435L73.5897 158.516L75.228 157.424L80.143 160.154L86.6964 169.438L90.5192 180.907L93.2498 185.822L90.5192 190.737L86.6964 194.013L91.6114 204.936L92.1575 207.12L90.5192 209.305L88.3347 208.212L84.5119 201.659L81.2353 200.021L74.1358 201.659L76.3202 207.12L76.8663 209.851L76.3202 210.943H73.5897L70.8591 207.12L65.9441 201.659L54.4757 197.29L51.199 198.382H44.6456L40.2767 197.29L37.5461 193.467V191.283H40.2767L45.7378 192.921L47.9223 191.283L48.4684 189.098L51.199 186.914L48.4684 180.907L39.7306 175.446L37 168.346L38.0922 165.069L39.7306 163.431L41.915 164.523L42.4611 169.984L45.7378 173.261L52.2912 177.084L55.0218 184.183L56.6601 181.999V176.538L53.9295 167.254Z" fill="white"/>
<path d="M65.6043 196.93C65.6043 196.93 60.8422 197.815 59.739 200.655C57.216 199.093 55.2063 197.52 52.7488 198.306C50.1602 198.678 41.9248 203.068 37.4357 193.151C36.4855 190.562 42.0886 190.486 44.0328 192.638C45.5401 193.009 47.3859 195.325 48.9697 188.891C49.625 188.181 52.1808 188.553 50.3786 183.518C49.0024 179.695 44.1092 178.177 44.1092 178.177C44.1092 178.177 40.4721 176.396 38.6153 172.399C40.2864 171.59 43.3447 170.607 43.3447 170.607C43.3447 170.607 45.7585 173.513 48.1396 174.725C50.5206 175.937 54.8459 178.253 54.9442 182.163C55.1626 183.474 56.3422 186.991 55.8179 191.425C57.4235 194.68 61.5958 196.482 65.6261 196.93H65.6043Z" fill="#E1B995"/>
<path d="M73.3175 171.426C73.3175 171.426 72.2144 157.784 75.1852 158.101C82.5469 158.898 87.5384 171.415 87.5384 171.415L90.6621 180.601C90.6621 180.601 94.2119 185.614 93.0432 187.711C91.8745 189.809 85.5177 195.193 80.2532 196.1" fill="white"/>
<path d="M89.8743 178.307C89.8743 178.307 89.0005 181.366 86.0296 182.458C82.6874 183.703 81.2456 181.682 79.1267 179.694C77.0078 177.707 73.5673 177.477 72.0491 184.795C70.5418 192.113 62.9508 191.075 61.3999 190.901C59.8489 190.726 57.0965 189.011 56.7907 185.385C56.9326 182.349 57.1511 177.565 57.1511 177.565C57.1511 177.565 52.8149 164.622 54.781 162.841C62.0006 166.315 67.6365 167.418 71.2408 172.344C71.3173 172.442 73.3051 171.404 73.3051 171.404C73.3051 171.404 71.918 161.247 74.8998 158.516C76.5818 157.861 81.5078 159.707 85.5599 166.588C88.1376 173.152 89.8743 178.286 89.8743 178.286V178.307Z" fill="#E1B995"/>
<path d="M50.5991 186.979C50.5991 186.979 50.8175 181.408 47.1367 179.792C40.638 176.952 37.0118 172.048 37.4705 166.631C37.5797 165.254 38.7921 164.239 40.1683 164.348C41.5445 164.457 42.5603 165.68 42.4511 167.046C42.178 170.213 44.6901 173.282 49.1355 175.226C55.2301 177.892 55.6124 185.002 55.6015 186.837" stroke="#7C6656" stroke-width="2.5" stroke-linecap="round" stroke-linejoin="round"/>
<path d="M70.9043 171.763C70.9043 171.763 57.5791 161.802 54.783 162.851C51.9869 163.899 57.1531 177.574 57.1531 177.574L56.7927 185.394C56.7927 185.394 54.7721 191.194 56.4869 192.887C58.2016 194.58 65.7926 197.977 71.1009 197.387" stroke="#7C6656" stroke-width="2.5" stroke-linecap="round" stroke-linejoin="round"/>
<path d="M73.3175 171.426C73.3175 171.426 72.2144 157.784 75.1852 158.101C82.5469 158.898 87.5384 171.415 87.5384 171.415L90.6621 180.601C90.6621 180.601 94.2119 185.614 93.0432 187.711C91.8745 189.809 85.5177 195.193 80.2532 196.1" stroke="#7C6656" stroke-width="2.5" stroke-linecap="round" stroke-linejoin="round"/>
<path d="M59.7402 171.186C59.7402 171.186 64.4696 175.565 62.6456 176.45L60.8215 177.335" stroke="#7C6656" stroke-width="2.5" stroke-linecap="round" stroke-linejoin="round"/>
<path d="M85.5063 180.119C85.5063 180.119 80.6895 180.873 79.9141 184.805" stroke="#7C6656" stroke-width="2.5" stroke-linecap="round" stroke-linejoin="round"/>
<path d="M74.0047 185.277C74.0047 185.277 70.7389 182.055 65.6055 183.606" stroke="#7C6656" stroke-width="2.5" stroke-linecap="round" stroke-linejoin="round"/>
<path d="M79.1267 187.625L78.5041 188.564L76.9531 188.095" stroke="#7C6656" stroke-width="2.5" stroke-linecap="round" stroke-linejoin="round"/>
<path d="M86.0184 193.762C86.0184 193.762 94.8327 207.862 90.6385 209.413C86.4444 210.964 85.3522 200.009 82.0864 200.053C78.8206 200.097 74.0039 201.025 74.0039 201.025" stroke="#7C6656" stroke-width="2.5" stroke-linecap="round" stroke-linejoin="round"/>
<path d="M67.0039 201.659C70.4226 208.682 74.4201 213.259 76.9541 211.107C78.0463 210.19 73.1095 200.043 73.1095 200.043" stroke="#7C6656" stroke-width="2.5" stroke-linecap="round" stroke-linejoin="round"/>
<path d="M67.0043 201.659C59.9157 201.179 54.0613 197.465 54.0613 197.465C54.0613 197.465 48.9716 199.922 43.5323 198.688C38.093 197.443 35.133 191.895 39.6439 190.944C42.3854 190.365 43.8927 194.024 46.5359 192.746C49.1791 191.469 47.2677 189.623 50.3696 187.624C53.4825 185.625 56.497 186.39 56.497 186.39" stroke="#7C6656" stroke-width="2.5" stroke-linecap="round" stroke-linejoin="round"/>
<path d="M165.806 102.309C165.806 102.309 160.651 103.358 157.396 101.916C155.933 104.253 151.771 106.274 148.899 105.367C148.287 110.173 147.511 132.302 164.67 129.364C175.494 125.596 168.777 112.773 168.777 112.773C168.777 112.773 165.5 107.039 165.817 102.309H165.806Z" fill="#F4A5A7"/>
<path d="M170.665 166.903C170.665 166.903 145.741 173.871 121.974 165.09C121.559 168.934 121.089 170.114 121.974 172.211C120.586 172.124 112.144 173.882 111.729 184.095C117.244 187.732 127.02 195.366 132.601 191.729C138.182 188.092 140.061 182.817 139.777 181.593C144.113 182.697 149.52 182.62 149.214 182.347C148.919 182.063 152.447 194.132 162.222 202.521C165.969 202.313 176.061 198.042 175.493 194.012C173.876 193.193 170.643 188.376 168.95 184.084C167.257 179.791 165.772 175.084 165.772 175.084L170.654 166.903H170.665Z" fill="#8FBDE2"/>
<path d="M176.281 141.859C176.281 141.859 178.935 157.129 165.784 175.096C165.784 175.096 171.082 193.784 175.505 194.024C179.929 194.264 183.73 197.203 181.392 200.337C177.285 205.842 166.887 206.88 163.141 203.581C153.158 194.789 148.844 182.479 148.844 182.479" stroke="#7C6656" stroke-width="2.5" stroke-linecap="round" stroke-linejoin="round"/>
<path d="M127.906 150.02C127.906 150.02 120.511 162.984 121.68 170.706C122.401 175.458 125.874 178.188 125.874 178.188" stroke="#7C6656" stroke-width="2.5" stroke-linecap="round" stroke-linejoin="round"/>
<path d="M154.699 181.365C154.699 181.365 147.567 183.036 140.096 181.365C140.096 181.365 134.842 194.647 127.557 192.703C120.272 190.758 112.375 184.227 112.375 184.227" stroke="#7C6656" stroke-width="2.5" stroke-linecap="round" stroke-linejoin="round"/>
<path d="M122.433 174.079C122.433 174.079 121.232 172.058 118.709 171.108C115.793 170.016 107.339 170.791 106.214 179.092C105.46 184.641 110.135 185.078 113.095 184.816" stroke="#7C6656" stroke-width="2.5" stroke-linecap="round" stroke-linejoin="round"/>
<path d="M167.05 100.277C167.05 100.277 163.937 105.575 157.405 101.97C157.405 101.97 153.976 107.77 146.33 104.581" stroke="#7C6656" stroke-width="2.5" stroke-linecap="round" stroke-linejoin="round"/>
<path d="M165.806 102.309C165.806 102.309 169.41 115.481 170.732 119.052C173.222 125.792 165.238 132.225 156.882 128.992C146.299 124.896 148.461 105.76 148.461 105.76" stroke="#7C6656" stroke-width="2.5" stroke-linecap="round" stroke-linejoin="round"/>
<g filter="url(#filter0_f_522_13705)">
<path d="M185.933 109.077C191.431 108.501 195.631 105.583 195.314 102.56C194.997 99.536 190.284 97.5514 184.786 98.1271C179.289 98.7028 175.089 101.621 175.405 104.644C175.722 107.668 180.435 109.653 185.933 109.077Z" fill="#F5B0B0"/>
</g>
<g filter="url(#filter1_f_522_13705)">
<path d="M130.835 117.535C136.333 116.959 140.533 114.041 140.216 111.018C139.9 107.994 135.186 106.009 129.689 106.585C124.191 107.161 119.991 110.079 120.308 113.102C120.624 116.126 125.338 118.111 130.835 117.535Z" fill="#F5B0B0"/>
</g>
<path d="M129.785 95.1348C129.785 95.1348 143.176 96.4454 142.728 97.9199C142.269 99.3945 133.499 101.524 132.625 101.896" stroke="#7C6656" stroke-width="2.5" stroke-linecap="round" stroke-linejoin="round"/>
<path d="M178.639 87.0176C178.639 87.0176 167.4 93.0904 168.383 94.2809C169.366 95.4714 177.645 94.3355 178.585 94.3355" stroke="#7C6656" stroke-width="2.5" stroke-linecap="round" stroke-linejoin="round"/>
<path d="M195.177 73.9102C196.542 77.2961 196.258 82.0473 196.422 83.8604C197.809 86.6455 204.887 95.0557 204.002 106.808C203.117 118.571 194.292 129.581 174.501 136.244C174.501 136.244 162.803 139.52 158.521 139.619" stroke="#7C6656" stroke-width="2.5" stroke-linecap="round" stroke-linejoin="round"/>
<path d="M150.099 140.1C136.512 141.574 121.264 139.292 110.845 132.05C102.194 126.032 98.0982 118.146 97.9453 99.2832" stroke="#7C6656" stroke-width="2.5" stroke-linecap="round" stroke-linejoin="round"/>
<path d="M97.9453 99.2832C78.5474 52.9836 120.74 42.7822 120.74 42.7822C148.024 24.0723 183.095 41.5152 183.095 41.5152C183.095 41.5152 208.675 53.486 201.041 76.6194" stroke="#7C6656" stroke-width="2.5" stroke-linecap="round" stroke-linejoin="round"/>
<path d="M125.371 56.6445C125.371 56.6445 125.033 72.1979 150.744 77.6153" stroke="#7C6656" stroke-width="2.5" stroke-linecap="round" stroke-linejoin="round"/>
<path d="M120.915 66.2988C120.915 66.2988 107.754 76.5767 106.41 91.5948" stroke="#7C6656" stroke-width="2.5" stroke-linecap="round" stroke-linejoin="round"/>
<path d="M177.143 74.9146C177.143 74.9146 159.241 71.9546 151.41 57.0566" stroke="#7C6656" stroke-width="2.5" stroke-linecap="round" stroke-linejoin="round"/>
<path d="M141.165 45.5883C141.165 45.5883 134.634 50.0119 136.316 55.473C137.616 59.6672 140.139 61.0434 148.046 63.1514C155.954 65.2594 167.554 55.7024 172.261 45.5337C165.981 41.7 154.644 34.251 141.165 45.5883Z" fill="#1AAF92"/>
<path d="M139.505 59.6259C139.505 59.6259 158.761 74.4912 172.479 45.0993C172.479 45.0993 153.464 30.6382 136.545 50.0799" stroke="#7C6656" stroke-width="2.5" stroke-linecap="round" stroke-linejoin="round"/>
<path d="M155.354 50.7773C155.419 51.0067 141.537 59.1438 131.303 52.4703" stroke="#7C6656" stroke-width="2.5" stroke-linecap="round" stroke-linejoin="round"/>
<path d="M133.269 140.525C126.977 140.711 121.156 138.734 114.974 137.292C110.037 136.135 98.5358 131.143 98.5358 131.143C98.5358 131.143 95.7397 125.682 88.9897 125.125C83.3975 124.655 78.7665 131.34 80.5031 136.856C82.2397 142.371 86.1936 143.977 93.0746 143.038C93.0746 143.038 106.957 149.099 112.658 151.076C118.786 153.195 124.717 155.161 124.717 155.161" stroke="#7C6656" stroke-width="2.5" stroke-linecap="round" stroke-linejoin="round"/>
<path d="M124.311 139.369C124.311 139.369 123.492 146.338 119.637 153.317" stroke="#7C6656" stroke-width="2.5" stroke-linecap="round" stroke-linejoin="round"/>
<path d="M172.764 136.724C175.877 136.724 182.004 136.244 184.21 135.501C189.027 133.895 197.131 128.161 197.131 128.161C197.131 128.161 197.219 122.001 203.259 118.932C208.272 116.398 215.524 120.898 215.983 126.665C216.442 132.432 213.395 135.403 206.656 137.128C206.656 137.128 193.035 146.893 187.596 149.503C178.64 153.796 176.302 154.298 176.302 154.298" stroke="#7C6656" stroke-width="2.5" stroke-linecap="round" stroke-linejoin="round"/>
<path d="M180.747 136.484C180.747 136.484 182.113 145.659 178.945 152.759" stroke="#7C6656" stroke-width="2.5" stroke-linecap="round" stroke-linejoin="round"/>
<path d="M168.33 137.85C168.33 137.85 168.701 143.726 159.232 145.255C147.545 147.144 142.105 140.526 142.105 140.526" stroke="#7C6656" stroke-width="2.5" stroke-linecap="round" stroke-linejoin="round"/>
<path d="M119.779 172.658C119.779 172.658 112.451 173.914 111.479 184.858" stroke="#7C6656" stroke-width="2.5" stroke-linecap="round" stroke-linejoin="round"/>
<path d="M175.253 194.58C175.253 194.58 170.785 202.936 162.539 202.761" stroke="#7C6656" stroke-width="2.5" stroke-linecap="round" stroke-linejoin="round"/>
<path d="M223.54 128.895C223.54 128.895 224.021 136.529 216.539 140.767" stroke="#7C6656" stroke-width="2.5" stroke-linecap="round" stroke-linejoin="round"/>
<path d="M230.608 132.182C230.608 132.182 232.596 142.864 218.539 147.069" stroke="#7C6656" stroke-width="2.5" stroke-linecap="round" stroke-linejoin="round"/>
<path d="M170.436 166.182C170.436 166.182 144.769 174.756 121.963 165.09" stroke="#7C6656" stroke-width="2.5" stroke-linecap="round" stroke-linejoin="round"/>
<path d="M80.1641 106.022L92.681 94.6406C92.681 94.6406 97.3667 99.3591 92.1677 108.392C88.4978 112.739 86.6628 112.848 82.84 112.706" fill="white"/>
<path d="M74.4738 109.901L64.3379 98.2469C64.3379 98.2469 72.3876 94.2821 78.6133 100.049C84.839 105.816 80.4155 111.452 80.4155 111.452" fill="#FFD767"/>
<path d="M74.4738 109.901L64.3379 98.2469C64.3379 98.2469 72.3876 94.2821 78.6133 100.049C84.839 105.816 80.4155 111.452 80.4155 111.452" stroke="#7C6656" stroke-width="2.5" stroke-linecap="round" stroke-linejoin="round"/>
<path d="M73.4805 97.2734C73.4805 97.2734 79.87 101.173 74.9877 109.485" stroke="#7C6656" stroke-width="2.5" stroke-linecap="round" stroke-linejoin="round"/>
<path d="M80.2733 116.661L68.9142 128.785C68.9142 128.785 64.152 121.183 69.2528 114.401C74.3535 107.618 80.4153 111.441 80.4153 111.441" fill="#F39200"/>
<path d="M80.2733 116.661L68.9142 128.785C68.9142 128.785 64.152 121.183 69.2528 114.401C74.3535 107.618 80.4153 111.441 80.4153 111.441" stroke="#7C6656" stroke-width="2.5" stroke-linecap="round" stroke-linejoin="round"/>
<path d="M67.0137 119.794C67.0137 119.794 70.2467 113.044 79.0063 117.053" stroke="#7C6656" stroke-width="2.5" stroke-linecap="round" stroke-linejoin="round"/>
<path d="M87.624 112.161L99.3437 120.091C99.3437 120.091 92.5828 125.989 85.0901 122.013C77.5865 118.048 80.4153 111.451 80.4153 111.451" fill="#96D68A"/>
<path d="M87.624 112.161L99.3437 120.091C99.3437 120.091 92.5828 125.989 85.0901 122.013C77.5865 118.048 80.4153 111.451 80.4153 111.451" stroke="#7C6656" stroke-width="2.5" stroke-linecap="round" stroke-linejoin="round"/>
<path d="M90.7597 123.38C90.7597 123.38 83.9224 121.348 85.9976 112.621" stroke="#7C6656" stroke-width="2.5" stroke-linecap="round" stroke-linejoin="round"/>
<path d="M82.5111 104.569L92.6798 94.6406C92.6798 94.6406 97.0924 102.45 91.6968 108.993C86.3012 115.535 80.4141 111.45 80.4141 111.45" fill="#FBADDA"/>
<path d="M82.5111 104.569L92.6798 94.6406C92.6798 94.6406 97.0924 102.45 91.6968 108.993C86.3012 115.535 80.4141 111.45 80.4141 111.45" stroke="#7C6656" stroke-width="2.5" stroke-linecap="round" stroke-linejoin="round"/>
<path d="M94.1773 103.719C94.1773 103.719 90.6494 110.316 82.0645 105.914" stroke="#7C6656" stroke-width="2.5" stroke-linecap="round" stroke-linejoin="round"/>
<path d="M85.0898 122.014L90.5619 135.798" stroke="#7C6656" stroke-width="2.5" stroke-linecap="round" stroke-linejoin="round"/>
<path d="M81.7903 104.68C82.5111 108.219 80.4141 110.884 80.4141 110.884L81.7903 104.68Z" fill="#FFD767"/>
<path d="M81.7903 104.68C82.5111 108.219 80.4141 110.884 80.4141 110.884" stroke="#7C6656" stroke-width="2.5" stroke-linecap="round" stroke-linejoin="round"/>
</g>
<defs>
<filter id="filter0_f_522_13705" x="172.711" y="95.3497" width="25.2976" height="16.5047" filterUnits="userSpaceOnUse" color-interpolation-filters="sRGB">
<feFlood flood-opacity="0" result="BackgroundImageFix"/>
<feBlend mode="normal" in="SourceGraphic" in2="BackgroundImageFix" result="shape"/>
<feGaussianBlur stdDeviation="1.33906" result="effect1_foregroundBlur_522_13705"/>
</filter>
<filter id="filter1_f_522_13705" x="117.613" y="103.808" width="25.2976" height="16.5047" filterUnits="userSpaceOnUse" color-interpolation-filters="sRGB">
<feFlood flood-opacity="0" result="BackgroundImageFix"/>
<feBlend mode="normal" in="SourceGraphic" in2="BackgroundImageFix" result="shape"/>
<feGaussianBlur stdDeviation="1.33906" result="effect1_foregroundBlur_522_13705"/>
</filter>
<clipPath id="clip0_522_13705">
<rect width="256" height="256" fill="white"/>
</clipPath>
</defs>
</svg>
