<svg width="256" height="256" viewBox="0 0 256 256" fill="none" xmlns="http://www.w3.org/2000/svg">
<g clip-path="url(#clip0_522_14545)">
<path opacity="0.4" d="M129 231C168.765 231 201 226.971 201 222C201 217.029 168.765 213 129 213C89.2355 213 57 217.029 57 222C57 226.971 89.2355 231 129 231Z" fill="#E1D6CF"/>
<path d="M154.153 176.5L153.038 183.19V185.978L149.693 196.013L145.233 205.49L150.25 213.853V217.198L148.578 220.543L145.233 223.331L138.543 223.888H134.083L130.738 221.658V218.871L132.41 216.641L126.278 202.703L127.95 194.898L117.915 193.225L112.897 203.26L116.242 214.968V217.198L113.455 220.543L108.995 223.331H103.42H100.632L98.4021 222.216V219.428L100.632 217.198L97.2871 206.048V197.685L99.5171 189.323L103.42 184.305L106.207 178.173L105.65 166.465L99.5171 168.695H95.6146L88.367 164.792L83.9069 159.217L79.4468 158.66L73.8717 156.43L72.1992 150.855L74.4293 144.722L78.8893 141.377L83.3494 140.819L88.9245 144.722L91.1545 148.625L91.712 151.97L97.2871 156.43H99.5171L101.747 153.085L102.862 149.182L95.0571 143.607L86.6944 136.359L79.4468 127.439L74.9868 115.732V105.139L79.4468 93.9887L83.9069 89.5286L86.6944 86.7411L88.9245 79.4935L93.3845 64.9983L96.7296 61.0957L103.42 56.0781L111.225 50.503L134.64 46.043L146.348 47.7155L164.746 53.8481L173.108 59.4232L177.011 64.9983L184.816 70.0158L193.179 81.166L195.409 93.9887L194.851 105.696L191.506 113.502L185.931 121.307L180.913 134.129L173.108 144.164L164.746 148.625L155.268 151.412L149.693 153.085L153.595 168.137L154.153 176.5Z" fill="white"/>
<path d="M115.941 214.277C115.941 214.277 112.194 204.364 112.975 201.833C113.744 199.302 117.468 193.783 118.115 193.214C118.762 192.645 127.66 194.452 127.905 194.953C128.15 195.444 127.325 196.893 126.455 200.629C125.586 204.364 132.131 215.626 132.811 216.997C139.791 220.465 147.585 217.098 150.094 215.336C150.517 211.679 147.908 210.664 146.37 208.222C144.831 205.78 146.247 202.725 148.365 197.496C152.19 191.118 153.829 179.711 153.829 179.711C153.829 179.711 137.36 181.941 124.805 181.306C112.25 180.67 105.727 177.013 105.727 177.013C105.727 177.013 104.634 183.58 101.167 187.182C94.5992 196.637 97.9666 207.954 97.9666 207.954C97.9666 207.954 99.8286 213.976 100.252 217.555C106.151 219.963 116.03 216.73 116.03 216.73" fill="#8FBDE2"/>
<path d="M125.475 94.2887C125.475 97.4219 128.017 99.9642 131.15 99.9642C134.283 99.9642 136.825 97.4219 136.825 94.2887C136.825 91.1555 134.283 88.6133 131.15 88.6133C128.017 88.6133 125.475 91.1555 125.475 94.2887Z" fill="#7C6656"/>
<path d="M95.3457 85.4586C95.3457 88.5918 97.8879 91.1341 101.021 91.1341C104.154 91.1341 106.697 88.5918 106.697 85.4586C106.697 82.3254 104.154 79.7832 101.021 79.7832C97.8879 79.7832 95.3457 82.3254 95.3457 85.4586Z" fill="#7C6656"/>
<path d="M99.0938 85.4588C99.0938 86.7857 100.164 87.8561 101.491 87.8561C102.818 87.8561 103.888 86.7857 103.888 85.4588C103.888 84.1319 102.818 83.0615 101.491 83.0615C100.164 83.0615 99.0938 84.1319 99.0938 85.4588Z" fill="white"/>
<path d="M127.637 94.2899C127.637 95.6167 128.707 96.6872 130.034 96.6872C131.361 96.6872 132.431 95.6167 132.431 94.2899C132.431 92.963 131.361 91.8926 130.034 91.8926C128.707 91.8926 127.637 92.963 127.637 94.2899Z" fill="white"/>
<path d="M187.469 111.015C185.819 127.216 177.813 142.447 167.722 147.074C157.709 151.657 145.299 153.073 145.299 153.073C145.299 153.073 135.331 154.712 127.949 153.675" stroke="#7C6656" stroke-width="2.5" stroke-linecap="round" stroke-linejoin="round"/>
<path d="M108.961 150.888C91.2654 144.822 76.5806 130.037 74.9304 112.197C73.2802 94.3564 86.8276 87.421 86.8276 87.421C86.8276 87.421 87.452 77.4639 98.881 65.8008" stroke="#7C6656" stroke-width="2.5" stroke-linecap="round" stroke-linejoin="round"/>
<path d="M124.838 82.7051C124.838 82.7051 121.125 84.0654 120.623 87.0425" stroke="#7C6656" stroke-width="2.5" stroke-linecap="round" stroke-linejoin="round"/>
<path d="M118.393 79.6045C118.393 79.6045 115.918 83.1948 116.408 85.804" stroke="#7C6656" stroke-width="2.5" stroke-linecap="round" stroke-linejoin="round"/>
<path d="M112.082 80.8428V83.9425" stroke="#7C6656" stroke-width="2.5" stroke-linecap="round" stroke-linejoin="round"/>
<path d="M119.588 110.557C116.332 107.681 113.812 103.979 112.341 99.8978C111.928 98.7493 111.315 97.3556 110.099 97.3221C109.665 97.311 109.207 97.5005 108.795 97.3556C108.249 97.166 108.026 96.5304 107.568 96.1736C106.665 95.4823 105.383 96.1736 104.524 96.9207C101.971 99.1619 99.9751 102.027 98.7598 105.205" stroke="#7C6656" stroke-width="2.5" stroke-linecap="round" stroke-linejoin="round"/>
<path d="M107.679 109.588C107.679 109.588 106.441 112.442 107.679 114.672" stroke="#7C6656" stroke-width="2.5" stroke-linecap="round" stroke-linejoin="round"/>
<path d="M103.888 108.351C103.888 108.351 102.104 110.213 102.227 111.328" stroke="#7C6656" stroke-width="2.5" stroke-linecap="round" stroke-linejoin="round"/>
<path d="M112.083 136.972C112.083 136.972 106.418 131.275 103.898 134.497" stroke="#7C6656" stroke-width="2.5" stroke-linecap="round" stroke-linejoin="round"/>
<path d="M145.657 158.404C145.657 158.404 142.156 176.344 137.027 177.56C131.898 178.764 122.22 170.401 122.22 170.401C122.22 170.401 111.605 172.854 110.4 163.856C109.196 154.858 116.589 151.558 120.592 152.639C124.595 153.71 129.333 156.932 128.999 161.838L135.578 165.061" stroke="#7C6656" stroke-width="2.5" stroke-linecap="round" stroke-linejoin="round"/>
<path d="M105.637 165.84C105.637 165.84 102.481 169.62 96.0812 169.029C90.8295 168.55 82.9797 159.083 82.9797 159.083C82.9797 159.083 72.086 159.395 72.6881 150.33C73.2902 141.265 81.1846 139.504 84.8976 141.343C88.6106 143.194 92.6246 147.275 91.3201 152.025L97.1293 156.485C97.1293 156.485 100.608 158.347 102.225 150.877" stroke="#7C6656" stroke-width="2.5" stroke-linecap="round" stroke-linejoin="round"/>
<path d="M128.52 194.452C128.52 194.452 124.829 200.005 127.148 205.457C129.456 210.91 132.478 216.262 132.478 216.262C132.478 216.262 129.612 219.071 131.352 222.049C133.08 225.026 146.304 225.605 149.437 219.495C152.571 213.385 144.977 209.159 145.635 205.279C146.293 201.398 148.367 197.496 148.367 197.496C161 175.385 149.348 153.118 149.348 153.118" stroke="#7C6656" stroke-width="2.5" stroke-linecap="round" stroke-linejoin="round"/>
<path d="M127.65 194.452C127.65 194.452 118.552 192.3 116.734 192.969" stroke="#7C6656" stroke-width="2.5" stroke-linecap="round" stroke-linejoin="round"/>
<path d="M118.237 192.847C118.237 192.847 111.87 200.173 113.03 203.652C114.19 207.119 117.066 215.281 115.74 217.924C114.413 220.567 108.581 224.369 101.668 223.042C94.7549 221.715 99.0589 217.589 100.709 216.274C100.709 216.274 97.6986 208.837 97.3418 204.376C96.6059 195.311 98.3007 190.762 102.75 185.053C110.265 175.397 102.571 151.491 102.538 149.863" stroke="#7C6656" stroke-width="2.5" stroke-linecap="round" stroke-linejoin="round"/>
<path d="M200.37 110.848C201.474 113.881 200.548 117.549 198.129 119.69" stroke="#7C6656" stroke-width="2.5" stroke-linecap="round" stroke-linejoin="round"/>
<path d="M196.813 123.66C196.289 127.083 194.415 130.295 191.684 132.424" stroke="#7C6656" stroke-width="2.5" stroke-linecap="round" stroke-linejoin="round"/>
<path d="M188.786 136.56C187.86 137.775 187.314 139.291 187.27 140.819" stroke="#7C6656" stroke-width="2.5" stroke-linecap="round" stroke-linejoin="round"/>
<path d="M82.5023 57.2487C80.25 56.7916 78.2652 58.9324 77.4736 61.0844C76.6819 63.2364 76.5147 65.6671 75.2547 67.585C74.3961 68.8895 73.0581 69.9153 72.5675 71.3983C72.2553 72.3572 72.3334 73.4276 71.9877 74.3754C71.6086 75.4124 70.7612 76.1929 70.1145 77.096C69.4678 77.9881 69.0106 79.2034 69.5235 80.1846" stroke="#7C6656" stroke-width="2.5" stroke-linecap="round" stroke-linejoin="round"/>
<path d="M67.2259 71.3311C64.2711 72.5687 62.7212 76.3932 63.97 79.348" stroke="#7C6656" stroke-width="2.5" stroke-linecap="round" stroke-linejoin="round"/>
<path d="M64.4941 108.25C63.8474 109.711 64.1931 111.417 64.7617 112.9C65.3304 114.394 66.122 115.821 66.3673 117.393C66.5792 118.709 66.3896 120.069 66.5346 121.396C66.6796 122.723 67.2705 124.139 68.4859 124.685" stroke="#7C6656" stroke-width="2.5" stroke-linecap="round" stroke-linejoin="round"/>
<path d="M63 125.822C63.0112 129.167 65.6426 132.301 68.9207 132.914" stroke="#7C6656" stroke-width="2.5" stroke-linecap="round" stroke-linejoin="round"/>
<path d="M68.8312 161.915C67.7273 163.064 68.3294 165.037 69.4444 166.174C70.5595 167.312 72.0759 168.003 73.1463 169.174C74.0718 170.177 74.6516 171.526 75.7666 172.318C77.2273 173.355 79.4573 173.099 80.6504 171.761" stroke="#7C6656" stroke-width="2.5" stroke-linecap="round" stroke-linejoin="round"/>
<path d="M77.0723 166.465C78.6779 168.762 82.77 167.335 84.7436 169.33C85.6133 170.211 85.8252 171.527 86.2712 172.687C86.7172 173.846 87.743 175.017 88.9695 174.805" stroke="#7C6656" stroke-width="2.5" stroke-linecap="round" stroke-linejoin="round"/>
<path d="M89.4936 195.3C88.6574 197.374 87.8211 199.437 86.9849 201.51C86.7507 202.079 86.5277 202.704 86.695 203.283C87.1187 204.711 89.5271 204.766 89.9062 206.205C90.1069 206.985 89.6051 207.743 89.3598 208.513C88.8581 210.118 89.7278 212.036 91.2554 212.728" stroke="#7C6656" stroke-width="2.5" stroke-linecap="round" stroke-linejoin="round"/>
<path d="M84.2974 209.538C83.1155 210.687 82.5914 212.471 82.9482 214.087C83.305 215.693 84.5427 217.087 86.1037 217.622" stroke="#7C6656" stroke-width="2.5" stroke-linecap="round" stroke-linejoin="round"/>
<path d="M162.337 180.012C163.519 182.052 164.746 184.483 163.865 186.668C163.096 188.597 160.955 189.612 159.84 191.363C159.148 192.466 158.903 193.782 158.379 194.975C157.855 196.168 156.918 197.339 155.625 197.462" stroke="#7C6656" stroke-width="2.5" stroke-linecap="round" stroke-linejoin="round"/>
<path d="M164.133 195.768C164.59 197.228 163.575 198.756 162.404 199.737C161.234 200.718 159.817 201.465 158.959 202.736C158.513 203.383 158.245 204.153 157.721 204.743C157.197 205.334 156.294 205.714 155.625 205.29" stroke="#7C6656" stroke-width="2.5" stroke-linecap="round" stroke-linejoin="round"/>
<path d="M150.171 216.005C150.171 216.005 142.467 220.365 132.197 217.544" stroke="#7C6656" stroke-width="2.5" stroke-linecap="round" stroke-linejoin="round"/>
<path d="M115.963 216.005C115.963 216.005 109.351 220.365 100.531 217.544" stroke="#7C6656" stroke-width="2.5" stroke-linecap="round" stroke-linejoin="round"/>
<path d="M134.94 153.999C134.94 153.999 131.851 155.582 131.35 162.295" stroke="#7C6656" stroke-width="2.5" stroke-linecap="round" stroke-linejoin="round"/>
<path d="M144.428 163.576C144.428 163.576 135.798 159.684 133.145 159.941" stroke="#7C6656" stroke-width="2.5" stroke-linecap="round" stroke-linejoin="round"/>
<path d="M93.4492 65.4326C93.4492 65.4326 107.064 41.9727 142.956 46.6669C168.702 50.5248 176.685 63.9496 176.685 63.9496C176.685 63.9496 194.615 72.1004 195.574 93.3303C196.399 107.904 189.43 116.467 189.43 116.467" stroke="#7C6656" stroke-width="2.5" stroke-linecap="round" stroke-linejoin="round"/>
<path d="M171.335 68.6768C171.335 68.6768 162.069 76.7606 144.43 76.7606" stroke="#7C6656" stroke-width="2.5" stroke-linecap="round" stroke-linejoin="round"/>
<path d="M149.058 59.9141C149.058 59.9141 143.751 66.7714 124.84 66.7714L149.058 59.9141Z" fill="white"/>
<path d="M149.058 59.9141C149.058 59.9141 143.751 66.7714 124.84 66.7714" stroke="#7C6656" stroke-width="2.5" stroke-linecap="round" stroke-linejoin="round"/>
<path d="M136.858 47.9163C136.858 47.9163 140.382 55.2977 136.022 59.2895C132.666 62.3558 129.689 62.2666 121.516 60.0142C113.342 57.7619 107.979 43.144 109.083 31.5813C116.71 31.4475 130.737 30.7116 136.858 47.9051V47.9163Z" fill="#1AAF92"/>
<path d="M131.006 61.3411C131.006 61.3411 106.019 64.5524 109.129 31.1019C109.129 31.1019 133.704 28.1248 138.655 54.3611" stroke="#7C6656" stroke-width="2.5" stroke-linecap="round" stroke-linejoin="round"/>
<path d="M121.46 45.1279C121.281 45.2952 129.432 59.8462 142.088 59.2329" stroke="#7C6656" stroke-width="2.5" stroke-linecap="round" stroke-linejoin="round"/>
<path d="M194.248 72.7243C194.248 72.7243 188.785 62.0759 176.688 63.9491" stroke="#7C6656" stroke-width="2.5" stroke-linecap="round" stroke-linejoin="round"/>
<path d="M171.336 78.6455C171.336 78.6455 180.68 88.7922 178.361 102.618" stroke="#7C6656" stroke-width="2.5" stroke-linecap="round" stroke-linejoin="round"/>
<path d="M153.829 179.711C153.829 179.711 128.652 184.706 106.697 177.013" stroke="#7C6656" stroke-width="2.5" stroke-linecap="round" stroke-linejoin="round"/>
</g>
<defs>
<clipPath id="clip0_522_14545">
<rect width="256" height="256" fill="white"/>
</clipPath>
</defs>
</svg>
