<svg width="256" height="256" viewBox="0 0 256 256" fill="none" xmlns="http://www.w3.org/2000/svg">
<g clip-path="url(#clip0_522_14408)">
<path opacity="0.4" d="M129 231C168.765 231 201 226.971 201 222C201 217.029 168.765 213 129 213C89.2355 213 57 217.029 57 222C57 226.971 89.2355 231 129 231Z" fill="#E1D6CF"/>
<path d="M121.417 204.072C121.417 204.072 125.292 206.094 125.629 208.677C125.965 211.261 125.662 215.102 120.484 219.156C115.307 223.2 108.961 218.606 109.96 211.058" fill="white"/>
<path d="M145.834 216.079C145.34 215.933 146.261 220.785 136.197 221.976C132.12 223.346 125.684 220.224 127.436 215.495C129.188 210.766 139.443 207.498 139.443 207.498L145.834 216.079Z" fill="white"/>
<path d="M105.187 185.057C105.187 185.057 102.817 195.491 106.377 204.061C108.646 208.251 111.039 211.272 109.949 213.339C112.128 214.585 116.767 216.809 120.406 211.519C124.056 206.229 123.045 205.499 122.821 205.948C122.596 206.397 120.395 200.501 120.484 195.84C120.574 191.178 121.866 191.392 122.63 191.493C123.405 191.594 129.032 192.156 129.032 192.156C129.032 192.156 130.099 191.931 130.054 197.839C130.009 203.747 129.807 212.53 129.807 212.53C129.807 212.53 134.501 212.249 139.05 214.192C143.599 216.135 145.767 217.528 145.767 217.528C145.767 217.528 149.44 183.732 146.991 177.948C144.543 172.163 105.187 185.057 105.187 185.057Z" fill="#8FBDE2"/>
<path d="M145.173 217.203C138.894 212.283 130.312 213.463 130.312 213.463" stroke="#7C6656" stroke-width="2.5" stroke-linecap="round" stroke-linejoin="round"/>
<path d="M146.7 169.232C146.7 169.232 148.306 198.513 145.15 218.146C144.599 221.583 136.782 222.145 132.514 221.549C128.235 220.954 126.954 217.663 127.943 215.72C128.931 213.777 130.335 213.463 130.335 213.463" stroke="#7C6656" stroke-width="2.5" stroke-linecap="round" stroke-linejoin="round"/>
<path d="M129.806 212.531C130.02 204.567 130.233 195.054 129.806 192.213C129.806 192.213 121.057 191.606 118.586 190.696" stroke="#7C6656" stroke-width="2.5" stroke-linecap="round" stroke-linejoin="round"/>
<path d="M99.9199 154.788C99.9199 154.788 105.255 166.963 100.672 185.451C100.672 185.451 136.737 188.023 153.439 182.654C153.439 182.654 150.103 166.424 148.014 155.597L149.306 144.972L143.027 145.039C143.027 145.039 107.614 146.039 104.581 145.039C101.549 144.039 99.9199 154.788 99.9199 154.788Z" fill="white"/>
<path d="M99.9199 154.788C99.9199 154.788 105.255 166.963 100.672 185.451C100.672 185.451 136.737 188.023 153.439 182.654C153.439 182.654 151.574 165.267 145.768 155.833" stroke="#7C6656" stroke-width="2.5" stroke-linecap="round" stroke-linejoin="round"/>
<path d="M107.928 147.802C108.691 149.79 111.297 153.193 118.609 153.642C124.921 154.024 130.391 150.767 132.884 146.746" stroke="#7C6656" stroke-width="2.5" stroke-linecap="round" stroke-linejoin="round"/>
<path d="M163.884 154.856C163.884 154.856 166.613 164.415 159.852 168.615" stroke="#7C6656" stroke-width="2.5" stroke-linecap="round" stroke-linejoin="round"/>
<path d="M133.671 146.814C133.671 146.814 154.438 144.321 168.13 128.159C174.801 119.488 176.632 107.515 172.173 94.7331C173.824 86.0623 178.912 69.08 163.12 52.8053C149.946 40.3719 137.007 42.3823 137.007 42.3823C137.007 42.3823 118.98 34.7673 98.4374 42.5059C77.8947 50.2445 65.1355 60.3193 60.8899 76.1559C58.5875 86.9159 63.2598 96.8559 69.1677 96.6537C69.5832 98.9001 70.01 101.079 70.01 101.079C70.01 101.079 63.5518 112.49 67.1123 124.98C70.6727 137.47 78.1418 141.872 93.2034 146.668C108.265 151.464 133.671 146.814 133.671 146.814Z" fill="white"/>
<path d="M68.5933 90.8579C68.0093 94.5643 69.3908 99.2591 69.6491 101.112C68.8966 104.223 63.7525 114.276 67.3466 125.856C70.9407 137.435 82.3296 146.443 103.703 148.555C103.703 148.555 116.171 149.139 120.495 148.251" stroke="#7C6656" stroke-width="2.5" stroke-linecap="round" stroke-linejoin="round"/>
<path d="M129.031 146.781C142.981 145.118 157.739 139.323 166.511 129.652C173.789 121.633 176.081 112.782 171.88 93.8457" stroke="#7C6656" stroke-width="2.5" stroke-linecap="round" stroke-linejoin="round"/>
<path d="M103.93 121.722C103.93 121.722 109.501 127.159 118.284 126.159C127.067 125.159 130.976 118.656 130.976 118.656" stroke="#7C6656" stroke-width="2.5" stroke-linecap="round" stroke-linejoin="round"/>
<path d="M172.521 93.7782C181.27 42.91 136.647 42.4158 136.647 42.4158C104.985 29.9711 73.8729 55.5344 73.8729 55.5344C73.8729 55.5344 51.0052 73.4264 63.989 94.8452" stroke="#7C6656" stroke-width="2.5" stroke-linecap="round" stroke-linejoin="round"/>
<path d="M134.568 57.4541C134.568 57.4541 138.499 72.965 113.98 84.3202" stroke="#7C6656" stroke-width="2.5" stroke-linecap="round" stroke-linejoin="round"/>
<path d="M141.252 66.0918C141.252 66.0918 156.819 73.3587 161.626 88.1059" stroke="#7C6656" stroke-width="2.5" stroke-linecap="round" stroke-linejoin="round"/>
<path d="M86.9023 87.7008C86.9023 87.7008 104.154 80.6024 108.568 63.8672" stroke="#7C6656" stroke-width="2.5" stroke-linecap="round" stroke-linejoin="round"/>
<path d="M115.329 50.7835C115.329 50.7835 123.157 52.9287 123.326 58.7917C123.449 63.2956 121.45 65.4857 114.453 70.1581C107.456 74.8305 93.0004 69.3719 85.0371 61.038C89.8892 55.2312 98.4477 44.213 115.329 50.7835Z" fill="#1AAF92"/>
<path d="M121.606 63.901C121.606 63.901 107.792 84.7582 84.6992 60.6887C84.6992 60.6887 98.4131 40.3033 121.326 53.6128" stroke="#7C6656" stroke-width="2.5" stroke-linecap="round" stroke-linejoin="round"/>
<path d="M103.244 60.5432C103.255 60.7903 119.474 64.1036 127.224 54.2085" stroke="#7C6656" stroke-width="2.5" stroke-linecap="round" stroke-linejoin="round"/>
<path d="M141.711 101.359C140.543 99.8316 138.432 98.8208 136.028 98.8657C133.501 98.9106 131.333 100.112 130.277 101.82" stroke="#7C6656" stroke-width="2.5" stroke-linecap="round" stroke-linejoin="round"/>
<path d="M91.1016 107.087C91.899 105.335 93.741 103.886 96.0884 103.392C98.5594 102.876 100.952 103.561 102.356 104.987" stroke="#7C6656" stroke-width="2.5" stroke-linecap="round" stroke-linejoin="round"/>
<path d="M140.039 133.582C139.949 133.29 136.973 123.103 147.351 119.924C154.258 117.813 163.479 123.271 160.087 132.818C158.403 137.558 154.236 138.816 154.236 138.816C154.236 138.816 159.312 156.775 153.213 161.212C147.115 165.648 137.703 162.167 140.162 150.081C142.218 139.962 142.454 137.502 142.454 137.502C142.454 137.502 140.499 135.121 140.039 133.582Z" fill="white"/>
<path d="M140.039 133.582C139.949 133.29 136.973 123.103 147.351 119.924C154.258 117.813 163.479 123.271 160.087 132.818C158.403 137.558 154.236 138.816 154.236 138.816C154.236 138.816 159.312 156.775 153.213 161.212C147.115 165.648 137.703 162.167 140.162 150.081C142.218 139.962 142.454 137.502 142.454 137.502C142.454 137.502 140.499 135.121 140.039 133.582Z" stroke="#7C6656" stroke-width="2.5" stroke-linecap="round" stroke-linejoin="round"/>
<path d="M101.514 138.693C101.537 138.39 102.188 127.787 91.3609 126.99C84.1614 126.451 76.3779 133.819 81.7915 142.377C84.4759 146.634 88.8225 146.937 88.8225 146.937C88.8225 146.937 87.8454 165.571 94.7753 168.558C101.705 171.546 110.107 166.053 105.041 154.811C100.795 145.398 100.02 143.051 100.02 143.051C100.02 143.051 101.391 140.299 101.514 138.693Z" fill="white"/>
<path d="M101.514 138.693C101.537 138.39 102.188 127.787 91.3609 126.99C84.1614 126.451 76.3779 133.819 81.7915 142.377C84.4759 146.634 88.8225 146.937 88.8225 146.937C88.8225 146.937 87.8454 165.571 94.7753 168.558C101.705 171.546 110.107 166.053 105.041 154.811C100.795 145.398 100.02 143.051 100.02 143.051C100.02 143.051 101.391 140.299 101.514 138.693Z" stroke="#7C6656" stroke-width="2.5" stroke-linecap="round" stroke-linejoin="round"/>
<path d="M172.284 155.845C172.284 155.845 176.26 169.559 161.861 174.557" stroke="#7C6656" stroke-width="2.5" stroke-linecap="round" stroke-linejoin="round"/>
<path d="M85.6325 158.888C85.6325 158.888 82.9032 168.446 89.6646 172.646" stroke="#7C6656" stroke-width="2.5" stroke-linecap="round" stroke-linejoin="round"/>
<path d="M77.2318 159.876C77.2318 159.876 73.2558 173.59 87.6548 178.588" stroke="#7C6656" stroke-width="2.5" stroke-linecap="round" stroke-linejoin="round"/>
<path d="M105.041 185.787C105.041 185.787 100.919 202.545 110.938 210.665" stroke="#7C6656" stroke-width="2.5" stroke-linecap="round" stroke-linejoin="round"/>
<path d="M110.072 210.644C110.072 210.644 108.668 219.618 115.362 220.235C122.067 220.853 126.818 213.699 125.875 209.543C124.931 205.387 122.629 205.803 122.629 205.803C122.629 205.803 119.091 198.244 121.034 192.066" stroke="#7C6656" stroke-width="2.5" stroke-linecap="round" stroke-linejoin="round"/>
<path d="M122.641 205.813C122.641 205.813 122.495 217.977 110.039 214.046" stroke="#7C6656" stroke-width="2.5" stroke-linecap="round" stroke-linejoin="round"/>
<g filter="url(#filter0_f_522_14408)">
<path d="M158.199 109.347L154.994 113.972L152.857 108.356L148.048 113.972L146.445 108.356L142.475 113.378" stroke="#F5B0B0" stroke-width="5" stroke-linecap="round" stroke-linejoin="round"/>
</g>
<g filter="url(#filter1_f_522_14408)">
<path d="M96.4255 118.333L93.2199 122.958L91.0829 117.342L86.2745 122.958L84.6717 117.342L80.7012 122.363" stroke="#F5B0B0" stroke-width="5" stroke-linecap="round" stroke-linejoin="round"/>
</g>
</g>
<defs>
<filter id="filter0_f_522_14408" x="137.975" y="103.856" width="24.7246" height="14.6162" filterUnits="userSpaceOnUse" color-interpolation-filters="sRGB">
<feFlood flood-opacity="0" result="BackgroundImageFix"/>
<feBlend mode="normal" in="SourceGraphic" in2="BackgroundImageFix" result="shape"/>
<feGaussianBlur stdDeviation="1" result="effect1_foregroundBlur_522_14408"/>
</filter>
<filter id="filter1_f_522_14408" x="76.2012" y="112.842" width="24.7246" height="14.6162" filterUnits="userSpaceOnUse" color-interpolation-filters="sRGB">
<feFlood flood-opacity="0" result="BackgroundImageFix"/>
<feBlend mode="normal" in="SourceGraphic" in2="BackgroundImageFix" result="shape"/>
<feGaussianBlur stdDeviation="1" result="effect1_foregroundBlur_522_14408"/>
</filter>
<clipPath id="clip0_522_14408">
<rect width="256" height="256" fill="white"/>
</clipPath>
</defs>
</svg>
