<svg width="256" height="256" viewBox="0 0 256 256" fill="none" xmlns="http://www.w3.org/2000/svg">
<g clip-path="url(#clip0_522_15122)">
<path opacity="0.4" d="M128 229C167.765 229 200 224.971 200 220C200 215.029 167.765 211 128 211C88.2355 211 56 215.029 56 220C56 224.971 88.2355 229 128 229Z" fill="#E1D6CF"/>
<path d="M71.3445 108.579L72.4593 116.94L76.9187 125.859L84.1651 132.548L93.0838 137.007L98.1006 139.795L94.1986 148.156L93.0838 154.287V158.747L96.9857 166.551L100.33 168.78V178.814V194.979L98.1006 207.799L96.9857 211.701L94.7561 213.374L94.1986 217.833L98.1006 220.063H103.675L110.921 217.833L114.266 212.816L116.495 202.783L119.84 189.405H130.988L134.333 212.259L135.448 216.161L138.792 217.833L143.251 218.948H149.94L152.17 216.718V212.816L149.94 209.472L148.268 203.34V193.307H152.17H157.744L163.876 191.634L171.68 189.405L175.582 188.847L170.007 181.601L166.106 171.01L170.565 169.338L173.352 164.321V159.862L171.68 156.517L168.335 154.287L164.991 153.73L160.531 154.845L155.515 153.73L150.498 148.156L146.596 142.582L148.268 140.909L158.859 137.007L168.335 131.433L176.696 123.072L178.926 109.137L176.696 98.5456L175.024 92.414L181.156 77.9212V69.5599L176.696 58.969L169.45 50.6077L157.744 42.8038L143.251 37.7871L129.873 35L117.61 35.5574L106.462 37.7871L100.33 41.1316L93.0838 42.8038L80.8206 49.4929L73.0168 58.969L68.5574 70.1173L68 81.2657L69.6723 90.7418L71.9019 97.4308L71.3445 108.579Z" fill="white"/>
<path d="M150.422 177.903C150.422 177.903 103.911 177.446 100.901 177.234C100.488 180.947 101.893 202.731 97.7344 209.743C100.265 211.649 113.275 213.377 113.275 213.377C113.275 213.377 119.284 192.051 119.63 189.185C119.63 189.185 130.143 190.624 130.399 190.033C130.655 189.442 130.143 190.624 130.143 190.624L134.513 213.545C134.513 213.545 140.232 210.613 149.753 209.854C148.85 205.518 148.27 198.271 148.961 193.455C149.641 188.639 150.422 177.914 150.422 177.914V177.903Z" fill="#6594C9"/>
<path d="M98.6124 210.458C98.6124 210.458 95.1564 211.651 94.6882 214.416C94.2311 217.18 94.521 219.811 101.89 219.811C108.133 219.811 111.032 217.225 113.272 213.379" stroke="#7C6656" stroke-width="2.5" stroke-linecap="round" stroke-linejoin="round"/>
<path d="M130.654 189.439C130.654 189.439 133.207 212.606 135.281 215.371C137.354 218.135 143.453 219.172 147.711 218.704C151.97 218.247 153.352 215.025 152.427 213.063C151.502 211.101 149.317 210.376 149.317 210.376" stroke="#7C6656" stroke-width="2.5" stroke-linecap="round" stroke-linejoin="round"/>
<path d="M148.168 150.042C148.168 150.042 151.791 162.941 150.409 177.902C149.026 192.874 146.708 198.103 149.74 209.853" stroke="#7C6656" stroke-width="2.5" stroke-linecap="round" stroke-linejoin="round"/>
<path d="M101.134 153.407C101.134 153.407 100.365 181.624 100.32 192.081C100.275 202.538 97.4883 210.643 97.4883 210.643C97.4883 210.643 109.841 210.821 113.531 213.374C114.389 211.446 114.679 210.286 115.047 208.525C116.563 201.234 119.618 189.182 119.618 189.182C119.618 189.182 132.394 190.219 135.27 188.603" stroke="#7C6656" stroke-width="2.5" stroke-linecap="round" stroke-linejoin="round"/>
<path d="M150.665 211.088C150.665 211.088 141.658 209.315 135.27 213.998" stroke="#7C6656" stroke-width="2.5" stroke-linecap="round" stroke-linejoin="round"/>
<path d="M139.561 142.851C138.892 145.08 136.384 148.971 128.736 149.963C122.136 150.822 116.183 147.633 113.307 143.419" stroke="#7C6656" stroke-width="2.5" stroke-linecap="round" stroke-linejoin="round"/>
<path d="M173.342 80.9434C174.334 84.5331 173.498 89.3269 173.454 91.1775C174.535 94.1653 180.745 103.508 178.481 115.325C176.23 127.142 165.995 137.298 145.159 141.769C145.159 141.769 132.918 143.731 128.57 143.341" stroke="#7C6656" stroke-width="2.5" stroke-linecap="round" stroke-linejoin="round"/>
<path d="M119.974 142.848C106.027 142.77 90.8318 138.69 81.0993 130.139C73.0167 123.037 69.7726 114.565 71.8016 95.4229" stroke="#7C6656" stroke-width="2.5" stroke-linecap="round" stroke-linejoin="round"/>
<g filter="url(#filter0_f_522_15122)">
<path d="M153.896 115.692C158.852 115.745 162.897 113.417 162.931 110.491C162.964 107.565 158.974 105.15 154.017 105.097C149.061 105.043 145.016 107.372 144.982 110.298C144.949 113.223 148.94 115.638 153.896 115.692Z" fill="#F5B0B0"/>
</g>
<g filter="url(#filter1_f_522_15122)">
<path d="M100.013 116.469C104.97 116.522 109.015 114.194 109.048 111.268C109.082 108.342 105.091 105.927 100.134 105.874C95.1781 105.82 91.133 108.149 91.0996 111.074C91.0661 114 95.0569 116.415 100.013 116.469Z" fill="#F5B0B0"/>
</g>
<path d="M71.1664 95.426C56.8519 46.2283 100.821 40.7656 100.821 40.7656C130.665 24.9461 164.199 46.6965 164.199 46.6965C164.199 46.6965 188.748 61.7914 178.347 84.3668" stroke="#7C6656" stroke-width="2.5" stroke-linecap="round" stroke-linejoin="round"/>
<path d="M150.421 177.902H101" stroke="#7C6656" stroke-width="2.5" stroke-linecap="round" stroke-linejoin="round"/>
<path d="M104.544 55.3574C104.544 55.3574 102.404 71.0878 127.856 79.5605" stroke="#7C6656" stroke-width="2.5" stroke-linecap="round" stroke-linejoin="round"/>
<path d="M98.914 64.6348C98.914 64.6348 84.3766 73.5423 81.2773 88.6149" stroke="#7C6656" stroke-width="2.5" stroke-linecap="round" stroke-linejoin="round"/>
<path d="M154.935 79.873C154.935 79.873 137.131 74.8005 130.91 58.7803" stroke="#7C6656" stroke-width="2.5" stroke-linecap="round" stroke-linejoin="round"/>
<path d="M122.773 46.6395C122.773 46.6395 115.292 49.6273 115.783 55.4356C116.162 59.8949 118.38 61.8236 125.805 65.6475C133.23 69.4714 146.876 62.4813 153.799 53.362C148.37 48.1669 138.693 38.2671 122.784 46.6284L122.773 46.6395Z" fill="#1BAE91"/>
<path d="M118.045 60.2653C118.045 60.2653 133.998 79.2955 154.087 52.9854C154.087 52.9854 138.29 34.4122 117.164 50.098" stroke="#7C6656" stroke-width="2.5" stroke-linecap="round" stroke-linejoin="round"/>
<path d="M135.793 54.9132C135.804 55.1584 120.186 60.2421 111.445 51.3457" stroke="#7C6656" stroke-width="2.5" stroke-linecap="round" stroke-linejoin="round"/>
<path d="M102.402 99.4636C103.383 97.8248 105.357 96.5985 107.731 96.3755C110.228 96.1414 112.503 97.0779 113.74 98.6498" stroke="#7C6656" stroke-width="2.5" stroke-linecap="round" stroke-linejoin="round"/>
<path d="M152.951 99.4636C151.97 97.8248 149.997 96.5985 147.622 96.3755C145.125 96.1414 142.851 97.0779 141.613 98.6498" stroke="#7C6656" stroke-width="2.5" stroke-linecap="round" stroke-linejoin="round"/>
<path d="M147.23 142.851C147.23 142.851 152.615 154.712 161.5 154.79" stroke="#7C6656" stroke-width="2.5" stroke-linecap="round" stroke-linejoin="round"/>
<path d="M164.29 160.285C164.29 160.285 139.563 163.429 128.426 160.285C128.426 160.285 130.968 167.164 131.982 175.046C132.785 181.278 131.726 188.201 133.922 192.47C133.922 192.47 151.748 194.132 157.924 193.017C164.602 191.802 172.161 188.123 175.907 189.817C175.907 189.817 167.434 180.742 165.985 172.27C164.535 163.797 164.29 160.285 164.29 160.285Z" fill="#BCE3F9"/>
<path d="M164.29 160.285C164.29 160.285 139.563 163.429 128.426 160.285C128.426 160.285 130.968 167.164 131.982 175.046C132.785 181.278 131.726 188.201 133.922 192.47C133.922 192.47 151.748 194.132 157.924 193.017C164.602 191.802 172.161 188.123 175.907 189.817C175.907 189.817 167.434 180.742 165.985 172.27C164.535 163.797 164.29 160.285 164.29 160.285Z" stroke="#7C6656" stroke-width="2.5" stroke-linecap="round" stroke-linejoin="round"/>
<path d="M132.227 164.023C132.227 164.023 139.362 170.935 146.385 171.66" stroke="#7C6656" stroke-width="2.5" stroke-linecap="round" stroke-linejoin="round"/>
<path d="M161.993 165.729C161.993 165.729 158.726 170.077 155.705 171.025" stroke="#7C6656" stroke-width="2.5" stroke-linecap="round" stroke-linejoin="round"/>
<mask id="mask0_522_15122" style="mask-type:luminance" maskUnits="userSpaceOnUse" x="128" y="160" width="48" height="34">
<path d="M164.29 160.282C164.29 160.282 139.563 163.426 128.426 160.282C128.426 160.282 130.968 167.161 131.982 175.043C132.785 181.275 131.726 188.198 133.922 192.468C133.922 192.468 151.748 194.129 157.924 193.014C164.602 191.799 172.161 188.12 175.907 189.814C175.907 189.814 167.434 180.739 165.985 172.267C164.535 163.794 164.29 160.282 164.29 160.282Z" fill="white"/>
</mask>
<g mask="url(#mask0_522_15122)">
<g style="mix-blend-mode:darken">
<g style="mix-blend-mode:multiply">
<path d="M137.824 159.33C137.824 159.33 140.533 172.273 140.834 179.052C141.146 185.83 143.766 194.459 143.766 194.459" stroke="#9BD7F6" stroke-width="2.5" stroke-miterlimit="10"/>
<path d="M147.223 160.287C147.223 160.287 149.909 173.353 150.288 178.894C150.667 184.446 154.748 194.457 154.748 194.457" stroke="#9BD7F6" stroke-width="2.5" stroke-miterlimit="10"/>
<path d="M155.695 160.287C155.695 160.287 160.099 188.136 168.873 194.457" stroke="#9BD7F6" stroke-width="2.5" stroke-miterlimit="10"/>
</g>
<g style="mix-blend-mode:multiply">
<path d="M173.199 183.386C173.199 183.386 166.165 182.327 159.085 184.478C151.995 186.63 134.325 185.292 128.572 184.478" stroke="#9BD7F6" stroke-width="2.5" stroke-miterlimit="10"/>
</g>
<g style="mix-blend-mode:multiply">
<path d="M168.883 175.246C168.883 175.246 157.524 176.952 152.964 178.022C148.393 179.092 133.12 177.866 128.438 176.628" stroke="#9BD7F6" stroke-width="2.5" stroke-miterlimit="10"/>
</g>
<g style="mix-blend-mode:multiply">
<path d="M166.576 167.847C166.576 167.847 145.316 170.957 127.289 167.914" stroke="#9BD7F6" stroke-width="2.5" stroke-miterlimit="10"/>
</g>
</g>
</g>
<path d="M104.545 152.18C107.444 161.132 121.39 157.509 121.39 157.509C121.39 157.509 123.14 154.666 126.909 154.577C134.512 154.41 136.407 162.716 133.497 167.42C129.462 173.942 122.36 169.605 122.36 169.605C122.36 169.605 106.362 173.474 98.3465 167.186C90.342 160.898 90.5203 148.791 98.9039 140.207" fill="white"/>
<path d="M104.545 152.18C107.444 161.132 121.39 157.509 121.39 157.509C121.39 157.509 123.14 154.666 126.909 154.577C134.512 154.41 136.407 162.716 133.497 167.42C129.462 173.942 122.36 169.605 122.36 169.605C122.36 169.605 106.362 173.474 98.3465 167.186C90.342 160.898 90.5203 148.791 98.9039 140.207" stroke="#7C6656" stroke-width="2.5" stroke-linecap="round" stroke-linejoin="round"/>
<path d="M165.893 170.041C170.295 170.041 173.864 166.317 173.864 161.724C173.864 157.131 170.295 153.407 165.893 153.407C161.491 153.407 157.922 157.131 157.922 161.724C157.922 166.317 161.491 170.041 165.893 170.041Z" fill="white" stroke="#7C6656" stroke-width="2.5" stroke-linecap="round" stroke-linejoin="round"/>
<path d="M106.729 155.615C106.729 155.615 99.5937 159.238 94.5547 158.859" stroke="#7C6656" stroke-width="2.5" stroke-linecap="round" stroke-linejoin="round"/>
<path d="M152.705 151.247C152.705 151.247 150.798 153.031 149.449 153.41" stroke="#7C6656" stroke-width="2.5" stroke-linecap="round" stroke-linejoin="round"/>
<path d="M180.209 150.378C180.209 150.378 181.781 138.571 188.827 135.874C195.872 133.176 198.994 141.247 194.423 144.58C189.863 147.903 186.318 143.945 180.209 150.389V150.378Z" fill="#EBF8FF"/>
<path d="M179.707 153.411C179.707 153.411 193.598 147.425 199.819 154.147C203.063 157.648 202.282 160.067 200.109 162.085C198.336 163.735 195.248 164.002 193.52 163.01C188.28 160 190.365 153.423 179.707 153.423V153.411Z" fill="#56C3F1"/>
<path d="M84.1663 157.221C84.1663 157.221 80.1974 162.104 84.1663 169.027" stroke="#7C6656" stroke-width="2.5" stroke-linecap="round" stroke-linejoin="round"/>
<path d="M75.2467 161.725C75.2467 161.725 70.8431 171.234 83.2847 177.221" stroke="#7C6656" stroke-width="2.5" stroke-linecap="round" stroke-linejoin="round"/>
<path d="M135.738 112.738L119.762 112.861C119.762 112.861 114.657 133.742 127.421 135.035C138.347 136.139 138.637 127.878 135.738 112.738Z" fill="#F2999F" stroke="#7C6656" stroke-width="2.5" stroke-linecap="round" stroke-linejoin="round"/>
</g>
<defs>
<filter id="filter0_f_522_15122" x="141.897" y="102.01" width="24.1207" height="16.7686" filterUnits="userSpaceOnUse" color-interpolation-filters="sRGB">
<feFlood flood-opacity="0" result="BackgroundImageFix"/>
<feBlend mode="normal" in="SourceGraphic" in2="BackgroundImageFix" result="shape"/>
<feGaussianBlur stdDeviation="1.54286" result="effect1_foregroundBlur_522_15122"/>
</filter>
<filter id="filter1_f_522_15122" x="88.0139" y="102.787" width="24.1207" height="16.7686" filterUnits="userSpaceOnUse" color-interpolation-filters="sRGB">
<feFlood flood-opacity="0" result="BackgroundImageFix"/>
<feBlend mode="normal" in="SourceGraphic" in2="BackgroundImageFix" result="shape"/>
<feGaussianBlur stdDeviation="1.54286" result="effect1_foregroundBlur_522_15122"/>
</filter>
<clipPath id="clip0_522_15122">
<rect width="256" height="256" fill="white"/>
</clipPath>
</defs>
</svg>
