<svg width="256" height="256" viewBox="0 0 256 256" fill="none" xmlns="http://www.w3.org/2000/svg">
<g clip-path="url(#clip0_522_15525)">
<path opacity="0.4" d="M128 224C167.765 224 200 219.971 200 215C200 210.029 167.765 206 128 206C88.2355 206 56 210.029 56 215C56 219.971 88.2355 224 128 224Z" fill="#E1D6CF"/>
<path d="M175.745 124.052L170.828 129.515L173.56 131.701L176.291 136.618L177.93 150.277L172.467 161.204L164.818 165.575L159.354 166.667V173.224L156.623 173.77L155.53 179.234L153.891 189.614L154.437 200.541L155.53 204.366L157.715 207.644L154.984 212.015L148.974 212.561L143.51 212.015L140.778 209.283L139.139 205.458L136.408 184.151H125.481L121.11 202.18L118.378 207.644L113.461 212.015L108.544 213.107H103.08L100.895 210.922V207.644L103.08 205.458C103.626 204.002 104.719 200.869 104.719 199.995C104.719 199.121 105.812 195.26 106.358 193.439V180.326V175.409V173.224V166.667L100.895 165.575L89.4213 161.204L85.5968 153.555L84.5041 143.174L86.6895 134.433L89.4213 130.062L84.5041 126.784L79.0406 116.949L77.4015 104.93V97.2807L72.4844 82.5292V69.963L74.1234 62.8605L77.4015 56.8506L85.0505 48.6553L94.3385 43.7381L100.895 41.0064L103.626 39.9137L114.554 34.9965L129.305 33.3574L142.964 34.9965L159.901 39.9137L170.281 46.4699L177.384 53.5725L180.662 61.2214L182.301 70.5094L180.662 77.0656L177.93 88.539L180.116 92.9099L182.301 100.559L182.848 108.754L180.662 116.949L175.745 124.052Z" fill="white"/>
<path d="M156.031 172.437C156.031 172.437 109.82 171.989 106.881 171.781C106.476 175.42 107.853 196.771 103.777 203.645C106.258 205.513 119.01 207.207 119.01 207.207C119.01 207.207 124.899 186.303 125.238 183.495C125.238 183.495 135.542 184.905 135.794 184.326C136.045 183.746 135.542 184.905 135.542 184.905L139.826 207.371C139.826 207.371 145.431 204.497 154.763 203.754C153.878 199.503 153.31 192.401 153.987 187.68C154.654 182.96 156.041 172.448 156.041 172.448L156.031 172.437Z" fill="#8FBDE2"/>
<path d="M104.631 204.345C104.631 204.345 101.244 205.514 100.785 208.224C100.337 210.934 100.621 213.502 107.844 213.513C113.963 213.513 116.804 210.977 119 207.208" stroke="#7C6656" stroke-width="2.5" stroke-linecap="round" stroke-linejoin="round"/>
<path d="M136.047 183.746C136.047 183.746 138.549 206.453 140.582 209.163C142.614 211.873 148.591 212.889 152.765 212.43C156.939 211.982 158.294 208.824 157.387 206.901C156.48 204.978 154.339 204.267 154.339 204.267" stroke="#7C6656" stroke-width="2.5" stroke-linecap="round" stroke-linejoin="round"/>
<path d="M153.213 145.13C153.213 145.13 157.387 157.772 156.032 172.437C154.677 187.112 151.792 192.236 154.754 203.754" stroke="#7C6656" stroke-width="2.5" stroke-linecap="round" stroke-linejoin="round"/>
<path d="M107.112 148.43C107.112 148.43 106.358 176.086 106.315 186.336C106.271 196.585 103.539 204.529 103.539 204.529C103.539 204.529 115.646 204.704 119.263 207.206C120.104 205.316 120.389 204.18 120.749 202.453C122.235 195.307 125.229 183.495 125.229 183.495C125.229 183.495 137.752 184.511 140.571 182.926" stroke="#7C6656" stroke-width="2.5" stroke-linecap="round" stroke-linejoin="round"/>
<path d="M155.661 204.967C155.661 204.967 146.832 203.23 140.57 207.819" stroke="#7C6656" stroke-width="2.5" stroke-linecap="round" stroke-linejoin="round"/>
<path d="M143.554 139.481C142.374 141.623 139.61 144.267 133.545 145.054C127.076 145.896 122.389 144.202 119.559 140.072" stroke="#7C6656" stroke-width="2.5" stroke-linecap="round" stroke-linejoin="round"/>
<path d="M156.032 172.437H106.98" stroke="#7C6656" stroke-width="2.5" stroke-linecap="round" stroke-linejoin="round"/>
<g filter="url(#filter0_f_522_15525)">
<path d="M162.536 111.369C167.988 110.693 172.096 107.632 171.711 104.532C171.327 101.432 166.596 99.4671 161.145 100.143C155.693 100.819 151.585 103.88 151.969 106.98C152.354 110.08 157.085 112.045 162.536 111.369Z" fill="#F5B0B0"/>
</g>
<g filter="url(#filter1_f_522_15525)">
<path d="M108.333 119.159C113.785 118.483 117.893 115.422 117.508 112.322C117.124 109.222 112.393 107.257 106.941 107.933C101.49 108.609 97.3819 111.67 97.7662 114.77C98.1505 117.87 102.881 119.835 108.333 119.159Z" fill="#F5B0B0"/>
</g>
<path d="M122.169 98.7342C122.748 103.477 119.372 107.804 114.629 108.383C109.887 108.962 105.56 105.585 104.981 100.843C104.402 96.1008 107.778 91.7737 112.52 91.1945C117.263 90.6154 121.59 93.9919 122.169 98.7342Z" fill="#7C6656"/>
<path d="M116.914 107.411C116.914 107.411 114.302 104.242 116.149 102.406C117.996 100.571 121.711 101.729 121.711 101.729C121.918 98.4508 121.11 96.7243 121.11 96.7243C119.405 97.9481 116.291 98.0028 115.362 96.7243C113.734 94.4733 115.013 92.0584 115.013 92.0584L115.34 91.6432C115.34 91.6432 113.592 90.8346 112.03 91.2608C110.478 91.6978 109.997 92.6594 109.997 92.6594C109.997 92.6594 111.822 94.7028 110.784 97.2706C110.194 98.7239 107.156 99.4233 105.211 98.6475C105.211 98.6475 104.85 100.516 105.834 103.641C105.834 103.641 109.167 101.62 111.396 102.964C113.625 104.308 111.866 108.012 111.866 108.012C111.866 108.012 113.395 108.602 114.619 108.362C115.843 108.121 116.903 107.389 116.903 107.389L116.914 107.411Z" fill="white" stroke="#7C6656" stroke-linecap="round" stroke-linejoin="round"/>
<path d="M122.169 98.7342C122.748 103.477 119.372 107.804 114.629 108.383C109.887 108.962 105.56 105.585 104.981 100.843C104.402 96.1008 107.778 91.7737 112.52 91.1945C117.263 90.6154 121.59 93.9919 122.169 98.7342Z" stroke="#7C6656" stroke-width="2" stroke-linecap="round" stroke-linejoin="round"/>
<path d="M161.901 92.5936C162.48 97.3359 159.104 101.663 154.362 102.242C149.619 102.821 145.292 99.4448 144.713 94.7025C144.134 89.9601 147.51 85.633 152.253 85.0539C156.995 84.4748 161.322 87.8512 161.901 92.5936Z" fill="#7C6656"/>
<path d="M156.633 101.268C156.633 101.268 154.021 98.0995 155.868 96.2638C157.714 94.428 161.43 95.5863 161.43 95.5863C161.637 92.3082 160.829 90.5817 160.829 90.5817C159.124 91.8055 156.01 91.8602 155.081 90.5817C153.453 88.3417 154.731 85.9159 154.731 85.9159L155.059 85.5006C155.059 85.5006 153.311 84.692 151.748 85.1182C150.197 85.5553 149.716 86.5169 149.716 86.5169C149.716 86.5169 151.541 88.5602 150.503 91.1281C149.913 92.5814 146.875 93.2807 144.93 92.5049C144.93 92.5049 144.569 94.3734 145.553 97.4985C145.553 97.4985 148.885 95.477 151.114 96.8211C153.344 98.1651 151.584 101.869 151.584 101.869C151.584 101.869 153.114 102.459 154.338 102.219C155.562 101.979 156.622 101.247 156.622 101.247L156.633 101.268Z" fill="white" stroke="#7C6656" stroke-linecap="round" stroke-linejoin="round"/>
<path d="M161.901 92.5936C162.48 97.3359 159.104 101.663 154.362 102.242C149.619 102.821 145.292 99.4448 144.713 94.7025C144.134 89.9601 147.51 85.633 152.253 85.0539C156.995 84.4748 161.322 87.8512 161.901 92.5936Z" stroke="#7C6656" stroke-width="2" stroke-linecap="round" stroke-linejoin="round"/>
<path d="M175.679 75.7324C176.859 79.1854 176.335 83.9168 176.4 85.7307C177.646 88.5826 184.279 97.3461 182.782 109.049C181.296 120.752 171.899 131.307 151.782 136.935C151.782 136.935 139.926 139.601 135.643 139.47" stroke="#7C6656" stroke-width="2.5" stroke-linecap="round" stroke-linejoin="round"/>
<path d="M127.219 139.514C113.571 140.279 98.4481 137.208 88.4171 129.439C80.0797 122.981 76.3973 114.884 77.2278 96.0352" stroke="#7C6656" stroke-width="2.5" stroke-linecap="round" stroke-linejoin="round"/>
<path d="M76.2979 96.1002C59.3172 48.8297 101.987 40.8311 101.987 40.8311C130.223 23.5445 164.348 42.798 164.348 42.798C164.348 42.798 189.284 56.0853 180.465 78.7917" stroke="#7C6656" stroke-width="2.5" stroke-linecap="round" stroke-linejoin="round"/>
<path d="M106.828 54.8613C106.828 54.8613 105.681 70.3777 131.097 77.1197" stroke="#7C6656" stroke-width="2.5" stroke-linecap="round" stroke-linejoin="round"/>
<path d="M101.888 64.2705C101.888 64.2705 88.2077 73.8645 86.0879 88.8017" stroke="#7C6656" stroke-width="2.5" stroke-linecap="round" stroke-linejoin="round"/>
<path d="M157.607 75.7981C157.607 75.7981 139.883 71.908 132.824 56.6211" stroke="#7C6656" stroke-width="2.5" stroke-linecap="round" stroke-linejoin="round"/>
<path d="M124.136 45.2248C124.136 45.2248 117 48.6013 117.831 54.2505C118.476 58.5886 120.759 60.3478 128.244 63.6369C135.74 66.9259 148.667 59.2661 154.885 49.9234C149.257 45.1702 139.193 36.0679 124.136 45.2139V45.2248Z" fill="#1AAF92"/>
<path d="M120.333 58.8505C120.333 58.8505 137.085 76.4977 155.158 49.5407C155.158 49.5407 138.571 32.3306 118.869 48.9506" stroke="#7C6656" stroke-width="2" stroke-linecap="round" stroke-linejoin="round"/>
<path d="M137.37 52.5342C137.402 52.7746 122.421 58.6861 113.33 50.5127" stroke="#7C6656" stroke-width="2" stroke-linecap="round" stroke-linejoin="round"/>
<path d="M153.312 145.534C153.214 145.13 159.945 160.209 159.65 172.896C159.65 172.896 129.983 177.802 105.703 174.775C105.703 174.775 106.861 152.976 107.364 147.523" fill="white"/>
<path d="M153.312 145.534C153.214 145.13 159.945 160.209 159.65 172.896C159.65 172.896 129.983 177.802 105.703 174.775C105.703 174.775 106.861 152.976 107.364 147.523" stroke="#7C6656" stroke-width="2.5" stroke-linecap="round" stroke-linejoin="round"/>
<path d="M163.321 125.09C163.321 125.09 174.149 126.466 177.176 138.803C179.547 148.484 176.258 154.888 176.258 154.888C170.729 168.842 156.469 165.957 156.469 165.957C153.727 168.077 138.626 174.928 136.44 166.601C135.249 162.045 138.888 159.739 143.357 158.515C147.804 157.303 152.295 153.019 149.629 147.588C146.963 142.147 141.816 142.835 139.139 143.917C136.473 144.999 132.386 144.802 131.829 141.054C131.25 137.197 134.692 133.482 140.09 132.979C141.445 132.859 142.767 132.826 144.045 132.902C144.045 132.902 144.362 133.831 144.133 131.089C143.892 128.346 140.243 125.264 145.794 123.702C150.908 124.532 153.017 125.079 153.017 125.079C153.017 125.079 153.618 122.358 158.054 122.609C162.49 122.86 163.321 125.079 163.321 125.079V125.09Z" fill="white"/>
<path d="M145.782 133.067C145.782 133.067 140.886 128.543 143.465 125.003C146.044 121.463 157.517 125.342 163.68 135.209" stroke="#7C6656" stroke-width="2.5" stroke-linecap="round" stroke-linejoin="round"/>
<path d="M153.004 124.392C153.004 124.392 152.938 122.753 156.555 122.611C161.352 122.436 168.881 129.342 170.302 134.335" stroke="#7C6656" stroke-width="2.5" stroke-linecap="round" stroke-linejoin="round"/>
<path d="M153.868 136.093C150.448 133.569 145.476 132.477 140.078 132.979C134.68 133.482 131.238 137.186 131.817 141.054C132.375 144.813 136.461 145.01 139.127 143.917C141.794 142.835 146.951 142.147 149.617 147.589C152.284 153.03 147.793 157.303 143.345 158.516C138.876 159.74 135.237 162.045 136.428 166.602C138.614 174.928 153.704 168.077 156.458 165.957C156.458 165.957 170.718 168.842 176.247 154.888C176.247 154.888 179.547 148.496 177.165 138.803C174.138 126.467 163.309 125.09 163.309 125.09" stroke="#7C6656" stroke-width="2.5" stroke-linecap="round" stroke-linejoin="round"/>
<path d="M99.0799 125.09C99.0799 125.09 88.2512 126.466 85.2244 138.803C82.8532 148.484 86.1423 154.888 86.1423 154.888C91.6714 168.842 105.931 165.957 105.931 165.957C108.674 168.077 123.775 174.928 125.96 166.601C127.151 162.045 123.513 159.739 119.044 158.515C114.596 157.303 110.105 153.019 112.771 147.588C115.438 142.147 120.584 142.835 123.261 143.917C125.928 144.999 130.014 144.802 130.572 141.054C131.151 137.197 127.709 133.482 122.311 132.979C120.956 132.859 119.634 132.826 118.355 132.902C118.355 132.902 118.038 133.831 118.268 131.089C118.508 128.346 122.158 125.264 116.607 123.702C111.493 124.532 109.384 125.079 109.384 125.079C109.384 125.079 108.783 122.358 104.347 122.609C99.8994 122.85 99.0799 125.079 99.0799 125.079V125.09Z" fill="white"/>
<path d="M116.619 133.067C116.619 133.067 121.515 128.543 118.936 125.003C116.357 121.451 104.873 125.341 98.7207 135.209" stroke="#7C6656" stroke-width="2.5" stroke-linecap="round" stroke-linejoin="round"/>
<path d="M109.385 124.392C109.385 124.392 109.451 122.753 105.834 122.611C101.037 122.436 93.5084 129.342 92.0879 134.335" stroke="#7C6656" stroke-width="2.5" stroke-linecap="round" stroke-linejoin="round"/>
<path d="M108.52 136.093C111.94 133.569 116.912 132.477 122.31 132.979C127.708 133.482 131.15 137.186 130.57 141.054C130.013 144.813 125.926 145.01 123.26 143.917C120.594 142.835 115.437 142.147 112.77 147.589C110.104 153.03 114.595 157.303 119.042 158.516C123.512 159.74 127.15 162.045 125.959 166.602C123.774 174.928 108.684 168.077 105.93 165.957C105.93 165.957 91.6702 168.842 86.1411 154.888C86.1411 154.888 82.8411 148.496 85.2232 138.803C88.2391 126.467 99.0787 125.09 99.0787 125.09" stroke="#7C6656" stroke-width="2.5" stroke-linecap="round" stroke-linejoin="round"/>
<path d="M128.32 112.13C135.467 113.245 136.221 107.836 136.221 107.836L135.849 105.585" stroke="#7C6656" stroke-width="2" stroke-linecap="round" stroke-linejoin="round"/>
<path d="M145.073 109.344C138.68 112.709 136.211 107.836 136.211 107.836" stroke="#7C6656" stroke-width="2" stroke-linecap="round" stroke-linejoin="round"/>
<path d="M131.118 150.595C129.883 148.267 126.78 146.803 124.168 148.879C121.884 150.726 121.546 154.485 123.513 157.566C125.184 160.189 128.124 162.134 131.041 163.281C133.97 162.166 136.942 160.254 138.625 157.643C140.624 154.583 140.318 150.802 138.045 148.956C135.467 146.836 132.331 148.267 131.107 150.584L131.118 150.595Z" fill="#EE7474"/>
</g>
<defs>
<filter id="filter0_f_522_15525" x="147.945" y="96.0098" width="27.791" height="19.4922" filterUnits="userSpaceOnUse" color-interpolation-filters="sRGB">
<feFlood flood-opacity="0" result="BackgroundImageFix"/>
<feBlend mode="normal" in="SourceGraphic" in2="BackgroundImageFix" result="shape"/>
<feGaussianBlur stdDeviation="2" result="effect1_foregroundBlur_522_15525"/>
</filter>
<filter id="filter1_f_522_15525" x="93.7422" y="103.8" width="27.791" height="19.4922" filterUnits="userSpaceOnUse" color-interpolation-filters="sRGB">
<feFlood flood-opacity="0" result="BackgroundImageFix"/>
<feBlend mode="normal" in="SourceGraphic" in2="BackgroundImageFix" result="shape"/>
<feGaussianBlur stdDeviation="2" result="effect1_foregroundBlur_522_15525"/>
</filter>
<clipPath id="clip0_522_15525">
<rect width="256" height="256" fill="white"/>
</clipPath>
</defs>
</svg>
