<svg width="256" height="256" viewBox="0 0 256 256" fill="none" xmlns="http://www.w3.org/2000/svg">
<g clip-path="url(#clip0_522_13862)">
<path d="M160.921 144.282C161.951 143.282 166.801 138.992 174.651 138.862C183.541 138.712 203.841 144.712 202.651 165.492C202.651 165.492 213.421 176.482 202.701 189.082C202.701 189.082 204.581 196.642 213.171 193.832C213.171 193.832 199.541 203.462 190.061 200.052C190.061 200.052 190.951 209.242 178.801 215.312C166.651 221.382 154.801 215.012 154.801 215.012C154.801 215.012 149.001 226.122 121.961 226.122C97.3206 226.122 91.6906 209.082 91.6906 209.082C91.6906 209.082 72.1306 216.932 61.1706 199.012C52.8706 185.442 62.9506 172.202 66.5006 171.902C66.5006 171.902 62.9806 165.472 67.7506 160.772C73.0306 155.572 79.8306 159.462 79.8306 159.462C79.8306 159.462 78.3506 145.022 91.6806 139.832C108.251 133.392 115.991 145.082 115.991 145.082" fill="#F5FBFF"/>
<path d="M160.921 144.282C161.951 143.282 166.801 138.992 174.651 138.862C183.541 138.712 203.841 144.712 202.651 165.492C202.651 165.492 213.421 176.482 202.701 189.082C202.701 189.082 204.581 196.642 213.171 193.832C213.171 193.832 199.541 203.462 190.061 200.052C190.061 200.052 190.951 209.242 178.801 215.312C166.651 221.382 154.801 215.012 154.801 215.012C154.801 215.012 149.001 226.122 121.961 226.122C97.3206 226.122 91.6906 209.082 91.6906 209.082C91.6906 209.082 72.1306 216.932 61.1706 199.012C52.8706 185.442 62.9506 172.202 66.5006 171.902C66.5006 171.902 62.9806 165.472 67.7506 160.772C73.0306 155.572 79.8306 159.462 79.8306 159.462C79.8306 159.462 78.3506 145.022 91.6806 139.832C108.251 133.392 115.991 145.082 115.991 145.082" stroke="#98C4EA" stroke-width="2.5" stroke-linecap="round" stroke-linejoin="round"/>
<path d="M126.572 131.482C122.242 144.622 110.072 147.982 110.072 147.982C110.072 147.982 109.482 158.252 99.1717 155.782C90.6817 153.742 91.0817 144.182 93.6717 141.162C96.2717 138.132 101.332 136.212 105.452 138.552C105.452 138.552 113.652 135.852 116.912 121.672" fill="white"/>
<path d="M126.572 131.482C122.242 144.622 110.072 147.982 110.072 147.982C110.072 147.982 109.482 158.252 99.1717 155.782C90.6817 153.742 91.0817 144.182 93.6717 141.162C96.2717 138.132 101.332 136.212 105.452 138.552C105.452 138.552 113.652 135.852 116.912 121.672" stroke="#7C6656" stroke-width="2.5" stroke-linecap="round" stroke-linejoin="round"/>
<path d="M115.789 125.412L127.519 127.772" stroke="#7C6656" stroke-width="2.5" stroke-linecap="round" stroke-linejoin="round"/>
<path d="M100.89 170.642C100.89 170.642 94.6897 175.022 102.47 178.312C107.5 179.682 111.67 177.412 112.54 174.582C108.82 174.162 104.44 173.702 100.89 170.642Z" fill="white"/>
<path d="M116.731 178.302C116.731 178.302 111.981 181.332 115.921 185.582C119.861 189.832 128.801 187.972 129.831 183.652C125.351 183.522 119.961 182.932 116.721 178.302H116.731Z" fill="white"/>
<path d="M160.571 154.642C159.561 162.562 150.551 165.492 150.551 165.492C145.781 166.832 137.341 168.782 134.461 168.172C132.801 168.932 130.401 177.902 130.231 182.542C121.481 183.372 119.321 180.382 116.731 178.312C118.181 163.332 120.561 162.972 124.391 159.422C112.381 161.502 113.331 174.262 113.331 174.262C106.331 174.832 101.601 170.902 101.601 170.902C101.601 170.902 100.311 161.022 104.481 155.902C108.651 150.782 118.241 148.712 118.791 148.992C118.791 148.992 120.631 154.982 131.311 156.632C141.991 158.272 160.171 154.672 160.171 154.672H160.581L160.571 154.642Z" fill="#8FBDE2"/>
<path d="M160.501 155.112C160.071 157.592 158.911 160.042 156.431 162.122C150.061 167.452 138.061 168.642 135.391 168.052C132.721 167.462 131.491 174.812 130.931 178.812C130.371 182.812 129.851 189.022 119.581 187.542C112.491 185.842 113.681 180.242 116.661 179.172C116.661 179.172 117.311 168.352 119.831 164.062C122.351 159.772 126.941 158.092 126.941 158.092" stroke="#7C6656" stroke-width="2.5" stroke-linecap="round" stroke-linejoin="round"/>
<path d="M152.71 128.072C152.71 128.072 161.15 137.882 157.8 153.412C157.8 153.412 151.88 158.572 135.57 157.152C119.25 155.742 115.92 148.942 115.92 148.942C115.92 148.942 118.56 135.812 116.91 121.652C118.88 120.862 120.59 122.512 120.59 122.512" fill="white"/>
<path d="M153.1 128.072C153.1 128.072 160.59 138.822 157.81 155.572C157.81 155.572 151.89 158.562 135.58 157.152C119.26 155.742 117.82 148.792 117.82 148.792" stroke="#7C6656" stroke-width="2.5" stroke-linecap="round" stroke-linejoin="round"/>
<path d="M118.041 149.412C115.171 149.582 110.511 151.472 110.511 151.472C110.511 151.472 105.921 153.142 103.401 157.442C100.881 161.742 100.881 170.642 100.881 170.642C99.0905 171.352 95.6505 176.082 103.251 178.592C113.521 180.072 113.601 173.682 114.161 169.682C114.711 165.682 115.451 162.712 118.951 161.432L124.381 159.412" stroke="#7C6656" stroke-width="2.5" stroke-linecap="round" stroke-linejoin="round"/>
<path d="M121.961 156.242C121.961 156.242 123.651 157.772 124.951 158.072" stroke="#7C6656" stroke-width="2.5" stroke-linecap="round" stroke-linejoin="round"/>
<path d="M117.18 120.452C117.18 120.452 119.79 129.552 115.93 148.022" stroke="#7C6656" stroke-width="2.5" stroke-linecap="round" stroke-linejoin="round"/>
<path d="M173.03 158.471C173.03 158.471 164.29 151.161 151.55 156.711C138.81 162.261 138.66 176.341 138.66 176.341" fill="#F5FBFF"/>
<path d="M173.03 158.471C173.03 158.471 164.29 151.161 151.55 156.711C138.81 162.261 138.66 176.341 138.66 176.341" stroke="#98C4EA" stroke-width="2.5" stroke-linecap="round" stroke-linejoin="round"/>
<path d="M56.1094 204.042C56.1094 204.042 58.9494 218.712 73.6094 216.482" stroke="#98C4EA" stroke-width="2.5" stroke-linecap="round" stroke-linejoin="round"/>
<path d="M53.4701 210.382C53.4701 210.382 50.8501 214.282 57.3401 216.722" stroke="#98C4EA" stroke-width="2.5" stroke-linecap="round" stroke-linejoin="round"/>
<path d="M231.81 202.712C231.81 202.712 223.84 212.722 208.73 210.382" stroke="#98C4EA" stroke-width="2.5" stroke-linecap="round" stroke-linejoin="round"/>
<path d="M224.731 200.482C224.731 200.482 220.291 206.732 210.061 204.942" stroke="#98C4EA" stroke-width="2.5" stroke-linecap="round" stroke-linejoin="round"/>
<path d="M74.92 62.9621C76.43 64.1521 75.46 66.2821 74.65 67.5821C73.67 69.1621 72.33 70.8421 70.36 71.1021C70.29 71.1021 70.23 71.1221 70.16 71.1221C68.78 71.2321 67.43 70.5621 67.14 69.1221C66.78 67.3421 67.57 65.5321 68.85 64.3221C69.69 63.5321 70.75 62.9121 71.87 62.6121C72.87 62.3421 74.12 62.3321 74.92 62.9521V62.9621Z" fill="#F7C0C7" stroke="#F7C0C7" stroke-width="2.5" stroke-linecap="round" stroke-linejoin="round"/>
<path d="M70.6914 48.6719C72.3514 48.7619 74.0814 49.0019 75.6514 49.5519C80.5314 51.2519 84.2614 57.1519 81.3614 62.0419C81.3614 62.0419 81.8614 57.5219 78.7114 54.9519C75.5614 52.3819 72.3414 53.3919 72.3414 53.3919" fill="#F7C0C7"/>
<path d="M70.6914 48.6719C72.3514 48.7619 74.0814 49.0019 75.6514 49.5519C80.5314 51.2519 84.2614 57.1519 81.3614 62.0419C81.3614 62.0419 81.8614 57.5219 78.7114 54.9519C75.5614 52.3819 72.3414 53.3919 72.3414 53.3919" stroke="#F7C0C7" stroke-width="2.5" stroke-linecap="round" stroke-linejoin="round"/>
<path d="M70.6914 48.6719C71.0714 51.3519 75.4014 62.8719 75.6014 63.9219L70.6914 48.6719Z" fill="#F7C0C7"/>
<path d="M70.6914 48.6719C71.0714 51.3519 75.4014 62.8719 75.6014 63.9219" stroke="#F7C0C7" stroke-width="2.5" stroke-linecap="round" stroke-linejoin="round"/>
<path d="M76.75 71.6924C76.75 71.6924 77.77 74.8624 81.92 75.1124C86.07 75.3624 87.55 75.2924 88.44 77.9924" stroke="#F6B5BD" stroke-width="2.5" stroke-linecap="round" stroke-linejoin="round"/>
<path d="M100.891 170.112C100.891 170.112 103.481 174.162 112.531 174.582" stroke="#7C6656" stroke-width="2.5" stroke-linecap="round" stroke-linejoin="round"/>
<path d="M117.531 178.812C117.531 178.812 122.211 184.292 130.231 182.532" stroke="#7C6656" stroke-width="2.5" stroke-linecap="round" stroke-linejoin="round"/>
<path d="M153.631 129.542C163.981 147.262 151.821 160.532 151.821 160.532C151.821 160.532 156.781 169.552 146.731 172.932C138.451 175.712 133.711 167.402 134.311 163.462C134.901 159.512 138.171 155.202 142.911 154.992C142.911 154.992 147.911 149.502 144.201 136.462" fill="white"/>
<path d="M153.631 129.542C163.981 147.262 151.821 160.532 151.821 160.532C151.821 160.532 156.781 169.552 146.731 172.932C138.451 175.712 133.711 167.402 134.311 163.462C134.901 159.512 138.171 155.202 142.911 154.992C142.911 154.992 147.911 149.502 144.201 136.462" stroke="#7C6656" stroke-width="2.5" stroke-linecap="round" stroke-linejoin="round"/>
<path d="M144.691 138.362L155.881 134.142" stroke="#7C6656" stroke-width="2.5" stroke-linecap="round" stroke-linejoin="round"/>
<path d="M140.061 127.202C140.061 127.202 133.331 130.222 127.511 128.622C120.851 126.782 120.711 121.672 120.711 121.672" stroke="#7C6656" stroke-width="2.5" stroke-linecap="round" stroke-linejoin="round"/>
<path d="M175.829 41.5224C175.829 41.5224 210.949 51.7824 191.599 92.4724C191.599 92.4724 189.949 94.9624 189.579 95.2824C188.819 98.7724 188.049 116.902 171.829 124.772C160.339 130.502 141.079 128.182 135.149 125.912C134.159 126.342 120.829 122.222 121.269 122.612C121.709 123.002 103.919 112.612 103.919 112.612C103.919 112.612 88.4591 99.3924 92.5591 85.7824C95.1391 80.0124 101.119 71.3624 101.119 71.3624L102.209 66.6124L103.909 62.2424C103.909 62.2424 97.7791 63.6924 101.569 47.0724C106.879 37.1824 116.839 30.6024 139.929 29.0724C163.769 27.8924 175.829 41.5224 175.829 41.5224Z" fill="white"/>
<g filter="url(#filter0_f_522_13862)">
<path d="M153.607 106.308C158.622 107.951 163.471 106.908 164.437 103.978C165.402 101.049 162.12 97.3415 157.104 95.6985C152.089 94.0555 147.24 95.0988 146.275 98.0286C145.309 100.958 148.592 104.665 153.607 106.308Z" fill="#F5B0B0"/>
</g>
<g filter="url(#filter1_f_522_13862)">
<path d="M103.044 90.9589C108.06 92.6019 112.908 91.5587 113.874 88.6288C114.84 85.699 111.557 81.9919 106.542 80.3489C101.527 78.7059 96.678 79.7491 95.7121 82.679C94.7463 85.6089 98.029 89.3159 103.044 90.9589Z" fill="#F5B0B0"/>
</g>
<path d="M145.351 85.8916C144.531 88.5816 146.051 91.4216 148.741 92.2416C151.431 93.0616 154.271 91.5416 155.091 88.8516C155.911 86.1616 154.391 83.3216 151.701 82.5016C149.011 81.6816 146.171 83.2016 145.351 85.8916Z" fill="#7C6656"/>
<path d="M111.97 75.7724C111.15 78.4624 112.67 81.3024 115.36 82.1224C118.05 82.9424 120.89 81.4224 121.71 78.7324C122.53 76.0424 121.01 73.2024 118.32 72.3824C115.63 71.5624 112.79 73.0824 111.97 75.7724Z" fill="#7C6656"/>
<path d="M116.871 92.6719C116.871 92.6719 119.511 99.0819 127.041 101.362C134.571 103.642 140.071 99.7019 140.071 99.7019" stroke="#7C6656" stroke-width="2.5" stroke-linecap="round" stroke-linejoin="round"/>
<path d="M105.102 59.4824C103.392 62.3524 102.972 66.6924 102.572 68.3024C100.922 70.6224 93.3417 77.2324 92.4817 87.9924C91.6217 98.7524 98.0517 109.962 115.022 118.782C115.022 118.782 125.142 123.392 129.002 124.082" stroke="#7C6656" stroke-width="2.5" stroke-linecap="round" stroke-linejoin="round"/>
<path d="M136.539 125.712C148.619 128.962 162.739 129.042 173.189 123.962C181.869 119.742 186.679 113.182 189.479 96.1416" stroke="#7C6656" stroke-width="2.5" stroke-linecap="round" stroke-linejoin="round"/>
<path d="M190.88 96.5822C214.96 57.4322 178.23 42.2622 178.23 42.2622C156.18 21.4822 122 32.3222 122 32.3222C122 32.3222 97.1798 39.5422 100.81 61.5422" stroke="#7C6656" stroke-width="2.5" stroke-linecap="round" stroke-linejoin="round"/>
<path d="M170.68 53.7021C170.68 53.7021 168.8 67.8222 144.77 69.0922" stroke="#7C6656" stroke-width="2.5" stroke-linecap="round" stroke-linejoin="round"/>
<path d="M173.352 63.0615C173.352 63.0615 183.812 74.2215 182.902 87.9915" stroke="#7C6656" stroke-width="2.5" stroke-linecap="round" stroke-linejoin="round"/>
<path d="M121.27 62.9323C121.27 62.9323 137.88 62.7723 147.07 50.4023" stroke="#7C6656" stroke-width="2.5" stroke-linecap="round" stroke-linejoin="round"/>
<path d="M156.981 41.8216C156.981 41.8216 162.741 46.1816 160.941 51.0916C159.551 54.8616 157.181 56.0016 149.851 57.5516C142.521 59.1016 132.381 49.8016 128.561 40.2716C134.491 37.0716 145.211 30.8016 156.991 41.8216H156.981Z" fill="#1AAF92"/>
<path d="M157.829 54.7423C157.829 54.7423 139.509 67.4023 128.379 39.8723C128.379 39.8723 146.459 27.5623 160.999 46.1523" stroke="#7C6656" stroke-width="2.5" stroke-linecap="round" stroke-linejoin="round"/>
<path d="M143.76 45.8916C143.69 46.1016 155.99 54.2116 165.67 48.5916" stroke="#7C6656" stroke-width="2.5" stroke-linecap="round" stroke-linejoin="round"/>
<path d="M62.9 133.272C63.19 132.412 63.36 131.502 63.36 130.572C63.36 125.042 57.98 120.552 51.34 120.552C46.06 120.552 41.58 123.392 39.97 127.342C31.67 127.482 25 133.052 25 139.922C25 146.792 31.84 152.512 40.28 152.512C43.61 152.512 46.68 151.622 49.19 150.142C51.54 151.532 54.55 152.372 57.82 152.372C65.37 152.372 71.49 147.942 71.49 142.472C71.49 138.312 67.94 134.752 62.91 133.292L62.9 133.272Z" fill="#F5FBFF" stroke="#98C4EA" stroke-width="2.5" stroke-linecap="round" stroke-linejoin="round"/>
</g>
<defs>
<filter id="filter0_f_522_13862" x="144.105" y="92.9204" width="22.5" height="16.1665" filterUnits="userSpaceOnUse" color-interpolation-filters="sRGB">
<feFlood flood-opacity="0" result="BackgroundImageFix"/>
<feBlend mode="normal" in="SourceGraphic" in2="BackgroundImageFix" result="shape"/>
<feGaussianBlur stdDeviation="1" result="effect1_foregroundBlur_522_13862"/>
</filter>
<filter id="filter1_f_522_13862" x="93.543" y="77.5708" width="22.5" height="16.1665" filterUnits="userSpaceOnUse" color-interpolation-filters="sRGB">
<feFlood flood-opacity="0" result="BackgroundImageFix"/>
<feBlend mode="normal" in="SourceGraphic" in2="BackgroundImageFix" result="shape"/>
<feGaussianBlur stdDeviation="1" result="effect1_foregroundBlur_522_13862"/>
</filter>
<clipPath id="clip0_522_13862">
<rect width="256" height="256" fill="white"/>
</clipPath>
</defs>
</svg>
