<svg width="256" height="256" viewBox="0 0 256 256" fill="none" xmlns="http://www.w3.org/2000/svg">
<g clip-path="url(#clip0_522_14152)">
<path opacity="0.4" d="M130.248 231.544C162.381 231.544 188.43 227.637 188.43 222.817C188.43 217.997 162.381 214.09 130.248 214.09C98.1153 214.09 72.0664 217.997 72.0664 222.817C72.0664 227.637 98.1153 231.544 130.248 231.544Z" fill="#E1D6CF"/>
<path d="M153.273 152.071C153.273 152.071 156.069 173.341 159.996 183.206C160.813 186.422 163.421 184.568 164.489 184.149C165.557 183.73 171.631 176.881 178.093 186.882C182.47 193.658 175.443 198.905 172.249 198.161C169.055 197.418 166.96 195.585 164.782 197.544C162.614 199.502 154.466 200.35 151.314 198.706C148.162 197.062 145.229 194.873 144.287 191.784C142.967 192.192 137.281 193.794 137.281 193.794L137.05 216.751C137.05 216.751 133.081 222.448 125.656 222.867C118.231 223.286 120.137 218.458 122.252 215.839C121.886 212.488 121.278 198.79 118.66 193.082C116.042 187.375 113.832 170.66 114.649 163.685C115.466 156.721 117.372 152.825 117.372 152.825L153.283 152.061L153.273 152.071Z" fill="white"/>
<path d="M159.191 178.4C159.222 180.861 160.762 184.611 160.772 184.653C162.647 183.752 167.475 181.867 167.475 181.867C167.475 181.867 173.329 186.056 172.816 190.664C172.303 195.272 170.166 197.513 170.166 197.513L166.846 196.665C166.846 196.665 160.468 200.99 154.509 199.388C148.55 197.785 145.126 195.377 143.827 191.931C139.45 193.68 137.282 193.795 137.282 193.795L136.884 215.631C136.884 215.631 128.097 220.333 121.489 216.249C122.589 213.526 124.159 216.395 122.159 205.106C120.494 198.791 117.247 190.674 117.373 184.663C117.562 185.187 127.657 186.936 139.01 184.003C146.027 182.192 155.284 178.212 159.201 178.411L159.191 178.4Z" fill="#8FBDE2"/>
<path d="M137.281 193.795C137.281 193.795 138.224 215.086 136.705 217.956C135.187 220.825 129.678 222.679 125.656 222.878C121.635 223.077 119.886 220.291 120.452 218.333C121.017 216.385 122.944 215.39 122.944 215.39" stroke="#7C6656" stroke-width="2.5" stroke-linecap="round" stroke-linejoin="round"/>
<path d="M122.462 214.941C123.551 203.599 120.137 199.755 116.66 186.078C116.545 185.607 116.429 185.135 116.314 184.664" stroke="#7C6656" stroke-width="2.5" stroke-linecap="round" stroke-linejoin="round"/>
<path d="M168.362 194.569C168.362 194.569 164.875 199.805 155.565 199.46C146.254 199.114 144.275 191.783 144.275 191.783C144.275 191.783 137.74 194.108 132.357 193.218" stroke="#7C6656" stroke-width="2.5" stroke-linecap="round" stroke-linejoin="round"/>
<path d="M166.854 196.132C166.854 196.132 170.729 199.305 174.657 197.703C178.584 196.1 180.354 190.026 177.421 185.931C175.442 183.156 172.038 180.622 168.362 181.627C166.362 182.172 161.283 183.826 161.283 183.826" stroke="#7C6656" stroke-width="2.5" stroke-linecap="round" stroke-linejoin="round"/>
<path d="M157.074 163.686C157.074 163.686 157.943 172.703 158.823 176.473C159.703 180.243 160.038 187.082 162.269 188.831" stroke="#7C6656" stroke-width="2.5" stroke-linecap="round" stroke-linejoin="round"/>
<path d="M170.164 197.513C170.164 197.513 177.316 188.528 167.943 182.537" stroke="#7C6656" stroke-width="2.5" stroke-linecap="round" stroke-linejoin="round"/>
<path d="M121.676 216.207C121.676 216.207 125.121 220.124 136.746 216.207" stroke="#7C6656" stroke-width="2.5" stroke-linecap="round" stroke-linejoin="round"/>
<path d="M112.123 158.607C81.2081 155.664 72.1178 132.592 72.1178 132.592C72.1178 132.592 59.4772 129.89 63.2055 118.025C66.274 108.243 77.4275 109.489 80.7683 112.778C84.0986 116.066 85.9418 122.14 82.8733 126.78C82.8733 126.78 93.3146 143.002 114.071 143.777" fill="white"/>
<path d="M152.896 160.367C171.108 171.782 185.393 159.487 185.393 159.487C185.393 159.487 193.886 164.127 197.384 154.544C200.264 146.648 192.284 141.747 188.441 142.166C184.597 142.584 180.261 145.025 179.884 149.968C179.884 149.968 173.978 155.026 160.447 150.711" fill="white"/>
<path d="M152.896 160.367C171.108 171.782 185.393 159.487 185.393 159.487C185.393 159.487 193.886 164.127 197.384 154.544C200.264 146.648 192.284 141.747 188.441 142.166C184.597 142.584 180.261 145.025 179.884 149.968C179.884 149.968 169.799 156.168 161.798 151.12C158.834 149.486 157.787 148.051 157.787 148.051" stroke="#7C6656" stroke-width="2.5" stroke-linecap="round" stroke-linejoin="round"/>
<path d="M165.62 152.711C165.62 152.711 167.976 156.575 163.986 164.786" stroke="#7C6656" stroke-width="2.5" stroke-linecap="round" stroke-linejoin="round"/>
<path d="M155.411 145.611C155.411 145.611 158.5 172.306 163.978 177.867C163.978 177.867 133.073 188.56 111.876 186.078C109.582 172.149 111.666 153.403 111.666 153.403C111.666 153.403 111.96 144.48 113.101 143.412C117.112 144.103 145.65 148.219 152.719 145.004C159.778 141.789 155.411 145.622 155.411 145.622V145.611Z" fill="white"/>
<path d="M111.664 153.392C111.664 153.392 109.57 172.138 111.874 186.067C133.081 188.549 163.976 177.856 163.976 177.856C159.64 173.028 156.529 153.287 156.529 153.287" stroke="#7C6656" stroke-width="2.5" stroke-linecap="round" stroke-linejoin="round"/>
<path d="M142.162 146.532C142.162 146.532 137.198 152.774 129.511 151.476C119.876 149.852 120.703 145.705 120.703 145.705" stroke="#7C6656" stroke-width="2.5" stroke-linecap="round" stroke-linejoin="round"/>
<path d="M94.8039 87.6665C94.8039 87.6665 85.9439 85.7186 92.4999 68.0615C98.8987 53.8815 122.274 41.6074 154.666 48.7812C165.254 51.3994 168.773 56.7196 168.773 56.7196C168.773 56.7196 177.277 56.2064 186.953 67.4541C196.62 78.7018 198.704 94.7984 187.98 112.393C186.325 122.844 183.77 135.893 169.872 143.737C155.975 151.582 138.768 148.157 133.511 147.675C128.254 147.193 111.875 145.581 98.1237 135.087C91.8715 128.971 83.1687 121.965 87.4415 104.779C89.8712 96.7044 94.4059 92.1174 94.4059 92.1174L94.7934 87.6665H94.8039Z" fill="white"/>
<g filter="url(#filter0_f_522_14152)">
<path d="M155.741 126.293C160.581 126.924 164.796 125.205 165.155 122.453C165.514 119.7 161.882 116.957 157.041 116.326C152.201 115.694 147.986 117.413 147.627 120.166C147.268 122.918 150.901 125.661 155.741 126.293Z" fill="#F5B0B0"/>
</g>
<g filter="url(#filter1_f_522_14152)">
<path d="M102.649 114.655C107.489 115.287 111.704 113.568 112.063 110.815C112.423 108.063 108.79 105.32 103.95 104.688C99.1093 104.057 94.8944 105.776 94.5353 108.528C94.1762 111.281 97.8089 114.024 102.649 114.655Z" fill="#F5B0B0"/>
</g>
<path d="M96.0501 82.6484C94.5943 85.8217 94.6572 90.3983 94.4268 92.1263C92.9711 94.734 85.8287 102.473 86.1533 113.773C86.478 125.073 94.4477 136.017 113.111 143.275C113.111 143.275 124.17 146.93 128.265 147.213" stroke="#7C6656" stroke-width="2.5" stroke-linecap="round" stroke-linejoin="round"/>
<path d="M136.297 148.029C149.241 150.04 161.431 148.762 171.726 142.279C180.282 136.896 187.079 129.293 188.053 111.238" stroke="#7C6656" stroke-width="2.5" stroke-linecap="round" stroke-linejoin="round"/>
<path d="M111.204 99.2675C110.732 102.168 112.712 104.912 115.613 105.373C118.514 105.844 121.257 103.865 121.718 100.964C122.179 98.0631 120.21 95.3193 117.309 94.8585C114.408 94.3872 111.664 96.3665 111.204 99.2675Z" fill="#7C6656"/>
<path d="M145.261 106.064C144.79 108.965 146.769 111.709 149.67 112.17C152.571 112.641 155.315 110.662 155.776 107.761C156.237 104.86 154.268 102.116 151.367 101.655C148.466 101.184 145.722 103.163 145.261 106.064Z" fill="#7C6656"/>
<path d="M188.932 111.374C209.563 67.8807 169.599 56.2559 169.599 56.2559C144.286 37.1327 109.936 52.2868 109.936 52.2868C109.936 52.2868 84.9061 62.6234 91.1898 85.1188" stroke="#7C6656" stroke-width="2.5" stroke-linecap="round" stroke-linejoin="round"/>
<path d="M163.441 70.3516C163.441 70.3516 163.085 85.2647 138.213 89.3177" stroke="#7C6656" stroke-width="2.5" stroke-linecap="round" stroke-linejoin="round"/>
<path d="M167.273 79.7891C167.273 79.7891 179.432 90.2199 180.05 104.662" stroke="#7C6656" stroke-width="2.5" stroke-linecap="round" stroke-linejoin="round"/>
<path d="M113.049 85.5705C113.049 85.5705 130.319 83.5283 138.487 69.5996" stroke="#7C6656" stroke-width="2.5" stroke-linecap="round" stroke-linejoin="round"/>
<path d="M154.55 52.4659C154.55 52.4659 159.734 57.9746 157.011 62.7292C154.917 66.3737 152.267 67.1382 144.423 67.4524C136.589 67.7666 127.74 56.3932 125.457 45.8891C132.138 43.627 144.308 39.019 154.54 52.4555L154.55 52.4659Z" fill="#1AAF92"/>
<path d="M153.168 65.9542C153.168 65.9542 132.044 75.8299 125.363 45.4486C125.363 45.4486 146.182 35.8974 157.943 57.6388" stroke="#7C6656" stroke-width="2.5" stroke-linecap="round" stroke-linejoin="round"/>
<path d="M140.192 54.3516C140.087 54.5505 151.366 65.0756 162.342 60.9703" stroke="#7C6656" stroke-width="2.5" stroke-linecap="round" stroke-linejoin="round"/>
<path d="M118.713 111.731L137.344 116.245C137.344 116.245 135.521 130.352 125.719 129.734C115.917 129.126 114.377 119.879 118.713 111.721V111.731Z" fill="#F29AA0" stroke="#7C6656" stroke-width="2.5" stroke-linecap="round" stroke-linejoin="round"/>
<path d="M85.9211 28.986C87.4187 25.7395 91.524 23.5402 95.1999 26.1584C98.4255 28.4938 99.1586 33.5521 96.7185 37.8773C94.6553 41.5428 90.8118 44.4019 86.9369 46.1613C82.884 44.8731 78.7263 42.4853 76.2652 39.0922C73.3328 35.0916 73.469 29.9495 76.4014 27.2894C79.7422 24.2314 84.0883 25.9384 85.9211 28.986Z" fill="#EE7474"/>
<path d="M62.7246 61.8378C60.3996 60.0784 59.3628 56.4234 62.0962 53.9519C64.5154 51.784 68.6835 52.0877 71.6997 54.7897C74.2655 57.0727 75.8678 60.6439 76.5904 64.0371C74.852 67.0428 72.2233 69.9333 69.0815 71.3052C65.3846 72.9389 61.3107 71.9335 59.6979 69.1269C57.8443 65.9327 59.9702 62.7699 62.7141 61.8378H62.7246Z" fill="#F08395"/>
<path d="M110.943 158.607C80.0274 155.664 72.11 132.592 72.11 132.592C72.11 132.592 59.4694 129.89 63.1977 118.025C66.2662 108.243 77.4197 109.489 80.7605 112.778C84.0908 116.066 85.934 122.14 82.8655 126.78C82.8655 126.78 92.0501 142.332 112.283 143.39" stroke="#7C6656" stroke-width="2.5" stroke-linecap="round" stroke-linejoin="round"/>
<path d="M105.966 142.627C105.966 142.627 103.348 150.89 105.966 157.456" stroke="#7C6656" stroke-width="2.5" stroke-linecap="round" stroke-linejoin="round"/>
<path d="M88.2988 49.9941C88.2988 49.9941 87.8065 54.2775 91.3358 58.2676" stroke="#EC6568" stroke-width="2.5" stroke-linecap="round" stroke-linejoin="round"/>
<path d="M79.127 64.4453C79.127 64.4453 83.4208 64.4244 86.4265 66.3199" stroke="#EF8198" stroke-width="2.5" stroke-linecap="round" stroke-linejoin="round"/>
</g>
<defs>
<filter id="filter0_f_522_14152" x="145.012" y="113.604" width="22.7583" height="15.4107" filterUnits="userSpaceOnUse" color-interpolation-filters="sRGB">
<feFlood flood-opacity="0" result="BackgroundImageFix"/>
<feBlend mode="normal" in="SourceGraphic" in2="BackgroundImageFix" result="shape"/>
<feGaussianBlur stdDeviation="1.29554" result="effect1_foregroundBlur_522_14152"/>
</filter>
<filter id="filter1_f_522_14152" x="91.9206" y="101.967" width="22.7583" height="15.4107" filterUnits="userSpaceOnUse" color-interpolation-filters="sRGB">
<feFlood flood-opacity="0" result="BackgroundImageFix"/>
<feBlend mode="normal" in="SourceGraphic" in2="BackgroundImageFix" result="shape"/>
<feGaussianBlur stdDeviation="1.29554" result="effect1_foregroundBlur_522_14152"/>
</filter>
<clipPath id="clip0_522_14152">
<rect width="256" height="256" fill="white"/>
</clipPath>
</defs>
</svg>
