<svg width="256" height="256" viewBox="0 0 256 256" fill="none" xmlns="http://www.w3.org/2000/svg">
<g clip-path="url(#clip0_522_15028)">
<path opacity="0.4" d="M127.937 222C166.027 222 196.906 218.14 196.906 213.379C196.906 208.618 166.027 204.758 127.937 204.758C89.847 204.758 58.9688 208.618 58.9688 213.379C58.9688 218.14 89.847 222 127.937 222Z" fill="#E1D6CF"/>
<path d="M174.274 198.936L169.522 199.464L172.69 199.992L174.274 203.688L175.858 204.744L177.971 205.272L180.083 204.744L180.611 202.632C180.787 202.104 181.244 200.942 181.667 200.52C182.089 200.097 182.195 199.288 182.195 198.936L184.835 196.296H189.059L188.531 198.408H186.947L185.363 199.464L183.779 202.104L182.723 205.272L181.139 207.384L176.915 207.912L174.274 210.024L169.522 211.08L166.882 211.608L164.242 214.776L162.658 215.304L161.074 214.248L161.602 211.08L159.49 210.552L156.322 207.912V204.744L158.434 203.16L157.906 201.576L154.209 199.992L148.929 195.768L146.289 188.903L146.817 185.735H148.929L151.041 188.903L152.625 191.543L157.378 193.655L154.209 189.431L152.625 182.567L154.209 178.343L157.378 175.703L161.074 174.647L166.354 170.422L173.218 167.254V171.478L172.162 176.759L176.387 175.175L182.195 173.062L184.307 172.534L182.723 178.343L181.139 182.567L181.667 184.679L182.723 189.431L180.083 194.183L177.971 196.824L174.274 198.936Z" fill="white"/>
<path d="M66.5559 104.419L67.0839 110.227L64.4438 109.699L61.2757 110.227L57.0515 112.868L56.5234 119.204L58.6355 126.596L64.4438 136.101L65.4999 143.493L66.5559 155.11L70.2521 161.446L77.6445 164.614H87.1489L92.4292 161.446V185.207L91.9011 199.992L90.3171 205.272L88.205 206.328L86.6209 208.44V211.608L88.205 213.72L92.4292 214.776H98.2374L101.934 212.664L104.046 209.496L106.158 202.632L110.91 186.263H120.943L124.639 208.44L126.751 210.024L129.919 212.136L134.143 212.664H137.839L141.008 211.08L141.536 208.44L140.479 206.328L138.895 203.688L137.839 195.768L138.895 187.319L141.008 175.703L144.704 173.59L145.232 170.422L144.704 166.726L148.4 159.862L149.456 154.053C148.752 152.645 147.238 149.829 146.816 149.829C146.393 149.829 143.472 147.013 142.064 145.605L137.311 142.965L145.232 140.325L154.736 136.101L162.129 129.236L165.825 120.788L166.881 109.699L164.769 98.0828L168.993 92.8025L172.689 83.8261V75.9057L168.993 66.4013L163.185 57.9529L156.848 52.6726L138.367 43.1682L121.471 40L109.854 41.0561L103.518 42.6401L97.1814 44.2242L82.9247 49.5045L73.4203 56.8968L67.0839 68.5134L66.0279 79.6019L67.0839 90.6904L68.14 93.8586L66.5559 104.419Z" fill="white"/>
<path d="M140.448 168.796C140.448 168.796 135.295 165.892 134.144 161.889C133.352 159.323 132.454 156.831 132.454 156.831C132.454 156.831 114.723 153.24 107.214 156.018C106.042 161.837 103.212 169.546 92.5986 167.286C92.4719 174.425 92.5986 192.029 92.5986 192.029L89.7578 205.24C89.7578 205.24 95.9885 210.742 104.363 209.074C106.454 203.192 110.573 185.746 110.573 185.746L120.88 185.988C120.88 185.988 123.763 208.218 124.945 210.573C128.578 210.183 136.456 210.257 138.97 204.723C138.199 201.122 137.09 197.658 138.558 187.277C140.026 176.896 140.469 168.796 140.469 168.796H140.448Z" fill="#8FBDE2"/>
<path d="M165.509 87.7764C166.143 91.2402 164.949 95.6967 164.738 97.4392C165.509 100.343 168.466 109.024 165.805 120.113C162.922 132.141 153.787 140.325 133.743 142.776C133.743 142.776 122.031 143.589 117.955 142.849" stroke="#7C6656" stroke-width="2.5" stroke-linecap="round" stroke-linejoin="round"/>
<path d="M109.908 141.644C96.7605 140.388 82.7573 135.245 74.3088 126.353C67.2861 118.971 64.9522 110.691 68.49 92.8125" stroke="#7C6656" stroke-width="2.5" stroke-linecap="round" stroke-linejoin="round"/>
<path d="M67.1388 92.8127C57.8033 45.1742 101.101 43.7591 101.101 43.7591C130.597 31.3717 160.705 55.8615 160.705 55.8615C160.705 55.8615 181.604 73.2969 168.562 92.8127" stroke="#7C6656" stroke-width="2.5" stroke-linecap="round" stroke-linejoin="round"/>
<path d="M102.78 57.7939C102.78 57.7939 99.4209 72.4519 122.718 82.6006" stroke="#7C6656" stroke-width="2.5" stroke-linecap="round" stroke-linejoin="round"/>
<path d="M96.6866 66.0635C96.6866 66.0635 82.2081 73.2235 78.0156 87.1951" stroke="#7C6656" stroke-width="2.5" stroke-linecap="round" stroke-linejoin="round"/>
<path d="M148.243 85.2103C148.243 85.2103 131.875 78.9057 127.365 63.2656" stroke="#7C6656" stroke-width="2.5" stroke-linecap="round" stroke-linejoin="round"/>
<path d="M118.44 52.4619C134.83 33.6853 153.195 47.6991 153.195 47.6991C139.899 76.0963 121.302 61.7023 121.302 61.7023C121.302 61.7023 118.968 61.1321 117.912 57.0135C117.352 54.8485 118.44 52.4724 118.44 52.4724V52.4619Z" fill="#1AAF92"/>
<path d="M121.294 61.7017C121.294 61.7017 139.891 76.0956 153.186 47.6984C153.186 47.6984 134.822 33.6952 118.432 52.4612" stroke="#7C6656" stroke-width="2.5" stroke-linecap="round" stroke-linejoin="round"/>
<path d="M136.638 53.1694C136.701 53.3912 123.268 61.2482 113.373 54.7746" stroke="#7C6656" stroke-width="2.5" stroke-linecap="round" stroke-linejoin="round"/>
<g filter="url(#filter0_f_522_15028)">
<path d="M147.345 119.204C152.886 119.204 157.378 116.84 157.378 113.924C157.378 111.008 152.886 108.644 147.345 108.644C141.804 108.644 137.312 111.008 137.312 113.924C137.312 116.84 141.804 119.204 147.345 119.204Z" fill="#F5B0B0"/>
</g>
<g filter="url(#filter1_f_522_15028)">
<path d="M92.9576 116.036C98.2068 116.036 102.462 113.672 102.462 110.756C102.462 107.84 98.2068 105.476 92.9576 105.476C87.7084 105.476 83.4531 107.84 83.4531 110.756C83.4531 113.672 87.7084 116.036 92.9576 116.036Z" fill="#F5B0B0"/>
</g>
<path d="M109.931 99.3711C109.625 102.328 106.985 104.472 104.038 104.166C101.081 103.859 98.9377 101.219 99.244 98.2728C99.5502 95.3159 102.19 93.1721 105.137 93.4783C108.094 93.7846 110.237 96.4247 109.931 99.3711Z" fill="#7C6656"/>
<path d="M146.574 103.142C146.268 106.099 143.627 108.242 140.681 107.936C137.724 107.63 135.58 104.99 135.887 102.043C136.193 99.0864 138.833 96.9426 141.779 97.2489C144.736 97.5551 146.88 100.195 146.574 103.142Z" fill="#7C6656"/>
<path d="M134.747 113.606C134.747 113.606 129.351 116.806 121.663 114.821C112.232 112.381 109.951 107.819 109.951 107.819" stroke="#7C6656" stroke-width="2.5" stroke-linecap="round" stroke-linejoin="round"/>
<path d="M182.563 198.239L184.517 199.686C184.517 199.686 184.982 201.481 183.44 204.026C181.898 206.571 181.55 207.406 177.473 207.807C177.04 207.258 175.52 205.061 175.52 205.061C175.52 205.061 178.392 205.653 180.05 204.713C181.877 203.688 181.993 201.46 182.563 198.229V198.239Z" fill="#E1B995"/>
<path d="M166.08 198.248C166.08 198.248 171.445 204.046 168.562 210.942C170.748 211.861 179.143 210.91 176.725 206.506C174.212 203.803 171.962 198.892 171.962 198.892L166.08 198.248Z" fill="#E1B995"/>
<path d="M181.339 192.884C181.339 192.884 176.661 195.196 174.01 192.873C171.349 190.55 171.55 183.443 167.896 181.214C164.242 178.986 161.591 183.854 157.789 182.64C153.988 181.426 153.079 179.588 155.213 177.698C157.346 175.807 161.105 174.456 161.105 174.456C161.105 174.456 171.803 166.736 172.944 167.327C173.208 170.559 172.384 177.951 172.384 177.951C172.384 177.951 181.624 170.833 184.507 172.618C183.694 175.311 180.769 183.274 180.769 183.274C180.769 183.274 183.705 185.175 181.329 192.884H181.339Z" fill="#E1B995"/>
<path d="M92.9048 151.857C92.9048 151.857 92.3346 178.586 92.2923 188.492C92.2501 198.398 89.7578 205.241 89.7578 205.241" stroke="#7C6656" stroke-width="2.5" stroke-linecap="round" stroke-linejoin="round"/>
<path d="M90.8252 205.23C90.8252 205.23 86.7911 206.022 86.3581 208.641C85.9251 211.26 86.7911 214.64 93.7716 214.745C100.752 214.851 104.638 210.933 106.244 204.058C107.849 197.183 110.573 185.736 110.573 185.736C110.573 185.736 122.528 186.718 125.252 185.187" stroke="#7C6656" stroke-width="2.5" stroke-linecap="round" stroke-linejoin="round"/>
<path d="M120.869 185.988C120.869 185.988 123.287 207.342 125.252 209.961C127.216 212.58 132.993 213.562 137.027 213.118C141.061 212.685 142.37 209.633 141.494 207.775C140.617 205.916 138.547 205.23 138.547 205.23" stroke="#7C6656" stroke-width="2.5" stroke-linecap="round" stroke-linejoin="round"/>
<path d="M137.461 148.668C137.461 148.668 141.495 160.886 140.186 175.059C138.876 189.241 136.088 193.603 138.95 204.723" stroke="#7C6656" stroke-width="2.5" stroke-linecap="round" stroke-linejoin="round"/>
<path d="M172.395 176.557C172.395 176.557 173.948 168.225 172.955 167.317C171.973 166.409 162.521 172.608 161.117 174.445C161.117 174.445 153.503 176.135 152.795 180.718C152.088 185.301 153.217 191.226 159.417 195.313C165.616 199.4 175.352 200.815 179.862 195.313C184.371 189.811 180.78 183.274 180.78 183.274C180.78 183.274 184.519 173.463 184.519 172.618C184.519 171.773 174.507 174.678 172.395 177.951" stroke="#7C6656" stroke-width="2.5" stroke-linecap="round" stroke-linejoin="round"/>
<path d="M163.089 201.945C163.089 201.945 160.407 213.931 161.674 214.491C162.941 215.051 165.476 216.139 167.599 206.222" stroke="#7C6656" stroke-width="2.5" stroke-linecap="round" stroke-linejoin="round"/>
<path d="M157.166 193.877C157.166 193.877 150.755 192.779 150.47 188.27C150.47 188.27 150.185 185.028 147.788 185.45C145.391 185.872 145.253 190.804 148.918 195.461C152.582 200.119 157.166 200.34 157.166 200.34" stroke="#7C6656" stroke-width="2.5" stroke-linecap="round" stroke-linejoin="round"/>
<path d="M157.166 197.288C157.166 197.288 157.166 199.685 158.433 203.213" stroke="#7C6656" stroke-width="2.5" stroke-linecap="round" stroke-linejoin="round"/>
<path d="M157.801 203.213C157.801 203.213 155.055 204.903 156.512 208.388C158.223 210.647 160.694 210.542 160.694 210.542" stroke="#7C6656" stroke-width="2.5" stroke-linecap="round" stroke-linejoin="round"/>
<path d="M172.531 199.686C172.531 199.686 173.946 204.195 175.066 204.902C176.196 205.61 178.73 209.274 173.799 210.542C168.867 211.809 167.6 211.524 167.6 211.524" stroke="#7C6656" stroke-width="2.5" stroke-linecap="round" stroke-linejoin="round"/>
<path d="M178.036 177.688C178.036 177.688 175.776 180.359 175.639 180.718C175.502 181.077 173.949 180.085 173.949 180.085" stroke="#7C6656" stroke-width="2.5" stroke-linecap="round" stroke-linejoin="round"/>
<path d="M168.804 173.179L167.6 176.558L165.34 175.713" stroke="#7C6656" stroke-width="2.5" stroke-linecap="round" stroke-linejoin="round"/>
<path d="M173.945 187.277C173.945 187.277 175.212 185.133 167.07 185.133" stroke="#7C6656" stroke-width="2.5" stroke-linecap="round" stroke-linejoin="round"/>
<path d="M159.986 179.081C159.986 179.081 163.45 178.427 164.464 183.274" stroke="#7C6656" stroke-width="2.5" stroke-linecap="round" stroke-linejoin="round"/>
<path d="M166.08 186.211H163.652L163.092 184.32" stroke="#7C6656" stroke-width="2.5" stroke-linecap="round" stroke-linejoin="round"/>
<path d="M163.335 185.133C163.335 185.133 158.942 190.181 161.339 192.472C163.736 194.764 165.341 186.643 165.341 186.643" stroke="#7C6656" stroke-width="2.5" stroke-linecap="round" stroke-linejoin="round"/>
<path d="M175.986 204.977C176.419 204.544 177.074 204.375 177.687 204.597C177.729 204.618 178.584 204.903 179.313 204.555C179.799 204.322 180.179 203.805 180.443 203.013C181.552 199.707 183.062 195.166 187.867 196.085C188.743 196.265 189.293 197.078 189.124 197.944C188.955 198.799 188.131 199.369 187.265 199.2C185.702 198.905 184.931 199.56 183.442 204.016C182.756 206.086 181.531 207.015 180.633 207.438C179.44 207.997 178.257 207.945 177.475 207.807" stroke="#7C6656" stroke-width="2.5" stroke-linecap="round" stroke-linejoin="round"/>
<path d="M79.0077 126.795C79.0077 126.795 72.8087 106.403 61.2661 110.141C49.7234 113.88 60.8542 130.935 62.5967 133.374C64.3392 135.814 65.5431 139.394 65.6592 146.702C65.786 154.01 67.3806 163.736 79.6836 164.94C91.4163 166.091 101.84 157.304 100.636 142.911C99.3261 127.207 85.9143 124.039 79.0077 126.816V126.795Z" fill="white" stroke="#7C6656" stroke-width="2.5" stroke-linecap="round" stroke-linejoin="round"/>
<path d="M79.0069 126.796C79.0069 126.796 74.1279 129.256 71.8574 132.847" stroke="#7C6656" stroke-width="2.5" stroke-linecap="round" stroke-linejoin="round"/>
<path d="M137.988 143.503C137.988 143.503 149.003 148.519 149.235 155.088C149.468 161.657 141.22 170.052 141.22 170.052" stroke="#7C6656" stroke-width="2.5" stroke-linecap="round" stroke-linejoin="round"/>
<path d="M144.63 167.233C144.63 167.233 148.643 174.383 140.691 175.259" stroke="#7C6656" stroke-width="2.5" stroke-linecap="round" stroke-linejoin="round"/>
<path d="M128.707 143.302C128.707 143.302 127.683 148.255 118.031 148.255C108.378 148.255 103.742 141.232 103.742 141.232" stroke="#7C6656" stroke-width="2.5" stroke-linecap="round" stroke-linejoin="round"/>
<path d="M89.75 205.23C89.75 205.23 91.9994 209.877 103.743 209.148" stroke="#7C6656" stroke-width="2.5" stroke-linecap="round" stroke-linejoin="round"/>
<path d="M125.242 209.951C134.24 211.472 138.548 205.23 138.548 205.23" stroke="#7C6656" stroke-width="2.5" stroke-linecap="round" stroke-linejoin="round"/>
<path d="M92.5898 167.286C92.5898 167.286 95.6524 169.588 100.024 167.286C104.396 164.994 107.206 156.018 107.206 156.018C116.583 154.18 132.445 156.831 132.445 156.831C132.445 156.831 133.681 162.734 136.036 165.649C137.937 167.993 140.44 168.3 140.44 168.3" stroke="#7C6656" stroke-width="2.5" stroke-linecap="round" stroke-linejoin="round"/>
<path d="M133.184 143.335C133.184 143.335 133.691 152.924 132.455 156.842" stroke="#7C6656" stroke-width="2.5" stroke-linecap="round" stroke-linejoin="round"/>
<path d="M107.205 156.019C107.205 156.019 105.399 143.547 102.041 140.97" stroke="#7C6656" stroke-width="2.5" stroke-linecap="round" stroke-linejoin="round"/>
<path d="M144.345 148.255C144.345 148.255 143.669 151.972 139.973 153.651" stroke="#7C6656" stroke-width="2.5" stroke-linecap="round" stroke-linejoin="round"/>
</g>
<defs>
<filter id="filter0_f_522_15028" x="133.062" y="104.393" width="28.5664" height="19.0625" filterUnits="userSpaceOnUse" color-interpolation-filters="sRGB">
<feFlood flood-opacity="0" result="BackgroundImageFix"/>
<feBlend mode="normal" in="SourceGraphic" in2="BackgroundImageFix" result="shape"/>
<feGaussianBlur stdDeviation="2.12549" result="effect1_foregroundBlur_522_15028"/>
</filter>
<filter id="filter1_f_522_15028" x="79.2021" y="101.225" width="27.5117" height="19.0625" filterUnits="userSpaceOnUse" color-interpolation-filters="sRGB">
<feFlood flood-opacity="0" result="BackgroundImageFix"/>
<feBlend mode="normal" in="SourceGraphic" in2="BackgroundImageFix" result="shape"/>
<feGaussianBlur stdDeviation="2.12549" result="effect1_foregroundBlur_522_15028"/>
</filter>
<clipPath id="clip0_522_15028">
<rect width="256" height="256" fill="white"/>
</clipPath>
</defs>
</svg>
