<svg width="256" height="256" viewBox="0 0 256 256" fill="none" xmlns="http://www.w3.org/2000/svg">
<g clip-path="url(#clip0_522_14342)">
<path opacity="0.4" d="M129 241C168.765 241 201 236.971 201 232C201 227.029 168.765 223 129 223C89.2355 223 57 227.029 57 232C57 236.971 89.2355 241 129 241Z" fill="#E1D6CF"/>
<path d="M153.282 158.944L145.619 162.519L151.238 160.476L154.303 162.008L159.922 162.519L167.585 160.476L172.182 157.411L174.225 155.368L173.204 149.238L176.78 143.619L180.355 142.086L187.507 142.597L191.593 146.684L193.126 151.792L191.593 157.411L188.018 159.965L183.42 160.476L181.888 163.541L175.247 169.16L165.542 174.268L155.836 175.801L150.728 175.29L152.771 195.723L150.728 196.744L147.663 212.58L146.641 220.242L148.174 225.35L149.706 226.883L149.195 229.437L146.641 231.48H141.022L135.403 229.437L133.36 226.372L132.338 218.199L131.827 203.896H124.165L121.1 220.753L119.568 225.861L117.013 229.437L111.905 231.48L108.84 231.991L103.732 230.969L102.71 229.437V225.861L105.265 222.285L105.775 219.221L106.286 209.515V197.766L103.732 196.234L103.221 195.723L104.754 184.485L105.775 175.801L100.156 176.822L92.494 176.311L86.3641 174.779L80.2342 171.714L75.126 167.628L72.5719 164.563H68.9962L65.9312 163.541L64.3988 162.008L63.3771 160.476L62.3555 155.879L63.3771 151.792L65.4204 148.216L69.507 145.662L73.0827 145.151L76.6585 146.684L80.7451 150.77L81.7667 155.879V158.433L85.3425 161.498L96.0697 163.541L102.71 162.008L105.775 160.476L102.2 158.944L90.4507 152.814L83.2992 143.108L81.7667 135.957L80.7451 124.718L77.1693 116.035L76.1477 107.351L75.6368 99.1774L78.1909 90.4934L82.2775 84.3635L88.4074 78.2337L123.654 64.4415L129.784 63.9307L142.555 64.9523L155.325 69.0389L166.052 74.6579L173.715 82.3203L177.29 89.4718L178.823 97.6449L177.29 103.264L173.204 112.459L177.29 120.632L179.334 128.294L178.823 137.489L175.758 143.619L172.693 148.216L165.031 154.346L153.282 158.944Z" fill="white"/>
<path d="M184.246 114.799L210.809 122.972L185.155 131.452" fill="#F39EB0"/>
<path d="M151.156 175.208C173.724 178.467 183.726 160.486 183.726 160.486C183.726 160.486 194.238 160.537 192.369 149.861C190.826 141.074 181.049 140.88 177.8 143.332C174.551 145.794 172.273 150.831 174.398 155.183C174.398 155.183 166.572 165.941 150.911 160.557L139.57 160.475L138.242 160.639" fill="white"/>
<path d="M151.155 175.208C173.723 178.467 183.725 160.486 183.725 160.486C183.725 160.486 194.238 160.537 192.368 149.861C190.826 141.074 181.049 140.88 177.8 143.332C174.551 145.794 172.273 150.831 174.398 155.183C174.398 155.183 166.572 165.941 150.91 160.557" stroke="#7C6656" stroke-width="2.5" stroke-linecap="round" stroke-linejoin="round"/>
<path d="M155.539 162.019C155.539 162.019 158.685 167.975 152.801 175.412" stroke="#7C6656" stroke-width="2.5" stroke-linecap="round" stroke-linejoin="round"/>
<path d="M105.733 222.939C105.733 222.939 100.942 225.085 102.27 229.263C103.598 233.442 111.638 233.043 115.653 230.367C118.33 228.916 120.128 222.704 117.87 221.376C115.612 220.038 105.743 222.939 105.743 222.939H105.733Z" fill="white"/>
<path d="M145.772 222.306C145.772 222.306 149.041 226.045 149.153 226.229C149.266 226.423 151.697 228.865 146.936 230.888C142.176 232.921 138.773 231.113 136.23 229.263C133.686 227.414 132.49 225.841 135.627 223.287C138.763 220.733 145.782 222.296 145.782 222.296L145.772 222.306Z" fill="white"/>
<path d="M106.817 175.106C84.8104 181.093 72.6937 164.47 72.6937 164.47C72.6937 164.47 62.2627 165.799 62.8246 154.979C63.2844 146.071 72.9594 144.681 76.484 146.725C80.0087 148.768 82.8897 153.488 81.3062 158.065C81.3062 158.065 90.3886 167.791 105.274 160.527L116.522 159.066H117.861" fill="white"/>
<path d="M106.817 175.106C84.8104 181.093 72.6937 164.47 72.6937 164.47C72.6937 164.47 62.2627 165.799 62.8246 154.979C63.2844 146.071 72.9594 144.681 76.484 146.725C80.0087 148.768 82.8897 153.488 81.3062 158.065C81.3062 158.065 90.3886 167.791 105.274 160.527" stroke="#7C6656" stroke-width="2.5" stroke-linecap="round" stroke-linejoin="round"/>
<path d="M105.806 213.51C104.958 218.352 105.285 223.215 105.285 223.215C105.285 223.215 109.994 229.611 119.843 225.341C121.774 215.901 123.909 203.917 123.909 203.917L131.99 204.152C131.99 204.152 131.163 220.151 133.768 226.648C139.408 226.934 144.066 227.864 147.417 223.828C147.009 219.384 147.734 214.899 149.093 205.367C150.452 195.835 151.391 196.898 150.196 195.703C137.558 199.789 106.408 194.763 106.408 194.763C106.408 194.763 106.051 212.131 105.806 213.52V213.51Z" fill="#8FBDE2"/>
<path d="M106.397 194.752C106.397 197.296 106.224 203.456 106.213 206.562C106.172 216.145 105.273 223.205 105.273 223.205C105.273 223.205 108.502 228.211 119.832 225.33" stroke="#7C6656" stroke-width="2.5" stroke-linecap="round" stroke-linejoin="round"/>
<path d="M104.743 223.787C103.66 224.369 102.404 225.35 102.291 226.791C102.087 229.355 103.211 232.532 109.954 232.052C116.686 231.572 120.109 227.465 121.069 220.702C122.04 213.949 123.899 203.916 123.899 203.916C123.899 203.916 133.584 204.866 136.22 203.385" stroke="#7C6656" stroke-width="2.5" stroke-linecap="round" stroke-linejoin="round"/>
<path d="M131.98 204.142C131.98 204.142 132.052 224.687 133.666 227.415C135.28 230.142 140.736 231.685 144.659 231.695C148.582 231.695 150.166 228.896 149.522 227.026C149.195 226.087 148.562 225.402 148 224.952" stroke="#7C6656" stroke-width="2.5" stroke-linecap="round" stroke-linejoin="round"/>
<path d="M150.676 193.566C149.409 207.287 145.813 212.814 147.407 223.817C147.407 223.817 145.517 228.098 133.758 226.637" stroke="#7C6656" stroke-width="2.5" stroke-linecap="round" stroke-linejoin="round"/>
<path d="M110.587 158.004C110.587 158.004 104.294 186.109 103.609 196.724C103.609 196.724 137.089 201.526 152.842 196.285C152.842 196.285 149.92 167.393 146.61 160.098" fill="white"/>
<path d="M108.451 166.125C108.451 166.125 103.792 186.058 103.098 196.673C103.098 196.673 136.955 201.158 152.709 195.906C152.709 195.906 151.421 173.42 148.122 166.115" stroke="#7C6656" stroke-width="2.5" stroke-linecap="round" stroke-linejoin="round"/>
<path d="M141.543 162.366C140.981 164.42 138.09 168.639 131.398 168.987C121.641 169.487 117.841 160.742 117.871 159.955" stroke="#7C6656" stroke-width="2.5" stroke-linecap="round" stroke-linejoin="round"/>
<path d="M151.259 160.732C151.259 160.732 121.611 166.279 112.181 161.948C103.333 159.69 94.9865 160.803 85.5159 147.072C78.8548 136.948 80.612 122.9 80.612 122.9C80.612 122.9 74.2472 111.192 76.1678 97.1957C78.0885 83.1992 88.7954 76.8957 102.056 71.2256C112.518 66.4034 122.806 61.7856 141.359 65.1161C159.922 68.4467 170.833 76.5483 174.215 82.3104C177.597 88.0725 182.899 106.115 173.091 106.86C173.132 109.987 173.142 111.57 173.142 111.57C173.142 111.57 179.538 119.243 179.65 130.205C179.773 141.167 172.836 153.989 151.238 160.711L151.259 160.732Z" fill="white"/>
<g filter="url(#filter0_f_522_14342)">
<path d="M161.821 134.603C167.179 133.998 171.241 130.969 170.893 127.836C170.545 124.704 165.92 122.655 160.562 123.259C155.205 123.864 151.143 126.893 151.491 130.026C151.838 133.158 156.464 135.208 161.821 134.603Z" fill="#F5B0B0"/>
</g>
<g filter="url(#filter1_f_522_14342)">
<path d="M110.604 141.906C115.962 141.301 120.024 138.271 119.676 135.139C119.328 132.006 114.703 129.957 109.346 130.562C103.988 131.167 99.9263 134.196 100.274 137.329C100.622 140.461 105.247 142.51 110.604 141.906Z" fill="#F5B0B0"/>
</g>
<path d="M111.699 118.926L121.344 121.858L114.029 124.381" stroke="#7C6656" stroke-width="2.5" stroke-linecap="round" stroke-linejoin="round"/>
<path d="M155.814 113.593L147.498 119.273L155.232 119.488" stroke="#7C6656" stroke-width="2.5" stroke-linecap="round" stroke-linejoin="round"/>
<path d="M172.314 102.242C173.479 105.45 173.07 109.884 173.162 111.58C174.368 114.226 180.722 122.308 179.527 133.27C178.332 144.232 170.312 154.285 151.595 159.894C151.595 159.894 140.561 162.581 136.557 162.54" stroke="#7C6656" stroke-width="2.5" stroke-linecap="round" stroke-linejoin="round"/>
<path d="M128.67 162.723C115.92 163.673 101.74 161.058 92.2281 153.957C84.3308 148.062 80.1625 140.533 80.6223 122.899" stroke="#7C6656" stroke-width="2.5" stroke-linecap="round" stroke-linejoin="round"/>
<path d="M79.7333 123.145C63.0499 79.2554 102.812 71.0516 102.812 71.0516C128.915 54.4192 161.148 71.828 161.148 71.828C161.148 71.828 184.677 83.8221 176.82 105.205" stroke="#7C6656" stroke-width="2.5" stroke-linecap="round" stroke-linejoin="round"/>
<path d="M107.593 83.9033C107.593 83.9033 106.786 98.4311 130.652 104.306" stroke="#7C6656" stroke-width="2.5" stroke-linecap="round" stroke-linejoin="round"/>
<path d="M103.129 92.7822C103.129 92.7822 90.502 101.977 88.7754 115.984" stroke="#7C6656" stroke-width="2.5" stroke-linecap="round" stroke-linejoin="round"/>
<path d="M155.416 102.62C155.416 102.62 138.773 99.2898 131.918 85.1094" stroke="#7C6656" stroke-width="2.5" stroke-linecap="round" stroke-linejoin="round"/>
<path d="M127.025 67.4145C127.025 67.4145 120.415 70.6939 121.293 75.9656C121.968 80.0113 124.133 81.6153 131.203 84.5576C138.263 87.5 150.216 80.1033 155.866 71.2661C150.523 66.9241 140.95 58.5977 127.035 67.4145H127.025Z" fill="#1AAF92"/>
<path d="M123.715 80.2157C123.715 80.2157 139.694 96.4088 156.101 70.8881C156.101 70.8881 140.296 55.0935 122.162 70.9903" stroke="#7C6656" stroke-width="2.5" stroke-linecap="round" stroke-linejoin="round"/>
<path d="M139.52 74.0044C139.551 74.2292 125.657 80.0219 117.014 72.5537" stroke="#7C6656" stroke-width="2.5" stroke-linecap="round" stroke-linejoin="round"/>
<path d="M146.498 127.028C146.498 127.028 140.429 129.694 137.17 129.684C133.911 129.684 128.221 129.684 128.221 129.684C128.221 129.684 128.262 138.041 130.366 142.904C132.471 147.767 141.543 147.634 141.543 147.634C141.543 147.634 148.041 146.071 148.48 137.326C148.919 128.591 146.508 127.018 146.508 127.018L146.498 127.028Z" fill="#F29AA0"/>
<path d="M148.131 126.118C148.131 126.118 140.172 131.696 126.217 128.907" stroke="#7C6656" stroke-width="2.5" stroke-linecap="round" stroke-linejoin="round"/>
<path d="M146.497 127.027C146.497 127.027 153.026 144.344 142.339 147.113C129.599 150.413 127.352 137.56 128.22 129.694" stroke="#7C6656" stroke-width="2.5" stroke-linecap="round" stroke-linejoin="round"/>
<path d="M123.94 64.3092L90.2254 33.9971L88.7031 79.0005C88.7031 79.0005 108.268 81.6057 123.94 64.3092Z" fill="#FFF9C5"/>
<mask id="mask0_522_14342" style="mask-type:luminance" maskUnits="userSpaceOnUse" x="88" y="33" width="36" height="47">
<path d="M123.94 64.3092L90.2254 33.9971L88.7031 79.0005C88.7031 79.0005 108.268 81.6057 123.94 64.3092Z" fill="white"/>
</mask>
<g mask="url(#mask0_522_14342)">
<path d="M120.568 54.7266C120.568 54.7266 112.671 70.4701 81.7969 71.0729" stroke="#F39200" stroke-width="2.5" stroke-miterlimit="10"/>
<path d="M113.928 44.6025C113.928 44.6025 107.093 60.3461 80.3672 60.9488" stroke="#F39200" stroke-width="2.5" stroke-miterlimit="10"/>
<path d="M108.492 35.5303C108.492 35.5303 101.627 50.8141 79.2734 49.772" stroke="#F39200" stroke-width="2.5" stroke-miterlimit="10"/>
</g>
<path d="M123.94 64.3092L90.2254 33.9971L88.7031 79.0005C88.7031 79.0005 108.268 81.6057 123.94 64.3092Z" stroke="#7C6656" stroke-width="2.5" stroke-linecap="round" stroke-linejoin="round"/>
<path d="M88.2136 33.8125L76.5566 34.875L78.3854 41.3829L88.2136 33.8125Z" fill="#F1894C"/>
<path d="M87.9985 33.2003L78.3439 26.5801L75.5957 32.761L87.9985 33.2003Z" fill="#F1894C"/>
<path d="M88.2233 32.5862L85.0154 21.3379L78.957 24.3415L88.2233 32.5862Z" fill="#F1894C"/>
<path d="M88.7856 32.2597L93.4954 21.5529L86.916 20L88.7856 32.2597Z" fill="#F1894C"/>
<path d="M89.4297 32.3726L99.8913 27.1316L95.815 21.7373L89.4297 32.3726Z" fill="#F1894C"/>
<path d="M100.86 162.55C100.86 162.55 98.459 168.843 105.212 175.504" stroke="#7C6656" stroke-width="2.5" stroke-linecap="round" stroke-linejoin="round"/>
<path d="M72.1012 137.335L73.2352 152.946L61.8848 141.983L72.1012 137.335Z" fill="#FFF9C5"/>
<path d="M72.1012 137.335L73.2352 152.946L61.8848 141.983L72.1012 137.335Z" stroke="#7C6656" stroke-width="2.5" stroke-linecap="round" stroke-linejoin="round"/>
<path d="M184.246 149.309V113.593" stroke="#7C6656" stroke-width="2.5" stroke-linecap="round" stroke-linejoin="round"/>
<path d="M184.246 114.799L210.809 122.972L185.155 131.452" stroke="#7C6656" stroke-width="2.5" stroke-linecap="round" stroke-linejoin="round"/>
<path d="M81.1229 125.731C81.1229 125.731 72.02 116.842 64.276 123.493C58.9634 128.06 69.8235 133.832 69.8235 133.832C69.8235 133.832 63.4689 128.418 65.2567 125.966C68.4545 121.583 76.4335 127.283 76.4335 127.283L81.1229 125.72V125.731Z" fill="#FFF9C5"/>
<path d="M60.9767 136.917C60.9767 136.917 48.9826 129.142 45.1617 136.427C42.8323 140.861 47.5319 142.475 47.5319 142.475C47.5319 142.475 43.3125 139.236 47.3786 136.529C50.2392 134.628 58.9028 138.787 58.9028 138.787L60.9665 136.927L60.9767 136.917Z" fill="#FCEA10"/>
<path d="M47.9194 142.71C47.9194 142.71 50.3305 143.221 49.9832 141.096C49.6358 138.971 47.6845 134.997 43.1075 134.445C38.5203 133.893 34.6074 135.477 34.6074 135.477L36.947 137.489C36.947 137.489 44.262 135.048 46.9795 137.51C49.7073 139.982 49.3395 141.259 49.2476 141.811C49.1556 142.363 47.9807 142.863 47.9092 142.7L47.9194 142.71Z" fill="#FCEA10"/>
<path d="M59.0038 109.588L54.3144 107.014C54.3144 107.014 46.2741 114.267 51.7399 121.623C54.8457 125.791 60.9755 127.927 60.9755 127.927C60.9755 127.927 53.7832 122.226 53.0987 119.049C51.5866 112.01 59.0038 109.588 59.0038 109.588Z" fill="#92BC72"/>
<path d="M28.1503 119.783C28.1503 119.783 23.7368 120.672 22 118.098C22 118.098 23.4405 125.106 23.7368 125.198C24.0331 125.29 29.7134 124.156 30.5512 123.318L28.1503 119.783Z" fill="#FFF9C5"/>
<path d="M49.4515 126.895L48.3175 131.186L42.4941 128.713L42.5657 122.021C42.5657 122.021 48.624 125.771 49.4515 126.905V126.895Z" fill="#F08395"/>
<path d="M42.2894 96.9505L38.1313 98.4932L36.793 92.3122L42.3098 88.5117C42.3098 88.5117 42.7389 95.6121 42.2996 96.9505H42.2894Z" fill="#9BB5DF"/>
<path opacity="0.51" d="M131.295 173.165L134.064 178.477C134.125 178.59 134.227 178.661 134.35 178.682L139.795 179.397C140.112 179.438 140.245 179.816 140.02 180.051L136.26 183.882C136.179 183.964 136.138 184.076 136.148 184.188L136.802 190.032C136.833 190.349 136.495 190.563 136.23 190.41L131.142 187.427C131.019 187.356 130.876 187.356 130.754 187.427L125.666 190.41C125.39 190.574 125.053 190.349 125.094 190.032L125.748 184.188C125.758 184.076 125.717 183.964 125.635 183.882L121.876 180.051C121.651 179.826 121.784 179.438 122.101 179.397L127.546 178.682C127.668 178.661 127.781 178.59 127.832 178.477L130.601 173.165C130.744 172.889 131.142 172.889 131.285 173.165H131.295Z" fill="#F39200"/>
</g>
<defs>
<filter id="filter0_f_522_14342" x="149.471" y="121.153" width="23.4434" height="15.5552" filterUnits="userSpaceOnUse" color-interpolation-filters="sRGB">
<feFlood flood-opacity="0" result="BackgroundImageFix"/>
<feBlend mode="normal" in="SourceGraphic" in2="BackgroundImageFix" result="shape"/>
<feGaussianBlur stdDeviation="1" result="effect1_foregroundBlur_522_14342"/>
</filter>
<filter id="filter1_f_522_14342" x="98.2539" y="128.456" width="23.4434" height="15.5552" filterUnits="userSpaceOnUse" color-interpolation-filters="sRGB">
<feFlood flood-opacity="0" result="BackgroundImageFix"/>
<feBlend mode="normal" in="SourceGraphic" in2="BackgroundImageFix" result="shape"/>
<feGaussianBlur stdDeviation="1" result="effect1_foregroundBlur_522_14342"/>
</filter>
<clipPath id="clip0_522_14342">
<rect width="256" height="256" fill="white"/>
</clipPath>
</defs>
</svg>
