<svg width="256" height="256" viewBox="0 0 256 256" fill="none" xmlns="http://www.w3.org/2000/svg">
<g clip-path="url(#clip0_522_14494)">
<path opacity="0.4" d="M129 231C168.765 231 201 226.971 201 222C201 217.029 168.765 213 129 213C89.2355 213 57 217.029 57 222C57 226.971 89.2355 231 129 231Z" fill="#E1D6CF"/>
<path d="M156.816 164.236L154.551 164.802L155.683 176.695L155.117 181.225L152.852 181.791L158.515 189.154L161.347 194.25L161.913 204.444L160.78 212.939L162.479 214.072L163.045 216.337L160.78 218.602L153.984 219.168L146.622 218.036L144.357 215.771V213.505L145.49 207.842V202.745L143.224 198.215L135.862 190.853H120.572L111.511 200.48L110.378 205.577L110.944 211.806L112.077 214.072V215.771L106.98 218.602L99.6179 219.168L93.9547 218.602L93.3884 216.903L95.0874 212.939L93.9547 197.648L96.22 191.985L101.883 184.623L103.582 181.225L100.751 180.659L100.184 178.394L103.016 164.236L90.5568 165.935L84.3273 163.669L79.7968 159.139L75.8326 150.078L71.302 148.379L66.7715 145.547V136.486L69.6031 132.522L74.1336 130.257H76.9652L81.4957 131.389L83.761 133.654L87.1589 137.052V142.149V146.68L89.9905 151.777H94.521L101.883 149.511L105.281 146.68L91.6895 139.884L80.9294 129.69L78.0978 121.762L76.3989 109.303L78.0978 100.808L76.3989 94.5786L75.2662 78.7217L78.0978 67.3953L84.3273 57.7679L91.1231 52.1048L101.883 47.0079L110.378 45.8753L122.837 41.3447H136.429L152.852 44.1763L169.275 52.1048L181.168 60.5995L188.53 73.0585L190.229 78.7217L187.963 92.3133L181.734 103.073L184.566 112.701L185.698 122.328L182.867 130.823L189.096 133.654L193.06 138.751V144.981L189.096 148.945L184.566 150.644L181.734 155.741L174.938 164.236L170.408 165.935H163.045L156.816 164.236Z" fill="white"/>
<path d="M95.3668 210.756C95.3668 210.756 91.9236 216.238 92.8524 217.767C93.7698 219.296 102.185 220.587 105.832 219.172C109.491 217.756 112.662 216.08 109.615 209.476C106.557 202.884 95.3781 210.745 95.3781 210.745L95.3668 210.756Z" fill="white"/>
<path d="M145.474 208.197C145.474 208.197 140.887 216.85 149.008 218.311C157.129 219.772 164.786 218.685 162.849 215.672C160.912 212.659 159.134 208.525 159.134 208.525L145.474 208.197Z" fill="white"/>
<path d="M151.953 181.5L104.19 181.16C104.19 181.16 94.3359 190.55 94.2226 196.553C94.1093 202.556 95.695 213.066 95.695 213.066C95.695 213.066 107.61 214.029 110.295 213.044C110 208.411 109.581 201.751 113.013 198.467C116.445 195.182 120.613 191.637 120.613 191.637C120.613 191.637 134.363 190.459 135.734 191.603C137.104 192.736 143.662 197.991 144.874 201.14C146.086 204.289 144.466 213.633 144.466 213.633C144.466 213.633 161.92 213.497 161.92 212.636C161.92 211.673 162.974 196.915 161.92 195.08C160.867 193.245 151.964 181.511 151.964 181.511L151.953 181.5Z" fill="#8FBDE2"/>
<path d="M108.051 174.251C108.198 176.188 108.051 178.793 106.182 180.684C106.182 180.684 93.9496 189.417 94.0175 198.682C94.0855 207.947 95.0596 212.976 95.0596 212.976C95.0596 212.976 93.757 214.471 92.9415 216.396C92.1147 218.322 96.8265 220.247 104.03 219.194C108.957 218.48 112.581 217.042 111.528 213.939C110.475 210.835 109.251 202.499 112.547 198.931C115.855 195.363 121.088 191.229 121.088 191.229C121.088 191.229 132.267 190.969 137.194 191.139" stroke="#7C6656" stroke-width="2.5" stroke-linecap="round" stroke-linejoin="round"/>
<path d="M95.0605 212.976C95.0605 212.976 100.758 213.95 110.883 212.976" stroke="#7C6656" stroke-width="2.5" stroke-linecap="round" stroke-linejoin="round"/>
<path d="M149.008 173.922C148.861 175.859 149.008 177.093 149.79 180.355C149.79 180.355 162.022 189.088 161.954 198.353C161.887 207.618 160.912 212.647 160.912 212.647C160.912 212.647 162.215 214.142 163.03 216.067C163.857 217.993 159.146 219.918 151.942 218.865C147.015 218.151 143.391 216.713 144.444 213.609C145.497 210.506 146.721 202.17 143.425 198.602C140.117 195.034 135.723 191.58 135.723 191.58" stroke="#7C6656" stroke-width="2.5" stroke-linecap="round" stroke-linejoin="round"/>
<path d="M161.241 212.976C161.241 212.976 155.544 213.95 145.418 212.976" stroke="#7C6656" stroke-width="2.5" stroke-linecap="round" stroke-linejoin="round"/>
<path d="M106.852 148.676C106.852 148.676 100.611 165.756 100.611 181.42C100.611 181.42 139.359 183.583 155.034 181.092C155.034 181.092 156.337 160.115 151.614 150.465" fill="white"/>
<path d="M106.852 148.676C106.852 148.676 100.611 165.756 100.611 181.42C100.611 181.42 139.359 183.583 155.034 181.092C155.034 181.092 156.337 160.115 151.614 150.465" stroke="#7C6656" stroke-width="2.5" stroke-linecap="round" stroke-linejoin="round"/>
<path d="M118.099 149.469C118.099 149.469 116.638 154.509 124.827 156.684C130.343 158.145 138.713 156.684 141.873 152.346" stroke="#7C6656" stroke-width="2.5" stroke-linecap="round" stroke-linejoin="round"/>
<path d="M76.3163 94.2529C76.3163 94.2529 77.834 97.5375 77.3583 104.911C76.8826 112.454 72.0576 132.581 101.54 145.482C114.815 150.817 139.653 153.592 154.966 149.503C170.28 145.414 183.033 137.429 186.023 120.892C185.876 115.762 183.611 104.05 181.096 100.958L182.036 97.2883C182.036 97.2883 186.307 95.8499 189.014 88.3065C191.72 80.7632 188.9 63.4112 168.615 51.4619C151.557 42.7519 136.606 35.707 111.575 44.904C100.951 44.9153 87.5181 52.9004 78.6948 66.4014C74.3682 74.6696 76.3163 94.2642 76.3163 94.2642V94.2529Z" fill="white"/>
<g filter="url(#filter0_f_522_14494)">
<path d="M170.634 123.815C176.611 123.727 181.42 120.822 181.374 117.329C181.329 113.835 176.447 111.074 170.47 111.163C164.494 111.251 159.685 114.156 159.73 117.649C159.776 121.143 164.658 123.904 170.634 123.815Z" fill="#F5B0B0"/>
</g>
<g filter="url(#filter1_f_522_14494)">
<path d="M103.808 124.077C109.785 123.988 114.594 121.084 114.548 117.59C114.503 114.097 109.621 111.336 103.644 111.425C97.6674 111.513 92.859 114.417 92.9043 117.911C92.9496 121.405 97.8315 124.165 103.808 124.077Z" fill="#F5B0B0"/>
</g>
<path d="M148.114 119.306C148.114 119.306 140.333 112.737 127.726 119.306C127.726 119.306 121.248 151.439 124.396 151.711C127.545 151.983 129.686 146.886 136.278 146.478C142.881 146.071 144.172 152.459 147.128 151.711C150.085 150.964 148.125 119.306 148.125 119.306H148.114Z" fill="#BD7A7E"/>
<path d="M117.272 115.025C121.807 115.025 125.484 110.446 125.484 104.798C125.484 99.1494 121.807 94.5703 117.272 94.5703C112.737 94.5703 109.061 99.1494 109.061 104.798C109.061 110.446 112.737 115.025 117.272 115.025Z" stroke="#7C6656" stroke-width="2.5" stroke-linecap="round" stroke-linejoin="round"/>
<path d="M122.652 115.354C122.652 115.354 118.008 120.586 109.887 115.671" stroke="#7C6656" stroke-width="2" stroke-linecap="round" stroke-linejoin="round"/>
<path d="M123.603 116.588C123.603 116.588 117.702 125.003 107.814 118.253" stroke="#7C6656" stroke-width="2" stroke-linecap="round" stroke-linejoin="round"/>
<path d="M156.835 115.026C161.37 115.026 165.046 110.447 165.046 104.798C165.046 99.1494 161.37 94.5703 156.835 94.5703C152.3 94.5703 148.623 99.1494 148.623 104.798C148.623 110.447 152.3 115.026 156.835 115.026Z" stroke="#7C6656" stroke-width="2.5" stroke-linecap="round" stroke-linejoin="round"/>
<path d="M151.455 115.354C151.455 115.354 156.099 120.586 164.22 115.671" stroke="#7C6656" stroke-width="2" stroke-linecap="round" stroke-linejoin="round"/>
<path d="M150.504 116.588C150.504 116.588 156.405 125.003 166.293 118.253" stroke="#7C6656" stroke-width="2" stroke-linecap="round" stroke-linejoin="round"/>
<path d="M148.613 140.611C148.613 140.611 143.323 123.747 125.247 133.023C125.247 133.023 122.358 152.221 124.386 151.711C126.413 151.202 132.382 145.799 136.267 146.479C140.152 147.147 145.566 150.828 145.566 150.828C145.566 150.828 148.058 152.946 148.375 147.872C148.692 142.797 148.613 140.611 148.613 140.611Z" fill="#F29AA0"/>
<path d="M148.114 119.306C148.114 119.306 140.333 112.737 127.726 119.306C127.726 119.306 121.248 151.439 124.396 151.711C127.545 151.983 129.686 146.886 136.278 146.478C142.881 146.071 144.172 152.459 147.128 151.711C150.085 150.964 148.125 119.306 148.125 119.306H148.114Z" stroke="#7C6656" stroke-width="2.5" stroke-linecap="round" stroke-linejoin="round"/>
<path d="M103.748 80.5254L103.703 96.6654" stroke="#7C6656" stroke-width="2.5" stroke-linecap="round" stroke-linejoin="round"/>
<path d="M98.6855 83.7197V93.2792" stroke="#7C6656" stroke-width="2.5" stroke-linecap="round" stroke-linejoin="round"/>
<path d="M107.951 81.1709V89.2353" stroke="#7C6656" stroke-width="2.5" stroke-linecap="round" stroke-linejoin="round"/>
<path d="M182.058 90.5156C182.839 94.208 181.707 99.0217 181.537 100.902C182.454 103.994 188.174 113.848 185.161 125.707C182.149 137.554 171.162 147.227 149.744 150.477C149.744 150.477 137.217 151.723 132.822 151.055" stroke="#7C6656" stroke-width="2.5" stroke-linecap="round" stroke-linejoin="round"/>
<path d="M124.101 151.236C109.966 150.307 94.834 144.01 85.4898 134.745C77.7312 127.054 74.9676 118.254 78.1956 98.9648" stroke="#7C6656" stroke-width="2.5" stroke-linecap="round" stroke-linejoin="round"/>
<path d="M77.2334 98.9076C65.7258 48.1315 110.646 45.2999 110.646 45.2999C141.873 31.0854 174.561 55.1992 174.561 55.1992C174.561 55.1992 198.539 72.0188 186.589 94.2751" stroke="#7C6656" stroke-width="2.5" stroke-linecap="round" stroke-linejoin="round"/>
<path d="M113.851 60.3408C113.851 60.3408 110.713 76.1637 136.005 86.3121" stroke="#7C6656" stroke-width="2.5" stroke-linecap="round" stroke-linejoin="round"/>
<path d="M107.577 69.4023C107.577 69.4023 92.2869 77.5347 88.2207 92.644" stroke="#7C6656" stroke-width="2.5" stroke-linecap="round" stroke-linejoin="round"/>
<path d="M163.462 88.2951C163.462 88.2951 145.714 82.0542 140.391 65.4385" stroke="#7C6656" stroke-width="2.5" stroke-linecap="round" stroke-linejoin="round"/>
<path d="M132.88 52.6167C132.88 52.6167 125.11 55.1878 125.246 61.1115C125.359 65.6534 127.489 67.7487 134.783 72.0867C142.077 76.4247 156.348 70.1613 163.925 61.3494C158.738 55.7541 149.53 45.1187 132.88 52.6167Z" fill="#1AAF92"/>
<path d="M127.251 66.1523C127.251 66.1523 142.258 86.4264 164.254 60.9761C164.254 60.9761 149.371 41.1777 126.99 55.7887" stroke="#7C6656" stroke-width="2.5" stroke-linecap="round" stroke-linejoin="round"/>
<path d="M145.566 61.8025C145.566 62.0517 129.415 66.2425 121.09 56.6943" stroke="#7C6656" stroke-width="2.5" stroke-linecap="round" stroke-linejoin="round"/>
<path d="M98.9001 164.226C98.9001 164.226 92.3422 167.069 85.8748 164.476C80.5628 162.346 75.3527 150.057 75.3527 150.057C75.3527 150.057 63.1315 148.336 66.688 137.406C69.7461 128.039 80.3929 128.56 83.6889 131.641C86.9735 134.721 89.0462 140.781 86.2146 145.311L90.8698 151.756C90.8698 151.756 97.2465 153.342 104.19 147.475" fill="white"/>
<path d="M102.241 163.807C102.241 163.807 92.3422 167.069 85.8748 164.476C80.5628 162.346 75.3527 150.057 75.3527 150.057C75.3527 150.057 63.1315 148.336 66.688 137.406C69.7461 128.039 80.3929 128.56 83.6889 131.641C86.9735 134.721 89.0462 140.781 86.2146 145.311L90.8698 151.756C90.8698 151.756 97.2465 153.342 104.19 147.475" stroke="#7C6656" stroke-width="2.5" stroke-linecap="round" stroke-linejoin="round"/>
<path d="M98.3457 150.952C98.3457 150.952 99.4557 158.11 102.174 163.253" stroke="#7C6656" stroke-width="2.5" stroke-linecap="round" stroke-linejoin="round"/>
<path d="M160.165 164.873C160.165 164.873 166.723 167.716 173.191 165.122C178.503 162.993 183.713 150.704 183.713 150.704C183.713 150.704 195.934 148.982 192.378 138.052C189.319 128.685 178.673 129.206 175.377 132.287C172.092 135.368 170.019 141.427 172.851 145.958L168.196 152.403C168.196 152.403 163.156 156.412 156.201 150.545" fill="white"/>
<path d="M156.824 164.454C156.824 164.454 166.723 167.716 173.191 165.122C178.503 162.993 183.713 150.704 183.713 150.704C183.713 150.704 195.934 148.982 192.378 138.052C189.319 128.685 178.673 129.206 175.377 132.287C172.092 135.368 170.019 141.427 172.851 145.958L168.196 152.403C168.196 152.403 163.156 155.529 156.201 149.662" stroke="#7C6656" stroke-width="2.5" stroke-linecap="round" stroke-linejoin="round"/>
<path d="M160.062 152.572C160.062 152.572 159.609 158.756 156.902 163.899" stroke="#7C6656" stroke-width="2.5" stroke-linecap="round" stroke-linejoin="round"/>
<path d="M184.947 53.6929L193.204 42.0947L193.646 56.717L210.896 56.6831L198.788 66.6389L213.999 73.8878L199.626 76.7534L197.576 74.658L207.328 73.2422L192.955 67.024L202.288 59.6619L189.886 59.5147L191.347 49.3096L185.683 55.9695L184.947 53.6929Z" fill="#7C6656"/>
<path d="M67.3564 46.3197L63.109 49.1173C61.8631 49.9441 60.1868 49.6496 59.292 48.4604L43.5597 29.67C42.5743 28.3674 42.8915 26.4986 44.2619 25.5925L53.1758 19.7254C54.5463 18.8306 56.3811 19.261 57.1966 20.6882L68.2625 42.548C68.9987 43.8506 68.6136 45.4929 67.3564 46.3197Z" fill="#7C6656"/>
<path d="M68.4545 48.2028L64.3975 50.8769C63.0448 51.7685 62.671 53.5879 63.5626 54.9406L65.9125 58.5059C66.8042 59.8586 68.6236 60.2324 69.9763 59.3408L74.0333 56.6667C75.386 55.7751 75.7598 53.9557 74.8682 52.603L72.5182 49.0377C71.6266 47.685 69.8072 47.3112 68.4545 48.2028Z" fill="#7C6656"/>
<path d="M83.203 41.8909L79.6805 41.5738C78.6498 41.4832 77.8683 40.5997 77.891 39.5577L77.5059 22.5682C77.5398 21.4355 78.5252 20.5634 79.6465 20.6653L87.02 21.3449C88.1526 21.4469 88.9568 22.4889 88.7869 23.6102L85.321 40.2486C85.1625 41.268 84.2337 41.9929 83.203 41.9022V41.8909Z" fill="#7C6656"/>
<path d="M82.9875 43.3813L79.6376 43.0741C78.5164 42.9713 77.5241 43.7969 77.4212 44.9181L77.1512 47.8619C77.0484 48.9832 77.874 49.9755 78.9953 50.0784L82.3451 50.3856C83.4664 50.4884 84.4587 49.6628 84.5616 48.5416L84.8315 45.5977C84.9344 44.4765 84.1088 43.4841 82.9875 43.3813Z" fill="#7C6656"/>
</g>
<defs>
<filter id="filter0_f_522_14494" x="157.73" y="109.161" width="25.6445" height="16.6567" filterUnits="userSpaceOnUse" color-interpolation-filters="sRGB">
<feFlood flood-opacity="0" result="BackgroundImageFix"/>
<feBlend mode="normal" in="SourceGraphic" in2="BackgroundImageFix" result="shape"/>
<feGaussianBlur stdDeviation="1" result="effect1_foregroundBlur_522_14494"/>
</filter>
<filter id="filter1_f_522_14494" x="90.9043" y="109.422" width="25.6445" height="16.6567" filterUnits="userSpaceOnUse" color-interpolation-filters="sRGB">
<feFlood flood-opacity="0" result="BackgroundImageFix"/>
<feBlend mode="normal" in="SourceGraphic" in2="BackgroundImageFix" result="shape"/>
<feGaussianBlur stdDeviation="1" result="effect1_foregroundBlur_522_14494"/>
</filter>
<clipPath id="clip0_522_14494">
<rect width="256" height="256" fill="white"/>
</clipPath>
</defs>
</svg>
