<svg width="256" height="256" viewBox="0 0 256 256" fill="none" xmlns="http://www.w3.org/2000/svg">
<g clip-path="url(#clip0_522_14964)">
<path opacity="0.4" d="M126.117 219.229C178.097 219.229 220.235 207.219 220.235 192.405C220.235 177.591 178.097 165.582 126.117 165.582C74.1378 165.582 32 177.591 32 192.405C32 207.219 74.1378 219.229 126.117 219.229Z" fill="#E1D6CF"/>
<path d="M73.7422 70.3209L74.5635 88.1843L77.0192 93.2846L76.0008 101.12L77.2327 108.717L78.67 117.341L84.6245 124.117L92.0163 128.839L102.488 133.356L107.416 135.41L103.104 143.007L98.7921 153.273L99.8187 158.612L102.488 162.718V167.235L101.667 169.289L98.1761 170.521L96.1229 174.832L94.8909 180.171L96.1229 183.045L101.051 183.867L105.157 182.224L114.808 184.277L130.002 185.304L134.519 183.045L138.01 183.867L146.428 183.045L151.561 177.707L152.383 171.547L151.561 167.235L154.641 161.486L153.614 156.969L150.74 153.889L149.303 148.756L144.58 140.543L141.295 136.847L152.793 133.356L167.166 124.938L173.737 115.493L174.968 101.736L170.862 91.4696L174.968 81.8192L176.816 71.7581L173.942 61.6971L163.675 49.7881L153.204 44.655L140.884 39.9324L127.949 37.6738L117.682 38.7005L111.317 39.9324L102.488 43.423L99.6134 43.8336L86.2671 49.7881L77.8487 58.8225L73.7422 70.3209Z" fill="white"/>
<path d="M152.838 171.603C152.838 171.603 172.673 177.098 173.5 180.101C174.348 183.165 174.021 184.462 170.089 187.73C166.167 190.999 127.927 206.084 120.246 204.961C120.246 204.961 80.035 189.558 76.0823 186.842C73.1 184.799 71.2819 180.999 76.0823 178.15C80.8828 175.29 96.7855 168.559 102.158 167.078" fill="#BEA18B"/>
<path d="M152.838 171.603C152.838 171.603 172.673 177.098 173.5 180.101C174.348 183.165 174.021 184.462 170.089 187.73C166.167 190.999 127.927 206.084 120.246 204.961C120.246 204.961 80.035 189.558 76.0823 186.842C73.1 184.799 71.2819 180.999 76.0823 178.15C80.8828 175.29 96.7855 168.559 102.158 167.078" stroke="#7C6B5A" stroke-width="2.5" stroke-linecap="round" stroke-linejoin="round"/>
<path d="M76.082 183.164C76.082 183.164 114.904 198.413 118.183 199.291C121.451 200.16 125.159 199.077 130.838 197.545" stroke="#7C6B5A" stroke-width="2.5" stroke-linecap="round" stroke-linejoin="round"/>
<path d="M151.775 190.292C151.775 190.292 167.065 184.276 170.65 181.212" stroke="#7C6B5A" stroke-width="2.5" stroke-linecap="round" stroke-linejoin="round"/>
<path d="M197.106 142.802C197.106 142.802 207.432 115.45 223.998 112.161C223.998 112.161 204.245 107.279 191.314 143.251" fill="#85C175"/>
<path d="M197.106 142.802C197.106 142.802 207.432 115.45 223.998 112.161C223.998 112.161 204.245 107.279 191.314 143.251" stroke="#85C175" stroke-width="2.5" stroke-linecap="round" stroke-linejoin="round"/>
<path d="M189.17 143.261C189.17 143.261 182.245 106.717 164.77 101.957C164.77 101.957 181.111 117.625 183.726 144.007" fill="#AFD4A1"/>
<path d="M189.17 143.261C189.17 143.261 182.245 106.717 164.77 101.957C164.77 101.957 181.111 117.625 183.726 144.007" stroke="#AFD4A1" stroke-width="2.5" stroke-linecap="round" stroke-linejoin="round"/>
<path d="M186.238 144.885C186.238 144.885 175.871 122.977 167.199 119.657C167.199 119.657 177.903 131.638 180.222 143.138" fill="#85C175"/>
<path d="M186.238 144.885C186.238 144.885 175.871 122.977 167.199 119.657C167.199 119.657 177.903 131.638 180.222 143.138" stroke="#85C175" stroke-width="2.5" stroke-linecap="round" stroke-linejoin="round"/>
<path d="M188.598 142.69C188.598 145.642 190.416 105.696 199.036 95.9316C199.036 95.9316 193.48 131.189 193.817 144.886" fill="#AFD4A1"/>
<path d="M188.598 142.69C188.598 145.642 190.416 105.696 199.036 95.9316C199.036 95.9316 193.48 131.189 193.817 144.886" stroke="#AFD4A1" stroke-width="2.5" stroke-linecap="round" stroke-linejoin="round"/>
<path d="M185.756 143.908C186.236 121.856 183.254 104.564 183.254 104.564C187.676 110.356 190.026 124.287 190.026 124.287C190.026 124.287 191.537 135.859 191.302 144.01" fill="#85C175"/>
<path d="M185.756 143.908C186.236 121.856 183.254 104.564 183.254 104.564C187.676 110.356 190.026 124.287 190.026 124.287C190.026 124.287 191.537 135.859 191.302 144.01" stroke="#85C175" stroke-width="2.5" stroke-linecap="round" stroke-linejoin="round"/>
<path d="M203.531 143.619H173.656L178.753 178.152H198.435L203.531 143.619Z" fill="#D2C0AE"/>
<path opacity="0.5" d="M201.631 156.489H175.801" stroke="white" stroke-width="2.5" stroke-linecap="round" stroke-linejoin="round"/>
<path opacity="0.5" d="M200.065 167.078H177.381" stroke="white" stroke-width="2.5" stroke-linecap="round" stroke-linejoin="round"/>
<path d="M203.531 143.619H173.656L178.753 178.152H198.435L203.531 143.619Z" stroke="#D2C0AE" stroke-width="2.5" stroke-linecap="round" stroke-linejoin="round"/>
<path d="M103.453 169.764C103.453 169.764 99.858 168.232 98.0093 171.449C96.1504 174.667 92.0343 181.142 98.0093 183.154C101.696 183.798 103.566 182.388 103.566 182.388C103.566 182.388 103.167 176.209 105.169 172.706" fill="white"/>
<path d="M169.018 67.9537C169.018 67.9537 171.582 81.9362 170.744 88.81C172.44 94.6318 183.716 114.927 160.061 130.053C148.611 134.639 126.601 141.084 101.761 133.812C89.3617 128.072 75.6958 124.65 76.0839 103.508C75.1443 98.1249 80.4656 83.264 80.4656 83.264C80.4656 83.264 119.084 37.1084 169.008 67.9537H169.018Z" fill="white"/>
<path d="M141.164 164.791C144.371 170.746 148.579 168.509 151.071 166.895C153.931 172.298 151.817 177.16 149.529 180.541C147.251 183.921 140.439 184.228 135.383 183.053C128.662 188.446 110.86 183.952 108.633 183.053C106.407 182.154 104.834 182.971 103.731 183.349C102.423 176.557 104.303 174.882 105.845 172.839C101.473 167.916 102.811 166.292 103.23 163.433C108.817 166.578 117.856 166.435 117.856 166.435C124.659 170.827 128.427 169.622 130.174 167.396L131.491 165.496L141.164 164.801V164.791Z" fill="#8EBDE2"/>
<g filter="url(#filter0_f_522_14964)">
<path d="M161.763 114.88C166.545 114.88 170.421 112.748 170.421 110.118C170.421 107.488 166.545 105.356 161.763 105.356C156.982 105.356 153.105 107.488 153.105 110.118C153.105 112.748 156.982 114.88 161.763 114.88Z" fill="#F5B0B0"/>
</g>
<g filter="url(#filter1_f_522_14964)">
<path d="M110.679 114.88C115.461 114.88 119.337 112.748 119.337 110.118C119.337 107.488 115.461 105.356 110.679 105.356C105.898 105.356 102.021 107.488 102.021 110.118C102.021 112.748 105.898 114.88 110.679 114.88Z" fill="#F5B0B0"/>
</g>
<path d="M150.286 113.517C150.286 113.517 146.027 118.736 138.376 118.736C130.726 118.736 126.723 113.517 126.723 113.517" stroke="#7C6656" stroke-width="2.5" stroke-linecap="round" stroke-linejoin="round"/>
<path d="M125.129 101.64C123.954 102.938 121.963 103.693 119.797 103.469C117.509 103.234 115.63 101.988 114.803 100.354" stroke="#7C6656" stroke-width="2.5" stroke-linecap="round" stroke-linejoin="round"/>
<path d="M160.049 100.691C159.151 102.193 157.343 103.316 155.167 103.521C152.879 103.735 150.796 102.877 149.662 101.437" stroke="#7C6656" stroke-width="2.5" stroke-linecap="round" stroke-linejoin="round"/>
<path d="M107.694 136.306C107.694 136.306 99.1961 145.672 98.9509 153.802C98.7058 161.932 104.395 166.426 117.856 166.426C117.856 166.426 127.386 174.117 131.716 165.037C135.567 156.988 128.571 151.116 119.991 155.538C119.991 155.538 109.4 155.324 110.666 151.779L111.933 148.235" stroke="#7C6656" stroke-width="2.5" stroke-linecap="round" stroke-linejoin="round"/>
<path d="M136.24 183.379C146.903 185.431 153.072 179.599 152.541 172.235C152.112 166.322 145.841 163.564 145.841 163.564C145.841 163.564 146.607 160.306 145.923 154.852C144.861 146.333 141.153 137.529 141.153 137.529" stroke="#7C6656" stroke-width="2.5" stroke-linecap="round" stroke-linejoin="round"/>
<path d="M132.801 168.702C132.985 168.856 137.377 170.449 137.377 176.271C137.377 182.093 135.641 185.197 127.541 185.422C119.442 185.647 106.051 182.47 106.051 182.47C106.051 182.47 98.33 186.025 95.9093 182.164C93.4887 178.303 96.5119 168.559 102.038 169.458" stroke="#7C6656" stroke-width="2.5" stroke-linecap="round" stroke-linejoin="round"/>
<path d="M103.109 164.087C103.109 164.087 100.617 172.411 110.218 174.832" stroke="#7C6656" stroke-width="2.5" stroke-linecap="round" stroke-linejoin="round"/>
<path d="M151.38 154.311C144.302 149.307 137.101 158.519 141.851 164.975C146.396 171.133 153.004 166.537 154.281 163.534C155.557 160.532 154.791 156.722 151.38 154.311Z" fill="white" stroke="#7C6656" stroke-width="2.5" stroke-linecap="round" stroke-linejoin="round"/>
<path d="M141.164 137.529C141.164 137.529 148.293 143.086 150.295 153.013" stroke="#7C6656" stroke-width="2.5" stroke-linecap="round" stroke-linejoin="round"/>
<path d="M139.03 137.529C139.03 137.529 138.366 140.828 132.432 141.625C126.498 142.422 120.819 140.43 118.572 137.529" stroke="#7C6656" stroke-width="2.5" stroke-linecap="round" stroke-linejoin="round"/>
<path d="M102.678 144.6C102.678 144.6 104.261 148.757 111.053 148.757" stroke="#7C6656" stroke-width="2.5" stroke-linecap="round" stroke-linejoin="round"/>
<path d="M105.173 173.463C105.173 173.463 101.741 177.977 103.457 182.604" stroke="#7C6656" stroke-width="2.5" stroke-linecap="round" stroke-linejoin="round"/>
<path d="M169.948 80.0186C170.857 83.3074 170.091 87.6992 170.05 89.3947C171.041 92.132 176.73 100.691 174.656 111.518C172.593 122.344 163.217 131.649 144.128 135.744C144.128 135.744 132.913 137.542 128.93 137.185" stroke="#7C6656" stroke-width="2.5" stroke-linecap="round" stroke-linejoin="round"/>
<path d="M121.053 136.736C108.276 136.665 94.3549 132.926 85.4384 125.093C78.0335 118.586 75.0613 110.824 76.9202 93.2871" stroke="#7C6656" stroke-width="2.5" stroke-linecap="round" stroke-linejoin="round"/>
<path d="M76.0529 93.2866C62.9283 48.2137 103.211 43.209 103.211 43.209C130.553 28.7157 161.276 48.6426 161.276 48.6426C161.276 48.6426 183.766 62.472 174.237 83.1547" stroke="#7C6656" stroke-width="2.5" stroke-linecap="round" stroke-linejoin="round"/>
<path d="M106.918 56.5771C106.918 56.5771 104.957 70.9887 128.274 78.751" stroke="#7C6656" stroke-width="2.5" stroke-linecap="round" stroke-linejoin="round"/>
<path d="M101.76 65.0752C101.76 65.0752 88.441 73.2359 85.6016 87.0448" stroke="#7C6656" stroke-width="2.5" stroke-linecap="round" stroke-linejoin="round"/>
<path d="M153.087 79.0391C153.087 79.0391 136.775 74.3919 131.076 59.7148" stroke="#7C6656" stroke-width="2.5" stroke-linecap="round" stroke-linejoin="round"/>
<path d="M128.97 53.9113C150.399 42.8805 161.909 62.0312 161.909 62.0312C139.817 82.816 128.235 63.2364 128.235 63.2364C128.235 63.2364 126.345 61.8882 126.866 57.8129C127.142 55.6681 128.96 53.9113 128.96 53.9113H128.97Z" fill="#1AAF92"/>
<path d="M128.244 63.2364C128.244 63.2364 139.826 82.816 161.919 62.0312C161.919 62.0312 150.408 42.8805 128.98 53.9113" stroke="#7C6656" stroke-width="2.5" stroke-linecap="round" stroke-linejoin="round"/>
<path d="M145.077 61.0399C145.057 61.2646 130.175 63.5218 123.598 54.1763" stroke="#7C6656" stroke-width="2.5" stroke-linecap="round" stroke-linejoin="round"/>
<path d="M141.163 164.791C140.203 165.486 133.727 165.414 131.49 165.486" stroke="#7C6656" stroke-width="2.5" stroke-linecap="round" stroke-linejoin="round"/>
<path d="M51.6901 187.192L48.7539 191.032V198.711L54.1745 203.228L61.8538 204.583L70.6623 203.228C72.1681 201.497 75.2699 197.988 75.6312 197.808C76.083 197.582 76.5347 193.516 76.5347 193.065C76.5347 192.613 75.4054 188.547 75.1795 188.096C74.9988 187.734 72.6951 186.59 71.5658 186.063L67.5003 176.803L65.0158 176.351L61.8538 183.353L59.3693 179.287L52.8194 175.222V180.191L51.6901 187.192Z" fill="white"/>
<path d="M91.2811 177.066C91.2811 177.066 91.4547 175.279 93.0685 174.482C94.6823 173.685 95.3461 170.703 92.8234 171.888C90.3006 173.073 89.3711 172.061 88.3906 175.912" fill="white"/>
<path d="M88.502 175.322L90.7797 175.904C90.7797 175.904 91.8521 177.344 91.3925 180.183C90.9329 183.023 90.9329 183.901 87.4194 185.75C86.8372 185.413 84.6719 183.993 84.6719 183.993C84.6719 183.993 87.4602 183.472 88.6041 182.032C89.8706 180.449 89.1659 178.406 88.502 175.312V175.322Z" fill="#E1B995"/>
<path d="M85.0605 183.756C85.2852 183.205 85.8164 182.817 86.4496 182.806C86.4905 182.806 87.3688 182.755 87.8897 182.183C88.237 181.795 88.3902 181.193 88.3391 180.386C88.1247 177.015 87.8285 172.409 92.4757 171.479C93.3234 171.326 94.1099 171.857 94.2733 172.685C94.4367 173.512 93.8954 174.319 93.0681 174.482C91.5564 174.778 91.107 175.647 91.393 180.181C91.5258 182.285 90.77 183.562 90.1163 184.267C89.2482 185.196 88.1757 185.585 87.4199 185.748" stroke="#7C6656" stroke-width="2.5" stroke-linecap="round" stroke-linejoin="round"/>
<path d="M72.4758 183.316C73.6606 182.703 75.7442 181.968 78.7368 182.101C83.7415 182.305 89.3794 186.37 90.3191 191.099C91.2588 195.828 90.4212 199.515 83.1185 200.25C75.8157 200.976 75.3561 200.046 72.4043 202.222" fill="#E1B995"/>
<path d="M72.4758 183.316C73.6606 182.703 75.7442 181.968 78.7368 182.101C83.7415 182.305 89.3794 186.37 90.3191 191.099C91.2588 195.828 90.4212 199.515 83.1185 200.25C75.8157 200.976 75.3561 200.046 72.4043 202.222" stroke="#7C6656" stroke-width="2.5" stroke-linecap="round" stroke-linejoin="round"/>
<path d="M48.3398 194.043C48.3398 194.043 51.7104 197.802 54.9277 196.668C58.145 195.534 60.5248 189.079 64.6 188.385C68.6753 187.69 69.3187 193.022 73.1591 193.287C77.0096 193.553 78.4804 192.235 77.2548 189.774C76.0291 187.312 73.1284 184.749 73.1284 184.749C73.1284 184.749 66.2853 173.973 65.0494 174.096C63.6502 176.905 61.7402 183.84 61.7402 183.84C61.7402 183.84 55.9899 174.126 52.7624 174.698C52.5275 177.405 52.2925 185.607 52.2925 185.607C52.2925 185.607 48.9731 186.26 48.3398 194.043Z" fill="#E1B995"/>
<path d="M62.2423 182.591C62.2423 182.591 63.8356 174.553 65.051 174.093C66.2665 173.634 72.5172 182.591 73.1301 184.746C73.1301 184.746 79.3604 188.995 78.3492 193.366C77.3381 197.738 74.2025 202.651 67.155 204.091C60.1178 205.541 50.8744 203.315 48.7908 196.757C46.7175 190.2 52.2839 185.614 52.2839 185.614C52.2839 185.614 52.4576 175.462 52.7538 174.706C53.0602 173.95 61.0064 180.15 61.7316 183.847" stroke="#7C6656" stroke-width="2.5" stroke-linecap="round" stroke-linejoin="round"/>
<path d="M56.7695 181.582C56.7695 181.582 57.8318 184.789 57.8318 185.167C57.8318 185.535 59.5783 185.208 59.5783 185.208" stroke="#7C6656" stroke-width="2.5" stroke-linecap="round" stroke-linejoin="round"/>
<path d="M66.6738 180.845L66.541 184.307L68.8697 184.358" stroke="#7C6656" stroke-width="2.5" stroke-linecap="round" stroke-linejoin="round"/>
<path d="M64.4375 194.268L66.6232 195.136L67.808 193.645" stroke="#7C6656" stroke-width="2.5" stroke-linecap="round" stroke-linejoin="round"/>
<path d="M61.1703 192.152C61.1703 192.152 57.8611 194.092 53.9492 192.152" stroke="#7C6656" stroke-width="2.5" stroke-linecap="round" stroke-linejoin="round"/>
<path d="M73.7143 189.291C73.7143 189.291 72.6725 191.15 68.873 191.385" stroke="#7C6656" stroke-width="2.5" stroke-linecap="round" stroke-linejoin="round"/>
</g>
<defs>
<filter id="filter0_f_522_14964" x="148.854" y="101.105" width="25.8184" height="18.0259" filterUnits="userSpaceOnUse" color-interpolation-filters="sRGB">
<feFlood flood-opacity="0" result="BackgroundImageFix"/>
<feBlend mode="normal" in="SourceGraphic" in2="BackgroundImageFix" result="shape"/>
<feGaussianBlur stdDeviation="2.12549" result="effect1_foregroundBlur_522_14964"/>
</filter>
<filter id="filter1_f_522_14964" x="97.7705" y="101.105" width="25.8184" height="18.0259" filterUnits="userSpaceOnUse" color-interpolation-filters="sRGB">
<feFlood flood-opacity="0" result="BackgroundImageFix"/>
<feBlend mode="normal" in="SourceGraphic" in2="BackgroundImageFix" result="shape"/>
<feGaussianBlur stdDeviation="2.12549" result="effect1_foregroundBlur_522_14964"/>
</filter>
<clipPath id="clip0_522_14964">
<rect width="256" height="256" fill="white"/>
</clipPath>
</defs>
</svg>
