<svg width="256" height="256" viewBox="0 0 256 256" fill="none" xmlns="http://www.w3.org/2000/svg">
<g clip-path="url(#clip0_522_13816)">
<path opacity="0.4" d="M128.001 193.454C180.217 193.454 222.546 186.454 222.546 177.818C222.546 169.182 180.217 162.182 128.001 162.182C75.7845 162.182 33.4551 169.182 33.4551 177.818C33.4551 186.454 75.7845 193.454 128.001 193.454Z" fill="#E1D6CF"/>
<path d="M46.5444 162.909L50.908 176.364L50.1808 178.909L57.0898 174.909L61.8171 183.273H63.6353L70.908 178.182L77.8171 170.182C81.308 173.382 81.9383 179.273 81.8171 181.818L84.7262 177.455L89.4535 177.818L95.9989 178.182L98.908 178.909L104.363 181.091L113.817 182.182H121.453L130.181 181.091L135.999 177.455L142.544 171.636L144.363 169.091L147.999 170.545L152.363 171.273L155.272 169.455L162.908 170.182L169.817 169.455L173.453 165.818L174.544 163.273L178.544 167.636L182.908 170.182L197.09 171.636L201.453 170.909L205.09 172.727L207.999 172L209.453 169.091V164.364L207.999 160.364L212.363 159.636L215.272 157.818L215.635 154.909L213.817 149.091L210.544 145.091L206.544 144.364L203.999 145.091L200.363 146.182V138.545L199.635 132.364L194.544 123.636L188.726 118.909L181.09 117.091L170.544 118.909L166.544 121.091H160.363L155.635 120L152.726 105.455L148.726 97.0909L143.635 89.8182L135.272 84.7273L126.181 81.4545L115.999 79.6364L105.09 78.9091L102.544 76.7273L96.3626 74.1818L87.6353 72L77.4535 73.4545L68.3626 76.7273L59.6353 82.1818L53.4535 89.8182L50.908 98.1818L42.908 110.545L38.908 122.545L37.0898 135.636L40.3626 149.818L46.5444 162.909Z" fill="white"/>
<path d="M174.067 155.961C174.543 160.249 175.411 164.868 180.286 168.753C184.746 171.82 200.849 171.221 200.849 171.221C200.849 171.221 204.099 168.326 204.307 161.312C205.052 160.323 208.559 159.675 208.559 159.675C208.559 159.675 211.064 150.23 205.541 145.392C203.488 145.282 200.067 146.15 200.067 146.15C200.067 146.15 201.533 139.967 200.128 135.41C198.723 130.865 193.616 115.189 176.865 118.292C177.622 121.628 179.699 125.171 177.683 126.967C177.683 126.967 181.007 142.777 174.055 155.973L174.067 155.961Z" fill="#8FBDE2"/>
<path d="M104.951 166.47C103.741 169.439 102.568 172.713 103.497 175.792C104.56 179.311 108.213 181.547 111.854 182.06C115.495 182.561 119.173 181.669 122.74 180.789C120.004 180.52 117.206 180.215 114.738 179.018C112.526 177.93 110.681 176.122 109.471 173.971C107.712 170.819 107.37 166.909 108.567 163.488" fill="#99D7F7"/>
<path d="M115.494 124.877C115.494 124.877 126.124 126.869 131.134 135.568C136.155 144.255 136.693 144.427 137.145 148.507C137.658 153.211 140.603 160.286 139.833 163.401C139.063 166.529 140.26 171.453 140.713 172.296C140.713 172.296 139.088 177.147 133.162 179.432C133.235 172.235 133.101 166.566 133.858 161.923C134.616 157.28 131.28 150.022 131.561 145.893C131.842 141.751 128.788 138.452 126.381 135.129C123.974 131.817 122.129 131.94 120.895 130.608C119.661 129.276 118.06 128.066 115.519 127.688C112.977 127.309 115.494 124.865 115.494 124.865V124.877Z" fill="#99D7F7"/>
<g filter="url(#filter0_f_522_13816)">
<path d="M129.374 119.191C129.64 114.317 127.609 110.243 124.837 110.092C122.066 109.94 119.603 113.769 119.337 118.643C119.071 123.517 121.102 127.591 123.874 127.742C126.645 127.893 129.108 124.065 129.374 119.191Z" fill="#F5B0B0"/>
</g>
<g filter="url(#filter1_f_522_13816)">
<path d="M125.426 170.455C125.692 165.581 123.661 161.507 120.89 161.356C118.118 161.205 115.656 165.033 115.39 169.907C115.124 174.781 117.155 178.855 119.926 179.006C122.698 179.158 125.16 175.329 125.426 170.455Z" fill="#F5B0B0"/>
</g>
<path d="M110.668 131.964C113.662 132.343 116.386 130.229 116.765 127.248C117.144 124.255 115.03 121.53 112.049 121.151C109.056 120.773 106.331 122.886 105.952 125.868C105.573 128.861 107.687 131.586 110.668 131.964Z" fill="#7C6656"/>
<path d="M105.928 169.058C108.922 169.437 111.646 167.323 112.025 164.342C112.404 161.348 110.29 158.624 107.309 158.245C104.315 157.866 101.591 159.98 101.212 162.961C100.833 165.955 102.947 168.679 105.928 169.058Z" fill="#7C6656"/>
<path d="M101.164 79.353C127.177 78.3634 143.268 86.9894 148.717 96.4585C159.995 116.044 153.275 133.455 152.884 135.642" stroke="#7C6656" stroke-width="2.5" stroke-linecap="round" stroke-linejoin="round"/>
<path d="M150.11 156.279C143.304 175.621 133.786 182.109 122.203 182.219C96.4718 182.487 99.5385 178.883 96.8261 177.49C96.1052 177.417 90.1305 177.417 89.4219 177.331" stroke="#7C6656" stroke-width="2.5" stroke-linecap="round" stroke-linejoin="round"/>
<path d="M113.551 125.416C113.551 125.416 111.046 126.015 109.336 124.939" stroke="white" stroke-width="2.5" stroke-linecap="round" stroke-linejoin="round"/>
<path d="M113.723 128.506C113.723 128.506 111.768 129.043 110.51 128.75" stroke="white" stroke-width="2.5" stroke-linecap="round" stroke-linejoin="round"/>
<path d="M108.946 161.691C108.946 161.691 107.186 162.742 105.109 161.728" stroke="white" stroke-width="2.5" stroke-linecap="round" stroke-linejoin="round"/>
<path d="M109.507 165.051C109.116 165.32 107.283 166.468 104.277 165.197" stroke="white" stroke-width="2.5" stroke-linecap="round" stroke-linejoin="round"/>
<path d="M124.205 142.777C122.861 143.645 122.042 145.27 122.14 146.87C122.177 147.518 122.36 148.166 122.238 148.813C122.116 149.485 121.688 150.047 121.419 150.67C120.808 152.075 121.065 153.823 122.042 154.996" stroke="#7C6656" stroke-width="2.5" stroke-linecap="round" stroke-linejoin="round"/>
<path d="M156.67 119.992C156.67 119.992 162.645 121.873 166.127 120.603C169.609 119.332 183.208 114.005 191.993 121.091C204.724 131.355 199.58 148.179 199.58 148.179" stroke="#7C6656" stroke-width="2.5" stroke-linecap="round" stroke-linejoin="round"/>
<path d="M181.85 138.379C181.85 138.379 181.191 153.346 185.687 158.087C190.183 162.827 207.619 160.176 208.572 159.675" stroke="#7C6656" stroke-width="2.5" stroke-linecap="round" stroke-linejoin="round"/>
<path d="M200.984 146.285C200.984 146.285 208.413 141.996 212.75 148.057C216.086 152.712 217.345 160.495 207.79 159.872" stroke="#7C6656" stroke-width="2.5" stroke-linecap="round" stroke-linejoin="round"/>
<path d="M208.132 161.275C210.233 165.026 210.966 170.39 207.227 172.125C204.686 173.31 201.668 171.954 200.556 169.388L200.422 169.083" stroke="#7C6656" stroke-width="2.5" stroke-linecap="round" stroke-linejoin="round"/>
<path d="M174.068 155.961C174.203 153.761 173.017 162.436 178.784 168.216C183.403 172.834 199.861 171.624 200.863 171.221" stroke="#7C6656" stroke-width="2.5" stroke-linecap="round" stroke-linejoin="round"/>
<path d="M164.123 128.055C164.123 128.055 173.042 131.452 176.451 138.428C178.858 143.364 180.556 152.821 160.213 151.832" stroke="#7C6656" stroke-width="2.5" stroke-linecap="round" stroke-linejoin="round"/>
<path d="M160.984 150.989C159.42 152.748 157.147 153.86 154.606 153.885C149.841 153.934 145.943 150.097 145.907 145.344C145.858 140.579 149.694 136.682 154.447 136.645C157.282 136.62 159.811 137.964 161.399 140.066" stroke="#7C6656" stroke-width="2.5" stroke-linecap="round" stroke-linejoin="round"/>
<path d="M160.09 138.686C160.09 138.686 168.191 139.236 169.938 138.49" stroke="#7C6656" stroke-width="2.5" stroke-linecap="round" stroke-linejoin="round"/>
<path d="M172.921 158.735C174.643 163.952 175.059 173.555 155.033 169.841" stroke="#7C6656" stroke-width="2.5" stroke-linecap="round" stroke-linejoin="round"/>
<path d="M155.899 169.108C154.115 170.648 151.708 171.442 149.191 171.124C144.463 170.526 141.115 166.213 141.714 161.484C142.313 156.756 146.626 153.408 151.354 154.007C154.164 154.361 156.498 156.035 157.793 158.332" fill="white"/>
<path d="M155.899 169.108C154.115 170.648 151.708 171.442 149.191 171.124C144.463 170.526 141.115 166.213 141.714 161.484C142.313 156.756 146.626 153.408 151.354 154.007C154.164 154.361 156.498 156.035 157.793 158.332" stroke="#7C6656" stroke-width="2.5" stroke-linecap="round" stroke-linejoin="round"/>
<path d="M156.67 156.793C156.67 156.793 164.624 158.43 166.457 157.917" stroke="#7C6656" stroke-width="2.5" stroke-linecap="round" stroke-linejoin="round"/>
<path d="M73.5859 111.268C73.5859 111.268 93.2328 124.744 89.5184 144.831" stroke="#7C6656" stroke-width="2.5" stroke-linecap="round" stroke-linejoin="round"/>
<path d="M164.1 138.892L166.201 130.205" stroke="#7C6656" stroke-width="2.5" stroke-linecap="round" stroke-linejoin="round"/>
<path d="M204.932 144.807C204.932 144.807 211.016 149.425 208.573 159.664" stroke="#7C6656" stroke-width="2.5" stroke-linecap="round" stroke-linejoin="round"/>
<path d="M200.863 171.221C200.863 171.221 204.651 168.179 204.321 161.312" stroke="#7C6656" stroke-width="2.5" stroke-linecap="round" stroke-linejoin="round"/>
<path d="M174.069 155.961C174.069 155.961 164.013 158.539 159.053 153.848" stroke="#7C6656" stroke-width="2.5" stroke-linecap="round" stroke-linejoin="round"/>
<path d="M177.183 119.441C177.183 119.441 181.85 138.38 174.715 154.324" stroke="#7C6656" stroke-width="2.5" stroke-linecap="round" stroke-linejoin="round"/>
<path d="M49.761 181.693C50.3964 180.704 51.5082 168.876 43.542 156.267C25.6179 127.897 50.7263 98.4386 50.7263 98.4386C50.7263 98.4386 52.3757 80.148 75.6269 74.0756C95.3104 68.9317 105.904 78.9384 105.904 78.9384" stroke="#7C6656" stroke-width="2.5" stroke-linecap="round" stroke-linejoin="round"/>
<path d="M81.8223 145.27C81.8223 145.27 92.7209 166.273 82.3599 181.875" stroke="#7C6656" stroke-width="2.5" stroke-linecap="round" stroke-linejoin="round"/>
<path d="M103.154 89.7871C103.154 89.7871 83.5197 90.5569 78.0215 102.25L103.154 89.7871Z" fill="white"/>
<path d="M103.154 89.7871C103.154 89.7871 83.5197 90.5569 78.0215 102.25" stroke="#7C6656" stroke-width="2.5" stroke-linecap="round" stroke-linejoin="round"/>
<path d="M45.5078 180.643C45.5078 180.643 64.6293 175.218 68.4658 163.342" stroke="#7C6656" stroke-width="2.5" stroke-linecap="round" stroke-linejoin="round"/>
<path d="M61.6613 151.88C61.6613 151.88 65.9011 145.136 71.4603 146.638C75.7367 147.799 77.2151 150.304 79.6221 158.197C82.0291 166.102 72.7921 178.137 62.6999 183.244C58.619 177.037 50.7016 165.87 61.6613 151.88Z" fill="#1AAF92"/>
<path d="M75.7615 149.706C75.7615 149.706 91.4374 168.595 62.2726 183.477C62.2726 183.477 47.0121 164.808 66.0236 147.055" stroke="#7C6656" stroke-width="2.5" stroke-linecap="round" stroke-linejoin="round"/>
<path d="M67.3906 166.004C67.6228 166.065 75.3447 151.77 68.2459 141.678" stroke="#7C6656" stroke-width="2.5" stroke-linecap="round" stroke-linejoin="round"/>
</g>
<defs>
<filter id="filter0_f_522_13816" x="116.723" y="107.496" width="15.2642" height="22.8413" filterUnits="userSpaceOnUse" color-interpolation-filters="sRGB">
<feFlood flood-opacity="0" result="BackgroundImageFix"/>
<feBlend mode="normal" in="SourceGraphic" in2="BackgroundImageFix" result="shape"/>
<feGaussianBlur stdDeviation="1.29554" result="effect1_foregroundBlur_522_13816"/>
</filter>
<filter id="filter1_f_522_13816" x="112.776" y="158.76" width="15.2642" height="22.8413" filterUnits="userSpaceOnUse" color-interpolation-filters="sRGB">
<feFlood flood-opacity="0" result="BackgroundImageFix"/>
<feBlend mode="normal" in="SourceGraphic" in2="BackgroundImageFix" result="shape"/>
<feGaussianBlur stdDeviation="1.29554" result="effect1_foregroundBlur_522_13816"/>
</filter>
<clipPath id="clip0_522_13816">
<rect width="256" height="256" fill="white"/>
</clipPath>
</defs>
</svg>
