<svg width="256" height="256" viewBox="0 0 256 256" fill="none" xmlns="http://www.w3.org/2000/svg">
<g clip-path="url(#clip0_522_14113)">
<path opacity="0.4" d="M127.917 224.666C170.949 224.666 205.833 219.592 205.833 213.333C205.833 207.074 170.949 202 127.917 202C84.8845 202 50 207.074 50 213.333C50 219.592 84.8845 224.666 127.917 224.666Z" fill="#E1D6CF"/>
<path d="M141.58 143.568C141.58 143.568 154.137 140.582 163.761 151.537C173.374 162.492 169.462 172.928 164.25 175.82C160.931 177.651 155.043 177.38 153.69 173.864C152.338 170.347 153.388 167.257 156.666 165.052" stroke="#7C6656" stroke-width="2.5" stroke-linecap="round" stroke-linejoin="round"/>
<path d="M156.085 164.946C156.085 164.946 154.43 155.073 147.605 154.969" stroke="#7C6656" stroke-width="2.5" stroke-linecap="round" stroke-linejoin="round"/>
<path d="M153.794 144.628C153.794 144.628 153.836 149.195 150.174 154.969" stroke="#7C6656" stroke-width="2.5" stroke-linecap="round" stroke-linejoin="round"/>
<path d="M99.5 206L102.5 204V180L148 181.5L146 194L145.5 200L146 204.5L148 208L147 211.5L144 212.5L139 212L133 209.5L131 206L130 196L129.5 185H121L118 202.5L116 208L113 211.5L107.5 212.5L102.5 212L99.5 210L98.5 207.5L99.5 206Z" fill="white"/>
<path d="M102.398 194.078C101.535 199.01 101.868 203.962 101.868 203.962C101.868 203.962 106.664 210.475 116.693 206.126C118.66 196.513 120.834 184.309 120.834 184.309L130.249 184.548C130.249 184.548 129.407 200.841 132.06 207.458C137.803 207.749 142.547 208.696 145.959 204.586C145.543 200.061 146.282 195.493 147.665 185.786C149.049 176.08 150.006 177.162 148.789 175.944C135.919 180.106 103.012 174.987 103.012 174.987C103.012 174.987 102.648 192.674 102.398 194.089V194.078Z" fill="#8FBDE2"/>
<path d="M103.014 174.976C103.014 177.566 102.837 183.84 102.826 187.002C102.785 196.761 101.869 203.95 101.869 203.95C101.869 203.95 105.157 209.048 116.695 206.114" stroke="#7C6656" stroke-width="2.5" stroke-linecap="round" stroke-linejoin="round"/>
<path d="M101.316 204.534C100.213 205.127 98.9336 206.126 98.8192 207.593C98.6111 210.194 99.7555 213.44 106.622 212.951C113.478 212.462 116.963 208.28 117.941 201.392C118.93 194.515 120.823 184.299 120.823 184.299C120.823 184.299 131.862 185.266 134.546 183.758" stroke="#7C6656" stroke-width="2.5" stroke-linecap="round" stroke-linejoin="round"/>
<path d="M130.24 184.538C130.24 184.538 130.313 205.46 131.957 208.238C133.601 211.016 139.156 212.587 143.151 212.597C147.146 212.597 148.759 209.747 148.104 207.843C147.771 206.885 147.126 206.188 146.553 205.731" stroke="#7C6656" stroke-width="2.5" stroke-linecap="round" stroke-linejoin="round"/>
<path d="M146.584 147.771C146.584 147.771 150.558 159.808 149.268 173.77C147.978 187.742 144.316 193.37 145.939 204.575C145.939 204.575 144.014 208.935 132.039 207.447" stroke="#7C6656" stroke-width="2.5" stroke-linecap="round" stroke-linejoin="round"/>
<path d="M105.197 150.912C105.197 150.912 101.025 162.97 100.328 173.78C100.328 173.78 135.306 181.489 151.359 176.152C151.359 176.152 149.954 155.199 146.594 147.771" fill="white"/>
<path d="M105.197 150.912C105.197 150.912 101.025 162.97 100.328 173.78C100.328 173.78 135.306 181.489 151.359 176.152C151.359 176.152 149.954 155.199 146.594 147.771" stroke="#7C6656" stroke-width="2.5" stroke-linecap="round" stroke-linejoin="round"/>
<path d="M139.967 141.996C139.395 144.087 136.451 148.384 129.636 148.738C119.701 149.248 115.83 140.342 115.862 139.541" stroke="#7C6656" stroke-width="2.5" stroke-linecap="round" stroke-linejoin="round"/>
<path d="M145.283 144.212C145.283 144.212 114.696 141.466 106.643 134.61C98.6013 129.959 90.1014 128.742 84.6185 112.668C80.894 100.901 86.4912 87.6259 86.4912 87.6259C86.4912 87.6259 83.4845 74.3922 89.2378 61.2106C94.9911 48.0185 107.226 44.7934 121.791 42.8999C133.381 41.0584 144.732 39.3834 162.002 47.7688C179.272 56.1647 187.731 67.1199 189.458 73.7056C191.185 80.2912 191.393 99.4342 181.572 97.4575C180.75 100.537 180.323 102.087 180.323 102.087C180.323 102.087 184.464 111.378 181.561 122.156C178.648 132.935 168.307 143.588 145.283 144.212Z" fill="white"/>
<g filter="url(#filter0_f_522_14113)">
<path d="M161.252 119.302C166.01 120.007 170.193 118.385 170.593 115.679C170.994 112.973 167.462 110.209 162.703 109.504C157.945 108.799 153.763 110.421 153.362 113.127C152.962 115.833 156.494 118.597 161.252 119.302Z" fill="#F5B0B0"/>
</g>
<g filter="url(#filter1_f_522_14113)">
<path d="M111.549 110.779C116.307 111.484 120.489 109.862 120.89 107.156C121.291 104.45 117.758 101.686 113 100.981C108.242 100.276 104.06 101.898 103.659 104.604C103.259 107.31 106.791 110.074 111.549 110.779Z" fill="#F5B0B0"/>
</g>
<path d="M162.542 103.898C162.001 106.77 159.223 108.663 156.352 108.112C153.481 107.571 151.587 104.803 152.138 101.921C152.679 99.0499 155.447 97.1564 158.329 97.7078C161.2 98.2488 163.094 101.027 162.542 103.898Z" fill="#7C6656"/>
<path d="M118.066 92.3076L126.702 97.8424L118.836 98.2898" stroke="#7C6656" stroke-width="2.5" stroke-linecap="round" stroke-linejoin="round"/>
<path d="M147.967 112.813L129.292 109.058C129.292 109.058 125.005 122.52 134.088 126.089C143.171 129.657 148.435 121.979 147.956 112.813H147.967Z" fill="#F29AA0" stroke="#7C6656" stroke-width="2.5" stroke-linecap="round" stroke-linejoin="round"/>
<path d="M182.072 92.7031C182.332 96.1676 180.698 100.402 180.324 102.087C180.781 105.011 184.766 114.686 180.573 125.111C176.37 135.525 165.738 143.162 145.845 143.495C145.845 143.495 134.287 143.078 130.375 141.934" stroke="#7C6656" stroke-width="2.5" stroke-linecap="round" stroke-linejoin="round"/>
<path d="M122.593 139.926C109.838 137.335 96.6559 130.854 89.29 121.272C83.1726 113.313 81.1751 104.782 86.4914 87.6152" stroke="#7C6656" stroke-width="2.5" stroke-linecap="round" stroke-linejoin="round"/>
<path d="M85.5654 87.6157C81.3414 39.987 122.582 42.9313 122.582 42.9313C152.764 33.8383 179.543 59.8063 179.543 59.8063C179.543 59.8063 199.289 78.065 185.681 96.8543" stroke="#7C6656" stroke-width="2.5" stroke-linecap="round" stroke-linejoin="round"/>
<path d="M123.707 56.8516C123.707 56.8516 118.9 70.8655 140.675 83.2148" stroke="#7C6656" stroke-width="2.5" stroke-linecap="round" stroke-linejoin="round"/>
<path d="M116.881 64.3213C116.881 64.3213 101.962 69.8457 96.4062 83.0898" stroke="#7C6656" stroke-width="2.5" stroke-linecap="round" stroke-linejoin="round"/>
<path d="M165.415 88.3959C165.415 88.3959 150.028 80.5306 147.219 64.748" stroke="#7C6656" stroke-width="2.5" stroke-linecap="round" stroke-linejoin="round"/>
<path d="M147.665 48.6525C147.665 48.6525 140.143 48.6941 138.593 53.9064C137.397 57.9119 138.666 60.3464 143.805 66.2037C148.945 72.0611 163.188 70.6462 172.312 65.1009C169.367 58.7338 164.353 46.8318 147.676 48.6629L147.665 48.6525Z" fill="#1AAF92"/>
<path d="M138.896 58.8801C138.896 58.8801 146.252 80.8529 172.688 64.8623C172.688 64.8623 165.312 43.3368 141.612 49.7455" stroke="#7C6656" stroke-width="2.5" stroke-linecap="round" stroke-linejoin="round"/>
<path d="M156.135 60.2743C156.062 60.4928 140.758 59.5669 136.201 48.8613" stroke="#7C6656" stroke-width="2.5" stroke-linecap="round" stroke-linejoin="round"/>
<path d="M89.8319 119.826C89.8319 119.826 82.57 111.108 76.8792 112.575C70.6369 114.177 70.2727 120.481 73.0401 123.426C74.9753 125.496 80.9679 131.301 80.9679 131.301" fill="white"/>
<path d="M89.8319 119.826C89.8319 119.826 82.57 111.108 76.8792 112.575C70.6369 114.177 70.2727 120.481 73.0401 123.426C74.9753 125.496 80.9679 131.301 80.9679 131.301" stroke="#7C6656" stroke-width="2.5" stroke-linecap="round" stroke-linejoin="round"/>
<path d="M98.3717 130.552C98.3717 130.552 106.778 130.157 111.408 135.078C116.027 139.999 113.634 150.715 109.91 153.888C106.185 157.061 92.8576 161.628 83.6087 154.054C74.3597 146.491 79.3951 132.747 82.2874 129.189C85.1796 125.631 95.8643 113.854 101.149 111.17C106.435 108.496 112.562 109.828 112.552 116.226C112.542 122 103.074 130.542 103.074 130.542" fill="white"/>
<path d="M98.3717 130.552C98.3717 130.552 106.778 130.157 111.408 135.078C116.027 139.999 113.634 150.715 109.91 153.888C106.185 157.061 92.8576 161.628 83.6087 154.054C74.3597 146.491 79.3951 132.747 82.2874 129.189C85.1796 125.631 95.8644 113.854 101.149 111.17C106.435 108.496 112.562 109.828 112.552 116.226C112.542 122 103.074 130.542 103.074 130.542" stroke="#7C6656" stroke-width="2.5" stroke-linecap="round" stroke-linejoin="round"/>
<path d="M111.388 135.879C111.388 135.879 107.102 133.122 104.428 135.702" stroke="#7C6656" stroke-width="2.5" stroke-linecap="round" stroke-linejoin="round"/>
<path d="M86.0762 83.8813C84.1099 80.9266 79.7403 79.3869 76.5359 82.5288C73.7269 85.3066 73.7789 90.3941 76.8376 94.2643C79.4282 97.5519 83.6313 99.7679 87.7096 100.902C91.4862 99.0189 95.2004 96.0434 97.1043 92.3188C99.3723 87.9492 98.4568 82.9138 95.1588 80.7602C91.4134 78.2737 87.4079 80.6041 86.0762 83.8813Z" fill="#EE7474"/>
<path d="M76.7844 59.8894C74.6204 58.5993 71.364 58.953 70.2716 61.9493C69.3249 64.5919 70.9166 67.8171 74.0586 69.3568C76.722 70.6677 80.0928 70.7926 83.0371 70.2724C84.8786 67.9107 86.3351 64.8728 86.4183 61.9077C86.5224 58.4224 84.4 55.4885 81.6326 55.114C78.4802 54.6666 76.6283 57.3924 76.7844 59.8894Z" fill="#EE7474"/>
</g>
<defs>
<filter id="filter0_f_522_14113" x="150.332" y="106.339" width="23.293" height="16.1274" filterUnits="userSpaceOnUse" color-interpolation-filters="sRGB">
<feFlood flood-opacity="0" result="BackgroundImageFix"/>
<feBlend mode="normal" in="SourceGraphic" in2="BackgroundImageFix" result="shape"/>
<feGaussianBlur stdDeviation="1.5" result="effect1_foregroundBlur_522_14113"/>
</filter>
<filter id="filter1_f_522_14113" x="100.629" y="97.8164" width="23.293" height="16.1274" filterUnits="userSpaceOnUse" color-interpolation-filters="sRGB">
<feFlood flood-opacity="0" result="BackgroundImageFix"/>
<feBlend mode="normal" in="SourceGraphic" in2="BackgroundImageFix" result="shape"/>
<feGaussianBlur stdDeviation="1.5" result="effect1_foregroundBlur_522_14113"/>
</filter>
<clipPath id="clip0_522_14113">
<rect width="256" height="256" fill="white"/>
</clipPath>
</defs>
</svg>
