<svg width="256" height="256" viewBox="0 0 256 256" fill="none" xmlns="http://www.w3.org/2000/svg">
<g clip-path="url(#clip0_522_15427)">
<path d="M208.581 120.498V117.117C208.581 111.099 203.703 106.23 197.695 106.23C191.677 106.23 186.809 111.109 186.809 117.117V158.458" stroke="#938A81" stroke-width="6" stroke-linecap="round" stroke-linejoin="round"/>
<path d="M173.163 120.498V117.117C173.163 111.099 168.285 106.23 162.277 106.23C156.259 106.23 151.391 111.109 151.391 117.117V160.596" stroke="#938A81" stroke-width="6" stroke-linecap="round" stroke-linejoin="round"/>
<path d="M151.615 133.41H185.743" stroke="#938A81" stroke-width="6" stroke-linecap="round" stroke-linejoin="round"/>
<path d="M151.615 142.149H185.743" stroke="#938A81" stroke-width="6" stroke-linecap="round" stroke-linejoin="round"/>
<path d="M160.693 158.572C160.693 158.572 165.27 154.363 170.996 156.538C176.458 158.61 175.921 162.254 181.76 162.254C187.598 162.254 187.033 158.544 192.523 156.538C198.014 154.523 203.174 158.657 203.174 158.657" stroke="#83C3EC" stroke-width="4" stroke-linecap="round" stroke-linejoin="round"/>
<path d="M132.273 158.572C132.273 158.572 136.85 154.363 142.576 156.538C148.038 158.61 147.501 162.254 153.34 162.254C159.178 162.254 158.613 158.544 164.104 156.538C169.594 154.523 174.754 158.657 174.754 158.657" stroke="#83C3EC" stroke-width="4" stroke-linecap="round" stroke-linejoin="round"/>
<path d="M103.852 158.572C103.852 158.572 108.428 154.363 114.154 156.538C119.616 158.61 119.079 162.254 124.918 162.254C130.756 162.254 130.191 158.544 135.682 156.538C141.172 154.523 146.333 158.657 146.333 158.657" stroke="#83C3EC" stroke-width="4" stroke-linecap="round" stroke-linejoin="round"/>
<path d="M75.4219 158.572C75.4219 158.572 79.9986 154.363 85.7243 156.538C91.1863 158.61 90.6495 162.254 96.4881 162.254C102.327 162.254 101.762 158.544 107.252 156.538C112.742 154.523 117.903 158.657 117.903 158.657" stroke="#83C3EC" stroke-width="4" stroke-linecap="round" stroke-linejoin="round"/>
<path d="M47 158.572C47 158.572 51.5768 154.363 57.3024 156.538C62.7644 158.61 62.2276 162.254 68.0663 162.254C73.9049 162.254 73.3399 158.544 78.8301 156.538C84.3203 154.523 89.481 158.657 89.481 158.657" stroke="#83C3EC" stroke-width="4" stroke-linecap="round" stroke-linejoin="round"/>
<path d="M160.693 168.449C160.693 168.449 165.27 164.24 170.996 166.415C176.458 168.487 175.921 172.131 181.76 172.131C187.598 172.131 187.033 168.421 192.523 166.415C198.014 164.4 203.174 168.534 203.174 168.534" stroke="#83C3EC" stroke-width="4" stroke-linecap="round" stroke-linejoin="round"/>
<path d="M132.273 168.449C132.273 168.449 136.85 164.24 142.576 166.415C148.038 168.487 147.501 172.131 153.34 172.131C159.178 172.131 158.613 168.421 164.104 166.415C169.594 164.4 174.754 168.534 174.754 168.534" stroke="#83C3EC" stroke-width="4" stroke-linecap="round" stroke-linejoin="round"/>
<path d="M103.852 168.45C103.852 168.45 108.428 164.241 114.154 166.416C119.616 168.488 119.079 172.132 124.918 172.132C130.756 172.132 130.191 168.422 135.682 166.416C141.172 164.41 146.333 168.535 146.333 168.535" stroke="#83C3EC" stroke-width="4" stroke-linecap="round" stroke-linejoin="round"/>
<path d="M75.4219 168.449C75.4219 168.449 79.9986 164.24 85.7243 166.415C91.1863 168.487 90.6495 172.131 96.4881 172.131C102.327 172.131 101.762 168.421 107.252 166.415C112.742 164.4 117.903 168.534 117.903 168.534" stroke="#83C3EC" stroke-width="4" stroke-linecap="round" stroke-linejoin="round"/>
<path d="M47 168.45C47 168.45 51.5768 164.241 57.3024 166.416C62.7644 168.488 62.2276 172.132 68.0663 172.132C73.9049 172.132 73.3399 168.422 78.8301 166.416C84.3203 164.401 89.481 168.535 89.481 168.535" stroke="#83C3EC" stroke-width="4" stroke-linecap="round" stroke-linejoin="round"/>
<path d="M151.615 150.981H185.743" stroke="#938A81" stroke-width="6" stroke-linecap="round" stroke-linejoin="round"/>
<path d="M87.5875 189.555C87.5875 189.555 87.6063 199.471 85.7511 200.498C83.8865 201.524 81.2497 201.75 81.1649 205.093C81.0802 208.436 87.2014 209.877 91.7875 208.512C96.3737 207.146 97.2966 207.353 101.167 190.751" fill="white"/>
<path d="M112.977 190.683C112.977 190.683 113.947 201.438 115.66 206.033C116.273 208.237 122.639 209.809 125.52 208.943C128.411 208.077 133.12 205.864 127.46 202.163C125.671 198.65 125.671 194.045 126.217 187.773" fill="white"/>
<path d="M86.7017 142.583L87.6245 158.837L72.4062 161.813L74.0826 173.754C74.0826 173.754 73.4893 168.414 87.6057 166.587C87.7093 174.526 87.1537 177.106 87.1537 177.106L129.427 174.526L129.719 166.409C129.719 166.409 143.836 171.324 141.387 174.121C140.596 168.075 145.945 161.257 140.785 160.334C135.624 159.412 129.653 159.477 129.653 159.477L126.178 144.118" fill="white"/>
<path d="M79.8278 159.73C79.8278 159.73 86.3162 160.192 85.7418 166.85C86.7117 167.189 87.597 166.577 87.597 166.577L87.3239 157.536L79.8184 159.73H79.8278Z" fill="#A1DAF8"/>
<path d="M135.898 159.721C135.898 159.721 130.832 158.826 130.483 166.981L129.711 166.398L129.749 158.826L135.898 159.721Z" fill="#A1DAF8"/>
<path d="M128.082 173.742L87.5977 173.479" stroke="#7C6656" stroke-width="2.5" stroke-linecap="round" stroke-linejoin="round"/>
<path d="M111.395 182.633C111.395 182.633 110.293 183.141 108.617 183.386" stroke="#7C6656" stroke-width="2.5" stroke-linecap="round" stroke-linejoin="round"/>
<path d="M87.5977 155.258C87.5977 155.258 87.7767 176.729 87.739 185.562C87.7013 194.396 85.752 200.498 85.752 200.498" stroke="#7C6656" stroke-width="2.5" stroke-linecap="round" stroke-linejoin="round"/>
<path d="M84.8198 201.156C84.8198 201.156 81.9475 202.07 81.3825 203.539C80.5255 205.742 81.7686 208.888 87.9933 208.982C94.2181 209.076 97.6836 205.582 99.1151 199.452C100.546 193.321 102.976 183.113 102.976 183.113C102.976 183.113 113.768 183.989 116.198 182.623" stroke="#7C6656" stroke-width="2.5" stroke-linecap="round" stroke-linejoin="round"/>
<path d="M112.289 183.329C112.289 183.329 113.909 203.698 115.66 206.034C117.412 208.369 121.923 209.33 125.52 208.944C129.118 208.558 131.086 206.251 130.314 204.593C129.532 202.936 127.46 202.163 127.46 202.163" stroke="#7C6656" stroke-width="2.5" stroke-linecap="round" stroke-linejoin="round"/>
<path d="M127.085 150.049C127.085 150.049 130.682 160.945 129.514 173.582C128.347 186.22 124.523 191.447 127.085 201.373" stroke="#7C6656" stroke-width="2.5" stroke-linecap="round" stroke-linejoin="round"/>
<path d="M87.6546 173.517L84.707 189.291L104.078 190.996V183.189L110.915 183.377V190.732L129.156 190.28C129.156 190.28 130.013 177.068 128.695 173.244" fill="#F1894C"/>
<path d="M87.6546 173.517L84.707 189.291L104.078 190.996L104.747 183.208L109.973 183.349L110.906 190.732L129.147 190.28C129.147 190.28 130.004 177.068 128.685 173.244" stroke="#7C6656" stroke-width="2.5" stroke-linecap="round" stroke-linejoin="round"/>
<mask id="mask0_522_15427" style="mask-type:luminance" maskUnits="userSpaceOnUse" x="61" y="164" width="90" height="23">
<path d="M135.645 168.733C135.645 168.733 136.342 171.521 105.548 170.89C91.902 170.786 83.5113 170.259 78.426 168.385C77.1265 167.904 74.2919 166.134 73.6986 165.672C73.8493 170.07 74.2448 173.413 70.0636 174.694C65.8823 175.975 62.9253 173.978 61.8047 173.056C64.6016 177.613 66.6545 184.469 97.2793 186.061C118.176 186.805 134.882 184.893 141.088 181.814C146.164 180.147 151.155 175.881 150.147 174.515C148.678 174.854 144.309 176.107 141.399 174.12C139.619 172.905 138.602 167.895 139.336 165.051C139.092 164.787 136.653 164.702 136.417 165.381C135.993 166.642 135.654 168.733 135.654 168.733H135.645Z" fill="white"/>
</mask>
<g mask="url(#mask0_522_15427)">
<path d="M138.639 167.283C138.639 167.283 136.341 171.52 105.547 170.89C88.3985 170.767 77.0131 169.392 74.0844 167.132C74.235 171.53 74.2445 173.404 70.0538 174.685C65.8632 175.965 62.9156 173.969 61.7949 173.046C64.5918 177.604 66.6448 184.46 97.2695 186.051C118.166 186.795 134.872 184.883 141.078 181.804C146.154 180.137 151.145 175.871 150.138 174.506C148.669 174.845 144.299 176.097 141.389 174.11C138.47 172.114 138.639 167.273 138.639 167.273V167.283Z" fill="white"/>
<path d="M88.9361 168.696C88.9361 168.696 80.2064 172.915 83.267 187.21L68.8963 184.903C68.8963 184.903 64.6868 169.562 79.1046 167.688L88.9455 168.696H88.9361Z" fill="#A1DAF8"/>
<path d="M129.561 167.585C129.561 167.585 138.384 171.606 135.635 185.967L149.958 183.349C149.958 183.349 153.829 167.924 139.373 166.36L129.561 167.585Z" fill="#A1DAF8"/>
<path d="M102.638 169.646C102.638 169.646 99.8222 180.476 99.9917 188.669C104.766 190.374 118.336 188.669 118.336 188.669C118.336 188.669 117.913 174.591 115.605 169.646C112.027 169.901 102.638 169.646 102.638 169.646Z" fill="#A1DAF8"/>
</g>
<path d="M126.038 142.583C146.36 146.632 147.717 161.738 147.717 161.738C147.717 161.738 155.476 163.452 152.322 171.014C149.722 177.238 142.481 175.76 140.494 173.405C138.507 171.051 137.668 166.955 139.957 164.101C139.957 164.101 135.747 155.277 124.324 155.07" fill="white"/>
<path d="M126.039 142.583C145.024 145.757 148.508 161.304 148.508 161.304C148.508 161.304 155.035 164.534 152.332 171.004C150.147 176.231 142.491 175.75 140.504 173.396C138.517 171.042 137.679 166.945 139.967 164.092C139.967 164.092 136.605 156.718 128.469 155.268" stroke="#7C6656" stroke-width="2.5" stroke-linecap="round" stroke-linejoin="round"/>
<path d="M66.2385 66.5844C66.2385 66.5844 50.4459 74.589 54.919 92.7548C56.7931 102.492 61.7371 108.397 61.7371 108.397C61.7371 108.397 61.0685 123.304 67.0107 130.668C72.9624 138.033 81.8334 141.442 86.6927 142.581C94.2264 144.173 120.086 148.401 134.108 141.376C142.442 136.422 155.288 130.424 153.715 114.895C153.818 107.728 149.477 100.957 149.477 100.957C149.477 100.957 147.904 93.0467 149.75 92.444C151.596 91.8413 155.127 87.1139 155.203 81.5577C155.278 76.0016 156.917 60.661 131.923 51.7994C114.144 45.7818 101.214 44.7177 84.4137 52.7035C73.8005 56.6681 73.0283 66.0288 73.0283 66.0288C73.0283 66.0288 69.9771 64.4655 66.2479 66.5844H66.2385Z" fill="white"/>
<g filter="url(#filter0_f_522_15427)">
<path d="M133.335 121.127C137.89 121.077 141.56 118.985 141.532 116.454C141.504 113.924 137.789 111.913 133.234 111.963C128.679 112.013 125.009 114.106 125.037 116.636C125.065 119.167 128.78 121.178 133.335 121.127Z" fill="#F5B0B0"/>
</g>
<g filter="url(#filter1_f_522_15427)">
<path d="M88.2115 122.541C92.6401 122.492 96.2075 120.401 96.1795 117.87C96.1516 115.34 92.5389 113.328 88.1104 113.377C83.6818 113.426 80.1144 115.517 80.1424 118.047C80.1703 120.578 83.783 122.59 88.2115 122.541Z" fill="#F5B0B0"/>
</g>
<path d="M98.0978 107.577C98.2673 110.214 96.2709 112.502 93.634 112.672C90.9972 112.842 88.7088 110.845 88.5393 108.208C88.3698 105.571 90.3663 103.283 93.0031 103.114C95.6399 102.944 97.9283 104.94 98.0978 107.577Z" fill="#7C6656"/>
<path d="M130.869 105.43C131.039 108.067 129.042 110.355 126.406 110.525C123.769 110.694 121.48 108.698 121.311 106.061C121.141 103.424 123.138 101.136 125.775 100.966C128.411 100.797 130.7 102.793 130.869 105.43Z" fill="#7C6656"/>
<path d="M63.5645 91.3237C59.0065 114.791 63.4985 129.388 71.3148 135.396C79.3665 141.583 92.4847 144.71 100.734 144.662L107.844 144.804" stroke="#7C6656" stroke-width="2.5" stroke-linecap="round" stroke-linejoin="round"/>
<path d="M148.319 88.0186C149.082 91.8514 149.355 95.9667 149.242 100.336C150.156 102.86 155.203 111.665 153.301 121.647C151.399 131.63 137.791 141.932 124.824 144.399C121.782 144.983 118.627 144.804 114.512 144.936" stroke="#7C6656" stroke-width="2.5" stroke-linecap="round" stroke-linejoin="round"/>
<path d="M151.597 91.841C168.426 61.5082 125.963 43.8321 100.735 47.6367C74.7056 51.5637 73.0294 66.019 73.0294 66.019C73.0294 66.019 62.3126 63.015 56.0596 77.734C50.0702 91.841 61.7381 110.28 61.7381 110.28" stroke="#7C6656" stroke-width="2.5" stroke-linecap="round" stroke-linejoin="round"/>
<path d="M77.3713 81.1064C77.3713 81.1064 79.7915 90.8815 67.7188 99.1027" stroke="#7C6656" stroke-width="2.5" stroke-linecap="round" stroke-linejoin="round"/>
<path d="M86.2793 74.2884C86.2793 74.2884 102.486 71.1807 100.725 90.0528" stroke="#7C6656" stroke-width="2.5" stroke-linecap="round" stroke-linejoin="round"/>
<path d="M113.184 72.3281C113.184 72.3281 125.209 76.6035 121.264 90.0513" stroke="#7C6656" stroke-width="2.5" stroke-linecap="round" stroke-linejoin="round"/>
<path d="M132.479 72.3281C132.479 72.3281 142.687 76.9708 139.231 90.0513" stroke="#7C6656" stroke-width="2.5" stroke-linecap="round" stroke-linejoin="round"/>
<path d="M120.152 114.887L103.069 116.695C103.069 116.695 101.384 134.126 113.777 132.469C123.505 131.169 121.565 123.39 120.152 114.887Z" fill="#F29AA0" stroke="#7C6656" stroke-width="2" stroke-linecap="round" stroke-linejoin="round"/>
<path d="M86.7019 142.583C66.3796 146.632 65.0235 161.738 65.0235 161.738C65.0235 161.738 57.2637 163.452 60.4185 171.014C63.0176 177.238 70.2594 175.76 72.2465 173.405C74.2335 171.051 75.0716 166.955 72.7832 164.101C72.7832 164.101 76.9927 155.277 88.4158 155.07" fill="white"/>
<path d="M86.7024 142.583C67.7174 145.757 64.233 161.304 64.233 161.304C64.233 161.304 57.7069 164.534 60.4096 171.004C62.5944 176.231 70.2506 175.75 72.2376 173.396C74.2246 171.042 75.0628 166.945 72.7744 164.092C72.7744 164.092 77.257 154.26 88.4069 155.061" stroke="#7C6656" stroke-width="2.5" stroke-linecap="round" stroke-linejoin="round"/>
<path d="M136.425 160.068C136.425 160.068 131.255 159.126 129.645 159.475" stroke="#7C6656" stroke-width="2.5" stroke-linecap="round" stroke-linejoin="round"/>
<path d="M150.071 174.177C151.098 175.43 149.139 177.172 149.139 177.172C143.677 182.794 127.724 186.373 107.072 186.373C86.4204 186.373 69.526 182.389 63.7909 176.899C63.7909 176.899 62.2653 175.788 62.3218 173.744" stroke="#7C6656" stroke-width="2.5" stroke-linecap="round" stroke-linejoin="round"/>
<path d="M130.492 166.962C133.892 167.367 135.897 167.866 135.897 168.403C135.897 169.769 122.986 170.88 107.062 170.88C91.1375 170.88 78.2266 169.769 78.2266 168.403C78.2266 167.678 81.8333 167.028 87.5967 166.576" stroke="#7C6656" stroke-width="2.5" stroke-linecap="round" stroke-linejoin="round"/>
<path d="M87.626 158.826C87.626 158.826 80.4124 159.391 74.5078 161.359" stroke="#7C6656" stroke-width="2.5" stroke-linecap="round" stroke-linejoin="round"/>
</g>
<defs>
<filter id="filter0_f_522_15427" x="121.037" y="107.962" width="24.4961" height="17.166" filterUnits="userSpaceOnUse" color-interpolation-filters="sRGB">
<feFlood flood-opacity="0" result="BackgroundImageFix"/>
<feBlend mode="normal" in="SourceGraphic" in2="BackgroundImageFix" result="shape"/>
<feGaussianBlur stdDeviation="2" result="effect1_foregroundBlur_522_15427"/>
</filter>
<filter id="filter1_f_522_15427" x="76.1426" y="109.376" width="24.0371" height="17.166" filterUnits="userSpaceOnUse" color-interpolation-filters="sRGB">
<feFlood flood-opacity="0" result="BackgroundImageFix"/>
<feBlend mode="normal" in="SourceGraphic" in2="BackgroundImageFix" result="shape"/>
<feGaussianBlur stdDeviation="2" result="effect1_foregroundBlur_522_15427"/>
</filter>
<clipPath id="clip0_522_15427">
<rect width="256" height="256" fill="white"/>
</clipPath>
</defs>
</svg>
