<svg width="256" height="256" viewBox="0 0 256 256" fill="none" xmlns="http://www.w3.org/2000/svg">
<g clip-path="url(#clip0_522_14707)">
<path opacity="0.4" d="M128 242C167.765 242 200 237.971 200 233C200 228.029 167.765 224 128 224C88.2355 224 56 228.029 56 233C56 237.971 88.2355 242 128 242Z" fill="#E1D6CF"/>
<path d="M178.006 220.785L172.798 222.205L176.585 226.939V227.413L177.532 226.939L178.006 226.466L179.899 226.939L180.846 226.466L181.793 224.572L182.74 221.732L184.16 219.838L185.58 218.891H187.474L188.894 219.838V220.785L187.948 221.732H186.527L185.107 223.626L183.687 227.413L182.266 229.307H178.953L175.639 232.147L170.431 233.094L169.011 232.621L166.643 235.935H164.75L164.276 235.461V232.147H162.856L160.015 230.253L159.542 227.413L161.436 225.519L160.962 223.152L159.069 222.679L154.808 220.785L151.02 216.051L150.547 210.37L152.441 209.423L153.861 210.37L154.808 213.21L155.755 215.104L158.122 216.051H159.542L157.175 211.316L156.228 205.635L157.648 202.795L161.436 200.901L164.276 199.481L169.957 195.693L174.692 193.326L174.218 200.901L175.165 201.848L182.74 198.534L185.107 198.06L182.266 206.109L181.793 208.476L182.74 209.896L182.266 214.63L181.32 217.471L178.006 220.785Z" fill="white"/>
<path d="M66.2452 124.133L68.2737 127.683L67.7665 131.233L70.8092 144.925L74.8661 151.517L82.9799 158.617L91.6008 161.66L98.1933 163.181L91.0937 168.252L85.0084 170.788L79.4301 170.281L75.3732 167.238L75.8803 164.702L75.3732 160.645L74.359 158.617L71.8234 158.11L69.795 159.124L68.2737 157.603L64.7239 156.588L61.6812 157.096L58.6385 159.631L57.1172 163.181L57.6243 167.745L61.6812 171.802L64.7239 172.309L68.2737 176.873L74.359 181.437L81.9657 183.973L89.5724 183.465L93.1221 182.451L96.6719 180.93L95.6577 196.143L95.1506 210.342L93.1221 220.485L92.1079 223.02L89.5724 225.049L89.0652 227.584L90.5866 230.627L94.6435 232.148H99.7146L104.279 230.12L106.307 227.584L108.843 221.499L110.871 212.371L112.9 203.75L122.028 204.764L125.07 223.02L125.577 226.063L127.099 228.091L131.663 230.627H137.241L140.791 229.613L141.805 227.584L141.298 225.049L139.269 222.513L138.255 212.371L139.776 200.2L140.791 190.058V182.451L139.269 173.83L142.819 174.337L146.369 177.887L148.397 183.973L146.369 186.001L145.355 189.044V192.593L146.876 194.622L153.468 195.636L159.554 192.086L161.582 186.001L161.075 178.901L156.511 171.802L147.89 164.195L140.791 162.674L134.705 162.167L145.862 157.603L156.004 151.01L164.625 141.375L166.653 130.219L164.118 119.569L159.554 111.963L163.611 99.2848L163.104 91.171L157.525 81.0288L147.89 73.4221L134.705 68.351L117.464 65.8154L103.771 66.3225L92.1079 70.8866L87.0368 74.4363L79.9372 76.9719L69.2879 84.5786L63.7096 94.7208L61.6812 104.356L63.2025 117.541L66.2452 124.133Z" fill="white"/>
<path d="M94.7156 213.546C93.8738 218.353 92.6973 222.735 92.6973 222.735C92.6973 222.735 96.8049 229.469 106.907 226.092C109.625 216.923 112.677 204.022 112.677 204.022L121.856 204.255C121.856 204.255 122.789 220.371 126.065 226.497C131.664 226.173 136.36 226.589 139.23 222.248C138.347 217.907 137.485 214.925 138.834 205.462C140.183 196 141.593 194.945 140.417 193.758C128.418 195.259 95.7704 193.748 95.7704 193.748C95.7704 193.748 94.959 212.187 94.7156 213.556V213.546Z" fill="#6594C9"/>
<g filter="url(#filter0_f_522_14707)">
<path d="M146.689 134.144C151.654 133.583 155.419 130.775 155.096 127.872C154.774 124.969 150.488 123.07 145.522 123.63C140.557 124.191 136.792 126.999 137.115 129.902C137.437 132.805 141.723 134.704 146.689 134.144Z" fill="#F5B0B0"/>
</g>
<g filter="url(#filter1_f_522_14707)">
<path d="M99.2221 140.911C104.188 140.35 107.952 137.543 107.63 134.639C107.307 131.736 103.021 129.837 98.0553 130.397C93.0898 130.958 89.3256 133.766 89.6478 136.669C89.97 139.572 94.2566 141.471 99.2221 140.911Z" fill="#F5B0B0"/>
</g>
<path d="M143.113 117.919C143.499 120.738 141.531 123.345 138.712 123.741C135.892 124.126 133.286 122.158 132.89 119.339C132.505 116.519 134.472 113.913 137.292 113.517C140.111 113.122 142.718 115.099 143.113 117.919Z" fill="#7C6656"/>
<path d="M96.9368 163.914C96.9368 163.914 89.4316 170.75 82.8188 170.75C82.8188 170.75 78.1534 170.669 75.2629 166.815C75.2629 166.815 76.5509 159.492 74.1675 158.468C72.6259 157.504 70.3844 158.143 69.8672 159.492C69.8672 159.492 66.6521 155.324 62.3518 157.048C58.0515 158.782 57.0677 162.312 57.0271 164.36C56.946 167.839 59.725 171.754 65.1815 172.839C65.1815 172.839 70.354 183.113 83.8838 183.702C89.8981 183.965 96.1863 180.933 96.1863 180.933" stroke="#7C6656" stroke-width="2.5" stroke-linecap="round" stroke-linejoin="round"/>
<path d="M97.4438 171.477C97.4438 171.477 95.172 197.147 95.1314 206.66C95.0908 216.173 92.6973 222.746 92.6973 222.746C92.6973 222.746 95.4559 227.979 106.907 226.103" stroke="#7C6656" stroke-width="2.5" stroke-linecap="round" stroke-linejoin="round"/>
<path d="M92.1105 223.262C90.9949 223.749 89.6662 224.601 89.4228 226.021C89.007 228.536 89.8387 231.782 96.5427 231.883C103.247 231.985 106.979 228.222 108.521 221.619C110.062 215.017 112.679 204.023 112.679 204.023C112.679 204.023 123.44 204.966 126.057 203.495" stroke="#7C6656" stroke-width="2.5" stroke-linecap="round" stroke-linejoin="round"/>
<path d="M121.855 204.257C121.855 204.257 124.178 224.764 126.065 227.28C127.951 229.795 133.499 230.738 137.373 230.312C141.247 229.896 142.505 226.965 141.663 225.18C141.247 224.288 140.537 223.679 139.939 223.294" stroke="#7C6656" stroke-width="2.5" stroke-linecap="round" stroke-linejoin="round"/>
<path d="M137.789 168.413C137.789 168.413 141.664 180.148 140.406 193.759C139.148 207.38 136.471 211.568 139.219 222.248C139.219 222.248 137.81 226.68 126.055 226.498" stroke="#7C6656" stroke-width="2.5" stroke-linecap="round" stroke-linejoin="round"/>
<path d="M98.4082 121.03L108.114 123.464L100.984 126.325" stroke="#7C6656" stroke-width="2.5" stroke-linecap="round" stroke-linejoin="round"/>
<path d="M132.405 130.688L113.986 133.02C113.986 133.02 114.209 146.793 123.713 147.26C133.216 147.737 135.691 139.004 132.405 130.688Z" fill="#F2999F" stroke="#7C6656" stroke-width="2.5" stroke-linecap="round" stroke-linejoin="round"/>
<path d="M134.057 162.875C134.057 162.875 146.298 159.964 155.68 170.644C165.051 181.324 161.238 191.496 156.157 194.316C152.921 196.101 147.181 195.837 145.862 192.409C144.544 188.981 145.568 185.969 148.763 183.819" stroke="#7C6656" stroke-width="2.5" stroke-linecap="round" stroke-linejoin="round"/>
<path d="M148.194 183.718C148.194 183.718 146.581 174.093 139.928 173.991" stroke="#7C6656" stroke-width="2.5" stroke-linecap="round" stroke-linejoin="round"/>
<path d="M131.268 162.415C130.751 164.464 127.759 168.115 120.852 169.332C114.888 170.377 109.057 167.77 106.268 164.058" stroke="#7C6656" stroke-width="2.5" stroke-linecap="round" stroke-linejoin="round"/>
<path d="M91.166 169.56C91.166 169.56 91.6021 175.685 96.1966 180.949" stroke="#7C6656" stroke-width="2.5" stroke-linecap="round" stroke-linejoin="round"/>
<path d="M145.973 163.912C145.973 163.912 146.013 168.365 142.443 173.994" stroke="#7C6656" stroke-width="2.5" stroke-linecap="round" stroke-linejoin="round"/>
<path d="M157.679 101.494C158.997 104.608 158.804 109.03 158.977 110.713C160.305 113.279 166.999 120.977 166.36 131.911C165.721 142.844 158.257 153.199 139.98 159.69C139.98 159.69 129.169 162.905 125.203 163.058" stroke="#7C6656" stroke-width="2.5" stroke-linecap="round" stroke-linejoin="round"/>
<path d="M117.393 163.618C104.796 165.19 90.6072 163.304 80.83 156.732C72.7061 151.275 68.2131 144.013 67.7871 126.508" stroke="#7C6656" stroke-width="2.5" stroke-linecap="round" stroke-linejoin="round"/>
<path d="M66.9159 126.791C48.2136 84.0922 87.2308 73.9905 87.2308 73.9905C112.282 56.2112 145.102 71.8809 145.102 71.8809C145.102 71.8809 169.028 82.6114 162.294 104.204" stroke="#7C6656" stroke-width="2.5" stroke-linecap="round" stroke-linejoin="round"/>
<path d="M92.6074 86.5176C92.6074 86.5176 92.5263 100.96 116.482 105.605" stroke="#7C6656" stroke-width="2.5" stroke-linecap="round" stroke-linejoin="round"/>
<path d="M88.6186 95.5342C88.6186 95.5342 76.5494 105.281 75.5352 119.247" stroke="#7C6656" stroke-width="2.5" stroke-linecap="round" stroke-linejoin="round"/>
<path d="M140.944 102.701C140.944 102.701 124.28 100.216 116.785 86.5039" stroke="#7C6656" stroke-width="2.5" stroke-linecap="round" stroke-linejoin="round"/>
<path d="M112.18 71.4953C112.18 71.4953 105.243 73.8686 105.425 79.173C105.567 83.24 107.494 85.096 114.067 88.9095C120.639 92.723 133.357 86.9926 140.061 79.031C135.365 74.0714 127.028 64.629 112.18 71.4953Z" fill="#1AAF92"/>
<path d="M107.27 83.6643C107.27 83.6643 120.891 101.677 140.354 78.6845C140.354 78.6845 126.844 61.0877 106.945 74.374" stroke="#7C6656" stroke-width="2.5" stroke-linecap="round" stroke-linejoin="round"/>
<path d="M123.63 79.5991C123.63 79.8222 109.208 83.727 101.662 75.248" stroke="#7C6656" stroke-width="2.5" stroke-linecap="round" stroke-linejoin="round"/>
<path d="M140.406 193.758C140.406 193.758 117.748 196.74 95.7598 193.748" stroke="#7C6656" stroke-width="2.5" stroke-linecap="round" stroke-linejoin="round"/>
<path d="M58.0186 25.9034C65.6692 23.4037 72.193 27.1817 74.3708 33.8381C76.4349 40.1631 73.1115 48.0693 65.1863 50.6542C57.3748 53.2012 50.9551 49.2055 48.8909 42.8805C46.7226 36.2241 50.5385 28.3463 58.0186 25.9034ZM55.3295 40.9679C56.6173 44.9257 60.4426 45.8158 62.5446 45.3708C66.5024 44.4428 69.8732 40.9679 68.1689 35.7412C66.8622 31.7266 62.5635 30.1453 59.8744 31.0164C56.3521 32.1621 53.8051 36.281 55.3295 40.9584V40.9679ZM92.5883 52.5574C94.3494 51.9798 96.3662 56.4963 94.8797 57.5284C92.7114 59.2706 79.7963 63.7303 78.3665 63.6451C76.5012 63.1527 74.0583 53.7883 73.6512 51.7904C73.2251 49.5559 79.1145 47.6337 79.4743 48.7321C79.8152 49.7736 81.1976 56.6289 81.7847 56.9319C82.0024 57.0455 90.7892 53.5705 92.5977 52.5574H92.5883ZM81.3112 21.7183C82.1255 22.7315 83.044 25.5342 84.1802 28.4505L89.5962 25.8277C91.31 24.54 94.2926 29.2269 92.2947 30.5525L86.1213 33.4783C86.7178 35.2962 87.6267 38.0989 87.712 39.8411C87.1533 41.6686 82.9304 43.657 81.8131 41.1573C80.0519 35.7697 77.3439 27.4563 75.7816 24.9187C74.901 22.2202 79.569 19.7299 81.3112 21.7183Z" fill="#F39200"/>
<path d="M107.141 38.6284C105.844 38.0982 104.906 37.6058 104.622 35.7026C104.386 32.9946 107.435 22.5319 108.296 21.3672C108.893 20.5908 113.646 21.3862 113.106 22.9106C112.282 24.8706 109.707 32.3223 109.896 34.6516C109.953 35.3996 120.889 36.7726 122.357 36.7442C124.175 36.801 124.071 40.9482 122.452 41.0239C118.806 41.1281 108.741 39.3669 107.132 38.6284H107.141ZM129.477 32.0004C127.546 31.8205 122.736 31.063 121.126 30.1351C120.085 29.8889 120.785 26.1204 121.827 26.3666C123.474 26.7548 129.051 28.1467 130.112 28.1278L130.311 26.7075C130.86 25.3251 135.424 26.1678 135.206 27.9005C135.13 30.173 133.284 39.6226 132.365 43.1638C131.769 45.3132 127.366 44.1864 127.224 42.8324L128.417 37.3407C127.082 37.1702 121.05 36.1666 119.469 35.4754C118.532 34.983 118.948 31.6406 120.302 31.7353C121.694 32.0572 127.451 33.4586 129.297 33.3828L129.487 32.0099L129.477 32.0004ZM124.705 43.3816C130.216 44.6693 130.86 49.9528 129.477 52.6986C127.517 56.363 123.919 56.7038 120.7 55.9558C117.272 54.9711 115.795 52.0643 116.146 49.0249C117.074 43.5142 121.666 42.8514 124.696 43.3816H124.705ZM120.975 49.5551C120.643 50.9848 121.391 51.8938 122.253 52.1021C123.683 52.4335 125.188 52.0548 125.349 49.4415C125.444 48.2768 124.582 47.4341 123.209 47.4341C122.224 47.3395 121.297 48.1727 120.975 49.5646V49.5551Z" fill="#F39200"/>
<path d="M146.493 63.314C144.022 62.0263 143.785 59.2709 145.262 57.1878C146.74 55.1142 150.707 56.0705 151.616 58.2483C153.055 61.2688 149.76 64.507 146.493 63.314ZM162.685 35.2871C166.055 34.7569 168.83 37.3891 167.637 39.0745C164.777 41.8867 156.814 51.7813 154.92 54.8207C153.576 56.525 149.22 53.9591 150.338 51.3647C152.989 47.0754 158.869 39.3586 162.685 35.2966V35.2871Z" fill="#F39200"/>
<path d="M157.788 71.3328C156.358 69.8557 156.832 67.8767 158.347 66.7689C159.862 65.6611 162.409 67.2518 162.541 68.9846C162.854 71.4275 159.795 72.9329 157.788 71.3422V71.3328ZM175.598 55.4824C178.079 55.8896 179.405 58.3798 178.183 59.2698C175.532 60.5765 167.673 65.6516 165.647 67.337C164.312 68.2176 161.859 65.4149 163.242 63.8621C166.092 61.476 171.991 57.4329 175.598 55.4824Z" fill="#F39200"/>
<path d="M183.28 221.132L185.032 222.429C185.032 222.429 185.449 224.038 184.066 226.32C182.684 228.602 182.371 229.35 178.717 229.71C178.328 229.218 176.965 227.248 176.965 227.248C176.965 227.248 179.54 227.778 181.027 226.936C182.665 226.017 182.769 224.019 183.28 221.122V221.132Z" fill="#E1B995"/>
<mask id="mask0_522_14707" style="mask-type:luminance" maskUnits="userSpaceOnUse" x="176" y="221" width="10" height="9">
<path d="M183.28 221.132L185.032 222.429C185.032 222.429 185.449 224.038 184.066 226.32C182.684 228.602 182.371 229.35 178.717 229.71C178.328 229.218 176.965 227.248 176.965 227.248C176.965 227.248 179.54 227.778 181.027 226.936C182.665 226.017 182.769 224.019 183.28 221.122V221.132Z" fill="white"/>
</mask>
<g mask="url(#mask0_522_14707)">
<path d="M183.279 221.132H180.779V222.391L181.792 223.141L183.279 221.132ZM185.031 222.429L187.451 221.802L187.23 220.946L186.519 220.42L185.031 222.429ZM178.716 229.71L176.752 231.258L177.599 232.332L178.96 232.198L178.716 229.71ZM176.964 227.248L177.468 224.8L171.357 223.541L174.908 228.671L176.964 227.248ZM181.026 226.936L179.803 224.755L179.793 224.761L181.026 226.936ZM183.279 221.122H185.779L180.817 220.688L183.279 221.122ZM181.792 223.141L183.543 224.438L186.519 220.42L184.767 219.122L181.792 223.141ZM185.031 222.429C182.611 223.055 182.61 223.054 182.61 223.052C182.61 223.052 182.61 223.051 182.609 223.05C182.609 223.048 182.609 223.046 182.608 223.045C182.607 223.041 182.606 223.038 182.606 223.034C182.604 223.028 182.602 223.022 182.601 223.016C182.598 223.004 182.596 222.993 182.594 222.984C182.59 222.966 182.587 222.952 182.585 222.944C182.582 222.927 182.584 222.929 182.585 222.949C182.589 222.989 182.596 223.099 182.579 223.27C182.546 223.601 182.418 224.214 181.927 225.025L186.203 227.616C187.095 226.144 187.45 224.812 187.554 223.767C187.606 223.251 187.595 222.816 187.564 222.483C187.548 222.316 187.527 222.175 187.507 222.061C187.497 222.004 187.487 221.954 187.477 221.911C187.472 221.889 187.468 221.869 187.463 221.851C187.461 221.842 187.459 221.834 187.457 221.825C187.456 221.821 187.455 221.817 187.454 221.814C187.454 221.812 187.453 221.81 187.453 221.808C187.452 221.807 187.452 221.806 187.452 221.805C187.452 221.804 187.451 221.802 185.031 222.429ZM181.927 225.025C181.115 226.365 180.972 226.568 180.768 226.717C180.638 226.812 180.234 227.048 178.471 227.222L178.96 232.198C180.852 232.012 182.431 231.694 183.718 230.754C184.928 229.87 185.633 228.558 186.203 227.616L181.927 225.025ZM180.679 228.162C180.537 227.983 180.146 227.435 179.739 226.857C179.547 226.584 179.367 226.326 179.235 226.135C179.169 226.04 179.114 225.962 179.077 225.908C179.058 225.881 179.044 225.86 179.034 225.846C179.029 225.839 179.025 225.834 179.023 225.83C179.022 225.829 179.021 225.827 179.02 225.826C179.02 225.826 179.02 225.826 179.019 225.825C179.019 225.825 179.019 225.825 176.964 227.248C174.908 228.671 174.908 228.671 174.908 228.671C174.909 228.671 174.909 228.672 174.909 228.672C174.909 228.672 174.909 228.672 174.91 228.673C174.91 228.674 174.911 228.675 174.913 228.677C174.915 228.681 174.919 228.687 174.925 228.695C174.935 228.71 174.95 228.731 174.969 228.759C175.008 228.815 175.063 228.895 175.131 228.992C175.266 229.186 175.451 229.451 175.649 229.732C176.022 230.262 176.506 230.945 176.752 231.258L180.679 228.162ZM176.964 227.248C176.46 229.697 176.46 229.697 176.461 229.697C176.462 229.697 176.463 229.698 176.464 229.698C176.466 229.698 176.468 229.699 176.47 229.699C176.474 229.7 176.479 229.701 176.484 229.702C176.495 229.704 176.508 229.706 176.523 229.709C176.555 229.715 176.596 229.723 176.646 229.732C176.746 229.749 176.882 229.772 177.048 229.794C177.375 229.84 177.833 229.89 178.355 229.907C179.284 229.937 180.888 229.888 182.259 229.111L179.793 224.761C179.677 224.827 179.25 224.933 178.519 224.909C178.212 224.899 177.933 224.869 177.731 224.841C177.632 224.828 177.556 224.815 177.509 224.807C177.486 224.803 177.47 224.8 177.463 224.798C177.459 224.798 177.458 224.798 177.459 224.798C177.459 224.798 177.46 224.798 177.462 224.798C177.462 224.798 177.463 224.799 177.464 224.799C177.465 224.799 177.465 224.799 177.466 224.799H177.467C177.467 224.799 177.468 224.8 176.964 227.248ZM182.249 229.116C183.845 228.221 184.572 226.806 184.969 225.493C185.32 224.328 185.52 222.808 185.741 221.557L180.817 220.688C180.527 222.333 180.419 223.261 180.182 224.049C179.989 224.689 179.844 224.732 179.803 224.755L182.249 229.116ZM180.779 221.122V221.132H185.779V221.122H180.779Z" fill="#7C6656"/>
</g>
<path d="M172.968 231.553C172.754 231.558 172.556 231.557 172.375 231.549C173.155 228.623 172.562 225.977 171.734 224.023C171.526 223.534 171.302 223.084 171.078 222.679L172.949 222.884C172.967 222.921 172.986 222.96 173.006 223C173.237 223.465 173.569 224.109 173.974 224.832C174.747 226.212 175.827 227.956 177.013 229.268C177.153 229.554 177.184 229.753 177.184 229.876C177.183 230.004 177.148 230.114 177.065 230.235C176.864 230.524 176.378 230.863 175.547 231.133C174.754 231.391 173.819 231.53 172.968 231.553Z" fill="#E1B995" stroke="#7C6656" stroke-width="2.5"/>
<path d="M182.183 216.331C182.183 216.331 177.989 218.404 175.612 216.321C173.226 214.238 173.406 207.866 170.13 205.868C166.854 203.87 164.477 208.235 161.068 207.146C157.66 206.057 156.845 204.41 158.758 202.715C160.671 201.02 164.041 199.808 164.041 199.808C164.041 199.808 173.633 192.886 174.656 193.417C174.892 196.314 174.154 202.942 174.154 202.942C174.154 202.942 182.439 196.56 185.024 198.16C184.295 200.575 181.672 207.714 181.672 207.714C181.672 207.714 184.304 209.419 182.174 216.331H182.183Z" fill="#E1B995"/>
<path d="M174.154 201.692C174.154 201.692 175.546 194.221 174.656 193.407C173.775 192.593 165.301 198.151 164.042 199.798C164.042 199.798 157.215 201.313 156.581 205.423C155.946 209.532 156.959 214.844 162.517 218.508C168.075 222.173 176.805 223.441 180.848 218.508C184.892 213.575 181.672 207.714 181.672 207.714C181.672 207.714 185.024 198.918 185.024 198.16C185.024 197.403 176.048 200.007 174.154 202.942" stroke="#7C6656" stroke-width="2.5" stroke-linecap="round" stroke-linejoin="round"/>
<path d="M165.812 224.444C165.812 224.444 163.407 235.191 164.543 235.693C165.679 236.195 167.952 237.17 169.855 228.279" stroke="#7C6656" stroke-width="2.5" stroke-linecap="round" stroke-linejoin="round"/>
<path d="M160.5 217.221C160.5 217.221 154.753 216.236 154.497 212.193C154.497 212.193 154.242 209.286 152.092 209.665C149.943 210.044 149.82 214.465 153.105 218.641C156.391 222.817 160.5 223.016 160.5 223.016" stroke="#7C6656" stroke-width="2.5" stroke-linecap="round" stroke-linejoin="round"/>
<path d="M160.5 220.279C160.5 220.279 160.5 222.429 161.636 225.591" stroke="#7C6656" stroke-width="2.5" stroke-linecap="round" stroke-linejoin="round"/>
<path d="M161.078 225.582C161.078 225.582 158.617 227.097 159.923 230.222C161.457 232.248 163.673 232.153 163.673 232.153" stroke="#7C6656" stroke-width="2.5" stroke-linecap="round" stroke-linejoin="round"/>
<path d="M174.287 222.428C174.287 222.428 175.556 226.471 176.56 227.105C177.573 227.74 179.845 231.025 175.423 232.161C171.001 233.298 169.865 233.042 169.865 233.042" stroke="#7C6656" stroke-width="2.5" stroke-linecap="round" stroke-linejoin="round"/>
<path d="M179.209 202.705C179.209 202.705 177.183 205.101 177.06 205.423C176.937 205.744 175.545 204.854 175.545 204.854" stroke="#7C6656" stroke-width="2.5" stroke-linecap="round" stroke-linejoin="round"/>
<path d="M170.934 198.662L169.855 201.692L167.838 200.935" stroke="#7C6656" stroke-width="2.5" stroke-linecap="round" stroke-linejoin="round"/>
<path d="M175.545 211.303C175.545 211.303 176.681 209.381 169.381 209.381" stroke="#7C6656" stroke-width="2.5" stroke-linecap="round" stroke-linejoin="round"/>
<path d="M163.027 203.946C163.027 203.946 166.133 203.359 167.042 207.705" stroke="#7C6656" stroke-width="2.5" stroke-linecap="round" stroke-linejoin="round"/>
<path d="M168.503 210.336H166.325L165.812 208.642" stroke="#7C6656" stroke-width="2.5" stroke-linecap="round" stroke-linejoin="round"/>
<path d="M166.029 209.381C166.029 209.381 162.09 213.907 164.239 215.961C166.389 218.016 167.828 210.735 167.828 210.735" stroke="#7C6656" stroke-width="2.5" stroke-linecap="round" stroke-linejoin="round"/>
<path d="M177.383 227.172C177.771 226.784 178.358 226.632 178.907 226.831C178.945 226.85 179.712 227.106 180.365 226.793C180.801 226.585 181.142 226.121 181.379 225.411C182.373 222.447 183.727 218.376 188.035 219.2C188.821 219.361 189.313 220.09 189.162 220.866C189.01 221.633 188.272 222.144 187.495 221.993C186.094 221.728 185.403 222.315 184.068 226.311C183.452 228.166 182.354 229 181.549 229.378C180.479 229.88 179.419 229.833 178.718 229.71" stroke="#7C6656" stroke-width="2.5" stroke-linecap="round" stroke-linejoin="round"/>
</g>
<defs>
<filter id="filter0_f_522_14707" x="135.096" y="121.532" width="22.0195" height="14.7095" filterUnits="userSpaceOnUse" color-interpolation-filters="sRGB">
<feFlood flood-opacity="0" result="BackgroundImageFix"/>
<feBlend mode="normal" in="SourceGraphic" in2="BackgroundImageFix" result="shape"/>
<feGaussianBlur stdDeviation="1" result="effect1_foregroundBlur_522_14707"/>
</filter>
<filter id="filter1_f_522_14707" x="87.6289" y="128.299" width="22.0195" height="14.7095" filterUnits="userSpaceOnUse" color-interpolation-filters="sRGB">
<feFlood flood-opacity="0" result="BackgroundImageFix"/>
<feBlend mode="normal" in="SourceGraphic" in2="BackgroundImageFix" result="shape"/>
<feGaussianBlur stdDeviation="1" result="effect1_foregroundBlur_522_14707"/>
</filter>
<clipPath id="clip0_522_14707">
<rect width="256" height="256" fill="white"/>
</clipPath>
</defs>
</svg>
