<svg width="256" height="256" viewBox="0 0 256 256" fill="none" xmlns="http://www.w3.org/2000/svg">
<g clip-path="url(#clip0_522_13914)">
<path opacity="0.4" d="M120.917 212.999C163.949 212.999 198.833 207.925 198.833 201.666C198.833 195.407 163.949 190.333 120.917 190.333C77.8845 190.333 43 195.407 43 201.666C43 207.925 77.8845 212.999 120.917 212.999Z" fill="#E1D6CF"/>
<path d="M92.7852 154.722C104.191 167.831 118.137 161.669 118.137 161.669C118.137 161.669 124.031 168.089 129.461 160.946C133.941 155.063 128.552 149.003 125.228 148.415C121.905 147.827 117.559 149.272 116.103 153.008C116.103 153.008 110.344 155.537 100.888 149.014" fill="white"/>
<path d="M92.7852 154.721C104.191 167.831 118.137 161.668 118.137 161.668C118.137 161.668 124.031 168.089 129.461 160.945C133.941 155.062 128.552 149.002 125.228 148.414C121.905 147.826 117.559 149.271 116.103 153.008C116.103 153.008 106.452 156.053 101.095 145.028" stroke="#7C6656" stroke-width="2.5" stroke-linecap="round" stroke-linejoin="round"/>
<path d="M103.706 151.253C103.706 151.253 101.848 153.039 96.8418 158.468" stroke="#7C6656" stroke-width="2.5" stroke-linecap="round" stroke-linejoin="round"/>
<path d="M57.7219 194.275C56.9271 194.275 56.2871 193.408 56.2871 192.344V173.341H59.1567V192.344C59.1567 193.408 58.5167 194.275 57.7219 194.275Z" fill="#A08A60" stroke="#A08A60" stroke-width="2.5" stroke-linecap="round" stroke-linejoin="round"/>
<path d="M70.8215 200.035C70.0267 200.035 69.3867 199.168 69.3867 198.105V179.102H72.2563V198.105C72.2563 199.168 71.6164 200.035 70.8215 200.035Z" fill="#A08A60" stroke="#A08A60" stroke-width="2.5" stroke-linecap="round" stroke-linejoin="round"/>
<path d="M69.1688 146.658L55.6465 147.773V175.891L72.5546 185.326L99.2999 178.967L81.7105 167.706" fill="#C3A875"/>
<path d="M69.1688 146.658L55.6465 147.773V175.891L72.5546 185.326L99.2999 178.967L81.7105 167.706" stroke="#C3A875" stroke-width="2.5" stroke-linecap="round" stroke-linejoin="round"/>
<path d="M72 199L72.5 195.5L73.5 191L74.5 182L80.5 171.5H98.5L105 174.5L106.5 179.5V187.5V194L108.5 195.5V199L105 202H99L95.5 200L94 199L93.5 197V194V185L92 180L91 181L89.5 188.5L87 194.5V197L88 199L85.5 203L82 203.5H78L74 202L72 199Z" fill="white"/>
<path d="M27.418 91.2295L28.832 99.0065L41.558 94.7645L81.1501 79.9175L122.156 58.7074L115.086 54.4654L112.258 52.3444L100.239 48.8094L87.5131 45.2744L71.2521 46.6884L59.233 50.9304L52.87 54.4654L43.679 58.7074L34.488 67.1915L28.832 77.0895L27.418 91.2295Z" fill="white"/>
<path d="M102.436 169.596C102.436 169.596 98.6688 166.107 86.3954 171.754C79.4794 172.93 61.9417 174.757 61.8281 173.354C65.5648 179.237 73.0383 182.097 73.9673 182.582C73.3273 188.104 71.975 196.373 71.975 196.373C71.975 196.373 74.5866 199.067 80.0885 198.716C85.5903 198.365 86.0238 196.28 86.0238 196.28C86.0238 196.28 92.5166 183.108 89.4509 177.431C89.4509 177.431 93.1876 177.937 93.0637 183.635L93.6521 196.342C93.6521 196.342 104.253 197.281 106.782 192.853C107.02 186.411 109.641 174.943 102.436 169.607V169.596Z" fill="#8EBDE2"/>
<path d="M64.6277 144.562L62.4497 161.832C62.4497 161.832 56.1014 176.81 72.7308 181.857" stroke="#7C6656" stroke-width="2.5" stroke-linecap="round" stroke-linejoin="round"/>
<path d="M64.6061 144.562C64.6061 144.562 60.6836 159.829 60.6836 173.352C60.6836 173.352 78.8717 175.106 88.7502 170.358C96.492 166.632 104.12 169.016 104.12 169.016C104.12 169.016 100.838 162.647 100.497 144.573" fill="white"/>
<path d="M64.6061 144.562C64.6061 144.562 60.6836 159.829 60.6836 173.352C60.6836 173.352 78.8717 175.106 88.7502 170.358C96.492 166.632 104.12 169.016 104.12 169.016C104.12 169.016 101.426 160.253 100.497 144.573" stroke="#7C6656" stroke-width="2.5" stroke-linecap="round" stroke-linejoin="round"/>
<path d="M88.9973 173.343C88.9973 173.343 94.5095 177.658 86.0348 196.269C86.0348 196.269 89.2967 198.674 86.1174 202.049C82.7316 205.652 75.3821 203.236 73.9369 201.936C71.955 200.16 71.8002 199.345 72.0583 195.133C72.0583 195.133 72.275 192.47 73.6479 186.793C75.0208 181.126 72.2647 177.007 72.2647 177.007" stroke="#7C6656" stroke-width="2.5" stroke-linecap="round" stroke-linejoin="round"/>
<path d="M96.2858 145.039C96.2858 145.039 95.2329 150.334 87.2331 150.851C79.2229 151.367 76.5391 145.906 76.5391 145.906" stroke="#7C6656" stroke-width="2.5" stroke-linecap="round" stroke-linejoin="round"/>
<path d="M102.437 169.596C102.437 169.596 107.867 172.816 107.196 183.49C106.711 191.128 106.793 193.471 106.793 193.471C106.793 193.471 109.085 194.844 108.982 197.714C108.879 200.584 103.862 203.412 97.9369 201.42C92.0118 199.427 93.8285 196.114 93.6634 192.904C93.4982 189.693 95.0259 181.859 90.3809 176.027" stroke="#7C6656" stroke-width="2.5" stroke-linecap="round" stroke-linejoin="round"/>
<path d="M93.6641 196.34C100.714 199.096 107.331 193.883 107.331 193.883" stroke="#7C6656" stroke-width="2.5" stroke-linecap="round" stroke-linejoin="round"/>
<path d="M86.0349 196.278C86.0349 196.278 80.0789 201.037 72.3887 197.249" stroke="#7C6656" stroke-width="2.5" stroke-linecap="round" stroke-linejoin="round"/>
<path d="M174.634 134.305C174.634 134.305 167.398 114.538 182.974 104.99C198.551 95.4519 224.078 101.48 228.166 77.5322" stroke="#7D7369" stroke-width="2.5" stroke-linecap="round" stroke-linejoin="round"/>
<path d="M178.328 134.843C178.328 134.843 174.674 119.555 186.493 113.114C201.564 104.897 209.698 117.098 227.566 109.625" stroke="#7D7369" stroke-width="2.5" stroke-linecap="round" stroke-linejoin="round"/>
<path d="M179.577 117.004C179.577 118.129 178.256 119.048 176.635 119.048C175.015 119.048 173.693 118.129 173.693 117.004C173.693 115.879 175.015 114.96 176.635 114.96C178.256 114.96 179.577 115.879 179.577 117.004Z" fill="#7C6656" stroke="#7C6656" stroke-width="2.5" stroke-linecap="round" stroke-linejoin="round"/>
<path d="M179.723 116.478L179 106.507" stroke="#7C6656" stroke-width="2.5" stroke-linecap="round" stroke-linejoin="round"/>
<path d="M178.998 106.507C178.998 106.507 182.394 105.784 183.912 109.077L178.998 106.507Z" fill="#7C6656"/>
<path d="M178.998 106.507C178.998 106.507 182.394 105.784 183.912 109.077" stroke="#7C6656" stroke-width="2.5" stroke-linecap="round" stroke-linejoin="round"/>
<path d="M194.885 105.578C195.164 106.673 194.111 107.891 192.542 108.283C190.963 108.685 189.466 108.118 189.187 107.023C188.909 105.929 189.961 104.711 191.531 104.319C193.11 103.916 194.607 104.484 194.885 105.578Z" fill="#7C6656" stroke="#7C6656" stroke-width="2.5" stroke-linecap="round" stroke-linejoin="round"/>
<path d="M194.895 105.031L191.736 95.5449" stroke="#7C6656" stroke-width="2.5" stroke-linecap="round" stroke-linejoin="round"/>
<path d="M201.739 102.379C201.956 103.236 201.14 104.175 199.912 104.485C198.684 104.795 197.517 104.361 197.301 103.504C197.084 102.648 197.899 101.708 199.128 101.399C200.356 101.089 201.522 101.523 201.739 102.379Z" fill="#7C6656" stroke="#7C6656" stroke-width="2.5" stroke-linecap="round" stroke-linejoin="round"/>
<path d="M201.748 101.946L199.281 94.5654" stroke="#7C6656" stroke-width="2.5" stroke-linecap="round" stroke-linejoin="round"/>
<path d="M191.736 95.5452C191.736 95.5452 193.914 92.1698 199.282 94.5646" stroke="#7C6656" stroke-width="2.5" stroke-linecap="round" stroke-linejoin="round"/>
<path d="M210.647 91.8811C210.017 90.9418 210.585 89.445 211.937 88.5366C213.279 87.6283 214.89 87.6386 215.519 88.5779C216.149 89.5173 215.581 91.014 214.229 91.9224C212.887 92.8308 211.277 92.8204 210.647 91.8811Z" fill="#7C6656" stroke="#7C6656" stroke-width="2.5" stroke-linecap="round" stroke-linejoin="round"/>
<path d="M210.824 92.4072L217.018 100.242" stroke="#7C6656" stroke-width="2.5" stroke-linecap="round" stroke-linejoin="round"/>
<path d="M219.432 93.8633C219.628 93.9975 220.134 97.9716 217.141 100.604L219.432 93.8633Z" fill="#7C6656"/>
<path d="M219.432 93.8633C219.628 93.9975 220.134 97.9716 217.141 100.604" stroke="#7C6656" stroke-width="2.5" stroke-linecap="round" stroke-linejoin="round"/>
<path d="M216.726 93.8633C216.726 93.8633 217.19 96.4026 215.477 97.8374L216.726 93.8633Z" fill="#7C6656"/>
<path d="M216.726 93.8633C216.726 93.8633 217.19 96.4026 215.477 97.8374" stroke="#7C6656" stroke-width="2.5" stroke-linecap="round" stroke-linejoin="round"/>
<path d="M115.331 203.814C113.741 203.814 112.461 202.524 112.461 200.945V173.838H118.211V200.945C118.211 202.534 116.92 203.814 115.341 203.814H115.331Z" fill="#A08A60" stroke="#A08A60" stroke-width="2.5" stroke-linecap="round" stroke-linejoin="round"/>
<path d="M172.073 203.814C170.483 203.814 169.203 202.524 169.203 200.945V173.838H174.953V200.945C174.953 202.534 173.662 203.814 172.083 203.814H172.073Z" fill="#A08A60" stroke="#A08A60" stroke-width="2.5" stroke-linecap="round" stroke-linejoin="round"/>
<path d="M186.317 166.736H103.201V175.954H186.317V166.736Z" fill="#C3A875" stroke="#C3A875" stroke-width="2.5" stroke-linecap="round" stroke-linejoin="round"/>
<path d="M125.487 165.621H110.014C109.033 165.621 108.238 164.826 108.238 163.846H127.262C127.262 164.826 126.468 165.621 125.487 165.621Z" fill="#7D7369" stroke="#7D7369" stroke-width="2.5" stroke-linecap="round" stroke-linejoin="round"/>
<path d="M153.513 137.999H170.741C172.062 137.999 173.053 139.207 172.795 140.507L168.243 163.578C168.047 164.559 167.19 165.271 166.189 165.271H149.023C147.701 165.271 146.71 164.063 146.958 162.773L151.448 139.702C151.644 138.711 152.501 138.009 153.513 138.009V137.999Z" fill="white" stroke="#7C6656" stroke-width="2.5" stroke-linecap="round" stroke-linejoin="round"/>
<path d="M166.272 143.883H169.193C169.317 143.883 169.43 143.801 169.461 143.677L170.266 140.735C170.318 140.559 170.184 140.384 169.998 140.384H167.077C166.953 140.384 166.839 140.466 166.808 140.59L166.003 143.532C165.952 143.708 166.086 143.883 166.272 143.883Z" fill="#7C6656"/>
<path d="M156.465 149.498C156.465 149.498 157.187 147.887 159.489 148.961C159.489 148.961 161.935 147.856 163.391 149.766C164.506 151.232 163.773 154.659 162.317 155.536C160.862 156.414 159.716 155.805 159.716 155.805C159.716 155.805 158.302 156.341 157.383 155.846C156.465 155.35 155.855 153.74 155.855 153.74C155.855 153.74 157.497 154.163 157.652 153.131C157.652 153.131 158.508 153.203 158.735 152.347C158.952 151.49 158.343 150.839 157.889 150.881C157.889 150.881 158.219 150.385 157.848 149.89C157.311 149.167 156.475 149.508 156.475 149.508L156.465 149.498Z" fill="#B0B0B0"/>
<path d="M159.633 148.198C159.633 148.198 159.942 146.329 161.357 146.401C162.771 146.474 163.039 146.629 163.039 146.629C163.039 146.629 162.162 148.497 159.633 148.198Z" fill="#B0B0B0"/>
<path d="M159.635 150.716H167.428L175.222 165.27H167.428L159.635 150.716Z" fill="white" stroke="#7C6656" stroke-width="2.5" stroke-linecap="round" stroke-linejoin="round"/>
<path d="M129.933 71.4341C129.933 71.4341 132.054 86.9882 126.922 91.1147C129.379 96.7301 143.324 115.599 121.585 133.839C110.705 139.929 89.4929 149.25 63.6456 145.204C50.4638 141.065 36.3325 139.413 33.9686 118.18C33.9686 112.44 28.125 92.6441 28.125 92.6441C28.125 92.6441 111.551 20.5297 129.933 71.4341Z" fill="white"/>
<g filter="url(#filter0_f_522_13914)">
<path d="M68.8055 124.808C73.4654 124.318 77.0155 121.717 76.7348 118.998C76.4542 116.279 72.449 114.472 67.7891 114.962C63.1292 115.452 59.5791 118.053 59.8598 120.771C60.1404 123.49 64.1456 125.297 68.8055 124.808Z" fill="#F5B0B0"/>
</g>
<g filter="url(#filter1_f_522_13914)">
<path d="M122.421 118.571C127.081 118.081 130.631 115.48 130.35 112.761C130.069 110.042 126.064 108.235 121.404 108.725C116.744 109.215 113.194 111.816 113.475 114.535C113.756 117.253 117.761 119.06 122.421 118.571Z" fill="#F5B0B0"/>
</g>
<path d="M109.633 118.531C109.633 118.531 106.041 124.312 98.3715 125.313C90.702 126.314 86.0156 121.607 86.0156 121.607" stroke="#7C6656" stroke-width="2.5" stroke-linecap="round" stroke-linejoin="round"/>
<path d="M82.8779 109.901C81.8766 111.357 79.9773 112.368 77.7683 112.43C75.4458 112.492 73.4019 111.491 72.3594 109.963" stroke="#7C6656" stroke-width="2.5" stroke-linecap="round" stroke-linejoin="round"/>
<path d="M117.755 104.399C117.054 106.02 115.381 107.383 113.234 107.868C110.963 108.384 108.765 107.795 107.443 106.495" stroke="#7C6656" stroke-width="2.5" stroke-linecap="round" stroke-linejoin="round"/>
<path d="M124.97 82.3926C126.302 85.5719 126.116 90.0724 126.291 91.7756C127.643 94.3872 134.456 102.222 133.796 113.349C133.135 124.477 124.96 135.016 106.359 141.612C106.359 141.612 95.355 144.874 91.3086 145.039" stroke="#7C6656" stroke-width="2.5" stroke-linecap="round" stroke-linejoin="round"/>
<path d="M83.3608 145.606C70.5404 147.196 56.0994 145.276 46.1486 138.577C37.8803 133.023 33.8959 125.632 33.4727 107.806" stroke="#7C6656" stroke-width="2.5" stroke-linecap="round" stroke-linejoin="round"/>
<path d="M32.5958 107.93C13.582 64.4623 53.2923 54.2019 53.2923 54.2019C78.7989 36.117 112.192 52.0755 112.192 52.0755C112.192 52.0755 136.542 63.0069 129.678 84.9729" stroke="#7C6656" stroke-width="2.5" stroke-linecap="round" stroke-linejoin="round"/>
<path d="M58.7422 67.1152C58.7422 67.1152 58.6493 81.8143 83.0308 86.5523" stroke="#7C6656" stroke-width="2.5" stroke-linecap="round" stroke-linejoin="round"/>
<path d="M54.6856 76.3027C54.6856 76.3027 42.4019 86.2122 41.3594 100.426" stroke="#7C6656" stroke-width="2.5" stroke-linecap="round" stroke-linejoin="round"/>
<path d="M107.939 83.6104C107.939 83.6104 90.9793 81.0814 83.3613 67.1152" stroke="#7C6656" stroke-width="2.5" stroke-linecap="round" stroke-linejoin="round"/>
<path d="M80.5037 61.572C100.539 47.7297 114.578 65.412 114.578 65.412C95.1409 89.1225 80.9889 71.0067 80.9889 71.0067C80.9889 71.0067 78.9141 69.9022 78.9141 65.7423C78.9141 63.5539 80.5037 61.5617 80.5037 61.5617V61.572Z" fill="#1AAF92"/>
<path d="M80.9891 71.0166C80.9891 71.0166 95.1411 89.1324 114.578 65.4219C114.578 65.4219 100.55 47.7293 80.5039 61.5819" stroke="#7C6656" stroke-width="2.5" stroke-linecap="round" stroke-linejoin="round"/>
<path d="M97.5766 66.6184C97.5766 66.8455 82.9703 71.057 75.1562 62.541" stroke="#7C6656" stroke-width="2.5" stroke-linecap="round" stroke-linejoin="round"/>
<path d="M61.5694 146.184C61.5694 146.184 53.807 154.596 53.5696 162.823C53.3321 171.05 59.0714 175.582 72.6763 175.582C72.6763 175.582 82.3071 183.355 86.6838 174.178C90.5754 166.044 83.5045 160.109 74.8337 164.578C74.8337 164.578 63.6958 164.176 65.4094 160.779C70.8183 150.034 72.0673 147.969 72.0673 147.969" fill="white"/>
<path d="M62.3964 145.131C62.3964 145.131 53.8081 154.597 53.5604 162.813C53.3127 171.03 59.0622 175.572 72.6672 175.572C72.6672 175.572 82.298 183.344 86.6747 174.168C90.5662 166.034 83.4954 160.098 74.8245 164.568C74.8245 164.568 64.1202 164.351 65.4002 160.769C66.6182 157.384 67.5679 154.483 67.5679 154.483" stroke="#7C6656" stroke-width="2.5" stroke-linecap="round" stroke-linejoin="round"/>
<path d="M57.3281 153.514C57.3281 153.514 58.9281 157.715 65.7925 157.715" stroke="#7C6656" stroke-width="2.5" stroke-linecap="round" stroke-linejoin="round"/>
<path d="M87.5625 162.091H102.685V175.634C102.685 177.482 101.178 178.989 99.33 178.989H90.9276C89.0799 178.989 87.5728 177.482 87.5728 175.634V162.091H87.5625Z" fill="#D4EDFC" stroke="#7D7369" stroke-width="2.5" stroke-linecap="round" stroke-linejoin="round"/>
</g>
<defs>
<filter id="filter0_f_522_13914" x="57.8475" y="112.886" width="20.8987" height="13.9983" filterUnits="userSpaceOnUse" color-interpolation-filters="sRGB">
<feFlood flood-opacity="0" result="BackgroundImageFix"/>
<feBlend mode="normal" in="SourceGraphic" in2="BackgroundImageFix" result="shape"/>
<feGaussianBlur stdDeviation="0.99812" result="effect1_foregroundBlur_522_13914"/>
</filter>
<filter id="filter1_f_522_13914" x="111.463" y="106.649" width="20.8987" height="13.9983" filterUnits="userSpaceOnUse" color-interpolation-filters="sRGB">
<feFlood flood-opacity="0" result="BackgroundImageFix"/>
<feBlend mode="normal" in="SourceGraphic" in2="BackgroundImageFix" result="shape"/>
<feGaussianBlur stdDeviation="0.99812" result="effect1_foregroundBlur_522_13914"/>
</filter>
<clipPath id="clip0_522_13914">
<rect width="256" height="256" fill="white"/>
</clipPath>
</defs>
</svg>
