<svg width="260" height="260" viewBox="0 0 260 260" fill="none" xmlns="http://www.w3.org/2000/svg">
<mask id="mask0_492_172932" style="mask-type:alpha" maskUnits="userSpaceOnUse" x="0" y="0" width="260" height="260">
<rect width="260" height="260" transform="matrix(-1 0 0 1 260 0)" fill="#D9D9D9"/>
</mask>
<g mask="url(#mask0_492_172932)">
<path d="M204.449 63.0943L203.365 86.6742L200.124 93.4065L201.468 103.749L199.842 113.778L197.944 125.161L190.084 134.105L180.327 140.339L166.505 146.302L160 149.012L165.691 159.04L171.383 172.592L170.028 179.639L166.505 185.059V191.022L167.589 193.732L172.196 195.359L174.907 201.05L176.533 208.097L174.907 211.892L168.402 212.976L162.981 210.807L150.243 213.518L130.186 214.873L124.223 211.892L119.616 212.976L108.503 211.892L101.728 204.845L100.643 196.714L101.728 191.022L97.6621 183.433L99.0173 177.47L102.812 173.405L104.709 166.629L110.943 155.788L115.279 150.909L100.101 146.302L81.1291 135.189L72.456 122.722L70.8298 104.562L76.2505 91.0107L70.8298 78.2722L68.3905 64.9915L72.185 51.7109L85.7366 35.991L99.5593 29.2151L115.821 22.9814L132.896 20L146.448 21.3552L154.85 22.9814L166.505 27.5889L170.299 28.131L187.916 35.991L199.029 47.9164L204.449 63.0943Z" fill="white"/>
<path d="M100.048 196.787C100.048 196.787 73.8653 204.04 72.7733 208.004C71.6542 212.049 72.0857 213.761 77.2763 218.075C82.4534 222.39 132.931 242.303 143.069 240.82C143.069 240.82 196.148 220.489 201.366 216.902C205.303 214.206 207.702 209.191 201.366 205.429C195.029 201.654 174.038 192.769 166.946 190.814" fill="#BEA18B"/>
<path d="M100.048 196.787C100.048 196.787 73.8653 204.04 72.7733 208.004C71.6542 212.049 72.0857 213.761 77.2763 218.075C82.4534 222.39 132.931 242.303 143.069 240.82C143.069 240.82 196.148 220.489 201.366 216.902C205.303 214.206 207.702 209.191 201.366 205.429C195.029 201.654 174.038 192.769 166.946 190.814" stroke="#7C6B5A" stroke-width="4" stroke-linecap="round" stroke-linejoin="round"/>
<path d="M201.365 212.049C201.365 212.049 150.12 232.178 145.792 233.337C141.478 234.483 136.584 233.054 129.088 231.032" stroke="#7C6B5A" stroke-width="4" stroke-linecap="round" stroke-linejoin="round"/>
<path d="M101.451 221.458C101.451 221.458 81.2684 213.517 76.5362 209.473" stroke="#7C6B5A" stroke-width="4" stroke-linecap="round" stroke-linejoin="round"/>
<path d="M41.6154 158.767C41.6154 158.767 27.985 122.662 6.11695 118.321C6.11695 118.321 32.1914 111.877 49.2598 159.361" fill="#85C175"/>
<path d="M41.6154 158.767C41.6154 158.767 27.985 122.662 6.11695 118.321C6.11695 118.321 32.1914 111.877 49.2598 159.361" stroke="#85C175" stroke-width="4" stroke-linecap="round" stroke-linejoin="round"/>
<path d="M52.09 159.375C52.09 159.375 61.2309 111.136 84.2988 104.854C84.2988 104.854 62.7274 125.535 59.276 160.359" fill="#AFD4A1"/>
<path d="M52.09 159.375C52.09 159.375 61.2309 111.136 84.2988 104.854C84.2988 104.854 62.7274 125.535 59.276 160.359" stroke="#AFD4A1" stroke-width="4" stroke-linecap="round" stroke-linejoin="round"/>
<path d="M55.9591 161.518C55.9591 161.518 69.6435 132.598 81.0898 128.217C81.0898 128.217 66.9606 144.031 63.9001 159.212" fill="#85C175"/>
<path d="M55.9591 161.518C55.9591 161.518 69.6435 132.598 81.0898 128.217C81.0898 128.217 66.9606 144.031 63.9001 159.212" stroke="#85C175" stroke-width="4" stroke-linecap="round" stroke-linejoin="round"/>
<path d="M52.8457 158.62C52.8457 162.516 50.4459 109.787 39.067 96.8984C39.067 96.8984 46.4012 143.439 45.9563 161.518" fill="#AFD4A1"/>
<path d="M52.8457 158.62C52.8457 162.516 50.4459 109.787 39.067 96.8984C39.067 96.8984 46.4012 143.439 45.9563 161.518" stroke="#AFD4A1" stroke-width="4" stroke-linecap="round" stroke-linejoin="round"/>
<path d="M56.5953 160.224C55.9617 131.116 59.8984 108.291 59.8984 108.291C54.0607 115.935 50.9598 134.325 50.9598 134.325C50.9598 134.325 48.9644 149.6 49.2745 160.359" fill="#85C175"/>
<path d="M56.5953 160.224C55.9617 131.116 59.8984 108.291 59.8984 108.291C54.0607 115.935 50.9598 134.325 50.9598 134.325C50.9598 134.325 48.9644 149.6 49.2745 160.359" stroke="#85C175" stroke-width="4" stroke-linecap="round" stroke-linejoin="round"/>
<path d="M33.1331 159.848H72.5684L65.8408 205.431H39.8607L33.1331 159.848Z" fill="#D2C0AE"/>
<path opacity="0.5" d="M35.6439 176.834H69.7402" stroke="white" stroke-width="4" stroke-linecap="round" stroke-linejoin="round"/>
<path opacity="0.5" d="M37.7046 190.814H67.6484" stroke="white" stroke-width="4" stroke-linecap="round" stroke-linejoin="round"/>
<path d="M33.1331 159.848H72.5684L65.8408 205.431H39.8607L33.1331 159.848Z" stroke="#D2C0AE" stroke-width="4" stroke-linecap="round" stroke-linejoin="round"/>
<path d="M165.236 194.362C165.236 194.362 169.982 192.34 172.422 196.587C174.876 200.833 180.309 209.381 172.422 212.037C167.555 212.887 165.088 211.026 165.088 211.026C165.088 211.026 165.614 202.869 162.971 198.245" fill="white"/>
<path d="M78.6929 59.9725C78.6929 59.9725 75.3089 78.4295 76.4145 87.503C74.1764 95.1878 59.2921 121.977 90.5168 141.944C105.63 147.997 134.684 156.505 167.473 146.905C183.84 139.328 201.879 134.812 201.367 106.904C202.607 99.7987 195.583 80.1822 195.583 80.1822C195.583 80.1822 144.607 19.2564 78.7064 59.9725H78.6929Z" fill="white"/>
<path d="M115.457 187.795C111.224 195.655 105.669 192.703 102.38 190.572C98.6048 197.704 101.396 204.122 104.416 208.585C107.422 213.047 116.415 213.452 123.088 211.901C131.96 219.02 155.459 213.088 158.398 211.901C161.337 210.715 163.413 211.793 164.869 212.292C166.595 203.326 164.114 201.115 162.079 198.419C167.849 191.921 166.083 189.777 165.53 186.002C158.155 190.154 146.224 189.966 146.224 189.966C137.245 195.763 132.27 194.172 129.964 191.233L128.225 188.725L115.457 187.809V187.795Z" fill="#8EBDE2"/>
<g filter="url(#filter0_f_492_172932)">
<ellipse cx="11.4286" cy="6.28571" rx="11.4286" ry="6.28571" transform="matrix(-1 0 0 1 99.6953 109.342)" fill="#F5B0B0"/>
</g>
<g filter="url(#filter1_f_492_172932)">
<ellipse cx="11.4286" cy="6.28571" rx="11.4286" ry="6.28571" transform="matrix(-1 0 0 1 167.125 109.342)" fill="#F5B0B0"/>
</g>
<path d="M103.418 120.115C103.418 120.115 109.04 127.005 119.138 127.005C129.236 127.005 134.521 120.115 134.521 120.115" stroke="#7C6656" stroke-width="4" stroke-linecap="round" stroke-linejoin="round"/>
<path d="M136.623 104.435C138.174 106.147 140.803 107.145 143.661 106.848C146.681 106.538 149.162 104.893 150.254 102.736" stroke="#7C6656" stroke-width="4" stroke-linecap="round" stroke-linejoin="round"/>
<path d="M90.5289 103.182C91.7153 105.164 94.1017 106.647 96.9734 106.916C99.9934 107.199 102.744 106.067 104.24 104.166" stroke="#7C6656" stroke-width="4" stroke-linecap="round" stroke-linejoin="round"/>
<path d="M159.637 150.193C159.637 150.193 170.854 162.556 171.177 173.288C171.501 184.02 163.992 189.952 146.222 189.952C146.222 189.952 133.643 200.104 127.927 188.119C122.844 177.495 132.079 169.742 143.404 175.58C143.404 175.58 157.385 175.297 155.713 170.619L154.042 165.94" stroke="#7C6656" stroke-width="4" stroke-linecap="round" stroke-linejoin="round"/>
<path d="M121.955 212.334C107.88 215.044 99.7365 207.345 100.438 197.625C101.004 189.819 109.282 186.178 109.282 186.178C109.282 186.178 108.271 181.878 109.174 174.678C110.576 163.434 115.47 151.812 115.47 151.812" stroke="#7C6656" stroke-width="4" stroke-linecap="round" stroke-linejoin="round"/>
<path d="M126.499 192.959C126.256 193.161 120.459 195.264 120.459 202.949C120.459 210.634 122.75 214.733 133.442 215.029C144.133 215.326 161.808 211.133 161.808 211.133C161.808 211.133 172.001 215.825 175.196 210.728C178.391 205.632 174.401 192.77 167.107 193.957" stroke="#7C6656" stroke-width="4" stroke-linecap="round" stroke-linejoin="round"/>
<path d="M165.692 186.865C165.692 186.865 168.982 197.853 156.308 201.048" stroke="#7C6656" stroke-width="4" stroke-linecap="round" stroke-linejoin="round"/>
<path d="M101.974 173.963C111.317 167.357 120.822 179.518 114.553 188.039C108.553 196.168 99.8303 190.101 98.145 186.138C96.4597 182.174 97.4709 177.145 101.974 173.963Z" fill="white" stroke="#7C6656" stroke-width="4" stroke-linecap="round" stroke-linejoin="round"/>
<path d="M115.457 151.812C115.457 151.812 106.047 159.147 103.404 172.251" stroke="#7C6656" stroke-width="4" stroke-linecap="round" stroke-linejoin="round"/>
<path d="M118.275 151.812C118.275 151.812 119.151 156.167 126.984 157.219C134.817 158.27 142.313 155.641 145.279 151.812" stroke="#7C6656" stroke-width="4" stroke-linecap="round" stroke-linejoin="round"/>
<path d="M166.258 161.143C166.258 161.143 164.168 166.63 155.202 166.63" stroke="#7C6656" stroke-width="4" stroke-linecap="round" stroke-linejoin="round"/>
<path d="M162.968 199.242C162.968 199.242 167.498 205.201 165.233 211.309" stroke="#7C6656" stroke-width="4" stroke-linecap="round" stroke-linejoin="round"/>
<path d="M77.4651 75.8945C76.2652 80.2358 77.2764 86.0331 77.3303 88.2711C76.0226 91.8843 68.513 103.182 71.2499 117.473C73.9733 131.764 86.3499 144.047 111.548 149.453C111.548 149.453 126.351 151.826 131.609 151.354" stroke="#7C6656" stroke-width="4" stroke-linecap="round" stroke-linejoin="round"/>
<path d="M142.003 150.761C158.869 150.667 177.245 145.732 189.015 135.392C198.789 126.803 202.713 116.557 200.259 93.4082" stroke="#7C6656" stroke-width="4" stroke-linecap="round" stroke-linejoin="round"/>
<path d="M201.407 93.4075C218.731 33.9108 165.558 27.3046 165.558 27.3046C129.466 8.17342 88.9117 34.4771 88.9117 34.4771C88.9117 34.4771 59.224 52.7319 71.8029 80.0332" stroke="#7C6656" stroke-width="4" stroke-linecap="round" stroke-linejoin="round"/>
<path d="M160.665 44.9531C160.665 44.9531 163.254 63.9764 132.474 74.2228" stroke="#7C6656" stroke-width="4" stroke-linecap="round" stroke-linejoin="round"/>
<path d="M167.472 56.1699C167.472 56.1699 185.053 66.9421 188.801 85.17" stroke="#7C6656" stroke-width="4" stroke-linecap="round" stroke-linejoin="round"/>
<path d="M99.7214 74.6C99.7214 74.6 121.252 68.4656 128.775 49.0918" stroke="#7C6656" stroke-width="4" stroke-linecap="round" stroke-linejoin="round"/>
<path d="M131.552 41.4338C103.267 26.8731 88.0721 52.1521 88.0721 52.1521C117.234 79.5882 132.523 53.743 132.523 53.743C132.523 53.743 135.017 51.9633 134.329 46.5839C133.965 43.7527 131.565 41.4338 131.565 41.4338H131.552Z" fill="#73C09B"/>
<path d="M132.512 53.743C132.512 53.743 117.223 79.5882 88.0611 52.1521C88.0611 52.1521 103.256 26.8731 131.541 41.4338" stroke="#7C6656" stroke-width="4" stroke-linecap="round" stroke-linejoin="round"/>
<path d="M110.292 50.8451C110.319 51.1418 129.962 54.1213 138.645 41.7852" stroke="#7C6656" stroke-width="4" stroke-linecap="round" stroke-linejoin="round"/>
<path d="M115.457 187.795C116.724 188.712 125.272 188.617 128.225 188.712" stroke="#7C6656" stroke-width="4" stroke-linecap="round" stroke-linejoin="round"/>
</g>
<defs>
<filter id="filter0_f_492_172932" x="74.409" y="106.913" width="27.7154" height="17.4295" filterUnits="userSpaceOnUse" color-interpolation-filters="sRGB">
<feFlood flood-opacity="0" result="BackgroundImageFix"/>
<feBlend mode="normal" in="SourceGraphic" in2="BackgroundImageFix" result="shape"/>
<feGaussianBlur stdDeviation="1.21456" result="effect1_foregroundBlur_492_172932"/>
</filter>
<filter id="filter1_f_492_172932" x="141.839" y="106.913" width="27.7154" height="17.4295" filterUnits="userSpaceOnUse" color-interpolation-filters="sRGB">
<feFlood flood-opacity="0" result="BackgroundImageFix"/>
<feBlend mode="normal" in="SourceGraphic" in2="BackgroundImageFix" result="shape"/>
<feGaussianBlur stdDeviation="1.21456" result="effect1_foregroundBlur_492_172932"/>
</filter>
</defs>
</svg>
