<svg width="256" height="256" viewBox="0 0 256 256" fill="none" xmlns="http://www.w3.org/2000/svg">
<g clip-path="url(#clip0_522_14595)">
<path opacity="0.4" d="M130 222C184.124 222 228 214.165 228 204.5C228 194.835 184.124 187 130 187C75.8761 187 32 194.835 32 204.5C32 214.165 75.8761 222 130 222Z" fill="#E1D6CF"/>
<path d="M184.582 93.1747L178.091 106.474L151.527 147.795C151.527 147.795 136.346 169.009 137.275 186.236C138.204 203.474 142.637 211.858 142.637 211.858C142.637 211.858 151.692 208.601 162.651 208.695C173.611 208.778 182.195 210.412 188.168 208.237C194.142 206.061 213.086 196.96 213.262 190.669C213.674 185.777 205.913 183.143 205.913 183.143C205.913 183.143 207.794 171.69 203.596 160.413C199.398 149.136 192.343 128.452 192.343 124.207C192.343 117.775 191.72 112.777 193.507 104.416C195.294 96.0556 195.036 86.3662 195.036 86.3662" fill="#D2ECFC"/>
<path d="M43.6504 165.574C41.3103 166.139 38.7116 166.891 37.5474 168.996C36.8889 170.172 36.8184 171.583 36.3833 172.865C35.8189 174.535 34.6665 175.934 33.9021 177.521C33.126 179.109 32.7968 181.131 33.8433 182.542" stroke="#7C6656" stroke-width="2.5" stroke-linecap="round" stroke-linejoin="round"/>
<path d="M33.8191 186.506C32.5139 188.905 32.8902 192.115 34.7128 194.137" stroke="#7C6656" stroke-width="2.5" stroke-linecap="round" stroke-linejoin="round"/>
<path d="M33.2324 170.854C30.3867 172.548 28.6934 175.97 29.0462 179.262" stroke="#7C6656" stroke-width="2.5" stroke-linecap="round" stroke-linejoin="round"/>
<path d="M205.926 148.171C208.395 149.747 211.041 151.522 212.005 154.286C212.77 156.473 212.323 158.895 212.722 161.188C213.064 163.128 214.004 164.927 214.357 166.868C214.71 168.808 214.251 171.136 212.534 172.1" stroke="#7C6656" stroke-width="2.5" stroke-linecap="round" stroke-linejoin="round"/>
<path d="M214.156 175.288V178.545" stroke="#7C6656" stroke-width="2.5" stroke-linecap="round" stroke-linejoin="round"/>
<path d="M218.449 182.18C220.825 184.379 221.448 188.224 219.907 191.07C219.543 191.022 219.178 190.987 218.814 190.94" stroke="#7C6656" stroke-width="2.5" stroke-linecap="round" stroke-linejoin="round"/>
<path d="M201.563 132.65C200.01 134.732 199.999 137.824 201.551 139.906" stroke="#7C6656" stroke-width="2.5" stroke-linecap="round" stroke-linejoin="round"/>
<path d="M61.4185 103.605C59.1842 106.521 56.8442 109.779 57.0206 113.436C57.1382 115.929 58.4199 118.28 58.3494 120.773C58.2906 122.831 57.3263 124.724 56.6913 126.688C56.0563 128.652 55.7859 130.945 56.9853 132.615" stroke="#7C6656" stroke-width="2.5" stroke-linecap="round" stroke-linejoin="round"/>
<path d="M56.5972 139.105C57.8789 140.446 57.6908 142.645 56.8912 144.315C56.0916 145.984 54.7863 147.36 53.9397 149.007C53.093 150.653 52.7873 152.816 53.9514 154.251" stroke="#7C6656" stroke-width="2.5" stroke-linecap="round" stroke-linejoin="round"/>
<path d="M64.393 90.9756C64.1579 92.9158 63.9227 94.8561 63.6875 96.7963" stroke="#7C6656" stroke-width="2.5" stroke-linecap="round" stroke-linejoin="round"/>
<path d="M126.587 149.512C126.587 149.512 107.067 149.383 92.6738 135.825C85.5714 128.487 82.6198 117.575 85.4185 105.251C82.9726 97.3844 76.4816 82.1682 89.4166 65.4234C100.329 52.512 112.547 53.0176 112.547 53.0176C112.547 53.0176 128.457 44.069 148.329 49.0901C168.19 54.1112 181.09 62.1074 186.675 76.3593C189.933 86.0958 186.652 95.8087 181.149 96.232C180.996 98.3604 180.831 100.418 180.831 100.418C180.831 100.418 188.016 110.319 186.029 122.278C184.03 134.237 177.574 139.094 164.11 145.126C150.646 151.158 126.599 149.512 126.599 149.512H126.587Z" fill="white"/>
<path d="M181.066 90.7993C181.995 94.1741 181.219 98.6778 181.172 100.418C182.195 103.217 188.027 112.012 185.899 123.125C183.782 134.237 174.164 143.785 154.561 147.983C154.561 147.983 143.061 149.829 138.957 149.465" stroke="#7C6656" stroke-width="2.5" stroke-linecap="round" stroke-linejoin="round"/>
<path d="M130.891 148.994C117.78 148.924 103.481 145.091 94.3443 137.047C86.748 130.368 83.7024 122.407 85.6073 104.404" stroke="#7C6656" stroke-width="2.5" stroke-linecap="round" stroke-linejoin="round"/>
<g filter="url(#filter0_f_522_14595)">
<path d="M164.523 123.018C170.692 123.018 175.694 120.386 175.694 117.139C175.694 113.892 170.692 111.259 164.523 111.259C158.353 111.259 153.352 113.892 153.352 117.139C153.352 120.386 158.353 123.018 164.523 123.018Z" fill="#F5B0B0"/>
</g>
<g filter="url(#filter1_f_522_14595)">
<path d="M112.782 123.018C118.952 123.018 123.954 120.386 123.954 117.139C123.954 113.892 118.952 111.259 112.782 111.259C106.613 111.259 101.611 113.892 101.611 117.139C101.611 120.386 106.613 123.018 112.782 123.018Z" fill="#F5B0B0"/>
</g>
<path d="M84.9955 104.416C71.5314 58.1563 112.864 53.0294 112.864 53.0294C140.921 38.1542 172.459 58.6031 172.459 58.6031C172.459 58.6031 195.542 72.7963 185.758 94.0213" stroke="#7C6656" stroke-width="2.5" stroke-linecap="round" stroke-linejoin="round"/>
<path d="M116.38 66.7402C116.38 66.7402 114.358 81.5331 138.299 89.4939" stroke="#7C6656" stroke-width="2.5" stroke-linecap="round" stroke-linejoin="round"/>
<path d="M111.088 75.4541C111.088 75.4541 97.4123 83.8265 94.5078 97.9961" stroke="#7C6656" stroke-width="2.5" stroke-linecap="round" stroke-linejoin="round"/>
<path d="M163.757 89.7876C163.757 89.7876 147.012 85.0135 141.168 69.9619" stroke="#7C6656" stroke-width="2.5" stroke-linecap="round" stroke-linejoin="round"/>
<path d="M125.07 91.458C125.07 91.458 122.647 94.7388 119.566 94.8916" stroke="#7C6656" stroke-width="2.5" stroke-linecap="round" stroke-linejoin="round"/>
<path d="M154.115 123.666C153.833 122.796 153.104 122.079 152.222 121.808C151.34 121.538 150.341 121.702 149.612 122.255C149.188 122.573 148.836 123.008 148.33 123.137C147.789 123.278 147.225 123.019 146.813 122.655C146.402 122.29 146.084 121.82 145.708 121.408C144.885 120.515 143.615 119.915 142.427 120.232C141.51 120.479 140.781 121.22 139.84 121.385C138.288 121.655 136.759 120.221 135.242 120.668C134.243 120.962 133.361 121.455 132.62 122.173C131.597 123.16 130.233 124.172 128.998 123.443C128.116 122.925 127.54 121.843 126.541 121.691C125.882 121.597 125.224 121.949 124.777 122.443C124.33 122.937 124.071 123.572 123.824 124.183" stroke="#7C6656" stroke-width="2.5" stroke-linecap="round" stroke-linejoin="round"/>
<path d="M175.27 79.876V98.0084" stroke="url(#paint0_linear_522_14595)" stroke-width="2.5" stroke-linecap="round" stroke-linejoin="round"/>
<path d="M178.104 145.749C178.104 145.749 151.293 128.31 140.345 145.749C134.501 155.05 136.418 175.052 136.418 175.052" fill="#D2ECFC"/>
<path d="M178.104 145.749C178.104 145.749 151.293 128.31 140.345 145.749C134.501 155.05 136.418 175.052 136.418 175.052" stroke="#7C6656" stroke-width="2.5" stroke-linecap="round" stroke-linejoin="round"/>
<path d="M155.14 153.163C160.306 151.023 162.759 145.101 160.619 139.935C158.479 134.769 152.557 132.316 147.391 134.456C142.225 136.595 139.772 142.518 141.912 147.684C144.051 152.85 149.974 155.303 155.14 153.163Z" fill="white" stroke="#7C6656" stroke-width="2.5" stroke-linecap="round" stroke-linejoin="round"/>
<path d="M184.735 99.5127C184.735 99.5127 187.11 82.5562 177.421 70.8089C170.365 60.9314 152.668 56.4041 136.052 56.6511C119.437 56.8863 105.338 61.484 93.2144 76.6532C86.3706 87.3304 82.7959 99.3951 87.6876 118.75C91.6269 134.366 106.243 146.396 119.837 148.054C117.897 157.05 87.1467 161.553 79.3857 157.508C71.6248 153.475 65.4043 139.094 65.8746 131.121L66.345 123.137C66.345 123.137 68.4734 96.4083 74.4352 82.5797C80.397 68.7511 86.2177 51.1831 115.486 43.2458C144.754 35.2967 175.916 52.265 178.985 54.5815C182.054 56.898 194.848 65.4703 195.318 89.788C195.718 110.625 191.096 120.138 191.096 120.138L184.735 99.5009V99.5127Z" fill="#D2ECFC"/>
<path d="M116.333 147.384C116.333 147.384 92.2856 141.598 87.6761 118.75C84.1248 101.135 86.8059 93.5978 88.9931 85.9074C91.8152 76.0063 104.55 60.9313 123.823 57.674C143.096 54.4168 172.47 58.603 180.384 75.4654C188.474 92.6924 183.206 97.5136 181.172 100.43" stroke="#7C6656" stroke-width="2.5" stroke-linecap="round" stroke-linejoin="round"/>
<path d="M80.1269 68.8223C67.8858 87.8366 64.5698 127.947 66.122 137.836C67.6624 147.737 64.0641 157.791 59.9485 165.599C55.8328 173.407 51.7172 162.33 42.4511 179.439C33.185 196.549 56.8676 211.142 84.1485 211.647C111.429 212.153 107.032 204.604 117.85 209.131C128.656 213.658 145.131 218.691 146.166 209.131C147.2 199.571 138.44 177.111 148.741 159.908C154.173 150.83 151.575 143.621 146.471 139.129C140.839 134.167 132.631 133.509 125.964 136.942C119.143 140.458 106.103 145.585 94.52 140.94C94.52 140.94 80.7737 131.898 79.2215 116.681C77.6693 101.465 82.3847 84.8968 82.3847 84.8968" fill="#D2ECFC"/>
<path d="M94.5083 140.94C106.091 145.585 119.12 140.47 125.952 136.942C132.619 133.497 140.827 134.167 146.46 139.129C151.563 143.621 154.162 150.83 148.729 159.908C138.428 177.111 147.189 199.571 146.154 209.131C145.119 218.691 128.656 213.658 117.838 209.131C107.032 204.604 111.429 212.153 84.1368 211.647C56.8559 211.142 33.1732 196.549 42.4393 179.439C51.7054 162.33 55.8211 173.395 59.9368 165.599C64.0524 157.791 67.6624 147.737 66.1102 137.836C64.5698 127.935 67.8741 87.8366 80.1152 68.8222C94.8728 45.9274 129.303 30.9465 168.331 49.0436C206.478 66.7409 193.155 110.085 193.155 110.085C193.155 110.085 189.239 130.804 198.164 146.702C204.467 157.92 208.418 178.487 205.925 183.143C205.925 183.143 218.342 186.565 210.899 194.632C203.444 202.71 188.533 210.166 179.843 209.225C171.142 208.296 151.269 208.061 145.989 211.553" stroke="#7C6656" stroke-width="2.5" stroke-linecap="round" stroke-linejoin="round"/>
<path d="M159.477 149.712C159.477 149.712 171.294 161.541 170.589 168.997" stroke="#7C6656" stroke-width="2.5" stroke-linecap="round" stroke-linejoin="round"/>
<path d="M141.167 149.712C141.167 149.712 142.19 156.191 130.89 168.997C119.589 181.802 122.329 186.235 122.329 186.235H123.823L125.081 184.142" stroke="#7C6656" stroke-width="2.5" stroke-linecap="round" stroke-linejoin="round"/>
<path d="M134.783 148.994C134.783 148.994 116.474 161.224 96.1309 154.156" stroke="#7C6656" stroke-width="2.5" stroke-linecap="round" stroke-linejoin="round"/>
<path d="M113.7 207.813C113.7 207.813 99.4125 200.91 85.043 201.146" stroke="#7C6656" stroke-width="2.5" stroke-linecap="round" stroke-linejoin="round"/>
<path d="M56.6916 173.194C56.6916 173.194 49.7067 181.108 60.6544 189.269" stroke="#7C6656" stroke-width="2.5" stroke-linecap="round" stroke-linejoin="round"/>
<path d="M201.808 186.235C201.808 186.235 196.681 198.571 183.641 201.134" stroke="#7C6656" stroke-width="2.5" stroke-linecap="round" stroke-linejoin="round"/>
<path d="M77.6582 120.149C77.6582 120.149 82.303 132.802 88.0179 137.741" stroke="#7C6656" stroke-width="2.5" stroke-linecap="round" stroke-linejoin="round"/>
<path d="M200.197 76.8769C200.197 76.8769 201.667 65.7764 208.299 63.2364C214.931 60.6965 217.859 68.2928 213.567 71.4207C209.275 74.5486 205.947 70.821 200.197 76.8769Z" fill="#BAE3FA"/>
<path d="M199.717 79.7221C199.717 79.7221 212.781 74.0895 218.625 80.4041C221.671 83.6966 220.942 85.9661 218.896 87.8593C217.226 89.3997 214.333 89.6702 212.699 88.7295C207.772 85.8956 209.735 79.7103 199.717 79.7103V79.7221Z" fill="#57C4F2"/>
<path d="M135.007 51.0069C135.007 51.0069 127.975 53.8173 128.434 59.2735C128.786 63.4714 130.879 65.2823 137.853 68.8806C144.826 72.4788 157.667 65.9055 164.169 57.3332C159.066 52.4532 149.964 43.1401 135.007 51.0069Z" fill="#1AAF92"/>
<path d="M130.561 63.8234C130.561 63.8234 145.554 81.7089 164.451 56.9797C164.451 56.9797 149.599 39.5176 129.738 54.2634" stroke="#7C6656" stroke-width="2.5" stroke-linecap="round" stroke-linejoin="round"/>
<path d="M147.237 58.7917C147.248 59.0152 132.561 63.8011 124.342 55.4404" stroke="#7C6656" stroke-width="2.5" stroke-linecap="round" stroke-linejoin="round"/>
<path d="M125.317 103.241C124.212 101.289 122.166 99.9011 119.943 99.5719C118.038 99.3014 116.016 99.807 114.546 101.053C113.088 102.3 112.241 104.275 112.476 106.18C112.629 107.462 113.241 108.65 113.935 109.732C114.534 110.672 115.252 111.601 116.275 112.036C117.451 112.542 118.815 112.307 120.026 111.907C122.166 111.202 124.224 109.932 125.306 107.956C126.399 105.981 126.27 103.252 124.6 101.736C123.071 100.348 120.743 100.289 118.756 100.842C116.286 101.524 113.97 103.158 113.029 105.534C112.088 107.909 112.923 111.025 115.205 112.189C116.698 112.954 118.532 112.789 120.096 112.142C121.649 111.495 122.977 110.425 124.294 109.379C125.07 108.756 125.905 108.027 126.035 107.027C126.176 105.898 125.341 104.91 124.576 104.076C123.53 102.947 122.401 101.771 120.908 101.394C119.12 100.936 117.227 101.759 115.757 102.888C114.511 103.84 113.382 105.11 113.1 106.651C112.641 109.179 114.746 111.695 117.251 112.236C119.755 112.777 122.413 111.66 124.271 109.885C125.435 108.779 126.376 107.333 126.505 105.734C126.681 103.476 125.059 101.277 122.918 100.536C120.778 99.7953 118.297 100.43 116.58 101.912C114.864 103.394 113.899 105.628 113.699 107.874C113.594 109.061 113.699 110.308 114.334 111.319C115.334 112.954 117.462 113.6 119.367 113.377C121.272 113.154 122.989 112.189 124.647 111.213C125.2 110.884 125.752 110.543 126.14 110.037C126.822 109.144 126.834 107.897 126.552 106.804C125.647 103.194 121.719 100.677 118.027 101.183C116.686 101.371 115.346 101.935 114.523 103.005C113.394 104.452 113.405 106.533 114.064 108.25C114.852 110.296 116.522 112.036 118.615 112.707C120.708 113.377 123.165 112.895 124.729 111.354C126.293 109.814 126.775 107.227 125.729 105.298" stroke="#7C6656" stroke-linecap="round" stroke-linejoin="round"/>
<path d="M162.899 103.241C161.794 101.289 159.748 99.9011 157.525 99.5719C155.621 99.3014 153.598 99.807 152.128 101.053C150.67 102.3 149.823 104.275 150.059 106.18C150.211 107.462 150.823 108.65 151.517 109.732C152.116 110.672 152.834 111.601 153.857 112.036C155.033 112.542 156.397 112.307 157.608 111.907C159.748 111.202 161.806 109.932 162.888 107.956C163.981 105.981 163.852 103.252 162.182 101.736C160.653 100.348 158.325 100.289 156.338 100.842C153.868 101.524 151.552 103.158 150.611 105.534C149.67 107.909 150.505 111.025 152.787 112.189C154.28 112.954 156.114 112.789 157.678 112.142C159.231 111.495 160.559 110.425 161.876 109.379C162.652 108.756 163.487 108.027 163.617 107.027C163.758 105.898 162.923 104.91 162.159 104.076C161.112 102.947 159.983 101.771 158.49 101.394C156.702 100.936 154.809 101.759 153.339 102.888C152.093 103.84 150.964 105.11 150.682 106.651C150.223 109.179 152.328 111.695 154.833 112.236C157.337 112.777 159.995 111.66 161.853 109.885C163.017 108.779 163.958 107.333 164.087 105.734C164.263 103.476 162.641 101.277 160.501 100.536C158.36 99.7953 155.879 100.43 154.162 101.912C152.446 103.394 151.481 105.628 151.281 107.874C151.176 109.061 151.281 110.308 151.916 111.319C152.916 112.954 155.044 113.6 156.949 113.377C158.854 113.142 160.571 112.189 162.229 111.213C162.782 110.884 163.334 110.543 163.722 110.037C164.405 109.144 164.416 107.897 164.134 106.804C163.229 103.194 159.301 100.677 155.609 101.183C154.268 101.371 152.928 101.935 152.105 103.005C150.976 104.452 150.987 106.533 151.646 108.25C152.434 110.296 154.104 112.036 156.197 112.707C158.29 113.377 160.747 112.895 162.311 111.354C163.875 109.814 164.357 107.227 163.311 105.298" stroke="#7C6656" stroke-linecap="round" stroke-linejoin="round"/>
<path d="M110.336 109.167C110.336 109.167 110.642 113.918 114.546 114.035" stroke="#7C6656" stroke-linecap="round" stroke-linejoin="round"/>
<path d="M108.69 111.107C108.69 111.107 108.584 113.447 111.5 114.729" stroke="#7C6656" stroke-linecap="round" stroke-linejoin="round"/>
<path d="M165.286 109.896C165.286 109.896 165.439 112.177 162.088 113.447" stroke="#7C6656" stroke-linecap="round" stroke-linejoin="round"/>
<path d="M167.521 110.637C167.521 110.637 166.333 113.823 164.287 114.494" stroke="#7C6656" stroke-linecap="round" stroke-linejoin="round"/>
</g>
<defs>
<filter id="filter0_f_522_14595" x="149.101" y="107.008" width="30.8438" height="20.2607" filterUnits="userSpaceOnUse" color-interpolation-filters="sRGB">
<feFlood flood-opacity="0" result="BackgroundImageFix"/>
<feBlend mode="normal" in="SourceGraphic" in2="BackgroundImageFix" result="shape"/>
<feGaussianBlur stdDeviation="2.12549" result="effect1_foregroundBlur_522_14595"/>
</filter>
<filter id="filter1_f_522_14595" x="97.3603" y="107.008" width="30.8438" height="20.2607" filterUnits="userSpaceOnUse" color-interpolation-filters="sRGB">
<feFlood flood-opacity="0" result="BackgroundImageFix"/>
<feBlend mode="normal" in="SourceGraphic" in2="BackgroundImageFix" result="shape"/>
<feGaussianBlur stdDeviation="2.12549" result="effect1_foregroundBlur_522_14595"/>
</filter>
<linearGradient id="paint0_linear_522_14595" x1="-nan" y1="-nan" x2="-nan" y2="-nan" gradientUnits="userSpaceOnUse">
<stop stop-color="white"/>
<stop offset="0.62" stop-color="#729ABA"/>
</linearGradient>
<clipPath id="clip0_522_14595">
<rect width="256" height="256" fill="white"/>
</clipPath>
</defs>
</svg>
