<svg width="256" height="256" viewBox="0 0 256 256" fill="none" xmlns="http://www.w3.org/2000/svg">
<g clip-path="url(#clip0_522_14030)">
<path opacity="0.4" d="M127.917 224.666C170.949 224.666 205.833 219.592 205.833 213.333C205.833 207.074 170.949 202 127.917 202C84.8845 202 50 207.074 50 213.333C50 219.592 84.8845 224.666 127.917 224.666Z" fill="#E1D6CF"/>
<path d="M70.7831 92.4278L73.2062 98.637V107.421L75.7807 118.022L79.4153 125.291L82.8985 129.683L93.348 136.346L100.314 138.921L94.4081 141.495L91.2278 142.101L82.4442 140.284L76.0836 134.832L75.7807 133.166L76.3865 129.228L74.2663 125.139L68.8143 122.413H64.4225L60.6364 124.382L57.3047 129.228V134.074L59.122 138.163L62.4537 140.284L66.6941 141.798L74.4177 150.127L79.2639 153.005L89.4105 155.428H102.132L101.677 167.392L101.072 174.661L102.132 175.57L100.769 196.771L99.8601 201.769L98.9514 204.344L96.5283 207.978L96.8312 211.007L102.283 212.521L109.098 211.764L113.338 208.735L115.459 204.949L118.942 191.168L120.608 183.445L131.209 183.596L133.177 199.952L134.995 206.161L136.358 209.341L144.384 212.067L149.23 211.31L151.805 209.038V205.555L149.23 203.586L147.716 197.983V188.594L150.139 174.358L153.925 172.995L153.016 160.728L151.805 155.428H159.226L168.009 153.459L174.218 150.43L179.065 146.19L182.396 141.647L186.182 139.981L190.423 138.012L191.786 133.317V129.683L188.605 124.231L182.396 122.262L175.884 124.231L173.007 127.865V131.197V134.226L169.827 138.012L162.709 141.647H157.56L147.716 139.981L145.596 138.012L156.954 134.226L168.009 127.26L173.007 121.202L176.49 111.51V103.786L175.278 98.9398L171.492 90.0048L176.49 73.1947L175.278 65.0168L169.524 55.0216L163.769 49.4183L153.925 43.8149L141.507 39.2716L128.937 37H118.639L105.312 40.0288L98.6485 43.8149L95.6197 44.7236L86.2302 48.2067L78.3552 53.9615L71.5403 63.0481L68.9658 73.649V81.8269L70.7831 92.4278Z" fill="white"/>
<path d="M150.483 172.56C150.483 172.56 105.354 172.123 102.484 171.92C102.089 175.473 103.434 196.325 99.4531 203.037C101.876 204.862 114.329 206.516 114.329 206.516C114.329 206.516 120.081 186.102 120.411 183.359C120.411 183.359 130.474 184.736 130.72 184.17C130.965 183.605 130.474 184.736 130.474 184.736L134.658 206.676C134.658 206.676 140.132 203.87 149.245 203.144C148.381 198.993 147.826 192.057 148.488 187.447C149.139 182.837 150.494 172.571 150.494 172.571L150.483 172.56Z" fill="#8EBDE2"/>
<path d="M100.294 203.721C100.294 203.721 96.986 204.863 96.5378 207.509C96.1003 210.155 96.3777 212.663 103.431 212.674C109.407 212.674 112.182 210.198 114.327 206.517" stroke="#7C6656" stroke-width="2.5" stroke-linecap="round" stroke-linejoin="round"/>
<path d="M130.965 183.604C130.965 183.604 133.409 205.779 135.393 208.426C137.378 211.072 143.215 212.065 147.292 211.616C151.368 211.179 152.692 208.095 151.806 206.217C150.92 204.339 148.829 203.645 148.829 203.645" stroke="#7C6656" stroke-width="2.5" stroke-linecap="round" stroke-linejoin="round"/>
<path d="M147.729 145.893C147.729 145.893 151.805 158.239 150.482 172.56C149.158 186.891 146.341 191.896 149.233 203.144" stroke="#7C6656" stroke-width="2.5" stroke-linecap="round" stroke-linejoin="round"/>
<path d="M102.708 149.115C102.708 149.115 101.972 176.124 101.929 186.134C101.887 196.143 99.2188 203.901 99.2188 203.901C99.2188 203.901 111.043 204.072 114.575 206.516C115.396 204.67 115.674 203.56 116.026 201.874C117.477 194.895 120.401 183.359 120.401 183.359C120.401 183.359 132.63 184.352 135.384 182.804" stroke="#7C6656" stroke-width="2.5" stroke-linecap="round" stroke-linejoin="round"/>
<path d="M150.118 204.328C150.118 204.328 141.495 202.631 135.381 207.113" stroke="#7C6656" stroke-width="2.5" stroke-linecap="round" stroke-linejoin="round"/>
<path d="M138.295 140.375C137.143 142.467 134.443 145.049 128.521 145.817C122.203 146.639 117.625 144.985 114.861 140.951" stroke="#7C6656" stroke-width="2.5" stroke-linecap="round" stroke-linejoin="round"/>
<path d="M150.481 172.56H102.578" stroke="#7C6656" stroke-width="2.5" stroke-linecap="round" stroke-linejoin="round"/>
<path d="M194.418 52.5656C194.791 48.9481 192.337 44.8823 187.748 45.2665C183.704 45.6293 180.438 49.6951 180.332 54.7532C180.236 59.0431 182.124 63.5463 184.6 67.0998C188.826 68.0709 193.703 68.1456 197.63 66.4382C202.272 64.4534 204.833 59.8754 203.638 56.0231C202.293 51.6159 197.598 50.8475 194.418 52.5656Z" fill="#EE7374"/>
<path d="M41.0812 76.4437C37.4423 76.2943 33.5366 78.9941 34.2089 83.5508C34.8278 87.5631 39.075 90.5724 44.1332 90.3697C48.423 90.1989 52.7982 88.0434 56.1917 85.3435C56.896 81.075 56.6719 76.1983 54.7297 72.378C52.4674 67.8641 47.7401 65.5911 43.9624 67.021C39.6406 68.6324 39.171 73.3597 41.0812 76.4437Z" fill="#EE7374"/>
<g filter="url(#filter0_f_522_14030)">
<path d="M158.229 110.992C163.266 110.315 167.037 107.445 166.652 104.581C166.267 101.717 161.872 99.9434 156.835 100.62C151.798 101.297 148.027 104.168 148.412 107.032C148.797 109.896 153.192 111.669 158.229 110.992Z" fill="#F5B0B0"/>
</g>
<g filter="url(#filter1_f_522_14030)">
<path d="M105.225 119.001C110.262 118.324 114.033 115.454 113.648 112.59C113.263 109.725 108.868 107.952 103.831 108.629C98.7942 109.306 95.0229 112.176 95.4078 115.04C95.7926 117.905 100.188 119.678 105.225 119.001Z" fill="#F5B0B0"/>
</g>
<path d="M117.412 100.572C117.977 105.203 114.68 109.429 110.048 109.994C105.417 110.56 101.191 107.263 100.626 102.631C100.06 98 103.357 93.7742 107.989 93.2086C112.62 92.6431 116.846 95.9405 117.412 100.572Z" fill="#7C6656"/>
<path d="M112.279 109.056C112.279 109.056 109.729 105.962 111.532 104.169C113.336 102.376 116.964 103.507 116.964 103.507C117.167 100.306 116.377 98.6198 116.377 98.6198C114.712 99.815 111.671 99.8684 110.764 98.6198C109.174 96.4216 110.422 94.0632 110.422 94.0632L110.742 93.6577C110.742 93.6577 109.035 92.8681 107.509 93.2842C105.994 93.7111 105.524 94.6502 105.524 94.6502C105.524 94.6502 107.306 96.6457 106.292 99.1534C105.716 100.573 102.75 101.256 100.85 100.498C100.85 100.498 100.498 102.323 101.458 105.375C101.458 105.375 104.713 103.401 106.89 104.713C109.067 106.026 107.349 109.643 107.349 109.643C107.349 109.643 108.843 110.219 110.038 109.985C111.233 109.75 112.268 109.035 112.268 109.035L112.279 109.056Z" fill="white" stroke="#7C6656" stroke-linecap="round" stroke-linejoin="round"/>
<path d="M117.412 100.572C117.977 105.203 114.68 109.429 110.048 109.994C105.417 110.56 101.191 107.263 100.626 102.631C100.06 98 103.357 93.7742 107.989 93.2086C112.62 92.6431 116.846 95.9405 117.412 100.572Z" stroke="#7C6656" stroke-width="2.5" stroke-linecap="round" stroke-linejoin="round"/>
<path d="M156.212 94.5855C156.778 99.2168 153.48 103.443 148.849 104.008C144.218 104.574 139.992 101.276 139.426 96.645C138.861 92.0137 142.158 87.7879 146.79 87.2223C151.421 86.6567 155.647 89.9541 156.212 94.5855Z" fill="#7C6656"/>
<path d="M151.082 103.058C151.082 103.058 148.531 99.9636 150.335 98.1708C152.138 96.3781 155.766 97.5092 155.766 97.5092C155.969 94.3079 155.18 92.6218 155.18 92.6218C153.515 93.817 150.474 93.8703 149.566 92.6218C147.976 90.4342 149.225 88.0652 149.225 88.0652L149.545 87.6597C149.545 87.6597 147.838 86.87 146.312 87.2862C144.796 87.713 144.327 88.6521 144.327 88.6521C144.327 88.6521 146.109 90.6476 145.095 93.1554C144.519 94.5746 141.552 95.2576 139.653 94.4999C139.653 94.4999 139.301 96.3247 140.261 99.3767C140.261 99.3767 143.516 97.4025 145.693 98.7151C147.87 100.028 146.152 103.645 146.152 103.645C146.152 103.645 147.646 104.221 148.841 103.987C150.036 103.752 151.071 103.037 151.071 103.037L151.082 103.058Z" fill="white" stroke="#7C6656" stroke-linecap="round" stroke-linejoin="round"/>
<path d="M156.212 94.5855C156.778 99.2168 153.48 103.443 148.849 104.008C144.218 104.574 139.992 101.276 139.426 96.645C138.861 92.0137 142.158 87.7879 146.79 87.2223C151.421 86.6567 155.647 89.9541 156.212 94.5855Z" stroke="#7C6656" stroke-width="2.5" stroke-linecap="round" stroke-linejoin="round"/>
<path d="M141.593 107.637L122.844 111.126C122.844 111.126 121.051 132.245 135.094 130.356C146.118 128.883 146.086 117.604 141.593 107.637Z" fill="#F299A0" stroke="#7C6656" stroke-width="2.5" stroke-linecap="round" stroke-linejoin="round"/>
<path d="M101.33 139.105C101.33 139.105 91.0327 144.387 82.5064 140.001C77.6617 136.853 75.7622 134.132 75.7622 134.132C75.7622 134.132 78.558 125.008 69.6689 122.746C60.7797 120.494 56.3191 127.826 57.0234 133.182C57.7384 138.539 61.1319 140.407 66.2327 141.058C66.2327 141.058 71.6857 150.256 80.8203 153.458C89.9549 156.659 101.33 155.592 101.33 155.592" stroke="#7C6656" stroke-width="2.5" stroke-linecap="round" stroke-linejoin="round"/>
<path d="M145.785 139.042C145.785 139.042 159.316 143.791 166.434 139.992C171.279 136.844 173.178 134.122 173.178 134.122C173.178 134.122 170.382 124.999 179.272 122.736C188.161 120.485 192.621 127.816 191.917 133.173C191.213 138.53 187.809 140.397 182.708 141.048C182.708 141.048 177.255 150.247 168.12 153.448C158.986 156.649 150.577 155.753 150.577 155.753" stroke="#7C6656" stroke-width="2.5" stroke-linecap="round" stroke-linejoin="round"/>
<path d="M56.3495 98.073C56.3495 98.073 52.668 95.4479 46.9375 101.755" stroke="#878787" stroke-width="2.5" stroke-linecap="round" stroke-linejoin="round"/>
<path d="M59.5496 65.6021C59.5496 65.6021 55.2169 64.3088 56.6749 55.9131" stroke="#878787" stroke-width="2.5" stroke-linecap="round" stroke-linejoin="round"/>
<path d="M169.67 78.1191C170.822 81.4912 170.31 86.1119 170.374 87.8833C171.591 90.6685 178.068 99.2268 176.606 110.656C175.155 122.085 165.978 132.393 146.332 137.889C146.332 137.889 134.753 140.492 130.57 140.364" stroke="#7C6656" stroke-width="2.5" stroke-linecap="round" stroke-linejoin="round"/>
<path d="M122.343 140.408C109.015 141.155 94.2456 138.156 84.4494 130.569C76.3072 124.263 72.711 116.355 73.522 97.9473" stroke="#7C6656" stroke-width="2.5" stroke-linecap="round" stroke-linejoin="round"/>
<path d="M72.6146 98.0106C56.0314 51.8575 97.7027 44.0355 97.7027 44.0355C125.277 27.1536 158.604 45.9563 158.604 45.9563C158.604 45.9563 182.955 58.9326 174.344 81.1074" stroke="#7C6656" stroke-width="2.5" stroke-linecap="round" stroke-linejoin="round"/>
<path d="M102.432 57.7373C102.432 57.7373 101.311 72.8905 126.132 79.4746" stroke="#7C6656" stroke-width="2.5" stroke-linecap="round" stroke-linejoin="round"/>
<path d="M97.6064 66.9248C97.6064 66.9248 84.246 76.2941 82.1758 90.8817" stroke="#7C6656" stroke-width="2.5" stroke-linecap="round" stroke-linejoin="round"/>
<path d="M152.021 78.1831C152.021 78.1831 134.712 74.3841 127.818 59.4551" stroke="#7C6656" stroke-width="2.5" stroke-linecap="round" stroke-linejoin="round"/>
<path d="M119.328 48.3261C119.328 48.3261 112.36 51.6235 113.171 57.1406C113.801 61.377 116.031 63.0951 123.341 66.3072C130.661 69.5192 143.285 62.0387 149.357 52.9148C143.862 48.2728 134.033 39.3836 119.328 48.3155V48.3261Z" fill="#1AAF92"/>
<path d="M115.623 61.6325C115.623 61.6325 131.982 78.8665 149.633 52.5406C149.633 52.5406 133.434 35.7334 114.193 51.9643" stroke="#7C6656" stroke-width="2.5" stroke-linecap="round" stroke-linejoin="round"/>
<path d="M132.25 55.4644C132.282 55.6991 117.652 61.4723 108.773 53.4902" stroke="#7C6656" stroke-width="2.5" stroke-linecap="round" stroke-linejoin="round"/>
<path d="M147.825 146.287C147.729 145.892 154.302 160.619 154.014 173.008C154.014 173.008 125.042 177.799 101.33 174.843C101.33 174.843 102.461 153.554 102.952 148.229" fill="white"/>
<path d="M147.825 146.287C147.729 145.892 154.302 160.619 154.014 173.008C154.014 173.008 125.042 177.799 101.33 174.843C101.33 174.843 102.461 153.554 102.952 148.229" stroke="#7C6656" stroke-width="2.5" stroke-linecap="round" stroke-linejoin="round"/>
<path d="M154.802 141.795C154.802 141.795 154.482 150.022 151.59 155.326L154.802 141.795Z" fill="white"/>
<path d="M154.802 141.795C154.802 141.795 154.482 150.022 151.59 155.326" stroke="#7C6656" stroke-width="2.5" stroke-linecap="round" stroke-linejoin="round"/>
<path d="M94.7773 141.795C94.7773 141.795 95.8658 150.438 98.3309 155.742" stroke="#7C6656" stroke-width="2.5" stroke-linecap="round" stroke-linejoin="round"/>
</g>
<defs>
<filter id="filter0_f_522_14030" x="146.765" y="98.8567" width="21.5338" height="13.899" filterUnits="userSpaceOnUse" color-interpolation-filters="sRGB">
<feFlood flood-opacity="0" result="BackgroundImageFix"/>
<feBlend mode="normal" in="SourceGraphic" in2="BackgroundImageFix" result="shape"/>
<feGaussianBlur stdDeviation="0.80971" result="effect1_foregroundBlur_522_14030"/>
</filter>
<filter id="filter1_f_522_14030" x="93.7614" y="106.865" width="21.5338" height="13.899" filterUnits="userSpaceOnUse" color-interpolation-filters="sRGB">
<feFlood flood-opacity="0" result="BackgroundImageFix"/>
<feBlend mode="normal" in="SourceGraphic" in2="BackgroundImageFix" result="shape"/>
<feGaussianBlur stdDeviation="0.80971" result="effect1_foregroundBlur_522_14030"/>
</filter>
<clipPath id="clip0_522_14030">
<rect width="256" height="256" fill="white"/>
</clipPath>
</defs>
</svg>
