<svg width="256" height="256" viewBox="0 0 256 256" fill="none" xmlns="http://www.w3.org/2000/svg">
<g clip-path="url(#clip0_522_15488)">
<path opacity="0.4" d="M128 224C167.765 224 200 219.971 200 215C200 210.029 167.765 206 128 206C88.2355 206 56 210.029 56 215C56 219.971 88.2355 224 128 224Z" fill="#E1D6CF"/>
<path d="M152.641 173.08L149.827 183.776V203.48L151.516 209.672L154.33 212.487L152.641 215.865L149.827 217.553H142.508L137.442 214.739L135.19 211.361L132.938 189.406H121.116L115.486 213.05L110.983 217.553L104.227 219.242L98.0349 218.679L95.7831 215.865V212.487L99.7237 206.857L101.413 192.784V174.769L101.976 167.451H99.7237H93.5313L89.5906 163.51V157.317L92.4053 147.184L94.6572 143.806L92.4053 138.177L84.524 133.11L77.7685 124.666L74.3908 112.844V102.711L72.139 94.8295L69.3242 76.8149L72.7019 62.1781L79.4574 53.1709L91.2794 46.4154L99.1608 44.1636L102.539 41.9118L116.049 37.4081L128.434 36.2822L144.76 38.534L162.212 44.7265L176.286 54.8597L181.352 64.9929L183.041 72.3113L181.352 81.3186L177.411 91.4517L181.352 99.8961L183.041 108.903L180.789 119.599L175.723 128.607L169.53 133.673L166.152 135.925L165.026 138.177L162.775 143.806L166.152 149.436L168.404 153.94V160.695L167.278 165.762L161.649 166.888H158.271L152.641 163.51V173.08Z" fill="white"/>
<path d="M98.8343 138.245C98.8343 138.245 86.348 150.799 89.9959 162.283" stroke="#7C6656" stroke-width="2.5" stroke-linecap="round" stroke-linejoin="round"/>
<path d="M156.312 136.612C156.312 136.612 171.85 151.79 168.202 163.274" stroke="#7C6656" stroke-width="2.5" stroke-linecap="round" stroke-linejoin="round"/>
<path d="M152.677 176.976C152.677 176.976 105.062 176.515 102.034 176.301C101.617 180.05 103.036 202.05 98.8359 209.132C101.392 211.058 114.531 212.803 114.531 212.803C114.531 212.803 120.6 191.264 120.949 188.371C120.949 188.371 131.566 189.823 131.825 189.226C132.084 188.629 131.566 189.823 131.566 189.823L135.98 212.972C135.98 212.972 141.756 210.01 151.371 209.245C150.459 204.865 149.873 197.547 150.571 192.683C151.258 187.819 152.688 176.988 152.688 176.988L152.677 176.976Z" fill="#8FBDE2"/>
<path d="M99.725 209.853C99.725 209.853 96.2347 211.057 95.7618 213.85C95.3002 216.642 95.5929 219.288 103.035 219.299C109.34 219.299 112.268 216.687 114.531 212.802" stroke="#7C6656" stroke-width="2.5" stroke-linecap="round" stroke-linejoin="round"/>
<path d="M132.084 188.629C132.084 188.629 134.662 212.025 136.757 214.818C138.851 217.61 145.009 218.657 149.31 218.184C153.611 217.722 155.007 214.469 154.073 212.487C153.138 210.505 150.932 209.773 150.932 209.773" stroke="#7C6656" stroke-width="2.5" stroke-linecap="round" stroke-linejoin="round"/>
<path d="M149.771 148.839C149.771 148.839 154.072 161.866 152.676 176.975C151.28 192.096 148.308 197.377 151.359 209.244" stroke="#7C6656" stroke-width="2.5" stroke-linecap="round" stroke-linejoin="round"/>
<path d="M102.268 152.24C102.268 152.24 101.491 180.737 101.446 191.298C101.401 201.859 98.5859 210.044 98.5859 210.044C98.5859 210.044 111.061 210.225 114.788 212.803C115.655 210.855 115.947 209.684 116.319 207.905C117.85 200.542 120.935 188.371 120.935 188.371C120.935 188.371 133.838 189.418 136.743 187.785" stroke="#7C6656" stroke-width="2.5" stroke-linecap="round" stroke-linejoin="round"/>
<path d="M152.293 210.494C152.293 210.494 143.196 208.704 136.744 213.433" stroke="#7C6656" stroke-width="2.5" stroke-linecap="round" stroke-linejoin="round"/>
<path d="M140.437 141.577C139.761 143.829 137.228 147.758 129.504 148.76C122.839 149.627 116.827 146.407 113.922 142.151" stroke="#7C6656" stroke-width="2.5" stroke-linecap="round" stroke-linejoin="round"/>
<path d="M152.675 176.976H102.133" stroke="#7C6656" stroke-width="2.5" stroke-linecap="round" stroke-linejoin="round"/>
<path d="M171.084 50.6715C171.084 50.6715 192.026 66.8395 176.691 87.3085C176.32 87.2747 176.264 89.7855 176.264 89.7855C176.264 89.7855 183.796 99.5809 182.963 108.397C182.13 117.213 180.959 134.394 147.575 143.176C137.51 144.876 117.243 146.16 103.237 142.951C92.9802 140.857 79.9084 134.923 75.6074 120.241C75.6074 120.241 72.5112 110.412 73.5808 102.373C72.3648 98.151 67.985 89.1212 69.5162 72.8631C71.0475 56.6163 84.5471 47.26 99.6793 43.3531C107.977 39.311 121.556 33.7153 140.584 37.3294C159.6 40.9436 171.084 50.6602 171.084 50.6602V50.6715Z" fill="white"/>
<path d="M175.544 79.4717C176.76 83.0296 176.209 87.9047 176.276 89.785C177.549 92.7236 184.372 101.776 182.807 113.823C181.242 125.882 171.548 136.735 150.808 142.489C150.808 142.489 136.025 145.653 125.487 145.09C117.853 145.112 95.8527 142.658 85.5281 134.63C76.9599 127.965 73.1769 119.61 74.0663 100.188" stroke="#7C6656" stroke-width="2.5" stroke-linecap="round" stroke-linejoin="round"/>
<g filter="url(#filter0_f_522_15488)">
<path d="M160.223 113.189C165.686 112.858 169.962 110.072 169.774 106.965C169.586 103.859 165.004 101.609 159.542 101.94C154.079 102.272 149.803 105.058 149.991 108.164C150.18 111.271 154.761 113.521 160.223 113.189Z" fill="#F5B0B0"/>
</g>
<g filter="url(#filter1_f_522_15488)">
<path d="M102.888 115.354C108.35 115.023 112.626 112.237 112.438 109.13C112.25 106.024 107.669 103.774 102.206 104.106C96.7429 104.437 92.4671 107.223 92.6554 110.33C92.8437 113.436 97.4248 115.686 102.888 115.354Z" fill="#F5B0B0"/>
</g>
<path d="M145.189 110.255C145.189 110.255 140.539 115.063 131.689 115.592C122.84 116.121 117.953 111.876 117.953 111.876" stroke="#7C6656" stroke-width="2.5" stroke-linecap="round" stroke-linejoin="round"/>
<path d="M73.0966 100.257C55.6901 51.5278 99.6793 43.365 99.6793 43.365C128.807 25.6207 163.935 45.5155 163.935 45.5155C163.935 45.5155 189.594 59.2516 180.463 82.6367" stroke="#7C6656" stroke-width="2.5" stroke-linecap="round" stroke-linejoin="round"/>
<path d="M104.646 57.832C104.646 57.832 103.429 73.8199 129.606 80.8231" stroke="#7C6656" stroke-width="2.5" stroke-linecap="round" stroke-linejoin="round"/>
<path d="M99.5229 67.5156C99.5229 67.5156 85.404 77.3673 83.1973 92.7585" stroke="#7C6656" stroke-width="2.5" stroke-linecap="round" stroke-linejoin="round"/>
<path d="M156.92 79.5064C156.92 79.5064 138.658 75.4644 131.418 59.6904" stroke="#7C6656" stroke-width="2.5" stroke-linecap="round" stroke-linejoin="round"/>
<path d="M122.491 47.9471C122.491 47.9471 115.127 51.4149 115.972 57.2358C116.625 61.7057 118.978 63.5184 126.69 66.9299C134.403 70.3414 147.745 62.4601 154.174 52.8561C148.387 47.9471 138.04 38.5458 122.491 47.9471Z" fill="#1AAF92"/>
<path d="M118.548 61.965C118.548 61.965 135.775 80.1822 154.442 52.4398C154.442 52.4398 137.396 34.673 117.051 51.753" stroke="#7C6656" stroke-width="2.5" stroke-linecap="round" stroke-linejoin="round"/>
<path d="M136.114 55.4903C136.148 55.738 120.7 61.8066 111.344 53.3623" stroke="#7C6656" stroke-width="2.5" stroke-linecap="round" stroke-linejoin="round"/>
<path d="M116.544 101.156C116.544 101.156 115.07 98.398 111.208 98.6907C106.873 99.006 105.387 103.273 105.387 103.273" stroke="#7C6656" stroke-width="2.5" stroke-linecap="round" stroke-linejoin="round"/>
<path d="M144.164 99.1299C144.164 99.1299 145.222 96.1913 149.084 95.8986C153.419 95.5833 155.513 99.5803 155.513 99.5803" stroke="#7C6656" stroke-width="2.5" stroke-linecap="round" stroke-linejoin="round"/>
<path d="M97.8562 146.588C91.5961 141.206 92.1366 132.277 95.503 126.715C98.8695 121.153 105.276 120.421 105.276 120.421C106.289 119.183 110.162 116.717 112.921 116.042C115.679 115.366 121.41 115.028 126.353 117.449C131.296 119.87 131.971 126.321 128.211 127.166C124.45 128.01 123.831 125.038 120.172 124.914C113.495 124.689 111.423 129.451 112.245 134.653C112.797 138.098 118.032 140.102 118.032 140.102C118.032 140.102 122.975 141.532 126.353 142.196C130.62 143.03 130.339 147.657 130.339 147.657C129.866 151.789 126.443 153.264 123.617 152.532C116.783 150.776 113.101 151.812 111.187 152.003C111.187 152.003 109.948 162.485 102.304 166.043C94.9964 169.455 91.4723 166.021 90.7067 164.76C90.3576 164.185 88.5674 160.076 92.4406 155.741C95.8971 151.868 97.8562 146.576 97.8562 146.576V146.588Z" fill="white" stroke="#7C6656" stroke-width="2.5" stroke-linecap="round" stroke-linejoin="round"/>
<path d="M129.166 131.478C128.299 129.845 126.126 128.821 124.302 130.273C122.703 131.568 122.467 134.203 123.841 136.364C125.012 138.2 127.072 139.573 129.121 140.373C131.17 139.596 133.253 138.245 134.435 136.421C135.831 134.27 135.629 131.624 134.03 130.329C132.217 128.843 130.022 129.845 129.166 131.467V131.478Z" fill="#EE7474"/>
<path d="M160.342 146.588C166.602 141.206 166.062 132.277 162.696 126.715C159.329 121.153 152.923 120.421 152.923 120.421C151.909 119.183 148.036 116.717 145.278 116.042C142.519 115.366 136.788 115.028 131.846 117.449C126.903 119.87 126.227 126.321 129.988 127.166C133.748 128.01 134.368 125.038 138.027 124.914C144.704 124.689 146.786 129.451 145.953 134.653C145.402 138.098 140.166 140.102 140.166 140.102C140.166 140.102 135.223 141.532 131.846 142.196C127.578 143.03 127.86 147.657 127.86 147.657C128.333 151.789 131.756 153.264 134.582 152.532C141.416 150.776 145.098 151.812 147.012 152.003C147.012 152.003 148.25 162.485 155.895 166.043C163.202 169.455 166.726 166.021 167.492 164.76C167.841 164.185 169.631 160.076 165.758 155.741C162.301 151.868 160.342 146.576 160.342 146.576V146.588Z" fill="white" stroke="#7C6656" stroke-width="2.5" stroke-linecap="round" stroke-linejoin="round"/>
<path d="M77.5209 150.618C77.5209 150.618 70.1349 162.913 85.0757 170.896" stroke="#7C6656" stroke-width="2.5" stroke-linecap="round" stroke-linejoin="round"/>
<path d="M67.2867 147.917C67.2867 147.917 59.9233 169.298 80.4261 177.235" stroke="#7C6656" stroke-width="2.5" stroke-linecap="round" stroke-linejoin="round"/>
<path d="M177.852 150.945C177.852 150.945 185.238 163.24 170.297 171.223" stroke="#7C6656" stroke-width="2.5" stroke-linecap="round" stroke-linejoin="round"/>
<path d="M188.085 148.231C188.085 148.231 195.448 169.612 174.945 177.55" stroke="#7C6656" stroke-width="2.5" stroke-linecap="round" stroke-linejoin="round"/>
</g>
<defs>
<filter id="filter0_f_522_15488" x="145.984" y="97.9082" width="27.7949" height="19.3135" filterUnits="userSpaceOnUse" color-interpolation-filters="sRGB">
<feFlood flood-opacity="0" result="BackgroundImageFix"/>
<feBlend mode="normal" in="SourceGraphic" in2="BackgroundImageFix" result="shape"/>
<feGaussianBlur stdDeviation="2" result="effect1_foregroundBlur_522_15488"/>
</filter>
<filter id="filter1_f_522_15488" x="88.6484" y="100.073" width="27.7949" height="19.3135" filterUnits="userSpaceOnUse" color-interpolation-filters="sRGB">
<feFlood flood-opacity="0" result="BackgroundImageFix"/>
<feBlend mode="normal" in="SourceGraphic" in2="BackgroundImageFix" result="shape"/>
<feGaussianBlur stdDeviation="2" result="effect1_foregroundBlur_522_15488"/>
</filter>
<clipPath id="clip0_522_15488">
<rect width="256" height="256" fill="white"/>
</clipPath>
</defs>
</svg>
