<svg width="31" height="31" viewBox="0 0 31 31" fill="none" xmlns="http://www.w3.org/2000/svg">
<path d="M13.4688 8.5H21.035" stroke="#494E8F" stroke-width="1.5" stroke-miterlimit="10" stroke-linejoin="round"/>
<path d="M17.4097 8.5H9.325C8.4547 8.5 7.75 9.16323 7.75 9.98041V22.25C7.75 22.8023 8.19772 23.25 8.75 23.25H18.4617C19.014 23.25 19.4617 22.8023 19.4617 22.25V13.0267" stroke="#494E8F" stroke-width="1.5" stroke-miterlimit="10" stroke-linejoin="round"/>
<path d="M16.4267 12.0757L15.0362 15.4079L13.5125 12.1264L12.0833 15.4079L10.8008 12.0875" stroke="#494E8F" stroke-width="1.5" stroke-linecap="round" stroke-linejoin="round"/>
<path d="M10.3047 13.2871H11.04" stroke="#494E8F" stroke-width="1.5" stroke-linecap="round" stroke-linejoin="round"/>
<path d="M16.1914 13.2871H16.9267" stroke="#494E8F" stroke-width="1.5" stroke-linecap="round" stroke-linejoin="round"/>
<path d="M19.4614 13.39C19.4616 13.3902 19.4618 13.3901 19.4618 13.3899V9.98041C19.4618 9.16238 20.1674 8.5 21.0368 8.5C21.9071 8.5 22.6118 9.16323 22.6118 9.98041V12.4958C22.6118 12.9894 22.2117 13.3896 21.7181 13.3896H19.4616C19.4614 13.3896 19.4612 13.3899 19.4614 13.39V13.39Z" stroke="#494E8F" stroke-width="1.5" stroke-miterlimit="10" stroke-linejoin="round"/>
<path d="M11.0352 17.9214H16.1859" stroke="#494E8F" stroke-width="1.5" stroke-linecap="round" stroke-linejoin="round"/>
<path d="M11.0352 20.1631H16.1859" stroke="#494E8F" stroke-width="1.5" stroke-linecap="round" stroke-linejoin="round"/>
</svg>
