<svg width="31" height="31" viewBox="0 0 31 31" fill="none" xmlns="http://www.w3.org/2000/svg">
<path d="M19.1846 8.2793H19.1841C18.3554 8.2793 17.6836 8.89456 17.6836 9.65354V12.0214C17.6836 12.7803 18.3554 13.3956 19.1841 13.3956H19.1846C20.0133 13.3956 20.6851 12.7803 20.6851 12.0214V9.65354C20.6851 8.89456 20.0133 8.2793 19.1846 8.2793Z" stroke="#494E8F" stroke-width="1.5" stroke-linecap="round" stroke-linejoin="round"/>
<path d="M18.8506 16.145H16.1567C15.3281 16.145 14.6562 15.5296 14.6562 14.7707C14.6562 14.0118 15.3281 13.3965 16.1567 13.3965H20.3112C21.1398 13.3965 21.8117 14.0118 21.8117 14.7707" stroke="#494E8F" stroke-width="1.5" stroke-linecap="round" stroke-linejoin="round"/>
<path d="M13.1807 8.2793H13.1802C12.3515 8.2793 11.6797 8.89456 11.6797 9.65354V12.0214C11.6797 12.7803 12.3515 13.3956 13.1802 13.3956H13.1807C14.0094 13.3956 14.6812 12.7803 14.6812 12.0214V9.65354C14.6812 8.89456 14.0094 8.2793 13.1807 8.2793Z" stroke="#494E8F" stroke-width="1.5" stroke-linecap="round" stroke-linejoin="round"/>
<path d="M10.001 9.59619H10.0005C9.17179 9.59619 8.5 10.2115 8.5 10.9704V12.0216C8.5 12.7806 9.17179 13.3959 10.0005 13.3959H10.001C10.8297 13.3959 11.5015 12.7806 11.5015 12.0216V10.9704C11.5015 10.2115 10.8297 9.59619 10.001 9.59619Z" stroke="#494E8F" stroke-width="1.5" stroke-linecap="round" stroke-linejoin="round"/>
<path d="M16.1807 7.5H16.1802C15.3515 7.5 14.6797 8.11527 14.6797 8.87424V12.0216C14.6797 12.7806 15.3515 13.3958 16.1802 13.3958H16.1807C17.0094 13.3958 17.6812 12.7806 17.6812 12.0216V8.87424C17.6812 8.11527 17.0094 7.5 16.1807 7.5Z" stroke="#494E8F" stroke-width="1.5" stroke-linecap="round" stroke-linejoin="round"/>
<path d="M21.809 14.77V16.2782C21.809 16.8964 21.7047 17.5075 21.5554 18.1089C21.406 18.7103 21.1487 19.1702 20.6932 19.6641C20.2666 20.1263 19.7478 20.5281 19.5224 21.1147C19.297 21.7012 19.2305 22.0617 19.2305 22.6651V23.758" stroke="#494E8F" stroke-width="1.5" stroke-linecap="round" stroke-linejoin="round"/>
<path d="M8.5 10.8345C8.5 10.8345 8.5 17.5204 8.5 17.5214C8.5 17.877 8.67138 18.2582 8.83385 18.5716C9.03825 18.9666 9.30868 19.3314 9.61632 19.6646C10.0429 20.1268 10.5618 20.5286 10.7872 21.1151C11.0125 21.7017 11.0791 22.0622 11.0791 22.6655V23.7585" stroke="#494E8F" stroke-width="1.5" stroke-linecap="round" stroke-linejoin="round"/>
<path d="M15.5938 19.0058C15.5938 19.0058 15.5602 16.1445 17.6849 16.1445" stroke="#494E8F" stroke-width="1.5" stroke-linecap="round" stroke-linejoin="round"/>
</svg>
