<svg width="31" height="31" viewBox="0 0 31 31" fill="none" xmlns="http://www.w3.org/2000/svg">
<path d="M15.1981 22.8259C19.0959 22.8259 22.2556 19.6662 22.2556 15.7684C22.2556 11.8707 19.0959 8.71094 15.1981 8.71094C11.3004 8.71094 8.14062 11.8707 8.14062 15.7684C8.14062 19.6662 11.3004 22.8259 15.1981 22.8259Z" stroke="#494E8F" stroke-width="1.5" stroke-linecap="round" stroke-linejoin="round"/>
<path d="M9.51562 23.3396L10.4982 21.7085" stroke="#494E8F" stroke-width="1.5" stroke-linecap="round" stroke-linejoin="round"/>
<path d="M20.881 23.3396L19.8984 21.7085" stroke="#494E8F" stroke-width="1.5" stroke-linecap="round" stroke-linejoin="round"/>
<path d="M12.4924 9.24919L11.9201 8.68911C11.0505 7.84162 9.6601 7.85636 8.81016 8.72595C7.96021 9.59555 7.97741 10.9859 8.84701 11.8359L9.14915 12.1307C9.92295 10.8459 11.0947 9.82892 12.4924 9.24919Z" stroke="#494E8F" stroke-width="1.5" stroke-linecap="round" stroke-linejoin="round"/>
<path d="M21.2417 12.1307L21.5439 11.8359C22.4135 10.9884 22.4282 9.59555 21.5807 8.72595C20.7332 7.85636 19.3404 7.84162 18.4708 8.68911L17.8984 9.24919C19.2962 9.82892 20.4679 10.8459 21.2417 12.1307Z" stroke="#494E8F" stroke-width="1.5" stroke-linecap="round" stroke-linejoin="round"/>
<path d="M15.1328 12.6455V15.9999L17.5546 17.9166" stroke="#494E8F" stroke-width="1.5" stroke-linecap="round" stroke-linejoin="round"/>
</svg>
