<svg width="61" height="61" viewBox="0 0 61 61" fill="none" xmlns="http://www.w3.org/2000/svg">
<mask id="mask0_466_9145" style="mask-type:alpha" maskUnits="userSpaceOnUse" x="0" y="0" width="61" height="61">
<rect width="60" height="60" transform="matrix(-1 0 0 1 60.5 0.5)" fill="white"/>
</mask>
<g mask="url(#mask0_466_9145)">
<path d="M35.4897 58.8629C51.1072 56.1091 61.5353 41.2162 58.7815 25.5987C56.0277 9.98112 41.1348 -0.447008 25.5173 2.30679C9.89977 5.06058 -0.528352 19.9535 2.22544 35.571C4.97923 51.1886 19.8721 61.6167 35.4897 58.8629Z" fill="white"/>
<path d="M35.7082 60.017L34.9738 60.2356L34.2263 60.3912L33.4383 60.1709L32.6911 60.3026L31.9267 60.1555L31.1798 60.3642L30.4243 60.1657L29.659 60.6778L28.9077 60.4221L28.1687 60.1466L27.4177 60.0906L26.653 60.1316L25.8899 60.117L25.1665 59.8571L24.3529 60.0577L23.6355 59.7715L22.8976 59.5856L22.2348 59.1409L21.565 58.7583L20.819 58.62L20.0735 58.4641L19.4434 58.0085L18.6735 57.8975L18.0726 57.3994L17.2946 57.2796L16.5906 56.9946L16.0062 56.4885L15.3222 56.1651L14.6027 55.8917L14.0602 55.3382L13.3625 55.0202L12.8259 54.4726L12.2467 53.9897L11.6496 53.5305L11.0399 53.0845L10.5105 52.5451L9.70658 52.2969L9.26609 51.6597L8.67356 51.1762L8.17004 50.6063L7.80308 49.9199L7.49527 49.1963L6.84782 48.7489L6.14113 48.3299L5.74428 47.6759L5.62132 46.8453L5.24493 46.1928L4.61497 45.6907L4.31343 44.9902L3.9134 44.3452L3.61362 43.6484L3.49797 42.8697L3.1425 42.2047L2.80293 41.53L2.36275 40.8884L2.42558 40.0665L1.87594 39.4515L1.48482 38.7738L1.63289 37.9482L1.53354 37.1974L1.32946 36.4709L1.31 35.709L1.05807 34.988L0.958634 34.2409L0.754225 33.5042L0.520357 32.7628L0.425404 32.0057L0.604798 31.2391L0.768003 30.4827L0.780716 29.7305L0.875594 28.9821L0.561166 28.2043L0.481462 27.4317L0.603856 26.677L1.03489 25.972L0.968677 25.1926L1.47824 24.5228L1.40916 23.7355L1.5039 22.978L1.60657 22.2176L2.10863 21.5781L2.04864 20.7592L2.62758 20.1622L2.94357 19.4771L3.22897 18.7809L3.54176 18.0963L3.65545 17.3131L4.29851 16.7946L4.17238 15.8649L4.8468 15.3765L5.24777 14.7362L5.45627 13.9681L6.05776 13.4595L6.65625 12.961L7.11558 12.3665L7.58173 11.7773L8.10915 11.2401L8.34939 10.4459L8.70917 9.74058L9.50106 9.45212L9.84147 8.71395L10.6582 8.48122L11.1454 7.89275L11.7919 7.48953L12.3576 6.98987L12.8627 6.40337L13.5767 6.10189L14.071 5.48065L14.8919 5.36083L15.3592 4.67213L16.1286 4.49173L16.749 4.0484L17.532 3.9261L18.0699 3.29607L18.6941 2.82274L19.4956 2.76976L20.1806 2.43526L20.9708 2.3993L21.6713 2.11303L22.3794 1.8408L23.1131 1.65315L23.8345 1.41267L24.5597 1.17008L25.3158 1.07635L26.1111 1.25905L26.8498 1.11011L27.5913 0.960663L28.3208 0.59523L29.0996 0.921256L29.8447 0.596685L30.6053 0.473943L31.3689 0.460261L32.1262 0.602026L32.8868 0.6336L33.6299 0.847138L34.3452 1.21953L35.1186 1.13192L35.8817 1.15867L36.6285 1.28943L37.4207 1.23553L38.0515 1.83837L38.8786 1.69143L39.6324 1.83602L40.2714 2.32524L41.0112 2.50931L41.6581 2.93483L42.3535 3.22937L43.0231 3.57977L43.696 3.91969L44.3961 4.20754L45.139 4.42624L45.728 4.92099L46.5602 5.01728L47.1447 5.51943L47.7431 5.99272L48.1783 6.6832L48.9587 6.9063L49.4033 7.5625L50.1943 7.79986L50.7847 8.28337L51.0646 9.09471L51.8138 9.41093L52.4317 9.87233L52.684 10.6721L53.1553 11.2612L53.6768 11.8082L54.4376 12.1741L54.6446 12.9689L54.8783 13.7265L55.3233 14.3309L56.036 14.7716L56.3111 15.4907L56.9556 15.9984L57.32 16.6698L57.5742 17.3955L57.5511 18.2427L58.136 18.8104L58.0922 19.6443L58.5431 20.2782L58.9131 20.9505L58.876 21.7558L59.3526 22.4019L59.6483 23.1089L59.6387 23.8914L59.7821 24.6337L59.8908 25.3818L59.8388 26.1527L59.9765 26.8916L60.0333 27.6407L60.5353 28.3561L60.3655 29.1269L60.4365 29.8816L60.3431 30.6385L60.2792 31.3917L60.4905 32.1572L60.524 32.9215L60.1556 33.6488L60.3391 34.4332L60.355 35.206L59.8438 35.8896L59.5538 36.5995L59.5211 37.363L59.3769 38.1047L59.1625 38.8287L59.0102 39.5722L58.8826 40.3285L58.7626 41.0949L58.1744 41.6807L58.1605 42.4973L57.7727 43.158L57.1738 43.7101L57.1158 44.5304L56.7982 45.225L56.1906 45.7511L56.0051 46.5269L55.5421 47.1341L54.9932 47.6782L54.4146 48.1918L54.113 48.9107L53.8549 49.6783L53.1516 50.0821L52.5649 50.5729L52.0932 51.166L51.5192 51.6617L51.1223 52.3398L50.5453 52.8349L50.0469 53.4202L49.3881 53.8182L48.606 54.0478L47.9969 54.4884L47.5038 55.0951L46.7677 55.3525L46.1793 55.8294L45.4947 56.1517L44.9532 56.7256L44.3566 57.2201L43.5279 57.2584L42.9627 57.8335L42.3319 58.2922L41.5251 58.3315L40.8705 58.7471L40.0098 58.5789L39.3101 58.8551L38.7349 59.5834L37.9002 59.4065L37.1886 59.6823L36.4466 59.8369L35.709 60.019L35.7082 60.017ZM25.8763 4.25754L25.1588 4.49329L24.4406 4.70389L23.6385 4.58724L22.9305 4.85394L22.1513 4.89164L21.4945 5.30694L20.714 5.37711L20.2139 6.14417L19.439 6.23756L18.6609 6.35459L17.9917 6.70829L17.3908 7.18264L16.7882 7.64081L16.0775 7.92155L15.6467 8.628L14.9649 8.95387L14.3638 9.39784L13.6176 9.66431L12.9262 10.0172L12.4267 10.5961L11.9471 11.1883L11.2711 11.5799L10.8889 12.2602L10.2263 12.6802L9.90792 13.402L9.48638 14.0276L8.89685 14.5249L8.5048 15.1721L8.19887 15.8727L7.64896 16.4136L7.37208 17.1248L6.88704 17.715L6.50292 18.3656L6.18025 19.0482L5.91128 19.7544L5.5663 20.427L5.63203 21.2578L5.23902 21.9099L5.08782 22.647L4.8574 23.3574L4.4913 24.0352L4.09469 24.7169L4.16459 25.5026L4.34025 26.2927L4.17333 27.0197L3.72205 27.7203L3.61808 28.4692L3.84893 29.2371L3.73738 29.9826L3.77932 30.7325L3.749 31.4827L3.55805 32.2462L3.6729 32.9954L3.80914 33.739L4.08953 34.459L3.882 35.2554L4.35007 35.9324L4.68818 36.6217L4.52233 37.4339L4.64799 38.1819L4.91547 38.8892L5.04345 39.6441L5.43139 40.3059L5.71124 41.0062L6.12407 41.6467L6.59659 42.2511L6.97746 42.8936L7.1528 43.6486L7.38324 44.3851L7.77992 45.0278L8.14259 45.694L8.87347 46.1003L9.43834 46.6081L9.87223 47.212L10.1012 47.9945L10.7449 48.4265L10.9876 49.2286L11.688 49.5971L12.2932 50.0486L12.9174 50.4723L13.2961 51.1819L14.0774 51.4078L14.466 52.1336L15.0521 52.6116L15.6809 53.0304L16.3153 53.4409L17.0826 53.6253L17.5741 54.2875L18.4978 54.1466L19.0182 54.7814L19.699 55.1016L20.4837 55.1718L21.1041 55.6405L21.7481 56.0786L22.4658 56.3209L23.1929 56.5332L23.9104 56.7846L24.7245 56.6216L25.4996 56.5608L26.1721 57.0504L26.9566 56.8717L27.6558 57.3419L28.4183 57.2907L29.1641 57.4425L29.9203 57.4283L30.6739 57.2683L31.4295 57.421L32.1682 57.1456L32.945 57.4269L33.6569 57.0015L34.4312 57.1234L35.1589 56.906L35.9458 57.003L36.6085 56.5089L37.2886 56.1526L38.0769 56.1976L38.7728 55.9103L39.5585 55.8843L40.2457 55.5681L40.921 55.2302L41.6136 54.9369L42.2655 54.558L42.8954 54.1438L43.5762 53.8291L44.3832 53.7179L45.0027 53.2799L45.5977 52.8095L46.04 52.1329L46.8661 51.9847L47.2733 51.2857L47.7733 50.7199L48.3153 50.209L48.9366 49.7816L49.4555 49.244L50.0786 48.8039L50.7979 48.437L51.1407 47.7354L51.5353 47.0877L51.9792 46.4827L52.234 45.7461L53.0136 45.3692L53.1133 44.5423L53.4278 43.8629L54.0244 43.3417L54.3057 42.6429L54.7833 42.0414L55.1 41.3584L55.4372 40.6831L55.7281 39.9867L55.9257 39.2568L56.0065 38.4933L56.3509 37.8131L56.2054 37.0008L56.4804 36.3016L56.6858 35.5825L57.1207 34.8973L56.9421 34.1113L57.2669 33.395L57.0105 32.6195L57.0301 31.8752L57.4611 31.1405L57.1694 30.3876L57.033 29.6456L57.3544 28.8807L57.3315 28.1263L57.2033 27.3824L56.7387 26.6898L56.9279 25.902L57.0323 25.1138L56.8402 24.3801L56.3059 23.7379L56.2357 22.9797L55.72 22.3573L55.477 21.6557L55.3106 20.924L55.3832 20.085L54.8008 19.5194L54.8026 18.6866L54.2866 18.102L53.818 17.5029L53.6848 16.71L53.0559 16.2142L52.5594 15.6463L52.2882 14.9225L51.8528 14.3098L51.4122 13.6991L51.0629 13.007L50.535 12.463L50.0378 11.8916L49.1976 11.6647L48.8069 10.9913L48.2206 10.5203L47.7154 9.95506L47.1622 9.4408L46.418 9.1776L45.7629 8.80961L45.3113 8.14071L44.5316 7.9677L43.8287 7.69247L43.368 6.98703L42.7683 6.50444L42.0308 6.29138L41.329 6.01447L40.6411 5.70835L39.9147 5.50028L39.1694 5.35752L38.4146 5.26517L37.7929 4.73109L36.9908 4.83037L36.2841 4.57778L35.6099 4.13068L34.8137 4.31579L34.0684 4.25807L33.3568 3.90737L32.5882 4.08396L31.8471 3.97783L31.1034 3.80507L30.351 3.63056L29.6019 3.84073L28.8695 4.15462L28.1033 3.93489L27.3433 3.90064L26.6044 4.05878L25.8752 4.25737L25.8763 4.25754Z" fill="#DDDDDD"/>
<path d="M28.0089 22.6998L28.2469 24.0501L23.7547 24.8422L23.8669 25.4784L27.0868 24.9106L27.6179 27.9227L21.1262 29.0674L21.2132 29.5608L27.9905 28.3657L28.2309 29.729L19.61 31.2491L19.0628 28.1461L25.5415 27.0037L25.4637 26.5623L18.985 27.7046L18.7515 26.3803L22.0233 25.8034L21.9111 25.1673L17.4448 25.9548L17.2067 24.6045L28.0089 22.6998ZM17.2864 22.9305C19.5944 22.4298 20.5938 21.7583 20.8807 21.1454L17.6997 21.7063L17.4571 20.3301L20.9236 19.7188L20.7679 18.836L22.6375 18.5063L22.7932 19.3892L26.2727 18.7756L26.5154 20.1519L23.315 20.7162C23.7877 21.1951 24.963 21.4832 27.3355 21.1586L27.0329 22.6309C24.7619 22.9243 23.1803 22.6476 22.2808 21.9494C21.6743 22.9131 20.2957 23.7118 18.0354 24.2174L17.2864 22.9305ZM32.5519 18.6457C32.8048 20.0804 33.7555 21.3719 35.7942 21.6216L35.0837 23.2863C33.7434 23.0876 32.7576 22.4314 32.0845 21.4992C31.7532 22.6955 31.0108 23.7234 29.7666 24.4113L28.4906 23.0968C30.444 22.1031 30.9104 20.4211 30.6357 18.8631L30.4411 17.7595L32.3367 17.4253L32.5519 18.6457ZM31.1005 26.3582L30.8418 24.8911L39.0733 23.4396L39.8333 27.7501L37.9767 28.0775L37.4753 25.2341L31.1005 26.3582ZM34.4151 20.178L34.1473 18.6589L36.2506 18.2881L35.8751 16.1588L37.7317 15.8314L38.9863 22.9463L37.1296 23.2736L36.5184 19.8071L34.4151 20.178ZM28.5166 33.7031L29.3248 38.2862L31.0126 37.9886L31.285 39.5336L29.5972 39.8312L30.6182 45.6218L28.7746 45.9469L26.673 34.0282L28.5166 33.7031ZM19.5676 38.601L19.3066 37.1209L21.8903 36.6654L21.6179 35.1204L23.4875 34.7907L23.7599 36.3357L26.2787 35.8916L26.5397 37.3717L19.5676 38.601ZM20.6027 41.9661C20.2933 40.287 21.4005 38.8602 23.1868 38.5519C24.9254 38.2386 26.4668 39.1985 26.7698 40.8786C27.0598 42.5611 25.9385 43.9838 24.1987 44.2905C22.4135 44.6053 20.8862 43.6497 20.6027 41.9661ZM22.3944 41.6501C22.536 42.5288 23.166 42.913 23.9308 42.7715C24.672 42.6475 25.1261 42.0721 24.9781 41.1946C24.8205 40.3388 24.1936 39.934 23.4524 40.058C22.6875 40.1995 22.2304 40.7955 22.3944 41.6501ZM40.4841 31.5929L42.5857 43.5116L40.6901 43.8458L38.5886 31.9272L40.4841 31.5929ZM31.9124 41.8193C34.6922 39.8566 35.6532 37.8665 35.4661 35.2488L31.5711 35.9356L31.3147 34.4815L37.1182 33.4582C37.7596 37.1336 37.1253 40.3312 33.1471 43.1277L31.9124 41.8193Z" fill="#AAAAAA"/>
</g>
</svg>
