<svg width="320" height="320" viewBox="0 0 320 320" fill="none" xmlns="http://www.w3.org/2000/svg">
    <mask id="pd0sr1afca" style="mask-type:alpha" maskUnits="userSpaceOnUse" x="0" y="0" width="320" height="320">
        <path transform="matrix(-1 0 0 1 320 0)" fill="#fff" d="M0 0h320v320H0z"/>
    </mask>
    <g mask="url(#pd0sr1afca)">
        <path d="M186.592 310.817c83.294-14.687 138.91-94.116 124.223-177.409C296.128 50.114 216.7-5.502 133.406 9.184 50.113 23.871-5.504 103.3 9.183 186.594c14.687 83.293 94.116 138.91 177.409 124.223z" fill="#fff"/>
        <path d="m187.757 316.972-3.917 1.166-3.986.83-4.203-1.175-3.985.703-4.077-.785-3.984 1.113-4.029-1.059-4.082 2.732-4.007-1.364-3.941-1.469-4.005-.299-4.078.219-4.07-.079-3.859-1.386-4.339 1.07-3.826-1.526-3.935-.992-3.535-2.371-3.573-2.041-3.978-.737-3.976-.832-3.361-2.43-4.106-.592-3.205-2.656-4.15-.639-3.754-1.52-3.117-2.7-3.647-1.724-3.838-1.458-2.893-2.952-3.721-1.696-2.862-2.921-3.09-2.575-3.184-2.45-3.252-2.378-2.823-2.877-4.287-1.324-2.35-3.398-3.16-2.579-2.685-3.039-1.957-3.661-1.642-3.859-3.453-2.386-3.77-2.235-2.116-3.488-.655-4.43-2.008-3.48-3.36-2.678-1.608-3.736-2.133-3.44-1.6-3.716-.616-4.153-1.896-3.547-1.81-3.598-2.348-3.422.335-4.384-2.932-3.279-2.086-3.615.79-4.403-.53-4.004-1.088-3.875-.104-4.064-1.344-3.845-.53-3.985-1.09-3.928-1.248-3.955-.506-4.037.957-4.089.87-4.034.068-4.012.506-3.991-1.677-4.148-.425-4.121.653-4.025 2.299-3.76-.354-4.157 2.718-3.572-.368-4.199.505-4.04.548-4.056 2.677-3.41-.32-4.368 3.088-3.184 1.685-3.654 1.522-3.713 1.668-3.65.607-4.178 3.43-2.765-.673-4.959 3.597-2.605 2.138-3.415 1.112-4.096 3.208-2.712 3.192-2.659 2.45-3.17 2.486-3.143 2.813-2.866 1.281-4.235 1.92-3.762 4.223-1.538 1.815-3.937 4.356-1.241 2.599-3.139 3.447-2.15 3.017-2.665 2.694-3.128 3.808-1.608 2.636-3.313 4.378-.64L79.23 21.8l4.104-.962 3.308-2.364 4.176-.652 2.869-3.36 3.329-2.525 4.275-.283 3.653-1.783 4.214-.192 3.736-1.527 3.777-1.452 3.913-1 3.848-1.283 3.867-1.294 4.033-.5 4.241.974 3.94-.794 3.955-.797 3.89-1.949 4.154 1.739 3.974-1.731 4.056-.655 4.073-.073 4.039.756 4.056.169 3.964 1.139 3.815 1.986 4.124-.468 4.07.143 3.983.697 4.225-.287 3.364 3.215 4.412-.784 4.02.772 3.408 2.609 3.945.982 3.451 2.269 3.708 1.57 3.572 1.87 3.589 1.813 3.733 1.535 3.963 1.166 3.141 2.639 4.438.513 3.117 2.678 3.192 2.525 2.321 3.682 4.162 1.19 2.372 3.5 4.218 1.266 3.149 2.578 1.493 4.328 3.995 1.686 3.296 2.461 1.345 4.265 2.514 3.142 2.781 2.918 4.058 1.95 1.104 4.24 1.247 4.04 2.373 3.224 3.801 2.35 1.467 3.836 3.438 2.707 1.943 3.581 1.356 3.87-.124 4.519 3.12 3.028-.234 4.447 2.405 3.381 1.973 3.585-.198 4.295 2.542 3.446 1.577 3.771-.051 4.173.765 3.959.58 3.99-.277 4.111.734 3.941.303 3.996 2.677 3.815-.906 4.111.379 4.025-.498 4.037-.341 4.017 1.127 4.083.179 4.076-1.965 3.879.979 4.183.084 4.122-2.726 3.646-1.546 3.786-.175 4.072-.769 3.955-1.144 3.862-.812 3.965-.68 4.034-.64 4.087-3.137 3.124-.074 4.356-2.069 3.524-3.194 2.944-.309 4.375-1.694 3.705-3.241 2.806-.989 4.137-2.469 3.239-2.928 2.901-3.086 2.74-1.608 3.834-1.377 4.094-3.751 2.153-3.128 2.618-2.516 3.163-3.062 2.643-2.116 3.617-3.078 2.64-2.658 3.122-3.514 2.123-4.171 1.224-3.248 2.35-2.63 3.236-3.926 1.373-3.138 2.543-3.651 1.719-2.888 3.061-3.183 2.637-4.419.205-3.014 3.067-3.365 2.446-4.303.21-3.491 2.217-4.59-.898-3.732 1.473-3.068 3.885-4.452-.944-3.794 1.471-3.958.825-3.934.971-.004-.011zM135.32 19.588l-3.826 1.258-3.831 1.123-4.278-.622-3.776 1.422-4.155.201-3.504 2.215-4.162.374-2.667 4.091-4.133.498-4.15.625-3.569 1.886-3.205 2.53-3.214 2.444-3.79 1.497-2.298 3.767-3.636 1.739-3.206 2.367-3.98 1.422-3.687 1.881-2.664 3.088-2.558 3.159-3.605 2.088-2.039 3.628-3.534 2.24-1.698 3.85-2.248 3.337-3.144 2.652-2.09 3.451-1.633 3.737-2.932 2.884-1.477 3.794-2.587 3.148-2.049 3.47-1.72 3.64-1.435 3.766-1.84 3.588.35 4.43-2.095 3.479-.807 3.931-1.229 3.788-1.952 3.615-2.116 3.636.373 4.19.937 4.214-.89 3.878-2.407 3.736-.554 3.994 1.23 4.096-.594 3.976.224 3.999-.162 4.001-1.019 4.072.613 3.996.727 3.966 1.495 3.84-1.107 4.248 2.497 3.61 1.803 3.676-.885 4.332.67 3.99 1.427 3.771.683 4.027 2.069 3.529 1.492 3.735 2.202 3.416 2.52 3.224 2.031 3.426.935 4.027 1.23 3.928 2.115 3.428 1.934 3.553 3.898 2.167 3.013 2.708 2.314 3.221 1.221 4.173 3.433 2.304 1.295 4.278 3.735 1.965 3.228 2.408 3.329 2.26 2.02 3.785 4.167 1.204 2.072 3.871 3.126 2.55 3.354 2.234 3.383 2.189 4.092.983 2.622 3.532 4.926-.751 2.776 3.385 3.631 1.708 4.185.374 3.308 2.5 3.435 2.337 3.828 1.291 3.878 1.133 3.826 1.341 4.342-.869 4.134-.325 3.587 2.611 4.184-.953 3.729 2.508 4.066-.273 3.978.81 4.033-.076 4.019-.853 4.03.814 3.94-1.469 4.143 1.5 3.797-2.268 4.129.65 3.882-1.16 4.196.517 3.535-2.635 3.627-1.9 4.204.24 3.712-1.532 4.19-.139 3.665-1.686 3.601-1.802 3.695-1.565 3.476-2.021 3.36-2.209 3.631-1.678 4.304-.593 3.303-2.336 3.174-2.509 2.359-3.608 4.406-.791 2.171-3.728 2.667-3.017 2.891-2.725 3.313-2.279 2.768-2.868 3.323-2.347 3.836-1.957 1.829-3.742 2.104-3.454 2.367-3.227 1.359-3.928 4.158-2.01.532-4.411 1.677-3.623 3.182-2.78 1.501-3.727 2.547-3.207 1.689-3.643 1.798-3.602 1.551-3.714 1.054-3.893.432-4.072 1.836-3.628-.775-4.332 1.466-3.729 1.095-3.835 2.32-3.655-.953-4.191 1.733-3.821-1.368-4.136.105-3.97 2.298-3.918-1.555-4.015-.728-3.958 1.714-4.079-.122-4.024-.684-3.967-2.477-3.694 1.009-4.201.557-4.204-1.025-3.913-2.85-3.425-.374-4.044-2.75-3.319-1.296-3.743-.888-3.902.387-4.475-3.106-3.016.01-4.441-2.752-3.118-2.5-3.196-.71-4.229-3.354-2.644-2.648-3.028-1.446-3.86-2.323-3.268-2.35-3.258-1.862-3.69-2.816-2.902-2.651-3.048-4.481-1.21-2.084-3.591-3.127-2.512-2.695-3.015-2.95-2.742-3.969-1.404-3.494-1.963-2.409-3.567-4.158-.923-3.749-1.468-2.457-3.762-3.198-2.574-3.934-1.136-3.743-1.477-3.668-1.633-3.874-1.11-3.975-.761-4.026-.493-3.315-2.848-4.278.53-3.77-1.348-3.595-2.384-4.246.987-3.976-.308-3.795-1.87-4.099.942-3.953-.566-3.966-.922-4.013-.93-3.995 1.12-3.906 1.675-4.087-1.172-4.053-.183-3.941.843-3.889 1.06h.006z" fill="#F97173"/>
        <path d="M136.139 132.457a6.227 6.227 0 1 0-2.163-12.265 6.227 6.227 0 0 0 2.163 12.265zM178.184 125.043a6.227 6.227 0 1 0-2.163-12.265 6.227 6.227 0 0 0 2.163 12.265z" fill="#F97173"/>
        <path d="M175.024 137.761c-.411.734-.518.436-1.16 1.272-.291.38-.471.983-.902 1.455-.348.38-.758.799-1.2 1.21-.389.362-.981.554-1.443.92-.423.335-.768.832-1.253 1.156-.452.301-.964.574-1.47.855-.478.264-1.055.381-1.582.619-.499.225-1.013.461-1.557.653-.516.181-1.139.036-1.697.181-.557.146-1.016.489-1.583.589-.568.1-1.078.452-1.613.501-.566.053-1.138-.016-1.676-.009-.568.006-1.109-.341-1.645-.382a18.778 18.778 0 0 1-1.632-.186c-.564-.09-1.14-.002-1.658-.132-.557-.139-1.006-.543-1.508-.715-.55-.189-1.125-.209-1.603-.42a19.54 19.54 0 0 1-1.482-.733c-.552-.3-1.092-.489-1.483-.751-.861-.576-.843-.309-1.453-.869M96.004 129.09c-.256-.521-2.23-.208-2.47-.721-.242-.514 1.021-1.743.791-2.26-.23-.518-.943-.84-1.164-1.361-.22-.521-1.374-.69-1.584-1.216-.21-.527-.643-1.013-.842-1.541-.199-.529 1.074-1.625.888-2.16-.186-.534-.132-1.157-.305-1.696-.173-.539-.001-1.184-.16-1.726-.158-.542-.618-1.001-.764-1.547-.145-.546-.405-1.067-.534-1.618-.128-.551.11-1.18-.004-1.734-.113-.554-2.367-.738-2.462-1.295-.094-.557 1.072-1.349.997-1.91-.076-.56-.942-1.063-.998-1.625-.056-.562 1.525-1.279 1.49-1.842-.034-.564-1.064-1.095-1.078-1.66-.013-.566 1.22-1.137 1.23-1.703.01-.565-1.708-1.21-1.674-1.774.034-.564 1.558-1.024 1.617-1.587.06-.563-1.893-1.41-1.808-1.97.086-.559 1.85-.862 1.96-1.418.11-.556.533-1.03.67-1.578.136-.55-1.374-1.575-1.21-2.117.165-.542.273-1.172.463-1.706.19-.535.448-1.113.665-1.639.216-.525 2.192-.29 2.434-.803.243-.512.24-1.123.507-1.624.266-.5-.202-1.423.09-1.91.291-.489 1.6-.33 1.914-.802.314-.472-.88-2.014-.546-2.472.334-.459.825-.862 1.181-1.305.357-.442 1.37-.369 1.745-.795.376-.426 1.268-.374 1.661-.784.394-.41-.252-1.878.156-2.271.408-.393 1.473-.119 1.896-.495.423-.376.328-1.403.766-1.762s1.319-.21 1.768-.552c.449-.342 1.202-.3 1.661-.626.46-.326 1.215-.226 1.684-.534.468-.307.928-.64 1.406-.929.506-.306.847-.801 1.329-1.074.52-.293.576-1.378 1.064-1.63.536-.279 1.493.374 1.98.142.56-.267 1.165-.247 1.645-.457.603-.263.824-1.163 1.275-1.338 1.02-.398.549-.859 1.312-1.252.459-.359.734-.869 1.199-1.207.465-.339 1.286-.21 1.764-.533.477-.323 1.574.312 2.059.003.486-.309.061-2.119.558-2.41.497-.291 1.315-.06 1.822-.335.508-.276.799-1 1.315-1.26.516-.26 1.309.02 1.832-.223.523-.243 1.353.214 1.883-.01.53-.226.457-1.96.996-2.17.539-.208 1.728 1.327 2.273 1.135.546-.192.557-1.97 1.108-2.145.55-.176 1.153-.265 1.708-.425.556-.16 1.387.67 1.947.526.56-.144 1.101-.341 1.663-.47.563-.128 1.224.258 1.79.149.566-.11 1.13-.147 1.698-.241.569-.094.9-1.75 1.471-1.831.571-.081 1.277.794 1.851.728.574-.065 1.116-.45 1.693-.502.576-.05 1.209.696 1.786.658.576-.037 1.1-1.031 1.677-1.055.577-.023 1.186 1.028 1.761 1.017.576-.011 1.149-1.867 1.725-1.866.575 0 1.146 1.473 1.722 1.487.576.014 1.196-.912 1.771-.884.574.028 1.086 1.342 1.658 1.38.573.038 1.301-1.696 1.873-1.646.573.05.964 2.12 1.534 2.182.571.062 1.416-2.066 1.984-1.994.569.072 1.149.354 1.716.436.566.082 1.014 1.123 1.578 1.215.565.092 1.097.492 1.658.595.56.102 1.04.728 1.597.842.556.113 1.207-.112 1.761.01.554.122 1.259-.255 1.809-.123.58.138.898 1.23 1.441 1.369.581.15 1.376-.615 1.915-.465.583.161 1.126.369 1.657.526.589.174 1.505-.794 2.023-.63.601.189.897 1.192 1.397 1.362.633.215 1.331.022 1.789.19 1.051.386 1.041-.184 1.845.144.803.328.163 1.285 1.154 1.76.44.212 1.46-.469 2.044-.16.469.246.14 2.067.68 2.377.473.271.795.81 1.313 1.13.47.29 1.716-.591 2.213-.26.466.31.521 1.253 1.003 1.601.482.348.329 1.424.796 1.784.467.36 2.158-.866 2.608-.49.45.378.16 1.578.594 1.971.433.394 1.797-.201 2.212.21.414.41-.393 1.993.004 2.42.396.427.547 1.004.921 1.45.374.448 2.029-.148 2.381.315.352.463-.378 1.695-.052 2.178.325.483.279 1.14.576 1.639.298.5 1.066.683 1.335 1.197.269.515 1.076.76 1.31 1.293.235.532.032 1.233.234 1.779.202.546.495 1.04.66 1.6.165.56-.012 1.177.116 1.748.128.57.62 1.04.71 1.617.09.577.671 1.093.722 1.675.052.582-.995 1.207-.982 1.792.014.585.287 1.124.267 1.71-.021.584 1.161 1.247 1.104 1.83-.058.585.009 1.217-.081 1.797-.09.58-.108 1.207-.23 1.782-.122.576-2.299.64-2.449 1.21" stroke="#F97173" stroke-width="6" stroke-linecap="round" stroke-linejoin="round"/>
        <path d="M123.02 79.929c.034.86-.172.668.072 1.728.108.472.375 1.004.588 1.626.169.495.474.99.729 1.558.219.49.159 1.171.457 1.702.266.476.65.935.984 1.434.306.457.717.88 1.086 1.35.341.432.87.736 1.27 1.175.374.41.55 1.042.981 1.452.402.383.98.606 1.434.986.427.357.951.61 1.428.96.448.33.7.98 1.193 1.303.467.305 1.065.442 1.575.738.484.28 1.057.423 1.581.694.524.272 1.05.416 1.585.662.535.247.875.831 1.417 1.054.543.224 1.218-.009 1.771.193.552.202 1.056.388 1.615.569.559.181.963.72 1.526.884.563.163 1.154.082 1.722.229.568.146 1.126.157 1.697.286.571.128 1.111.207 1.685.321.575.114 1.073.432 1.65.532.578.099 1.126.163 1.704.249M118.667 91.068c-.661.585-.613.289-1.4 1.089-.348.355-.823.728-1.276 1.225-.362.397-.589.989-.999 1.472-.36.422-.554 1.018-.941 1.503-.351.44-.986.691-1.351 1.182-.341.458-.562 1.023-.907 1.52-.326.471-.567 1.015-.893 1.521-.326.505-.756.896-1.064 1.413-.309.516-.36 1.132-.646 1.656-.285.524-.823.883-1.087 1.417s-.356 1.124-.599 1.666c-.243.542-.59 1.018-.81 1.57-.219.552-.211 1.167-.406 1.726-.195.559-.442 1.08-.612 1.649-.17.568-.239 1.14-.38 1.715-.142.575-.375 1.109-.487 1.691-.113.582-.428 1.117-.509 1.703-.08.586.023 1.184-.025 1.774-.049.59-.043 1.166-.06 1.761M182.103 96.87c-.858-.09-.587-.295-1.668-.488-.479-.086-1.055-.131-1.698-.272-.514-.113-1.106-.11-1.707-.267-.526-.136-1.02-.495-1.602-.669-.529-.155-1.173-.022-1.741-.212-.528-.175-1.118-.255-1.673-.46-.525-.195-.934-.734-1.48-.959-.547-.224-1.119-.282-1.653-.525-.534-.242-.904-.743-1.428-1.005-.524-.262-1.175-.213-1.687-.495-.512-.282-.872-.774-1.372-1.076-.499-.301-1.187-.268-1.672-.59-.485-.321-.688-1.018-1.158-1.36a37.88 37.88 0 0 1-1.364-1.041c-.454-.363-.899-.7-1.334-1.083-.436-.383-.795-.813-1.211-1.217-.416-.404-.813-.79-1.211-1.214-.397-.423-1.052-.593-1.426-1.038-.374-.445-.686-.925-1.037-1.387-.352-.463-.724-.898-1.05-1.378a34.453 34.453 0 0 1-.931-1.462" stroke="#F97173" stroke-width="6" stroke-linecap="round" stroke-linejoin="round"/>
        <path d="M140.998 67.025s-7.522 4.656-5.883 10.845c1.259 4.75 4.025 6.414 12.78 9.138 8.755 2.722 22.183-7.445 27.926-18.616-6.862-4.577-19.208-13.445-34.822-1.365l-.001-.002z" fill="#FDB9BA"/>
        <path d="M138.588 82.54c.669.562.517.37 1.431.964.418.27.975.447 1.554.763.47.26.988.476 1.555.736.502.23.992.509 1.562.721.526.197 1.07.32 1.648.489.544.156.955.898 1.542 1.016.586.118 1.182-.044 1.774.026.592.07 1.14.29 1.736.307.596.016 1.132-.529 1.726-.567.594-.038 1.123-.04 1.709-.133.587-.094 1.15-.02 1.727-.167.577-.147 1.155-.142 1.717-.34.562-.2 1.131-.292 1.675-.539.544-.246 1.135-.345 1.66-.635.495-.275.671-1.113 1.173-1.442.473-.31 1.096-.422 1.572-.786.45-.344.865-.754 1.317-1.145.43-.371 1.098-.51 1.528-.927.408-.395.892-.758 1.299-1.196.406-.438.486-1.117.874-1.571.387-.454.532-1.042.899-1.514s.874-.776 1.221-1.26c.347-.484.973-.732 1.303-1.228.329-.497.456-1.085.773-1.59.316-.503.852-.84 1.151-1.353.299-.513.068-1.29.354-1.813.285-.522.832-.941 1.105-1.47-.198-.841-.734-.177-1.639-.789-.407-.275-.76-.792-1.325-1.129-.455-.272-1.126-.24-1.677-.532-.482-.256-.779-.943-1.328-1.2-.501-.235-.988-.588-1.543-.813-.519-.212-1.186-.087-1.747-.283-.532-.187-1.156-.084-1.723-.247-.567-.162-.948-.88-1.521-1.01s-1.166-.031-1.745-.127c-.579-.095-1.094-.54-1.676-.6-.582-.06-1.174.157-1.76.133-.585-.024-1.146.24-1.731.255-.584.015-1.113.268-1.697.322-.583.054-1.132-.004-1.71.09-.579.095-1.106.213-1.678.345-.572.133-1.148.085-1.711.255-.563.17-1.255-.11-1.806.095-.551.205-1.039.536-1.576.775-.537.24-.769 1.035-1.289 1.306-.52.272-1.096.356-1.601.657-.505.3-.816.823-1.305 1.15-.488.327-1.015.515-1.485.868-.47.353-1.11.433-1.563.807-.453.373-1.014.586-1.452.98-.437.394-.736.9-1.156 1.312-.421.413-.512 1.096-.918 1.524" stroke="#F97173" stroke-width="6" stroke-linecap="round" stroke-linejoin="round"/>
        <path d="M156.819 73.444c.012.049-.814.245-1.808.716-.455.216-.98.482-1.605.735-.506.205-.985.607-1.586.818-.531.186-1.093.385-1.686.564-.548.165-1.1.411-1.693.559-.56.14-1.206-.034-1.8.082-.594.117-1.116.434-1.712.517-.596.084-1.181.03-1.777.077-.597.046-1.177-.11-1.773-.103-.595.008-1.183.338-1.778.304-.596-.034-1.175-.159-1.765-.24-.59-.082-1.219.036-1.801-.096-.581-.133-1.11-.468-1.677-.654s-1.078-.485-1.626-.727c-.548-.242-1.099-.437-1.621-.732-.522-.296-.836-.855-1.326-1.203M131.878 172.282c-.584-.079-1.096-.672-1.674-.765-.578-.094-1.176-.108-1.751-.216a60.066 60.066 0 0 1-1.727-.356c-.572-.124-1.244.124-1.812-.019-.567-.142-1.158-.273-1.722-.432-.565-.159-.926-1.017-1.482-1.195-.556-.178-1.067-.48-1.619-.678-.551-.198-1.173-.194-1.717-.412-.543-.217-.998-.63-1.533-.869-.535-.238-1.422.251-1.946-.009-.523-.26-.642-1.31-1.155-1.591-.514-.282-1.12-.386-1.62-.692-.495-.302-.95-.637-1.422-.951-.473-.314-.887-.719-1.344-1.057-.457-.338-1.132-.405-1.572-.766-.439-.361-1.09-.513-1.509-.901-.419-.388-.644-.996-1.042-1.412-.398-.415-.677-.928-1.048-1.369-.372-.442-.643-.936-.985-1.402-.343-.467-.571-.974-.885-1.463-.313-.489-.61-.942-.896-1.452-.285-.509-.896-.81-1.151-1.335-.255-.525-.763-.917-.993-1.456-.23-.539.306-1.348.102-1.895-.204-.548-.916-.88-1.097-1.436-.18-.555-.345-1.09-.505-1.653-.16-.563-.29-1.104-.433-1.671-.144-.568-.208-1.123-.334-1.696-.127-.572.012-1.161-.097-1.737-.11-.575-.65-1.04-.745-1.616-.096-.577.2-1.185.116-1.763-.085-.578.013-1.146-.06-1.726-.073-.58-.372-1.099-.435-1.679-.063-.58-.414-1.104-.47-1.685-.055-.582.26-1.168.213-1.749-.048-.581-.576-1.1-.618-1.682M202.111 94.577c.226.475-.022 1.088.15 1.608s.925.814 1.049 1.34c.124.526-.202 1.122-.111 1.648.091.526.48 1.012.546 1.533.069.555.906 1.015.954 1.525.055.577-.78 1.2-.74 1.687.055.644 1.134.912 1.195 1.322.222.383-.205 1.148.203 1.718.299.419.558.943.927 1.459.311.437 1.195.528 1.542 1.032.311.452.754.87 1.08 1.376.302.465-.419 1.595-.114 2.105.286.48 1.081.677 1.364 1.196.284.52.442 1.052.703 1.579.262.528.022 1.234.258 1.77.235.536.743.906.953 1.453.21.546.363 1.069.545 1.624.182.555.035 1.159.189 1.721s.123 1.108.246 1.679c.122.572 1.046.949 1.136 1.525.089.575.411 1.111.47 1.69s.077 1.159.102 1.742c.024.583.505 1.166.496 1.751-.007.569-1.015 1.113-1.056 1.682-.041.569.562 1.21.487 1.776-.074.565-.247 1.138-.358 1.699-.11.562-.086 1.174-.229 1.73-.143.556-1.103.87-1.279 1.416-.176.546-.507 1.002-.714 1.537-.207.536.351 1.379.112 1.901s-1.216.667-1.484 1.174c-.269.507-.006 1.289-.302 1.784-.297.494-.696.909-1.016 1.389-.321.479-.326 1.173-.671 1.635-.345.462-.844.801-1.209 1.247-.366.446-.395 1.183-.781 1.614-.386.43-1.727-.058-2.13.354-.403.411.001 1.616-.418 2.012-.42.395-1.136.454-1.57.836-.433.382-.769.856-1.215 1.221-.447.364-1.395.054-1.854.403-.459.349-.546 1.155-1.015 1.491-.47.335-1.075.43-1.555.751-.48.322-.945.615-1.433.923-.488.307-.911.675-1.407.968-.497.293-.985.552-1.488.834-.502.282-.914.688-1.422.958-.509.269-.889.753-1.405 1.013-.517.259-.894.774-1.414 1.022-.52.248-1.566-.691-2.092-.453-.526.237-.644 1.341-1.176 1.568-.532.227-1.354-.327-1.887-.11-.806.316-.128 1.438-1.195 1.793-.459.151-1.189-.202-1.827-.003-.5.154-1.193-.146-1.796.031-.517.152-1.006.531-1.598.694-.528.146-1.211-.185-1.797-.033-.535.139-1.091.263-1.673.406-.542.135-1.035.524-1.614.659-.547.128-1.01.677-1.591.805-.58.128-1.158.034-1.736.156-.578.121-1.103.298-1.68.411-.577.114-1.001.874-1.579.98-.578.105-1.153.091-1.73.191-.578.1-1.196-.187-1.775-.094-.578.092-1.231-.49-1.809-.405-.579.084-1.061.666-1.641.745-.579.079-1.162-.054-1.741.017-.552.068-1.062.493-1.615.553-.553.061-1.083.389-1.635.441-.553.053-1.164-.513-1.718-.468-.554.045-1.137-.367-1.691-.331-.553.037-1.037 1.278-1.592 1.307-.554.029-1.154-.883-1.71-.863-.557.02-1.106.091-1.66.103-.554.011-1.104.529-1.66.531" stroke="#F97173" stroke-width="6" stroke-linecap="round" stroke-linejoin="round"/>
        <g filter="url(#v01rdmxn2b)">
            <ellipse cx="9.846" cy="5.806" rx="9.846" ry="5.806" transform="rotate(-10 850.563 -598.045) skewX(.036)" fill="#FDB9BA"/>
        </g>
        <g filter="url(#ho9kgq3fnc)">
            <ellipse cx="9.846" cy="5.806" rx="9.846" ry="5.806" transform="rotate(-10 818.565 -963.808) skewX(.036)" fill="#FDB9BA"/>
        </g>
        <path d="M71.062 167.516c-.446 1.979-3.057 2.44-4.153.732l-3.133-4.879a2.286 2.286 0 0 0-.936-.827l-5.85-2.8a2.285 2.285 0 0 1-.647-3.661l4.54-4.632c.298-.304.505-.684.598-1.098l1.275-5.656c.446-1.979 3.057-2.44 4.153-.733l3.132 4.88c.23.357.554.643.937.827l5.85 2.799a2.286 2.286 0 0 1 .646 3.662l-4.54 4.632a2.282 2.282 0 0 0-.597 1.098l-1.275 5.656zM244.412 102.61c-.463 1.95-3.032 2.403-4.133.729l-4.086-6.207a2.286 2.286 0 0 0-.953-.82l-7.123-3.278a2.286 2.286 0 0 1-.653-3.7l5.573-5.517c.303-.3.517-.68.615-1.096l1.716-7.23c.463-1.95 3.032-2.403 4.134-.73l4.085 6.208c.235.357.565.64.954.82l7.124 3.277a2.285 2.285 0 0 1 .653 3.701l-5.574 5.516c-.304.301-.517.681-.616 1.097l-1.716 7.23zM143.383 205.903l1.368 7.755-12.291 2.167c1.378 5.79 6.491 11.1 17.058 11.914l-3.145 8.48c-7.479-.502-13.032-3.45-16.754-7.755-1.83 5.82-5.979 10.835-13.046 14.08l-6.064-6.855c9.674-4.455 12.769-11.605 11.945-18.1l-12.256 2.162-1.368-7.756 12.256-2.161-1.098-6.232 10.04-1.77 1.099 6.232 12.256-2.161zm-17.604 61.721-4.091-23.197 41.963-7.399 4.09 23.197-41.962 7.399zm8.428-9.697 22.297-3.932-1.306-7.409-22.297 3.932 1.306 7.409zm19.021-21.703-6.545-37.115 9.971-1.758 2.564 14.541 8.24-1.453 1.429 8.102-8.24 1.453 2.552 14.472-9.971 1.758zm31.807-39.379c5.638-1.03 10.918 1.18 14.795 5.959l13.053-2.302-2.235-12.672 9.833-1.733 11.233 63.704-9.833 1.734-4.151-23.543-12.326 2.173c-1.734 6.768-6.194 11.231-12.322 12.312-9.729 1.715-18.274-5.846-20.73-19.978-2.488-13.912 2.949-23.974 12.683-25.654zm-3.127 23.969c1.595 9.251 5.316 13.343 9.574 12.592 4.328-.763 6.32-5.863 4.69-15.107-1.599-9.071-5.228-13.25-9.549-12.453-4.265.717-6.349 5.903-4.715 14.968zm22.108-10.466c.694 1.912 1.246 4.028 1.643 6.278.323 1.835.525 3.585.569 5.255l10.11-1.783-2.039-11.564-10.283 1.814z" fill="#F97173"/>
    </g>
    <defs>
        <filter id="v01rdmxn2b" x="114.302" y="133.224" width="26.355" height="18.795" filterUnits="userSpaceOnUse" color-interpolation-filters="sRGB">
            <feFlood flood-opacity="0" result="BackgroundImageFix"/>
            <feBlend in="SourceGraphic" in2="BackgroundImageFix" result="shape"/>
            <feGaussianBlur stdDeviation="1.714" result="effect1_foregroundBlur_492_144412"/>
        </filter>
        <filter id="ho9kgq3fnc" x="177.329" y="122.11" width="26.355" height="18.795" filterUnits="userSpaceOnUse" color-interpolation-filters="sRGB">
            <feFlood flood-opacity="0" result="BackgroundImageFix"/>
            <feBlend in="SourceGraphic" in2="BackgroundImageFix" result="shape"/>
            <feGaussianBlur stdDeviation="1.714" result="effect1_foregroundBlur_492_144412"/>
        </filter>
    </defs>
</svg>
