<svg width="102" height="92" viewBox="0 0 102 92" fill="none" xmlns="http://www.w3.org/2000/svg">
<path opacity="0.05" fill-rule="evenodd" clip-rule="evenodd" d="M102 63.531C100.057 64.5101 98.014 65.3189 95.8909 65.9377C91.4711 81.0047 77.4672 92 61.17 92C44.8727 92 31.0967 81.1878 26.5553 66.3037C11.6402 61.8203 0.75 47.958 0.75 31.488C0.75 18.0253 8.0466 6.27443 18.8904 0H38.0947C37.1286 1.77625 36.3576 3.67417 35.8119 5.665C24.7884 8.95 16.75 19.21 16.75 31.36C16.75 43.51 24.7661 53.7363 35.7448 57.0438C39.0877 68.0238 49.2279 76 61.2241 76C73.2202 76 83.5282 67.8887 86.7816 56.7738C93.1677 54.9081 98.5678 50.7037 102 45.1421V63.531ZM102 16.91C98.6213 11.4453 93.3415 7.29268 87.0946 5.38375C86.5533 3.49538 85.8119 1.6925 84.8949 0H102V16.91Z" fill="#F8F8FB"/>
</svg>
