<svg width="31" height="31" viewBox="0 0 31 31" fill="none" xmlns="http://www.w3.org/2000/svg">
<path d="M23.7853 6.81608L23.8419 7.01186L24.0369 7.07088C27.559 8.13655 30.125 11.4014 30.125 15.2618C30.125 19.1591 27.5107 22.4496 23.9375 23.484L23.7403 23.5411L23.6821 23.738C22.6346 27.2846 19.3168 29.875 15.4526 29.875C11.5877 29.875 8.31893 27.3249 7.24564 23.8202L7.18683 23.6282L6.99441 23.5707C3.45507 22.5135 0.875 19.2458 0.875 15.3683C0.875 11.491 3.46358 8.21476 7.01431 7.16319L7.21392 7.10408L7.26931 6.90341C8.26847 3.28361 11.6259 0.625 15.5385 0.625C19.4514 0.625 22.7516 3.2401 23.7853 6.81608Z" fill="white" stroke="#F9F9F9" stroke-width="0.75"/>
</svg>
