<svg width="30" height="31" viewBox="0 0 30 31" fill="none" xmlns="http://www.w3.org/2000/svg">
<path d="M22.6849 6.98964L22.8358 7.51171L23.3559 7.6691C26.6229 8.65757 29 11.6857 29 15.2618C29 18.8723 26.578 21.9242 23.2637 22.8837L22.7378 23.0359L22.5827 23.561C21.6121 26.8473 18.5342 29.25 14.9526 29.25C11.3692 29.25 8.33812 26.8858 7.34324 23.6372L7.18643 23.1251L6.67329 22.9718C3.38996 21.9911 1 18.9606 1 15.3683C1 11.7768 3.39784 8.73799 6.69179 7.76246L7.22407 7.60482L7.37178 7.06971C8.29744 3.71621 11.4119 1.25 15.0385 1.25C18.6659 1.25 21.7265 3.6741 22.6849 6.98964Z" fill="white" stroke="#F97173" stroke-width="2"/>
</svg>
