<svg width="280" height="282" viewBox="0 0 280 282" fill="none" xmlns="http://www.w3.org/2000/svg">
<path d="M280 141.356C280 103.529 254.992 71.5788 220.689 61.1281C210.623 26.1165 178.494 0.5 140.368 0.5C102.242 0.5 69.5528 26.5387 59.8021 62.0077C25.2186 72.2825 0 104.373 0 142.376C0 180.378 25.1484 212.364 59.5916 222.709C70.0789 257.052 101.892 282 139.526 282C177.161 282 209.5 256.63 219.707 221.865C254.501 211.731 279.965 179.534 279.965 141.356H280Z" fill="#FEEEEE"/>
<path opacity="0.6" d="M209.737 69.9261L210.187 71.4921L211.745 71.9672C240.732 80.8036 262.04 107.422 262.968 139.182V141.345C262.968 174.361 240.962 202.204 210.897 210.966L209.32 211.425L208.858 213.001C200.036 243.067 172.077 265 139.574 265C107.066 265 79.5683 243.439 70.5018 213.731L70.0332 212.196L68.4959 211.734C38.7334 202.789 17 175.129 17 142.264C17 109.4 38.7947 81.6486 68.6767 72.7654L70.2734 72.2907L70.7147 70.6845C79.1419 40.0119 107.404 17.5 140.331 17.5C173.262 17.5 201.034 39.6389 209.737 69.9261Z" stroke="white" stroke-width="6"/>
</svg>
