<svg width="280" height="282" viewBox="0 0 280 282" fill="none" xmlns="http://www.w3.org/2000/svg">
<path d="M280 140.856C280 103.029 254.992 71.0788 220.689 60.6281C210.623 25.6165 178.494 0 140.368 0C102.242 0 69.5528 26.0387 59.8021 61.5077C25.2186 71.7825 0 103.873 0 141.876C0 179.878 25.1484 211.864 59.5916 222.209C70.0789 256.552 101.892 281.5 139.526 281.5C177.161 281.5 209.5 256.13 219.707 221.365C254.501 211.231 279.965 179.034 279.965 140.856H280Z" fill="#ECF5E3"/>
<path opacity="0.6" d="M209.737 69.4261L210.187 70.9921L211.745 71.4672C240.732 80.3036 262.04 106.922 262.968 138.682V140.845C262.968 173.861 240.962 201.704 210.897 210.466L209.32 210.925L208.858 212.501C200.036 242.567 172.077 264.5 139.574 264.5C107.066 264.5 79.5683 242.939 70.5018 213.231L70.0332 211.696L68.4959 211.234C38.7334 202.289 17 174.629 17 141.764C17 108.9 38.7947 81.1486 68.6767 72.2654L70.2734 71.7907L70.7147 70.1845C79.1419 39.5119 107.404 17 140.331 17C173.262 17 201.034 39.1389 209.737 69.4261Z" stroke="white" stroke-width="6"/>
</svg>
