<svg width="120" height="120" viewBox="0 0 120 120" fill="none" xmlns="http://www.w3.org/2000/svg">
<circle cx="60" cy="60" r="60" fill="#F1F8EA"/>
<path d="M60 90C76.5685 90 90 76.5685 90 60C90 43.4315 76.5685 30 60 30C43.4315 30 30 43.4315 30 60C30 76.5685 43.4315 90 60 90Z" stroke="#9ECC74" stroke-width="6" stroke-linecap="round" stroke-linejoin="round"/>
<path d="M51.9444 55.5553C51.9444 56.6292 51.0739 57.4997 50 57.4997C48.9261 57.4997 48.0555 56.6292 48.0555 55.5553C48.0555 54.4814 48.9261 53.6108 50 53.6108C51.0739 53.6108 51.9444 54.4814 51.9444 55.5553Z" fill="#9ECC74" stroke="#9ECC74" stroke-width="5"/>
<path d="M71.9444 55.5553C71.9444 56.6292 71.0738 57.4997 69.9999 57.4997C68.926 57.4997 68.0555 56.6292 68.0555 55.5553C68.0555 54.4814 68.926 53.6108 69.9999 53.6108C71.0738 53.6108 71.9444 54.4814 71.9444 55.5553Z" fill="#9ECC74" stroke="#9ECC74" stroke-width="5"/>
<path d="M52.2221 72.2225C54.9923 69.7071 61.9816 66.1855 67.7777 72.2225" stroke="#9ECC74" stroke-width="5" stroke-linecap="round"/>
</svg>
