<svg width="40" height="40" viewBox="0 0 40 40" fill="none" xmlns="http://www.w3.org/2000/svg">
<path d="M37.2745 5.49667C34.4999 0.0508259 20.0014 0 20.0014 0C20.0014 0 5.50288 0.0508259 2.72828 5.49667C-0.0463309 10.9425 5.29957e-05 20 5.29957e-05 20C5.29957e-05 20 -0.0477365 29.059 2.72687 34.5033C5.50148 39.9477 20 40 20 40C20 40 34.4985 39.9492 37.2731 34.5033C40.0477 29.0575 39.9999 20 39.9999 20C39.9999 20 40.0477 10.941 37.2731 5.49667H37.2745Z" fill="#FEE3E3"/>
<path d="M26.7474 13.6006H13.8873C12.9599 13.6006 12.4743 14.7025 13.1001 15.387L17.3977 20.0875C17.5058 20.2058 17.586 20.347 17.6321 20.5006L19.4633 26.6016C19.7364 27.5117 20.9735 27.6373 21.424 26.8008L27.6866 15.1731C28.0693 14.4624 27.5546 13.6006 26.7474 13.6006Z" fill="#F97173"/>
<path d="M20.2676 18.667L16.5725 20.8003" stroke="#FEE3E3" stroke-width="1.55556" stroke-linecap="round"/>
</svg>
