<svg width="120" height="120" viewBox="0 0 120 120" fill="none" xmlns="http://www.w3.org/2000/svg">
<circle cx="60" cy="60" r="60" fill="#FEEFD1"/>
<mask id="path-2-outside-1_224_7543" maskUnits="userSpaceOnUse" x="28" y="30" width="64" height="59" fill="black">
<rect fill="white" x="28" y="30" width="64" height="59"/>
<path d="M86 57.5151C86 59.1926 85.0353 60.6379 83.619 61.3418L83.6419 61.3344C84.6602 62.0608 85.3186 63.2365 85.3186 64.5695C85.3186 66.2619 84.2544 67.6998 82.7538 68.2764C83.4965 68.9579 83.9635 69.9314 83.9635 71.0098C83.9635 72.7771 82.7155 74.2524 81.0465 74.6193C80.9317 74.6418 80.8475 74.7467 80.8475 74.874C80.8475 74.9713 80.901 75.0537 80.9853 75.0986C81.3451 75.3008 81.6743 75.5554 81.9499 75.8625C81.9691 75.8849 81.9863 75.9055 82.0035 75.9261C82.0207 75.9467 82.038 75.9673 82.0571 75.9898C82.0648 76.001 82.0743 76.0122 82.0839 76.0235C82.0935 76.0347 82.1031 76.0459 82.1107 76.0572C82.1222 76.0759 82.1356 76.0927 82.149 76.1096C82.1624 76.1264 82.1758 76.1433 82.1873 76.162L82.2332 76.2294C82.2715 76.2818 82.3098 76.3343 82.3404 76.3867C82.3557 76.4166 82.371 76.4391 82.3863 76.4616C82.4093 76.5065 82.4323 76.5439 82.4552 76.5814C82.4629 76.5926 82.4686 76.6039 82.4744 76.6151C82.4801 76.6263 82.4859 76.6376 82.4935 76.6488C82.5116 76.6798 82.5271 76.7134 82.543 76.7481C82.554 76.7721 82.5652 76.7966 82.5777 76.821C82.593 76.8435 82.6007 76.866 82.6084 76.8884C82.616 76.9109 82.6256 76.9334 82.6351 76.9558C82.6447 76.9783 82.6543 77.0008 82.6619 77.0232L82.6849 77.0906C82.6964 77.1243 82.706 77.1562 82.7155 77.188C82.7251 77.2198 82.7347 77.2516 82.7462 77.2853C82.7538 77.3003 82.7615 77.3228 82.7615 77.3378C82.7691 77.364 82.7749 77.3902 82.7806 77.4164C82.7864 77.4426 82.7921 77.4688 82.7998 77.495C82.8074 77.5175 82.8151 77.5399 82.8151 77.5624C82.8304 77.6298 82.8457 77.7047 82.8533 77.7721V77.8095C82.8559 77.8295 82.8593 77.8495 82.8627 77.8694C82.8695 77.9094 82.8763 77.9493 82.8763 77.9893V78.0567C82.884 78.124 82.884 78.1989 82.884 78.2663V78.2813C82.9146 80.2958 81.2839 81.9433 79.278 82.0407H56.861C55.835 82.0407 54.8321 81.7636 53.944 81.2469L49.4074 79.5646V80.0828C49.4074 81.6928 48.275 83 46.8883 83H35.5253C35.2095 83 34.9167 82.8899 34.6702 82.6973C34.2696 82.3808 34 81.8441 34 81.2318V52.1561C34 51.1791 34.6856 50.3879 35.5253 50.3879H46.8883C48.2827 50.3879 49.4074 51.6951 49.4074 53.3051V54.874L53.1478 50.0938C53.8827 48.5586 55.1537 47.3454 56.7308 46.6789L57.8792 46.1922L64.8616 42.1557L66.7143 37.8347C67.189 36.7264 68.2915 36 69.5088 36H69.5165C71.308 36 72.9234 37.0709 73.6048 38.7184C73.8651 39.3549 74.0029 40.0364 74.0029 40.7254V45.4957C74.0029 46.956 73.689 48.4013 73.0765 49.7343L72.02 52.0259C71.7597 52.595 72.1808 53.239 72.8086 53.239H81.6896C84.0707 53.239 86 55.1487 86 57.5151Z"/>
</mask>
<path d="M83.619 61.3418L80.9486 55.9688C78.1333 57.368 76.8754 60.703 78.0654 63.6129C79.2553 66.5227 82.4895 68.0207 85.4785 67.0464L83.619 61.3418ZM83.6419 61.3344L87.1264 56.4499C85.5762 55.3439 83.5929 55.0396 81.7824 55.6298L83.6419 61.3344ZM82.7538 68.2764L80.6016 62.6757C78.6627 63.4207 77.2471 65.1156 76.8593 67.1562C76.4715 69.1968 77.1667 71.2928 78.6971 72.6972L82.7538 68.2764ZM81.0465 74.6193L82.1985 80.5077C82.2441 80.4988 82.2895 80.4894 82.3349 80.4794L81.0465 74.6193ZM80.9853 75.0986L83.9245 69.8679C83.8864 69.8464 83.8481 69.8255 83.8095 69.8049L80.9853 75.0986ZM81.9499 75.8625L86.517 71.9712C86.4834 71.9318 86.4494 71.8929 86.4148 71.8544L81.9499 75.8625ZM82.0035 75.9261L86.6061 72.0769L86.6058 72.0765L82.0035 75.9261ZM82.0571 75.9898L87.0145 72.6098C86.8936 72.4325 86.7633 72.2618 86.6242 72.0985L82.0571 75.9898ZM82.0839 76.0235L77.5167 79.9146L77.5168 79.9147L82.0839 76.0235ZM82.1107 76.0572L87.2251 72.9199C87.175 72.8382 87.1229 72.7577 87.069 72.6785L82.1107 76.0572ZM82.149 76.1096L77.4524 79.8435L77.4529 79.8441L82.149 76.1096ZM82.1873 76.162L77.0728 79.2992C77.123 79.3811 77.1752 79.4618 77.2293 79.5412L82.1873 76.162ZM82.2332 76.2294L77.2753 79.6086C77.3119 79.6623 77.3494 79.7154 77.3877 79.7679L82.2332 76.2294ZM82.3404 76.3867L87.683 73.656C87.6318 73.5558 87.5777 73.457 87.521 73.3599L82.3404 76.3867ZM82.3863 76.4616L87.7288 73.7306C87.6143 73.5066 87.4858 73.2901 87.3441 73.0822L82.3863 76.4616ZM82.4552 76.5814L77.3408 79.7186C77.391 79.8006 77.4433 79.8813 77.4974 79.9608L82.4552 76.5814ZM82.4744 76.6151L77.1314 79.345L77.132 79.3462L82.4744 76.6151ZM82.4935 76.6488L87.6743 73.6223C87.6041 73.5021 87.5297 73.3844 87.4513 73.2694L82.4935 76.6488ZM82.543 76.7481L87.996 74.2451L87.9959 74.2451L82.543 76.7481ZM82.5777 76.821L77.2352 79.5519C77.3496 79.7757 77.478 79.9921 77.6196 80.1999L82.5777 76.821ZM82.6084 76.8884L88.2876 74.9529L88.2875 74.9526L82.6084 76.8884ZM82.6619 77.0232L88.3413 75.0879L88.3412 75.0877L82.6619 77.0232ZM82.6849 77.0906L88.3643 75.1556L88.3642 75.1553L82.6849 77.0906ZM82.7155 77.188L76.9697 78.9158L76.9697 78.9159L82.7155 77.188ZM82.7462 77.2853L77.0668 79.2204C77.1599 79.4936 77.2725 79.7598 77.4039 80.0168L82.7462 77.2853ZM82.7615 77.3378H76.7615C76.7615 77.907 76.8425 78.4734 77.0021 79.0198L82.7615 77.3378ZM82.7806 77.4164L76.9197 78.7007L76.9197 78.701L82.7806 77.4164ZM82.7998 77.495L77.0406 79.1779C77.0654 79.2627 77.092 79.3469 77.1205 79.4306L82.7998 77.495ZM82.8151 77.5624H76.8151C76.8151 78.0096 76.8651 78.4554 76.9641 78.8915L82.8151 77.5624ZM82.8533 77.7721H88.8533C88.8533 77.5459 88.8406 77.3199 88.815 77.0951L82.8533 77.7721ZM82.8533 77.8095H76.8533C76.8533 78.0639 76.8695 78.3179 76.9018 78.5702L82.8533 77.8095ZM82.8627 77.8694L76.9479 78.8771L76.948 78.8775L82.8627 77.8694ZM82.8763 78.0567H76.8763C76.8763 78.283 76.8891 78.5091 76.9147 78.7339L82.8763 78.0567ZM82.884 78.2813H76.884C76.884 78.3117 76.8842 78.3421 76.8847 78.3725L82.884 78.2813ZM79.278 82.0407V88.0407C79.375 88.0407 79.4719 88.0383 79.5688 88.0336L79.278 82.0407ZM53.944 81.2469L56.9614 76.0608C56.6641 75.8878 56.3525 75.7408 56.0301 75.6212L53.944 81.2469ZM49.4074 79.5646L51.4935 73.939C49.652 73.2561 47.593 73.5177 45.9808 74.6394C44.3686 75.761 43.4074 77.6007 43.4074 79.5646H49.4074ZM34.6702 82.6973L30.9507 87.4052C30.959 87.4118 30.9674 87.4184 30.9757 87.4249L34.6702 82.6973ZM49.4074 54.874H43.4074C43.4074 57.434 45.0317 59.7121 47.4519 60.5464C49.8722 61.3808 52.5552 60.5876 54.1328 58.5714L49.4074 54.874ZM53.1478 50.0938L57.8731 53.7912C58.1414 53.4484 58.3715 53.0773 58.5595 52.6847L53.1478 50.0938ZM56.7308 46.6789L59.0664 52.2057L59.0723 52.2032L56.7308 46.6789ZM57.8792 46.1922L60.2207 51.7164C60.4478 51.6202 60.6686 51.51 60.8821 51.3866L57.8792 46.1922ZM64.8616 42.1557L67.8644 47.3502C68.9849 46.7025 69.866 45.7098 70.376 44.5202L64.8616 42.1557ZM66.7143 37.8347L72.2288 40.1992L72.2298 40.1969L66.7143 37.8347ZM73.6048 38.7184L79.1584 36.4473C79.1554 36.44 79.1523 36.4326 79.1493 36.4253L73.6048 38.7184ZM73.0765 49.7343L78.5253 52.2465L78.5285 52.2394L73.0765 49.7343ZM72.02 52.0259L66.5712 49.5137C66.5687 49.5192 66.5661 49.5248 66.5636 49.5303L72.02 52.0259ZM86.2893 66.7148C89.6545 65.0423 92 61.5703 92 57.5151H80C80 56.8149 80.4162 56.2335 80.9486 55.9688L86.2893 66.7148ZM81.7824 55.6298L81.7594 55.6373L85.4785 67.0464L85.5015 67.0389L81.7824 55.6298ZM91.3186 64.5695C91.3186 61.1968 89.6394 58.2425 87.1264 56.4499L80.1574 66.2188C79.681 65.879 79.3186 65.2762 79.3186 64.5695H91.3186ZM84.906 73.8771C88.6116 72.4532 91.3186 68.8641 91.3186 64.5695H79.3186C79.3186 63.6597 79.8972 62.9464 80.6016 62.6757L84.906 73.8771ZM89.9635 71.0098C89.9635 68.159 88.7223 65.61 86.8105 63.8556L78.6971 72.6972C78.2706 72.3057 77.9635 71.7038 77.9635 71.0098H89.9635ZM82.3349 80.4794C86.6639 79.5276 89.9635 75.687 89.9635 71.0098H77.9635C77.9635 69.8672 78.7672 68.9772 79.7581 68.7593L82.3349 80.4794ZM86.8475 74.874C86.8475 77.3918 85.1144 79.9373 82.1985 80.5077L79.8945 68.731C76.7489 69.3464 74.8475 72.1015 74.8475 74.874H86.8475ZM83.8095 69.8049C85.5375 70.7268 86.8475 72.5987 86.8475 74.874H74.8475C74.8475 77.344 76.2646 79.3806 78.161 80.3923L83.8095 69.8049ZM86.4148 71.8544C85.6548 71.0077 84.7928 70.3558 83.9245 69.8679L78.046 80.3294C77.8974 80.2458 77.6938 80.1031 77.485 79.8705L86.4148 71.8544ZM86.6058 72.0765C86.5902 72.0579 86.5563 72.0174 86.517 71.9712L77.3829 79.7537C77.3817 79.7523 77.3819 79.7526 77.3846 79.7558C77.388 79.7598 77.392 79.7646 77.4013 79.7757L86.6058 72.0765ZM86.6242 72.0985C86.6254 72.0999 86.6252 72.0997 86.6225 72.0965C86.6192 72.0926 86.6152 72.0879 86.6061 72.0769L77.401 79.7754C77.4168 79.7943 77.4507 79.8348 77.49 79.881L86.6242 72.0985ZM86.6511 72.1323C86.6374 72.1162 86.6823 72.1685 86.7334 72.2317C86.7876 72.2986 86.8931 72.4317 87.0145 72.6098L77.0998 79.3698C77.2288 79.5591 77.3429 79.7034 77.4061 79.7816C77.4399 79.8233 77.468 79.857 77.4856 79.8778C77.5019 79.8972 77.5164 79.9142 77.5167 79.9146L86.6511 72.1323ZM87.069 72.6785C86.9396 72.4886 86.8252 72.3438 86.7618 72.2655C86.7279 72.2237 86.6997 72.1899 86.6822 72.169C86.6658 72.1496 86.6513 72.1326 86.651 72.1322L77.5168 79.9147C77.5306 79.9309 77.4855 79.8785 77.4343 79.8152C77.38 79.7481 77.2742 79.6145 77.1524 79.4359L87.069 72.6785ZM86.8456 72.3757C86.8292 72.3551 86.8803 72.4187 86.9382 72.4963C87.003 72.5831 87.1081 72.7292 87.2251 72.9199L76.9963 79.1945C77.1248 79.4039 77.2423 79.5678 77.32 79.6719C77.3592 79.7245 77.3923 79.7672 77.4139 79.7947C77.4338 79.8201 77.4515 79.8424 77.4524 79.8435L86.8456 72.3757ZM87.3018 73.0248C87.1733 72.8154 87.0557 72.6515 86.9779 72.5472C86.9386 72.4946 86.9055 72.4518 86.8839 72.4242C86.8639 72.3986 86.8461 72.3763 86.8451 72.3751L77.4529 79.8441C77.469 79.8644 77.4178 79.8008 77.3598 79.723C77.2949 79.6361 77.1898 79.4899 77.0728 79.2992L87.3018 73.0248ZM87.1911 72.8502L87.1452 72.7828L77.2293 79.5412L77.2753 79.6086L87.1911 72.8502ZM87.521 73.3599C87.4001 73.153 87.2893 72.9886 87.2195 72.8881C87.1528 72.7919 87.0902 72.7067 87.0787 72.6909L77.3877 79.7679C77.4145 79.8046 77.3901 79.7718 77.3598 79.7281C77.3264 79.6799 77.25 79.5679 77.1598 79.4135L87.521 73.3599ZM87.3441 73.0822C87.328 73.0586 87.5082 73.314 87.683 73.656L76.9978 79.1174C77.2032 79.5193 77.414 79.8196 77.4285 79.8409L87.3441 73.0822ZM87.5697 73.4441C87.5392 73.3945 87.632 73.5412 87.7288 73.7306L77.0439 79.1925C77.1866 79.4718 77.3253 79.6934 77.3408 79.7186L87.5697 73.4441ZM87.8174 73.8852C87.817 73.8846 87.8134 73.8775 87.8092 73.8693C87.8047 73.8606 87.7979 73.8473 87.7895 73.8312C87.7729 73.7994 87.747 73.7504 87.7143 73.6913C87.6481 73.5717 87.548 73.3999 87.413 73.202L77.4974 79.9608C77.3702 79.7741 77.2767 79.6135 77.2167 79.5052C77.1635 79.4091 77.122 79.3266 77.1314 79.345L87.8174 73.8852ZM87.4513 73.2694C87.5787 73.4563 87.6721 73.6169 87.732 73.725C87.785 73.8207 87.8266 73.9032 87.8167 73.884L77.132 79.3462C77.1322 79.3467 77.1358 79.3537 77.1399 79.3617C77.1443 79.3703 77.1511 79.3835 77.1595 79.3994C77.1759 79.431 77.2018 79.4799 77.2344 79.5388C77.3005 79.6582 77.4007 79.83 77.5357 80.0281L87.4513 73.2694ZM87.9959 74.2451C87.9935 74.2398 87.9558 74.1569 87.9109 74.065C87.8627 73.9661 87.7829 73.8082 87.6743 73.6223L77.3128 79.6753C77.2222 79.5203 77.1593 79.3948 77.1272 79.3292C77.0986 79.2705 77.0765 79.2217 77.09 79.2511L87.9959 74.2451ZM87.9203 74.0902C87.951 74.1504 87.9736 74.1977 87.9855 74.2228C87.9958 74.2446 88.0036 74.2617 87.996 74.2451L77.09 79.2511C77.0933 79.2582 77.1559 79.3966 77.2352 79.5519L87.9203 74.0902ZM88.2875 74.9526C88.2873 74.9521 88.2818 74.9358 88.2753 74.9172C88.2684 74.8972 88.2576 74.8661 88.244 74.8286C88.217 74.7541 88.1741 74.6399 88.1159 74.5032C87.995 74.2195 87.8116 73.8468 87.5359 73.4422L77.6196 80.1999C77.1168 79.4621 76.9027 78.7464 76.9292 78.8242L88.2875 74.9526ZM88.1551 74.6042C88.1468 74.5847 88.1636 74.6237 88.1829 74.6716C88.2043 74.7243 88.2436 74.8239 88.2876 74.9529L76.9291 78.824C76.9807 78.9754 77.0287 79.0975 77.0591 79.1727C77.0876 79.2431 77.1139 79.3045 77.1152 79.3074L88.1551 74.6042ZM88.3412 75.0877C88.2896 74.9362 88.2416 74.8142 88.2112 74.739C88.1827 74.6686 88.1564 74.6071 88.1551 74.6042L77.1152 79.3074C77.1235 79.327 77.1067 79.288 77.0873 79.2401C77.066 79.1874 77.0267 79.0878 76.9827 78.9588L88.3412 75.0877ZM88.3642 75.1553L88.3413 75.0879L76.9826 78.9585L77.0056 79.0259L88.3642 75.1553ZM88.4614 75.4602C88.4554 75.4401 88.4161 75.3076 88.3643 75.1556L77.0055 79.0257C76.9895 78.9786 76.9779 78.9421 76.9719 78.9226C76.967 78.907 76.9637 78.8957 76.9697 78.9158L88.4614 75.4602ZM88.4256 75.3503C88.4416 75.3973 88.4532 75.4339 88.4592 75.4533C88.464 75.4689 88.4674 75.4801 88.4613 75.46L76.9697 78.9159C76.9757 78.9358 77.015 79.0684 77.0668 79.2204L88.4256 75.3503ZM88.7615 77.3378C88.7615 76.4699 88.5712 75.8075 88.4931 75.5526C88.3911 75.2202 88.2573 74.8844 88.0884 74.5539L77.4039 80.0168C77.2426 79.7013 77.1165 79.3842 77.0203 79.0704C76.9694 78.9046 76.9116 78.6899 76.8637 78.4354C76.8189 78.1972 76.7615 77.8138 76.7615 77.3378H88.7615ZM88.6415 76.132C88.6405 76.1272 88.6267 76.0634 88.6095 75.9914C88.591 75.9132 88.5618 75.7958 88.5209 75.6557L77.0021 79.0198C76.9688 78.9059 76.9463 78.8147 76.934 78.7628C76.9231 78.7169 76.915 78.6793 76.9197 78.7007L88.6415 76.132ZM88.5589 75.8122C88.5923 75.9265 88.6149 76.0179 88.6273 76.07C88.6381 76.1158 88.6462 76.1535 88.6415 76.1318L76.9197 78.701C76.9207 78.7054 76.9346 78.7694 76.9517 78.8414C76.9702 78.9197 76.9995 79.0374 77.0406 79.1779L88.5589 75.8122ZM88.8151 77.5624C88.8151 76.8828 88.7007 76.3454 88.6236 76.0435C88.5836 75.887 88.545 75.7616 88.5209 75.6862C88.5085 75.6474 88.4979 75.6156 88.4911 75.5953C88.4848 75.5765 88.4792 75.5601 88.479 75.5595L77.1205 79.4306C77.1382 79.4823 77.0623 79.2695 76.997 79.0139C76.9256 78.7345 76.8151 78.2196 76.8151 77.5624H88.8151ZM88.815 77.0951C88.7689 76.6888 88.6932 76.3529 88.666 76.2333L76.9641 78.8915C76.962 78.8822 76.9525 78.8401 76.9408 78.7778C76.9298 78.7197 76.9092 78.6037 76.8917 78.4491L88.815 77.0951ZM88.8533 77.8095V77.7721H76.8533V77.8095H88.8533ZM88.7775 76.8618C88.7749 76.8467 88.7785 76.8674 88.7826 76.8932C88.7873 76.9223 88.7958 76.9777 88.8049 77.0489L76.9018 78.5702C76.9134 78.6614 76.925 78.7367 76.9328 78.7858C76.9401 78.8316 76.9471 78.8722 76.9479 78.8771L88.7775 76.8618ZM88.8763 77.9893C88.8763 77.6353 88.8465 77.3472 88.8236 77.1686C88.812 77.0773 88.8004 77.0019 88.7925 76.9527C88.7852 76.9069 88.7782 76.8662 88.7774 76.8614L76.948 78.8775C76.955 78.9187 76.9365 78.8151 76.9205 78.6901C76.9028 78.5515 76.8763 78.3033 76.8763 77.9893H88.8763ZM88.8763 78.0567V77.9893H76.8763V78.0567H88.8763ZM88.884 78.2663C88.884 78.2449 88.8843 78.1294 88.8808 78.0001C88.8773 77.8692 88.8684 77.6469 88.838 77.3794L76.9147 78.7339C76.8919 78.5338 76.8868 78.3827 76.8852 78.3228C76.8836 78.2646 76.884 78.2202 76.884 78.2663H88.884ZM88.884 78.2813V78.2663H76.884V78.2813H88.884ZM79.5688 88.0336C84.629 87.788 88.9658 83.6153 88.8833 78.1901L76.8847 78.3725C76.8634 76.9763 77.9387 76.0986 78.9871 76.0477L79.5688 88.0336ZM50.9266 86.4329C52.7078 87.4693 54.7485 88.0407 56.861 88.0407V76.0407C56.9215 76.0407 56.9564 76.0579 56.9614 76.0608L50.9266 86.4329ZM47.3213 85.1903L51.8579 86.8725L56.0301 75.6212L51.4935 73.939L47.3213 85.1903ZM55.4074 80.0828V79.5646H43.4074V80.0828H55.4074ZM46.8883 89C52.3796 89 55.4074 84.1559 55.4074 80.0828H43.4074C43.4074 79.492 43.6137 78.8171 44.1286 78.2215C44.6521 77.6158 45.6085 77 46.8883 77V89ZM35.5253 89H46.8883V77H35.5253V89ZM30.9757 87.4249C32.185 88.3699 33.7579 89 35.5253 89V77C36.661 77 37.6485 77.4099 38.3647 77.9696L30.9757 87.4249ZM28 81.2318C28 83.57 29.0259 85.8846 30.9507 87.4052L38.3898 77.9893C39.5134 78.877 40 80.1183 40 81.2318H28ZM28 52.1561V81.2318H40V52.1561H28ZM35.5253 44.3879C30.5777 44.3879 28 48.7197 28 52.1561H40C40 53.6385 38.7935 56.3878 35.5253 56.3878V44.3879ZM46.8883 44.3879H35.5253V56.3878H46.8883V44.3879ZM55.4074 53.3051C55.4074 49.2446 52.3983 44.3879 46.8883 44.3879V56.3878C45.6183 56.3878 44.6581 55.7769 44.1274 55.1616C43.6087 54.5603 43.4074 53.885 43.4074 53.3051H55.4074ZM55.4074 54.874V53.3051H43.4074V54.874H55.4074ZM48.4224 46.3964L44.682 51.1766L54.1328 58.5714L57.8731 53.7912L48.4224 46.3964ZM54.3952 41.1522C51.4725 42.3873 49.1054 44.6426 47.736 47.5028L58.5595 52.6847C58.6601 52.4746 58.8348 52.3035 59.0664 52.2057L54.3952 41.1522ZM55.5377 40.6679L54.3893 41.1547L59.0723 52.2032L60.2207 51.7164L55.5377 40.6679ZM61.8587 36.9612L54.8763 40.9977L60.8821 51.3866L67.8644 47.3502L61.8587 36.9612ZM61.1999 35.4702L59.3471 39.7912L70.376 44.5202L72.2288 40.1992L61.1999 35.4702ZM69.5088 30C65.9065 30 62.6249 32.143 61.1989 35.4726L72.2298 40.1969C71.7531 41.3098 70.6764 42 69.5088 42V30ZM69.5165 30H69.5088V42H69.5165V30ZM79.1493 36.4253C77.5293 32.5082 73.7078 30 69.5165 30V42C68.9082 42 68.3176 41.6336 68.0603 41.0115L79.1493 36.4253ZM80.0029 40.7254C80.0029 39.236 79.7052 37.7845 79.1584 36.4473L68.0512 40.9895C68.025 40.9254 68.0029 40.8369 68.0029 40.7254H80.0029ZM80.0029 45.4957V40.7254H68.0029V45.4957H80.0029ZM78.5285 52.2394C79.5038 50.1168 80.0029 47.8165 80.0029 45.4957H68.0029C68.0029 46.0955 67.8742 46.6858 67.6245 47.2292L78.5285 52.2394ZM77.4687 54.5381L78.5253 52.2465L67.6278 47.2221L66.5712 49.5137L77.4687 54.5381ZM72.8086 47.239C76.4557 47.239 79.0729 51.0308 77.4764 54.5214L66.5636 49.5303C64.4465 54.1592 67.9059 59.239 72.8086 59.239V47.239ZM81.6896 47.239H72.8086V59.239H81.6896V47.239ZM92 57.5151C92 51.7859 87.3351 47.239 81.6896 47.239V59.239C80.8063 59.239 80 58.5114 80 57.5151H92ZM56.861 88.0407H79.278V76.0407H56.861V88.0407Z" fill="#FBAD18" mask="url(#path-2-outside-1_224_7543)"/>
<path d="M50 51V83" stroke="#FBAD18" stroke-width="6" stroke-linecap="round" stroke-linejoin="round"/>
</svg>
