<svg width="80" height="80" viewBox="0 0 80 80" fill="none" xmlns="http://www.w3.org/2000/svg">
<mask id="mask0_923_18975" style="mask-type:alpha" maskUnits="userSpaceOnUse" x="0" y="0" width="80" height="80">
<rect width="80" height="80" transform="matrix(-1 0 0 1 80 0)" fill="white"/>
</mask>
<g mask="url(#mask0_923_18975)">
<path d="M46.6549 77.7404C67.4782 74.0686 81.3824 54.2114 77.7107 33.388C74.0389 12.5647 54.1818 -1.3395 33.3584 2.33222C12.535 6.00395 -1.36918 25.8612 2.30254 46.6845C5.97427 67.5079 25.8315 81.4121 46.6549 77.7404Z" fill="white"/>
<path d="M46.9398 79.244L45.9605 79.5354L44.9639 79.7429L43.9132 79.4492L42.9169 79.6249L41.8977 79.4287L40.9019 79.707L39.8945 79.4423L38.8741 80.1251L37.8723 79.7842L36.887 79.4169L35.8857 79.3422L34.8661 79.3969L33.8486 79.3773L32.8841 79.0308L31.7993 79.2983L30.8427 78.9167L29.8589 78.6688L28.9752 78.0759L28.0821 77.5657L27.0874 77.3814L26.0935 77.1734L25.2532 76.566L24.2268 76.418L23.4255 75.7539L22.3882 75.5942L21.4496 75.2142L20.6704 74.5393L19.7584 74.1082L18.799 73.7437L18.0757 73.0056L17.1455 72.5817L16.43 71.8515L15.6577 71.2076L14.8616 70.5953L14.0486 70.0007L13.3428 69.2815L12.2709 68.9505L11.6836 68.101L10.8935 67.4563L10.2222 66.6964L9.73289 65.7812L9.32248 64.8165L8.4592 64.2199L7.51695 63.6612L6.98782 62.7892L6.82387 61.6818L6.32201 60.8118L5.48207 60.1422L5.08002 59.2082L4.54665 58.3482L4.14694 57.4192L3.99273 56.3809L3.51878 55.4943L3.06601 54.5947L2.47911 53.7392L2.56288 52.6433L1.83004 51.8234L1.30854 50.9197L1.50597 49.819L1.3735 48.8179L1.10139 47.8492L1.07544 46.8333L0.739538 45.872L0.606955 44.8758L0.33441 43.8936L0.0225856 42.9051L-0.104019 41.8957L0.135174 40.8735L0.35278 39.865L0.369731 38.862L0.496235 37.8641L0.0769968 36.8271L-0.0292742 35.797L0.133917 34.7907L0.708634 33.8506L0.620345 32.8115L1.29977 31.9185L1.20766 30.8687L1.33397 29.8587L1.47087 28.8448L2.14028 27.9922L2.0603 26.9002L2.83221 26.1043L3.25353 25.1908L3.63407 24.2625L4.05112 23.3498L4.20271 22.3055L5.06013 21.6142L4.89195 20.3746L5.79118 19.7234L6.3258 18.8696L6.6038 17.8455L7.40579 17.1674L8.20378 16.5027L8.81622 15.71L9.43775 14.9245L10.141 14.2081L10.4613 13.1492L10.941 12.2088L11.9969 11.8242L12.4507 10.8399L13.5398 10.5296L14.1894 9.74502L15.0513 9.2074L15.8055 8.54119L16.4791 7.75918L17.431 7.35721L18.0901 6.52889L19.1846 6.36913L19.8077 5.45086L20.8336 5.21032L21.6608 4.61923L22.7048 4.45615L23.4219 3.61612L24.2542 2.985L25.3229 2.91436L26.2362 2.46836L27.2898 2.42042L28.2238 2.03872L29.168 1.67576L30.1463 1.42555L31.1082 1.10492L32.075 0.781462L33.0831 0.656481L34.1436 0.900092L35.1285 0.7015L36.1172 0.502238L37.0899 0.0149937L38.1282 0.449695L39.1217 0.0169338L40.1358 -0.146722L41.154 -0.164965L42.1637 0.0240545L43.1778 0.0661531L44.1686 0.350871L45.1224 0.847398L46.1536 0.730585L47.171 0.766242L48.1668 0.940596L49.223 0.86873L50.0641 1.67252L51.1669 1.47659L52.1719 1.66938L53.024 2.32167L54.0103 2.5671L54.8729 3.13446L55.8001 3.52718L56.6929 3.99438L57.5901 4.44761L58.5236 4.8314L59.5141 5.12301L60.2995 5.78267L61.4091 5.91106L62.1883 6.58059L62.9862 7.21165L63.5665 8.13229L64.6071 8.42975L65.1999 9.30469L66.2546 9.62116L67.0417 10.2659L67.4149 11.3476L68.4138 11.7693L69.2378 12.3845L69.5741 13.4508L70.2025 14.2363L70.8978 14.9656L71.9122 15.4534L72.1882 16.5133L72.4999 17.5233L73.0932 18.3292L74.0435 18.9168L74.4103 19.8756L75.2696 20.5525L75.7554 21.4478L76.0944 22.4154L76.0635 23.545L76.8435 24.3018L76.7851 25.4138L77.3863 26.2589L77.8796 27.1553L77.8301 28.229L78.4655 29.0906L78.8598 30.0333L78.847 31.0766L79.0382 32.0663L79.1832 33.0637L79.1139 34.0916L79.2974 35.0768L79.3732 36.0757L80.0425 37.0295L79.8161 38.0572L79.9108 39.0635L79.7863 40.0727L79.7011 41.077L79.9828 42.0977L80.0274 43.1167L79.5363 44.0865L79.7809 45.1323L79.802 46.1627L79.1205 47.0742L78.7339 48.0207L78.6902 49.0386L78.498 50.0276L78.2121 50.9929L78.0091 51.9842L77.8389 52.9927L77.679 54.0146L76.8946 54.7956L76.8762 55.8844L76.3591 56.7654L75.5605 57.5015L75.4832 58.5953L75.0597 59.5214L74.2496 60.2228L74.0023 61.2572L73.385 62.0669L72.653 62.7922L71.8816 63.4771L71.4794 64.4356L71.1353 65.4592L70.1975 65.9974L69.4154 66.652L68.7864 67.4427L68.0211 68.1036L67.4919 69.0077L66.7225 69.6678L66.0579 70.4482L65.1796 70.979L64.1368 71.285L63.3247 71.8725L62.6671 72.6815L61.6857 73.0246L60.9012 73.6605L59.9884 74.0903L59.2664 74.8554L58.4709 75.5148L57.366 75.5659L56.6124 76.3327L55.7713 76.9443L54.6955 76.9967L53.8228 77.5509L52.6752 77.3265L51.7422 77.6948L50.9753 78.6659L49.8624 78.43L48.9136 78.7977L47.9242 79.0039L46.9407 79.2468L46.9398 79.244ZM33.8306 4.89808L32.8739 5.21241L31.9162 5.4932L30.8468 5.33768L29.9028 5.69328L28.8639 5.74353L27.9881 6.29727L26.9475 6.39083L26.2806 7.41359L25.2474 7.5381L24.21 7.69414L23.3178 8.16574L22.5165 8.79821L21.713 9.40911L20.7654 9.78342L20.191 10.7254L19.282 11.1598L18.4805 11.7518L17.4855 12.1071L16.5637 12.5776L15.8977 13.3494L15.2583 14.1391L14.3569 14.6612L13.8473 15.5683L12.9638 16.1282L12.5393 17.0907L11.9773 17.9249L11.1912 18.5879L10.6685 19.4508L10.2606 20.3849L9.52739 21.1061L9.15821 22.0544L8.51149 22.8414L7.99934 23.7088L7.56911 24.619L7.21049 25.5605L6.7505 26.4574L6.83815 27.5651L6.31413 28.4346L6.11253 29.4174L5.8053 30.3645L5.31718 31.2683L4.78837 32.1772L4.88157 33.2248L5.11578 34.2783L4.89322 35.2477L4.29151 36.1817L4.15289 37.1803L4.46068 38.2042L4.31196 39.1981L4.36787 40.1981L4.32744 41.1983L4.07284 42.2163L4.22597 43.2152L4.40764 44.2067L4.78148 45.1666L4.50478 46.2286L5.12888 47.1313L5.57968 48.0503L5.35855 49.1333L5.52609 50.1306L5.88274 51.0736L6.05337 52.0802L6.57064 52.9625L6.94376 53.8963L7.4942 54.7503L8.12423 55.5561L8.63206 56.4128L8.86584 57.4195L9.17309 58.4015L9.70201 59.2584L10.1856 60.1467L11.1601 60.6885L11.9132 61.3655L12.4917 62.1706L12.7971 63.214L13.6553 63.79L13.9789 64.8595L14.9127 65.3508L15.7197 65.9528L16.552 66.5177L17.057 67.4639L18.0987 67.765L18.6168 68.7328L19.3982 69.3702L20.2367 69.9286L21.0824 70.4759L22.1056 70.7217L22.761 71.6047L23.9925 71.4169L24.6864 72.2632L25.5942 72.6902L26.6404 72.7838L27.4676 73.4087L28.3262 73.9929L29.2832 74.3158L30.2527 74.5989L31.2094 74.9341L32.2947 74.7169L33.3282 74.6358L34.2249 75.2885L35.2709 75.0503L36.2031 75.6773L37.2198 75.6089L38.2143 75.8114L39.2225 75.7925L40.2273 75.5791L41.2347 75.7827L42.2197 75.4155L43.2554 75.7905L44.2047 75.2234L45.2371 75.3859L46.2074 75.096L47.2565 75.2253L48.1402 74.5666L49.0469 74.0914L50.098 74.1515L51.0259 73.7684L52.0735 73.7337L52.9897 73.3121L53.8901 72.8616L54.8136 72.4705L55.6828 71.9653L56.5226 71.4131L57.4304 70.9935L58.5064 70.8453L59.3323 70.2612L60.1257 69.6341L60.7154 68.7319L61.8169 68.5343L62.3598 67.6023L63.0265 66.8479L63.7491 66.1667L64.5775 65.5969L65.2694 64.8801L66.1002 64.2932L67.0593 63.804L67.5164 62.8685L68.0425 62.005L68.6343 61.1983L68.9741 60.2161L70.0135 59.7137L70.1465 58.6111L70.5658 57.7053L71.3614 57.0102L71.7364 56.0785L72.3732 55.2766L72.7955 54.3659L73.245 53.4655L73.6329 52.5369L73.8963 51.5638L74.0041 50.5458L74.4633 49.6388L74.2694 48.5557L74.636 47.6235L74.9099 46.6647L75.4897 45.7511L75.2516 44.7031L75.6847 43.748L75.3428 42.714L75.369 41.7216L75.9435 40.742L75.5546 39.7382L75.3728 38.7488L75.8013 37.7289L75.7708 36.7231L75.5998 35.7312L74.9804 34.8077L75.2327 33.7574L75.3719 32.7064L75.1157 31.7282L74.4034 30.8719L74.3098 29.861L73.6222 29.0311L73.2981 28.0956L73.0762 27.1201L73.1731 26.0013L72.3966 25.2473L72.399 24.1369L71.7109 23.3574L71.0861 22.5585L70.9085 21.5014L70.07 20.8403L69.408 20.0832L69.0464 19.1181L68.4658 18.3011L67.8784 17.4868L67.4127 16.564L66.7088 15.8387L66.0459 15.0768L64.9256 14.7743L64.4047 13.8765L63.6229 13.2484L62.9493 12.4948L62.2117 11.8091L61.2195 11.4581L60.346 10.9675L59.7439 10.0756L58.7043 9.84496L57.767 9.47798L57.1528 8.5374L56.3532 7.89394L55.3698 7.60986L54.4341 7.24065L53.5169 6.83248L52.5484 6.55507L51.5546 6.36471L50.5482 6.24158L49.7194 5.52947L48.6499 5.66184L47.7076 5.32506L46.8087 4.72893L45.7471 4.97574L44.7533 4.89879L43.8046 4.43117L42.7797 4.66663L41.7916 4.52512L40.8 4.29478L39.7968 4.06209L38.7979 4.34233L37.8215 4.76084L36.7998 4.46787L35.7865 4.42221L34.8013 4.63307L33.8291 4.89785L33.8306 4.89808Z" fill="#DDDDDD"/>
<g opacity="0.5">
<path d="M20.0099 71.6582C19.8557 71.6854 19.6818 71.6777 19.4924 71.6172C19.4142 71.5922 19.3417 71.5614 19.2798 71.5335C19.1521 71.5186 19.0147 71.4782 18.8676 71.4025C18.7945 71.3651 18.7059 71.3141 18.5883 71.2424C18.3988 71.1268 18.1545 70.9696 17.9188 70.8176C17.682 70.6648 17.3393 70.444 17.1831 70.3541C17.0933 70.3259 17.0059 70.2838 16.9249 70.2267C16.498 69.9278 16.3943 69.3395 16.6932 68.9126C16.7782 68.7912 16.9301 68.6499 17.1355 68.5706C17.1911 68.4971 17.3794 68.2775 17.6894 68.2065C17.7232 68.121 17.7607 68.0593 17.7803 68.029C17.7861 67.8119 17.866 67.6239 17.9503 67.5041C18.1455 67.2254 18.5149 67.027 18.9524 67.1252C18.9769 67.0931 19.0039 67.0615 19.0332 67.0319C18.7951 66.6216 18.9276 66.213 19.0727 66.0059C19.0926 65.9774 19.1762 65.8649 19.3207 65.7657C19.356 65.6861 19.3912 65.633 19.4039 65.6154C19.487 65.4968 19.6339 65.3597 19.8315 65.2798C19.91 65.2056 20.0101 65.1348 20.1296 65.0845C20.1744 65.0205 20.2301 64.959 20.2956 64.9034C20.3267 64.8164 20.3659 64.7453 20.4002 64.6928C20.1647 64.2916 20.2545 63.8881 20.4309 63.6357C20.6617 63.3061 21.1377 63.0875 21.6808 63.3415C21.7341 63.3666 21.7943 63.3981 21.8671 63.439C21.8538 63.3853 21.846 63.3325 21.8426 63.2809C21.31 62.7002 21.6846 62.1238 21.7317 62.0566C21.8033 61.9544 21.8987 61.8623 22.0123 61.7925C22.0424 61.6913 22.0877 61.5976 22.1444 61.5167C22.1723 61.4768 22.3278 61.2692 22.6004 61.1684C22.564 60.8912 22.6603 60.6438 22.7625 60.4978C22.8823 60.3267 23.0919 60.1599 23.3661 60.1034C23.3061 59.7633 23.4455 59.502 23.5316 59.379C23.566 59.3298 23.8042 59.0119 24.234 58.9739C24.0451 58.5195 24.2985 58.1308 24.3368 58.0761C24.3479 58.0603 24.3796 58.0173 24.4308 57.9652C24.4691 57.8731 24.51 57.8113 24.5239 57.7921C24.6433 57.6215 24.9732 57.2697 25.593 57.4071C25.5778 57.1688 25.6545 56.9516 25.7647 56.7942C25.8255 56.7073 25.9767 56.5264 26.2264 56.4373C26.0253 55.9764 26.2829 55.5812 26.3215 55.5255C26.3846 55.4353 26.5457 55.2431 26.8135 55.1585C26.684 54.8042 26.8014 54.4702 26.9273 54.2903C27.0532 54.1105 27.2657 53.9542 27.5226 53.9027C27.5306 53.6224 27.6661 53.415 27.6937 53.3761C27.7301 53.3242 27.9795 52.9918 28.4215 52.9738C28.5387 52.9052 28.6877 52.8506 28.8665 52.8483C28.8945 52.8252 28.9238 52.8037 28.9548 52.7839C28.7894 52.4384 28.8563 52.0759 29.032 51.825C29.164 51.6364 29.4573 51.4002 29.8619 51.4232C29.8892 51.3552 29.924 51.2916 29.9642 51.2342C30.1203 51.0111 30.3924 50.8367 30.7215 50.8285C30.3885 50.4234 30.4429 49.9491 30.6557 49.6451C30.6622 49.6358 30.6769 49.616 30.6987 49.5901C30.6718 49.2609 30.837 49.008 30.8673 48.9648C30.9289 48.8768 31.0086 48.7962 31.1025 48.7308C31.1392 48.6457 31.177 48.5882 31.1901 48.5701C31.2261 48.5187 31.2831 48.4483 31.3635 48.38C31.3596 48.1047 31.4666 47.8995 31.5475 47.7846C31.5766 47.743 31.7414 47.5228 32.0309 47.4258C32.0091 47.1853 32.08 46.9571 32.1983 46.7882C32.2331 46.7385 32.4663 46.4281 32.8766 46.3879C32.9031 46.3348 32.9284 46.2958 32.9438 46.2744C32.9828 46.2187 33.0292 46.1664 33.0816 46.1184C33.0452 45.8416 33.1416 45.5946 33.2438 45.4487C33.2786 45.399 33.523 45.0732 33.9636 45.0424C33.9876 44.8715 34.0523 44.7379 34.0939 44.6668C34.0075 44.3701 34.0776 44.0746 34.228 43.8598C34.4148 43.593 34.765 43.3971 35.1812 43.4694C34.9532 43.0132 35.1656 42.6342 35.2552 42.5062C35.2958 42.4483 35.6027 42.0396 36.145 42.1098C36.1973 42.056 36.2655 41.997 36.3506 41.947C36.3268 41.6139 36.4902 41.3638 36.5197 41.3217C36.6938 41.073 37.0123 40.8846 37.3937 40.9199C37.4717 40.8381 37.5834 40.7484 37.7323 40.6881C37.5814 40.3377 37.6621 39.9967 37.8133 39.7697C37.5984 39.4018 37.6614 39.0036 37.8497 38.7346C37.8799 38.6914 38.0618 38.4486 38.3808 38.3612C38.4054 38.2179 38.4616 38.0853 38.5393 37.9744C38.62 37.859 38.8079 37.6472 39.1316 37.5757C39.1619 37.4511 39.215 37.3392 39.278 37.2485C39.438 37.02 39.7149 36.8457 40.0504 36.844C40.0757 36.6939 40.1354 36.5598 40.2104 36.4522C40.3367 36.2718 40.611 36.0476 40.9882 36.0486C40.6859 35.652 40.7411 35.1986 40.9493 34.9012C40.9822 34.8542 41.0414 34.7796 41.1288 34.7072C40.9891 34.2819 41.22 33.9283 41.2563 33.8759C41.2869 33.8322 41.468 33.5904 41.7877 33.5038C41.7991 33.4846 41.8115 33.4651 41.8246 33.447C41.9337 33.2912 42.1553 33.1027 42.4558 33.054C42.466 32.8701 42.5296 32.6984 42.6261 32.5607C42.6341 32.5492 42.6534 32.5228 42.683 32.4893C42.5844 32.1828 42.6546 31.8748 42.8093 31.6539C42.8586 31.5834 42.9316 31.5054 43.0244 31.4368C43.0604 31.2795 43.1301 31.1585 43.1806 31.0859C43.2188 31.0312 43.2712 30.9721 43.3357 30.9167C43.3544 30.8813 43.3736 30.8492 43.3935 30.8207C43.5125 30.6507 43.7635 30.4407 44.1093 30.4185C44.1352 30.3368 44.1699 30.2646 44.2063 30.205C44.2034 29.9956 44.2704 29.7994 44.3784 29.6457C44.4465 29.5484 44.7784 29.1315 45.3798 29.2602C45.2415 28.9267 45.3116 28.5823 45.4777 28.3451C45.5041 28.3073 45.5368 28.2676 45.576 28.2286C45.5841 27.9813 45.6945 27.7922 45.7528 27.7096C45.788 27.6593 46.0254 27.3429 46.4438 27.308C46.4709 27.0814 46.5744 26.916 46.6127 26.8613C46.6939 26.7455 46.9337 26.4646 47.3542 26.4551C46.8976 25.8849 47.2136 25.3669 47.287 25.2619C47.3092 25.2302 47.4108 25.0944 47.5868 24.9891C47.6142 24.7912 47.6993 24.6406 47.7582 24.5565C47.86 24.4111 48.0571 24.2378 48.327 24.1763C48.3277 23.884 48.4707 23.6652 48.4986 23.6253C48.5491 23.5531 49.0124 22.9386 49.83 23.38C49.911 23.3178 50.0042 23.2673 50.1059 23.2331C50.1942 23.1222 50.3157 23.0207 50.4653 22.9532C50.3851 22.5802 50.565 22.2878 50.6186 22.2113C50.7124 22.0774 50.8888 21.9178 51.129 21.8453C50.622 21.2716 50.9899 20.706 51.0362 20.6394C51.0821 20.5738 51.1612 20.4789 51.2782 20.3955C51.2864 20.2081 51.3508 20.0325 51.4491 19.892C51.5177 19.7941 51.6298 19.6828 51.7794 19.6018C51.792 19.5867 51.8061 19.5713 51.821 19.5552C51.8639 19.3747 51.9466 19.2485 51.9672 19.219C52.0281 19.132 52.0862 19.0701 52.1351 19.0241C52.2014 18.9462 52.2861 18.8724 52.3868 18.8134C52.4099 18.6369 52.4781 18.4859 52.5494 18.3847C52.6202 18.2836 52.9742 17.8402 53.6187 18.0174C53.6243 18.014 53.63 18.0106 53.6361 18.0072C53.6675 17.9163 53.7093 17.8381 53.7517 17.7774C53.7942 17.7167 53.847 17.6576 53.9094 17.6035C53.3826 17.0097 53.7138 16.4645 53.7904 16.3552C53.8761 16.2328 54.0302 16.0901 54.2381 16.0113C54.2671 15.9123 54.3125 15.8166 54.3741 15.7286C54.4124 15.6739 54.4626 15.6133 54.527 15.5546C54.5488 15.3768 54.6176 15.2238 54.6896 15.121C54.7811 14.9904 54.9369 14.8307 55.1855 14.7404C55.1912 14.7374 55.1973 14.734 55.203 14.731C55.0736 14.3126 55.2988 13.9676 55.3347 13.9158C55.4381 13.7682 55.5943 13.6405 55.7849 13.5695C55.8101 13.5196 55.8357 13.4796 55.8552 13.4517C55.9398 13.3309 56.0576 13.2249 56.1994 13.1515C56.3567 12.9728 56.5914 12.8418 56.869 12.8293C56.8729 12.8272 56.8764 12.8251 56.8803 12.823C56.4453 12.2471 56.7911 11.7161 56.8351 11.6533C56.9327 11.5139 57.1758 11.2463 57.6108 11.2348C57.6212 11.2176 57.6321 11.2008 57.6436 11.1844C57.6903 11.1177 57.7892 10.9968 57.9449 10.9042C57.7805 10.4857 57.9724 10.1447 58.0567 10.0249C58.0996 9.96369 58.44 9.51126 59.0427 9.64694C59.053 9.61015 59.0659 9.57435 59.0804 9.53969C59.0849 9.29358 59.1881 9.1048 59.2585 9.00376C59.4456 8.73646 59.8049 8.53512 60.2296 8.61499C60.2827 8.56539 60.3501 8.51278 60.4323 8.4681C60.461 8.38925 60.4997 8.31535 60.5461 8.2492C60.845 7.8223 61.4333 7.71856 61.8602 8.01749C61.9465 8.07796 62.0197 8.15035 62.0788 8.23048C62.1904 8.32485 62.4178 8.50082 62.5771 8.62415C62.7563 8.76265 62.9416 8.90628 63.0823 9.02233C63.1749 9.09896 63.2435 9.15921 63.2975 9.21247C63.7273 9.63688 63.6855 10.1608 63.4541 10.4919C63.3561 10.6319 63.0952 10.9213 62.6167 10.917C62.6129 10.9224 62.6096 10.9278 62.6057 10.9333C62.4909 11.0973 62.3022 11.2499 62.0575 11.3131C62.0436 11.3486 62.0278 11.3835 62.0096 11.4164C62.3903 11.8716 62.2974 12.3613 62.0968 12.6473C62.0692 12.6866 61.9184 12.8881 61.6533 12.9905C61.6298 13.2078 61.5373 13.3707 61.478 13.4555C61.2563 13.7719 60.7989 13.9925 60.2754 13.7739C60.2692 13.7711 60.2625 13.7685 60.2557 13.7654C60.3003 13.9204 60.3022 14.0753 60.2732 14.2179C60.5027 14.6226 60.4041 15.0309 60.2335 15.2752C60.0656 15.5156 59.6321 15.8369 59.0407 15.5919C59.5081 16.1558 59.1541 16.6997 59.1083 16.7658C58.9723 16.9594 58.6662 17.2041 58.2439 17.165C58.2406 17.3855 58.1599 17.577 58.0745 17.6989C58.0274 17.7661 57.9699 17.8285 57.903 17.8839C58.0123 18.2862 57.8485 18.5911 57.7586 18.7196C57.7276 18.7638 57.6908 18.8077 57.6487 18.8491C57.6401 19.0366 57.576 19.2112 57.4781 19.3516C57.3713 19.5041 57.2111 19.6335 57.0159 19.7029C56.9964 19.8889 56.9249 20.0486 56.8507 20.1546C56.6965 20.3754 56.403 20.58 56.0182 20.5664C56.1124 20.9508 55.9267 21.2538 55.8716 21.3325C55.8325 21.3882 55.7786 21.449 55.7119 21.5058C55.6806 21.7356 55.5722 21.9008 55.5485 21.9347C55.4034 22.1419 55.0642 22.4058 54.5966 22.3215C54.8176 22.754 54.6181 23.1418 54.545 23.2596C54.5422 23.4719 54.4694 23.6625 54.371 23.803C54.2658 23.9533 54.11 24.0804 53.9195 24.1499C53.8942 24.1994 53.8691 24.2388 53.85 24.2662C53.7914 24.3498 53.7006 24.4434 53.5822 24.5194C53.5527 24.5802 53.5241 24.6245 53.5076 24.648C53.4112 24.7858 53.2571 24.9203 53.0584 24.997C53.0427 25.1689 52.9813 25.3287 52.8906 25.4583C52.8362 25.5359 52.7613 25.6215 52.6596 25.6969C52.6498 25.9406 52.5413 26.1264 52.4834 26.2085C52.4623 26.2386 52.3693 26.3633 52.2083 26.4664C52.0979 26.6119 51.8945 26.779 51.6215 26.831C51.9253 27.3395 51.6275 27.7973 51.5854 27.8574C51.4825 28.0045 51.305 28.18 51.0167 28.2596C51.0021 28.2665 50.9873 28.2724 50.9721 28.2785C50.9494 28.3261 50.9232 28.3705 50.8952 28.4104C50.847 28.4792 50.6657 28.7091 50.35 28.7911C50.3152 28.8763 50.2743 28.9434 50.2422 28.9893C50.2268 29.0107 50.2063 29.0383 50.18 29.0688C50.3023 29.477 50.1009 29.8048 50.0439 29.8862C49.9294 30.0497 49.755 30.1853 49.5422 30.2502C49.4483 30.3587 49.2304 30.5634 48.899 30.5912C48.8641 30.6352 48.8213 30.6806 48.7709 30.7235C48.7952 30.9617 48.7259 31.1885 48.6043 31.3628C48.6031 31.3644 48.602 31.3661 48.6008 31.3677C48.6452 31.7034 48.5074 31.9548 48.4287 32.0679C48.3288 32.2106 48.1357 32.3816 47.8711 32.4465C47.8718 32.6649 47.7978 32.8619 47.6967 33.0062C47.5727 33.1833 47.3062 33.4028 46.9384 33.4092C46.9552 33.7273 46.7963 33.9704 46.7669 34.0125C46.7317 34.0628 46.625 34.1995 46.4469 34.3013C46.4601 34.539 46.3826 34.7544 46.2743 34.9091C46.2311 34.9708 45.8782 35.4398 45.2584 35.2832C45.2532 35.2999 45.2479 35.3162 45.2417 35.3326C45.6614 35.8757 45.3971 36.3521 45.2944 36.4982C45.2894 36.5053 45.2798 36.5185 45.2664 36.5352C45.2455 36.7071 45.1801 36.8609 45.0967 36.9801C44.9191 37.2337 44.5564 37.4677 44.0822 37.3702C44.0783 37.3997 44.0733 37.4288 44.0672 37.4567C44.0594 37.5783 44.0314 37.694 43.9836 37.803C43.9591 37.895 43.9153 38.0106 43.8346 38.1316C43.8221 38.3815 43.7178 38.5671 43.6542 38.6579C43.5486 38.8088 43.3396 38.9903 43.0532 39.0451C42.8821 39.219 42.6298 39.3421 42.3364 39.3334C42.1995 39.4831 42.0081 39.5959 41.7824 39.6314C41.7782 39.6403 41.7744 39.6486 41.7702 39.6571C41.8438 39.7159 41.9021 39.7641 41.9497 39.806C42.6554 40.4247 42.2326 41.0757 42.182 41.1478C42.0064 41.3987 41.6562 41.6248 41.1977 41.5408C41.1442 41.5608 41.0861 41.5763 41.0242 41.5863C41.1993 41.9598 41.1073 42.3267 40.9451 42.559C40.8792 42.653 40.7915 42.7394 40.6875 42.8075C40.6823 42.8185 40.677 42.829 40.6716 42.8396C40.7021 43.1102 40.6074 43.3506 40.5072 43.4938C40.3372 43.7365 39.8976 44.0613 39.2977 43.8029C39.2707 43.8752 39.2362 43.9431 39.1947 44.0041C39.4689 44.502 39.2077 44.928 39.1423 45.0219C39.1224 45.0503 39.0367 45.1651 38.89 45.2648C38.8664 45.3159 38.8386 45.3644 38.8071 45.4087C38.6475 45.6367 38.3681 45.8129 38.03 45.8141C38.0287 45.8148 38.0269 45.8156 38.0256 45.8163C37.9963 45.8948 37.9576 45.9658 37.9143 46.0276C37.8822 46.0735 37.6727 46.3529 37.2962 46.4212C37.365 46.765 37.2106 47.0361 37.1374 47.1401C37.0934 47.2029 36.9443 47.3926 36.6861 47.4884C36.6684 47.6784 36.5961 47.8421 36.5204 47.9503C36.44 48.0651 36.3111 48.2009 36.1142 48.2936C36.2949 48.647 36.2287 49.0218 36.0492 49.2782C36.0209 49.3186 35.8619 49.5311 35.583 49.6311C35.6113 49.8762 35.5411 50.1109 35.4174 50.2875C35.4071 50.3022 35.3801 50.3391 35.336 50.3852C35.3372 50.615 35.2537 50.8151 35.1656 50.9404C35.1407 50.9759 35.0124 51.1475 34.789 51.2559C34.7862 51.5444 34.6454 51.7594 34.6175 51.7993C34.5333 51.9196 34.4092 52.0339 34.2523 52.1114C34.2543 52.3185 34.1877 52.5138 34.0805 52.6668C34.0583 52.6985 33.9502 52.8436 33.7598 52.9514C33.742 52.9833 33.7246 53.0099 33.7105 53.0301C33.5926 53.1985 33.411 53.3373 33.1892 53.3999C33.2016 53.6224 33.1335 53.8338 33.019 53.9972C32.9854 54.0453 32.8873 54.1713 32.7247 54.2709C32.7447 54.4523 32.71 54.6276 32.6393 54.7781C32.6115 54.8625 32.5663 54.9649 32.4887 55.0763C32.4405 55.1452 32.2595 55.3745 31.9443 55.4564C31.9497 55.7583 31.801 55.9857 31.7728 56.0266C31.749 56.0605 31.6343 56.214 31.4347 56.3215C31.2842 56.4951 31.05 56.6394 30.754 56.6538C30.7692 56.8921 30.6924 57.1088 30.5822 57.2662C30.5083 57.3717 30.4047 57.4714 30.2761 57.5463C30.4538 57.9946 30.2065 58.3746 30.1682 58.4288C29.9657 58.7179 29.5263 58.9784 28.9546 58.7582C28.9064 58.7399 28.8591 58.719 28.814 58.6972C28.877 58.9755 28.8063 59.2486 28.6655 59.4498C28.6042 59.5372 28.4873 59.6729 28.3034 59.7657C28.4109 60.1688 28.1963 60.498 28.161 60.5478C28.1556 60.5554 28.146 60.5686 28.1318 60.586C28.1197 60.626 28.1054 60.662 28.0915 60.6942C28.1468 60.9671 28.0754 61.2337 27.9384 61.4293C27.8913 61.4966 27.4787 62.0451 26.755 61.7477C26.8673 62.0911 26.7528 62.4117 26.6308 62.5865C26.5646 62.6811 26.3924 62.8864 26.1023 62.9643C26.3947 63.3886 26.3059 63.8254 26.1179 64.0933C26.0857 64.1392 25.8848 64.407 25.5305 64.4791C25.4882 64.6633 25.4036 64.7923 25.383 64.8218C25.2896 64.9552 25.1156 65.1123 24.8783 65.1853C24.9839 65.5179 24.893 65.8339 24.75 66.0388C24.5306 66.352 24.0767 66.5734 23.5572 66.3612C23.4891 66.3334 23.4136 66.2964 23.3201 66.2444C23.2622 66.2125 23.1987 66.1757 23.1329 66.1366C23.099 66.2134 23.0633 66.2691 23.0442 66.2969C23.0324 66.3138 23.0173 66.3342 22.9987 66.3567C23.3791 66.7721 23.3327 67.2699 23.1091 67.5887C23.1057 67.5936 23.1022 67.5985 23.0983 67.6035C23.1052 67.645 23.1084 67.6851 23.1091 67.7243C23.1849 68.0947 23.048 68.3699 22.9478 68.5136C22.9291 68.5404 22.8523 68.643 22.7216 68.7384C22.718 68.9599 22.6364 69.1521 22.5515 69.2739C22.5079 69.3362 22.1392 69.8267 21.4696 69.6405C21.4546 69.6532 21.4386 69.6661 21.4225 69.678C21.7961 70.2125 21.4723 70.7104 21.4282 70.7728C21.3655 70.8624 21.2836 70.9444 21.187 71.0108C21.1616 71.0675 21.1319 71.1192 21.0994 71.1657C21.0607 71.2209 20.777 71.5982 20.2762 71.5676C20.1953 71.6087 20.105 71.64 20.0069 71.6573L20.0099 71.6582ZM17.8406 70.3197C17.8161 70.3302 17.791 70.3399 17.7656 70.3482C17.791 70.3399 17.8162 70.3307 17.8412 70.32L17.8406 70.3197ZM23.0579 68.0615C23.0144 68.1875 22.9582 68.2736 22.941 68.2982C22.9949 68.2207 23.033 68.1406 23.0579 68.0615ZM24.4469 65.6135C24.4469 65.6135 24.4469 65.6135 24.4465 65.6141C24.4465 65.6141 24.4465 65.6141 24.4469 65.6135ZM24.5651 65.379C24.536 65.4642 24.4963 65.543 24.4477 65.6125C24.5003 65.5361 24.5387 65.4575 24.5651 65.379ZM25.7449 63.2252C25.7158 63.3343 25.668 63.4357 25.6068 63.5236C25.6749 63.4259 25.7194 63.3251 25.7454 63.2252L25.7449 63.2252ZM20.9223 64.1973C20.8949 64.2376 20.871 64.2782 20.8509 64.3191C20.8724 64.2756 20.8959 64.235 20.9219 64.1978L20.9223 64.1973ZM20.9234 64.1952L20.9226 64.1963C20.9226 64.1963 20.9229 64.1953 20.9234 64.1952ZM23.3312 60.4656C23.2886 60.5062 23.2483 60.5521 23.212 60.6045C23.2315 60.5766 23.2713 60.525 23.331 60.467C23.331 60.467 23.3309 60.4661 23.3308 60.4657L23.3312 60.4656ZM28.218 59.5503C28.218 59.5503 28.2181 59.5512 28.2182 59.5516C28.257 59.5137 28.2939 59.4703 28.328 59.4216C28.3096 59.4478 28.2726 59.4961 28.2175 59.5503L28.218 59.5503ZM23.6598 59.6794C23.6086 59.7531 23.571 59.8282 23.5453 59.9027C23.5756 59.8188 23.615 59.7433 23.6598 59.6794ZM29.6072 58.2421C29.5835 58.276 29.4706 58.4262 29.2717 58.5346C29.3948 58.4722 29.5122 58.3772 29.6072 58.2421ZM29.8437 57.0069C29.8515 56.9969 29.8587 56.9865 29.866 56.9761C29.8587 56.9865 29.8509 56.9965 29.8432 57.007L29.8437 57.0069ZM30.2301 56.5492C30.2014 56.6228 30.1662 56.6865 30.1303 56.7384C30.173 56.6767 30.207 56.6137 30.2322 56.5503C30.2317 56.5504 30.2307 56.5496 30.2301 56.5492ZM40.6523 41.9178C40.6523 41.9178 40.6525 41.9187 40.6531 41.9195C40.673 41.8744 40.6884 41.8285 40.6999 41.7829C40.6862 41.8327 40.6693 41.8784 40.6519 41.9178L40.6523 41.9178ZM43.8834 37.9874C43.8834 37.9874 43.8826 37.9885 43.8822 37.9891C43.8826 37.9885 43.883 37.988 43.8834 37.9874ZM44.508 36.9023C44.4736 36.9409 44.4359 36.9773 44.3949 37.0108C44.4343 36.979 44.4725 36.943 44.5085 36.9022L44.508 36.9023ZM40.6987 37.045C40.7055 37.0347 40.7115 37.0255 40.7172 37.0168C40.7107 37.0261 40.7047 37.0353 40.6982 37.0451L40.6987 37.045ZM45.9126 34.4444L45.9121 34.4445C45.9121 34.4445 45.9121 34.4445 45.9126 34.4444ZM45.9278 34.422C45.9233 34.4291 45.9183 34.4362 45.9138 34.4432C45.9188 34.4361 45.9233 34.4291 45.9278 34.422ZM48.4131 31.7841C48.4038 31.7992 48.3944 31.8138 48.3844 31.8275C48.3943 31.8133 48.4037 31.7987 48.4131 31.7841ZM48.414 31.7835L48.4135 31.7836C48.4135 31.7836 48.4135 31.7836 48.414 31.7835ZM45.328 29.8141C45.328 29.8141 45.33 29.8147 45.3311 29.815C45.3795 29.7744 45.4345 29.7359 45.4956 29.7022C45.4955 29.7017 45.4954 29.7012 45.4954 29.7008C45.4375 29.7311 45.3809 29.7689 45.3276 29.8142L45.328 29.8141ZM51.409 27.9412C51.3933 27.9637 51.3414 28.0332 51.2545 28.1084C51.3101 28.0622 51.3631 28.0068 51.409 27.9412ZM47.8017 26.1347C47.7835 26.1863 47.7701 26.238 47.7614 26.2894C47.7708 26.2365 47.7847 26.1851 47.8024 26.1355C47.8024 26.1355 47.8023 26.1351 47.8017 26.1347ZM56.2069 20.1009C56.2069 20.1009 56.2069 20.1014 56.207 20.1018C56.2424 20.0659 56.276 20.0259 56.3075 19.9816C56.2784 20.0231 56.2448 20.0636 56.2073 20.1008L56.2069 20.1009ZM57.8298 18.2322C57.798 18.3288 57.7546 18.4117 57.7103 18.4756C57.765 18.3969 57.8041 18.3148 57.8298 18.2322ZM54.4421 17.372C54.4421 17.372 54.4426 17.3719 54.443 17.3718C54.4712 17.2816 54.512 17.1977 54.562 17.1228C54.5069 17.2044 54.4676 17.2885 54.4421 17.372ZM60.0754 14.6663C60.0461 14.7448 60.0083 14.8156 59.9658 14.8768C60.0136 14.808 60.0496 14.7374 60.0754 14.6663ZM54.867 15.0236C54.867 15.0236 54.867 15.0236 54.8666 15.0242C54.8666 15.0242 54.8666 15.0242 54.867 15.0236ZM61.5309 13.0302C61.4916 13.1282 61.4482 13.1943 61.4336 13.2151C61.4757 13.1549 61.5084 13.0927 61.5328 13.0299C61.5318 13.0301 61.5314 13.0302 61.5304 13.0303L61.5309 13.0302ZM58.9118 13.3119C58.9447 13.2649 58.9721 13.2165 58.9947 13.1679C58.9933 13.1682 58.9925 13.1688 58.9912 13.1695C58.9574 13.2444 58.9245 13.2943 58.9123 13.3118L58.9118 13.3119ZM60.2465 12.8001C60.2163 12.8433 60.1641 12.909 60.089 12.975C60.1456 12.9262 60.1987 12.8684 60.2465 12.8001ZM61.7064 12.1613C61.7064 12.1613 61.7064 12.1613 61.706 12.1618C61.706 12.1618 61.706 12.1618 61.7064 12.1613ZM61.8257 11.9251C61.7956 12.0124 61.7545 12.092 61.7072 12.1607C61.7607 12.0837 61.7995 12.0045 61.8257 11.9251ZM57.4719 12.7081C57.4946 12.6601 57.5206 12.6148 57.55 12.5722C57.5191 12.6169 57.4931 12.6623 57.4719 12.7077L57.4719 12.7081ZM57.5512 12.5706C57.5512 12.5706 57.5512 12.5706 57.5512 12.571C57.5512 12.571 57.5512 12.571 57.5512 12.5706ZM57.3586 12.2394C57.3491 12.2535 57.3396 12.2677 57.3312 12.2821C57.3404 12.2666 57.3499 12.2524 57.3586 12.2394ZM57.1902 11.6266C57.1808 11.6383 57.1715 11.651 57.1627 11.6635C57.1707 11.6521 57.1801 11.6399 57.1902 11.6266ZM63.1993 10.5253C63.1859 10.5445 63.1714 10.5628 63.1565 10.5813C63.171 10.5634 63.1854 10.5446 63.1993 10.5253ZM63.2001 10.5242C63.2001 10.5242 63.2001 10.5242 63.1997 10.5248C63.1997 10.5248 63.1997 10.5248 63.2001 10.5242ZM63.2008 10.5232L63.2004 10.5232C63.2004 10.5232 63.2004 10.5232 63.2008 10.5232ZM62.4091 10.3288C62.4091 10.3288 62.408 10.3309 62.4077 10.3319C62.4085 10.3313 62.4089 10.3308 62.4097 10.3297C62.41 10.3286 62.4108 10.3276 62.4111 10.3265C62.4102 10.3272 62.4098 10.3277 62.4094 10.3283L62.4091 10.3288ZM58.9177 10.897C58.9285 10.8793 58.9379 10.8647 58.9451 10.8543C58.9352 10.8685 58.9262 10.8826 58.9171 10.8966L58.9177 10.897ZM62.1584 9.23029C62.1728 9.20332 62.1857 9.17612 62.1967 9.14879L62.1958 9.14896C62.1848 9.17629 62.1722 9.20294 62.1582 9.22937L62.1584 9.23029ZM62.263 8.87022C62.265 8.84592 62.266 8.82178 62.2656 8.79789C62.2655 8.82186 62.2645 8.846 62.2625 8.86983L62.263 8.87022Z" fill="#DDDDDD"/>
</g>
<path d="M51.9305 32.2859L53.9905 31.9226L54.3507 33.9653L52.2907 34.3286L52.8981 37.7735L50.4053 38.213L48.8486 29.3844L51.3414 28.9448L51.9305 32.2859ZM39.747 38.5038C41.3549 37.8038 42.5673 36.9861 43.3841 36.0508C44.1999 35.1096 44.6149 34.1232 44.6293 33.0913L39.7649 33.949L39.4169 31.9756L47.0165 30.6356C47.3852 32.7601 47.0623 34.6406 46.0479 36.2772C45.0324 37.908 43.377 39.25 41.0817 40.3033L39.747 38.5038ZM42.5083 40.1945L52.9988 38.3447L54.1099 44.646L43.6194 46.4957L42.5083 40.1945ZM51.3098 43.1406L50.8917 40.769L45.3348 41.7488L45.753 44.1204L51.3098 43.1406Z" fill="#AAAAAA"/>
<path d="M33.8597 44.469L26.1217 45.8334L24.2566 35.2563L31.9947 33.8919L33.8597 44.469ZM31.0363 42.932L29.8611 36.2672L27.0567 36.7617L28.2319 43.4265L31.0363 42.932ZM33.6537 32.0643L36.1465 31.6248L37.1843 37.5106L39.4348 37.1137L39.798 39.1738L37.5476 39.5706L38.9486 47.5164L36.4558 47.9559L33.6537 32.0643Z" fill="#AAAAAA"/>
<path fill-rule="evenodd" clip-rule="evenodd" d="M48.8483 29.3841L51.3411 28.9445L51.9302 32.2855L53.9902 31.9223L54.3504 33.965L52.2904 34.3283L52.8978 37.7732L50.405 38.2127L48.8483 29.3841ZM52.9985 38.3444L42.508 40.1942L43.6191 46.4954L54.1096 44.6457L52.9985 38.3444ZM50.8914 40.7686L45.3345 41.7485L45.7527 44.1201L51.3096 43.1403L50.8914 40.7686ZM40.8466 42.2892L41.6495 46.8427C41.8413 47.9305 42.8786 48.6568 43.9664 48.465L54.4569 46.6153C55.5447 46.4235 56.271 45.3861 56.0792 44.2984L54.9682 37.9971C54.951 37.9001 54.9272 37.806 54.8972 37.7151C54.8943 37.6195 54.8845 37.5229 54.8674 37.4259L54.6073 35.9506L54.6977 35.9346C55.7855 35.7428 56.5118 34.7055 56.32 33.6177L55.9598 31.575C55.768 30.4872 54.7307 29.7609 53.6429 29.9527L53.5525 29.9686L53.3107 28.5972C53.1189 27.5094 52.0816 26.7831 50.9938 26.9749L48.501 27.4144C47.7964 27.5387 47.2434 28.0177 46.9934 28.6354C46.8853 28.6366 46.7768 28.6466 46.6689 28.6656L39.0694 30.0057C37.9816 30.1975 37.2553 31.2348 37.4471 32.3226L37.795 34.296C37.9868 35.3838 39.0242 36.1101 40.1119 35.9183L40.534 35.8439C40.0925 36.123 39.5677 36.4001 38.9484 36.6697C38.6106 36.8167 38.3245 37.052 38.1163 37.3452L39.4344 37.1127L39.7976 39.1728L38.0062 39.4886C38.0464 39.5597 38.0911 39.6286 38.1403 39.6949L39.4751 41.4944C39.8128 41.9498 40.3141 42.226 40.8466 42.2892ZM41.0814 40.3029C41.55 40.0879 41.9919 39.8609 42.4071 39.6218C43.3795 39.0619 44.2057 38.436 44.8856 37.7441C45.3376 37.2842 45.7249 36.7951 46.0476 36.2769C46.7302 35.1755 47.0997 33.9637 47.156 32.6415C47.1834 31.9988 47.1368 31.3301 47.0162 30.6353L39.4167 31.9753L39.7647 33.9487L44.6291 33.091C44.6188 33.8291 44.4034 34.5441 43.983 35.2358C43.8158 35.511 43.616 35.7826 43.3838 36.0504C42.9062 36.5974 42.2932 37.1042 41.545 37.5707C41.0137 37.9019 40.4143 38.2128 39.7467 38.5035L41.0814 40.3029ZM47.8099 37.2285L48.1888 37.1616L48.1072 36.6984C48.0144 36.877 47.9153 37.0537 47.8099 37.2285Z" fill="white"/>
<path fill-rule="evenodd" clip-rule="evenodd" d="M33.8592 44.4682L31.9942 33.8912L24.2562 35.2556L26.1212 45.8327L33.8592 44.4682ZM29.8606 36.2665L27.0562 36.761L28.2314 43.4258L31.0358 42.9313L29.8606 36.2665ZM31.658 31.9196C31.6543 31.9203 31.6506 31.9209 31.6469 31.9216L23.9089 33.286C22.8211 33.4778 22.0948 34.5151 22.2866 35.6029L24.1516 46.18C24.3434 47.2678 25.3807 47.9941 26.4685 47.8023L34.1585 46.4463L34.4857 48.3025C34.6776 49.3903 35.7149 50.1166 36.8027 49.9248L39.2955 49.4852C40.3832 49.2934 41.1096 48.2561 40.9178 47.1683L39.864 41.1922L40.1448 41.1426C40.7961 41.0278 41.3177 40.6099 41.5904 40.0596C41.4244 40.1425 41.2547 40.2237 41.0813 40.3032L39.7466 38.5037C40.4146 38.2129 41.0144 37.9018 41.5458 37.5704L41.4039 36.7657C41.2121 35.6779 40.1748 34.9516 39.087 35.1434L38.8062 35.1929L38.1157 31.2768C37.9239 30.189 36.8865 29.4626 35.7987 29.6544L33.306 30.094C32.384 30.2566 31.7217 31.0264 31.658 31.9196ZM37.5471 39.5698L39.7975 39.173L39.4343 37.113L37.1839 37.5098L36.146 31.6241L33.6532 32.0636L36.4554 47.9552L38.9482 47.5156L37.5471 39.5698Z" fill="white"/>
</g>
</svg>
