<svg width="40" height="41" viewBox="0 0 40 41" fill="none" xmlns="http://www.w3.org/2000/svg">
<path fill-rule="evenodd" clip-rule="evenodd" d="M20 40.625C31.0457 40.625 40 31.6707 40 20.625C40 9.5793 31.0457 0.625 20 0.625C8.9543 0.625 0 9.5793 0 20.625C0 31.6707 8.9543 40.625 20 40.625ZM23.24 15.455H24.84L24.83 15.445V12.745C24.56 12.715 23.6 12.625 22.5 12.625C20.19 12.625 18.61 14.035 18.61 16.625V18.855H16V21.875H18.63V29.625H21.75V21.875H24.35L24.74 18.855H21.75V16.925C21.75 16.045 21.99 15.455 23.24 15.455Z" fill="#666666"/>
</svg>
