<svg width="40" height="41" viewBox="0 0 40 41" fill="none" xmlns="http://www.w3.org/2000/svg">
<path fill-rule="evenodd" clip-rule="evenodd" d="M20 40.625C31.0457 40.625 40 31.6707 40 20.625C40 9.5793 31.0457 0.625 20 0.625C8.9543 0.625 0 9.5793 0 20.625C0 31.6707 8.9543 40.625 20 40.625ZM20 13.2467C22.403 13.2467 22.6867 13.2552 23.6351 13.2997C24.5116 13.3399 24.988 13.486 25.3056 13.6088C25.7248 13.7718 26.0254 13.9666 26.3409 14.282C26.6563 14.5975 26.8511 14.896 27.0141 15.3173C27.1369 15.6349 27.283 16.1112 27.3232 16.9877C27.3656 17.9362 27.3761 18.222 27.3761 20.6229C27.3761 23.0237 27.3677 23.3095 27.3232 24.258C27.283 25.1345 27.1369 25.6109 27.0141 25.9285C26.8511 26.3477 26.6563 26.6483 26.3409 26.9637C26.0254 27.2792 25.7269 27.474 25.3056 27.637C24.988 27.7598 24.5116 27.9059 23.6351 27.9461C22.6867 27.9884 22.403 27.999 20 27.999C17.597 27.999 17.3133 27.9906 16.3649 27.9461C15.4884 27.9059 15.012 27.7598 14.6944 27.637C14.2752 27.474 13.9746 27.2792 13.6591 26.9637C13.3437 26.6483 13.1489 26.3498 12.9859 25.9285C12.8631 25.6109 12.717 25.1345 12.6768 24.258C12.6344 23.3095 12.6239 23.0237 12.6239 20.6229C12.6239 18.222 12.6323 17.9362 12.6768 16.9877C12.717 16.1112 12.8631 15.6349 12.9859 15.3173C13.1489 14.8981 13.3437 14.5975 13.6591 14.282C13.9746 13.9666 14.2731 13.7718 14.6944 13.6088C15.012 13.486 15.4884 13.3399 16.3649 13.2997C17.3133 13.2573 17.5992 13.2467 20 13.2467ZM20 11.625C17.5568 11.625 17.2498 11.6356 16.2908 11.68C15.3338 11.7245 14.6796 11.8748 14.1059 12.0992C13.5152 12.33 13.0134 12.637 12.5116 13.1366C12.012 13.6363 11.7029 14.1381 11.4742 14.7309C11.2519 15.3025 11.0995 15.9567 11.055 16.9158C11.0106 17.8748 11 18.1818 11 20.625C11 23.0682 11.0106 23.3752 11.055 24.3342C11.0995 25.2912 11.2498 25.9454 11.4742 26.5191C11.705 27.1098 12.012 27.6116 12.5116 28.1134C13.0113 28.613 13.5131 28.9221 14.1059 29.1508C14.6775 29.3731 15.3317 29.5255 16.2908 29.57C17.2498 29.6144 17.5568 29.625 20 29.625C22.4432 29.625 22.7502 29.6144 23.7092 29.57C24.6662 29.5255 25.3204 29.3752 25.8941 29.1508C26.4848 28.92 26.9866 28.613 27.4884 28.1134C27.988 27.6137 28.2971 27.1119 28.5258 26.5191C28.7481 25.9475 28.9005 25.2933 28.945 24.3342C28.9894 23.3752 29 23.0682 29 20.625C29 18.1818 28.9894 17.8748 28.945 16.9158C28.9005 15.9588 28.7502 15.3046 28.5258 14.7309C28.295 14.1402 27.988 13.6384 27.4884 13.1366C26.9887 12.637 26.4869 12.3279 25.8941 12.0992C25.3225 11.8769 24.6683 11.7245 23.7092 11.68C22.7502 11.6356 22.4432 11.625 20 11.625ZM20 16.0031C17.4488 16.0031 15.3804 18.0715 15.3804 20.6227C15.3804 23.1738 17.4488 25.2423 20 25.2423C22.5512 25.2423 24.6196 23.1738 24.6196 20.6227C24.6196 18.0715 22.5512 16.0031 20 16.0031ZM20 23.6227C18.3444 23.6227 17 22.2804 17 20.6227C17 18.9649 18.3423 17.6227 20 17.6227C21.6577 17.6227 23 18.9649 23 20.6227C23 22.2804 21.6577 23.6227 20 23.6227ZM25.8837 15.8215C25.8837 16.4179 25.4003 16.9013 24.804 16.9013C24.2076 16.9013 23.7242 16.4179 23.7242 15.8215C23.7242 15.2252 24.2076 14.7418 24.804 14.7418C25.4003 14.7418 25.8837 15.2252 25.8837 15.8215Z" fill="#666666"/>
</svg>
