<svg width="40" height="41" viewBox="0 0 40 41" fill="none" xmlns="http://www.w3.org/2000/svg">
<path fill-rule="evenodd" clip-rule="evenodd" d="M20 40.625C31.0457 40.625 40 31.6707 40 20.625C40 9.5793 31.0457 0.625 20 0.625C8.9543 0.625 0 9.5793 0 20.625C0 31.6707 8.9543 40.625 20 40.625ZM11 19.3704C11 14.5399 15.2325 10.625 20.4554 10.625C25.6775 10.625 29.91 14.5406 29.91 19.3711C29.91 24.2016 25.6775 28.1172 20.4554 28.1172C19.8186 28.1172 19.1975 28.0582 18.5966 27.9476L18.5196 27.9139L14.9343 30.5769C14.7759 30.695 14.5502 30.5822 14.5502 30.3841V26.1979L14.5404 26.1934C12.4941 24.6403 11 22.9377 11 19.3704ZM19.2446 20.1746C19.0054 21.0318 18.2124 21.5864 17.2857 21.5864L17.2849 21.5857C16.0704 21.5857 15.0599 20.6514 15.0599 19.3599C15.0599 18.0684 15.9486 17.1154 17.2849 17.1154C18.2296 17.1154 19.0495 17.6835 19.2573 18.5961H20.6243C20.3059 16.9181 19.0129 15.815 17.2857 15.815C15.2983 15.815 13.7228 17.2971 13.7228 19.3599C13.7228 21.4227 15.2983 22.9048 17.2857 22.9048C18.9957 22.9048 20.2798 21.8241 20.6146 20.1746H19.2446ZM25.0624 22.7696H26.3188V19.7784C26.3188 19.1454 26.1431 18.6581 25.7926 18.2978C25.4525 17.9376 25.0138 17.7627 24.4779 17.7627C23.8157 17.7627 23.3284 17.9869 23.0272 18.4443V15.8374H21.7701V22.7696H23.0272V20.1394C23.0272 19.3315 23.4458 18.9324 24.0982 18.9324C24.682 18.9324 25.0624 19.2829 25.0624 19.9354V22.7696Z" fill="#666666"/>
</svg>
