<svg width="40" height="41" viewBox="0 0 40 41" fill="none" xmlns="http://www.w3.org/2000/svg">
<path fill-rule="evenodd" clip-rule="evenodd" d="M20 40.625C31.0457 40.625 40 31.6707 40 20.625C40 9.5793 31.0457 0.625 20 0.625C8.9543 0.625 0 9.5793 0 20.625C0 31.6707 8.9543 40.625 20 40.625ZM11.38 12.625H28.79C30.11 12.625 31.17 13.695 31.17 15.005V25.285C31.17 26.605 30.1 27.665 28.79 27.665H11.38C10.06 27.665 9 26.595 9 25.285V15.005C9 13.685 10.06 12.625 11.38 12.625ZM22.48 20.135L17.69 17.075V23.195L22.48 20.135Z" fill="#666666"/>
</svg>
