<svg width="50" height="51" viewBox="0 0 50 51" fill="none" xmlns="http://www.w3.org/2000/svg">
<path d="M36.6037 32.0431C39.5267 29.1 41.3329 25.0449 41.3329 20.5656C41.3348 11.5725 34.0505 4.28125 25.0658 4.28125C16.0812 4.28125 8.79688 11.5725 8.79688 20.5656C8.79688 25.0429 10.603 29.0981 13.526 32.0431C13.526 32.0431 13.5279 32.0451 13.5299 32.047C13.7417 32.259 13.9593 32.4652 14.1807 32.6676C16.1197 34.9014 16.9882 39.558 16.9882 39.558H33.1435C33.1435 39.558 34.0119 34.9014 35.951 32.6676C36.1743 32.4672 36.3919 32.2609 36.6018 32.047C36.6018 32.047 36.6037 32.0451 36.6057 32.0431H36.6037Z" stroke="black" stroke-width="2.25" stroke-linejoin="round"/>
<path d="M16.9297 39.5859H33.004V44.4036C33.004 45.682 31.9676 46.7184 30.6892 46.7184H19.2445C17.9661 46.7184 16.9297 45.682 16.9297 44.4036V39.5859Z" stroke="black" stroke-width="2.25" stroke-linejoin="round"/>
<path d="M25.2992 27.5729C25.2992 27.5729 24.6756 16.3441 35.8986 17.8689C35.8986 17.8689 37.8837 29.6606 25.2992 27.5729Z" fill="#FFB589" stroke="black" stroke-width="2.25" stroke-linejoin="round"/>
<path d="M25.6836 27.4384L30.7492 22.8164" stroke="black" stroke-width="2.25" stroke-linecap="round"/>
<path d="M25.4195 27.5729C25.4195 27.5729 26.0432 16.3441 14.8202 17.8689C14.8202 17.8689 12.8351 29.6606 25.4195 27.5729Z" fill="#FFB589" stroke="black" stroke-width="2.25" stroke-linejoin="round"/>
<path d="M25.0352 27.4384L19.9695 22.8164" stroke="black" stroke-width="2.25" stroke-linecap="round"/>
<path d="M25.2617 27.8105L25.2617 39.5756" stroke="black" stroke-width="2.25" stroke-linecap="round"/>
</svg>
