<svg width="50" height="51" viewBox="0 0 50 51" fill="none" xmlns="http://www.w3.org/2000/svg">
<path d="M15.3026 33.9727L14.6642 37.3313H13.1241C11.5281 37.3313 8.33594 38.1862 8.33594 41.6059C8.33594 43.0308 9.29358 45.8805 13.1241 45.8805H24.7754H25.0026H36.6539C40.4844 45.8805 41.4421 43.0308 41.4421 41.6059C41.4421 38.1862 38.25 37.3313 36.6539 37.3313H35.1138L34.4754 33.9727" stroke="black" stroke-width="2.25" stroke-linecap="round" stroke-linejoin="round"/>
<path d="M16.668 40.2227C18.328 40.528 21.49 41.2805 24.9675 42.4668M31.9902 45.4133C29.7433 44.241 27.2853 43.2575 24.9675 42.4668M32.6286 40.2227C30.8198 40.4974 26.7551 41.331 24.9675 42.4668" stroke="black" stroke-width="2.25" stroke-linecap="round" stroke-linejoin="round"/>
<path d="M24.8765 35.3614C24.6963 35.3563 24.3503 35.3153 24.0043 35.1017C23.3795 34.7162 18.6314 31.5032 18.7563 28.2903C18.8813 25.0778 22.7534 23.5356 25.0027 26.6179L25.0523 26.5542C27.3081 23.5572 31.1274 25.1002 31.2515 28.2903C31.3764 31.5032 26.6283 34.7162 26.0035 35.1017C25.5947 35.354 25.1858 35.3656 25.0506 35.3614H24.9572C24.9365 35.362 24.9094 35.3623 24.8768 35.3614L24.8765 35.3614Z" fill="#FBAD18" stroke="black" stroke-width="2.25" stroke-linejoin="round"/>
<path d="M9.72656 37.9343L11.5016 24.6242C11.8847 21.2432 14.5968 18.6953 17.8196 18.6953H24.8947H25.0043H32.0794C35.3022 18.6953 38.0143 21.2432 38.3974 24.6242L40.1724 37.9343" stroke="black" stroke-width="2.25" stroke-linecap="round" stroke-linejoin="round"/>
<path d="M24.6558 18.6944C28.2994 18.6944 31.253 15.7408 31.253 12.0972C31.253 8.45368 28.2994 5.5 24.6558 5.5C21.0123 5.5 18.0586 8.45368 18.0586 12.0972C18.0586 15.7408 21.0123 18.6944 24.6558 18.6944Z" stroke="black" stroke-width="2.25" stroke-miterlimit="10"/>
</svg>
