<svg width="51" height="51" viewBox="0 0 51 51" fill="none" xmlns="http://www.w3.org/2000/svg">
<path d="M33.9141 13.5958C33.9141 13.3401 34.1213 13.1328 34.377 13.1328H43.2568C46.672 13.1328 49.4422 16.1905 49.4422 19.9601V27.2348C49.4422 31.0044 46.672 34.0621 43.2568 34.0621H34.377C34.1213 34.0621 33.9141 33.8548 33.9141 33.5991V13.5958Z" fill="white" stroke="black" stroke-width="2.25" stroke-linecap="round" stroke-linejoin="round"/>
<path d="M44.7188 20.2837V26.9092C44.7188 28.0588 43.9031 28.9975 42.9042 28.9975H39.1055C38.8498 28.9975 38.6425 28.7903 38.6425 28.5346V18.6583C38.6425 18.4026 38.8498 18.1953 39.1055 18.1953H42.9042C43.909 18.1953 44.7188 19.134 44.7188 20.2837Z" fill="white" stroke="black" stroke-width="2.25" stroke-linecap="round" stroke-linejoin="round"/>
<path d="M8.94764 15.1697C9.127 15.0144 9.39472 15.0199 9.56764 15.1823L22.5816 27.4069C22.7818 27.5949 22.7753 27.9147 22.5677 28.0944L18.0416 32.0125C17.8334 32.1927 17.5148 32.1525 17.358 31.9261L7.18586 17.2415C7.05124 17.0472 7.08467 16.7827 7.2634 16.6279L8.94764 15.1697Z" fill="white" stroke="black" stroke-width="2.25" stroke-linecap="round" stroke-linejoin="round"/>
<path d="M42.9857 38.375C43.1873 40.0301 41.8956 41.4886 40.2283 41.4886H15.4453C13.7779 41.4886 12.4863 40.0301 12.6879 38.375L15.4652 15.5747C15.6349 14.1808 16.8183 13.1328 18.2225 13.1328H37.451C38.8552 13.1328 40.0386 14.1808 40.2084 15.5747L42.9857 38.375Z" fill="white" stroke="black" stroke-width="2.25" stroke-linecap="round" stroke-linejoin="round"/>
<path d="M27.6604 35.0732C27.4074 35.0662 26.9215 35.009 26.4355 34.7114C25.5582 34.1742 18.8904 29.6969 19.0659 25.2197C19.2413 20.7433 24.679 18.5942 27.8377 22.8894L27.9073 22.8006C31.0751 18.6242 36.4385 20.7744 36.6127 25.2197C36.7882 29.6969 30.1204 34.1742 29.2431 34.7114C28.6689 35.063 28.0948 35.0791 27.9048 35.0733H27.7738C27.7447 35.0741 27.7065 35.0745 27.6608 35.0733L27.6604 35.0732Z" fill="#9ECC74" stroke="black" stroke-width="2.25" stroke-linejoin="round"/>
<path d="M1.65693 15.2099C1.34177 15.4616 1.47677 15.9679 1.8754 16.0292L6.59444 16.7556C6.72868 16.7763 6.86522 16.7369 6.9679 16.648L8.9602 14.9231C9.06177 14.8352 9.12013 14.7074 9.12013 14.5731V10.2122C9.12013 9.82417 8.67147 9.60829 8.36828 9.85041L1.65693 15.2099Z" fill="white" stroke="black" stroke-width="2.25" stroke-linecap="round" stroke-linejoin="round"/>
</svg>
