<svg width="200" height="200" viewBox="0 0 200 200" fill="none" xmlns="http://www.w3.org/2000/svg">
<circle cx="100" cy="100" r="100" fill="#00AAE8"/>
<path d="M78.0248 117.711L75.684 144.058C75.0962 144.645 75.0962 146.409 75.0962 146.409C76.2612 146.997 79.7884 145.233 81.5413 144.058C86.8213 139.964 96.7721 130.002 96.7721 130.002L78.0248 117.7V117.711Z" fill="#D3D3D4"/>
<path d="M33.5081 99.551C33.5081 96.0346 38.7774 94.2817 41.1181 93.106L135.421 57.3749C138.35 56.2099 143.63 53.8584 147.136 55.622C150.064 57.3749 149.476 62.6442 148.889 66.1607L133.658 140.541C133.07 144.057 132.482 149.327 129.564 151.09C125.46 152.832 120.778 148.739 117.85 146.398L79.7778 118.865L65.1348 111.255L40.5303 103.645C38.7774 103.057 34.0852 101.881 33.5081 99.5403V99.551Z" fill="white"/>
<path d="M63.9591 111.265L128.388 71.4299C128.976 70.842 131.905 69.0891 132.482 70.2649C133.07 71.4299 131.317 72.6056 130.74 73.1935L79.7778 119.463L76.8492 144.057C76.8492 145.821 76.2614 146.408 75.6842 146.408C75.107 146.408 73.9313 145.821 73.9313 144.057L63.9698 111.265H63.9591Z" fill="#E6E6E6"/>
</svg>
