<svg width="120" height="120" viewBox="0 0 120 120" fill="none" xmlns="http://www.w3.org/2000/svg">
    <path d="M59.77 88.306c15.591 0 28.23-12.639 28.23-28.23 0-15.59-12.639-28.23-28.23-28.23-15.591 0-28.23 12.64-28.23 28.23 0 15.591 12.639 28.23 28.23 28.23zM37.042 90.36l3.93-6.524M82.498 90.36l-3.93-6.524" stroke="#494E8F" stroke-width="6" stroke-linecap="round" stroke-linejoin="round"/>
    <path d="m48.952 33.998-2.29-2.24a8.798 8.798 0 0 0-12.44.147 8.79 8.79 0 0 0 .148 12.44l1.209 1.18a28.296 28.296 0 0 1 13.373-11.527zM83.962 45.524l1.208-1.179c3.478-3.39 3.537-8.961.147-12.44-3.39-3.478-8.96-3.537-12.44-.147l-2.289 2.24a28.297 28.297 0 0 1 13.374 11.526zM59.508 47.583V61l9.687 7.667" stroke="#494E8F" stroke-width="6" stroke-linecap="round" stroke-linejoin="round"/>
</svg>
