<svg width="128" height="128" viewBox="0 0 128 128" fill="none" xmlns="http://www.w3.org/2000/svg">
<rect x="27.5209" y="35.2" width="72.96" height="57.6" rx="9" stroke="#73655F" stroke-width="6"/>
<ellipse cx="49.6271" cy="51.853" rx="5.55102" ry="5.55102" fill="#73655F"/>
<path d="M40.9615 80.3194L48.8693 67.9334C50.5837 65.2481 54.8697 65.2481 56.5842 67.9334L59.2015 72.3976" stroke="#73655F" stroke-width="6" stroke-linecap="round"/>
<path d="M74.245 60.1849L71.713 61.794L71.713 61.794L74.245 60.1849ZM84.5092 81.9286C85.3979 83.327 87.2519 83.7401 88.6503 82.8514C90.0486 81.9628 90.4618 80.1087 89.5731 78.7104L84.5092 81.9286ZM66.8269 60.1849L64.295 58.5758L64.2807 58.5982L64.2668 58.621L66.8269 60.1849ZM71.713 61.794L84.5092 81.9286L89.5731 78.7104L76.7769 58.5757L71.713 61.794ZM61.7613 74.2323L69.387 61.7488L64.2668 58.621L56.641 71.1045L61.7613 74.2323ZM76.7769 58.5758C73.9499 54.1274 67.122 54.1274 64.295 58.5758L69.3588 61.794C69.5476 61.4969 69.9508 61.2395 70.5359 61.2395C71.121 61.2395 71.5242 61.4969 71.713 61.794L76.7769 58.5758Z" fill="#73655F"/>
</svg>
