<svg width="30" height="30" viewBox="0 0 30 30" fill="none" xmlns="http://www.w3.org/2000/svg">
<path d="M20.7106 14.0361C19.4518 12.1287 17.4213 10.75 15 10.75C12.5787 10.75 10.5483 12.1286 9.28949 14.0357C8.90353 14.6204 8.9035 15.3789 9.28941 15.9637C10.542 17.8617 12.5587 19.2362 14.9643 19.2496C14.9762 19.2499 14.9881 19.25 15 19.25C17.4214 19.25 19.4518 17.871 20.7105 15.9641C21.0965 15.3793 21.0965 14.6208 20.7106 14.0361Z" fill="#AAAAAA"/>
<path d="M15 17.25C13.7574 17.25 12.75 16.2426 12.75 15C12.75 13.7574 13.7574 12.75 15 12.75C16.2426 12.75 17.25 13.7574 17.25 15C17.25 16.2426 16.2426 17.25 15 17.25Z" fill="white"/>
</svg>
