<svg width="200" height="200" viewBox="0 0 200 200" fill="none" xmlns="http://www.w3.org/2000/svg">
    <circle cx="100" cy="100" r="100" fill="#FFDA05"/>
    <path d="m86.993 88.348-3.689 10.434h7.304l-3.54-10.434h-.075z" fill="#fff"/>
    <path d="M99.989 56C73.482 56 52 72.979 52 93.934c0 13.487 8.909 25.282 22.272 32.025l-4.52 16.891a1.376 1.376 0 0 0 .35 1.45c.264.264.593.396.988.396.285 0 .57-.132.834-.33l19.441-13.135c2.81.395 5.706.637 8.646.637 26.507 0 47.989-16.979 47.989-37.934S126.474 56 99.989 56zm-25.63 49.949c0 .856-.262 1.559-.767 2.087-.483.527-1.185.79-2.019.79-.702 0-1.295-.197-1.777-.571-.483-.395-.79-.922-.922-1.559a2.797 2.797 0 0 1-.044-.747V87.937h-5.2c-.724 0-1.339-.175-1.865-.505-.527-.307-.834-.79-.966-1.406-.022-.153-.066-.351-.088-.527 0-.769.264-1.362.812-1.779.549-.417 1.229-.637 2.063-.637H79.56c.724 0 1.339.176 1.843.483.527.33.834.791.966 1.406.022.176.044.33.044.527 0 .79-.263 1.362-.79 1.801-.527.418-1.207.637-2.04.637H74.36v18.012zm22.821 2.13c-.504.506-1.119.725-1.843.725-1.273 0-2.106-.527-2.48-1.581l-1.426-4.218h-8.886l-1.427 4.218c-.35 1.054-1.163 1.581-2.48 1.581-.636 0-1.184-.153-1.623-.505-.439-.329-.724-.813-.856-1.428-.044-.175-.044-.373-.044-.593 0-.285.022-.615.154-1.01.11-.395.241-.791.373-1.186l7.153-19.703c.22-.637.57-1.076 1.01-1.34.438-.264 1.009-.395 1.69-.395h1.338c.724 0 1.316.153 1.799.439.483.286.878.857 1.141 1.67l6.67 19.351c.22.593.374 1.12.462 1.537.043.286.087.506.11.659 0 .703-.264 1.296-.79 1.779h-.045zm18.454-.351c-.548.417-1.229.637-2.062.637h-11.52c-.856 0-1.558-.176-2.085-.527-.526-.33-.878-.923-1.053-1.713a5.708 5.708 0 0 1-.11-1.121V85.499c0-.856.263-1.56.768-2.087.483-.527 1.163-.79 2.019-.79.702 0 1.294.197 1.777.57.483.396.79.901.922 1.56.044.242.066.484.044.725v18.012h9.216c.746 0 1.36.153 1.865.483.505.329.812.813.943 1.406.044.154.066.351.088.527 0 .769-.263 1.362-.812 1.779v.044zm20.758.439c-.548.418-1.229.637-2.019.637-.57 0-1.009-.088-1.382-.307-.351-.22-.724-.615-1.075-1.208l-6.364-10.258-3.028 3.163v5.733c0 .857-.219 1.559-.724 2.087-.504.527-1.185.79-2.019.79-.702 0-1.294-.197-1.777-.571-.483-.395-.79-.922-.921-1.559a2.793 2.793 0 0 1-.044-.747v-20.45c0-.856.241-1.56.746-2.087.504-.527 1.163-.79 2.018-.79.703 0 1.295.198 1.756.57.483.396.79.901.921 1.56.044.242.066.484.044.725v8.369l8.69-9.994c.395-.418.746-.747 1.053-.945a2.16 2.16 0 0 1 1.141-.307c.614 0 1.163.175 1.646.505.504.33.79.769.921 1.34 0 0 0 .11.044.22v.241c0 .395-.088.747-.263 1.055a6.05 6.05 0 0 1-.658.922l-5.684 6.216 6.715 10.653.197.33c.461.725.725 1.252.79 1.603 0 .022 0 .088.044.176v.176c0 .988-.285 1.691-.834 2.13l.066.022z" fill="#fff"/>
</svg>
