<svg width="180" height="180" viewBox="0 0 180 180" fill="none" xmlns="http://www.w3.org/2000/svg">
<path d="M120.075 106.959C127.652 99.3303 132.333 88.8193 132.333 77.2091C132.338 53.8989 113.457 35 90.1692 35C66.881 35 48 53.8989 48 77.2091C48 88.8143 52.6816 99.3253 60.258 106.959C60.258 106.959 60.2629 106.964 60.2679 106.969C60.8169 107.518 61.3809 108.053 61.9549 108.577C66.9809 114.368 69.2318 126.437 69.2318 126.437H111.107C111.107 126.437 113.357 114.368 118.383 108.577C118.962 108.058 119.526 107.523 120.07 106.969C120.07 106.969 120.075 106.964 120.08 106.959H120.075Z" fill="#F9F9F9" stroke="#222222" stroke-width="6" stroke-linejoin="round"/>
<path d="M69.084 126.513H110.749V135C110.749 140.523 106.272 145 100.749 145H79.084C73.5611 145 69.084 140.523 69.084 135V126.513Z" fill="#F9F9F9" stroke="#222222" stroke-width="6" stroke-linejoin="round"/>
<path d="M90.774 95.3728C90.774 95.3728 89.1576 66.2677 118.248 70.22C118.248 70.22 123.393 100.784 90.774 95.3728Z" fill="#EB9880" stroke="#222222" stroke-width="6" stroke-linejoin="round"/>
<path d="M91.7656 95.0212L104.896 83.041" stroke="#222222" stroke-width="6" stroke-linecap="round"/>
<path d="M91.0873 95.3728C91.0873 95.3728 92.7037 66.2677 63.6138 70.22C63.6138 70.22 58.4684 100.784 91.0873 95.3728Z" fill="#EB9880" stroke="#222222" stroke-width="6" stroke-linejoin="round"/>
<path d="M90.0938 95.0212L76.9636 83.041" stroke="#222222" stroke-width="6" stroke-linecap="round"/>
<path d="M90.6719 95.9902L90.6719 126.485" stroke="#222222" stroke-width="6" stroke-linecap="round"/>
</svg>
