<svg width="16" height="16" viewBox="0 0 16 16" fill="none" xmlns="http://www.w3.org/2000/svg">
<circle cx="8" cy="8" r="8" fill="white"/>
<path d="M8 0C9.09914 0 10.1358 0.212583 11.1101 0.637749C12.0843 1.05041 12.9336 1.61938 13.6581 2.34467C14.3825 3.06995 14.9508 3.92028 15.363 4.89566C15.7877 5.85854 16 6.89019 16 7.99062C16 9.10356 15.7877 10.1477 15.363 11.1231C14.9508 12.086 14.3825 12.9301 13.6581 13.6553C12.9336 14.3806 12.0843 14.9558 11.1101 15.381C10.1358 15.7937 9.09914 16 8 16C6.90086 16 5.86417 15.7937 4.88993 15.381C3.91569 14.9558 3.06635 14.3806 2.34192 13.6553C1.61749 12.9301 1.04294 12.086 0.618267 11.1231C0.206089 10.1477 0 9.10356 0 7.99062C0 6.89019 0.206089 5.85854 0.618267 4.89566C1.04294 3.92028 1.61749 3.06995 2.34192 2.34467C3.06635 1.61938 3.91569 1.05041 4.88993 0.637749C5.86417 0.212583 6.90086 0 8 0ZM11.1038 11.1106C11.4492 10.7648 11.4503 10.2049 11.1062 9.85773L9.25527 7.99062L11.1014 6.14229C11.4478 5.79554 11.4478 5.23377 11.1014 4.88702V4.88702C10.7545 4.53969 10.1916 4.53969 9.8447 4.88702L8 6.73388L6.1553 4.88702C5.80838 4.53969 5.24548 4.53969 4.89856 4.88702V4.88702C4.55222 5.23377 4.55222 5.79554 4.89856 6.14229L6.74473 7.99062L4.89383 9.85773C4.54972 10.2049 4.55078 10.7648 4.89619 11.1106V11.1106C5.24404 11.4589 5.80876 11.4578 6.15528 11.1082L8 9.24736L9.84472 11.1082C10.1912 11.4578 10.756 11.4589 11.1038 11.1106V11.1106Z" fill="#AAAAAA"/>
</svg>
