<svg width="14" height="13" viewBox="0 0 14 13" fill="none" xmlns="http://www.w3.org/2000/svg">
<path d="M6.26933 0.480506C6.56821 -0.125102 7.43179 -0.125101 7.73067 0.480507L9.16156 3.37979C9.28025 3.62028 9.50967 3.78697 9.77506 3.82553L12.9746 4.29045C13.6429 4.38757 13.9098 5.20888 13.4262 5.68028L11.111 7.93706C10.9189 8.12425 10.8313 8.39396 10.8766 8.65828L11.4232 11.8449C11.5374 12.5105 10.8387 13.0181 10.2409 12.7039L7.37917 11.1993C7.14179 11.0745 6.85821 11.0745 6.62083 11.1993L3.75906 12.7039C3.16129 13.0181 2.46265 12.5105 2.57681 11.8449L3.12336 8.65828C3.16869 8.39395 3.08106 8.12425 2.88902 7.93706L0.573802 5.68028C0.0901955 5.20888 0.357057 4.38757 1.02538 4.29045L4.22494 3.82553C4.49033 3.78697 4.71975 3.62028 4.83844 3.37979L6.26933 0.480506Z" fill="#F97173"/>
</svg>
