<svg width="24" height="24" viewBox="0 0 24 24" fill="none" xmlns="http://www.w3.org/2000/svg">
<path fill-rule="evenodd" clip-rule="evenodd" d="M20.9961 12C20.9961 16.9706 16.9667 21 11.9961 21C7.02553 21 2.99609 16.9706 2.99609 12C2.99609 7.02944 7.02553 3 11.9961 3C16.9667 3 20.9961 7.02944 20.9961 12ZM8.86591 13.9867C8.96019 13.8885 9.09044 13.833 9.22656 13.833H14.6266C14.7626 13.833 14.8927 13.8884 14.987 13.9864C15.0812 14.0845 15.1315 14.2167 15.1262 14.3526C15.0665 15.8763 13.5592 16.933 11.9274 16.933H11.9257C10.2932 16.933 8.78881 15.8759 8.72697 14.3533C8.72145 14.2173 8.77162 14.0849 8.86591 13.9867ZM7.93769 9.02066C8.1102 8.80503 8.42484 8.77007 8.64047 8.94257L10.1405 10.1426C10.2591 10.2375 10.3281 10.3811 10.3281 10.533C10.3281 10.6849 10.2591 10.8286 10.1405 10.9234L8.64047 12.1234C8.42484 12.2959 8.1102 12.261 7.93769 12.0454C7.76519 11.8297 7.80015 11.5151 8.01578 11.3426L9.02773 10.533L8.01578 9.72344C7.80015 9.55094 7.76519 9.23629 7.93769 9.02066ZM15.215 8.94257C15.4306 8.77007 15.7453 8.80503 15.9178 9.02066C16.0903 9.23629 16.0553 9.55094 15.8397 9.72344L14.8277 10.533L15.8397 11.3426C16.0553 11.5151 16.0903 11.8297 15.9178 12.0454C15.7453 12.261 15.4306 12.2959 15.215 12.1234L13.715 10.9234C13.5964 10.8286 13.5273 10.6849 13.5273 10.533C13.5273 10.3811 13.5964 10.2375 13.715 10.1426L15.215 8.94257Z" fill="black"/>
</svg>
