<svg width="20" height="20" viewBox="0 0 20 20" fill="none" xmlns="http://www.w3.org/2000/svg">
<path d="M14 14.8758L14 4.95623C14 4.24366 13.5198 3.66602 12.9274 3.66602L7.07264 3.66602C6.48024 3.66602 6 4.24366 6 4.95623L6 14.8758C6 15.5884 6.48024 16.166 7.07264 16.166L12.9274 16.166C13.5198 16.166 14 15.5884 14 14.8758Z" stroke="#AAAAAA" stroke-width="1.25" stroke-linecap="round" stroke-linejoin="round"/>
<path d="M10.0003 15.1657C10.4606 15.1657 10.8337 14.7926 10.8337 14.3324C10.8337 13.8721 10.4606 13.499 10.0003 13.499C9.54009 13.499 9.16699 13.8721 9.16699 14.3324C9.16699 14.7926 9.54009 15.1657 10.0003 15.1657Z" fill="#AAAAAA"/>
<path d="M6.16699 12.499L14.0003 12.499" stroke="#AAAAAA" stroke-width="1.25" stroke-linecap="round"/>
<path d="M9.33301 5.49902H10.6663" stroke="#AAAAAA" stroke-width="1.25" stroke-linecap="round"/>
</svg>
