<svg width="24" height="24" viewBox="0 0 24 24" fill="none" xmlns="http://www.w3.org/2000/svg">
<path fill-rule="evenodd" clip-rule="evenodd" d="M20.9961 12C20.9961 16.9706 16.9667 21 11.9961 21C7.02553 21 2.99609 16.9706 2.99609 12C2.99609 7.02944 7.02553 3 11.9961 3C16.9667 3 20.9961 7.02944 20.9961 12ZM10.3307 10.6668C10.3307 11.4032 9.73377 12.0002 8.9974 12.0002C8.26102 12.0002 7.66406 11.4032 7.66406 10.6668C7.66406 9.93045 8.26102 9.3335 8.9974 9.3335C9.73377 9.3335 10.3307 9.93045 10.3307 10.6668ZM14.9974 12.0002C15.7338 12.0002 16.3307 11.4032 16.3307 10.6668C16.3307 9.93045 15.7338 9.3335 14.9974 9.3335C14.261 9.3335 13.6641 9.93045 13.6641 10.6668C13.6641 11.4032 14.261 12.0002 14.9974 12.0002ZM10.0002 16.0367C10.3612 15.7089 11.0066 15.312 11.7342 15.1984C12.4323 15.0893 13.2232 15.2349 13.9701 16.0128C14.1613 16.212 14.4778 16.2184 14.677 16.0272C14.8762 15.8359 14.8827 15.5194 14.6914 15.3202C13.6994 14.287 12.5725 14.0553 11.5798 14.2104C10.6165 14.3608 9.79798 14.8695 9.32794 15.2963C9.1235 15.482 9.10826 15.7982 9.2939 16.0026C9.47953 16.2071 9.79575 16.2223 10.0002 16.0367Z" fill="black"/>
</svg>
