<svg width="46" height="46" viewBox="0 0 46 46" fill="none" xmlns="http://www.w3.org/2000/svg">
<circle cx="23" cy="23" r="22.25" fill="#F3E7E3" stroke="#D9C9BE" stroke-width="1.5"/>
<path d="M22.9986 32.1632C27.9835 32.1632 32.0245 28.1222 32.0245 23.1373C32.0245 18.1524 27.9835 14.1113 22.9986 14.1113C18.0137 14.1113 13.9727 18.1524 13.9727 23.1373C13.9727 28.1222 18.0137 32.1632 22.9986 32.1632Z" fill="#F3E7E3" stroke="black" stroke-width="1.5" stroke-linecap="round" stroke-linejoin="round"/>
<path d="M15.75 32.8482L16.9808 30.7969" stroke="black" stroke-width="1.5" stroke-linecap="round" stroke-linejoin="round"/>
<path d="M30.2464 32.8482L29.0156 30.7969" stroke="black" stroke-width="1.5" stroke-linecap="round" stroke-linejoin="round"/>
<path d="M19.5796 14.806L18.853 14.0904C17.749 13.0075 15.9839 13.0264 14.9048 14.1375C13.8258 15.2486 13.8476 17.0251 14.9516 18.1111L15.3352 18.4878C16.3176 16.8462 17.8051 15.5468 19.5796 14.806Z" fill="#F97173" stroke="black" stroke-width="1.5" stroke-linecap="round" stroke-linejoin="round"/>
<path d="M30.7695 18.4878L31.1627 18.1111C32.2946 17.0283 32.3138 15.2486 31.2107 14.1375C30.1076 13.0264 28.2948 13.0075 27.1629 14.0904L26.418 14.806C28.2372 15.5468 29.7623 16.8462 30.7695 18.4878Z" fill="#F97173" stroke="black" stroke-width="1.5" stroke-linecap="round" stroke-linejoin="round"/>
<path d="M22.998 19.1719V23.4363L26.0067 25.873" stroke="black" stroke-width="1.5" stroke-linecap="round" stroke-linejoin="round"/>
</svg>
