<svg width="180" height="180" viewBox="0 0 180 180" fill="none" xmlns="http://www.w3.org/2000/svg">
<rect x="25" y="64.752" width="130" height="72.2479" rx="6.19355" fill="white" stroke="#222222" stroke-width="6"/>
<mask id="mask0_224_44174" style="mask-type:alpha" maskUnits="userSpaceOnUse" x="38" y="40" width="104" height="77">
<path d="M41.7148 105.592V51.124C41.7148 48.4131 43.4745 45.9918 46.1068 45.3437C63.536 41.052 79.8865 43.5228 87.883 45.8875C89.248 46.2912 90.6959 46.2966 92.061 45.8933C105.878 41.8114 123.244 43.511 133.551 45.5213C136.321 46.0616 138.221 48.5376 138.221 51.36V105.664C138.221 109.771 134.289 112.737 130.256 111.961C113.237 108.69 99.2832 110.835 92.3063 113.016C90.7823 113.493 89.1453 113.504 87.627 113.01C75.2664 108.983 60.1336 110.101 49.7535 111.997C45.6921 112.739 41.7148 109.721 41.7148 105.592Z" fill="#F38D7C" stroke="#222222" stroke-width="6" stroke-linejoin="round"/>
</mask>
<g mask="url(#mask0_224_44174)">
<path d="M41.7148 105.592V51.124C41.7148 48.4131 43.4745 45.9918 46.1068 45.3437C63.536 41.052 79.8865 43.5228 87.883 45.8875C89.248 46.2912 90.6959 46.2966 92.061 45.8933C105.878 41.8114 123.244 43.511 133.551 45.5213C136.321 46.0616 138.221 48.5376 138.221 51.36V105.664C138.221 109.771 134.289 112.737 130.256 111.961C113.237 108.69 99.2832 110.835 92.3063 113.016C90.7823 113.493 89.1453 113.504 87.627 113.01C75.2664 108.983 60.1336 110.101 49.7535 111.997C45.6921 112.739 41.7148 109.721 41.7148 105.592Z" fill="white" stroke="#222222" stroke-width="6" stroke-linejoin="round"/>
<path d="M102 70.7556V44H126V72L114 63.2889L102 70.7556Z" fill="#EB9880"/>
<path d="M102 45V67.1297C102 68.7812 103.843 69.7641 105.214 68.8443L112.85 63.7235C113.546 63.257 114.454 63.257 115.15 63.7235L122.786 68.8443C124.157 69.7641 126 68.7812 126 67.1297V45" stroke="#222222" stroke-width="6" stroke-linecap="round" stroke-linejoin="round"/>
<path d="M41.7148 105.592V51.124C41.7148 48.4131 43.4745 45.9918 46.1068 45.3437C63.536 41.052 79.8865 43.5228 87.883 45.8875C89.248 46.2912 90.6959 46.2966 92.061 45.8933C105.878 41.8114 123.244 43.511 133.551 45.5213C136.321 46.0616 138.221 48.5376 138.221 51.36V105.664C138.221 109.771 134.289 112.737 130.256 111.961C113.237 108.69 99.2832 110.835 92.3063 113.016C90.7823 113.493 89.1453 113.504 87.627 113.01C75.2664 108.983 60.1336 110.101 49.7535 111.997C45.6921 112.739 41.7148 109.721 41.7148 105.592Z" stroke="#222222" stroke-width="6" stroke-linejoin="round"/>
<path d="M89.9688 46.2568V113.539" stroke="#222222" stroke-width="6" stroke-linejoin="round"/>
</g>
</svg>
