<svg width="144" height="144" viewBox="0 0 144 144" fill="none" xmlns="http://www.w3.org/2000/svg">
    <path d="M107.2 39.54H35.84a8 8 0 0 0-8 8V95.5a8 8 0 0 0 8 8h71.36a8 8 0 0 0 8-8V47.54a8 8 0 0 0-8-8zM68.92 89.72h32.5M41.36 89.72h15.6M41.36 78.02h15.6" stroke="#494E8F" stroke-width="6" stroke-linecap="round" stroke-linejoin="round"/>
    <path d="M92.057 55.952c1.95 3.588.64 8.081-2.949 10.031-3.588 1.95-8.08.64-10.03-2.948-1.95-3.588-.64-8.081 2.948-10.031 3.588-1.95 8.08-.64 10.03 2.948z" stroke="#494E8F" stroke-width="6" stroke-linecap="round" stroke-linejoin="round"/>
    <path d="m92.49 53.02 1.919-.749c3.135-.686 6.474.733 8.08 3.682 1.95 3.588.64 8.08-2.948 10.03a7.341 7.341 0 0 1-5.288.687s-.858-.172-1.904-.765" stroke="#494E8F" stroke-width="6" stroke-linecap="round" stroke-linejoin="round"/>
</svg>
