<svg width="56" height="56" viewBox="0 0 56 56" fill="none" xmlns="http://www.w3.org/2000/svg">
<rect y="6.22266" width="56" height="44.2105" rx="6.4" fill="white"/>
<circle cx="16.9665" cy="19.0048" r="4.26065" fill="#F97173"/>
<path d="M10.3169 40.8534L16.3864 31.3466C17.7023 29.2855 20.992 29.2855 22.3079 31.3466L24.3169 34.7731" stroke="#F97173" stroke-width="4" stroke-linecap="round"/>
<path d="M35.8632 25.3994L37.5511 24.3267V24.3267L35.8632 25.3994ZM43.9969 41.9264C44.5893 42.8586 45.8253 43.134 46.7576 42.5416C47.6898 41.9491 47.9653 40.7131 47.3728 39.7809L43.9969 41.9264ZM30.1695 25.3994L28.4815 24.3267L28.472 24.3417L28.4627 24.3568L30.1695 25.3994ZM34.1752 26.4722L43.9969 41.9264L47.3728 39.7809L37.5511 24.3267L34.1752 26.4722ZM26.0232 36.0236L31.8762 26.442L28.4627 24.3568L22.6097 33.9385L26.0232 36.0236ZM37.5511 24.3267C35.5002 21.0994 30.5325 21.0994 28.4815 24.3267L31.8574 26.4722C32.0665 26.1433 32.4808 25.9063 33.0163 25.9062C33.5519 25.9062 33.9662 26.1433 34.1752 26.4722L37.5511 24.3267Z" fill="#F97173"/>
</svg>
