<svg width="120" height="120" viewBox="0 0 120 120" fill="none" xmlns="http://www.w3.org/2000/svg">
    <mask id="s7urma82va" maskUnits="userSpaceOnUse" x="24" y="29" width="72" height="62" fill="#000">
        <path fill="#fff" d="M24 29h72v62H24z"/>
        <path fill-rule="evenodd" clip-rule="evenodd" d="M51.772 35a5 5 0 0 0-4.59 3.015l-2.162 5c-.04.096-.079.192-.114.288H39a9 9 0 0 0-9 9V75a9 9 0 0 0 9 9h42a9 9 0 0 0 9-9V52.303a9 9 0 0 0-9-9h-5.906a5.196 5.196 0 0 0-.114-.288l-2.163-5A5 5 0 0 0 68.228 35H51.772z"/>
    </mask>
    <path d="m47.182 38.015-5.507-2.381 5.508 2.381zm-2.162 5 5.508 2.382-5.508-2.382zm-.114.288v6h4.203l1.436-3.95-5.639-2.05zm30.188 0-5.639 2.05 1.436 3.95h4.203v-6zm-.114-.288 5.507-2.381-5.507 2.381zm-2.163-5 5.508-2.381-5.508 2.381zM52.69 40.397a1 1 0 0 1-.918.603V29a11 11 0 0 0-10.097 6.634l11.015 4.763zm-2.162 5 2.162-5-11.015-4.763-2.162 5 11.015 4.763zm.017-.044a.8.8 0 0 1-.017.044l-11.015-4.763c-.088.204-.17.41-.246.618l11.278 4.101zM39 49.303h5.906v-12H39v12zm-3 3a3 3 0 0 1 3-3v-12c-8.284 0-15 6.715-15 15h12zM36 75V52.303H24V75h12zm3 3a3 3 0 0 1-3-3H24c0 8.284 6.716 15 15 15V78zm42 0H39v12h42V78zm3-3a3 3 0 0 1-3 3v12c8.284 0 15-6.716 15-15H84zm0-22.697V75h12V52.303H84zm-3-3a3 3 0 0 1 3 3h12c0-8.285-6.716-15-15-15v12zm-5.906 0H81v-12h-5.906v12zm-5.621-3.906a.786.786 0 0 1-.018-.044l11.278-4.1a11.25 11.25 0 0 0-.246-.619l-11.014 4.763zm-2.163-5 2.162 5 11.015-4.763-2.162-5-11.015 4.763zm.918.603a1 1 0 0 1-.918-.603l11.015-4.763A11 11 0 0 0 68.228 29v12zm-16.456 0h16.456V29H51.772v12z" fill="#494E8F" mask="url(#s7urma82va)"/>
    <circle cx="60" cy="62.889" r="12" stroke="#494E8F" stroke-width="6"/>
    <ellipse cx="81" cy="52.023" rx="3" ry="2.907" fill="#494E8F"/>
</svg>
