<svg width="17" height="16" viewBox="0 0 17 16" fill="none" xmlns="http://www.w3.org/2000/svg">
<circle cx="8.5" cy="8" r="7" stroke="#AAAAAA" stroke-width="1.5"/>
<path d="M7.59619 9.34884C7.59972 8.926 7.63848 8.58421 7.71247 8.32347C7.78647 8.0592 7.89218 7.84778 8.0296 7.68922C8.17054 7.53066 8.35729 7.37914 8.58985 7.23467C8.84708 7.06554 9.0444 6.89464 9.18182 6.72199C9.32276 6.54933 9.39323 6.35025 9.39323 6.12474C9.39323 5.95208 9.35271 5.80056 9.27167 5.67019C9.19063 5.53629 9.07963 5.43235 8.93869 5.35835C8.79774 5.28436 8.64271 5.24736 8.47357 5.24736C8.30444 5.24736 8.14588 5.28436 7.99789 5.35835C7.85342 5.43235 7.73538 5.54158 7.64376 5.68605C7.48458 5.94074 7.26302 6.19873 6.96267 6.19873H6.77196C6.3484 6.19873 5.98892 5.8412 6.12385 5.43971C6.17887 5.27599 6.2521 5.12554 6.34355 4.98837C6.56554 4.65715 6.86152 4.4105 7.2315 4.24841C7.605 4.0828 8.02255 4 8.48414 4C8.97393 4 9.40909 4.0828 9.78964 4.24841C10.1702 4.41402 10.4662 4.65363 10.6776 4.96723C10.8925 5.27731 11 5.64552 11 6.07188C11 6.48767 10.9013 6.84355 10.704 7.13953C10.5102 7.43552 10.2283 7.69274 9.85835 7.91121C9.65046 8.03805 9.48485 8.16491 9.36152 8.29175C9.24172 8.41508 9.15011 8.56131 9.08668 8.73044C9.02678 8.89958 8.99507 9.10571 8.99154 9.34884C8.99154 9.41306 8.93948 9.46512 8.87526 9.46512H7.71247C7.64825 9.46512 7.59619 9.41306 7.59619 9.34884ZM8.32558 11.8541C8.1635 11.8541 8.01374 11.8136 7.87632 11.7326C7.7389 11.6515 7.62967 11.544 7.54863 11.4101C7.47111 11.2727 7.43411 11.1247 7.43763 10.9662C7.43411 10.8076 7.47111 10.6614 7.54863 10.5275C7.62967 10.3936 7.7389 10.2879 7.87632 10.2104C8.01374 10.1293 8.1635 10.0888 8.32558 10.0888C8.4771 10.0888 8.6198 10.1293 8.7537 10.2104C8.89112 10.2879 9.00035 10.3936 9.0814 10.5275C9.16244 10.6614 9.20296 10.8076 9.20296 10.9662C9.20296 11.1247 9.16244 11.2727 9.0814 11.4101C9.00035 11.544 8.89112 11.6515 8.7537 11.7326C8.6198 11.8136 8.4771 11.8541 8.32558 11.8541Z" fill="#AAAAAA"/>
</svg>
