<svg width="40" height="41" viewBox="0 0 40 41" fill="none" xmlns="http://www.w3.org/2000/svg">
<rect y="0.5" width="40" height="40" fill="white"/>
<path d="M17.6289 10.8333H27.7173" stroke="#DDDDDD" stroke-width="1.25" stroke-miterlimit="10" stroke-linejoin="round"/>
<path d="M22.8796 10.8333H12.1C10.9396 10.8333 10 11.7176 10 12.8071V29.4999C10 30.0522 10.4477 30.4999 11 30.4999H24.6156C25.1679 30.4999 25.6156 30.0522 25.6156 29.4999V16.8688" stroke="#DDDDDD" stroke-width="1.25" stroke-miterlimit="10" stroke-linejoin="round"/>
<path d="M21.5637 15.6011L19.7097 20.044L17.6781 15.6688L15.7725 20.044L14.0625 15.6169" stroke="#DDDDDD" stroke-width="1.25" stroke-linecap="round" stroke-linejoin="round"/>
<path d="M13.3984 17.2163H14.3788" stroke="#DDDDDD" stroke-width="1.25" stroke-linecap="round" stroke-linejoin="round"/>
<path d="M21.2461 17.2163H22.2265" stroke="#DDDDDD" stroke-width="1.25" stroke-linecap="round" stroke-linejoin="round"/>
<path d="M25.6139 17.3533C25.6141 17.3535 25.6145 17.3534 25.6145 17.3531V12.8071C25.6145 11.7164 26.5553 10.8333 27.7145 10.8333C28.8749 10.8333 29.8145 11.7176 29.8145 12.8071V16.3527C29.8145 16.905 29.3668 17.3527 28.8145 17.3527H25.6141C25.6138 17.3527 25.6137 17.3531 25.6139 17.3533V17.3533Z" stroke="#DDDDDD" stroke-width="1.25" stroke-miterlimit="10" stroke-linejoin="round"/>
<path d="M14.3789 23.3953H21.2465" stroke="#DDDDDD" stroke-width="1.25" stroke-linecap="round" stroke-linejoin="round"/>
<path d="M14.3789 26.3843H21.2465" stroke="#DDDDDD" stroke-width="1.25" stroke-linecap="round" stroke-linejoin="round"/>
</svg>
