<svg width="40" height="40" viewBox="0 0 40 40" fill="none" xmlns="http://www.w3.org/2000/svg">
<path d="M9.56944 8.85167L14.625 17.065L10.0028 19.5583L8.125 23.225L8.55833 28.2117L10.2917 28.7983L16.7917 24.985L19.6806 23.225L20.5472 24.985L22.5694 28.3583L27.625 29.385L31.0917 28.7983V27.185L26.9028 20.2917L27.1917 17.505L30.5139 14.1317L31.3806 12.3717L31.9583 10.3183C31.8139 9.38945 31.4961 7.50233 31.3806 7.385C31.265 7.26767 30.7546 6.55389 30.5139 6.21167L28.925 6.505L24.3028 9.585L20.5472 11.4917L18.6694 8.11833L17.5139 6.505L14.4806 5.625L10.2917 5.77167L9.56944 6.21167L9.13611 7.09167L9.56944 8.85167Z" fill="white"/>
<path d="M23.0879 18.2349C23.0879 18.2349 34.374 17.8056 31.4859 7.09979C31.4859 7.09979 31.1736 5.25497 28.8852 6.53284C27.1114 7.52277 23.1091 10.2785 23.1091 10.2785" stroke="black" stroke-width="1.5" stroke-miterlimit="10" stroke-linecap="round" stroke-linejoin="round"/>
<path d="M17.1404 16.5898C17.1404 16.5898 5.85432 17.0192 8.74235 27.725C8.74235 27.725 9.05464 29.5698 11.3431 28.2919C13.1169 27.302 17.1191 24.5462 17.1191 24.5462" stroke="black" stroke-width="1.5" stroke-miterlimit="10" stroke-linecap="round" stroke-linejoin="round"/>
<path d="M19.3066 20.4453C19.3066 20.4453 19.7276 31.9563 30.2242 29.0107C30.2242 29.0107 32.033 28.6922 30.7801 26.3581C29.8095 24.549 27.1076 20.467 27.1076 20.467" stroke="black" stroke-width="1.5" stroke-miterlimit="10" stroke-linecap="round" stroke-linejoin="round"/>
<path d="M20.9193 14.38C20.9193 14.38 20.4984 2.86775 10.0018 5.81461C10.0018 5.81461 8.19301 6.13312 9.4459 8.46717C10.4165 10.2763 13.1184 14.3583 13.1184 14.3583" stroke="black" stroke-width="1.5" stroke-miterlimit="10" stroke-linecap="round" stroke-linejoin="round"/>
<path d="M19.9993 20.6647C21.8403 20.6647 23.3327 19.1723 23.3327 17.3314C23.3327 15.4904 21.8403 13.998 19.9993 13.998C18.1584 13.998 16.666 15.4904 16.666 17.3314C16.666 19.1723 18.1584 20.6647 19.9993 20.6647Z" fill="#D5A99B" stroke="black" stroke-width="1.5" stroke-miterlimit="10" stroke-linecap="round" stroke-linejoin="round"/>
<path d="M20.1133 24.7324V34.6649" stroke="black" stroke-width="1.5" stroke-miterlimit="10" stroke-linecap="round" stroke-linejoin="round"/>
</svg>
