<svg width="144" height="144" viewBox="0 0 144 144" fill="none" xmlns="http://www.w3.org/2000/svg">
    <path d="M102.033 32.4H42.455a8 8 0 0 0-8 8V87.4h75.578V40.4a8 8 0 0 0-8-8z" stroke="#AAA" stroke-width="6" stroke-linecap="round" stroke-linejoin="round"/>
    <path d="M97.341 64.8 92.67 75.994 87.55 64.97l-4.8 11.024-4.31-11.154M76.769 68.87h2.47M96.544 68.87h2.47" stroke="#AAA" stroke-width="5" stroke-linecap="round" stroke-linejoin="round"/>
    <path d="M47.066 51.298h31.492M47.066 63.892h15.746M110.048 87.401l9.01 15.485c1.939 3.333-.465 7.514-4.322 7.514H29.769c-3.857 0-6.262-4.181-4.322-7.514l9.01-15.485" stroke="#AAA" stroke-width="6" stroke-linecap="round" stroke-linejoin="round"/>
</svg>
