<svg width="41" height="40" viewBox="0 0 41 40" fill="none" xmlns="http://www.w3.org/2000/svg">
<path d="M27.1348 10.4758C27.1348 10.2713 27.3006 10.1055 27.5051 10.1055H34.6089C37.3411 10.1055 39.5573 12.5516 39.5573 15.5673V21.3871C39.5573 24.4027 37.3411 26.8489 34.6089 26.8489H27.5051C27.3006 26.8489 27.1348 26.6831 27.1348 26.4785V10.4758Z" fill="white" stroke="black" stroke-width="1.5" stroke-linecap="round" stroke-linejoin="round"/>
<path d="M35.7754 15.8269V21.1274C35.7754 22.047 35.1228 22.798 34.3237 22.798H31.2848C31.0802 22.798 30.9144 22.6322 30.9144 22.4277V14.5266C30.9144 14.3221 31.0802 14.1562 31.2848 14.1562H34.3237C35.1276 14.1562 35.7754 14.9072 35.7754 15.8269Z" fill="white" stroke="black" stroke-width="1.5" stroke-linecap="round" stroke-linejoin="round"/>
<path d="M7.16124 11.7362C7.30473 11.6119 7.5189 11.6163 7.65724 11.7462L18.0684 21.5259C18.2285 21.6763 18.2233 21.9321 18.0573 22.0759L14.4364 25.2104C14.2698 25.3546 14.015 25.3224 13.8895 25.1413L5.75181 13.3936C5.64412 13.2382 5.67086 13.0265 5.81385 12.9027L7.16124 11.7362Z" fill="white" stroke="black" stroke-width="1.5" stroke-linecap="round" stroke-linejoin="round"/>
<path d="M34.3913 30.2992C34.5526 31.6233 33.5192 32.7901 32.1854 32.7901H12.3589C11.0251 32.7901 9.99174 31.6233 10.153 30.2992L12.3749 12.059C12.5107 10.9438 13.4574 10.1055 14.5808 10.1055H29.9636C31.0869 10.1055 32.0336 10.9439 32.1695 12.059L34.3913 30.2992Z" fill="white" stroke="black" stroke-width="1.5" stroke-linecap="round" stroke-linejoin="round"/>
<path d="M22.1283 27.6586C21.9259 27.653 21.5372 27.6072 21.1484 27.3691C20.4466 26.9393 15.1123 23.3575 15.2527 19.7758C15.3931 16.1946 19.7432 14.4753 22.2701 17.9115L22.3258 17.8404C24.8601 14.4994 29.1508 16.2196 29.2902 19.7758C29.4305 23.3575 24.0963 26.9393 23.3945 27.3691C22.9351 27.6504 22.4758 27.6632 22.3239 27.6586H22.219C22.1957 27.6593 22.1652 27.6596 22.1286 27.6586L22.1283 27.6586Z" fill="#9ECC74" stroke="black" stroke-width="1.5" stroke-linejoin="round"/>
<path d="M1.32789 11.7679C1.07576 11.9692 1.18376 12.3743 1.50266 12.4234L5.27789 13.0045C5.38529 13.021 5.49452 12.9895 5.57667 12.9184L7.17051 11.5385C7.25176 11.4681 7.29845 11.366 7.29845 11.2585V7.76974C7.29845 7.45933 6.93952 7.28663 6.69697 7.48033L1.32789 11.7679Z" fill="white" stroke="black" stroke-width="1.5" stroke-linecap="round" stroke-linejoin="round"/>
</svg>
