<svg width="12" height="12" viewBox="0 0 12 12" fill="none" xmlns="http://www.w3.org/2000/svg">
<path d="M4.37523 4.54346L3.91406 5.8478H4.82711L4.38451 4.54346H4.37523Z" fill="#222222"/>
<path fill-rule="evenodd" clip-rule="evenodd" d="M0 5.24175C0 2.62239 2.68526 0.5 5.99863 0.5C9.30926 0.5 12 2.62239 12 5.24175C12 7.8611 9.31474 9.98349 6.00137 9.98349C5.63383 9.98349 5.27177 9.95329 4.92069 9.90387L2.49051 11.5458C2.4576 11.5705 2.42194 11.587 2.38629 11.587C2.33691 11.587 2.29577 11.5705 2.26286 11.5375C2.21349 11.4909 2.19703 11.4195 2.21897 11.3563L2.784 9.24491C1.1136 8.402 0 6.92758 0 5.24175Z" fill="#222222"/>
</svg>
