<svg width="180" height="180" viewBox="0 0 180 180" fill="none" xmlns="http://www.w3.org/2000/svg">
<path d="M108.002 54.0111C108.002 53.3975 108.499 52.9 109.113 52.9H135.678C145.795 52.9 154.002 61.958 154.002 73.1248V94.6752C154.002 105.842 145.795 114.9 135.678 114.9H109.113C108.499 114.9 108.002 114.403 108.002 113.789V54.0111Z" fill="white" stroke="#222222" stroke-width="6" stroke-linecap="round" stroke-linejoin="round"/>
<path d="M140 74.0867V93.7139C140 97.1194 137.584 99.9003 134.625 99.9003H123.111C122.497 99.9003 122 99.4028 122 98.7892V69.0114C122 68.3977 122.497 67.9003 123.111 67.9003H134.625C137.601 67.9003 140 70.6811 140 74.0867Z" fill="white" stroke="#222222" stroke-width="6" stroke-linecap="round" stroke-linejoin="round"/>
<path d="M34.2206 58.7846C34.6511 58.4119 35.2936 58.425 35.7086 58.8148L74.6423 95.3869C75.1225 95.838 75.1069 96.6056 74.6088 97.0368L60.7633 109.022C60.2636 109.455 59.4991 109.358 59.1227 108.815L28.691 64.8837C28.3679 64.4173 28.4481 63.7824 28.8771 63.411L34.2206 58.7846Z" fill="white" stroke="#222222" stroke-width="6" stroke-linecap="round" stroke-linejoin="round"/>
<path d="M135.09 129.428C135.574 133.4 132.474 136.9 128.472 136.9H51.528C47.5264 136.9 44.4264 133.4 44.9103 129.428L53.5181 58.761C53.9256 55.4155 56.7657 52.9004 60.1359 52.9004H119.864C123.234 52.9004 126.074 55.4155 126.482 58.761L135.09 129.428Z" fill="white" stroke="#222222" stroke-width="6" stroke-linecap="round" stroke-linejoin="round"/>
<path d="M89.4701 117.898C88.7205 117.877 87.281 117.708 85.8415 116.826C83.2426 115.235 63.4903 101.971 64.0101 88.7083C64.5298 75.4474 80.638 69.0811 89.9951 81.805L90.2013 81.5419C99.5856 69.1701 115.474 75.5398 115.99 88.7083C116.51 101.971 96.7574 115.235 94.1585 116.826C92.4576 117.868 90.7568 117.915 90.1941 117.898H89.8059C89.7197 117.901 89.6067 117.902 89.4712 117.898L89.4701 117.898Z" fill="#EB9880" stroke="#222222" stroke-width="6" stroke-linejoin="round"/>
<path d="M11.9798 59.4261C11.2234 60.0301 11.5474 61.2452 12.5041 61.3925L27.1893 63.6529C27.5115 63.7025 27.8392 63.6081 28.0856 63.3948L34.1685 58.1283C34.4122 57.9172 34.5523 57.6107 34.5523 57.2883V43.7096C34.5523 42.7784 33.4755 42.2603 32.7478 42.8414L11.9798 59.4261Z" fill="white" stroke="#222222" stroke-width="6" stroke-linecap="round" stroke-linejoin="round"/>
</svg>
