<svg width="30" height="30" viewBox="0 0 30 30" fill="none" xmlns="http://www.w3.org/2000/svg">
<path d="M7.5 9.95312H22.5" stroke="#AAAAAA" stroke-width="1.5" stroke-miterlimit="10" stroke-linecap="round" stroke-linejoin="round"/>
<path d="M14.9673 9.94043H8.67188L9.42039 21.4287C9.45112 21.8909 9.83525 22.2501 10.2984 22.2501H19.6274C20.0949 22.2501 20.4835 21.8887 20.5142 21.4221L21.2627 9.94262H14.9673V9.94043Z" stroke="#AAAAAA" stroke-width="1.5" stroke-miterlimit="10" stroke-linecap="round" stroke-linejoin="round"/>
<path d="M10.8186 9.95347C10.7944 9.82862 10.7812 9.69939 10.7812 9.56797C10.7812 8.56261 11.5298 7.75 12.4539 7.75H17.6584C18.5825 7.75 19.331 8.5648 19.331 9.56797C19.331 9.69282 19.32 9.81548 19.2981 9.93376" stroke="#AAAAAA" stroke-width="1.5" stroke-miterlimit="10" stroke-linecap="round" stroke-linejoin="round"/>
<path d="M11.9531 13.0068L12.436 19.1398" stroke="#AAAAAA" stroke-width="1.5" stroke-miterlimit="10" stroke-linecap="round" stroke-linejoin="round"/>
<path d="M18.1624 13.0068L17.6816 19.1398" stroke="#AAAAAA" stroke-width="1.5" stroke-miterlimit="10" stroke-linecap="round" stroke-linejoin="round"/>
<path d="M15.0586 13.0068V19.1398" stroke="#AAAAAA" stroke-width="1.5" stroke-miterlimit="10" stroke-linecap="round" stroke-linejoin="round"/>
</svg>
