<svg width="180" height="180" viewBox="0 0 180 180" fill="none" xmlns="http://www.w3.org/2000/svg">
<path d="M81.8333 50.2778C85.7597 50.2778 89.5333 50.9042 93.0625 52.0347M81.8333 50.2778C77.9222 50.2778 74.1486 50.8889 70.6042 52.0347M81.8333 50.2778C85.7444 50.2778 89.5181 50.8889 93.0625 52.0347M81.8333 50.2778C77.9069 50.2778 74.1333 50.9042 70.6042 52.0347M93.0625 52.0347C93.7042 50.5528 94.0556 48.9333 94.0556 47.2222C94.0556 40.4694 88.5861 35 81.8333 35C75.0806 35 69.6111 40.4694 69.6111 47.2222C69.6111 48.9333 69.9625 50.5528 70.6042 52.0347M93.0625 52.0347C107.821 56.7861 118.5 70.6125 118.5 86.9444V129.722H45.1667V86.9444C45.1667 70.6125 55.8458 56.7861 70.6042 52.0347M36 129.722H127.667M81.8333 145C90.2667 145 97.1111 138.156 97.1111 129.722H66.5556C66.5556 138.156 73.4 145 81.8333 145Z" stroke="#222222" stroke-width="6" stroke-linecap="round" stroke-linejoin="round"/>
<circle cx="120" cy="74" r="24" fill="#EB9880" stroke="#222222" stroke-width="6" stroke-linejoin="round"/>
<path d="M120 64V74" stroke="#222222" stroke-width="6" stroke-linecap="round"/>
<path d="M120 82.625V83.625" stroke="#222222" stroke-width="6" stroke-linecap="round"/>
</svg>
