<svg width="46" height="46" viewBox="0 0 46 46" fill="none" xmlns="http://www.w3.org/2000/svg">
<circle cx="23" cy="23" r="22.25" fill="#F3E7E3" stroke="#D9C9BE" stroke-width="1.5"/>
<ellipse cx="22.9309" cy="30.8641" rx="11.2824" ry="3.07703" fill="#F3E7E3"/>
<path d="M29.0001 28.3887C32.154 28.9082 34.2498 29.819 34.2498 30.8613C34.2498 32.4772 29.1919 33.786 22.9491 33.786C16.7063 33.786 11.6484 32.4772 11.6484 30.8613C11.6484 29.8628 13.5832 28.979 16.5317 28.4528" stroke="#222222" stroke-width="1.5" stroke-linecap="round" stroke-linejoin="round"/>
<path d="M22.9475 12.1973C19.3148 12.1973 16.3711 15.1508 16.3711 18.791C16.3711 20.0138 16.5688 20.6786 16.8973 21.7195C17.6273 24.0343 20.6504 27.1842 22.1277 28.6247C22.5871 29.0727 23.3079 29.0727 23.7674 28.6249C25.2439 27.1856 28.2646 24.0403 28.9945 21.7352C29.3262 20.688 29.5271 20.0201 29.5271 18.791C29.5271 15.1508 26.5833 12.1973 22.9507 12.1973H22.9475Z" fill="#F97173" stroke="#222222" stroke-width="1.5" stroke-linecap="round" stroke-linejoin="round"/>
<path d="M22.8835 21.6431C22.7911 21.6405 22.6137 21.6192 22.4363 21.5086C22.1159 21.3088 19.6813 19.644 19.7454 17.9793C19.8094 16.3148 21.7949 15.5157 22.9482 17.1128L22.9736 17.0797C24.1303 15.5268 26.0886 16.3264 26.1522 17.9793C26.2163 19.644 23.7817 21.3088 23.4614 21.5086C23.2517 21.6393 23.0421 21.6453 22.9727 21.6431H22.9249C22.9143 21.6435 22.9003 21.6436 22.8836 21.6431L22.8835 21.6431Z" fill="#F3E7E3" stroke="#222222" stroke-width="1.5" stroke-linejoin="round"/>
</svg>
