<svg width="120" height="120" viewBox="0 0 120 120" fill="none" xmlns="http://www.w3.org/2000/svg">
    <rect x="25.801" y="33" width="68.4" height="54" rx="9" stroke="#494E8F" stroke-width="6"/>
    <circle cx="46.525" cy="48.612" r="5.204" fill="#494E8F"/>
    <path d="m38.401 75.3 7.414-11.612c1.607-2.518 5.625-2.518 7.233 0l2.453 4.185" stroke="#494E8F" stroke-width="6" stroke-linecap="round"/>
    <path d="m69.605 56.423 2.531-1.609-2.531 1.61zm9.464 20.486a3 3 0 0 0 5.064-3.219l-5.064 3.219zM62.65 56.423l-2.532-1.609-.014.023-.014.022 2.56 1.564zm4.423 1.61 11.996 18.876 5.064-3.219-11.996-18.876-5.064 3.218zM58.06 69.69l7.15-11.704-5.121-3.128-7.15 11.704 5.121 3.128zm14.075-14.877c-2.724-4.286-9.294-4.286-12.018 0l5.064 3.218c.137-.215.45-.432.945-.432.495 0 .808.216.946.432l5.064-3.218z" fill="#494E8F"/>
</svg>
