<svg width="15" height="14" viewBox="0 0 15 14" fill="none" xmlns="http://www.w3.org/2000/svg">
<path d="M13.4606 6.03606C12.2018 4.12867 10.1713 2.75 7.75 2.75C5.32872 2.75 3.2983 4.12863 2.03949 6.03569C1.65353 6.6204 1.6535 7.37895 2.03941 7.96369C3.29204 9.86169 5.30875 11.2362 7.71433 11.2496C7.72619 11.2499 7.73808 11.25 7.75 11.25C10.1714 11.25 12.2018 9.87095 13.4605 7.96406C13.8465 7.37934 13.8465 6.6208 13.4606 6.03606Z" fill="#AAAAAA"/>
<path d="M7.75 9.25C6.50736 9.25 5.5 8.24264 5.5 7C5.5 5.75736 6.50736 4.75 7.75 4.75C8.99264 4.75 10 5.75736 10 7C10 8.24264 8.99264 9.25 7.75 9.25Z" fill="white"/>
</svg>
