<svg width="12" height="12" viewBox="0 0 12 12" fill="none" xmlns="http://www.w3.org/2000/svg">
<path d="M11.9261 5.07049H9.78291C9.78291 5.07049 9.78291 5.07049 9.78291 5.07501H6.12933V7.36826H9.44111C9.43649 7.74821 9.2933 8.06483 9.04388 8.35432C8.35104 9.17753 7.30254 9.70222 6.12933 9.70222C4.03695 9.70222 2.34642 8.04222 2.34642 5.99774C2.34642 3.95326 4.04157 2.29325 6.12933 2.29325C7.05774 2.29325 7.90762 2.62345 8.56813 3.17075L10.1848 1.50622C9.10393 0.569921 7.68591 0 6.13395 0C2.74365 0 0 2.68677 0 5.99774C0 9.30871 2.74365 12 6.12933 12C7.31178 12 8.41109 11.6698 9.34411 11.1044C11.0901 10.046 12 8.1553 12 5.99774C12 5.68112 11.9769 5.37354 11.9261 5.07049Z" fill="white"/>
</svg>
