<svg width="200" height="200" viewBox="0 0 200 200" fill="none" xmlns="http://www.w3.org/2000/svg">
    <circle cx="100" cy="100" r="100" fill="#F5443C"/>
    <path d="M138.371 93.803h-14.083v.03h-24.01v15.289h21.764c-.031 2.533-.972 4.644-2.611 6.573a24.82 24.82 0 0 1-19.153 8.986c-13.75 0-24.859-11.066-24.859-24.696s11.14-24.697 24.859-24.697c6.101 0 11.686 2.202 16.027 5.85l10.623-11.097C119.826 63.8 110.507 60 100.309 60 78.029 60 60 77.912 60 99.985S78.03 140 100.278 140a40.185 40.185 0 0 0 21.126-5.971c11.474-7.056 17.453-19.66 17.453-34.044 0-2.11-.152-4.161-.486-6.182z" fill="#fff"/>
</svg>
