<svg width="128" height="128" viewBox="0 0 128 128" fill="none" xmlns="http://www.w3.org/2000/svg">
<path d="M93.6258 35.1998H34.3729C30.1165 35.1998 26.666 38.6503 26.666 42.9067V84.9728C26.666 89.2292 30.1165 92.6797 34.3729 92.6797H93.6258C97.8822 92.6797 101.333 89.2292 101.333 84.9728V42.9067C101.333 38.6503 97.8822 35.1998 93.6258 35.1998Z" stroke="#73655F" stroke-width="6" stroke-linecap="round" stroke-linejoin="round"/>
<path d="M49.0054 63.0664C51.9683 63.0664 54.3702 60.6645 54.3702 57.7016C54.3702 54.7388 51.9683 52.3369 49.0054 52.3369C46.0425 52.3369 43.6406 54.7388 43.6406 57.7016C43.6406 60.6645 46.0425 63.0664 49.0054 63.0664Z" fill="#73655F" stroke="#73655F" stroke-width="4" stroke-linecap="round" stroke-linejoin="round"/>
<path d="M58.6551 75.5433C59.4558 75.5433 60.0463 74.7927 59.8762 74.012C59.1656 70.7391 56.2229 68.2869 52.6998 68.2869H45.3132C41.7901 68.2869 38.8474 70.7391 38.1368 74.012C37.9666 74.7927 38.5572 75.5433 39.3579 75.5433H58.6551Z" fill="#73655F" stroke="#73655F" stroke-width="4" stroke-linecap="round" stroke-linejoin="round"/>
<path d="M87.4002 35.53V49.5025L80.1737 46.8701L72.9473 49.5025V35.53H87.4002Z" fill="#73655F" stroke="#73655F" stroke-width="4" stroke-linecap="round" stroke-linejoin="round"/>
<path d="M69.4238 61.4586H86.479" stroke="#73655F" stroke-width="6" stroke-linecap="round" stroke-linejoin="round"/>
<path d="M69.4238 73.1711H86.479" stroke="#73655F" stroke-width="6" stroke-linecap="round" stroke-linejoin="round"/>
</svg>
