<svg width="160" height="160" viewBox="0 0 160 160" fill="none" xmlns="http://www.w3.org/2000/svg">
    <path fill="#fff" d="M0 0h160v160H0z"/>
    <path d="M98.666 65.334a8 8 0 1 0 0-16 8 8 0 0 0 0 16z" stroke="#DDD" stroke-width="4.5" stroke-linecap="round" stroke-linejoin="round"/>
    <mask id="eu40p7mtca" maskUnits="userSpaceOnUse" x="73.666" y="32.334" width="50" height="50" fill="#000">
        <path fill="#fff" d="M73.666 32.334h50v50h-50z"/>
        <path d="m101.609 37.123 1.478 3.613c1.478.398 2.874.991 4.162 1.743l3.619-1.516 2.002 2.002.158.158 2.002 2.002-1.528 3.65a17.243 17.243 0 0 1 1.699 4.112l3.669 1.503v5.887l-3.669 1.503a17.353 17.353 0 0 1-1.699 4.111l1.528 3.65-2.002 2.003-.158.158-2.002 2.002-3.619-1.516a17.156 17.156 0 0 1-4.162 1.743l-1.478 3.613h-5.886l-1.46-3.562a17.03 17.03 0 0 1-4.269-1.756l-3.536 1.484-2.002-2.002-.158-.158-2.002-2.002 1.471-3.505a17.081 17.081 0 0 1-1.806-4.326l-3.505-1.434v-5.886l3.505-1.434a17.078 17.078 0 0 1 1.806-4.326l-1.471-3.506 2.002-2.002.157-.158 2.003-2.002 3.536 1.484a17.03 17.03 0 0 1 4.27-1.755l1.459-3.562h5.886m0-3.803h-5.886a3.779 3.779 0 0 0-3.505 2.356l-.784 1.914c-.543.196-1.08.417-1.604.663l-1.907-.796a3.772 3.772 0 0 0-4.143.815l-2.002 2.002-.158.158-2.002 2.002a3.793 3.793 0 0 0-.815 4.143l.777 1.857c-.26.55-.487 1.105-.695 1.674l-1.863.764a3.795 3.795 0 0 0-2.356 3.505v5.887c0 1.54.928 2.924 2.356 3.505l1.863.764c.208.569.442 1.124.695 1.674l-.777 1.857a3.79 3.79 0 0 0 .815 4.143l2.002 2.002.158.158 2.002 2.002a3.783 3.783 0 0 0 4.143.815l1.907-.796c.524.24 1.061.46 1.604.663l.784 1.914a3.795 3.795 0 0 0 3.505 2.356h5.886a3.779 3.779 0 0 0 3.505-2.356l.815-1.983c.505-.19 1.004-.398 1.497-.626l1.983.834a3.77 3.77 0 0 0 4.143-.815l2.002-2.002.158-.158 2.002-2.002a3.791 3.791 0 0 0 .815-4.143l-.852-2.027c.214-.468.41-.948.593-1.428l2.04-.834a3.795 3.795 0 0 0 2.356-3.505v-5.886a3.778 3.778 0 0 0-2.356-3.505l-2.04-.834c-.177-.486-.379-.96-.593-1.427l.852-2.028a3.789 3.789 0 0 0-.815-4.143l-2.002-2.002-.158-.158-2.002-2.002a3.781 3.781 0 0 0-4.143-.815l-1.983.834a22.164 22.164 0 0 0-1.497-.625l-.815-1.983a3.794 3.794 0 0 0-3.505-2.356v-.026z"/>
    </mask>
    <path d="m101.609 37.123 1.478 3.613c1.478.398 2.874.991 4.162 1.743l3.619-1.516 2.002 2.002.158.158 2.002 2.002-1.528 3.65a17.243 17.243 0 0 1 1.699 4.112l3.669 1.503v5.887l-3.669 1.503a17.353 17.353 0 0 1-1.699 4.111l1.528 3.65-2.002 2.003-.158.158-2.002 2.002-3.619-1.516a17.156 17.156 0 0 1-4.162 1.743l-1.478 3.613h-5.886l-1.46-3.562a17.03 17.03 0 0 1-4.269-1.756l-3.536 1.484-2.002-2.002-.158-.158-2.002-2.002 1.471-3.505a17.081 17.081 0 0 1-1.806-4.326l-3.505-1.434v-5.886l3.505-1.434a17.078 17.078 0 0 1 1.806-4.326l-1.471-3.506 2.002-2.002.157-.158 2.003-2.002 3.536 1.484a17.03 17.03 0 0 1 4.27-1.755l1.459-3.562h5.886m0-3.803h-5.886a3.779 3.779 0 0 0-3.505 2.356l-.784 1.914c-.543.196-1.08.417-1.604.663l-1.907-.796a3.772 3.772 0 0 0-4.143.815l-2.002 2.002-.158.158-2.002 2.002a3.793 3.793 0 0 0-.815 4.143l.777 1.857c-.26.55-.487 1.105-.695 1.674l-1.863.764a3.795 3.795 0 0 0-2.356 3.505v5.887c0 1.54.928 2.924 2.356 3.505l1.863.764c.208.569.442 1.124.695 1.674l-.777 1.857a3.79 3.79 0 0 0 .815 4.143l2.002 2.002.158.158 2.002 2.002a3.783 3.783 0 0 0 4.143.815l1.907-.796c.524.24 1.061.46 1.604.663l.784 1.914a3.795 3.795 0 0 0 3.505 2.356h5.886a3.779 3.779 0 0 0 3.505-2.356l.815-1.983c.505-.19 1.004-.398 1.497-.626l1.983.834a3.77 3.77 0 0 0 4.143-.815l2.002-2.002.158-.158 2.002-2.002a3.791 3.791 0 0 0 .815-4.143l-.852-2.027c.214-.468.41-.948.593-1.428l2.04-.834a3.795 3.795 0 0 0 2.356-3.505v-5.886a3.778 3.778 0 0 0-2.356-3.505l-2.04-.834c-.177-.486-.379-.96-.593-1.427l.852-2.028a3.789 3.789 0 0 0-.815-4.143l-2.002-2.002-.158-.158-2.002-2.002a3.781 3.781 0 0 0-4.143-.815l-1.983.834a22.164 22.164 0 0 0-1.497-.625l-.815-1.983a3.794 3.794 0 0 0-3.505-2.356v-.026z" fill="#DDD"/>
    <path d="m103.087 40.736-.74.303a.798.798 0 0 0 .532.47l.208-.773zm4.162 1.743-.403.69a.8.8 0 0 0 .712.048l-.309-.738zm3.619-1.516.566-.566a.8.8 0 0 0-.875-.172l.309.738zm2.002 2.002.566-.566-.566.566zm.158.158.566-.566-.566.566zm2.002 2.002.738.309a.8.8 0 0 0-.172-.875l-.566.566zm-1.528 3.65-.738-.308a.801.801 0 0 0 .044.707l.694-.398zm1.699 4.112-.773.208a.8.8 0 0 0 .469.532l.304-.74zm3.669 1.503h.8a.8.8 0 0 0-.497-.74l-.303.74zm0 5.887.303.74a.8.8 0 0 0 .497-.74h-.8zm-3.669 1.503-.304-.74a.802.802 0 0 0-.469.532l.773.208zm-1.699 4.111-.694-.398a.801.801 0 0 0-.044.707l.738-.309zm1.528 3.65.566.567a.8.8 0 0 0 .172-.875l-.738.309zm-2.16 2.16.566.567-.566-.566zm-2.002 2.003-.309.738a.8.8 0 0 0 .875-.172l-.566-.566zm-3.619-1.516.309-.738a.8.8 0 0 0-.712.047l.403.691zm-4.162 1.743-.209-.772a.8.8 0 0 0-.531.47l.74.302zm-1.478 3.613v.8a.8.8 0 0 0 .741-.497l-.741-.303zm-5.886 0-.74.303a.8.8 0 0 0 .74.497v-.8zm-1.46-3.562.741-.303a.8.8 0 0 0-.54-.472l-.2.775zm-4.269-1.756.401-.692a.8.8 0 0 0-.71-.046l.31.738zm-3.536 1.484-.566.566a.8.8 0 0 0 .875.172l-.31-.738zm-2.002-2.002.565-.566-.566.566zm-.158-.158.565-.565-.565.565zm-2.002-2.002-.738-.31a.8.8 0 0 0 .172.876l.566-.566zm1.471-3.505.738.31a.8.8 0 0 0-.049-.716l-.689.406zm-1.806-4.326.773-.204a.8.8 0 0 0-.47-.537l-.303.74zm-3.505-1.434h-.8a.8.8 0 0 0 .497.74l.302-.74zm0-5.886-.303-.74a.8.8 0 0 0-.498.74h.8zm3.505-1.434.303.74a.8.8 0 0 0 .47-.536l-.773-.204zm1.806-4.326.69.406a.8.8 0 0 0 .048-.716l-.738.31zm-1.471-3.506-.566-.565a.8.8 0 0 0-.172.875l.737-.31zm4.162-4.162.31-.737a.8.8 0 0 0-.876.172l.566.565zm3.536 1.484-.31.738a.8.8 0 0 0 .711-.045l-.4-.693zm4.27-1.755.2.774a.8.8 0 0 0 .54-.471l-.74-.303zm1.459-3.562v-.8a.8.8 0 0 0-.74.496l.74.304zm5.886-3.803h.8a.8.8 0 0 0-.8-.8v.8zm-9.391 2.356.74.303v-.001l-.74-.302zm-.784 1.914.272.753a.8.8 0 0 0 .469-.45l-.74-.303zm-1.604.663-.308.738a.8.8 0 0 0 .648-.014l-.34-.724zm-1.907-.796.308-.738-.003-.001-.305.74zm-4.143.815.565.566.003-.003-.568-.563zm-4.977 8.305.738-.308v-.001l-.738.31zm.777 1.857.723.341a.8.8 0 0 0 .015-.65l-.738.31zm-.695 1.674.304.74a.8.8 0 0 0 .447-.465l-.751-.275zm-1.863.764.303.74-.303-.74zm0 12.897.303-.74-.002-.001-.301.74zm1.863.764.751-.275a.8.8 0 0 0-.447-.465l-.304.74zm.695 1.674.738.309a.8.8 0 0 0-.011-.643l-.727.334zm-.777 1.857-.738-.31v.001l.738.309zm.815 4.143-.566.566.566-.566zm2.002 2.002.565-.566-.565.566zm.158.158.565-.566-.565.566zm2.002 2.002-.566.566.566-.566zm4.143.815-.308-.739-.006.003.314.736zm1.907-.796.333-.727a.8.8 0 0 0-.64-.011l.307.738zm1.604.663.74-.303a.8.8 0 0 0-.46-.447l-.28.75zm.784 1.914.74-.303-.74.303zm12.896 0-.74-.304-.001.002.741.302zm.815-1.983-.281-.75a.802.802 0 0 0-.459.445l.74.305zm1.497-.626.31-.737a.8.8 0 0 0-.645.01l.335.727zm1.983.834-.31.737.005.002.305-.739zm4.143-.815-.565-.566-.003.003.568.563zm2.16-2.16-.565-.566.565.566zm2.002-2.002.566.566-.566-.566zm.815-4.143.738-.31-.738.31zm-.852-2.027-.727-.334a.798.798 0 0 0-.011.644l.738-.31zm.593-1.428-.302-.74a.8.8 0 0 0-.445.455l.747.285zm2.04-.834.303.741-.303-.74zm0-12.896-.302.74h.001l.301-.74zm-2.04-.834-.752.273a.804.804 0 0 0 .45.468l.302-.741zm-.593-1.427-.738-.31a.798.798 0 0 0 .011.644l.727-.334zm.852-2.028.738.31v-.001l-.738-.309zm-.815-4.143.566-.566-.566.566zm-2.002-2.002-.565.566.565-.566zm-.158-.158-.565.566.565-.566zm-2.002-2.002.566-.566-.566.566zm-4.143-.815.31.738.004-.002-.314-.736zm-1.983.834-.335.726a.8.8 0 0 0 .645.011l-.31-.737zm-1.497-.625-.74.304a.802.802 0 0 0 .459.445l.281-.75zm-.815-1.983-.74.302v.002l.74-.304zm-3.505-2.356h-.8a.8.8 0 0 0 .8.8v-.8zm-.74 4.067 1.478 3.612 1.481-.605-1.478-3.613-1.481.606zm2.01 4.082c1.407.379 2.737.944 3.967 1.662l.806-1.382a17.858 17.858 0 0 0-4.357-1.825l-.416 1.545zm4.679 1.709 3.619-1.516-.618-1.476-3.619 1.516.618 1.476zm2.744-1.688 2.003 2.002 1.131-1.132-2.002-2.002-1.132 1.132zm2.003 2.002.157.158 1.132-1.132-.158-.158-1.131 1.132zm.157.158 2.003 2.002 1.131-1.132-2.002-2.002-1.132 1.132zm1.83 1.127-1.528 3.65 1.476.619 1.528-3.651-1.476-.618zm-1.484 4.358a16.373 16.373 0 0 1 1.62 3.92l1.545-.414a17.989 17.989 0 0 0-1.777-4.303l-1.388.797zm2.089 4.453 3.67 1.504.606-1.481-3.669-1.503-.607 1.48zm3.173.763v5.887h1.6V54.39h-1.6zm.497 5.146-3.67 1.503.607 1.481 3.669-1.503-.606-1.48zm-4.139 2.036a16.495 16.495 0 0 1-1.62 3.921l1.388.797a18.123 18.123 0 0 0 1.777-4.302l-1.545-.416zm-1.664 4.628 1.528 3.65 1.476-.617-1.528-3.65-1.476.617zm1.701 2.776-2.003 2.002 1.132 1.132 2.002-2.002-1.131-1.132zm-2.003 2.002-.157.158 1.131 1.132.158-.158-1.132-1.132zm-.157.158-2.003 2.002 1.132 1.132 2.002-2.002-1.131-1.132zm-1.128 1.83-3.619-1.516-.618 1.476 3.619 1.516.618-1.476zm-4.331-1.469a16.369 16.369 0 0 1-3.968 1.662l.418 1.545a17.98 17.98 0 0 0 4.356-1.825l-.806-1.382zm-4.499 2.132-1.478 3.612 1.481.606 1.478-3.613-1.481-.605zm-.738 3.115h-5.886v1.6h5.886v-1.6zm-5.146.497-1.459-3.562-1.48.606 1.459 3.562 1.48-.606zm-1.999-4.034a16.226 16.226 0 0 1-4.069-1.673l-.801 1.384a17.828 17.828 0 0 0 4.47 1.838l.4-1.549zm-4.78-1.718-3.536 1.484.62 1.475 3.536-1.484-.62-1.475zm-2.66 1.656-2.003-2.002-1.131 1.13 2.002 2.003 1.131-1.131zm-2.003-2.002-.158-.158-1.131 1.131.158.158 1.131-1.132zm-.158-.158-2.002-2.002-1.131 1.13 2.002 2.003 1.131-1.131zm-1.83-1.127 1.472-3.505-1.476-.62-1.471 3.506 1.475.619zm1.423-4.221a16.281 16.281 0 0 1-1.722-4.124l-1.547.407a17.882 17.882 0 0 0 1.89 4.53l1.38-.813zm-2.192-4.66-3.506-1.434-.605 1.48 3.505 1.434.606-1.48zm-3.008-.694v-5.886h-1.6v5.886h1.6zm-.498-5.146 3.506-1.434-.606-1.48-3.505 1.433.605 1.481zm3.976-1.97a16.281 16.281 0 0 1 1.722-4.124l-1.378-.813a17.883 17.883 0 0 0-1.89 4.53l1.546.407zm1.77-4.84-1.47-3.505-1.476.62 1.471 3.504 1.476-.619zm-1.643-2.63 2.002-2.002-1.131-1.131-2.002 2.002 1.131 1.131zm2.002-2.002.158-.158-1.131-1.131-.158.158 1.131 1.131zm.158-.158 2.002-2.002-1.131-1.131-2.002 2.002 1.131 1.131zm1.127-1.83 3.537 1.484.619-1.475-3.537-1.484-.619 1.475zm4.247 1.439c1.26-.73 2.627-1.301 4.069-1.674l-.4-1.549c-1.59.41-3.09 1.04-4.47 1.838l.801 1.385zM95.005 41l1.458-3.562-1.48-.607-1.46 3.563 1.481.606zm.718-3.065h5.886v-1.6h-5.886v1.6zm5.886-5.403h-5.886v1.6h5.886v-1.6zm-5.886 0a4.579 4.579 0 0 0-4.246 2.855l1.482.603a2.979 2.979 0 0 1 2.764-1.858v-1.6zm-4.246 2.853-.783 1.914 1.48.606.784-1.914-1.48-.606zm-.314 1.464c-.565.204-1.125.435-1.673.692l.68 1.448c.501-.235 1.015-.447 1.536-.634l-.543-1.506zm-1.025.678-1.907-.796-.616 1.477 1.907.795.616-1.476zm-1.91-.797a4.644 4.644 0 0 0-1.77-.358v1.6c.383 0 .779.08 1.16.237l.61-1.479zm-1.77-.358a4.572 4.572 0 0 0-3.246 1.349l1.136 1.126a2.972 2.972 0 0 1 2.11-.874v-1.6zm-3.244 1.346-2.002 2.002 1.131 1.132 2.002-2.002-1.131-1.132zm-2.002 2.002-.158.158 1.131 1.132.158-.158-1.131-1.132zm-.158.158-2.002 2.003 1.131 1.13 2.002-2.001-1.131-1.132zm-2.002 2.003a4.593 4.593 0 0 0-.987 5.018l1.475-.62a2.993 2.993 0 0 1 .643-3.267l-1.131-1.131zm-.987 5.017.777 1.857 1.476-.618-.777-1.856-1.476.617zm.791 1.207c-.27.575-.507 1.153-.722 1.74l1.502.55c.202-.55.42-1.083.667-1.608l-1.447-.682zm-.275 1.275-1.863.764.607 1.48 1.864-.764-.608-1.48zm-1.862.764a4.595 4.595 0 0 0-2.853 4.245h1.6c0-1.209.738-2.306 1.859-2.764l-.606-1.481zm-2.853 4.245v5.887h1.6V54.39h-1.6zm0 5.887a4.579 4.579 0 0 0 2.854 4.246l.603-1.482a2.979 2.979 0 0 1-1.857-2.764h-1.6zm2.852 4.245 1.863.764.608-1.48-1.864-.764-.607 1.48zm1.416.3c.217.591.459 1.167.719 1.732l1.454-.668c-.246-.534-.471-1.07-.67-1.615l-1.503.55zm.708 1.09-.777 1.856 1.476.617.777-1.856-1.476-.618zm-.777 1.856a4.59 4.59 0 0 0 .987 5.017l1.131-1.13a2.99 2.99 0 0 1-.642-3.27l-1.476-.617zm.987 5.017 2.002 2.003 1.131-1.132-2.002-2.002-1.131 1.132zm2.002 2.003.158.157 1.131-1.13-.158-.159-1.131 1.132zm.158.157 2.002 2.003 1.131-1.132-2.002-2.002-1.131 1.132zm2.002 2.003a4.583 4.583 0 0 0 3.244 1.346v-1.6a2.983 2.983 0 0 1-2.113-.878l-1.131 1.132zm3.244 1.346c.595 0 1.201-.115 1.779-.361l-.628-1.472c-.37.157-.761.233-1.151.233v1.6zm1.773-.359 1.907-.796-.616-1.476-1.907.795.616 1.477zm1.266-.807c.543.249 1.098.477 1.658.686l.558-1.5a22.96 22.96 0 0 1-1.55-.64l-.666 1.454zm1.197.239.783 1.914 1.481-.606-.783-1.914-1.481.606zm.783 1.913a4.595 4.595 0 0 0 4.246 2.853v-1.6a2.995 2.995 0 0 1-2.765-1.858l-1.48.606zm4.246 2.853h5.886v-1.6h-5.886v1.6zm5.886 0a4.578 4.578 0 0 0 4.246-2.854l-1.482-.603a2.978 2.978 0 0 1-2.764 1.858v1.6zm4.245-2.851.815-1.983-1.48-.609-.815 1.984 1.48.608zm.356-1.538a22.715 22.715 0 0 0 1.551-.648l-.67-1.453c-.475.22-.956.42-1.443.603l.562 1.498zm.906-.637 1.983.834.62-1.475-1.983-.834-.62 1.475zm1.988.835a4.64 4.64 0 0 0 1.77.358v-1.6a3.04 3.04 0 0 1-1.159-.236l-.611 1.478zm1.77.358a4.57 4.57 0 0 0 3.246-1.349l-1.136-1.126a2.972 2.972 0 0 1-2.11.875v1.6zm3.244-1.346 2.002-2.002-1.131-1.132-2.002 2.003 1.131 1.13zm2.002-2.002.158-.158-1.131-1.132-.158.158 1.131 1.132zm.158-.158 2.002-2.002-1.131-1.132-2.002 2.002 1.131 1.132zm2.002-2.002a4.594 4.594 0 0 0 .987-5.019l-1.476.62a2.994 2.994 0 0 1-.642 3.267l1.131 1.132zm.987-5.02-.853-2.026-1.475.62.853 2.027 1.475-.62zm-.864-1.382c.225-.488.427-.986.615-1.477l-1.495-.57c-.179.47-.368.932-.573 1.379l1.453.668zm.17-1.021 2.04-.834-.605-1.481-2.04.834.605 1.48zm2.04-.834a4.595 4.595 0 0 0 2.853-4.246h-1.6c0 1.21-.738 2.307-1.859 2.765l.606 1.481zm2.853-4.246v-5.886h-1.6v5.886h1.6zm0-5.886a4.58 4.58 0 0 0-2.854-4.246l-.603 1.482a2.98 2.98 0 0 1 1.857 2.764h1.6zm-2.853-4.246-2.04-.833-.605 1.48 2.04.834.605-1.48zm-1.591-.366a19.265 19.265 0 0 0-.619-1.488l-1.453.668c.208.454.401.907.568 1.366l1.504-.546zm-.608-.844.853-2.028-1.475-.62-.853 2.028 1.475.62zm.853-2.03a4.59 4.59 0 0 0-.987-5.017l-1.131 1.132a2.991 2.991 0 0 1 .642 3.269l1.476.617zm-.987-5.017-2.002-2.002-1.131 1.132 2.002 2.002 1.131-1.132zm-2.002-2.002-.158-.158-1.131 1.132.158.158 1.131-1.132zm-.158-.158-2.002-2.002-1.131 1.132 2.002 2.002 1.131-1.132zm-2.002-2.002a4.585 4.585 0 0 0-3.244-1.346v1.6c.777 0 1.539.304 2.113.878l1.131-1.132zm-3.244-1.346a4.53 4.53 0 0 0-1.779.361l.628 1.472c.37-.158.761-.233 1.151-.233v-1.6zm-1.775.36-1.983.834.62 1.474 1.983-.833-.62-1.475zm-1.338.845a22.716 22.716 0 0 0-1.551-.648l-.562 1.498c.487.182.968.383 1.443.602l.67-1.452zm-1.092-.203-.815-1.983-1.48.608.815 1.983 1.48-.608zm-.814-1.982a4.596 4.596 0 0 0-4.246-2.853v1.6c1.209 0 2.307.737 2.765 1.858l1.481-.605zm-3.446-2.053v-.026h-1.6v.026h1.6z" fill="#DDD" mask="url(#eu40p7mtca)"/>
    <path d="M35.76 112.464A35.536 35.536 0 0 1 69.527 88h2.278a35.535 35.535 0 0 1 33.767 24.464c2.512 7.66-3.195 15.536-11.255 15.536H47.015c-8.06 0-13.767-7.876-11.255-15.536z" fill="#fff" stroke="#DDD" stroke-width="6"/>
    <path d="M70.668 85.337c9.941 0 18.001-8.06 18.001-18.002 0-9.942-8.06-18.001-18.001-18.001-9.942 0-18.002 8.06-18.002 18.001 0 9.942 8.06 18.002 18.002 18.002z" fill="#fff" stroke="#DDD" stroke-width="5" stroke-linecap="round" stroke-linejoin="round"/>
</svg>
