<svg width="40" height="40" viewBox="0 0 40 40" fill="none" xmlns="http://www.w3.org/2000/svg">
<path d="M12.2413 26.7773L11.7306 29.4642H10.4985C9.22168 29.4642 6.66797 30.1482 6.66797 32.8839C6.66797 34.0238 7.43408 36.3036 10.4985 36.3036H19.8196H20.0013H29.3223C32.3868 36.3036 33.1529 34.0238 33.1529 32.8839C33.1529 30.1482 30.5992 29.4642 29.3223 29.4642H28.0903L27.5795 26.7773" stroke="black" stroke-width="1.5" stroke-linecap="round" stroke-linejoin="round"/>
<path d="M13.334 31.7773C14.662 32.0216 17.1916 32.6236 19.9736 33.5727M25.5918 35.9298C23.7942 34.992 21.8279 34.2052 19.9736 33.5727M26.1025 31.7773C24.6554 31.9972 21.4037 32.664 19.9736 33.5727" stroke="black" stroke-width="1.5" stroke-linecap="round" stroke-linejoin="round"/>
<path d="M19.9 27.8875C19.7559 27.8835 19.4791 27.8507 19.2023 27.6798C18.7024 27.3714 14.9039 24.801 15.0039 22.2306C15.1038 19.6607 18.2016 18.4269 20.001 20.8928L20.0407 20.8418C21.8453 18.4442 24.9008 19.6786 25 22.2306C25.1 24.801 21.3015 27.3714 20.8017 27.6798C20.4746 27.8817 20.1475 27.8909 20.0393 27.8876H19.9646C19.948 27.8881 19.9263 27.8883 19.9003 27.8876L19.9 27.8875Z" fill="#FBAD18" stroke="black" stroke-width="1.5" stroke-linejoin="round"/>
<path d="M7.7793 29.9459L9.19932 19.2978C9.50579 16.593 11.6755 14.5547 14.2537 14.5547H19.9138H20.0015H25.6615C28.2398 14.5547 30.4095 16.593 30.716 19.2978L32.136 29.9459" stroke="black" stroke-width="1.5" stroke-linecap="round" stroke-linejoin="round"/>
<path d="M19.7231 14.5556C22.6379 14.5556 25.0009 12.1926 25.0009 9.27778C25.0009 6.36294 22.6379 4 19.7231 4C16.8083 4 14.4453 6.36294 14.4453 9.27778C14.4453 12.1926 16.8083 14.5556 19.7231 14.5556Z" stroke="black" stroke-width="1.5" stroke-miterlimit="10"/>
</svg>
