<svg width="180" height="180" viewBox="0 0 180 180" fill="none" xmlns="http://www.w3.org/2000/svg">
<path d="M85.849 80.5647C98.2481 80.5647 108.299 70.3647 108.299 57.7824C108.299 45.2 98.2481 35 85.849 35C73.4499 35 63.3984 45.2 63.3984 57.7824C63.3984 70.3647 73.4499 80.5647 85.849 80.5647Z" stroke="#222222" stroke-width="6" stroke-linecap="round" stroke-linejoin="round"/>
<path d="M42.5527 131.899C42.2369 129.682 42 127.439 42 125.115C42 100.543 61.6607 80.5918 85.8746 80.5918C98.1995 80.5918 109.345 85.7538 117.318 94.0668" stroke="#222222" stroke-width="6" stroke-linecap="round" stroke-linejoin="round"/>
<rect x="79.5215" y="104.004" width="67.1142" height="41.0142" rx="7.45713" fill="#EB9880" stroke="#222222" stroke-width="6"/>
<path d="M121.117 138.493C120.814 138.493 120.52 138.491 120.239 138.486C119.228 138.469 118.45 137.63 118.45 136.62V136.577C118.45 135.477 119.386 134.595 120.486 134.595C121.261 134.595 121.806 134.512 122.121 133.799C122.195 133.622 122.201 133.424 122.137 133.243L117.968 121.419C117.377 119.743 118.621 117.986 120.398 117.986C121.58 117.986 122.61 118.789 122.897 119.935L124.997 128.307C125.009 128.356 125.054 128.39 125.104 128.39C125.155 128.39 125.199 128.356 125.211 128.307L127.358 119.934C127.652 118.788 128.685 117.986 129.869 117.986C131.658 117.986 132.909 119.756 132.312 121.443L127.8 134.183C126.94 136.654 125.133 138.493 121.117 138.493Z" fill="#222222"/>
<path d="M92.5215 115.598C92.5215 113.828 93.9564 112.393 95.7265 112.393H97.0428C98.3469 112.393 99.5209 113.183 100.012 114.391L103.999 124.2C104.028 124.271 104.097 124.318 104.173 124.318C104.25 124.318 104.319 124.271 104.348 124.2L108.335 114.391C108.826 113.183 110 112.393 111.304 112.393H112.62C114.39 112.393 115.825 113.828 115.825 115.598V130.28C115.825 131.727 114.652 132.9 113.204 132.9C111.757 132.9 110.584 131.727 110.584 130.28V120.934C110.584 120.879 110.539 120.834 110.483 120.834C110.442 120.834 110.405 120.859 110.39 120.898L106.347 131.266C105.996 132.166 105.129 132.759 104.163 132.759C103.193 132.759 102.323 132.161 101.975 131.256L97.9565 120.813C97.9416 120.774 97.9044 120.749 97.8629 120.749C97.8075 120.749 97.7627 120.794 97.7627 120.849V130.28C97.7627 131.727 96.5894 132.9 95.1421 132.9C93.6948 132.9 92.5215 131.727 92.5215 130.28V115.598Z" fill="#222222"/>
</svg>
