<svg width="26" height="25" viewBox="0 0 26 25" fill="none" xmlns="http://www.w3.org/2000/svg">
<path d="M6.33984 12.4346C6.33984 13.0491 7.03818 13.4028 7.53355 13.0393L8.23218 12.5266C8.25946 12.5065 8.29297 12.4957 8.32712 12.4957H12.7643C13.8689 12.4957 14.7643 11.6002 14.7643 10.4957V8.86621C14.7643 7.76164 13.8689 6.86621 12.7643 6.86621H8.33984C7.23527 6.86621 6.33984 7.76164 6.33984 8.86621V12.4346Z" fill="white" stroke="#494E8F" stroke-width="1.5" stroke-miterlimit="10"/>
<path d="M19.75 16.8884C19.75 17.5059 19.0455 17.8589 18.5509 17.4891L17.3942 16.6244C17.3603 16.5989 17.3186 16.5851 17.276 16.5851H11.2624C10.1578 16.5851 9.26242 15.6897 9.26242 14.5851V11.4453C9.26242 10.3407 10.1578 9.44531 11.2624 9.44531H17.75C18.8546 9.44531 19.75 10.3407 19.75 11.4453V16.8884Z" fill="white" stroke="#494E8F" stroke-width="1.5" stroke-miterlimit="10"/>
</svg>
