<svg width="11" height="12" viewBox="0 0 11 12" fill="none" xmlns="http://www.w3.org/2000/svg">
<path d="M5.25 0.75C5.97131 0.75 6.65164 0.889508 7.29098 1.16852C7.93033 1.43933 8.48771 1.81272 8.96311 2.28869C9.43852 2.76465 9.81148 3.32268 10.082 3.96278C10.3607 4.59467 10.5 5.27169 10.5 5.99385C10.5 6.72421 10.3607 7.40944 10.082 8.04953C9.81148 8.68142 9.43852 9.23535 8.96311 9.71131C8.48771 10.1873 7.93033 10.5648 7.29098 10.8438C6.65164 11.1146 5.97131 11.25 5.25 11.25C4.52869 11.25 3.84836 11.1146 3.20902 10.8438C2.56967 10.5648 2.0123 10.1873 1.53689 9.71131C1.06148 9.23535 0.684426 8.68142 0.405738 8.04953C0.135246 7.40944 0 6.72421 0 5.99385C0 5.27169 0.135246 4.59467 0.405738 3.96278C0.684426 3.32268 1.06148 2.76465 1.53689 2.28869C2.0123 1.81272 2.56967 1.43933 3.20902 1.16852C3.84836 0.889508 4.52869 0.75 5.25 0.75ZM7.28687 8.04134C7.51355 7.81439 7.51425 7.44694 7.28842 7.21914L6.07377 5.99385L7.28532 4.78088C7.51261 4.55332 7.51261 4.18466 7.28532 3.95711C7.05765 3.72917 6.68825 3.72917 6.46058 3.95711L5.25 5.16911L4.03942 3.95711C3.81175 3.72917 3.44235 3.72917 3.21468 3.95711C2.98739 4.18466 2.98739 4.55332 3.21468 4.78088L4.42623 5.99385L3.21158 7.21914C2.98575 7.44694 2.98645 7.81439 3.21313 8.04134C3.4414 8.26988 3.812 8.26918 4.0394 8.03978L5.25 6.81858L6.4606 8.03978C6.688 8.26918 7.0586 8.26988 7.28687 8.04134Z" fill="#F97173"/>
</svg>
