<svg width="120" height="120" viewBox="0 0 120 120" fill="none" xmlns="http://www.w3.org/2000/svg">
<rect width="120" height="120" fill="white"/>
<path d="M60 34C62.57 34 65.04 34.41 67.35 35.15M60 34C57.44 34 54.97 34.4 52.65 35.15M60 34C62.56 34 65.03 34.4 67.35 35.15M60 34C57.43 34 54.96 34.41 52.65 35.15M67.35 35.15C67.77 34.18 68 33.12 68 32C68 27.58 64.42 24 60 24C55.58 24 52 27.58 52 32C52 33.12 52.23 34.18 52.65 35.15M67.35 35.15C77.01 38.26 84 47.31 84 58V86H36V58C36 47.31 42.99 38.26 52.65 35.15M30 86H90M60 96C65.52 96 70 91.52 70 86H50C50 91.52 54.48 96 60 96Z" stroke="black" stroke-width="6" stroke-linecap="round" stroke-linejoin="round"/>
</svg>
