<svg width="24" height="24" viewBox="0 0 24 24" fill="none" xmlns="http://www.w3.org/2000/svg">
<path d="M20.9961 11.1533C20.9961 11.7422 20.6622 12.2496 20.1719 12.4968L20.1798 12.4941C20.5323 12.7492 20.7602 13.1619 20.7602 13.6299C20.7602 14.2241 20.3918 14.7288 19.8724 14.9313C20.1295 15.1705 20.2911 15.5123 20.2911 15.8909C20.2911 16.5113 19.8592 17.0292 19.2814 17.1581C19.2417 17.166 19.2125 17.2028 19.2125 17.2475C19.2125 17.2816 19.2311 17.3105 19.2602 17.3263C19.3848 17.3973 19.4987 17.4867 19.5941 17.5945C19.6008 17.6024 19.6067 17.6096 19.6127 17.6168C19.6187 17.6241 19.6246 17.6313 19.6312 17.6392C19.6339 17.6431 19.6372 17.6471 19.6405 17.651C19.6438 17.6549 19.6471 17.6589 19.6498 17.6628C19.6538 17.6694 19.6584 17.6753 19.663 17.6812C19.6677 17.6872 19.6723 17.6931 19.6763 17.6996L19.6922 17.7233C19.7054 17.7417 19.7187 17.7601 19.7293 17.7785C19.7346 17.789 19.7399 17.7969 19.7452 17.8048C19.7531 17.8206 19.7611 17.8337 19.7691 17.8469C19.7717 17.8508 19.7737 17.8548 19.7757 17.8587C19.7777 17.8626 19.7797 17.8666 19.7823 17.8705C19.7886 17.8814 19.7939 17.8932 19.7994 17.9054C19.8032 17.9138 19.8071 17.9224 19.8115 17.931C19.8168 17.9389 19.8194 17.9468 19.8221 17.9547C19.8247 17.9625 19.828 17.9704 19.8313 17.9783C19.8346 17.9862 19.838 17.9941 19.8406 18.002L19.8486 18.0256C19.8525 18.0375 19.8558 18.0487 19.8592 18.0598C19.8625 18.071 19.8658 18.0822 19.8698 18.094C19.8724 18.0993 19.8751 18.1071 19.8751 18.1124C19.8777 18.1216 19.8797 18.1308 19.8817 18.14C19.8837 18.1492 19.8857 18.1584 19.8883 18.1676C19.891 18.1755 19.8936 18.1834 19.8936 18.1913C19.8989 18.2149 19.9042 18.2412 19.9069 18.2649V18.278C19.9077 18.285 19.9089 18.2921 19.9101 18.2991C19.9125 18.3131 19.9148 18.3271 19.9148 18.3411V18.3648C19.9175 18.3884 19.9175 18.4147 19.9175 18.4384V18.4437C19.9281 19.1509 19.3636 19.7293 18.6692 19.7634H10.9095C10.5544 19.7634 10.2072 19.6662 9.89978 19.4848L8.32942 18.8942V19.0761C8.32942 19.6413 7.93742 20.1002 7.45742 20.1002H3.52409C3.41476 20.1002 3.31343 20.0616 3.22809 19.994C3.08943 19.8828 2.99609 19.6944 2.99609 19.4795V9.27195C2.99609 8.92896 3.23343 8.65119 3.52409 8.65119H7.45742C7.94009 8.65119 8.32942 9.11012 8.32942 9.67533V10.2261L9.62416 8.54795C9.87858 8.009 10.3185 7.5831 10.8644 7.34911L11.262 7.17822L13.6789 5.76117L14.3203 4.24421C14.4846 3.85511 14.8662 3.6001 15.2876 3.6001H15.2902C15.9104 3.6001 16.4696 3.97605 16.7054 4.55444C16.7955 4.77791 16.8433 5.01715 16.8433 5.25902V6.93372C16.8433 7.44639 16.7346 7.95379 16.5226 8.42176L16.1569 9.22625C16.0667 9.42605 16.2125 9.65215 16.4298 9.65215H19.504C20.3282 9.65215 20.9961 10.3226 20.9961 11.1533Z" fill="black"/>
</svg>
