<svg width="30" height="30" viewBox="0 0 30 30" fill="none" xmlns="http://www.w3.org/2000/svg">
<circle cx="15" cy="15" r="15" fill="#494E8F"/>
<path fill-rule="evenodd" clip-rule="evenodd" d="M19.9992 13.4638C20.0002 13.427 20.0004 13.3917 19.9998 13.358L20.0002 13.3025C20.0002 10.5952 17.8064 8.40039 15.1002 8.40039C12.394 8.40039 10.2002 10.5952 10.2002 13.3025L10.2006 13.358C10.1998 13.4118 10.2006 13.4697 10.2036 13.5314C10.206 13.5804 10.2098 13.6318 10.2149 13.6855C10.2558 14.2141 10.3802 14.7191 10.5754 15.1874C11.1421 16.7898 12.4448 19.0766 15.1012 21.6004C17.7572 19.0757 19.0595 16.7881 19.6256 15.1857C19.8204 14.7179 19.9446 14.2134 19.9854 13.6855C19.993 13.6065 19.9974 13.5325 19.9992 13.4638Z" fill="white"/>
<path d="M15.0993 15.5483C16.3397 15.5483 17.3452 14.5424 17.3452 13.3015C17.3452 12.0606 16.3397 11.0547 15.0993 11.0547C13.859 11.0547 12.8535 12.0606 12.8535 13.3015C12.8535 14.5424 13.859 15.5483 15.0993 15.5483Z" fill="#494E8F"/>
</svg>
