<svg width="25" height="15" viewBox="0 0 25 15" fill="none" xmlns="http://www.w3.org/2000/svg">
<path d="M23.9749 4.40625C23.4097 4.40625 22.9499 4.86621 22.9499 5.43164C22.9499 5.5957 22.9909 5.74805 23.0612 5.88574C23.0377 5.8916 23.0114 5.89453 22.9879 5.90332C16.8346 8.38477 14.0435 4.23047 13.0096 1.91016C13.3171 1.73145 13.5251 1.40332 13.5251 1.02539C13.5251 0.459961 13.0653 0 12.5 0C11.9347 0 11.4749 0.459961 11.4749 1.02539C11.4749 1.40625 11.6829 1.73438 11.9904 1.91016C10.9565 4.23047 8.16542 8.38477 2.01207 5.90332C1.98864 5.89453 1.96228 5.8916 1.93885 5.88574C2.00621 5.74805 2.05014 5.5957 2.05014 5.43164C2.05014 4.86621 1.59032 4.40625 1.02507 4.40625C0.459817 4.40625 0 4.86621 0 5.43164C0 5.99707 0.459817 6.45703 1.02507 6.45703C1.12172 6.45703 1.21251 6.43945 1.30037 6.41602C1.30037 6.45117 1.3033 6.48926 1.31502 6.52441L2.89948 12.3633C2.96099 12.5918 3.16893 12.75 3.40323 12.75H21.5968C21.834 12.75 22.039 12.5918 22.1005 12.3633L23.685 6.52441C23.6938 6.48633 23.6967 6.45117 23.6996 6.41602C23.7875 6.43945 23.8783 6.45703 23.9749 6.45703C24.5402 6.45703 25 5.99707 25 5.43164C25 4.86621 24.5402 4.40625 23.9749 4.40625Z" fill="#FFD60A"/>
<path d="M21.647 13.5H3.60556C3.147 13.5 2.77778 13.8345 2.77778 14.25C2.77778 14.6655 3.147 15 3.60556 15H21.647C22.1055 15 22.4747 14.6655 22.4747 14.25C22.4747 13.8345 22.1055 13.5 21.647 13.5Z" fill="#FFD60A"/>
</svg>
