<svg width="74" height="74" viewBox="0 0 74 74" fill="none" xmlns="http://www.w3.org/2000/svg">
<path d="M36.693 34.2073C36.3935 34.1992 35.8183 34.133 35.2431 33.7889C34.2046 33.1677 26.3119 27.9906 26.5197 22.8135C26.7273 17.6374 33.1639 15.1523 36.9028 20.1189L36.9852 20.0162C40.735 15.1871 47.0837 17.6734 47.2899 22.8135C47.4976 27.9906 39.6049 33.1677 38.5664 33.7889C37.8868 34.1955 37.2072 34.214 36.9823 34.2073H36.8272C36.7928 34.2084 36.7476 34.2088 36.6935 34.2073L36.693 34.2073Z" fill="#EB9880" stroke="black" stroke-width="2.25" stroke-linejoin="round"/>
<path d="M27.3436 46.9325L22.9926 42.3154C22.2011 41.4755 22.2392 40.1513 23.077 39.3594C23.9146 38.5657 25.2352 38.6039 26.0249 39.4441L31.5058 45.2614C31.5058 45.2614 33.4185 47.1553 33.8768 50.0284C34.3351 52.9015 34.1773 54.6271 34.1773 54.6271" stroke="black" stroke-width="2.25" stroke-miterlimit="10" stroke-linecap="round" stroke-linejoin="round"/>
<path d="M22.6212 39.7722L22.345 37.9122L21.1383 29.7844C21.1401 28.6299 20.2073 27.6916 19.0542 27.6901C17.9029 27.6883 16.9672 28.6236 16.9657 29.7799L16.8057 36.2927" stroke="black" stroke-width="2.25" stroke-miterlimit="10" stroke-linecap="round" stroke-linejoin="round"/>
<path d="M16.806 35.8959L16.9009 41.3763C16.9009 41.3763 16.7122 44.7214 18.3061 45.9981L22.5772 49.9729C23.729 51.0448 24.3832 52.5476 24.3832 54.1218L24.3832 54.6279" stroke="black" stroke-width="2.25" stroke-miterlimit="10" stroke-linecap="round" stroke-linejoin="round"/>
<path d="M46.6447 46.9345L50.9957 42.3174C51.7872 41.4775 51.7491 40.1532 50.9113 39.3614C50.0737 38.5677 48.7531 38.6058 47.9634 39.446L42.4825 45.2634C42.4825 45.2634 40.5698 47.1573 40.1115 50.0304C39.6532 52.9035 39.811 54.629 39.811 54.629" stroke="black" stroke-width="2.25" stroke-miterlimit="10" stroke-linecap="round" stroke-linejoin="round"/>
<path d="M51.3671 39.7742L51.6433 37.9141L52.85 29.7863C52.8482 28.6319 53.781 27.6935 54.9341 27.692C56.0853 27.6902 57.0211 28.6256 57.0226 29.7818L57.1825 36.2946" stroke="black" stroke-width="2.25" stroke-miterlimit="10" stroke-linecap="round" stroke-linejoin="round"/>
<path d="M57.1784 35.8979L57.0835 41.3783C57.0835 41.3783 57.2722 44.7234 55.6783 46L51.4072 49.9749C50.2554 51.0467 49.6012 52.5496 49.6012 54.1238L49.6012 54.6298" stroke="black" stroke-width="2.25" stroke-miterlimit="10" stroke-linecap="round" stroke-linejoin="round"/>
</svg>
