<svg width="74" height="74" viewBox="0 0 74 74" fill="none" xmlns="http://www.w3.org/2000/svg">
<path d="M51.5481 21.0957H22.1862C20.077 21.0957 18.3672 22.9466 18.3672 25.2298V47.7949C18.3672 50.0781 20.077 51.929 22.1862 51.929H51.5481C53.6573 51.929 55.3672 50.0781 55.3672 47.7949V25.2298C55.3672 22.9466 53.6573 21.0957 51.5481 21.0957Z" stroke="black" stroke-width="2.25" stroke-linecap="round" stroke-linejoin="round"/>
<path d="M19.2964 22.9457L18.6797 29.1124L55.063 29.729V23.254L51.9797 21.0957H21.763L19.2964 22.9457Z" fill="#EB9880"/>
<path d="M18.3672 29.7285H55.3672" stroke="black" stroke-width="2.25" stroke-linecap="round"/>
<path d="M27.3516 18.6289L27.3516 23.2218" stroke="black" stroke-width="2.25" stroke-linecap="round"/>
<path d="M45.8516 18.6289L45.8516 23.2218" stroke="black" stroke-width="2.25" stroke-linecap="round"/>
<path d="M51.5481 21.0957H22.1862C20.077 21.0957 18.3672 22.9466 18.3672 25.2298V47.7949C18.3672 50.0781 20.077 51.929 22.1862 51.929H51.5481C53.6573 51.929 55.3672 50.0781 55.3672 47.7949V25.2298C55.3672 22.9466 53.6573 21.0957 51.5481 21.0957Z" stroke="black" stroke-width="2.25" stroke-linecap="round" stroke-linejoin="round"/>
<circle cx="49.2031" cy="46.3789" r="9.25" fill="white" stroke="black" stroke-width="2.25"/>
<path d="M47.3516 44.8366L49.8182 43.2949V49.4616" stroke="black" stroke-width="2.25" stroke-linecap="round" stroke-linejoin="round"/>
</svg>
