<svg width="74" height="74" viewBox="0 0 74 74" fill="none" xmlns="http://www.w3.org/2000/svg">
<path d="M18.6289 46.6962H24.1151L24.753 59.0721H49.8875L50.5255 46.6962H54.8634V39.041H18.6289V46.6962Z" fill="#EB9880"/>
<path d="M26.8632 35.4578L26.5195 38.2328L46.7988 37.8859L47.4862 35.8047L45.4239 31.2953L40.9556 28.5203L37.5184 27.1328L33.0501 28.1734L29.2693 31.2953L26.8632 35.4578Z" fill="white"/>
<path d="M16.0352 38.0977H57.9685" stroke="black" stroke-width="2.25" stroke-linecap="round" stroke-linejoin="round"/>
<path d="M36.9707 27.1634C40.0179 27.1634 42.4882 24.6718 42.4882 21.5983C42.4882 18.5248 40.0179 16.0332 36.9707 16.0332C33.9234 16.0332 31.4531 18.5248 31.4531 21.5983C31.4531 24.6718 33.9234 27.1634 36.9707 27.1634Z" stroke="black" stroke-width="2.25" stroke-linecap="round" stroke-linejoin="round"/>
<path d="M47.9725 38.164C47.9725 32.0866 43.0276 27.1641 36.9374 27.1641C30.8473 27.1641 25.9023 32.0932 25.9023 38.164" stroke="black" stroke-width="2.25" stroke-linecap="round" stroke-linejoin="round"/>
<path d="M20.8438 37.4422V29.9L23.0495 27.4453" stroke="black" stroke-width="2.25" stroke-linecap="round" stroke-linejoin="round"/>
<path d="M54.9158 38.293H18.5V46.086H54.9158V38.293Z" stroke="black" stroke-width="2.25" stroke-linecap="round" stroke-linejoin="round"/>
<path d="M24.0508 46.084L24.7528 57.9657" stroke="black" stroke-width="2.25" stroke-linecap="round" stroke-linejoin="round"/>
<path d="M50.5341 46.084L49.832 57.9657" stroke="black" stroke-width="2.25" stroke-linecap="round" stroke-linejoin="round"/>
</svg>
