<svg width="114" height="135" viewBox="0 0 114 135" fill="none" xmlns="http://www.w3.org/2000/svg">
<path d="M14.4875 118.072C14.4875 120.878 12.2197 123.146 9.41365 123.146C6.6076 123.146 4.33984 120.878 4.33984 118.072C4.33984 115.266 6.6076 112.998 9.41365 112.998C12.2197 112.998 14.4875 115.266 14.4875 118.072Z" fill="#494D8F"/>
<path d="M11.704 118.014C11.704 119.263 10.6961 120.271 9.44771 120.271C8.1993 120.271 7.19141 119.263 7.19141 118.014C7.19141 116.766 8.1993 115.77 9.44771 115.77C10.6961 115.77 11.704 116.777 11.704 118.014Z" fill="white"/>
<path d="M28.9757 129.158C28.9757 131.964 26.6965 134.232 23.9019 134.232C21.1073 134.232 18.8281 131.964 18.8281 129.158C18.8281 126.352 21.0959 124.084 23.9019 124.084C26.708 124.084 28.9757 126.352 28.9757 129.158Z" fill="#494D8F"/>
<path d="M26.1923 129.09C26.1923 130.339 25.1844 131.347 23.936 131.347C22.6876 131.347 21.6797 130.339 21.6797 129.09C21.6797 127.842 22.6876 126.834 23.936 126.834C25.1844 126.834 26.1923 127.842 26.1923 129.09Z" fill="white"/>
<path d="M10.9826 97.0664H8.03906V113.364H10.9826V97.0664Z" fill="#494D8F"/>
<path d="M51.4943 97.7871H48.5508V113.272H51.4943V97.7871Z" fill="#494D8F"/>
<path d="M80.963 97.7656H78.0195V121.405H80.963V97.7656Z" fill="#494D8F"/>
<path d="M47.256 112.758H44.3125V122.459H47.256V112.758Z" fill="#494D8F"/>
<path d="M51.631 126.25H48.6875V135H51.631V126.25Z" fill="#494D8F"/>
<path d="M17.2826 108.816H1.5V111.462H17.2826V108.816Z" fill="#494D8F"/>
<path d="M50.7701 104.717H40.8516V107.363H50.7701V104.717Z" fill="#494D8F"/>
<path d="M51.449 110.652H39.6406V113.298H51.449V110.652Z" fill="#494D8F"/>
<path d="M42.3761 97.6172H39.5586V113.148H42.3761V97.6172Z" fill="#494D8F"/>
<path d="M88.614 109.162H80.7227V111.808H88.614V109.162Z" fill="#494D8F"/>
<path d="M23.5841 97.8906H20.6406V121.53H23.5841V97.8906Z" fill="#494D8F"/>
<path d="M30.1896 97.7656H27.2461V121.405H30.1896V97.7656Z" fill="#494D8F"/>
<path d="M29.4929 109.002H21.6016V111.648H29.4929V109.002Z" fill="#494D8F"/>
<path d="M58.0546 120.168H34.2891V122.814H58.0546V120.168Z" fill="#494D8F"/>
<path d="M112.666 126.055H87.6172V128.907H112.666V126.055Z" fill="#494D8F"/>
<path d="M51.4929 126.25H38.207V128.896H51.4929V126.25Z" fill="#494D8F"/>
<path d="M110.006 101.934H107.062V119.228H110.006V101.934Z" fill="#494D8F"/>
<path d="M96.1857 114.018H93.2422V128.712H96.1857V114.018Z" fill="#494D8F"/>
<path d="M103.436 114.053H100.492V128.747H103.436V114.053Z" fill="#494D8F"/>
<path d="M109.879 101.924H91.5312V104.57H109.879V101.924Z" fill="#494D8F"/>
<path d="M80.9865 124.484H78.043V134.918H80.9865V124.484Z" fill="#494D8F"/>
<path d="M80.8491 124.473H66.418V127.118H80.8491V124.473Z" fill="#494D8F"/>
<path d="M72.1671 118.072C72.1671 120.878 69.8994 123.146 67.0933 123.146C64.2873 123.146 62.0195 120.878 62.0195 118.072C62.0195 115.266 64.2873 112.998 67.0933 112.998C69.8994 112.998 72.1671 115.266 72.1671 118.072Z" fill="#494D8F"/>
<path d="M69.3837 118.014C69.3837 119.263 68.3758 120.271 67.1274 120.271C65.879 120.271 64.8711 119.263 64.8711 118.014C64.8711 116.766 65.879 115.77 67.1274 115.77C68.3758 115.77 69.3837 116.777 69.3837 118.014Z" fill="white"/>
<path d="M68.5805 97.6172H65.6484V114.316H68.5805V97.6172Z" fill="#494D8F"/>
<path d="M74.9623 108.816H59.1797V111.462H74.9623V108.816Z" fill="#494D8F"/>
<path d="M76.4631 18.5772C76.4631 28.8279 68.148 37.143 57.8858 37.143C47.6237 37.143 39.3086 28.8279 39.3086 18.5772C39.3086 8.32654 47.6237 0 57.8858 0C68.148 0 76.4631 8.31509 76.4631 18.5772Z" fill="#585EAA"/>
<path d="M63.8537 31.4154C63.8537 41.6661 55.5386 49.9926 45.2765 49.9926C35.0143 49.9926 26.6992 41.6775 26.6992 31.4154C26.6992 21.1532 35.0143 12.8496 45.2765 12.8496C55.5386 12.8496 63.8537 21.1647 63.8537 31.4154Z" fill="#585EAA"/>
<path d="M88.9123 31.1986C88.9123 41.4493 80.5972 49.7758 70.3351 49.7758C60.0729 49.7758 51.7578 41.4607 51.7578 31.1986C51.7578 20.9364 60.0729 12.6328 70.3351 12.6328C80.5972 12.6328 88.9123 20.9479 88.9123 31.1986Z" fill="#585EAA"/>
<path d="M76.2795 43.765C76.2795 54.0272 67.9644 62.3422 57.7022 62.3422C47.4401 62.3422 39.125 54.0272 39.125 43.765C39.125 33.5029 47.4401 25.1992 57.7022 25.1992C67.9644 25.1992 76.2795 33.5029 76.2795 43.765Z" fill="#585EAA"/>
<path d="M44.5076 21.0742C39.01 21.0742 34.5547 25.5296 34.5547 31.0271C34.5547 36.5247 39.01 40.98 44.5076 40.98C50.0052 40.98 54.4605 36.5247 54.4605 31.0271C54.4605 25.541 49.9937 21.0742 44.5076 21.0742Z" fill="#42C3D1"/>
<path d="M58.0701 33.7422C52.5725 33.7422 48.1172 38.1975 48.1172 43.6951C48.1172 49.1927 52.5725 53.648 58.0701 53.648C63.5677 53.648 68.023 49.1927 68.023 43.6951C68.023 38.1975 63.5677 33.7422 58.0701 33.7422Z" fill="#FBAD17"/>
<path d="M70.531 21.291C65.0335 21.291 60.5781 25.7463 60.5781 31.2439C60.5781 36.7415 65.0335 41.1968 70.531 41.1968C76.0286 41.1968 80.484 36.7415 80.484 31.2439C80.484 25.7578 76.0286 21.291 70.531 21.3025V21.291Z" fill="#00B392"/>
<path d="M55.378 27.6133C60.7038 28.9991 66.1326 25.8037 67.5185 20.4779C68.9043 15.1636 65.7088 9.72324 60.3831 8.34885C55.0687 6.963 49.6284 10.1585 48.2426 15.4842C47.8073 17.145 47.8303 18.8172 48.2197 20.3748" fill="#B171AF"/>
<path d="M73.1532 21.7272C76.7037 22.7122 80.1626 26.2055 80.0825 31.2106C79.9908 36.5478 75.6959 40.8199 70.2784 40.6595C68.4459 40.6137 66.4874 40.0754 64.8725 38.9988C61.6885 36.8914 61.07 33.673 60.5317 30.1568C59.6498 24.4417 56.5574 15.5081 44.142 15.5195C37.5564 15.5195 30.9478 21.1317 29.7796 27.7631C28.2792 36.2729 32.0359 43.2594 39.2858 45.9166C39.2858 45.9166 39.847 46.0426 40.0761 45.4814L42.5615 40.4877C38.152 39.6516 34.9794 35.2765 35.0252 31.0846C35.071 25.587 39.1369 21.7501 43.9015 21.5325C49.9832 21.2691 52.8924 25.209 54.0262 28.9199C54.5187 30.5463 54.7249 32.1154 54.931 33.5928C55.3777 36.6738 56.7063 40.0296 58.8939 42.2744C60.8753 44.3017 63.5554 45.6761 66.3156 46.3174C67.6556 46.6267 69.156 46.8901 70.5419 46.8443C74.184 46.7412 77.6086 45.6188 80.2886 43.5457C80.2886 43.5457 86.4505 39.1248 85.9695 31.3136C85.9695 31.3136 85.9695 31.2564 85.9465 31.1647C85.7747 25.0716 82.3731 19.4595 76.9901 16.9054C76.9901 16.9054 76.3143 16.5045 75.9707 17.1115L73.1761 21.7158L73.1532 21.7272Z" fill="white"/>
<path d="M67.3345 46.5339C66.3839 50.1188 62.8677 53.6349 57.8283 53.5433C52.4796 53.4631 48.219 49.1567 48.3679 43.7393C48.4137 41.9068 48.952 39.9483 50.0286 38.3333C52.1475 35.1493 55.3658 34.5308 58.882 33.9925C64.5972 33.1106 73.5308 30.0297 73.5193 17.6143C73.5193 11.0287 67.9072 4.42014 61.2757 3.2519C52.9263 1.77442 46.0314 5.37076 43.2712 12.3573C43.2712 12.3573 42.9047 13.1361 43.5346 13.4797L48.5511 15.9536C48.5511 15.9536 48.574 15.8391 48.6198 15.6444C49.685 11.4525 53.8769 8.44024 57.9543 8.48605C63.4633 8.53187 67.3002 12.5978 67.5063 17.3624C67.7698 23.4441 63.8298 26.3532 60.1075 27.4756C58.4811 27.9681 56.9006 28.1743 55.4346 28.3804C52.3536 28.8271 48.9978 30.1557 46.753 32.3433C44.7257 34.3247 43.3628 37.0048 42.7214 39.7535C42.4122 41.0936 42.1602 42.594 42.1946 43.9798C42.2976 47.622 43.4201 51.0465 45.4931 53.738C45.4931 53.738 49.9141 59.8999 57.7252 59.4188C57.7252 59.4188 57.7825 59.4188 57.8856 59.3959C64.2994 59.2127 70.1749 55.4675 72.5114 49.5919C72.5114 49.5919 72.6718 49.1567 72.2251 48.962L67.346 46.5339H67.3345Z" fill="white"/>
<path d="M13.0938 84.2392H11.6507V80.5741H9.24553V83.2656H2.64844V76.68H4.09155V78.8676H7.81387V76.68H9.24553V79.4059H11.6507V75.9355H13.0938V84.2277V84.2392ZM7.81387 82.1203V80.0358H4.09155V82.1203H7.81387ZM13.0709 90.3094H4.82456V84.766H6.25622V86.3122H11.6393V84.766H13.0824V90.3094H13.0709ZM11.6278 89.1412V87.4805H6.24477V89.1412H11.6278Z" fill="#494D8F"/>
<path d="M26.9066 84.6865H23.5049V87.4123H22.0618V84.6865H20.1949V87.4123H18.7633V84.6865H14.6172V83.5182H26.9066V84.6865ZM25.0168 90.3444H16.4154V85.7974H17.8241V89.1761H25.0168V90.3444ZM16.8162 82.3729V78.8796L23.379 78.8453V77.551H16.736V76.3828H24.8221V80.0135L18.2364 80.0479V81.2046H25.0855V82.3729H16.8048H16.8162Z" fill="#494D8F"/>
<path d="M38.1059 88.0408H27.8438V87.0673H38.1059V88.0408ZM36.1474 85.063L32.8947 82.0851C32.8145 82.1309 32.6999 82.234 32.5281 82.3944C32.3563 82.5318 32.1616 82.715 31.944 82.9097C31.8295 83.0128 31.7264 83.1159 31.6119 83.219C31.4973 83.3221 31.3828 83.4366 31.2683 83.5397C31.0278 83.7458 30.7987 83.9634 30.5811 84.1696C30.3635 84.3872 30.1688 84.5705 29.997 84.7308C29.8252 84.9026 29.6992 85.0057 29.6305 85.063L28.8975 84.2269L32.2876 81.1345V79.0156H33.4788V81.1345C34.04 81.6384 34.6126 82.1653 35.1968 82.6921C35.7809 83.2419 36.3421 83.7458 36.8689 84.2269L36.1474 85.063Z" fill="#494D8F"/>
<path d="M45.5293 84.1026H39.3789V78.9715H40.5815V83.129H45.5293V84.1026ZM47.9574 90.0583H41.0854V85.6602H47.9574V90.0583ZM42.2651 89.0847H46.7663V86.6452H42.2651V89.0847ZM47.9116 85.225H46.7205V78.0781H47.9116V85.225Z" fill="#494D8F"/>
<path d="M57.1082 86.9206H49.6406V85.9471H51.8397V83.0265H53.0308V85.9471H57.1082V86.9206ZM54.2334 85.1339C54.4167 84.7101 54.5655 84.2634 54.6915 83.8053C54.7373 83.5991 54.7946 83.3815 54.8404 83.1639C54.8862 82.9463 54.932 82.7287 54.9664 82.5111C55.0351 82.1102 55.0809 81.7323 55.1153 81.3887C55.1382 81.0451 55.1611 80.7473 55.1611 80.5182H50.1446V79.5676H56.3523V79.957C56.3523 80.0715 56.3523 80.1861 56.3408 80.312C56.3408 80.438 56.3179 80.5755 56.3179 80.7358C56.295 81.0451 56.2606 81.3887 56.2263 81.7781C56.1805 82.1675 56.1232 82.5683 56.0316 82.9807C55.9858 83.1868 55.9399 83.4044 55.8941 83.622C55.8483 83.8397 55.791 84.0573 55.7338 84.2634C55.5963 84.7216 55.4474 85.1568 55.2756 85.5806L54.2334 85.1339ZM61.0939 83.622H58.7345V90.0473H57.5434V78.1016H58.7345V82.6485H61.0939V83.622Z" fill="#494D8F"/>
<path d="M72.4208 80.2298H65.8008V79.3135H68.5496V78.0078H69.7064V79.3135H72.4322V80.2298H72.4208ZM68.6297 85.0058C68.4579 84.9829 68.2861 84.9256 68.1258 84.8569C67.7937 84.7423 67.5188 84.5706 67.3012 84.3529C67.1752 84.2613 67.0721 84.1468 66.9805 84.0208C66.8888 83.8948 66.8087 83.7574 66.74 83.6199C66.6025 83.345 66.5338 83.0358 66.5338 82.7037C66.5338 82.3715 66.6025 82.0737 66.74 81.7874C66.8659 81.5125 67.0492 81.2605 67.3012 81.0429C67.5188 80.8368 67.7937 80.6764 68.1258 80.539C68.2861 80.4817 68.4579 80.4359 68.6297 80.4015C68.8015 80.3672 68.9848 80.3557 69.168 80.3557C69.5346 80.3557 69.8782 80.413 70.2103 80.539C70.3592 80.6192 70.5081 80.6879 70.657 80.7681C70.7944 80.8482 70.9319 80.9399 71.0578 81.0429C71.1724 81.1575 71.2755 81.272 71.3671 81.3865C71.4587 81.5125 71.5389 81.6385 71.6305 81.7874C71.6992 81.9363 71.745 82.0852 71.7794 82.2341C71.8138 82.3944 71.8252 82.5433 71.8252 82.6922C71.8252 82.864 71.8138 83.0244 71.7794 83.1733C71.745 83.3221 71.6992 83.471 71.6305 83.6085C71.5503 83.7574 71.4587 83.8833 71.3671 84.0093C71.2755 84.1353 71.1724 84.2384 71.0578 84.3415C70.9319 84.456 70.7944 84.5591 70.657 84.6393C70.5195 84.7194 70.3706 84.7882 70.2103 84.8454C70.05 84.9256 69.8782 84.9714 69.7064 84.9943C69.5346 85.0172 69.3513 85.0287 69.168 85.0287C68.9848 85.0287 68.8015 85.0172 68.6297 84.9943V85.0058ZM68.5839 81.3407C68.4923 81.3865 68.4007 81.4323 68.3205 81.4782C68.2403 81.524 68.1602 81.5927 68.1029 81.6614C67.9655 81.7989 67.8509 81.9592 67.7822 82.1195C67.6906 82.3142 67.6448 82.509 67.6448 82.7037C67.6448 82.9213 67.6906 83.116 67.7822 83.2878C67.8166 83.3794 67.8624 83.471 67.9196 83.5398C67.9769 83.6199 68.0342 83.6886 68.1029 83.7459C68.1602 83.8146 68.2289 83.8719 68.3205 83.9292C68.4007 83.9864 68.4923 84.0322 68.5839 84.0781C68.7672 84.1468 68.9733 84.1811 69.1795 84.1811C69.3857 84.1811 69.5918 84.1468 69.7751 84.0781C69.9583 83.9979 70.1187 83.8948 70.2561 83.7459C70.3248 83.6886 70.3821 83.6199 70.4394 83.5398C70.4966 83.4596 70.5424 83.3794 70.5883 83.2878C70.6684 83.116 70.7028 82.9213 70.7028 82.7037C70.7028 82.612 70.7028 82.5204 70.6684 82.4288C70.6455 82.3372 70.6112 82.2341 70.5768 82.1425C70.4852 81.9707 70.3706 81.8218 70.2447 81.6729C70.1072 81.5469 69.9469 81.4438 69.7636 81.3522C69.5804 81.2835 69.3857 81.2491 69.1795 81.2491C68.9733 81.2491 68.7672 81.2835 68.5839 81.3522V81.3407ZM74.8145 90.0567H67.9425V85.7731H74.8145V90.0567ZM69.1222 89.0831H73.6005V86.7467H69.1222V89.0831ZM77.151 82.1768H74.8489V85.2119H73.6463V78.088H74.8489V81.2147H77.151V82.1768Z" fill="#494D8F"/>
<path d="M86.4296 89.6911H85.2385V83.2773H83.7152C83.6236 83.5178 83.509 83.7698 83.3716 84.0218C83.2341 84.2737 83.0853 84.5257 82.902 84.7777C82.5355 85.3045 82.043 85.8428 81.436 86.404L80.6915 85.6138C81.1955 85.1556 81.6078 84.686 81.917 84.1821C82.2377 83.6896 82.4782 83.22 82.6386 82.7504C82.7188 82.5328 82.7989 82.3152 82.8562 82.1091C82.9135 81.9029 82.9593 81.7082 82.9936 81.5249C83.0394 81.1584 83.0738 80.8492 83.0967 80.6316H81.917C81.917 80.7576 81.8941 80.9065 81.8712 81.0668C81.8483 81.2272 81.8139 81.399 81.7567 81.5937C81.7223 81.7998 81.6651 82.0174 81.5849 82.235C81.5047 82.4527 81.4131 82.6817 81.2985 82.9222C81.1726 83.1628 81.0237 83.4033 80.8519 83.6553C80.6801 83.9072 80.4968 84.1706 80.2792 84.4226C79.844 84.938 79.2484 85.4305 78.5039 85.9001L78 85.0411C78.5498 84.686 78.9964 84.2966 79.3515 83.8614C79.5347 83.6553 79.6836 83.4491 79.8096 83.2429C79.9356 83.0368 80.0616 82.8306 80.1647 82.6245C80.3479 82.2236 80.4854 81.8342 80.5541 81.4791C80.6113 81.1241 80.6686 80.8377 80.703 80.6087H78.5269V79.6466H84.265V79.9902C84.265 80.0933 84.265 80.2193 84.265 80.3682C84.265 80.517 84.2535 80.6888 84.2306 80.895C84.2077 81.3188 84.1275 81.7884 84.0015 82.3152H85.2156V78.444H86.4067V89.6911H86.4296ZM88.6859 90.0347H87.4948V78.1348H88.6859V90.0347Z" fill="#494D8F"/>
<path d="M96.6583 81.0909H90.0039V80.1517H92.7412V78.3306H93.9095V80.1517H96.6583V81.0909ZM92.3175 86.3937C91.9624 86.2678 91.6532 86.0845 91.4012 85.8325C91.1492 85.6149 90.9431 85.34 90.7942 85.0079C90.7255 84.8476 90.6797 84.6872 90.6338 84.5154C90.5995 84.3436 90.5766 84.1718 90.5766 84C90.5766 83.6449 90.6453 83.3014 90.7942 82.9692C90.8744 82.8089 90.966 82.66 91.0691 82.5225C91.1607 82.3851 91.2752 82.2591 91.4012 82.1446C91.6532 81.9155 91.9624 81.7208 92.3175 81.5719C92.4893 81.5032 92.6725 81.4574 92.8558 81.423C93.039 81.3887 93.2223 81.3772 93.417 81.3772C93.6117 81.3772 93.7949 81.4001 93.9782 81.423C94.1615 81.4574 94.3447 81.5032 94.5165 81.5719C94.8487 81.7208 95.1579 81.9155 95.4328 82.1446C95.5473 82.2591 95.6618 82.3851 95.7649 82.5225C95.868 82.66 95.9596 82.8089 96.0398 82.9692C96.1085 83.1296 96.1658 83.2899 96.2001 83.4617C96.246 83.6335 96.2574 83.8053 96.2574 83.9886C96.2574 84.1718 96.2345 84.3436 96.2001 84.5039C96.1543 84.6757 96.1085 84.8361 96.0398 84.9964C95.8909 85.3286 95.6847 85.6035 95.4328 85.8211C95.1579 86.0616 94.8601 86.2563 94.5165 86.3823C94.1615 86.5197 93.7949 86.5999 93.417 86.5999C93.039 86.5999 92.6496 86.5312 92.3175 86.3823V86.3937ZM92.7756 82.4882C92.684 82.534 92.5924 82.5798 92.5007 82.6371C92.4091 82.6943 92.3289 82.7631 92.2488 82.8432C92.18 82.9234 92.1113 83.0036 92.054 83.0837C91.9853 83.1639 91.9395 83.2555 91.9052 83.3586C91.8593 83.4617 91.825 83.5648 91.8135 83.6679C91.7906 83.7709 91.7792 83.8855 91.7792 84C91.7792 84.1145 91.7792 84.2291 91.8135 84.3321C91.8364 84.4352 91.8708 84.5383 91.9052 84.6414C91.9395 84.733 91.9853 84.8246 92.054 84.9163C92.1113 85.0079 92.18 85.0881 92.2488 85.1682C92.3289 85.237 92.4091 85.2942 92.5007 85.3629C92.5924 85.4202 92.684 85.4775 92.7756 85.5118C92.8787 85.5577 92.9818 85.5806 93.0848 85.6035C93.1879 85.6264 93.3025 85.6378 93.417 85.6378C93.5315 85.6378 93.6346 85.6378 93.7491 85.6035C93.8637 85.5806 93.9667 85.5577 94.0698 85.5118C94.1729 85.466 94.2645 85.4202 94.3447 85.3629C94.4249 85.3057 94.505 85.237 94.5852 85.1682C94.6654 85.0881 94.7227 85.0079 94.7799 84.9163C94.8372 84.8246 94.883 84.733 94.9403 84.6414C95.0205 84.4352 95.0663 84.2176 95.0663 84C95.0663 83.8855 95.0663 83.7709 95.0319 83.6679C95.009 83.5648 94.9746 83.4617 94.9403 83.3586C94.8945 83.2555 94.8372 83.1639 94.7799 83.0837C94.7227 83.0036 94.6539 82.9234 94.5852 82.8432C94.505 82.7631 94.4249 82.6943 94.3447 82.6371C94.2645 82.5798 94.1615 82.534 94.0698 82.4882C93.8637 82.408 93.6461 82.3622 93.4284 82.3622C93.2108 82.3622 92.9818 82.408 92.7871 82.4882H92.7756ZM101.4 83.4732H98.8917V90.0473H97.7005V78.1016H98.8917V82.4996H101.4V83.4732Z" fill="#494D8F"/>
<path d="M112.094 85.1897H101.832V84.2276H112.094V85.1897ZM110.777 82.7501H103.321V78.627H104.512V81.811H110.777V82.7616V82.7501ZM110.685 90.0802H103.516V86.0716H104.695V89.1067H110.685V90.0802Z" fill="#494D8F"/>
</svg>
