<svg width="232" height="75" viewBox="0 0 232 75" fill="none" xmlns="http://www.w3.org/2000/svg">
<path d="M221.67 14.1142C221.67 21.9014 215.355 28.2284 207.556 28.2284C199.756 28.2284 193.441 21.9135 193.441 14.1142C193.441 6.31489 199.756 0 207.556 0C215.355 0 221.67 6.31489 221.67 14.1142Z" fill="#585EAA"/>
<path d="M212.092 23.872C212.092 31.6592 205.777 37.9862 197.978 37.9862C190.178 37.9862 183.863 31.6592 183.863 23.872C183.863 16.0849 190.19 9.75781 197.978 9.75781C205.765 9.75781 212.092 16.0727 212.092 23.872Z" fill="#585EAA"/>
<path d="M231.135 23.7158C231.135 31.5029 224.82 37.83 217.02 37.83C209.221 37.83 202.906 31.5029 202.906 23.7158C202.906 15.9286 209.233 9.60156 217.02 9.60156C224.808 9.60156 231.135 15.9165 231.135 23.7158Z" fill="#585EAA"/>
<path d="M221.533 33.2661C221.533 41.0654 215.218 47.3803 207.419 47.3803C199.62 47.3803 193.305 41.0654 193.305 33.2661C193.305 25.4668 199.62 19.1641 207.419 19.1641C215.218 19.1641 221.533 25.479 221.533 33.2661Z" fill="#585EAA"/>
<path d="M197.392 16.0117C193.219 16.0117 189.824 19.3943 189.824 23.5677C189.824 27.7411 193.207 31.1237 197.392 31.1237C201.578 31.1237 204.96 27.7411 204.96 23.5677C204.96 19.3943 201.566 16.0117 197.392 16.0117Z" fill="#42C3D1"/>
<path d="M207.697 25.6367C203.524 25.6367 200.129 29.0193 200.129 33.1927C200.129 37.3661 203.524 40.7608 207.697 40.7608C211.87 40.7608 215.265 37.3783 215.265 33.1927C215.265 29.0071 211.883 25.6367 207.697 25.6367Z" fill="#FBAD17"/>
<path d="M217.165 16.1816C212.992 16.1816 209.597 19.5642 209.609 23.7376C209.609 27.911 212.992 31.2936 217.165 31.2936C221.339 31.2936 224.734 27.911 224.734 23.7376C224.734 19.5642 221.351 16.1816 217.165 16.1816Z" fill="#00B392"/>
<path d="M205.652 20.9908C209.692 22.0372 213.829 19.6159 214.875 15.5641C215.921 11.5246 213.5 7.38764 209.448 6.34124C205.409 5.29484 201.272 7.71616 200.225 11.7557C199.897 13.0212 199.909 14.2866 200.201 15.479" fill="#B171AF"/>
<path d="M219.16 16.5115C221.861 17.2659 224.489 19.9184 224.428 23.7147C224.368 27.7786 221.095 31.0151 216.982 30.9056C215.595 30.8691 214.098 30.4554 212.869 29.6402C210.448 28.0341 209.974 25.5884 209.572 22.9238C208.903 18.58 206.554 11.7906 197.113 11.8028C192.112 11.8028 187.087 16.0735 186.198 21.1108C185.055 27.5717 187.914 32.8889 193.426 34.9087C193.426 34.9087 193.852 35.006 194.022 34.5802L195.908 30.7839C192.562 30.1512 190.141 26.8295 190.177 23.6417C190.214 19.4561 193.304 16.548 196.918 16.3899C201.542 16.183 203.756 19.1884 204.608 22.0112C204.985 23.2523 205.131 24.4447 205.289 25.5519C205.63 27.9003 206.64 30.4432 208.294 32.1467C209.803 33.6919 211.835 34.7262 213.928 35.2129C214.938 35.4441 216.094 35.6387 217.14 35.6144C219.902 35.5414 222.506 34.6775 224.55 33.1079C224.55 33.1079 229.235 29.7497 228.87 23.812C228.87 23.812 228.87 23.7633 228.857 23.6903C228.724 19.0545 226.144 14.7959 222.056 12.8613C222.056 12.8613 221.545 12.5571 221.277 13.0195L219.148 16.5237L219.16 16.5115Z" fill="white"/>
<path d="M214.743 35.3596C214.012 38.0851 211.348 40.7498 207.515 40.689C203.451 40.6281 200.215 37.3551 200.324 33.2425C200.361 31.8554 200.774 30.3588 201.59 29.1299C203.196 26.7086 205.641 26.2462 208.318 25.8325C212.662 25.1633 219.451 22.815 219.439 13.3853C219.439 8.38446 215.181 3.35932 210.131 2.47109C203.78 1.35169 198.548 4.07719 196.443 9.39436C196.443 9.39436 196.163 9.99056 196.637 10.2461L200.446 12.1199C200.446 12.1199 200.458 12.0347 200.494 11.8887C201.31 8.70081 204.485 6.41334 207.588 6.44984C211.774 6.48634 214.694 9.57687 214.852 13.1906C215.047 17.8142 212.054 20.0287 209.231 20.8804C207.99 21.2576 206.797 21.4036 205.678 21.5618C203.329 21.9025 200.786 22.9124 199.083 24.5671C197.55 26.0759 196.504 28.1079 196.017 30.2007C195.786 31.2105 195.591 32.3665 195.615 33.4129C195.688 36.1749 196.54 38.7787 198.122 40.8228C198.122 40.8228 201.48 45.5073 207.418 45.1423C207.418 45.1423 207.466 45.1423 207.539 45.1301C212.406 44.9962 216.872 42.1369 218.66 37.6836C218.66 37.6836 218.782 37.3551 218.441 37.2091L214.73 35.3596H214.743Z" fill="white"/>
<path d="M83.5421 57.0171C83.5421 59.9981 81.1329 62.4073 78.1519 62.4073C75.1709 62.4073 72.7617 59.9981 72.7617 57.0171C72.7617 54.0361 75.1709 51.627 78.1519 51.627C81.1329 51.627 83.5421 54.0361 83.5421 57.0171Z" fill="#494D8F"/>
<path d="M80.583 56.9434C80.583 58.2697 79.5123 59.3404 78.186 59.3404C76.8598 59.3404 75.7891 58.2697 75.7891 56.9434C75.7891 55.6172 76.8598 54.5586 78.186 54.5586C79.5123 54.5586 80.583 55.6293 80.583 56.9434Z" fill="white"/>
<path d="M98.9327 68.7827C98.9327 71.7638 96.5114 74.1729 93.5425 74.1729C90.5737 74.1729 88.1523 71.7638 88.1523 68.7827C88.1523 65.8017 90.5615 63.3926 93.5425 63.3926C96.5235 63.3926 98.9327 65.8017 98.9327 68.7827Z" fill="#494D8F"/>
<path d="M95.9776 68.7212C95.9776 70.0475 94.9068 71.1182 93.5806 71.1182C92.2543 71.1182 91.1836 70.0475 91.1836 68.7212C91.1836 67.395 92.2543 66.3242 93.5806 66.3242C94.9068 66.3242 95.9776 67.395 95.9776 68.7212Z" fill="white"/>
<path d="M79.8184 34.6914H76.6914V52.0057H79.8184V34.6914Z" fill="#494D8F"/>
<path d="M122.869 35.4551H119.742V51.9054H122.869V35.4551Z" fill="#494D8F"/>
<path d="M154.162 35.4316H151.035V60.5452H154.162V35.4316Z" fill="#494D8F"/>
<path d="M118.354 51.3594H115.227V61.6652H118.354V51.3594Z" fill="#494D8F"/>
<path d="M123.002 65.7031H119.875V74.999H123.002V65.7031Z" fill="#494D8F"/>
<path d="M86.5089 47.1738H69.7422V49.9845H86.5089V47.1738Z" fill="#494D8F"/>
<path d="M122.088 42.8164H111.551V45.6271H122.088V42.8164Z" fill="#494D8F"/>
<path d="M122.806 49.1309H110.262V51.9415H122.806V49.1309Z" fill="#494D8F"/>
<path d="M113.169 35.2734H110.176V51.7725H113.169V35.2734Z" fill="#494D8F"/>
<path d="M162.29 47.5508H153.906V50.3615H162.29V47.5508Z" fill="#494D8F"/>
<path d="M93.2012 35.5781H90.0742V60.6917H93.2012V35.5781Z" fill="#494D8F"/>
<path d="M100.221 35.4316H97.0938V60.5452H100.221V35.4316Z" fill="#494D8F"/>
<path d="M99.4927 47.3789H91.1094V50.1896H99.4927V47.3789Z" fill="#494D8F"/>
<path d="M129.837 59.2441H104.59V62.0548H129.837V59.2441Z" fill="#494D8F"/>
<path d="M187.853 65.4863H161.23V68.516H187.853V65.4863Z" fill="#494D8F"/>
<path d="M122.856 65.6914H108.742V68.5021H122.856V65.6914Z" fill="#494D8F"/>
<path d="M185.018 39.8594H181.891V58.2322H185.018V39.8594Z" fill="#494D8F"/>
<path d="M170.33 52.6973H167.203V68.3081H170.33V52.6973Z" fill="#494D8F"/>
<path d="M178.033 52.7461H174.906V68.3569H178.033V52.7461Z" fill="#494D8F"/>
<path d="M184.883 39.8477H165.391V42.6583H184.883V39.8477Z" fill="#494D8F"/>
<path d="M154.186 63.8301H151.059V74.9146H154.186V63.8301Z" fill="#494D8F"/>
<path d="M154.042 63.8164H138.711V66.6271H154.042V63.8164Z" fill="#494D8F"/>
<path d="M144.819 57.0171C144.819 59.9981 142.41 62.4073 139.429 62.4073C136.448 62.4073 134.039 59.9981 134.039 57.0171C134.039 54.0361 136.448 51.627 139.429 51.627C142.41 51.627 144.819 54.0361 144.819 57.0171Z" fill="#494D8F"/>
<path d="M141.872 56.9434C141.872 58.2697 140.801 59.3404 139.475 59.3404C138.149 59.3404 137.078 58.2697 137.078 56.9434C137.078 55.6172 138.149 54.5586 139.475 54.5586C140.801 54.5586 141.872 55.6293 141.872 56.9434Z" fill="white"/>
<path d="M141.021 35.2734H137.906V53.0135H141.021V35.2734Z" fill="#494D8F"/>
<path d="M147.798 47.1738H131.031V49.9845H147.798V47.1738Z" fill="#494D8F"/>
<path d="M11.0967 46.0909H9.5636V42.1973H7.00844V45.0567H0V38.0604H1.5331V40.3844H5.48751V38.0604H7.00844V40.9563H9.5636V37.2695H11.0967V46.0909ZM5.48751 43.8278V41.6133H1.5331V43.8278H5.48751ZM11.0724 52.5275H2.31181V46.6385H3.83274V48.2811H9.55143V46.6385H11.0845V52.5275H11.0724ZM9.53926 51.2864V49.5221H3.82057V51.2864H9.53926Z" fill="#494D8F"/>
<path d="M25.7705 46.5514H22.1568V49.4472H20.6237V46.5514H18.6404V49.4472H17.1195V46.5514H12.7148V45.3103H25.7827V46.5514H25.7705ZM23.7629 52.5621H14.6251V47.7316H16.1217V51.321H23.7629V52.5621ZM15.051 44.1057V40.3947L22.0229 40.3582V38.9833H14.9658V37.7422H23.556V41.5993L16.5597 41.6358V42.8647H23.8359V44.1057H15.0388H15.051Z" fill="#494D8F"/>
<path d="M37.6715 50.1172H26.7695V49.083H37.6715V50.1172ZM35.5909 46.9537L32.1354 43.7902C32.0502 43.8388 31.9285 43.9483 31.746 44.1187C31.5635 44.2647 31.3566 44.4594 31.1255 44.6662C31.0038 44.7757 30.8943 44.8852 30.7726 44.9947C30.6509 45.1042 30.5293 45.2259 30.4076 45.3354C30.1521 45.5544 29.9087 45.7856 29.6775 46.0046C29.4464 46.2358 29.2395 46.4305 29.057 46.6008C28.8745 46.7833 28.7407 46.8929 28.6676 46.9537L27.8889 46.0655L31.4905 42.7803V40.5293H32.7559V42.7803C33.3521 43.3156 33.9605 43.8753 34.581 44.435C35.2016 45.0191 35.7978 45.5544 36.3575 46.0655L35.5909 46.9537Z" fill="#494D8F"/>
<path d="M45.5534 45.9309H39.0195V40.4799H40.2971V44.8966H45.5534V45.9309ZM48.1208 52.2579H40.8203V47.5856H48.1208V52.2579ZM42.0857 51.2237H46.8675V48.632H42.0857V51.2237ZM48.0843 47.1354H46.8189V39.543H48.0843V47.1354Z" fill="#494D8F"/>
<path d="M57.855 48.9256H49.9219V47.8913H52.258V44.7886H53.5234V47.8913H57.855V48.9256ZM54.801 47.0274C54.9957 46.5772 55.1539 46.1027 55.2877 45.616C55.3364 45.397 55.3972 45.1658 55.4459 44.9346C55.4946 44.7035 55.5432 44.4723 55.5797 44.2411C55.6527 43.8152 55.7014 43.4137 55.7379 43.0487C55.7622 42.6837 55.7866 42.3673 55.7866 42.124H50.4572V41.1141H57.052V41.5278C57.052 41.6494 57.052 41.7711 57.0398 41.905C57.0398 42.0388 57.0155 42.1848 57.0155 42.3552C56.9912 42.6837 56.9546 43.0487 56.9181 43.4624C56.8695 43.8761 56.8086 44.3019 56.7113 44.74C56.6626 44.959 56.614 45.1902 56.5653 45.4213C56.5166 45.6525 56.4558 45.8837 56.3949 46.1027C56.2489 46.5894 56.0908 47.0518 55.9082 47.502L54.801 47.0274ZM62.0893 45.4213H59.5828V52.2473H58.3174V39.5566H59.5828V44.3871H62.0893V45.4213Z" fill="#494D8F"/>
<path d="M18.5171 59.7785H11.4844V58.8051H14.4046V57.418H15.6335V58.8051H18.5293V59.7785H18.5171ZM14.4897 64.8523C14.3072 64.8279 14.1247 64.7671 13.9544 64.6941C13.6015 64.5724 13.3095 64.3899 13.0783 64.1587C12.9445 64.0614 12.8228 63.9397 12.7376 63.8059C12.6403 63.672 12.5673 63.526 12.4821 63.38C12.3361 63.088 12.2631 62.7595 12.2631 62.4066C12.2631 62.0538 12.3361 61.7374 12.4821 61.4332C12.6159 61.1412 12.8106 60.8735 13.0783 60.6423C13.3095 60.4233 13.6015 60.253 13.9544 60.107C14.1247 60.0461 14.3072 59.9975 14.4897 59.961C14.6722 59.9245 14.8669 59.9123 15.0616 59.9123C15.451 59.9123 15.816 59.9731 16.1688 60.107C16.327 60.1921 16.4852 60.2651 16.6434 60.3503C16.7894 60.4355 16.9354 60.5328 17.0692 60.6423C17.1909 60.764 17.3004 60.8857 17.3977 61.0074C17.4951 61.1412 17.5803 61.275 17.6776 61.4332C17.7506 61.5914 17.7993 61.7496 17.8358 61.9078C17.8723 62.0781 17.8844 62.2363 17.8844 62.3944C17.8844 62.577 17.8601 62.7473 17.8358 62.9055C17.7993 63.0637 17.7506 63.2218 17.6776 63.3678C17.5924 63.526 17.4951 63.6599 17.3977 63.7937C17.3004 63.9275 17.1909 64.0492 17.0692 64.1466C16.9354 64.2682 16.7894 64.3777 16.6434 64.4629C16.4974 64.5481 16.3392 64.6211 16.1688 64.6819C15.9985 64.7671 15.816 64.8158 15.6335 64.8401C15.451 64.8644 15.2563 64.8766 15.0616 64.8766C14.8669 64.8766 14.6722 64.8644 14.4897 64.8401V64.8523ZM14.4411 60.9587C14.3437 61.0074 14.2464 61.056 14.1612 61.1047C14.076 61.1534 14.003 61.2264 13.93 61.2994C13.784 61.4454 13.6623 61.6157 13.5893 61.7861C13.492 61.9929 13.4433 62.1998 13.4433 62.4066C13.4433 62.6378 13.492 62.8446 13.5893 63.0272C13.6258 63.1245 13.6745 63.2218 13.7353 63.2948C13.7962 63.38 13.857 63.453 13.93 63.5139C13.9909 63.5869 14.076 63.6477 14.1612 63.7085C14.2464 63.7694 14.3437 63.818 14.4411 63.8667C14.6357 63.9397 14.8548 63.9762 15.0738 63.9762C15.2928 63.9762 15.5118 63.9397 15.7065 63.8667C15.9012 63.7815 16.0715 63.672 16.2175 63.5139C16.2905 63.453 16.3513 63.38 16.4122 63.2948C16.473 63.2097 16.5217 63.1245 16.5704 63.0272C16.6555 62.8446 16.692 62.6378 16.692 62.4066C16.692 62.3093 16.692 62.2119 16.6555 62.1146C16.6312 62.0173 16.5947 61.9077 16.5582 61.8104C16.4609 61.6279 16.3392 61.4697 16.2053 61.3115C16.0593 61.1777 15.889 61.0682 15.6943 60.9709C15.4996 60.8979 15.2928 60.8614 15.0738 60.8614C14.8548 60.8614 14.6357 60.8979 14.4411 60.9709V60.9587ZM21.0601 70.2181H13.7597V65.6675H21.0601V70.2181ZM15.0251 69.1839H19.7826V66.7017H15.0251V69.1839ZM23.5545 61.8469H21.1088V65.0713H19.8312V57.5031H21.1088V60.8249H23.5545V61.8469Z" fill="#494D8F"/>
<path d="M33.3971 69.8297H32.1317V63.0159H30.5134C30.4161 63.2714 30.2944 63.5391 30.1484 63.8068C30.0024 64.0745 29.8442 64.3422 29.6495 64.6098C29.2602 65.1695 28.737 65.7414 28.0921 66.3376L27.3012 65.4981C27.8366 65.0114 28.2746 64.5125 28.6031 63.9771C28.9438 63.4539 29.1993 62.9551 29.3697 62.4562C29.4548 62.225 29.5278 61.9938 29.6008 61.7748C29.6617 61.5558 29.7104 61.349 29.7469 61.1543C29.7955 60.7649 29.832 60.4364 29.8564 60.2052H28.6031C28.6031 60.3391 28.5788 60.4973 28.5423 60.6676C28.5179 60.8379 28.4814 61.0326 28.4206 61.2273C28.3841 61.4463 28.3233 61.6775 28.2381 61.9087C28.1529 62.1399 28.0556 62.3832 27.9339 62.6387C27.8001 62.8942 27.6419 63.1497 27.4594 63.4174C27.2769 63.6851 27.0822 63.965 26.851 64.2327C26.3886 64.7802 25.7559 65.3034 24.9651 65.8023L24.4297 64.8897C25.0137 64.5125 25.4883 64.0988 25.8654 63.6364C26.0601 63.4174 26.2183 63.1984 26.3521 62.9794C26.486 62.7604 26.6198 62.5414 26.7293 62.3224C26.924 61.8965 27.07 61.4828 27.143 61.1056C27.2039 60.7284 27.2647 60.4242 27.3012 60.1809H24.9894V59.1588H31.0853V59.5239C31.0853 59.6334 31.0853 59.7672 31.0853 59.9254C31.0853 60.0836 31.0731 60.2661 31.0488 60.4851C31.0244 60.9353 30.9393 61.4341 30.8054 61.9938H32.0952V57.8813H33.3606V69.8297H33.3971ZM35.7941 70.1947H34.5286V57.5527H35.7941V70.1947Z" fill="#494D8F"/>
<path d="M44.2759 60.6913H37.2188V59.6936H40.1268V57.759H41.3678V59.6936H44.288V60.6913H44.2759ZM39.6522 66.3248C39.275 66.191 38.9587 65.9963 38.6788 65.7286C38.4112 65.4975 38.1921 65.2054 38.034 64.8526C37.961 64.6822 37.9001 64.5119 37.8636 64.3294C37.8271 64.1469 37.8028 63.9644 37.8028 63.7818C37.8028 63.4047 37.8758 63.0396 38.034 62.6868C38.1191 62.5164 38.2165 62.3583 38.326 62.2123C38.4355 62.0662 38.545 61.9324 38.6788 61.8107C38.9465 61.5674 39.275 61.3605 39.6522 61.2024C39.8347 61.1293 40.0294 61.0807 40.2241 61.0442C40.4188 61.0077 40.6135 60.9833 40.8203 60.9833C41.0272 60.9833 41.2218 61.0077 41.4165 61.0442C41.6112 61.0807 41.8059 61.1293 41.9884 61.2024C42.3412 61.3605 42.6698 61.5674 42.9618 61.8107C43.0834 61.9324 43.2051 62.0662 43.3146 62.2123C43.4241 62.3583 43.5215 62.5164 43.6066 62.6868C43.6797 62.8571 43.7405 63.0275 43.777 63.21C43.8257 63.3925 43.8378 63.575 43.8378 63.7697C43.8378 63.9644 43.8135 64.1469 43.777 64.3172C43.7283 64.4997 43.6797 64.6701 43.6066 64.8404C43.4485 65.1933 43.2295 65.4853 42.9618 65.7165C42.6698 65.972 42.3534 66.1788 41.9884 66.3127C41.6112 66.4587 41.2218 66.5439 40.8203 66.5439C40.3944 66.5439 40.0051 66.4708 39.6522 66.3127V66.3248ZM40.1389 62.1757C40.0416 62.2244 39.9443 62.2731 39.8469 62.3339C39.7496 62.3948 39.6644 62.4678 39.5914 62.5529C39.5184 62.6381 39.4454 62.7233 39.3845 62.8085C39.3237 62.8936 39.2629 62.991 39.2264 63.1005C39.1777 63.21 39.1534 63.3195 39.129 63.429C39.1047 63.5385 39.0925 63.6602 39.0925 63.7818C39.0925 63.9035 39.0925 64.0252 39.129 64.1347C39.1534 64.2442 39.1899 64.3537 39.2264 64.4632C39.2629 64.5606 39.3115 64.6579 39.3845 64.7552C39.4454 64.8526 39.5184 64.9378 39.5914 65.0229C39.6766 65.0959 39.7617 65.1568 39.8469 65.2298C39.9443 65.2906 40.0416 65.3514 40.1389 65.3879C40.2484 65.4366 40.3579 65.461 40.4674 65.4853C40.577 65.5096 40.6986 65.5218 40.8325 65.5218C40.9542 65.5218 41.0637 65.5218 41.1853 65.4853C41.307 65.461 41.4165 65.4366 41.526 65.3879C41.6355 65.3393 41.7329 65.2906 41.818 65.2298C41.9032 65.1689 41.9884 65.0959 42.0736 65.0229C42.1587 64.9378 42.2196 64.8526 42.2804 64.7552C42.3412 64.6579 42.3899 64.5606 42.4507 64.4632C42.5359 64.2442 42.5846 64.013 42.5846 63.7818C42.5846 63.6602 42.5846 63.5385 42.5481 63.429C42.5237 63.3195 42.4994 63.21 42.4507 63.1005C42.4021 62.991 42.3412 62.8936 42.2804 62.8085C42.2196 62.7233 42.1466 62.6381 42.0736 62.5529C41.9884 62.4678 41.9032 62.3948 41.818 62.3339C41.7329 62.2731 41.6355 62.2244 41.526 62.1757C41.307 62.0906 41.0758 62.0419 40.8446 62.0419C40.6135 62.0419 40.3701 62.0906 40.1633 62.1757H40.1389ZM49.301 63.2221H46.6363V70.2062H45.3709V57.5156H46.6363V62.1879H49.301V63.2221Z" fill="#494D8F"/>
<path d="M60.6794 65.0462H49.7773V64.0241H60.6794V65.0462ZM59.2679 62.4545H51.3469V58.0742H52.6124V61.4568H59.2679V62.4667V62.4545ZM59.1828 70.2416H51.566V65.983H52.8192V69.2074H59.1828V70.2416Z" fill="#494D8F"/>
</svg>
