<svg width="298" height="104" viewBox="0 0 298 104" fill="none" xmlns="http://www.w3.org/2000/svg">
<path d="M83.6548 30.9881C83.6548 48.0899 69.7869 61.9578 52.6668 61.9578C35.5466 61.9578 21.6787 48.0899 21.6787 30.9881C21.6787 13.8862 35.5466 0 52.6668 0C69.7869 0 83.6548 13.8679 83.6548 30.9881Z" fill="#494E8F"/>
<path d="M62.6245 52.4202C62.6245 69.5221 48.7567 83.4082 31.6365 83.4082C14.5163 83.4082 0.648438 69.5221 0.648438 52.4202C0.648438 35.3183 14.5163 21.4321 31.6365 21.4321C48.7567 21.4321 62.6245 35.3 62.6245 52.4019V52.4202Z" fill="#494E8F"/>
<path d="M104.429 52.0366C104.429 69.1385 90.5613 83.0246 73.4412 83.0246C56.321 83.0246 42.4531 69.1385 42.4531 52.0366C42.4531 34.9347 56.321 21.0668 73.4412 21.0668C90.5613 21.0668 104.429 34.9347 104.429 52.0366Z" fill="#494E8F"/>
<path d="M83.3623 73.0119C83.3623 90.1321 69.4944 104 52.3743 104C35.2541 104 21.3862 90.1321 21.3862 73.0119C21.3862 55.8917 35.2541 42.0421 52.3743 42.0421C69.4944 42.0421 83.3623 55.91 83.3623 73.0119Z" fill="#494E8F"/>
<path d="M30.3393 35.1539C21.1671 35.1539 13.7307 42.5903 13.7307 51.7442C13.7307 60.9164 21.1671 68.3345 30.3393 68.3345C39.5115 68.3345 46.9479 60.8981 46.9479 51.7442C46.9479 42.5903 39.5115 35.1539 30.3393 35.1539Z" fill="#42C2D0"/>
<path d="M52.9772 56.2755C43.8051 56.2755 36.3687 63.7119 36.3687 72.8658C36.3687 82.0197 43.8051 89.4744 52.9772 89.4744C62.1494 89.4744 69.5858 82.038 69.5858 72.8658C69.5858 63.6936 62.1494 56.2755 52.9772 56.2755Z" fill="#FAAC17"/>
<path d="M73.77 35.5011C64.5979 35.5011 57.1614 42.9375 57.1797 52.0914C57.1797 61.2453 64.6161 68.6817 73.77 68.6817C82.9239 68.6817 90.3786 61.2453 90.3786 52.0914C90.3786 42.9375 82.9422 35.5011 73.77 35.5011Z" fill="#00B291"/>
<path d="M48.5009 46.0619C57.3807 48.3641 66.4433 43.0471 68.7454 34.1673C71.0476 25.2875 65.7124 16.2249 56.8509 13.9227C47.9893 11.6206 38.9085 16.9375 36.6063 25.8173C35.8937 28.5946 35.912 31.3901 36.5515 33.9846" fill="#B071AE"/>
<path d="M78.1369 36.2501C84.0568 37.8945 89.8305 43.7231 89.6843 52.0548C89.5382 60.9529 82.3575 68.0786 73.3315 67.8228C70.2802 67.7498 67.0097 66.8362 64.3055 65.0639C58.9886 61.5375 57.9471 56.1658 57.0701 50.319C55.5901 40.7814 50.4559 25.8903 29.7181 25.9086C18.737 25.9086 7.71946 35.2635 5.76443 46.3359C3.26127 60.5326 9.52831 72.1897 21.6239 76.6296C21.6239 76.6296 22.5557 76.8489 22.9394 75.917L27.087 67.5853C19.7419 66.1967 14.4433 58.8882 14.5164 51.8903C14.5894 42.7181 21.3681 36.3049 29.3161 35.9578C39.4566 35.5193 44.3168 42.0969 46.1987 48.2909C47.0209 51.0133 47.3498 53.6261 47.7152 56.0744C48.4461 61.2087 50.6752 66.7997 54.3294 70.5453C57.6365 73.9255 62.113 76.2094 66.6991 77.2874C68.9282 77.799 71.4496 78.2375 73.7518 78.1644C79.8178 77.9999 85.5367 76.118 90.0132 72.6647C90.0132 72.6647 100.282 65.2831 99.496 52.274C99.496 52.274 99.496 52.1644 99.4594 52.0182C99.1671 41.8411 93.503 32.4862 84.5136 28.229C84.5136 28.229 83.399 27.5713 82.8143 28.5762L78.1552 36.2684L78.1369 36.2501Z" fill="white"/>
<path d="M68.4349 77.6345C66.8453 83.6092 60.9802 89.4743 52.5754 89.3281C43.6591 89.182 36.5333 82.0014 36.7891 72.9753C36.8621 69.924 37.7757 66.6535 39.5663 63.9493C43.0926 58.6507 48.4644 57.6092 54.3295 56.7139C63.8671 55.234 78.7581 50.0997 78.7581 29.3801C78.7581 18.3991 69.4033 7.36326 58.3309 5.42651C44.3899 2.97816 32.9156 8.95286 28.2929 20.6099C28.2929 20.6099 27.69 21.9072 28.7314 22.4919L37.0997 26.6212C37.0997 26.6212 37.1362 26.4202 37.2093 26.1096C38.9816 19.1117 45.9795 14.1054 52.7764 14.1784C61.9669 14.2515 68.3618 21.0484 68.709 28.9782C69.1475 39.137 62.5698 43.9789 56.3759 45.8608C53.6534 46.683 51.0224 47.0119 48.574 47.359C43.4215 48.0899 37.8305 50.319 34.0849 53.9732C30.7047 57.2803 28.4208 61.7385 27.3611 66.3429C26.8495 68.572 26.411 71.0934 26.4841 73.3956C26.6485 79.4616 28.5305 85.1805 31.9837 89.6753C31.9837 89.6753 39.3653 99.9437 52.3927 99.1398C52.3927 99.1398 52.5023 99.1398 52.6485 99.1032C63.3555 98.7926 73.1489 92.5439 77.0589 82.7505C77.0589 82.7505 77.333 82.0196 76.5839 81.6907L68.4349 77.6345Z" fill="white"/>
<path d="M132.58 64.3075C128.124 64.3075 124.49 67.9252 124.49 72.4017C124.49 76.8781 128.106 80.4958 132.58 80.4958C137.054 80.4958 140.67 76.8781 140.67 72.4017C140.67 67.9252 137.054 64.3075 132.58 64.3075ZM132.653 75.9097C130.681 75.9097 129.056 74.3019 129.056 72.3103C129.056 70.3187 130.663 68.7291 132.653 68.7291C134.644 68.7291 136.251 70.337 136.251 72.3103C136.251 74.2836 134.644 75.9097 132.653 75.9097Z" fill="#494E8F"/>
<path d="M155.68 81.9758C151.207 81.9758 147.591 85.5935 147.591 90.07C147.591 94.5465 151.207 98.1642 155.68 98.1642C160.154 98.1642 163.77 94.5465 163.77 90.07C163.77 85.5935 160.136 81.9758 155.68 81.9758ZM155.754 93.5781C153.763 93.5781 152.156 91.9702 152.156 89.9786C152.156 87.9871 153.763 86.3792 155.754 86.3792C157.744 86.3792 159.351 87.9871 159.351 89.9786C159.351 91.9702 157.744 93.5781 155.754 93.5781Z" fill="#494E8F"/>
<path d="M135.082 38.8739H130.389V64.8739H135.082V38.8739Z" fill="#494E8F"/>
<path d="M199.69 40.025H194.997V64.7278H199.69V40.025Z" fill="#494E8F"/>
<path d="M246.657 40.0067H241.964V77.7186H246.657V40.0067Z" fill="#494E8F"/>
<path d="M192.933 63.9055H188.24V79.3813H192.933V63.9055Z" fill="#494E8F"/>
<path d="M199.909 85.4473H195.216V99.4248H199.909V85.4473Z" fill="#494E8F"/>
<path d="M145.144 57.6202H119.98V61.8409H145.144V57.6202Z" fill="#494E8F"/>
<path d="M198.521 51.0791H182.707V55.2998H198.521V51.0791Z" fill="#494E8F"/>
<path d="M199.616 60.5619H180.789V64.7826H199.616V60.5619Z" fill="#494E8F"/>
<path d="M185.138 39.751H180.643V64.5268H185.138V39.751Z" fill="#494E8F"/>
<path d="M258.855 58.1866H246.273V62.4073H258.855V58.1866Z" fill="#494E8F"/>
<path d="M155.169 40.2076H150.476V77.9195H155.169V40.2076Z" fill="#494E8F"/>
<path d="M165.706 40.0067H161.013V77.7186H165.706V40.0067Z" fill="#494E8F"/>
<path d="M164.61 57.9308H152.028V62.1514H164.61V57.9308Z" fill="#494E8F"/>
<path d="M210.153 75.7454H172.261V79.966H210.153V75.7454Z" fill="#494E8F"/>
<path d="M297.222 85.1184H257.285V89.668H297.222V85.1184Z" fill="#494E8F"/>
<path d="M199.689 85.4291H178.507V89.6497H199.689V85.4291Z" fill="#494E8F"/>
<path d="M292.985 46.6392H288.292V74.2288H292.985V46.6392Z" fill="#494E8F"/>
<path d="M270.944 65.9154H266.251V89.3574H270.944V65.9154Z" fill="#494E8F"/>
<path d="M282.485 65.9884H277.792V89.4304H282.485V65.9884Z" fill="#494E8F"/>
<path d="M292.766 46.621H263.512V50.8416H292.766V46.621Z" fill="#494E8F"/>
<path d="M246.694 82.6335H242V99.2787H246.694V82.6335Z" fill="#494E8F"/>
<path d="M246.475 82.6152H223.466V86.8359H246.475V82.6152Z" fill="#494E8F"/>
<path d="M224.561 64.3075C220.087 64.3075 216.471 67.9252 216.471 72.4017C216.471 76.8781 220.087 80.4958 224.561 80.4958C229.035 80.4958 232.651 76.8781 232.651 72.4017C232.651 67.9252 229.035 64.3075 224.561 64.3075ZM224.616 75.9097C222.644 75.9097 221.018 74.3019 221.018 72.3103C221.018 70.3187 222.625 68.7291 224.616 68.7291C226.606 68.7291 228.213 70.337 228.213 72.3103C228.213 74.2836 226.606 75.9097 224.616 75.9097Z" fill="#494E8F"/>
<path d="M226.935 39.751H222.26V66.3905H226.935V39.751Z" fill="#494E8F"/>
<path d="M237.107 57.6202H211.943V61.8409H237.107V57.6202Z" fill="#494E8F"/>
<path d="M138.971 18.4283H136.671V12.5815H132.836V16.8753H122.317V6.38758H124.618V9.87739H130.553V6.38758H132.836V10.7361H136.671V5.19995H138.971V18.4283ZM130.571 15.0299V11.7045H124.637V15.0299H130.571ZM138.953 28.1121H125.787V19.2688H128.07V21.7354H136.652V19.2688H138.953V28.1121ZM136.652 26.2302V23.5808H128.07V26.2302H136.652Z" fill="#494E8F"/>
<path d="M160.994 19.141H155.571V23.4895H153.27V19.141H150.293V23.4895H148.011V19.141H141.4V17.2773H160.994V19.141ZM157.999 28.1487H144.285V20.895H146.532V26.285H157.999V28.1487ZM144.906 15.4502V9.87742L155.37 9.82261V7.75796H144.778V5.89429H157.671V11.6863L147.171 11.7411V13.5865H158.091V15.4502H144.888H144.906Z" fill="#494E8F"/>
<path d="M178.872 24.4944H162.51V22.9414H178.872V24.4944ZM175.749 19.7439L170.563 14.9934C170.435 15.0665 170.253 15.2309 169.979 15.4867C169.705 15.7242 169.394 15.9983 169.047 16.3089C168.865 16.4733 168.701 16.6378 168.518 16.8022C168.335 16.9667 168.153 17.1494 167.97 17.3138C167.587 17.6427 167.221 17.9899 166.874 18.3187C166.527 18.6659 166.217 18.9582 165.943 19.214C165.669 19.4881 165.468 19.6525 165.359 19.7439L164.19 18.4101L169.595 13.4769V10.0967H171.494V13.4769C172.389 14.2808 173.302 15.1213 174.234 15.9618C175.165 16.8388 176.06 17.661 176.9 18.4101L175.749 19.7439Z" fill="#494E8F"/>
<path d="M190.705 18.2091H180.899V10.0235H182.816V16.656H190.705V18.2091ZM194.558 27.6919H183.602V20.6757H194.558V27.6919ZM185.501 26.1388H192.677V22.247H185.501V26.1388ZM194.503 19.9997H192.604V8.59839H194.503V19.9997Z" fill="#494E8F"/>
<path d="M209.167 22.6855H197.261V21.1324H200.767V16.4733H202.666V21.1324H209.167V22.6855ZM204.583 19.8352C204.876 19.1591 205.113 18.4648 205.314 17.7157C205.387 17.3868 205.478 17.0397 205.551 16.6925C205.624 16.3454 205.697 15.9982 205.734 15.6511C205.843 15.0116 205.916 14.4086 205.971 13.8605C206.008 13.3123 206.044 12.8373 206.044 12.4719H198.046V10.9553H207.943V11.5766C207.943 11.7593 207.943 11.942 207.925 12.143C207.925 12.344 207.907 12.5632 207.889 12.819C207.852 13.3123 207.797 13.8605 207.743 14.4817C207.67 15.1029 207.578 15.7424 207.432 16.4002C207.359 16.7291 207.286 17.0762 207.213 17.4234C207.14 17.7705 207.049 18.1177 206.957 18.4466C206.738 19.1774 206.501 19.8717 206.227 20.5477L204.565 19.8352H204.583ZM215.522 17.4416H211.76V27.6918H209.861V8.63489H211.76V15.8886H215.522V17.4416Z" fill="#494E8F"/>
<path d="M233.564 12.0151H223.009V10.5534H227.392V8.47046H229.236V10.5534H233.582V12.0151H233.564ZM227.52 19.6342C227.246 19.5977 226.972 19.5063 226.716 19.3967C226.186 19.214 225.748 18.9399 225.401 18.5927C225.2 18.4466 225.036 18.2639 224.89 18.0629C224.744 17.8619 224.616 17.6426 224.525 17.4234C224.306 16.9849 224.196 16.4915 224.196 15.9617C224.196 15.4318 224.306 14.9568 224.525 14.5C224.726 14.0615 225.018 13.6595 225.419 13.3123C225.766 12.9835 226.205 12.7277 226.734 12.5084C226.99 12.4171 227.264 12.344 227.538 12.2892C227.812 12.2343 228.104 12.2161 228.396 12.2161C228.98 12.2161 229.528 12.3074 230.058 12.4901C230.295 12.618 230.533 12.7277 230.77 12.8556C231.007 12.9835 231.208 13.1296 231.409 13.2941C231.592 13.4768 231.756 13.6595 231.902 13.8422C232.048 14.0432 232.176 14.2442 232.322 14.4817C232.432 14.7192 232.505 14.9568 232.56 15.1943C232.614 15.4501 232.633 15.6876 232.633 15.9251C232.633 16.1992 232.614 16.455 232.56 16.6925C232.505 16.9301 232.432 17.1676 232.322 17.3868C232.194 17.6244 232.048 17.8253 231.902 18.0263C231.756 18.2273 231.592 18.41 231.409 18.5562C231.208 18.7389 230.989 18.9033 230.77 19.0312C230.533 19.1591 230.313 19.2688 230.058 19.3601C229.802 19.488 229.528 19.5611 229.254 19.5977C228.98 19.6342 228.688 19.6525 228.396 19.6525C228.104 19.6525 227.812 19.6342 227.538 19.5977L227.52 19.6342ZM227.446 13.8057C227.3 13.8788 227.154 13.9518 227.026 14.0249C226.899 14.098 226.771 14.2076 226.68 14.299C226.442 14.5182 226.278 14.774 226.168 15.0298C226.022 15.3405 225.949 15.6511 225.949 15.9617C225.949 16.3088 226.022 16.6194 226.168 16.8935C226.223 17.0397 226.296 17.1676 226.387 17.2955C226.479 17.4234 226.57 17.533 226.68 17.6244C226.771 17.734 226.88 17.8253 227.026 17.9167C227.154 18.0081 227.3 18.0811 227.446 18.1542C227.739 18.2639 228.067 18.3187 228.396 18.3187C228.725 18.3187 229.053 18.2639 229.346 18.1542C229.638 18.0263 229.893 17.8619 230.113 17.6244C230.222 17.533 230.313 17.4234 230.405 17.2955C230.496 17.1676 230.569 17.0397 230.642 16.8935C230.77 16.6194 230.825 16.3088 230.825 15.9617C230.825 15.8155 230.825 15.6693 230.77 15.5232C230.733 15.377 230.679 15.2126 230.624 15.0664C230.478 14.7923 230.295 14.5548 230.094 14.3173C229.875 14.1163 229.62 13.9518 229.327 13.8057C229.035 13.696 228.725 13.6412 228.396 13.6412C228.067 13.6412 227.739 13.696 227.446 13.8057ZM237.381 27.6918H226.424V20.8584H237.381V27.6918ZM228.323 26.1388H235.463V22.4114H228.323V26.1388ZM241.124 15.1395H237.454V19.9814H235.536V8.61663H237.454V13.6047H241.124V15.1395Z" fill="#494E8F"/>
<path d="M255.897 27.1072H253.998V16.8753H251.569C251.423 17.259 251.241 17.661 251.021 18.0629C250.802 18.4649 250.565 18.8669 250.273 19.2688C249.688 20.1093 248.903 20.9681 247.935 21.8634L246.748 20.6026C247.552 19.8718 248.209 19.1227 248.702 18.3187C249.214 17.5331 249.597 16.7839 249.853 16.0348C249.981 15.6877 250.108 15.3405 250.2 15.0116C250.291 14.6828 250.364 14.3721 250.419 14.0798C250.492 13.4951 250.547 13.0018 250.583 12.6546H248.702C248.702 12.8556 248.666 13.0932 248.629 13.349C248.593 13.6047 248.52 13.8788 248.447 14.1894C248.392 14.5183 248.301 14.8655 248.173 15.2126C248.045 15.5598 247.899 15.9252 247.716 16.3089C247.515 16.6926 247.278 17.0763 247.004 17.4783C246.73 17.8802 246.438 18.3005 246.091 18.7024C245.397 19.5246 244.447 20.3103 243.261 21.0594L242.457 19.6891C243.334 19.1227 244.046 18.5014 244.612 17.8071C244.886 17.4783 245.141 17.1494 245.342 16.8205C245.543 16.4916 245.744 16.1627 245.927 15.8338C246.219 15.1943 246.438 14.5731 246.548 14.0067C246.639 13.4403 246.73 12.9835 246.785 12.6181H243.315V11.0833H252.464V11.6315C252.464 11.7959 252.464 11.9969 252.464 12.2344C252.464 12.4719 252.446 12.746 252.409 13.0749C252.373 13.7509 252.245 14.5 252.044 15.3405H253.98V9.16483H255.879V27.1072H255.897ZM259.495 27.6553H257.595V8.67151H259.495V27.6553Z" fill="#494E8F"/>
<path d="M272.222 13.4037H261.613V11.9054H265.977V9.00031H267.84V11.9054H272.222V13.4037ZM265.302 21.8633C264.735 21.6623 264.261 21.37 263.841 20.968C263.439 20.6208 263.11 20.1823 262.873 19.6525C262.763 19.3967 262.69 19.1409 262.617 18.8668C262.562 18.5927 262.526 18.3187 262.526 18.0446C262.526 17.4782 262.635 16.93 262.873 16.4002C263.001 16.1444 263.147 15.9068 263.311 15.6876C263.457 15.4683 263.64 15.2674 263.841 15.0846C264.242 14.7192 264.735 14.4086 265.302 14.1711C265.575 14.0615 265.868 13.9884 266.16 13.9336C266.452 13.8787 266.744 13.8605 267.055 13.8605C267.365 13.8605 267.657 13.897 267.949 13.9336C268.242 13.9701 268.534 14.0615 268.808 14.1711C269.337 14.4086 269.83 14.7192 270.269 15.0846C270.451 15.2674 270.634 15.4683 270.798 15.6876C270.962 15.9068 271.109 16.1444 271.236 16.4002C271.346 16.656 271.437 16.9118 271.492 17.1858C271.565 17.4599 271.602 17.734 271.602 18.0263C271.602 18.3187 271.565 18.5927 271.492 18.8485C271.419 19.1226 271.346 19.3784 271.236 19.6342C270.999 20.1641 270.67 20.6026 270.269 20.9497C269.83 21.3334 269.355 21.644 268.808 21.845C268.242 22.0643 267.657 22.1922 267.055 22.1922C266.452 22.1922 265.831 22.0825 265.302 21.845V21.8633ZM266.014 15.6145C265.868 15.6876 265.722 15.7607 265.575 15.852C265.429 15.9434 265.302 16.053 265.174 16.1809C265.064 16.3088 264.955 16.4367 264.863 16.5646C264.754 16.6925 264.681 16.8387 264.626 17.0031C264.553 17.1676 264.516 17.332 264.48 17.4964C264.443 17.6609 264.425 17.8436 264.425 18.0263C264.425 18.209 264.425 18.3917 264.48 18.5562C264.516 18.7206 264.571 18.8851 264.626 19.0495C264.681 19.1957 264.754 19.3418 264.863 19.488C264.973 19.6342 265.064 19.7621 265.174 19.89C265.302 19.9996 265.429 20.091 265.575 20.2006C265.722 20.292 265.868 20.3833 266.014 20.4381C266.178 20.5112 266.342 20.5477 266.507 20.5843C266.671 20.6208 266.854 20.6391 267.036 20.6391C267.219 20.6391 267.383 20.6391 267.566 20.5843C267.749 20.5477 267.913 20.4929 268.077 20.4381C268.242 20.365 268.388 20.292 268.515 20.2006C268.643 20.1092 268.771 19.9996 268.899 19.89C269.027 19.7621 269.118 19.6342 269.209 19.488C269.301 19.3418 269.374 19.1957 269.465 19.0495C269.593 18.7206 269.666 18.3917 269.666 18.0263C269.666 17.8436 269.666 17.6609 269.611 17.4964C269.575 17.332 269.52 17.1676 269.465 17.0031C269.392 16.8387 269.301 16.6925 269.209 16.5646C269.118 16.4367 269.027 16.3088 268.899 16.1809C268.771 16.053 268.643 15.9434 268.515 15.852C268.388 15.7607 268.242 15.6876 268.077 15.6145C267.749 15.4866 267.42 15.4135 267.055 15.4135C266.689 15.4135 266.342 15.4866 266.032 15.6145H266.014ZM279.764 17.1858H275.765V27.6735H273.866V8.63489H275.765V15.6511H279.764V17.2041V17.1858Z" fill="#494E8F"/>
<path d="M296.838 19.9449H280.477V18.4101H296.838V19.9449ZM294.738 16.0348H282.851V9.45715H284.75V14.5366H294.738V16.0531V16.0348ZM294.592 27.7467H283.161V21.3517H285.042V26.1936H294.592V27.7467Z" fill="#494E8F"/>
</svg>
