<svg width="76" height="27" viewBox="0 0 76 27" fill="none" xmlns="http://www.w3.org/2000/svg">
<path d="M21.6581 8.49701C21.6581 12.7725 18.1911 16.2395 13.9111 16.2395C9.63103 16.2395 6.16406 12.7725 6.16406 8.49701C6.16406 4.22154 9.63103 0.75 13.9111 0.75C18.1911 0.75 21.6581 4.21697 21.6581 8.49701Z" fill="#494E8F"/>
<path d="M16.4003 13.8549C16.4003 18.1304 12.9333 21.6019 8.65326 21.6019C4.37322 21.6019 0.90625 18.1304 0.90625 13.8549C0.90625 9.57945 4.37322 6.10791 8.65326 6.10791C12.9333 6.10791 16.4003 9.57488 16.4003 13.8504V13.8549Z" fill="#494E8F"/>
<path d="M26.8534 13.759C26.8534 18.0345 23.3864 21.5061 19.1064 21.5061C14.8263 21.5061 11.3594 18.0345 11.3594 13.759C11.3594 9.48357 14.8263 6.0166 19.1064 6.0166C23.3864 6.0166 26.8534 9.48357 26.8534 13.759Z" fill="#494E8F"/>
<path d="M21.5839 19.0032C21.5839 23.2832 18.1169 26.7502 13.8369 26.7502C9.55681 26.7502 6.08984 23.2832 6.08984 19.0032C6.08984 14.7231 9.55681 11.2607 13.8369 11.2607C18.1169 11.2607 21.5839 14.7277 21.5839 19.0032Z" fill="#494E8F"/>
<path d="M8.33183 9.53857C6.03879 9.53857 4.17969 11.3977 4.17969 13.6861C4.17969 15.9792 6.03879 17.8337 8.33183 17.8337C10.6249 17.8337 12.484 15.9746 12.484 13.6861C12.484 11.3977 10.6249 9.53857 8.33183 9.53857Z" fill="#42C2D0"/>
<path d="M13.9881 14.8188C11.695 14.8188 9.83594 16.6779 9.83594 18.9664C9.83594 21.2549 11.695 23.1186 13.9881 23.1186C16.2811 23.1186 18.1402 21.2595 18.1402 18.9664C18.1402 16.6734 16.2811 14.8188 13.9881 14.8188Z" fill="#FAAC17"/>
<path d="M19.1866 9.625C16.8936 9.625 15.0345 11.4841 15.0391 13.7726C15.0391 16.0611 16.8982 17.9202 19.1866 17.9202C21.4751 17.9202 23.3388 16.0611 23.3388 13.7726C23.3388 11.4841 21.4797 9.625 19.1866 9.625Z" fill="#00B291"/>
<path d="M12.8729 12.2656C15.0929 12.8412 17.3585 11.5119 17.934 9.29197C18.5096 7.07202 17.1758 4.80638 14.9604 4.23084C12.745 3.65529 10.4748 4.98452 9.89926 7.20448C9.72111 7.89879 9.72568 8.59767 9.88555 9.2463" fill="#B071AE"/>
<path d="M20.2801 9.81244C21.76 10.2235 23.2035 11.6807 23.1669 13.7636C23.1304 15.9881 21.3352 17.7696 19.0787 17.7056C18.3159 17.6873 17.4983 17.459 16.8222 17.0159C15.493 16.1343 15.2326 14.7914 15.0134 13.3297C14.6434 10.9453 13.3598 7.22249 8.17536 7.22705C5.43011 7.22705 2.67571 9.56578 2.18696 12.3339C1.56117 15.8831 3.12793 18.7973 6.15182 19.9073C6.15182 19.9073 6.38478 19.9621 6.4807 19.7292L7.5176 17.6462C5.68134 17.2991 4.35667 15.472 4.37494 13.7225C4.39321 11.4294 6.08787 9.82614 8.07487 9.73935C10.61 9.62973 11.825 11.2741 12.2955 12.8226C12.5011 13.5032 12.5833 14.1564 12.6747 14.7685C12.8574 16.0521 13.4146 17.4498 14.3282 18.3862C15.155 19.2313 16.2741 19.8022 17.4206 20.0717C17.9779 20.1996 18.6083 20.3093 19.1838 20.291C20.7003 20.2499 22.13 19.7794 23.2492 18.9161C23.2492 18.9161 25.8163 17.0707 25.6198 13.8184C25.6198 13.8184 25.6198 13.791 25.6107 13.7545C25.5376 11.2102 24.1216 8.87147 21.8742 7.80717C21.8742 7.80717 21.5956 7.64273 21.4494 7.89396L20.2846 9.81701L20.2801 9.81244Z" fill="white"/>
<path d="M17.8569 20.1588C17.4595 21.6525 15.9932 23.1188 13.892 23.0822C11.6629 23.0457 9.88149 21.2505 9.94543 18.994C9.96371 18.2312 10.1921 17.4136 10.6397 16.7375C11.5213 15.4129 12.8643 15.1525 14.3305 14.9287C16.7149 14.5587 20.4377 13.2751 20.4377 8.09522C20.4377 5.34996 18.099 2.591 15.3309 2.10681C11.8456 1.49472 8.97706 2.9884 7.8214 5.90266C7.8214 5.90266 7.67066 6.22698 7.93103 6.37315L10.0231 7.40548C10.0231 7.40548 10.0322 7.35523 10.0505 7.27758C10.4936 5.5281 12.243 4.27652 13.9423 4.29479C16.2399 4.31307 17.8386 6.01229 17.9254 7.99472C18.035 10.5344 16.3906 11.7449 14.8421 12.2154C14.1615 12.4209 13.5038 12.5032 12.8917 12.5899C11.6036 12.7727 10.2058 13.3299 9.2694 14.2435C8.42435 15.0703 7.85338 16.1848 7.58844 17.3359C7.46054 17.8932 7.35092 18.5235 7.36919 19.0991C7.4103 20.6156 7.88078 22.0453 8.7441 23.169C8.7441 23.169 10.5895 25.7361 13.8463 25.5351C13.8463 25.5351 13.8738 25.5351 13.9103 25.526C16.587 25.4483 19.0354 23.8862 20.0129 21.4378C20.0129 21.4378 20.0814 21.2551 19.8941 21.1729L17.8569 20.1588Z" fill="white"/>
<path d="M33.8935 16.8271C32.7796 16.8271 31.8711 17.7316 31.8711 18.8507C31.8711 19.9698 32.775 20.8742 33.8935 20.8742C35.012 20.8742 35.9159 19.9698 35.9159 18.8507C35.9159 17.7316 35.012 16.8271 33.8935 16.8271ZM33.9118 19.7277C33.4187 19.7277 33.0124 19.3257 33.0124 18.8279C33.0124 18.33 33.4142 17.9326 33.9118 17.9326C34.4094 17.9326 34.8111 18.3345 34.8111 18.8279C34.8111 19.3212 34.4094 19.7277 33.9118 19.7277Z" fill="white"/>
<path d="M39.6669 21.2441C38.5485 21.2441 37.6445 22.1486 37.6445 23.2677C37.6445 24.3868 38.5485 25.2912 39.6669 25.2912C40.7854 25.2912 41.6894 24.3868 41.6894 23.2677C41.6894 22.1486 40.7809 21.2441 39.6669 21.2441ZM39.6852 24.1447C39.1876 24.1447 38.7858 23.7427 38.7858 23.2448C38.7858 22.747 39.1876 22.345 39.6852 22.345C40.1828 22.345 40.5846 22.747 40.5846 23.2448C40.5846 23.7427 40.1828 24.1447 39.6852 24.1447Z" fill="white"/>
<path d="M34.517 10.4688H33.3438V16.9688H34.517V10.4688Z" fill="white"/>
<path d="M50.6694 10.7563H49.4961V16.932H50.6694V10.7563Z" fill="white"/>
<path d="M62.4116 10.752H61.2383V20.1799H62.4116V10.752Z" fill="white"/>
<path d="M48.9819 16.7266H47.8086V20.5955H48.9819V16.7266Z" fill="white"/>
<path d="M50.7241 22.1123H49.5508V25.6067H50.7241V22.1123Z" fill="white"/>
<path d="M37.0331 15.1553H30.7422V16.2104H37.0331V15.1553Z" fill="white"/>
<path d="M50.3754 13.52H46.4219V14.5752H50.3754V13.52Z" fill="white"/>
<path d="M50.6521 15.8906H45.9453V16.9458H50.6521V15.8906Z" fill="white"/>
<path d="M47.0299 10.688H45.9062V16.8819H47.0299V10.688Z" fill="white"/>
<path d="M65.4619 15.2969H62.3164V16.352H65.4619V15.2969Z" fill="white"/>
<path d="M39.5405 10.8022H38.3672V20.2302H39.5405V10.8022Z" fill="white"/>
<path d="M42.1733 10.752H41V20.1799H42.1733V10.752Z" fill="white"/>
<path d="M41.8994 15.2329H38.7539V16.2881H41.8994V15.2329Z" fill="white"/>
<path d="M53.2854 19.6865H43.8125V20.7417H53.2854V19.6865Z" fill="white"/>
<path d="M75.0546 22.0298H65.0703V23.1672H75.0546V22.0298Z" fill="white"/>
<path d="M50.6707 22.1074H45.375V23.1626H50.6707V22.1074Z" fill="white"/>
<path d="M73.9936 12.4102H72.8203V19.3076H73.9936V12.4102Z" fill="white"/>
<path d="M68.4819 17.229H67.3086V23.0895H68.4819V17.229Z" fill="white"/>
<path d="M71.3686 17.2476H70.1953V23.1081H71.3686V17.2476Z" fill="white"/>
<path d="M73.9386 12.4053H66.625V13.4604H73.9386V12.4053Z" fill="white"/>
<path d="M62.4194 21.4087H61.2461V25.57H62.4194V21.4087Z" fill="white"/>
<path d="M62.3655 21.4043H56.6133V22.4595H62.3655V21.4043Z" fill="white"/>
<path d="M56.8896 16.8271C55.7711 16.8271 54.8672 17.7316 54.8672 18.8507C54.8672 19.9698 55.7711 20.8742 56.8896 20.8742C58.0081 20.8742 58.912 19.9698 58.912 18.8507C58.912 17.7316 58.0081 16.8271 56.8896 16.8271ZM56.9033 19.7277C56.4102 19.7277 56.0039 19.3257 56.0039 18.8279C56.0039 18.33 56.4057 17.9326 56.9033 17.9326C57.4009 17.9326 57.8027 18.3345 57.8027 18.8279C57.8027 19.3212 57.4009 19.7277 56.9033 19.7277Z" fill="white"/>
<path d="M57.4812 10.688H56.3125V17.3479H57.4812V10.688Z" fill="white"/>
<path d="M60.0253 15.1553H53.7344V16.2104H60.0253V15.1553Z" fill="white"/>
<path d="M35.4917 5.35788H34.9164V3.89618H33.9577V4.96961H31.3281V2.34769H31.9033V3.22014H33.3871V2.34769H33.9577V3.43483H34.9164V2.05078H35.4917V5.35788ZM33.3916 4.50827V3.67692H31.9079V4.50827H33.3916ZM35.4871 7.77882H32.1955V5.568H32.7662V6.18465H34.9119V5.568H35.4871V7.77882ZM34.9119 7.30834V6.646H32.7662V7.30834H34.9119Z" fill="white"/>
<path d="M40.9962 5.53628H39.6403V6.62341H39.0651V5.53628H38.3209V6.62341H37.7503V5.53628H36.0977V5.07036H40.9962V5.53628ZM40.2475 7.78821H36.819V5.97479H37.3805V7.32229H40.2475V7.78821ZM36.9742 4.61358V3.22039L39.5901 3.20669V2.69053H36.9422V2.22461H40.1653V3.67261L37.5403 3.68631V4.14766H40.2703V4.61358H36.9696H36.9742Z" fill="white"/>
<path d="M45.4655 6.87434H41.375V6.48608H45.4655V6.87434ZM44.6848 5.68671L43.3883 4.49908C43.3563 4.51735 43.3107 4.55846 43.2422 4.62241C43.1737 4.68179 43.0961 4.75031 43.0094 4.82796C42.9637 4.86907 42.9226 4.91018 42.877 4.95129C42.8313 4.9924 42.7857 5.03808 42.74 5.07919C42.6441 5.16141 42.5528 5.2482 42.4661 5.33042C42.3794 5.41721 42.3017 5.49029 42.2333 5.55424C42.1648 5.62276 42.1146 5.66387 42.0872 5.68671L41.795 5.35326L43.1463 4.11995V3.2749H43.6211V4.11995C43.8448 4.32093 44.0731 4.53105 44.3059 4.74117C44.5387 4.96043 44.7624 5.16598 44.9724 5.35326L44.6848 5.68671Z" fill="white"/>
<path d="M48.4242 5.30306H45.9727V3.25668H46.452V4.9148H48.4242V5.30306ZM49.3875 7.67376H46.6483V5.91972H49.3875V7.67376ZM47.1231 7.28549H48.9173V6.31255H47.1231V7.28549ZM49.3738 5.75071H48.899V2.90039H49.3738V5.75071Z" fill="white"/>
<path d="M53.0391 6.42232H50.0625V6.03405H50.939V4.86926H51.4138V6.03405H53.0391V6.42232ZM51.8932 5.70974C51.9662 5.54073 52.0256 5.36715 52.0758 5.17987C52.094 5.09765 52.1169 5.01086 52.1351 4.92407C52.1534 4.83729 52.1717 4.7505 52.1808 4.66371C52.2082 4.50384 52.2264 4.3531 52.2401 4.21606C52.2493 4.07903 52.2584 3.96027 52.2584 3.86891H50.2588V3.48978H52.7332V3.64509C52.7332 3.69076 52.7332 3.73644 52.7286 3.78669C52.7286 3.83693 52.7241 3.89175 52.7195 3.9557C52.7104 4.07903 52.6967 4.21606 52.683 4.37137C52.6647 4.52667 52.6419 4.68655 52.6054 4.85099C52.5871 4.93321 52.5688 5.02 52.5506 5.10679C52.5323 5.19358 52.5095 5.28036 52.4867 5.36258C52.4319 5.5453 52.3725 5.71887 52.304 5.88788L51.8886 5.70974H51.8932ZM54.6278 5.11135H53.6873V7.6739H53.2125V2.90967H53.6873V4.72309H54.6278V5.11135Z" fill="white"/>
<path d="M59.1387 3.75432H56.5V3.3889H57.5957V2.86816H58.0568V3.3889H59.1433V3.75432H59.1387ZM57.6276 5.6591C57.5591 5.64996 57.4907 5.62712 57.4267 5.59972C57.2944 5.55404 57.1848 5.48552 57.098 5.39873C57.0478 5.36219 57.0067 5.31651 56.9702 5.26627C56.9337 5.21602 56.9017 5.16121 56.8789 5.10639C56.8241 4.99677 56.7967 4.87343 56.7967 4.74097C56.7967 4.6085 56.8241 4.48974 56.8789 4.37554C56.9291 4.26592 57.0022 4.16542 57.1026 4.07863C57.1894 3.99641 57.2989 3.93246 57.4313 3.87765C57.4952 3.85481 57.5637 3.83654 57.6322 3.82284C57.7007 3.80913 57.7737 3.80457 57.8468 3.80457C57.9928 3.80457 58.1298 3.82741 58.2622 3.87308C58.3215 3.90506 58.3809 3.93246 58.4402 3.96444C58.4996 3.99641 58.5498 4.03296 58.6 4.07407C58.6457 4.11975 58.6868 4.16542 58.7233 4.2111C58.7598 4.26135 58.7918 4.31159 58.8283 4.37098C58.8557 4.43036 58.8739 4.48974 58.8876 4.54912C58.9013 4.61307 58.9059 4.67245 58.9059 4.73183C58.9059 4.80035 58.9013 4.8643 58.8876 4.92368C58.8739 4.98306 58.8557 5.04244 58.8283 5.09726C58.7963 5.15664 58.7598 5.20689 58.7233 5.25713C58.6868 5.30738 58.6457 5.35306 58.6 5.3896C58.5498 5.43528 58.495 5.47639 58.4402 5.50836C58.3809 5.54034 58.3261 5.56774 58.2622 5.59058C58.1983 5.62256 58.1298 5.64083 58.0613 5.64996C57.9928 5.6591 57.9198 5.66367 57.8468 5.66367C57.7737 5.66367 57.7007 5.6591 57.6322 5.64996L57.6276 5.6591ZM57.6094 4.20197C57.5728 4.22024 57.5363 4.23851 57.5044 4.25678C57.4724 4.27505 57.4404 4.30246 57.4176 4.3253C57.3583 4.38011 57.3172 4.44406 57.2898 4.50801C57.2533 4.58566 57.235 4.66332 57.235 4.74097C57.235 4.82776 57.2533 4.90541 57.2898 4.97393C57.3035 5.01047 57.3217 5.04244 57.3446 5.07442C57.3674 5.10639 57.3902 5.1338 57.4176 5.15664C57.4404 5.18405 57.4678 5.20689 57.5044 5.22972C57.5363 5.25256 57.5728 5.27083 57.6094 5.28911C57.6824 5.31651 57.7646 5.33022 57.8468 5.33022C57.9289 5.33022 58.0111 5.31651 58.0841 5.28911C58.1572 5.25713 58.2211 5.21602 58.2759 5.15664C58.3033 5.1338 58.3261 5.10639 58.3489 5.07442C58.3718 5.04244 58.39 5.01047 58.4083 4.97393C58.4402 4.90541 58.4539 4.82776 58.4539 4.74097C58.4539 4.70443 58.4539 4.66788 58.4402 4.63134C58.4311 4.5948 58.4174 4.55369 58.4037 4.51715C58.3672 4.44863 58.3215 4.38925 58.2713 4.32986C58.2165 4.27962 58.1526 4.23851 58.0796 4.20197C58.0065 4.17456 57.9289 4.16086 57.8468 4.16086C57.7646 4.16086 57.6824 4.17456 57.6094 4.20197ZM60.0929 7.67351H57.3537V5.96514H60.0929V7.67351ZM57.8285 7.28524H59.6135V6.35341H57.8285V7.28524ZM61.0287 4.53542H60.1111V5.74589H59.6318V2.90471H60.1111V4.15172H61.0287V4.53542Z" fill="white"/>
<path d="M64.7233 7.52787H64.2485V4.96989H63.6414C63.6048 5.06582 63.5592 5.16631 63.5044 5.2668C63.4496 5.36729 63.3903 5.46779 63.3172 5.56828C63.1711 5.7784 62.9748 5.99308 62.7329 6.21691L62.4361 5.90173C62.637 5.71902 62.8013 5.53174 62.9246 5.33075C63.0524 5.13434 63.1483 4.94705 63.2122 4.75977C63.2442 4.67299 63.2761 4.5862 63.299 4.50398C63.3218 4.42176 63.34 4.3441 63.3537 4.27102C63.372 4.12485 63.3857 4.00152 63.3948 3.91473H62.9246C62.9246 3.96497 62.9155 4.02436 62.9063 4.08831C62.8972 4.15226 62.8789 4.22077 62.8607 4.29843C62.847 4.38065 62.8242 4.46743 62.7922 4.55422C62.7603 4.64101 62.7237 4.73237 62.6781 4.82829C62.6279 4.92422 62.5685 5.02014 62.5 5.12063C62.4316 5.22112 62.3585 5.32618 62.2718 5.42668C62.0983 5.63223 61.8609 5.82864 61.5642 6.01592L61.3633 5.67334C61.5824 5.53174 61.7605 5.37643 61.902 5.20285C61.9705 5.12063 62.0344 5.03841 62.0846 4.95619C62.1348 4.87397 62.185 4.79175 62.2307 4.70953C62.3037 4.54966 62.3585 4.39435 62.3859 4.25275C62.4087 4.11114 62.4316 3.99695 62.4452 3.90559H61.5778V3.5219H63.865V3.65893C63.865 3.70004 63.865 3.75029 63.865 3.80967C63.865 3.86905 63.8605 3.93757 63.8514 4.01979C63.8422 4.1888 63.8103 4.37608 63.76 4.5862H64.244V3.04228H64.7188V7.52787H64.7233ZM65.6227 7.6649H65.1479V2.91895H65.6227V7.6649Z" fill="white"/>
<path d="M68.8048 4.10187H66.1523V3.72731H67.2434V3.00102H67.7091V3.72731H68.8048V4.10187ZM67.0745 6.21677C66.933 6.16652 66.8143 6.09344 66.7093 5.99294C66.6089 5.90615 66.5267 5.79653 66.4673 5.66406C66.4399 5.60011 66.4217 5.53616 66.4034 5.46764C66.3897 5.39913 66.3806 5.33061 66.3806 5.26209C66.3806 5.12049 66.408 4.98346 66.4673 4.85099C66.4993 4.78704 66.5358 4.72766 66.5769 4.67284C66.6134 4.61803 66.6591 4.56778 66.7093 4.52211C66.8097 4.43075 66.933 4.3531 67.0745 4.29372C67.143 4.26631 67.216 4.24804 67.2891 4.23433C67.3621 4.22063 67.4352 4.21606 67.5128 4.21606C67.5904 4.21606 67.6634 4.2252 67.7365 4.23433C67.8095 4.24347 67.8826 4.26631 67.9511 4.29372C68.0834 4.3531 68.2067 4.43075 68.3163 4.52211C68.3619 4.56778 68.4076 4.61803 68.4487 4.67284C68.4898 4.72766 68.5263 4.78704 68.5582 4.85099C68.5856 4.91494 68.6085 4.97889 68.6221 5.04741C68.6404 5.11592 68.6495 5.18444 68.6495 5.25752C68.6495 5.33061 68.6404 5.39913 68.6221 5.46308C68.6039 5.53159 68.5856 5.59554 68.5582 5.65949C68.4989 5.79196 68.4167 5.90159 68.3163 5.98838C68.2067 6.0843 68.088 6.16195 67.9511 6.2122C67.8095 6.26701 67.6634 6.29899 67.5128 6.29899C67.3621 6.29899 67.2069 6.27158 67.0745 6.2122V6.21677ZM67.2526 4.65457C67.216 4.67284 67.1795 4.69112 67.143 4.71395C67.1065 4.73679 67.0745 4.7642 67.0426 4.79618C67.0152 4.82815 66.9878 4.86012 66.965 4.8921C66.9376 4.92407 66.9193 4.96062 66.9056 5.00173C66.8873 5.04284 66.8782 5.08395 66.8691 5.12506C66.86 5.16617 66.8554 5.21185 66.8554 5.25752C66.8554 5.3032 66.8554 5.34888 66.8691 5.38999C66.8782 5.4311 66.8919 5.47221 66.9056 5.51332C66.9193 5.54987 66.9376 5.58641 66.965 5.62295C66.9924 5.65949 67.0152 5.69147 67.0426 5.72344C67.0745 5.75085 67.1065 5.77369 67.143 5.8011C67.1795 5.82393 67.216 5.84677 67.2526 5.86048C67.2937 5.87875 67.3347 5.88788 67.3758 5.89702C67.4169 5.90615 67.4626 5.91072 67.5082 5.91072C67.5539 5.91072 67.595 5.91072 67.6406 5.89702C67.6863 5.88788 67.7274 5.87418 67.7684 5.86048C67.8095 5.84221 67.8461 5.82393 67.878 5.8011C67.91 5.77826 67.9419 5.75085 67.9739 5.72344C68.0058 5.69147 68.0287 5.65949 68.0515 5.62295C68.0743 5.58641 68.0926 5.54987 68.1154 5.51332C68.1474 5.4311 68.1656 5.34888 68.1656 5.25752C68.1656 5.21185 68.1656 5.16617 68.1519 5.12506C68.1428 5.08395 68.1291 5.04284 68.1154 5.00173C68.0971 4.96062 68.0743 4.92407 68.0515 4.8921C68.0287 4.86012 68.0058 4.82815 67.9739 4.79618C67.9419 4.7642 67.91 4.73679 67.878 4.71395C67.8461 4.69112 67.8095 4.67284 67.7684 4.65457C67.6863 4.6226 67.6041 4.60433 67.5128 4.60433C67.4215 4.60433 67.3347 4.6226 67.2571 4.65457H67.2526ZM70.6902 5.04741H69.6904V7.66933H69.2156V2.90967H69.6904V4.66371H70.6902V5.05197V5.04741Z" fill="white"/>
<path d="M74.9577 5.73716H70.8672V5.35346H74.9577V5.73716ZM74.4327 4.75965H71.4607V3.11523H71.9355V4.38509H74.4327V4.76422V4.75965ZM74.3961 7.68762H71.5383V6.08888H72.0085V7.29935H74.3961V7.68762Z" fill="white"/>
</svg>
