<svg width="40" height="41" viewBox="0 0 40 41" fill="none" xmlns="http://www.w3.org/2000/svg">
<path d="M29.7367 15.7793V36.3051C29.7367 37.2716 28.9532 38.0551 27.9867 38.0551H11.7812C10.8147 38.0551 10.0312 37.2716 10.0312 36.3051V15.7793" stroke="black" stroke-width="1.75" stroke-linecap="round" stroke-linejoin="round"/>
<path d="M29.738 23.0625H35.2704C36.2369 23.0625 37.0204 23.846 37.0204 24.8125V36.3058C37.0204 37.2723 36.2369 38.0558 35.2704 38.0558H4.5C3.5335 38.0558 2.75 37.2723 2.75 36.3058V24.8125C2.75 23.846 3.5335 23.0625 4.5 23.0625H10.0325" stroke="black" stroke-width="1.75" stroke-linecap="round" stroke-linejoin="round"/>
<path d="M32.5773 17.5038L19.9401 10.125L7.03516 17.5038" stroke="black" stroke-width="1.75" stroke-linecap="round" stroke-linejoin="round"/>
<path d="M19.8867 10.2108L19.8867 2.5" stroke="black" stroke-width="1.75" stroke-linecap="round" stroke-linejoin="round"/>
<path d="M19.8867 2.92773H27.1692L25.2415 5.63329L27.1692 8.0683H19.8867" stroke="black" stroke-width="1.75" stroke-linecap="round" stroke-linejoin="round"/>
<path d="M23.8706 28.6309H15.9027C15.2639 28.6309 14.7461 29.1487 14.7461 29.7875V36.8986C14.7461 37.5374 15.2639 38.0552 15.9027 38.0552H23.8706C24.5094 38.0552 25.0272 37.5374 25.0272 36.8986V29.7875C25.0272 29.1487 24.5094 28.6309 23.8706 28.6309Z" stroke="black" stroke-width="1.75" stroke-linecap="round" stroke-linejoin="round"/>
<path d="M19.8867 38.0552V28.6309" stroke="black" stroke-width="1.75" stroke-linecap="round" stroke-linejoin="round"/>
<path d="M19.9917 25.2038C19.8373 25.1997 19.5409 25.1659 19.2444 24.9903C18.7091 24.6732 14.6411 22.0305 14.7482 19.3879C14.8552 16.7457 18.1727 15.4772 20.0998 18.0124L20.1423 17.96C22.075 15.495 25.3472 16.7641 25.4535 19.3879C25.5606 22.0305 21.4926 24.6732 20.9573 24.9903C20.607 25.1978 20.2567 25.2073 20.1408 25.2038H20.0609C20.0431 25.2044 20.0199 25.2046 19.9919 25.2038L19.9917 25.2038Z" fill="#A2A6DE" stroke="black" stroke-width="1.75" stroke-linejoin="round"/>
</svg>
