<svg width="40" height="41" viewBox="0 0 40 41" fill="none" xmlns="http://www.w3.org/2000/svg">
<path d="M36.6671 11.7734H3.33377C2.72012 11.7734 2.22266 12.2709 2.22266 12.8845V14.691C2.22266 15.3047 2.72012 15.8021 3.33377 15.8021H36.6671C37.2808 15.8021 37.7782 15.3047 37.7782 14.691V12.8845C37.7782 12.2709 37.2808 11.7734 36.6671 11.7734Z" stroke="black" stroke-width="1.75" stroke-linecap="round" stroke-linejoin="round"/>
<path d="M12.4575 31.6113H5.7908C5.17715 31.6113 4.67969 32.1088 4.67969 32.7224V33.8336C4.67969 34.4472 5.17715 34.9447 5.7908 34.9447H12.4575C13.0711 34.9447 13.5686 34.4472 13.5686 33.8336V32.7224C13.5686 32.1088 13.0711 31.6113 12.4575 31.6113Z" stroke="black" stroke-width="1.75" stroke-linecap="round" stroke-linejoin="round"/>
<path d="M35.7908 16.0547H4.67969V34.9436H35.7908V16.0547Z" stroke="black" stroke-width="1.75" stroke-linecap="round" stroke-linejoin="round"/>
<path d="M19.7753 30.0924C19.5849 30.0874 19.2192 30.0472 18.8535 29.8379C18.1933 29.4601 13.1752 26.3114 13.3072 23.1628C13.4393 20.0146 17.5316 18.5033 19.9087 21.5239L19.9611 21.4615C22.3452 18.5244 26.3816 20.0366 26.5127 23.1628C26.6448 26.3114 21.6267 29.4601 20.9664 29.8379C20.5343 30.0852 20.1022 30.0964 19.9593 30.0924H19.8607C19.8388 30.093 19.8101 30.0933 19.7756 30.0924L19.7753 30.0924Z" fill="#A2A6DE" stroke="black" stroke-width="1.75" stroke-linejoin="round"/>
<path d="M20.8945 6.56445L27.7728 11.4775" stroke="black" stroke-width="1.75" stroke-linecap="round" stroke-linejoin="round"/>
<circle cx="19.9123" cy="6.4826" r="0.982605" fill="black" stroke="black" stroke-width="1.75"/>
<path d="M18.9297 6.56445L12.0515 11.4775" stroke="black" stroke-width="1.75" stroke-linecap="round" stroke-linejoin="round"/>
<path d="M2.22266 34.9453H37.7782" stroke="black" stroke-width="1.75" stroke-linecap="round" stroke-linejoin="round"/>
</svg>
