<svg width="40" height="41" viewBox="0 0 40 41" fill="none" xmlns="http://www.w3.org/2000/svg">
<path d="M3.59971 20.7528C3.59971 29.8079 10.9403 37.1484 19.9954 37.1484C25.5188 37.1484 30.4043 34.4172 33.375 30.2315" stroke="black" stroke-width="1.5" stroke-linecap="round"/>
<path d="M36.3925 20.7531C36.3925 11.698 29.0519 4.35742 19.9968 4.35742C14.4734 4.35742 9.58787 7.0887 6.61719 11.2743" stroke="black" stroke-width="1.5" stroke-linecap="round"/>
<path d="M34.2556 33.5614C34.1226 33.5579 33.8673 33.5296 33.612 33.3826C33.1511 33.1171 29.6479 30.9046 29.7401 28.6921C29.8322 26.4799 32.6891 25.4179 34.3487 27.5405L34.3853 27.4966C36.0496 25.4328 38.8675 26.4953 38.9591 28.6921C39.0512 30.9046 35.548 33.1171 35.0871 33.3826C34.7854 33.5563 34.4838 33.5642 34.384 33.5614H34.3151C34.2998 33.5618 34.2798 33.562 34.2558 33.5614L34.2556 33.5614Z" fill="#A2A6DE" stroke="black" stroke-width="1.5" stroke-linejoin="round"/>
<path d="M5.55635 15.1161C5.42342 15.1126 5.16812 15.0843 4.91281 14.9372C4.45186 14.6717 0.94866 12.4592 1.04085 10.2467C1.13302 8.03462 3.98993 6.9726 5.64948 9.09515L5.68605 9.05127C7.35041 6.98745 10.1683 8.05002 10.2598 10.2467C10.352 12.4592 6.84882 14.6717 6.38787 14.9372C6.08622 15.111 5.78456 15.1189 5.68477 15.1161H5.61592C5.60062 15.1165 5.58059 15.1167 5.55655 15.1161L5.55635 15.1161Z" fill="#A2A6DE" stroke="black" stroke-width="1.5" stroke-linejoin="round"/>
<path d="M20.0041 11.8613C16.1703 11.8613 12.9046 14.2884 11.6562 17.6894H16.406C16.9445 14.2884 18.3526 11.8613 20.0041 11.8613Z" stroke="black" stroke-width="1.5" stroke-linecap="round" stroke-linejoin="round"/>
<path d="M16.1709 20.7503C16.1709 19.6746 16.2534 18.644 16.4041 17.6895H11.6543C11.3039 18.644 11.1133 19.6746 11.1133 20.7503C11.1133 21.826 11.3039 22.8566 11.6543 23.8112H16.4041C16.2534 22.8566 16.1709 21.826 16.1709 20.7503Z" stroke="black" stroke-width="1.5" stroke-linecap="round" stroke-linejoin="round"/>
<path d="M23.5981 17.6894H28.3478C27.1008 14.2884 23.8338 11.8613 20 11.8613C21.6528 11.8613 23.0596 14.2884 23.5981 17.6894Z" stroke="black" stroke-width="1.5" stroke-linecap="round" stroke-linejoin="round"/>
<path d="M28.3513 17.6895H23.6016C23.7523 18.644 23.8347 19.6746 23.8347 20.7503C23.8347 21.826 23.7523 22.8566 23.6016 23.8112H28.3513C28.7017 22.8566 28.8924 21.826 28.8924 20.7503C28.8924 19.6746 28.7017 18.644 28.3513 17.6895Z" stroke="black" stroke-width="1.5" stroke-linecap="round" stroke-linejoin="round"/>
<path d="M16.406 23.8105H11.6562C12.9033 27.2115 16.1703 29.6386 20.0041 29.6386C18.3513 29.6386 16.9445 27.2115 16.406 23.8105Z" stroke="black" stroke-width="1.5" stroke-linecap="round" stroke-linejoin="round"/>
<path d="M20 29.6386C23.8338 29.6386 27.1008 27.2115 28.3478 23.8105H23.5981C23.0609 27.2115 21.6528 29.6386 20 29.6386Z" stroke="black" stroke-width="1.5" stroke-linecap="round" stroke-linejoin="round"/>
<path d="M16.1719 20.7503C16.1719 21.826 16.2543 22.8566 16.405 23.8112H23.5999C23.7506 22.8566 23.8331 21.826 23.8331 20.7503C23.8331 19.6746 23.7506 18.644 23.5999 17.6895H16.405C16.2543 18.644 16.1719 19.6746 16.1719 20.7503Z" stroke="black" stroke-width="1.5" stroke-linecap="round" stroke-linejoin="round"/>
<path d="M16.4036 17.6894H23.5985C23.0613 14.2884 21.6532 11.8613 20.0004 11.8613C18.3476 11.8613 16.9408 14.2884 16.4023 17.6894H16.4036Z" stroke="black" stroke-width="1.5" stroke-linecap="round" stroke-linejoin="round"/>
<path d="M23.6011 23.8105H16.4062C16.9434 27.2115 18.3515 29.6386 20.0043 29.6386C21.6571 29.6386 23.0639 27.2115 23.6024 23.8105H23.6011Z" stroke="black" stroke-width="1.5" stroke-linecap="round" stroke-linejoin="round"/>
</svg>
