<svg width="320" height="320" viewBox="0 0 320 320" fill="none" xmlns="http://www.w3.org/2000/svg">
    <mask id="14jf2ygp1a" style="mask-type:alpha" maskUnits="userSpaceOnUse" x="0" y="0" width="320" height="320">
        <path transform="matrix(-1 0 0 1 320 0)" fill="#fff" d="M0 0h320v320H0z"/>
    </mask>
    <g mask="url(#14jf2ygp1a)">
        <path d="M186.592 310.817c83.294-14.687 138.91-94.116 124.223-177.409C296.128 50.114 216.7-5.502 133.406 9.184 50.113 23.871-5.504 103.3 9.183 186.594c14.687 83.293 94.116 138.91 177.409 124.223z" fill="#fff"/>
        <path d="m187.757 316.972-3.917 1.166-3.986.83-4.203-1.175-3.985.703-4.077-.785-3.984 1.113-4.029-1.059-4.082 2.732-4.007-1.364-3.941-1.469-4.005-.299-4.078.219-4.07-.079-3.859-1.386-4.339 1.07-3.826-1.526-3.935-.992-3.535-2.371-3.573-2.041-3.978-.737-3.976-.832-3.361-2.43-4.106-.592-3.205-2.656-4.15-.639-3.754-1.52-3.117-2.7-3.647-1.724-3.838-1.458-2.893-2.952-3.721-1.696-2.862-2.921-3.09-2.575-3.184-2.45-3.252-2.378-2.823-2.877-4.287-1.324-2.35-3.398-3.16-2.579-2.685-3.039-1.957-3.661-1.642-3.859-3.453-2.386-3.77-2.235-2.116-3.488-.655-4.43-2.008-3.48-3.36-2.678-1.608-3.736-2.133-3.44-1.6-3.716-.616-4.153-1.896-3.547-1.81-3.598-2.348-3.422.335-4.384-2.932-3.279-2.086-3.615.79-4.403-.53-4.004-1.088-3.875-.104-4.064-1.344-3.845-.53-3.985-1.09-3.928-1.248-3.955-.506-4.037.957-4.089.87-4.034.068-4.012.506-3.991-1.677-4.148-.425-4.121.653-4.025 2.299-3.76-.354-4.157 2.718-3.572-.368-4.199.505-4.04.548-4.056 2.677-3.41-.32-4.368 3.088-3.184 1.685-3.654 1.522-3.713 1.668-3.65.607-4.178 3.43-2.765-.673-4.959 3.597-2.605 2.138-3.415 1.112-4.096 3.208-2.712 3.192-2.659 2.45-3.17 2.486-3.143 2.813-2.866 1.281-4.235 1.92-3.762 4.223-1.538 1.815-3.937 4.356-1.241 2.599-3.139 3.447-2.15 3.017-2.665 2.694-3.128 3.808-1.608 2.636-3.313 4.378-.64L79.23 21.8l4.104-.962 3.308-2.364 4.176-.652 2.869-3.36 3.329-2.525 4.275-.283 3.653-1.783 4.214-.192 3.736-1.527 3.777-1.452 3.913-1 3.848-1.283 3.867-1.294 4.033-.5 4.241.974 3.94-.794 3.955-.797 3.89-1.949 4.154 1.739 3.974-1.731 4.056-.655 4.073-.073 4.039.756 4.056.169 3.964 1.139 3.815 1.986 4.124-.468 4.07.143 3.983.697 4.225-.287 3.364 3.215 4.412-.784 4.02.772 3.408 2.609 3.945.982 3.451 2.269 3.708 1.57 3.572 1.87 3.589 1.813 3.733 1.535 3.963 1.166 3.141 2.639 4.438.513 3.117 2.678 3.192 2.525 2.321 3.682 4.162 1.19 2.372 3.5 4.218 1.266 3.149 2.578 1.493 4.328 3.995 1.686 3.296 2.461 1.345 4.265 2.514 3.142 2.781 2.918 4.058 1.95 1.104 4.24 1.247 4.04 2.373 3.224 3.801 2.35 1.467 3.836 3.438 2.707 1.943 3.581 1.356 3.87-.124 4.519 3.12 3.028-.234 4.447 2.405 3.381 1.973 3.585-.198 4.295 2.542 3.446 1.577 3.771-.051 4.173.765 3.959.58 3.99-.277 4.111.734 3.941.303 3.996 2.677 3.815-.906 4.111.379 4.025-.498 4.037-.341 4.017 1.127 4.083.179 4.076-1.965 3.879.979 4.183.084 4.122-2.726 3.646-1.546 3.786-.175 4.072-.769 3.955-1.144 3.862-.812 3.965-.68 4.034-.64 4.087-3.137 3.124-.074 4.356-2.069 3.524-3.194 2.944-.309 4.375-1.694 3.705-3.241 2.806-.989 4.137-2.469 3.239-2.928 2.901-3.086 2.74-1.608 3.834-1.377 4.094-3.751 2.153-3.128 2.618-2.516 3.163-3.062 2.643-2.116 3.617-3.078 2.64-2.658 3.122-3.514 2.123-4.171 1.224-3.248 2.35-2.63 3.236-3.926 1.373-3.138 2.543-3.651 1.719-2.888 3.061-3.183 2.637-4.419.205-3.014 3.067-3.365 2.446-4.303.21-3.491 2.217-4.59-.898-3.732 1.473-3.068 3.885-4.452-.944-3.794 1.471-3.958.825-3.934.971-.004-.011zM135.32 19.588l-3.826 1.258-3.831 1.123-4.278-.622-3.776 1.422-4.155.201-3.504 2.215-4.162.374-2.667 4.091-4.133.498-4.15.625-3.569 1.886-3.205 2.53-3.214 2.444-3.79 1.497-2.298 3.767-3.636 1.739-3.206 2.367-3.98 1.422-3.687 1.881-2.664 3.088-2.558 3.159-3.605 2.088-2.039 3.628-3.534 2.24-1.698 3.85-2.248 3.337-3.144 2.652-2.09 3.451-1.633 3.737-2.932 2.884-1.477 3.794-2.587 3.148-2.049 3.47-1.72 3.64-1.435 3.766-1.84 3.588.35 4.43-2.095 3.479-.807 3.931-1.229 3.788-1.952 3.615-2.116 3.636.373 4.19.937 4.214-.89 3.878-2.407 3.736-.554 3.994 1.23 4.096-.594 3.976.224 3.999-.162 4.001-1.019 4.072.613 3.996.727 3.966 1.495 3.84-1.107 4.248 2.497 3.61 1.803 3.676-.885 4.332.67 3.99 1.427 3.771.683 4.027 2.069 3.529 1.492 3.735 2.202 3.416 2.52 3.224 2.031 3.426.935 4.027 1.23 3.928 2.115 3.428 1.934 3.553 3.898 2.167 3.013 2.708 2.314 3.221 1.221 4.173 3.433 2.304 1.295 4.278 3.735 1.965 3.228 2.408 3.329 2.26 2.02 3.785 4.167 1.204 2.072 3.871 3.126 2.55 3.354 2.234 3.383 2.189 4.092.983 2.622 3.532 4.926-.751 2.776 3.385 3.631 1.708 4.185.374 3.308 2.5 3.435 2.337 3.828 1.291 3.878 1.133 3.826 1.341 4.342-.869 4.134-.325 3.587 2.611 4.184-.953 3.729 2.508 4.066-.273 3.978.81 4.033-.076 4.019-.853 4.03.814 3.94-1.469 4.143 1.5 3.797-2.268 4.129.65 3.882-1.16 4.196.517 3.535-2.635 3.627-1.9 4.204.24 3.712-1.532 4.19-.139 3.665-1.686 3.601-1.802 3.695-1.565 3.476-2.021 3.36-2.209 3.631-1.678 4.304-.593 3.303-2.336 3.174-2.509 2.359-3.608 4.406-.791 2.171-3.728 2.667-3.017 2.891-2.725 3.313-2.279 2.768-2.868 3.323-2.347 3.836-1.957 1.829-3.742 2.104-3.454 2.367-3.227 1.359-3.928 4.158-2.01.532-4.411 1.677-3.623 3.182-2.78 1.501-3.727 2.547-3.207 1.689-3.643 1.798-3.602 1.551-3.714 1.054-3.893.432-4.072 1.836-3.628-.775-4.332 1.466-3.729 1.095-3.835 2.32-3.655-.953-4.191 1.733-3.821-1.368-4.136.105-3.97 2.298-3.918-1.555-4.015-.728-3.958 1.714-4.079-.122-4.024-.684-3.967-2.477-3.694 1.009-4.201.557-4.204-1.025-3.913-2.85-3.425-.374-4.044-2.75-3.319-1.296-3.743-.888-3.902.387-4.475-3.106-3.016.01-4.441-2.752-3.118-2.5-3.196-.71-4.229-3.354-2.644-2.648-3.028-1.446-3.86-2.323-3.268-2.35-3.258-1.862-3.69-2.816-2.902-2.651-3.048-4.481-1.21-2.084-3.591-3.127-2.512-2.695-3.015-2.95-2.742-3.969-1.404-3.494-1.963-2.409-3.567-4.158-.923-3.749-1.468-2.457-3.762-3.198-2.574-3.934-1.136-3.743-1.477-3.668-1.633-3.874-1.11-3.975-.761-4.026-.493-3.315-2.848-4.278.53-3.77-1.348-3.595-2.384-4.246.987-3.976-.308-3.795-1.87-4.099.942-3.953-.566-3.966-.922-4.013-.93-3.995 1.12-3.906 1.675-4.087-1.172-4.053-.183-3.941.843-3.889 1.06h.006z" fill="#DDD"/>
        <path d="M131.732 171.296c-.583-.079-1.264.529-1.841.435-.577-.093-1.083-.64-1.655-.748-.571-.109-1.26.29-1.831.164-.571-.125-1.035-.75-1.6-.891-.566-.14-1.206-.039-1.767-.2-.561-.161-1.015-.696-1.57-.875-.555-.179-1.339.279-1.889.081-.55-.197-.948-.834-1.49-1.051-.542-.217-.884-.896-1.416-1.134-.532-.238-1.313.05-1.835-.212-.523-.261-.835-.924-1.347-1.207-.513-.282-1.121-.386-1.621-.688-.495-.302-.887-.736-1.359-1.049-.471-.314-1.288-.166-1.746-.503-.457-.337-.698-.983-1.137-1.343-.438-.361-.736-.888-1.154-1.275-.417-.387-.87-.727-1.265-1.141-.395-.415-1.065-.58-1.435-1.02-.371-.441-.626-.97-.968-1.435-.341-.465-.777-.856-1.09-1.344-.312-.487-.111-1.253-.394-1.76-.283-.506-.735-.879-.991-1.402-.256-.523-.464-1.027-.694-1.563-.229-.536-.708-.937-.912-1.485-.203-.548.233-1.273.05-1.828-.181-.556-.827-.922-.987-1.484-.16-.561-.622-1.013-.764-1.579-.143-.567-.11-1.146-.235-1.716-.124-.57-.218-1.117-.329-1.689-.11-.572-.298-1.104-.395-1.678-.098-.574-.337-1.102-.421-1.679-.084-.577.23-1.181.158-1.758-.072-.576-.197-1.119-.26-1.699-.064-.58-.246-1.118-.3-1.697-.053-.578.197-1.157.15-1.738-.049-.581-.48-1.104-.52-1.685M202.569 94.17c.226.474-.619 1.413-.448 1.932.171.518.292.989.416 1.516.124.526.419.992.509 1.517.091.524-.363 1.128-.297 1.647.068.554.376 1.045.424 1.553.055.576 1.351 1.006 1.392 1.491.054.642-.655 1.257-.595 1.666.222.383.737.733 1.144 1.304.298.418.679.853 1.047 1.367.311.436.07 1.306.417 1.809.309.451.585.941.911 1.446.3.465.702.874 1.007 1.384.286.479.881.792 1.164 1.308.282.517-.059 1.295.202 1.821.26.526 1.531.537 1.766 1.071.235.535-.345 1.377-.135 1.922.209.545.294 1.082.475 1.636.182.553 1.154.841 1.308 1.401.153.561.002 1.185.124 1.755.122.57.071 1.147.162 1.721.092.573.025 1.138.083 1.717.057.58.813 1.094.84 1.675.026.581-.831 1.156-.838 1.739-.007.568 1.032 1.193.992 1.76-.041.568-1.565.979-1.641 1.543-.077.564 1.308 1.364 1.2 1.924-.108.56-.497 1.087-.64 1.64-.143.552-.944.914-1.119 1.458-.176.545-.286 1.091-.495 1.624-.209.533-.672.931-.91 1.451s.031 1.269-.235 1.777-1.043.705-1.337 1.198c-.294.493.205 1.473-.115 1.949-.32.477-1.256.509-1.598.969-.342.461-.81.786-1.175 1.231-.365.445-.988.609-1.371 1.038-.383.429-.145 1.392-.547 1.805-.401.412-1.135.45-1.553.846-.418.395-.563 1.046-.996 1.427-.433.38-.976.589-1.421.955-.445.365-.748.87-1.206 1.218-.458.348-.527 1.206-.996 1.54-.468.335-1.318.096-1.797.417-.478.32-.541 1.261-1.027 1.567-.487.307-1.599-.442-2.094-.148-.495.294-.796.865-1.299 1.147-.503.281-1.261.027-1.769.296-.509.269-.475 1.54-.989 1.799-.515.258-.92.72-1.441.966-.52.246-1.323-.153-1.848.082-.524.235-1.227.006-1.755.231-.528.226-.649 1.401-1.181 1.616-.804.316-.922-.774-1.986-.421-.457.151-.657 1.424-1.294 1.62-.498.155-1.436-.961-2.038-.784-.516.151-.829 1.142-1.419 1.304-.527.146-.951.808-1.536.96-.533.139-1.376-.831-1.956-.688-.541.135-.951.871-1.531 1.006-.546.128-1.008.707-1.585.834s-1.308-.667-1.884-.546c-.576.121-1.061.486-1.636.599-.576.113-1.026.725-1.601.831-.575.105-1.232-.4-1.808-.3-.576.099-1.075.502-1.652.594-.578.092-1.229-.489-1.807-.404-.579.084-.979 1.256-1.557 1.334-.578.079-1.14.17-1.719.241-.55.068-1.157-.309-1.709-.249s-1.098.192-1.651.244c-.553.053-1.117 0-1.669.047-.552.046-1.17-.808-1.723-.769-.554.039-1.077.46-1.63.489-.553.029-1.111-.109-1.663-.087-.553.021-1.085.855-1.638.864-.553.01-1.114.361-1.668.363" stroke="#AAA" stroke-width="6" stroke-linecap="round" stroke-linejoin="round"/>
        <path d="M95.866 129.06c-.256-.519-1.636-.487-1.877-.999-.24-.512.465-1.48.236-1.996-.23-.516-.105-1.194-.326-1.713-.22-.52-1.297-.701-1.506-1.224-.21-.523-1.421-.696-1.62-1.226-.199-.529-.538-1.057-.724-1.59-.185-.533-.328-1.135-.501-1.672-.173-.538.833-1.475.673-2.017-.16-.542.022-1.195-.123-1.739-.145-.545-1.239-.879-1.367-1.428-.128-.55.574-1.308.461-1.86-.113-.552-1.121-.968-1.215-1.524-.095-.555.81-1.292.735-1.851-.075-.559-1.51-.993-1.566-1.553-.056-.561 1.457-1.282 1.422-1.844-.035-.562.527-1.142.515-1.706-.011-.564-1.482-1.13-1.472-1.694.01-.564-.275-1.182-.241-1.746.033-.564.101-1.174.159-1.734.057-.561 1.124-1.02 1.207-1.58.083-.56.115-1.13.224-1.683.11-.555.773-.976.909-1.525.135-.55-1.22-1.521-1.055-2.063.164-.543 1.66-.664 1.849-1.197.189-.533.326-1.069.543-1.591.216-.523-.949-1.68-.707-2.193.241-.513 2.002-.283 2.267-.783.265-.5-.15-1.38.141-1.867.291-.487.391-1.118.704-1.59.313-.474.963-.73 1.298-1.188.335-.458-.37-1.764-.014-2.206.355-.441 2.124.27 2.499-.155.374-.426.69-.893 1.082-1.302.393-.409.853-.74 1.26-1.132.408-.392-.01-1.709.412-2.084s1.064-.558 1.498-.916c.435-.358.725-.971 1.172-1.313.448-.343.751-.978 1.21-1.303.458-.325 1.207-.33 1.676-.635.469-.306 1.642.43 2.118.141.504-.305.144-2.07.626-2.34.518-.292 1.215-.27 1.7-.522.535-.278 1.271-.122 1.757-.355.558-.266 1.115-.442 1.595-.652.602-.262 1.407.205 1.858.03 1.018-.396.419-1.156 1.182-1.548.458-.358 1.016-.448 1.48-.786.463-.337 1.043-.537 1.519-.861.476-.324.485-1.403.972-1.71.486-.306 1.542.275 2.037-.016.495-.29.583-1.346 1.086-1.622.504-.276 1.711.764 2.223.506.513-.258.383-1.873.906-2.116.524-.243 1.48.452 2.008.228.529-.224 1.005-.591 1.542-.801.537-.21.672-1.567 1.215-1.759.542-.191 1.636 1.197 2.183 1.023.547-.175.847-1.188 1.401-1.346.554-.158 1.05-.61 1.609-.752.558-.144 1.446 1.058 2.007.932.561-.126 1.039-.617 1.603-.728.565-.11 1.248.487 1.815.391.566-.096.994-1.036 1.566-1.118.571-.08 1.069-.797 1.641-.863.573-.066 1.196.213 1.768.16.573-.052 1.102-.957 1.676-.996.573-.038 1.238 1.322 1.814 1.299.575-.023 1.12-1.539 1.697-1.549.576-.01 1.183-.033 1.757-.03.575.002 1.175.396 1.748.412.573.016 1.134.926 1.707.954.573.028 1.157.062 1.727.1.571.038 1.132.359 1.703.408.571.05 1.153.064 1.722.124s1.127.29 1.694.361c.567.072 1.123.292 1.686.375.563.082 1.377-1.272 1.938-1.18.561.093 1.21-.067 1.771.036.561.102.895 1.556 1.452 1.667.556.11 1.257-.31 1.81-.189.552.122 1.174.14 1.72.27.579.139 1.189.111 1.732.252.578.15 1.195.125 1.731.275.581.16 1.028.736 1.557.892.587.174 1.098.5 1.615.665.599.189 1.471-.57 1.969-.4.632.214.488 2.366.943 2.534 1.048.385 1.489-1.444 2.289-1.115.8.33-.073 1.733.914 2.207.44.212.801.71 1.384 1.017.467.246 1.063.295 1.602.604.471.27 1.294-.013 1.809.306.469.29.973.567 1.471.898.464.31.309 1.51.789 1.855.481.344 2.021-.821 2.486-.46.466.36.517 1.201.966 1.577.449.376 1.182.403 1.614.795.432.392-.149 1.81.265 2.22.413.41 1.739-.102 2.132.325.394.426.229 1.33.602 1.774.373.444.009 1.412.358 1.873.348.462.711.826 1.036 1.307.325.482.677.859.975 1.355.299.496 1.069.669 1.337 1.184.269.515.753.89.989 1.42.236.53-.362 1.345-.161 1.89.201.544.717.912.882 1.468.164.557 1.023.9 1.151 1.466.127.568-.281 1.21-.192 1.783.09.574.258 1.097.31 1.678.051.58 1.052 1.095 1.065 1.68.014.585.536 1.202.515 1.788-.022.585-.598 1.16-.656 1.742-.057.582-1.398.974-1.487 1.554-.089.58 1.002 1.342.881 1.914-.122.572-.885.976-1.034 1.543" stroke="#AAA" stroke-width="6" stroke-linecap="round" stroke-linejoin="round"/>
        <path d="M122.855 79.858s.248.697.491 1.755c.108.47-.13 1.137.083 1.758.169.493.49.997.745 1.563.218.489.709.879 1.004 1.41.265.475.385 1.065.719 1.564.305.456.815.784 1.183 1.252.34.432.461 1.076.861 1.516.372.408.972.619 1.399 1.028.401.382.645.966 1.098 1.344.426.357.953.617 1.426.967.447.33.778.868 1.27 1.192.466.304 1.209.187 1.717.482.483.28.868.755 1.39 1.024.521.269 1.076.359 1.609.604.534.246.958.624 1.501.847.543.222 1.06.397 1.608.596.549.2 1.018.524 1.575.707.558.183 1.096.299 1.657.461.562.163 1.093.305 1.659.451.567.147 1.171-.026 1.74.102s1.027.619 1.599.731c.572.112 1.182-.152 1.756-.052.574.1 1.071.485 1.646.569M118.526 90.789s-.459.643-1.244 1.441c-.347.355-.8.741-1.252 1.236-.361.396-.821.782-1.231 1.264-.36.42-.67.93-1.055 1.414-.351.439-.487 1.074-.85 1.561-.339.457-.878.788-1.222 1.284-.325.47-.494 1.059-.821 1.564-.327.505-.952.779-1.258 1.292-.306.512-.15 1.254-.437 1.775-.287.521-.832.875-1.097 1.406-.266.531-.539 1.038-.782 1.579-.242.54-.179 1.189-.398 1.737-.22.549-.434 1.074-.628 1.632-.195.557-.429 1.081-.598 1.646-.17.565-.619 1.042-.76 1.615-.141.574-.129 1.173-.24 1.753-.11.58-.072 1.171-.153 1.755-.08.584-.078 1.16-.129 1.748-.05.589-.442 1.146-.459 1.737M181.85 97.06c-.855-.089-.632-.108-1.711-.303-.478-.085-.972-.563-1.614-.705-.512-.113-1.063-.26-1.663-.416-.523-.136-1.064-.312-1.645-.483-.527-.155-1.077-.296-1.643-.485-.527-.175-1.089-.292-1.644-.499-.525-.194-1.014-.502-1.557-.725-.543-.222-1.09-.325-1.623-.567-.533-.242-1.014-.504-1.537-.766-.522-.26-1.018-.502-1.528-.782-.51-.281-.992-.554-1.49-.854-.498-.301-1.067-.449-1.551-.768-.483-.319-.989-.585-1.459-.925-.47-.341-.95-.65-1.403-1.012a39.49 39.49 0 0 1-1.328-1.11c-.436-.381-.605-1.029-1.021-1.432-.417-.403-.939-.674-1.336-1.096-.396-.422-.938-.703-1.311-1.145-.372-.442-.588-1.001-.939-1.463-.351-.461-.573-.994-.9-1.473-.327-.48-.782-.856-1.082-1.352" stroke="#AAA" stroke-width="6" stroke-linecap="round" stroke-linejoin="round"/>
        <path d="M140.877 67.093s-7.502 4.644-5.867 10.816c1.255 4.737 4.013 6.397 12.745 9.113 8.731 2.715 22.122-7.425 27.85-18.565-6.843-4.565-19.156-13.409-34.728-1.362v-.002z" fill="#DDD"/>
        <path d="M138.17 82.931c.667.56.767.086 1.679.678.417.27.965.475 1.542.793.469.259.934.604 1.5.866.501.23.87.881 1.438 1.095.525.196 1.133.277 1.711.442.543.156 1.17.071 1.753.19.584.12 1.13.184 1.72.254.59.07 1.144-.022 1.737-.005.592.016 1.151.271 1.741.233.591-.038 1.09-.496 1.677-.59.586-.094 1.126-.1 1.702-.246.575-.146 1.23.102 1.791-.095.561-.196 1.139-.304 1.681-.55.543-.246.705-1.143 1.228-1.433.494-.274 1.13-.31 1.629-.637.472-.31.865-.742 1.34-1.103.449-.342 1.126-.425 1.578-.815.429-.37.626-1.012 1.054-1.427.407-.394.675-.924 1.08-1.36.406-.437.803-.8 1.187-1.254.385-.454 1.105-.576 1.471-1.046.366-.47.294-1.21.643-1.693.348-.483.614-.956.945-1.45.331-.493 1.165-.613 1.48-1.116.316-.502.647-.96.945-1.474.298-.513.423-1.088.71-1.61.287-.52.166-1.003.439-1.529-.197-.84-.35-.268-1.252-.878-.406-.274-.93-.502-1.493-.838-.454-.272-.815-.788-1.362-1.08-.48-.255-.946-.614-1.493-.871-.5-.234-1.028-.47-1.581-.697-.518-.212-1.068-.388-1.628-.582-.53-.186-1.095-.309-1.66-.47-.566-.163-1.079-.383-1.651-.514-.571-.132-1.15-.049-1.728-.146-.577-.098-1.109-.289-1.69-.349-.58-.06-1.134-.165-1.717-.187-.584-.022-1.134.39-1.719.405-.585.015-1.119.031-1.7.085-.58.053-1.164-.205-1.741-.111-.577.094-1.129.174-1.697.305-.569.132-1.169.072-1.729.24-.56.17-1.125.285-1.673.489-.548.204-1.109.352-1.645.59-.536.24-.83.92-1.35 1.191-.52.272-1.129.315-1.635.615-.505.3-.977.602-1.464.93-.487.327-.694.983-1.165 1.335-.47.353-.822.772-1.276 1.145-.453.372-1.154.395-1.59.788-.437.393-.966.646-1.384 1.058-.417.411-.623.99-1.027 1.417" stroke="#AAA" stroke-width="6" stroke-linecap="round" stroke-linejoin="round"/>
        <path d="M156.54 73.526c.013.049-.674.261-1.665.731-.454.215-.906.665-1.529.918-.505.204-1.008.57-1.606.779-.53.185-1.181.11-1.775.287-.547.165-1.129.264-1.72.411-.559.14-1.119.33-1.712.444-.593.115-1.132.344-1.726.428-.595.083-1.174.119-1.769.165a26.79 26.79 0 0 1-1.774.071c-.594.007-1.188.096-1.782.06-.594-.035-1.151-.353-1.74-.435-.588-.081-1.193-.012-1.772-.142-.58-.13-1.151-.281-1.717-.467-.565-.185-1.151-.316-1.697-.555-.546-.24-1.09-.484-1.611-.78-.521-.297-.997-.648-1.486-.998M174.572 136.901s-.482.532-1.166 1.404c-.313.399-.515 1.003-.979 1.493-.375.396-.852.757-1.331 1.177-.42.371-.978.606-1.479.976-.458.336-.877.75-1.405 1.069-.49.296-.842.904-1.394 1.172-.518.249-1.214.143-1.786.357-.539.201-1.014.671-1.603.832-.555.15-1.176.137-1.776.243-.601.105-1.18.096-1.744.145-.6.051-1.175.02-1.742.016-.602-.005-1.191.113-1.751.055-.601-.062-1.197-.078-1.748-.188-.595-.119-1.065-.618-1.599-.78-.588-.177-1.28.039-1.791-.17a18.083 18.083 0 0 1-1.593-.76c-.587-.306-1.169-.52-1.586-.792-.912-.597-.649-.635-1.294-1.226M142.487 128.2c-.302.481-.643.957-1.09 1.356-.422.377-.878.769-1.406 1.052-.5.266-1.064.476-1.641.639a8.872 8.872 0 0 1-1.731.311c-.627.046-1.241-.074-1.83-.156a8.003 8.003 0 0 1-1.756-.471 7.08 7.08 0 0 1-1.604-.848 5.927 5.927 0 0 1-1.308-1.251M183.351 119.822c-.201.531-.409 1.078-.772 1.556-.342.45-.786.833-1.251 1.21-.438.358-.954.611-1.488.881a8.552 8.552 0 0 1-1.609.616c-.606.167-1.176.488-1.767.522-.628.037-1.251-.086-1.837-.185-.62-.106-1.193-.335-1.732-.579a5.927 5.927 0 0 1-1.536-.973" stroke="#AAA" stroke-width="6" stroke-linecap="round" stroke-linejoin="round"/>
        <g filter="url(#629ocvc0ub)">
            <ellipse cx="9.846" cy="5.806" rx="9.846" ry="5.806" transform="rotate(-10 850.54 -598.04) skewX(.036)" fill="#DDD"/>
        </g>
        <g filter="url(#dup47mjv4c)">
            <ellipse cx="9.846" cy="5.806" rx="9.846" ry="5.806" transform="rotate(-10 818.542 -963.81) skewX(.036)" fill="#DDD"/>
        </g>
        <path d="m110.877 211.208 7.594 43.07-31.16 5.494-7.594-43.07 31.16-5.494zM95.891 250.12l11.494-2.027-4.835-27.421-11.494 2.027 4.835 27.421zm34.439 17.56-11.233-63.705 10.041-1.771 11.233 63.705-10.041 1.771zm43.339-67.116 1.367 7.755-12.291 2.168c1.378 5.79 6.491 11.1 17.059 11.914l-3.146 8.479c-7.478-.502-13.031-3.449-16.753-7.755-1.83 5.82-5.979 10.836-13.046 14.081l-6.064-6.856c9.674-4.455 12.769-11.604 11.945-18.099l-12.257 2.161-1.367-7.755 12.256-2.161-1.099-6.232 10.041-1.771 1.099 6.232 12.256-2.161zm-17.604 61.721-4.091-23.197 41.962-7.399 4.091 23.197-41.962 7.399zm8.428-9.697 22.297-3.931-1.307-7.409-22.296 3.931 1.306 7.409zm19.02-21.703-6.544-37.114 9.971-1.759 2.564 14.542 8.24-1.453 1.429 8.101-8.24 1.453 2.552 14.472-9.972 1.758zm31.808-39.379c5.638-1.03 10.918 1.181 14.795 5.959l13.052-2.302-2.234-12.671 9.833-1.734L262 244.463l-9.833 1.734-4.151-23.544-12.326 2.174c-1.734 6.767-6.194 11.23-12.323 12.311-9.728 1.715-18.273-5.845-20.729-19.977-2.489-13.912 2.948-23.974 12.683-25.655zm-3.127 23.97c1.595 9.25 5.315 13.342 9.574 12.591 4.328-.763 6.32-5.862 4.69-15.106-1.599-9.071-5.228-13.251-9.549-12.453-4.265.716-6.349 5.903-4.715 14.968zm22.108-10.467c.694 1.912 1.246 4.028 1.643 6.279.323 1.835.525 3.584.569 5.254l10.11-1.782-2.039-11.564-10.283 1.813z" fill="#AAA"/>
    </g>
    <defs>
        <filter id="629ocvc0ub" x="114.3" y="133.22" width="26.355" height="18.795" filterUnits="userSpaceOnUse" color-interpolation-filters="sRGB">
            <feFlood flood-opacity="0" result="BackgroundImageFix"/>
            <feBlend in="SourceGraphic" in2="BackgroundImageFix" result="shape"/>
            <feGaussianBlur stdDeviation="1.714" result="effect1_foregroundBlur_492_144196"/>
        </filter>
        <filter id="dup47mjv4c" x="177.329" y="122.107" width="26.355" height="18.795" filterUnits="userSpaceOnUse" color-interpolation-filters="sRGB">
            <feFlood flood-opacity="0" result="BackgroundImageFix"/>
            <feBlend in="SourceGraphic" in2="BackgroundImageFix" result="shape"/>
            <feGaussianBlur stdDeviation="1.714" result="effect1_foregroundBlur_492_144196"/>
        </filter>
    </defs>
</svg>
