<svg width="1120" height="1036" viewBox="0 0 1120 1036" fill="none" xmlns="http://www.w3.org/2000/svg">
    <path d="M0 44h1120v944c0 26.51-21.49 48-48 48H48c-26.51 0-48-21.49-48-48V44zM0 44C0 19.7 19.7 0 44 0h4v44H0zM67.96 29.997c0-5.522 3.242-10.293 7.939-12.564V0H48v44h34.133c-7.838 0-14.189-6.274-14.189-14.019l.017.016z" fill="#fff"/>
    <path d="M88.384 0v17.417c4.697 2.287 7.938 7.042 7.938 12.564 0 7.745-6.35 14.019-14.19 14.019h34.134V0H88.368h.016zM136.227 29.997c0-5.522 3.242-10.293 7.938-12.564V0h-27.898v44H150.4c-7.839 0-14.189-6.274-14.189-14.019l.016.016z" fill="#fff"/>
    <path d="M156.651 0v17.417c4.696 2.287 7.938 7.042 7.938 12.564 0 7.745-6.351 14.019-14.19 14.019h34.134V0h-27.899.017z" fill="#fff"/>
    <path d="M204.494 29.997c0-5.522 3.241-10.293 7.938-12.564V0h-27.899v44h34.134c-7.839 0-14.19-6.274-14.19-14.019l.017.016z" fill="#fff"/>
    <path d="M224.917 0v17.417c4.697 2.287 7.938 7.042 7.938 12.564 0 7.745-6.35 14.019-14.189 14.019h34.133V0h-27.898.016zM272.761 29.997c0-5.522 3.241-10.293 7.938-12.564V0H252.8v44h34.133c-7.839 0-14.189-6.274-14.189-14.019l.017.016zM293.184 0v17.417c4.696 2.287 7.938 7.042 7.938 12.564 0 7.745-6.351 14.019-14.189 14.019h34.133V0h-27.899.017zM341.027 29.997c0-5.522 3.242-10.293 7.938-12.564V0h-27.899v44H355.2c-7.839 0-14.189-6.274-14.189-14.019l.016.016z" fill="#fff"/>
    <path d="M361.45 0v17.417c4.697 2.287 7.938 7.042 7.938 12.564 0 7.745-6.35 14.019-14.189 14.019h34.134V0h-27.899.016zM409.294 29.997c0-5.522 3.241-10.293 7.938-12.564V0h-27.899v44h34.133c-7.838 0-14.189-6.274-14.189-14.019l.017.016zM429.717 0v17.417c4.697 2.287 7.938 7.042 7.938 12.564 0 7.745-6.35 14.019-14.189 14.019h34.133V0H429.7h.017zM477.56 29.997c0-5.522 3.242-10.293 7.938-12.564V0H457.6v44h34.133c-7.839 0-14.189-6.274-14.189-14.019l.016.016z" fill="#fff"/>
    <path d="M497.984 0v17.417c4.696 2.287 7.938 7.042 7.938 12.564 0 7.745-6.351 14.019-14.19 14.019h34.134V0h-27.899.017zM545.827 29.997c0-5.522 3.241-10.293 7.938-12.564V0h-27.899v44H560c-7.839 0-14.19-6.274-14.19-14.019l.017.016z" fill="#fff"/>
    <path d="M566.25 0v17.417c4.697 2.287 7.938 7.042 7.938 12.564 0 7.745-6.35 14.019-14.189 14.019h34.133V0h-27.898.016zM614.095 29.997c0-5.522 3.241-10.293 7.938-12.564V0h-27.899v44h34.133c-7.839 0-14.189-6.274-14.189-14.019l.017.016zM634.518 0v17.417c4.696 2.287 7.938 7.042 7.938 12.564 0 7.745-6.351 14.019-14.189 14.019H662.4V0h-27.899.017zM682.361 29.997c0-5.522 3.242-10.293 7.938-12.564V0H662.4v44h34.134c-7.839 0-14.189-6.274-14.189-14.019l.016.016z" fill="#fff"/>
    <path d="M702.784 0v17.417c4.697 2.287 7.938 7.042 7.938 12.564 0 7.745-6.35 14.019-14.189 14.019h34.134V0h-27.899.016z" fill="#fff"/>
    <path d="M750.627 29.997c0-5.522 3.242-10.293 7.938-12.564V0h-27.898v44H764.8c-7.839 0-14.189-6.274-14.189-14.019l.016.016zM771.051 0v17.417c4.697 2.287 7.938 7.042 7.938 12.564 0 7.745-6.35 14.019-14.189 14.019h34.133V0h-27.899.017zM818.894 29.997c0-5.522 3.242-10.293 7.938-12.564V0h-27.898v44h34.133c-7.839 0-14.189-6.274-14.189-14.019l.016.016z" fill="#fff"/>
    <path d="M839.318 0v17.417c4.696 2.287 7.938 7.042 7.938 12.564 0 7.745-6.351 14.019-14.19 14.019H867.2V0h-27.899.017zM887.161 29.997c0-5.522 3.241-10.293 7.938-12.564V0H867.2v44h34.134c-7.839 0-14.19-6.274-14.19-14.019l.017.016z" fill="#fff"/>
    <path d="M907.584 0v17.417c4.697 2.287 7.938 7.042 7.938 12.564 0 7.745-6.35 14.019-14.189 14.019h34.133V0h-27.898.016zM955.428 29.997c0-5.522 3.241-10.293 7.938-12.564V0h-27.899v44H969.6c-7.839 0-14.189-6.274-14.189-14.019l.017.016zM975.851 0v17.417c4.696 2.287 7.938 7.042 7.938 12.564 0 7.745-6.351 14.019-14.189 14.019h34.13V0h-27.896.017zM1023.69 29.997c0-5.522 3.25-10.293 7.94-12.564V0h-27.9v44h34.14c-7.84 0-14.19-6.274-14.19-14.019l.01.016z" fill="#fff"/>
    <path d="M1044.12 0v17.417c4.69 2.287 7.94 7.042 7.94 12.564 0 7.745-6.36 14.019-14.19 14.019H1072V0h-27.9.02zM1072 0h4c24.3 0 44 19.7 44 44h-48V0z" fill="#fff"/>
</svg>
