<svg width="61" height="60" viewBox="0 0 61 60" fill="none" xmlns="http://www.w3.org/2000/svg">
<circle cx="30.5" cy="30" r="30" fill="#EFE6F1"/>
<path d="M26.7617 17.1237C27.9528 16.7874 29.2095 16.6074 30.5082 16.6074C31.8069 16.6074 33.0636 16.7874 34.2547 17.1237" stroke="black" stroke-width="1.5" stroke-linecap="round"/>
<path d="M34.2539 43.6752C33.0628 44.0115 31.8061 44.1914 30.5074 44.1914C29.2087 44.1914 27.952 44.0115 26.7609 43.6752" stroke="black" stroke-width="1.5" stroke-linecap="round"/>
<path d="M43.7494 26.5742C44.0857 27.7653 44.2656 29.022 44.2656 30.3207C44.2656 31.6194 44.0857 32.8761 43.7494 34.0672" stroke="black" stroke-width="1.5" stroke-linecap="round"/>
<path d="M17.2662 26.5742C16.9299 27.7653 16.75 29.022 16.75 30.3207C16.75 31.6194 16.9299 32.8761 17.2662 34.0672" stroke="black" stroke-width="1.5" stroke-linecap="round"/>
<path d="M20.9968 20.3359C19.0859 20.3359 17.4753 21.5756 16.9773 23.2677C16.8583 23.6722 17.1298 24.0841 17.5554 24.1698C18.6019 24.3803 19.7674 24.4983 20.996 24.4983C22.2245 24.4983 23.3901 24.3811 24.4365 24.1698C24.8621 24.0841 25.1337 23.6722 25.0146 23.2677C24.5182 21.5756 22.9077 20.3359 20.9968 20.3359Z" fill="white" stroke="black" stroke-width="1.5" stroke-linecap="round" stroke-linejoin="round"/>
<path d="M21.0821 20.3358C22.2968 20.3358 23.2815 19.3652 23.2815 18.1679C23.2815 16.9706 22.2968 16 21.0821 16C19.8675 16 18.8828 16.9706 18.8828 18.1679C18.8828 19.3652 19.8675 20.3358 21.0821 20.3358Z" fill="white" stroke="black" stroke-width="1.5" stroke-linecap="round" stroke-linejoin="round"/>
<path d="M20.9968 38.3438C19.0859 38.3438 17.4753 39.5834 16.9773 41.2755C16.8583 41.68 17.1298 42.0919 17.5554 42.1776C18.6019 42.3881 19.7674 42.5061 20.996 42.5061C22.2245 42.5061 23.3901 42.3889 24.4365 42.1776C24.8621 42.0919 25.1337 41.68 25.0146 41.2755C24.5182 39.5834 22.9077 38.3438 20.9968 38.3438Z" fill="white" stroke="black" stroke-width="1.5" stroke-linecap="round" stroke-linejoin="round"/>
<path d="M21.0821 38.3436C22.2968 38.3436 23.2815 37.373 23.2815 36.1757C23.2815 34.9784 22.2968 34.0078 21.0821 34.0078C19.8675 34.0078 18.8828 34.9784 18.8828 36.1757C18.8828 37.373 19.8675 38.3436 21.0821 38.3436Z" fill="white" stroke="black" stroke-width="1.5" stroke-linecap="round" stroke-linejoin="round"/>
<path d="M40.0163 20.3359C38.1054 20.3359 36.4948 21.5756 35.9969 23.2677C35.8778 23.6722 36.1494 24.0841 36.575 24.1698C37.6214 24.3803 38.787 24.4983 40.0155 24.4983C41.2441 24.4983 42.4096 24.3811 43.4561 24.1698C43.8817 24.0841 44.1532 23.6722 44.0342 23.2677C43.5378 21.5756 41.9272 20.3359 40.0163 20.3359Z" fill="white" stroke="black" stroke-width="1.5" stroke-linecap="round" stroke-linejoin="round"/>
<path d="M40.1056 20.3358C41.3202 20.3358 42.3049 19.3652 42.3049 18.1679C42.3049 16.9706 41.3202 16 40.1056 16C38.8909 16 37.9062 16.9706 37.9062 18.1679C37.9062 19.3652 38.8909 20.3358 40.1056 20.3358Z" fill="white" stroke="black" stroke-width="1.5" stroke-linecap="round" stroke-linejoin="round"/>
<path d="M40.0163 38.3438C38.1054 38.3438 36.4948 39.5834 35.9969 41.2755C35.8778 41.68 36.1494 42.0919 36.575 42.1776C37.6214 42.3881 38.787 42.5061 40.0155 42.5061C41.2441 42.5061 42.4096 42.3889 43.4561 42.1776C43.8817 42.0919 44.1532 41.68 44.0342 41.2755C43.5378 39.5834 41.9272 38.3438 40.0163 38.3438Z" fill="white" stroke="black" stroke-width="1.5" stroke-linecap="round" stroke-linejoin="round"/>
<path d="M40.1056 38.3436C41.3202 38.3436 42.3049 37.373 42.3049 36.1757C42.3049 34.9784 41.3202 34.0078 40.1056 34.0078C38.8909 34.0078 37.9062 34.9784 37.9062 36.1757C37.9062 37.373 38.8909 38.3436 40.1056 38.3436Z" fill="white" stroke="black" stroke-width="1.5" stroke-linecap="round" stroke-linejoin="round"/>
<path d="M26.2729 31.2819L26.2738 31.2825C27.416 32.008 28.7863 32.1183 29.9266 31.651C30.2188 31.5313 30.4047 31.2414 30.3916 30.9259C30.3406 29.6966 29.6637 28.5049 28.5217 27.7771L28.5208 27.7765C27.3786 27.051 26.0083 26.9407 24.8679 27.408C24.5758 27.5278 24.3899 27.8176 24.403 28.1331C24.454 29.3624 25.1309 30.5541 26.2729 31.2819Z" fill="#C09CC8" stroke="black" stroke-width="1.5" stroke-linecap="round" stroke-linejoin="round"/>
<path d="M34.8137 31.2825L34.8147 31.2819C35.9567 30.5541 36.6335 29.3624 36.6846 28.1331C36.6976 27.8176 36.5118 27.5278 36.2196 27.408C35.0793 26.9407 33.709 27.051 32.5668 27.7765L32.5658 27.7771C31.4238 28.5049 30.747 29.6966 30.696 30.9259C30.6829 31.2414 30.8688 31.5313 31.1609 31.651C32.3012 32.1183 33.6716 32.008 34.8137 31.2825Z" fill="#C09CC8" stroke="black" stroke-width="1.5" stroke-linecap="round" stroke-linejoin="round"/>
<path d="M30.5469 30.5742V35.3737" stroke="black" stroke-width="1.5" stroke-linecap="round" stroke-linejoin="round"/>
</svg>
