<svg width="60" height="60" viewBox="0 0 60 60" fill="none" xmlns="http://www.w3.org/2000/svg">
<circle cx="30" cy="30" r="30" fill="#FFE9DC"/>
<path d="M37.5188 34.2397C39.4129 32.3326 40.5833 29.7048 40.5833 26.8023C40.5846 20.9747 35.8643 16.25 30.0423 16.25C24.2203 16.25 19.5 20.9747 19.5 26.8023C19.5 29.7036 20.6704 32.3313 22.5645 34.2397C22.5645 34.2397 22.5657 34.241 22.567 34.2422C22.7042 34.3796 22.8452 34.5132 22.9887 34.6444C24.2452 36.0919 24.808 39.1093 24.808 39.1093H35.2766C35.2766 39.1093 35.8394 36.0919 37.0959 34.6444C37.2406 34.5145 37.3816 34.3808 37.5176 34.2422C37.5176 34.2422 37.5188 34.241 37.5201 34.2397H37.5188Z" fill="white" stroke="black" stroke-width="1.5" stroke-linejoin="round"/>
<path d="M24.7695 39.1289H35.1857V41.2507C35.1857 42.6314 34.0664 43.7507 32.6857 43.7507H27.2695C25.8888 43.7507 24.7695 42.6314 24.7695 41.2507V39.1289Z" fill="white" stroke="black" stroke-width="1.5" stroke-linejoin="round"/>
<path d="M30.1954 31.3433C30.1954 31.3433 29.7914 24.0671 37.0638 25.0551C37.0638 25.0551 38.3502 32.6961 30.1954 31.3433Z" fill="#EB9880" stroke="black" stroke-width="1.5" stroke-linejoin="round"/>
<path d="M30.4453 31.2548L33.7279 28.2598" stroke="black" stroke-width="1.5" stroke-linecap="round"/>
<path d="M30.2733 31.3433C30.2733 31.3433 30.6774 24.0671 23.4049 25.0551C23.4049 25.0551 22.1186 32.6961 30.2733 31.3433Z" fill="#EB9880" stroke="black" stroke-width="1.5" stroke-linejoin="round"/>
<path d="M30.0234 31.2548L26.7409 28.2598" stroke="black" stroke-width="1.5" stroke-linecap="round"/>
<path d="M30.168 31.498L30.168 39.1218" stroke="black" stroke-width="1.5" stroke-linecap="round"/>
</svg>
