<svg width="60" height="60" viewBox="0 0 60 60" fill="none" xmlns="http://www.w3.org/2000/svg">
<circle cx="30" cy="30" r="30" fill="#EEDDD7"/>
<path d="M20.553 20.1198L25.1136 27.3997L20.9439 29.6097L19.25 32.8597L19.6409 37.2797L21.2045 37.7997L27.0682 34.4197L29.6742 32.8597L30.4561 34.4197L32.2803 37.4097L36.8409 38.3197L39.9682 37.7997V36.3697L36.1894 30.2597L36.45 27.7897L39.447 24.7997L40.2288 23.2397L40.75 21.4198C40.6197 20.5964 40.333 18.9238 40.2288 18.8198C40.1245 18.7158 39.6641 18.0831 39.447 17.7798L38.0136 18.0398L33.8439 20.7698L30.4561 22.4598L28.7621 19.4698L27.7197 18.0398L24.9833 17.2598L21.2045 17.3898L20.553 17.7798L20.1621 18.5598L20.553 20.1198Z" fill="white"/>
<path d="M32.75 28.4359C32.75 28.4359 42.9311 28.0553 40.3258 18.5662C40.3258 18.5662 40.0441 16.931 37.9797 18.0636C36.3796 18.9411 32.7692 21.3837 32.7692 21.3837" stroke="black" stroke-width="1.5" stroke-miterlimit="10" stroke-linecap="round" stroke-linejoin="round"/>
<path d="M27.3852 26.9785C27.3852 26.9785 17.2041 27.3591 19.8093 36.8483C19.8093 36.8483 20.0911 38.4834 22.1555 37.3508C23.7556 36.4733 27.366 34.0308 27.366 34.0308" stroke="black" stroke-width="1.5" stroke-miterlimit="10" stroke-linecap="round" stroke-linejoin="round"/>
<path d="M29.3398 30.3965C29.3398 30.3965 29.7196 40.5994 39.1886 37.9885C39.1886 37.9885 40.8202 37.7062 39.69 35.6374C38.8144 34.0338 36.3771 30.4157 36.3771 30.4157" stroke="black" stroke-width="1.5" stroke-miterlimit="10" stroke-linecap="round" stroke-linejoin="round"/>
<path d="M30.7958 25.0198C30.7958 25.0198 30.416 14.8158 20.9471 17.4277C20.9471 17.4277 19.3154 17.7101 20.4456 19.7789C21.3212 21.3824 23.7586 25.0006 23.7586 25.0006" stroke="black" stroke-width="1.5" stroke-miterlimit="10" stroke-linecap="round" stroke-linejoin="round"/>
<path d="M30.0686 30.3948C31.5498 30.3948 32.7505 29.1915 32.7505 27.7072C32.7505 26.2228 31.5498 25.0195 30.0686 25.0195C28.5875 25.0195 27.3867 26.2228 27.3867 27.7072C27.3867 29.1915 28.5875 30.3948 30.0686 30.3948Z" fill="#D5A99B" stroke="black" stroke-width="1.5" stroke-miterlimit="10" stroke-linecap="round" stroke-linejoin="round"/>
<path d="M30.0664 34.1953V42.999" stroke="black" stroke-width="1.5" stroke-miterlimit="10" stroke-linecap="round" stroke-linejoin="round"/>
</svg>
