<svg width="60" height="60" viewBox="0 0 60 60" fill="none" xmlns="http://www.w3.org/2000/svg">
<circle cx="30" cy="30" r="30" fill="#E2F0D6"/>
<path d="M34.5 21.1528C34.5 20.9994 34.6244 20.875 34.7778 20.875H41.4191C43.9484 20.875 46 23.1395 46 25.9312V31.3188C46 34.1105 43.9484 36.375 41.4191 36.375H34.7778C34.6244 36.375 34.5 36.2506 34.5 36.0972V21.1528Z" fill="white" stroke="black" stroke-width="1.5" stroke-linecap="round" stroke-linejoin="round"/>
<path d="M42.5 26.1716V31.0784C42.5 31.9298 41.8959 32.625 41.1561 32.625H38.2778C38.1244 32.625 38 32.5006 38 32.3472V24.9028C38 24.7494 38.1244 24.625 38.2778 24.625H41.1561C41.9003 24.625 42.5 25.3202 42.5 26.1716Z" fill="white" stroke="black" stroke-width="1.5" stroke-linecap="round" stroke-linejoin="round"/>
<path d="M16.0556 22.3456C16.1633 22.2524 16.3239 22.2557 16.4276 22.3531L26.1611 31.4961C26.2811 31.6089 26.2772 31.8008 26.1527 31.9086L22.6913 34.905C22.5664 35.0132 22.3753 34.989 22.2812 34.8532L14.6732 23.8703C14.5925 23.7537 14.6125 23.595 14.7198 23.5022L16.0556 22.3456Z" fill="white" stroke="black" stroke-width="1.5" stroke-linecap="round" stroke-linejoin="round"/>
<path d="M41.2724 40.0068C41.3934 40.9999 40.6184 41.875 39.618 41.875H20.382C19.3816 41.875 18.6066 40.9999 18.7276 40.0068L20.8795 22.3401C20.9814 21.5038 21.6914 20.875 22.534 20.875H37.466C38.3086 20.875 39.0186 21.5038 39.1205 22.3401L41.2724 40.0068Z" fill="white" stroke="black" stroke-width="1.5" stroke-linecap="round" stroke-linejoin="round"/>
<path d="M29.8675 37.1244C29.6801 37.1192 29.3203 37.0768 28.9604 36.8564C28.3106 36.4585 23.3726 33.1428 23.5025 29.827C23.6324 26.5118 27.6595 24.9202 29.9988 28.1011L30.0503 28.0354C32.3964 24.9424 36.3685 26.5349 36.4975 29.827C36.6274 33.1428 31.6894 36.4585 31.0396 36.8564C30.6144 37.1168 30.1892 37.1287 30.0485 37.1244H29.9515C29.9299 37.1251 29.9017 37.1253 29.8678 37.1244L29.8675 37.1244Z" fill="#9ECC74" stroke="black" stroke-width="1.5" stroke-linejoin="round"/>
<path d="M10.4949 22.5064C10.3058 22.6574 10.3868 22.9612 10.626 22.998L14.2973 23.5631C14.3779 23.5755 14.4598 23.5519 14.5214 23.4986L16.0421 22.182C16.1031 22.1292 16.1381 22.0526 16.1381 21.972V18.5773C16.1381 18.3445 15.8689 18.215 15.687 18.3602L10.4949 22.5064Z" fill="white" stroke="black" stroke-width="1.5" stroke-linecap="round" stroke-linejoin="round"/>
</svg>
