<svg width="60" height="60" viewBox="0 0 60 60" fill="none" xmlns="http://www.w3.org/2000/svg">
<circle cx="30" cy="30" r="30" fill="#FEEAC5"/>
<path d="M20.2485 34.1012L19.7631 38.3227L19.1562 40.8557L20.0058 42.4236L22.3117 43.7504L24.6176 43.2679L33.2343 43.7504L39.1811 43.2679L40.152 42.5443L40.6375 40.8557V38.3227L40.152 37.3578L39.7879 32.7745L38.6957 28.1911L37.8461 26.8644L36.3898 25.417L34.3266 25.1758H28.8653H25.2244L22.3117 26.1407L21.2194 28.1911L20.2485 34.1012Z" fill="white"/>
<path d="M23.4848 35.4805L23.0509 37.749H22.0042C20.9195 37.749 18.75 38.3265 18.75 40.6363C18.75 41.5987 19.4008 43.5235 22.0042 43.5235H29.9228H30.0772H37.9958C40.5992 43.5235 41.25 41.5987 41.25 40.6363C41.25 38.3265 39.0805 37.749 37.9958 37.749H36.9491L36.5152 35.4805" stroke="black" stroke-width="1.5" stroke-linecap="round" stroke-linejoin="round"/>
<path d="M24.4141 39.7031C25.5423 39.9094 27.6913 40.4176 30.0547 41.2189M34.8276 43.2091C33.3005 42.4173 31.6299 41.753 30.0547 41.2189M35.2614 39.7031C34.0321 39.8887 31.2696 40.4517 30.0547 41.2189" stroke="black" stroke-width="1.5" stroke-linecap="round" stroke-linejoin="round"/>
<path d="M29.9892 36.4183C29.8668 36.4148 29.6316 36.3871 29.3964 36.2429C28.9718 35.9824 25.7449 33.8123 25.8298 31.6421C25.9147 29.4723 28.5463 28.4306 30.075 30.5126L30.1087 30.4695C31.6419 28.4452 34.2376 29.4874 34.3219 31.6421C34.4068 33.8123 31.1798 35.9824 30.7552 36.2429C30.4773 36.4133 30.1995 36.4211 30.1075 36.4183H30.0441C30.03 36.4187 30.0116 36.4189 29.9894 36.4183L29.9892 36.4183Z" fill="#FBAD18" stroke="black" stroke-width="1.5" stroke-linejoin="round"/>
<path d="M19.6953 38.1569L20.9017 29.1667C21.162 26.8831 23.0053 25.1621 25.1956 25.1621H30.0041H30.0785H34.887C37.0774 25.1621 38.9206 26.8831 39.1809 29.1667L40.3873 38.1569" stroke="black" stroke-width="1.5" stroke-linecap="round" stroke-linejoin="round"/>
<path d="M29.8431 25.1621C32.3193 25.1621 34.3267 23.167 34.3267 20.706C34.3267 18.245 32.3193 16.25 29.8431 16.25C27.3668 16.25 25.3594 18.245 25.3594 20.706C25.3594 23.167 27.3668 25.1621 29.8431 25.1621Z" fill="white" stroke="black" stroke-width="1.5" stroke-miterlimit="10"/>
</svg>
