<svg width="60" height="61" viewBox="0 0 60 61" fill="none" xmlns="http://www.w3.org/2000/svg">
<circle cx="30" cy="30.5" r="29.875" fill="#FCE5E5" stroke="#FDE9EC" stroke-width="0.25"/>
<rect x="13.75" y="24.1875" width="32.5" height="18.062" rx="1.54839" fill="white" stroke="black" stroke-width="1.5"/>
<mask id="mask0_1402_4934" style="mask-type:alpha" maskUnits="userSpaceOnUse" x="17" y="18" width="26" height="20">
<path d="M17.9297 34.3981V20.781C17.9297 20.1033 18.3696 19.498 19.0277 19.3359C23.385 18.263 27.4726 18.8807 29.4717 19.4719C29.813 19.5728 30.1749 19.5742 30.5162 19.4733C33.9706 18.4528 38.312 18.8778 40.8888 19.3803C41.5813 19.5154 42.0562 20.1344 42.0562 20.84V34.4161C42.0562 35.4428 41.0733 36.1841 40.065 35.9903C35.8103 35.1726 32.3218 35.7088 30.5776 36.2541C30.1965 36.3732 29.7873 36.3761 29.4077 36.2525C26.3176 35.2458 22.5344 35.5253 19.9393 35.9993C18.924 36.1848 17.9297 35.4302 17.9297 34.3981Z" fill="#F38D7C" stroke="#222222" stroke-width="1.5" stroke-linejoin="round"/>
</mask>
<g mask="url(#mask0_1402_4934)">
<path d="M17.9297 34.3981V20.781C17.9297 20.1033 18.3696 19.498 19.0277 19.3359C23.385 18.263 27.4726 18.8807 29.4717 19.4719C29.813 19.5728 30.1749 19.5742 30.5162 19.4733C33.9706 18.4528 38.312 18.8778 40.8888 19.3803C41.5813 19.5154 42.0562 20.1344 42.0562 20.84V34.4161C42.0562 35.4428 41.0733 36.1841 40.065 35.9903C35.8103 35.1726 32.3218 35.7088 30.5776 36.2541C30.1965 36.3732 29.7873 36.3761 29.4077 36.2525C26.3176 35.2458 22.5344 35.5253 19.9393 35.9993C18.924 36.1848 17.9297 35.4302 17.9297 34.3981Z" fill="white" stroke="black" stroke-width="1.5" stroke-linejoin="round"/>
<path d="M33 25.6889V19H39V26L36 23.8222L33 25.6889Z" fill="#F28081"/>
<path d="M33 19.25V24.7824C33 25.1953 33.4607 25.441 33.8036 25.2111L35.7125 23.9309C35.8864 23.8143 36.1136 23.8143 36.2875 23.9309L38.1964 25.2111C38.5393 25.441 39 25.1953 39 24.7824V19.25" stroke="black" stroke-width="1.5" stroke-linecap="round" stroke-linejoin="round"/>
<path d="M17.9297 34.3981V20.781C17.9297 20.1033 18.3696 19.498 19.0277 19.3359C23.385 18.263 27.4726 18.8807 29.4717 19.4719C29.813 19.5728 30.1749 19.5742 30.5162 19.4733C33.9706 18.4528 38.312 18.8778 40.8888 19.3803C41.5813 19.5154 42.0562 20.1344 42.0562 20.84V34.4161C42.0562 35.4428 41.0733 36.1841 40.065 35.9903C35.8103 35.1726 32.3218 35.7088 30.5776 36.2541C30.1965 36.3732 29.7873 36.3761 29.4077 36.2525C26.3176 35.2458 22.5344 35.5253 19.9393 35.9993C18.924 36.1848 17.9297 35.4302 17.9297 34.3981Z" stroke="black" stroke-width="1.5" stroke-linejoin="round"/>
<path d="M29.9922 19.5645V36.385" stroke="black" stroke-width="1.5" stroke-linejoin="round"/>
</g>
</svg>
