<svg width="24" height="18" viewBox="0 0 24 18" fill="none" xmlns="http://www.w3.org/2000/svg">
<path d="M12.7284 13.3459L12.7284 15.94C12.7284 17.0786 13.7316 18 14.9713 18L21.7572 18C22.9968 18 24 17.0786 24 15.94L24 9.70132C24 8.56275 22.9968 7.64133 21.7572 7.64133L19.623 7.64133C18.6582 7.64133 18.0064 6.69643 18.4601 5.90999C18.8051 5.31723 19.3035 4.81837 19.9169 4.45449C20.7796 3.9439 21.099 2.9227 20.7412 2.04236L20.4409 1.31461C19.9617 0.158431 18.4665 -0.358035 17.3035 0.269941C14.6518 1.69022 12.7348 4.18452 12.7348 7.01922L12.7348 13.3459L12.7284 13.3459Z" fill="#F97173"/>
<path d="M-0.000599422 13.3459L-0.000599195 15.94C-0.000599096 17.0786 1.0026 18 2.24221 18L9.03453 18C10.2741 18 11.2773 17.0786 11.2773 15.94L11.2773 9.70132C11.2773 8.56275 10.2741 7.64133 9.03453 7.64133L6.90035 7.64133C5.9355 7.64133 5.28374 6.69643 5.73741 5.90999C6.08246 5.31723 6.58086 4.81837 7.19428 4.45449C8.0569 3.9439 8.37639 2.9227 8.01856 2.04236L7.71824 1.31461C7.23901 0.158431 5.7438 -0.358035 4.58086 0.269941C1.92911 1.69022 0.0121796 4.18452 0.0121799 7.01922L0.0121804 13.3459L-0.000599422 13.3459Z" fill="#F97173"/>
</svg>
