<svg width="16" height="12" viewBox="0 0 16 12" fill="none" xmlns="http://www.w3.org/2000/svg">
<path d="M8.48563 8.89729L8.48563 10.6267C8.48563 11.3857 9.15443 12 9.98084 12L14.5048 12C15.3312 12 16 11.3857 16 10.6267L16 6.46755C16 5.7085 15.3312 5.09422 14.5048 5.09422L13.082 5.09422C12.4388 5.09422 12.0043 4.46428 12.3067 3.93999C12.5367 3.54482 12.869 3.21224 13.278 2.96966C13.853 2.62926 14.066 1.94847 13.8275 1.36157L13.6273 0.876407C13.3078 0.10562 12.311 -0.23869 11.5357 0.179961C9.76784 1.12682 8.48989 2.78968 8.48989 4.67948L8.48989 8.89729L8.48563 8.89729Z" fill="#D5A99B" fill-opacity="0.5"/>
<path d="M0.000901905 8.89729L0.000902056 10.6267C0.000902122 11.3857 0.669699 12 1.49611 12L6.02433 12C6.85074 12 7.51953 11.3857 7.51953 10.6267L7.51953 6.46755C7.51953 5.7085 6.85073 5.09422 6.02432 5.09422L4.60154 5.09422C3.9583 5.09422 3.52379 4.46428 3.82624 3.93999C4.05628 3.54482 4.38854 3.21224 4.79749 2.96966C5.37257 2.62926 5.58556 1.94847 5.34701 1.36157L5.1468 0.876407C4.82731 0.10562 3.8305 -0.23869 3.05521 0.179961C1.28738 1.12682 0.00942102 2.78968 0.00942119 4.67948L0.00942155 8.89729L0.000901905 8.89729Z" fill="#D5A99B" fill-opacity="0.5"/>
</svg>
