<svg width="131" height="44" viewBox="0 0 131 44" fill="none" xmlns="http://www.w3.org/2000/svg">
<path d="M126 43.5H127.2C129.299 43.5 131 41.7987 131 39.7L131 27.8C131 25.7013 129.299 24 127.2 24H126L126 43.5Z" fill="#E24547"/>
<path d="M0.25 0H123C127.418 0 131 3.58172 131 8V30H16.4527C13.056 30 10.0296 27.855 8.90441 24.6501L0.25 0Z" fill="#F97173"/>
<path d="M131 35.25C130.4 31.05 127.417 30 126 30V29.5H131V35.25Z" fill="#F97173"/>
<path d="M39.4961 20.1016H37.9844V9.41406H39.4961V20.1016ZM30.8828 13.9609C30.8828 13.1992 31.002 12.5312 31.2402 11.957C31.4824 11.3828 31.8164 10.9414 32.2422 10.6328C32.6719 10.3203 33.1602 10.1641 33.707 10.1641C34.2422 10.1641 34.7207 10.3203 35.1426 10.6328C35.5684 10.9414 35.9023 11.3828 36.1445 11.957C36.3867 12.5312 36.5078 13.1992 36.5078 13.9609C36.5078 14.7266 36.3867 15.3984 36.1445 15.9766C35.9023 16.5508 35.5684 16.9941 35.1426 17.3066C34.7207 17.6152 34.2422 17.7695 33.707 17.7695C33.1602 17.7695 32.6719 17.6152 32.2422 17.3066C31.8164 16.9941 31.4824 16.5508 31.2402 15.9766C31.002 15.3984 30.8828 14.7266 30.8828 13.9609ZM32.3242 13.9609C32.3242 14.4805 32.3809 14.9258 32.4941 15.2969C32.6074 15.6641 32.7676 15.9434 32.9746 16.1348C33.1855 16.3223 33.4297 16.4141 33.707 16.4102C33.9766 16.4141 34.2129 16.3223 34.416 16.1348C34.623 15.9434 34.7832 15.6641 34.8965 15.2969C35.0098 14.9258 35.0664 14.4805 35.0664 13.9609C35.0664 13.4414 35.0098 12.998 34.8965 12.6309C34.7832 12.2637 34.623 11.9863 34.416 11.7988C34.2129 11.6074 33.9766 11.5117 33.707 11.5117C33.4297 11.5117 33.1855 11.6074 32.9746 11.7988C32.7676 11.9863 32.6074 12.2637 32.4941 12.6309C32.3809 12.998 32.3242 13.4414 32.3242 13.9609ZM45.9855 11.1484H42.6808V13.3047C43.63 13.2969 44.4191 13.2676 45.048 13.2168C45.6769 13.166 46.298 13.0781 46.9113 12.9531L47.0636 14.1133C46.4503 14.2578 45.8136 14.3535 45.1534 14.4004C44.4933 14.4434 43.6046 14.4648 42.4874 14.4648H42.0831H41.1925V9.96484H45.9855V11.1484ZM42.2003 15.1562H49.2784V18.0977H43.6886V18.7656H49.5831V19.9609H42.2238V16.9727H47.7902V16.3398H42.2003V15.1562ZM47.7784 9.41406H49.2784V11.4297H50.7198V12.6484H49.2784V14.7227H47.7784V9.41406ZM54.5256 10.1289C55.0842 10.1289 55.5881 10.2402 56.0373 10.4629C56.4866 10.6855 56.8381 10.9961 57.092 11.3945C57.3498 11.7891 57.4788 12.2383 57.4788 12.7422C57.4788 13.2461 57.3498 13.6973 57.092 14.0957C56.8381 14.4941 56.4866 14.8066 56.0373 15.0332C55.5881 15.2559 55.0842 15.3672 54.5256 15.3672C53.9709 15.3672 53.467 15.2559 53.0139 15.0332C52.5608 14.8066 52.2053 14.4941 51.9475 14.0957C51.6897 13.6973 51.5608 13.2461 51.5608 12.7422C51.5608 12.2422 51.6897 11.793 51.9475 11.3945C52.2053 10.9961 52.5608 10.6855 53.0139 10.4629C53.467 10.2402 53.9709 10.1289 54.5256 10.1289ZM51.5549 16.7031C52.7268 16.7031 53.8459 16.6797 54.9123 16.6328C55.9827 16.5859 56.9905 16.4961 57.9358 16.3633L58.053 17.4414C57.0061 17.6445 55.9416 17.7754 54.8596 17.834C53.7815 17.8926 52.592 17.9219 51.2913 17.9219L51.1155 16.7031H51.5549ZM53.0491 12.7422C53.0491 13.0156 53.1116 13.2539 53.2366 13.457C53.3655 13.6562 53.5413 13.8086 53.7639 13.9141C53.9905 14.0195 54.2444 14.0703 54.5256 14.0664C54.8108 14.0703 55.0666 14.0195 55.2932 13.9141C55.5198 13.8086 55.6975 13.6562 55.8264 13.457C55.9592 13.2539 56.0256 13.0156 56.0256 12.7422C56.0256 12.4727 55.9592 12.2383 55.8264 12.0391C55.6975 11.8359 55.5198 11.6816 55.2932 11.5762C55.0666 11.4707 54.8108 11.418 54.5256 11.418C54.2444 11.418 53.9905 11.4707 53.7639 11.5762C53.5413 11.6816 53.3655 11.8359 53.2366 12.0391C53.1116 12.2383 53.0491 12.4727 53.0491 12.7422ZM58.5452 9.41406H60.0334V20.1016H58.5452V9.41406ZM68.77 16.0586C69.5473 16.0586 70.2212 16.1387 70.7915 16.2988C71.3618 16.4551 71.8013 16.6855 72.1098 16.9902C72.4184 17.291 72.5747 17.6523 72.5786 18.0742C72.5747 18.4883 72.4184 18.8457 72.1098 19.1465C71.8013 19.4512 71.3598 19.6816 70.7856 19.8379C70.2153 19.998 69.5434 20.0781 68.77 20.0781C68.0005 20.0781 67.3286 19.998 66.7544 19.8379C66.1841 19.6816 65.7446 19.4512 65.436 19.1465C65.1274 18.8457 64.9731 18.4883 64.9731 18.0742C64.9731 17.6523 65.1274 17.291 65.436 16.9902C65.7446 16.6855 66.1841 16.4551 66.7544 16.2988C67.3286 16.1387 68.0005 16.0586 68.77 16.0586ZM63.9888 14.1719H67.6216V12.3086H69.0981V14.1719H73.6684V15.3789H63.9888V14.1719ZM65.0786 9.89453H72.52V10.7617V11.0723C72.52 11.541 72.5005 11.9746 72.4614 12.373C72.4223 12.7715 72.3403 13.1875 72.2153 13.6211L70.7505 13.4805C70.8598 13.043 70.9321 12.6445 70.9673 12.2852C71.0024 11.9219 71.0239 11.5156 71.0317 11.0664H65.0786V9.89453ZM66.4614 18.0742C66.4575 18.3594 66.6548 18.5762 67.0532 18.7246C67.4555 18.8691 68.0278 18.9414 68.77 18.9414C69.5122 18.9414 70.0845 18.8691 70.4868 18.7246C70.8891 18.5762 71.0903 18.3594 71.0903 18.0742C71.0903 17.7812 70.8911 17.5586 70.4927 17.4062C70.0981 17.25 69.5376 17.1719 68.811 17.1719C68.0532 17.1719 67.4712 17.248 67.0649 17.4004C66.6587 17.5527 66.4575 17.7773 66.4614 18.0742ZM83.9664 15.625H74.2164V14.4531H78.3648V13.5391H75.4V9.88281H82.7945V11.043H76.8883V12.3672H82.8531V13.5391H79.8297V14.4531H83.9664V15.625ZM75.3297 18.1328C75.3297 17.7148 75.4781 17.3594 75.775 17.0664C76.0719 16.7695 76.4996 16.5449 77.0582 16.3926C77.6207 16.2402 78.2906 16.1641 79.068 16.1641C79.8375 16.1641 80.4996 16.2402 81.0543 16.3926C81.609 16.5449 82.0348 16.7695 82.3316 17.0664C82.6285 17.3594 82.7789 17.7148 82.7828 18.1328C82.7789 18.5469 82.6285 18.9004 82.3316 19.1934C82.0348 19.4863 81.609 19.709 81.0543 19.8613C80.4996 20.0137 79.8375 20.0898 79.068 20.0898C78.2906 20.0898 77.6227 20.0137 77.0641 19.8613C76.5055 19.709 76.0758 19.4863 75.775 19.1934C75.4781 18.9004 75.3297 18.5469 75.3297 18.1328ZM76.8531 18.1328C76.8492 18.4102 77.0309 18.6172 77.398 18.7539C77.7691 18.8867 78.3258 18.9531 79.068 18.9531C80.5406 18.9531 81.2789 18.6797 81.2828 18.1328C81.2789 17.8594 81.0895 17.6523 80.7145 17.5117C80.3434 17.3711 79.7945 17.3008 79.068 17.3008C78.3297 17.3008 77.775 17.3711 77.4039 17.5117C77.0328 17.6484 76.8492 17.8555 76.8531 18.1328ZM93.6316 16.1055H92.2136V13.2695H91.3581V15.7539H89.9636V9.61328H91.3581V12.0508H92.2136V9.41406H93.6316V16.1055ZM84.4089 10.5156H86.2956V9.50781H87.7839V10.5156H89.6472V11.6758H84.4089V10.5156ZM84.737 13.8906C84.737 13.5234 84.8347 13.1992 85.03 12.918C85.2292 12.6367 85.5046 12.418 85.8562 12.2617C86.2077 12.1055 86.6042 12.0273 87.0456 12.0273C87.4948 12.0273 87.8952 12.1055 88.2468 12.2617C88.5984 12.4141 88.8737 12.6328 89.073 12.918C89.2761 13.1992 89.3777 13.5234 89.3777 13.8906C89.3777 14.2539 89.2761 14.5762 89.073 14.8574C88.8737 15.1348 88.5984 15.3516 88.2468 15.5078C87.8952 15.6641 87.4948 15.7422 87.0456 15.7422C86.6042 15.7422 86.2077 15.6641 85.8562 15.5078C85.5046 15.3516 85.2292 15.1348 85.03 14.8574C84.8347 14.5762 84.737 14.2539 84.737 13.8906ZM86.073 13.8789C86.073 14.125 86.1589 14.3203 86.3308 14.4648C86.5027 14.6055 86.7351 14.6758 87.028 14.6758C87.3288 14.6758 87.5691 14.6074 87.7487 14.4707C87.9323 14.3301 88.0261 14.1367 88.03 13.8906C88.0261 13.6484 87.9362 13.457 87.7605 13.3164C87.5847 13.1758 87.3523 13.1055 87.0632 13.1055C86.7624 13.1055 86.5222 13.1738 86.3425 13.3105C86.1628 13.4434 86.073 13.6328 86.073 13.8789ZM86.2956 18.1445C86.2956 17.7383 86.4421 17.3906 86.7351 17.1016C87.032 16.8086 87.4558 16.5859 88.0066 16.4336C88.5612 16.2773 89.2214 16.1992 89.987 16.1992C90.7527 16.1992 91.4109 16.2773 91.9616 16.4336C92.5163 16.5859 92.9421 16.8066 93.239 17.0957C93.5359 17.3848 93.6862 17.7344 93.6902 18.1445C93.6862 18.5508 93.5359 18.8984 93.239 19.1875C92.9421 19.4805 92.5163 19.7012 91.9616 19.8496C91.4109 20.002 90.7527 20.0781 89.987 20.0781C89.2253 20.0781 88.5671 20.002 88.0124 19.8496C87.4577 19.7012 87.032 19.4805 86.7351 19.1875C86.4421 18.8984 86.2956 18.5508 86.2956 18.1445ZM87.7956 18.1445C87.7917 18.4141 87.9734 18.6172 88.3405 18.7539C88.7116 18.8867 89.2605 18.9531 89.987 18.9531C91.448 18.9531 92.1784 18.6836 92.1784 18.1445C92.1784 17.8672 91.9987 17.6621 91.6394 17.5293C91.2839 17.3926 90.7487 17.3242 90.0339 17.3242C89.2839 17.3242 88.7214 17.3906 88.3464 17.5234C87.9753 17.6562 87.7917 17.8633 87.7956 18.1445ZM104.469 15.625H94.7186V14.4531H98.867V13.5391H95.9022V9.88281H103.297V11.043H97.3905V12.3672H103.355V13.5391H100.332V14.4531H104.469V15.625ZM95.8319 18.1328C95.8319 17.7148 95.9803 17.3594 96.2772 17.0664C96.5741 16.7695 97.0018 16.5449 97.5604 16.3926C98.1229 16.2402 98.7928 16.1641 99.5702 16.1641C100.34 16.1641 101.002 16.2402 101.556 16.3926C102.111 16.5449 102.537 16.7695 102.834 17.0664C103.131 17.3594 103.281 17.7148 103.285 18.1328C103.281 18.5469 103.131 18.9004 102.834 19.1934C102.537 19.4863 102.111 19.709 101.556 19.8613C101.002 20.0137 100.34 20.0898 99.5702 20.0898C98.7928 20.0898 98.1248 20.0137 97.5663 19.8613C97.0077 19.709 96.578 19.4863 96.2772 19.1934C95.9803 18.9004 95.8319 18.5469 95.8319 18.1328ZM97.3553 18.1328C97.3514 18.4102 97.5331 18.6172 97.9002 18.7539C98.2713 18.8867 98.828 18.9531 99.5702 18.9531C101.043 18.9531 101.781 18.6797 101.785 18.1328C101.781 17.8594 101.592 17.6523 101.217 17.5117C100.846 17.3711 100.297 17.3008 99.5702 17.3008C98.8319 17.3008 98.2772 17.3711 97.9061 17.5117C97.535 17.6484 97.3514 17.8555 97.3553 18.1328Z" fill="white"/>
</svg>
