<svg width="64" height="64" viewBox="0 0 64 64" fill="none" xmlns="http://www.w3.org/2000/svg">
<path d="M59 53.5H59.15C61.2763 53.5 63 55.2237 63 57.35V60.15C63 62.2763 61.2763 64 59.15 64H59V53.5Z" fill="#A92527"/>
<path d="M62.0005 62.7498C62.995 59.0857 60.2705 55.1245 59.0273 53.7402H64.0001V58.6257C64.0001 61.0685 62.2491 62.5055 62.0005 62.7498Z" fill="#E24547"/>
<path d="M31.4139 0H5.57031L64.0007 58.7613V34.235C64.0007 32.3284 63.2745 30.4933 61.9699 29.103L36.8832 2.36797C35.4654 0.857091 33.4858 0 31.4139 0Z" fill="#E24547"/>
<path d="M10.5 5L10.5 4.8C10.5 2.70132 8.79868 1 6.7 1L3.8 1C1.70132 1 -1.02274e-07 2.70132 -8.89851e-09 4.8L0 5L10.5 5Z" fill="#A92527"/>
<path d="M1.29165 1.95542C5.02125 0.978322 9.5344 4.16534 10.9434 5.38672L10.9434 0.501223C10.1974 0.501223 7.06186 0.00122278 5.47056 0.00122285C2.98416 0.00122295 1.54029 1.71115 1.29165 1.95542Z" fill="#E24547"/>
<path d="M28.9581 5.62895L28.1944 7.66378L29.4349 9.35443L27.2665 9.36452L25.9518 11.1339L25.3795 9.10156L23.3143 8.50477L25.1375 7.24233L25.1701 5.10328L26.8791 6.35261L28.9581 5.62895Z" fill="#A92527"/>
<path d="M56.3702 33.1836L55.6066 35.2185L56.847 36.9091L54.6786 36.9192L53.3639 38.6885L52.7917 36.6562L50.7264 36.0595L52.5496 34.797L52.5822 32.658L54.2912 33.9073L56.3702 33.1836Z" fill="#A92527"/>
<path d="M33.9303 8.57373L36.3168 10.9602C36.7477 11.3911 37.0472 11.8204 37.2153 12.2481C37.3833 12.6758 37.4256 13.0799 37.342 13.4603C37.2611 13.8435 37.0669 14.1852 36.7593 14.4853C36.4213 14.8267 36.0406 15.0095 35.6172 15.0336C35.1967 15.055 34.7888 14.9399 34.3936 14.6883L34.3354 14.7461C34.5536 14.9864 34.7025 15.2679 34.7822 15.5907C34.8619 15.9135 34.8531 16.2444 34.7557 16.5834C34.6639 16.9225 34.4753 17.2338 34.1899 17.5174C33.8629 17.8367 33.4946 18.0402 33.085 18.1278C32.6782 18.2182 32.2467 18.1789 31.7904 18.0099C31.3398 17.841 30.8948 17.5369 30.4557 17.0977L27.9117 14.5538L33.9303 8.57373ZM31.2379 15.8249C31.5831 16.1757 31.9065 16.3693 32.208 16.4056C32.5123 16.4447 32.7808 16.3458 33.0136 16.1091C33.1826 15.9411 33.2922 15.7524 33.3423 15.5429C33.3924 15.3334 33.3776 15.1169 33.2977 14.8934C33.2234 14.6699 33.0854 14.4573 32.8837 14.2557L31.7982 13.1702L30.1855 14.7725L31.2379 15.8249ZM33.6157 13.2806C33.7869 13.4574 33.9735 13.5832 34.1753 13.6579C34.3799 13.7355 34.5791 13.7551 34.7728 13.7168C34.9665 13.6785 35.1423 13.5809 35.3003 13.424C35.5247 13.2065 35.6247 12.9529 35.6003 12.6633C35.5759 12.3737 35.4242 12.0894 35.1452 11.8105L34.1591 10.8244L32.6545 12.3194L33.6157 13.2806ZM39.2482 13.8916L43.2754 17.9188L42.2446 18.943L39.4604 16.1588L37.9973 17.6125L40.5744 20.1896L39.5435 21.2138L36.9665 18.6367L35.5034 20.0904L38.2959 22.883L37.2651 23.9072L33.2296 19.8717L39.2482 13.8916ZM45.6958 23.7698C45.9093 23.5082 45.9914 23.2201 45.9421 22.9057C45.8955 22.594 45.7203 22.2862 45.4165 21.9824C45.2094 21.7752 45.0007 21.6273 44.7906 21.5387C44.586 21.4502 44.3924 21.4195 44.2098 21.4468C44.0271 21.4741 43.8693 21.5538 43.7363 21.686C43.5368 21.8842 43.4645 22.1268 43.5193 22.4136C43.5797 22.7005 43.7245 23.0248 43.9535 23.3864L44.3591 24.0572C44.7868 24.739 45.0168 25.3833 45.049 25.9901C45.084 26.5941 44.866 27.1329 44.3949 27.6064C44.0291 27.9699 43.618 28.1939 43.1613 28.2787C42.7047 28.3635 42.229 28.3048 41.7341 28.1027C41.2392 27.9006 40.7514 27.5592 40.2708 27.0786C39.7819 26.5952 39.4341 26.101 39.2274 25.596C39.0207 25.091 38.9648 24.5932 39.0597 24.1025C39.1545 23.6118 39.4084 23.1502 39.8213 22.718L41.0311 23.9278C40.754 24.2417 40.6428 24.5835 40.6975 24.9531C40.7578 25.3227 40.9592 25.6788 41.3017 26.0213C41.5171 26.2367 41.7382 26.3943 41.9649 26.4939C42.1916 26.5936 42.4059 26.6311 42.6079 26.6066C42.8099 26.5822 42.9858 26.4956 43.1354 26.3469C43.3294 26.1542 43.3989 25.9171 43.344 25.6357C43.2947 25.3544 43.1376 24.9956 42.8727 24.5595L42.376 23.7479C41.5565 22.3926 41.5582 21.306 42.3812 20.4883C42.7387 20.1332 43.1512 19.916 43.6189 19.8367C44.0921 19.7575 44.5762 19.8135 45.0711 20.0045C45.5688 20.1984 46.0358 20.5135 46.4722 20.9499C46.9087 21.3863 47.2178 21.8474 47.3996 22.333C47.5814 22.8187 47.6277 23.2903 47.5384 23.7479C47.4519 24.2028 47.2355 24.6079 46.8891 24.963L45.6958 23.7698ZM49.1879 23.8313L54.1018 28.7452L53.071 29.7694L51.2314 27.9298L46.2436 32.8856L45.0089 31.651L49.9967 26.6951L48.1571 24.8555L49.1879 23.8313Z" fill="white"/>
</svg>
