<svg width="45" height="31" viewBox="0 0 45 31" fill="none" xmlns="http://www.w3.org/2000/svg">
<path d="M9.58447 2.74379C9.64814 2.24982 9.07219 2.08616 8.78565 2.21709C8.49912 2.34802 8.05919 2.98483 7.63374 3.63354C7.20828 4.27928 3.70912 9.94807 4.21851 10.4331C4.49636 10.695 4.80604 10.7515 5.56144 9.97187C5.79588 9.73084 5.56144 9.51063 5.41094 9.51063C5.26044 9.51063 4.94207 9.51063 5.2836 8.82919C5.62512 8.14774 8.50491 3.16933 8.86959 2.94912C9.23137 2.72892 9.48896 2.90448 9.58447 2.74082V2.74379Z" fill="#231F20"/>
<path d="M13.3691 1.76808C13.2417 1.78891 9.97686 7.64815 9.20696 8.67775C8.43996 9.70736 7.3922 11.1774 7.0304 10.9601C6.7757 10.8054 7.20117 10.1031 7.60638 9.68653C8.01159 9.26993 13.5601 3.8511 14.0724 3.41366C14.5847 2.97325 17.2938 1.24137 18.2113 1.39611C19.1288 1.55085 20.1737 2.16385 19.8958 3.61304C19.618 5.06223 18.3097 7.88026 17.5051 9.01104C15.5196 11.7963 13.9856 13.7038 13.728 13.9359C13.4733 14.168 13.6209 14.5608 14.0492 14.3644C14.4747 14.168 18.1042 9.55857 19.1491 7.25535C20.194 4.95212 21.4385 2.6727 19.9422 1.38718C18.4458 0.101663 17.1867 1.11342 16.5239 1.38718C15.8611 1.66095 12.9291 3.6666 9.37484 7.32082C8.75544 7.95762 5.45587 10.9066 5.70478 12.082C5.81188 12.5879 6.20261 12.6087 6.87121 12.0374C7.53981 11.466 8.50074 10.3263 9.24748 9.20744C9.99423 8.08856 13.4819 2.94052 13.6209 2.66973C13.7916 2.33942 13.7714 1.68178 13.3662 1.77105L13.3691 1.76808Z" fill="#231F20"/>
<path d="M8.46353 20.2182C8.49537 20.4474 8.0149 20.7122 7.15238 21.4026C6.28697 22.093 4.36801 24.4944 3.88754 25.4823C3.40708 26.4703 0.912139 30.3209 0.527188 30.5828C0.142238 30.8446 -0.176142 30.8803 0.1104 30.0888C0.399836 29.3002 1.135 28.708 1.83833 27.6546C2.54167 26.6012 4.3709 23.3428 5.69942 21.8966C7.02503 20.4474 7.79204 20.0546 8.46643 20.2182H8.46353Z" fill="#231F20"/>
<path d="M11.5039 23.3094C11.7268 23.6724 11.9525 23.473 12.3027 23.5385C12.6559 23.604 12.7832 24.0325 12.624 24.2616C12.4648 24.4907 11.2492 25.315 11.7268 25.9399C12.2072 26.5648 12.9424 25.2496 13.6805 24.6247C14.4156 23.9998 20.6906 18.6345 21.2666 18.3072C21.8426 17.9768 34.3896 15.4445 36.2131 15.2808C38.0365 15.1172 42.326 14.1381 42.326 14.4119C42.326 14.6857 38.7746 15.3463 36.6935 16.6943C34.6125 18.0423 26.4186 24.4283 26.5806 24.8538C26.7398 25.2823 27.0293 25.4787 28.2131 25.0502C29.3969 24.6217 33.8773 22.1221 34.7109 22.3839C35.5445 22.6458 35.4142 22.7797 35.5763 23.5028C35.7355 24.2259 36.0249 25.3448 37.0177 25.3775C37.9815 25.4103 42.2855 23.3362 43.0409 22.5208C43.064 22.497 43.0843 22.4702 43.0988 22.4494C43.6429 21.6935 42.6183 22.4494 42.1697 22.6458C41.7211 22.8422 38.8412 24.095 38.0076 24.3241C37.1769 24.5532 36.4388 24.7853 36.2796 23.3034C36.1205 21.8215 35.1914 21.5596 34.3925 21.756C33.5937 21.9524 28.7283 24.1902 28.3751 24.2557C28.022 24.3211 28.5025 23.8272 29.1422 23.1695C29.7818 22.5119 35.064 18.3637 36.9511 17.346C38.8383 16.3253 41.3679 15.4385 43.0004 14.8464C44.6328 14.2542 45.3679 13.8912 44.8238 13.662C44.2797 13.4329 41.4953 13.8673 39.831 14.1262C38.1668 14.3851 22.6443 17.2478 22.3549 17.3787C23.5705 16.0962 29.1393 10.7309 30.1002 9.08532C30.5807 10.4988 30.6443 11.7189 33.2377 11.5849C35.831 11.454 36.3752 11.1892 36.3752 11.1892L35.8947 11.8141C35.8947 11.8141 35.7037 12.1771 36.3433 12.0105C36.983 11.8468 37.9439 11.0225 38.0713 10.7279C38.1986 10.4304 37.9757 10.234 37.5908 10.2994C37.2058 10.3649 35.7992 10.8916 34.1986 10.9243C32.598 10.9571 31.9902 10.8261 31.7008 10.5613C31.4113 10.2994 30.4215 9.37695 30.7717 8.12714C31.1248 6.87732 33.4287 4.70503 33.0438 4.40746C32.6588 4.10988 32.2102 3.91348 31.7963 4.73776C31.3795 5.55907 30.9656 6.94279 29.9092 8.389C28.8527 9.83819 23.7008 15.5635 21.2666 17.5692C18.7051 18.2595 17.0727 19.0838 16.6588 19.0511C16.242 19.0184 16.1783 19.7415 16.8816 19.7742C17.585 19.8069 18.7051 19.3784 19.0264 19.2475L19.3476 19.1166C19.3476 19.1166 17.8107 20.6312 17.0756 21.1579C16.3404 21.6846 13.747 23.8242 13.5878 23.8242C13.4287 23.8242 13.3968 23.1665 12.9164 23.0029C12.4359 22.8392 11.7644 22.8392 11.5068 23.3005L11.5039 23.3094Z" fill="#231F20"/>
</svg>
