<svg width="400" height="633" viewBox="0 0 400 633" fill="none" xmlns="http://www.w3.org/2000/svg">
    <path d="M48.054 574.037c0 9.682-7.825 17.507-17.507 17.507-9.681 0-17.506-7.825-17.506-17.507 0-9.682 7.825-17.506 17.506-17.506 9.682 0 17.507 7.824 17.507 17.506z" fill="#494D8F"/>
    <path d="M38.45 573.8a7.775 7.775 0 0 1-7.784 7.785 7.775 7.775 0 0 1-7.785-7.785c0-4.308 3.477-7.746 7.785-7.746 4.307 0 7.785 3.478 7.785 7.746z" fill="#fff"/>
    <path d="M98.044 612.251c0 9.681-7.864 17.506-17.507 17.506-9.642 0-17.506-7.825-17.506-17.506 0-9.682 7.824-17.507 17.506-17.507s17.507 7.825 17.507 17.507z" fill="#494D8F"/>
    <path d="M88.44 612.013a7.775 7.775 0 0 1-7.784 7.785 7.775 7.775 0 0 1-7.785-7.785 7.775 7.775 0 0 1 7.785-7.785 7.775 7.775 0 0 1 7.785 7.785z" fill="#fff"/>
    <path d="M35.961 501.521H25.805v56.234h10.156v-56.234zM175.775 504.011h-10.156v53.428h10.156v-53.428zM277.415 503.932h-10.156v81.565h10.156v-81.565zM161.154 555.661h-10.156v33.472h10.156v-33.472zM176.21 602.213h-10.156v30.191h10.156v-30.191z" fill="#494D8F"/>
    <path d="M57.696 542.066H3.241v9.129h54.455v-9.129zM173.246 527.92h-34.223v9.128h34.223v-9.128zM175.617 548.39h-40.743v9.128h40.743v-9.128z" fill="#494D8F"/>
    <path d="M144.28 503.418h-9.721v53.586h9.721v-53.586zM303.813 543.252h-27.228v9.129h27.228v-9.129zM79.431 504.366H69.275v81.565H79.43v-81.565zM102.233 503.932H92.077v81.565h10.156v-81.565z" fill="#494D8F"/>
    <path d="M99.861 542.699H72.633v9.129h27.228v-9.129zM198.419 581.229h-82v9.129h82v-9.129zM386.841 601.541h-86.426v9.84h86.426v-9.84zM175.736 602.213h-45.84v9.128h45.84v-9.128zM377.672 518.316h-10.156v59.672h10.156v-59.672z" fill="#494D8F"/>
    <path d="M329.934 560.008h-10.156v50.701h10.156v-50.701zM354.95 560.166h-10.157v50.701h10.157v-50.701zM377.198 518.277H313.89v9.128h63.308v-9.128zM277.494 596.128h-10.156v36h10.156v-36z" fill="#494D8F"/>
    <path d="M277.021 596.088h-49.793v9.129h49.793v-9.129zM247.105 574.037c0 9.682-7.824 17.507-17.506 17.507s-17.507-7.825-17.507-17.507c0-9.682 7.825-17.506 17.507-17.506 9.682 0 17.506 7.824 17.506 17.506z" fill="#494D8F"/>
    <path d="M237.502 573.8a7.775 7.775 0 0 1-7.785 7.785 7.775 7.775 0 0 1-7.785-7.785c0-4.308 3.478-7.746 7.785-7.746 4.308 0 7.785 3.478 7.785 7.746z" fill="#fff"/>
    <path d="M234.737 503.418H224.62v57.617h10.117v-57.617z" fill="#494D8F"/>
    <path d="M256.748 542.066h-54.456v9.129h54.456v-9.129z" fill="#494D8F"/>
    <path d="M319.937 119.423c0 65.955-53.468 119.384-119.423 119.384S81.091 185.378 81.091 119.423 134.519 0 200.514 0s119.423 53.468 119.423 119.423z" fill="#585EAA"/>
    <path d="M238.846 202.015c0 65.916-53.468 119.384-119.462 119.384C53.389 321.399 0 267.931 0 202.015 0 136.1 53.468 82.632 119.423 82.632S238.886 136.1 238.886 202.015h-.04z" fill="#585EAA"/>
    <path d="M400 200.593c0 65.916-53.468 119.423-119.423 119.423s-119.423-53.507-119.423-119.423S214.622 81.209 280.577 81.209 400 134.677 400 200.593z" fill="#585EAA"/>
    <path d="M318.791 281.407c0 65.995-53.468 119.462-119.423 119.462S79.945 347.402 79.945 281.407s53.468-119.344 119.423-119.344 119.423 53.428 119.423 119.344z" fill="#585EAA"/>
    <path d="M114.444 135.467c-35.33 0-63.98 28.651-63.98 63.98 0 35.329 28.65 63.979 63.98 63.979 35.329 0 64.019-28.65 64.019-63.979 0-35.29-28.69-63.98-64.019-63.98z" fill="#42C3D1"/>
    <path d="M201.699 216.914c-35.329 0-63.979 28.611-63.979 63.979 0 35.369 28.65 64.019 63.979 64.019s63.98-28.65 63.98-64.019c0-35.368-28.651-63.979-63.98-63.979z" fill="#FBAD17"/>
    <path d="M281.802 136.85c-35.329 0-63.979 28.651-63.979 63.94 0 35.329 28.65 63.98 63.979 63.98s63.98-28.651 63.98-63.98c0-35.329-28.651-63.94-63.98-63.94z" fill="#00B392"/>
    <path d="M184.43 177.514c34.222 8.892 69.156-11.657 78.048-45.84 8.891-34.223-11.658-69.117-45.881-78.009-34.183-8.891-69.116 11.658-78.008 45.841-2.766 10.709-2.687 21.458-.198 31.456" fill="#B171AF"/>
    <path d="M298.676 139.696c22.842 6.362 45.051 28.848 44.537 60.936-.553 34.341-28.255 61.767-63.031 60.779-11.776-.277-24.343-3.794-34.776-10.67-20.47-13.594-24.461-34.262-27.9-56.866-5.69-36.712-25.528-94.171-105.394-94.092-42.323 0-84.805 36.079-92.353 78.719-9.642 54.693 14.503 99.585 61.134 116.736 0 0 3.636.83 5.058-2.766l15.966-32.128c-28.335-5.375-48.765-33.511-48.489-60.463.316-35.368 26.438-60.027 57.025-61.41 39.122-1.7 57.814 23.631 65.085 47.54 3.201 10.472 4.466 20.588 5.81 29.994 2.845 19.798 11.381 41.335 25.489 55.799 12.764 13.041 29.994 21.853 47.698 25.963 8.575 1.976 18.297 3.636 27.149 3.399 23.394-.633 45.406-7.864 62.675-21.221 0 0 39.597-28.453 36.514-78.601 0 0 0-.396-.158-.988-1.146-39.202-22.999-75.282-57.577-91.682 0 0-4.308-2.529-6.56 1.344l-17.981 29.638.079.04z" fill="#fff"/>
    <path d="M261.292 299.19c-6.125 23.039-28.729 45.643-61.134 45.09-34.341-.553-61.806-28.216-60.818-63.031.277-11.737 3.794-24.343 10.67-34.736 13.594-20.431 34.302-24.422 56.906-27.9 36.751-5.691 94.171-25.489 94.131-105.315 0-42.363-36.08-84.845-78.719-92.353-53.705-9.485-97.965 13.594-115.788 58.526 0 0-2.331 5.018 1.7 7.231l32.246 15.886s.119-.75.435-1.975c6.876-26.952 33.788-46.276 59.988-46 35.408.317 60.067 26.438 61.45 57.065 1.7 39.122-23.671 57.814-47.54 65.046-10.472 3.201-20.589 4.466-30.033 5.809-19.838 2.845-41.376 11.381-55.839 25.45-13.041 12.764-21.814 29.954-25.924 47.658-1.976 8.576-3.635 18.297-3.398 27.149.632 23.395 7.864 45.406 21.181 62.715 0 0 28.453 39.597 78.641 36.514 0 0 .395 0 1.027-.158 41.257-1.185 78.997-25.291 94.053-62.991 0 0 1.027-2.806-1.818-4.071l-31.377-15.609h-.04z" fill="#fff"/>
    <path d="M44.38 457.261H39.4v-12.645H31.1v9.286H8.34V431.18h4.98v7.547H26.16v-7.547h4.94v9.405H39.4v-11.974h4.98V457.261zm-18.179-7.35v-7.192H13.358v7.192H26.2zm18.139 28.255H15.847V459.04h4.94v5.335H39.36v-5.335h4.98v19.126zm-4.98-4.031v-5.73H20.787v5.73H39.36zM92.038 458.803H80.3v9.405h-4.98v-9.405h-6.44v9.405h-4.94v-9.405H49.635v-4.031h42.403v4.031zm-6.52 19.521H55.84v-15.688h4.86v11.658h24.817v4.03zm-28.335-27.465v-12.052l22.644-.119v-4.466h-22.92v-4.03h27.9v12.527l-22.724.118v3.992h23.632v4.03H57.144h.04zM130.726 470.381H95.318v-3.359h35.408v3.359zm-6.758-10.274-11.223-10.275c-.276.158-.672.514-1.264 1.067-.593.474-1.265 1.106-2.016 1.778-.395.356-.751.712-1.146 1.067-.395.356-.79.751-1.185 1.107-.83.711-1.621 1.462-2.371 2.173a79.597 79.597 0 0 1-2.016 1.937c-.593.592-1.027.948-1.264 1.146l-2.53-2.885 11.698-10.67v-7.311h4.11v7.311c1.936 1.739 3.912 3.557 5.927 5.374 2.016 1.897 3.952 3.636 5.77 5.296l-2.49 2.885zM156.333 456.787h-21.221v-17.704h4.15v14.345h17.071v3.359zm8.339 20.549h-23.711v-15.174h23.711v15.174zm-19.601-3.359h15.53v-8.417h-15.53v8.417zm19.482-13.278h-4.11V436.04h4.11v24.659zM196.247 466.509h-25.766v-3.359h7.587v-10.077h4.11v10.077h14.069v3.359zm-9.919-6.165c.632-1.462 1.146-3.004 1.58-4.584.158-.712.356-1.462.514-2.213a45.84 45.84 0 0 0 .435-2.253c.237-1.383.395-2.687.513-3.873.08-1.185.159-2.213.159-3.003H172.22v-3.28h21.418v1.344c0 .395 0 .79-.039 1.225 0 .434-.079.909-.079 1.462-.079 1.067-.198 2.252-.316 3.596-.158 1.344-.356 2.727-.672 4.149-.158.712-.316 1.463-.474 2.213a35.762 35.762 0 0 1-.554 2.213 50.972 50.972 0 0 1-1.58 4.545l-3.596-1.541zm23.671-5.217h-8.141v22.17h-4.11V436.08h4.11v15.688h8.141v3.359zM249.082 443.43H226.24v-3.161h9.485v-4.505h3.991v4.505h9.405v3.161h-.039zm-13.081 16.479c-.593-.079-1.185-.277-1.739-.514-1.146-.395-2.094-.988-2.845-1.738-.435-.317-.79-.712-1.106-1.146a9.751 9.751 0 0 1-.83-1.384c-.475-.948-.712-2.015-.712-3.161s.237-2.173.712-3.161a7.476 7.476 0 0 1 1.936-2.569c.751-.711 1.699-1.265 2.845-1.739a12.539 12.539 0 0 1 1.739-.474c.593-.119 1.225-.158 1.857-.158 1.265 0 2.451.197 3.597.632.513.277 1.027.514 1.541.79.474.277.948.593 1.383.949.395.395.751.79 1.067 1.185.316.435.593.87.909 1.384.237.513.395 1.027.514 1.541.118.553.158 1.067.158 1.581 0 .592-.04 1.146-.158 1.659a6.766 6.766 0 0 1-.514 1.502c-.277.514-.593.948-.909 1.383-.316.435-.672.79-1.067 1.146a8.41 8.41 0 0 1-1.383 1.028 9.255 9.255 0 0 1-1.541.711 5.518 5.518 0 0 1-1.739.514 14.21 14.21 0 0 1-1.858.118c-.632 0-1.264-.039-1.857-.118v.039zm-.158-12.646c-.316.158-.632.317-.909.475a2.922 2.922 0 0 0-.751.632c-.474.474-.869 1.027-1.106 1.581a4.695 4.695 0 0 0-.474 2.015c0 .751.158 1.423.474 2.015.118.317.276.633.474.87.198.276.395.514.632.711.198.237.435.435.751.632.277.198.593.356.909.514a5.915 5.915 0 0 0 2.055.356c.711 0 1.423-.119 2.055-.356.632-.276 1.185-.632 1.66-1.146.237-.197.434-.435.632-.711.198-.277.356-.553.514-.87.276-.592.395-1.264.395-2.015 0-.316 0-.632-.119-.948a9.346 9.346 0 0 0-.316-.988c-.316-.593-.711-1.107-1.146-1.621-.474-.434-1.027-.79-1.66-1.106a5.693 5.693 0 0 0-2.015-.356c-.711 0-1.423.119-2.055.356v-.04zm21.498 30.073H233.63v-14.779h23.711v14.779zm-19.601-3.359h15.451v-8.061H237.74v8.061zm27.702-23.829h-7.943v10.472h-4.149v-24.58h4.149v10.789h7.943v3.319zM297.412 476.072h-4.11v-22.13h-5.255c-.317.83-.712 1.699-1.186 2.568-.474.87-.988 1.739-1.62 2.609-1.265 1.817-2.964 3.675-5.058 5.611l-2.569-2.727c1.739-1.58 3.161-3.201 4.228-4.939 1.107-1.7 1.937-3.32 2.49-4.94.276-.751.553-1.502.751-2.213.197-.711.355-1.383.474-2.015.158-1.265.277-2.332.356-3.083h-4.071c0 .435-.079.949-.158 1.502a12.651 12.651 0 0 1-.395 1.818 12.317 12.317 0 0 1-.593 2.213c-.276.75-.593 1.541-.988 2.371-.434.83-.948 1.659-1.541 2.529-.593.869-1.225 1.778-1.976 2.648-1.501 1.778-3.556 3.477-6.125 5.097l-1.739-2.963c1.897-1.226 3.438-2.569 4.663-4.071a14.737 14.737 0 0 0 1.581-2.134c.435-.711.869-1.422 1.225-2.134.632-1.383 1.107-2.726 1.344-3.952.197-1.225.395-2.213.513-3.003h-7.508v-3.319h19.798v2.489c0 .514-.039 1.107-.118 1.818-.079 1.462-.356 3.082-.79 4.9h4.188v-13.357h4.11v38.807h.079zm7.785 1.185h-4.11v-41.059h4.11v41.059zM332.741 446.394h-22.96v-3.24h9.445v-6.284h4.031v6.284h9.484v3.24zm-14.977 18.297c-1.225-.435-2.292-1.067-3.162-1.937a8.083 8.083 0 0 1-2.094-2.845c-.237-.553-.395-1.106-.553-1.699a9.05 9.05 0 0 1-.198-1.778c0-1.226.237-2.411.751-3.557.277-.553.593-1.067.948-1.541a7.166 7.166 0 0 1 1.146-1.304c.87-.791 1.937-1.463 3.162-1.976a9.993 9.993 0 0 1 1.857-.514 10.353 10.353 0 0 1 1.937-.158c.671 0 1.304.079 1.936.158a9.972 9.972 0 0 1 1.857.514 13.688 13.688 0 0 1 3.162 1.976c.395.395.79.829 1.146 1.304.355.474.672.988.948 1.541a8.5 8.5 0 0 1 .553 1.699c.159.593.198 1.186.198 1.818 0 .632-.079 1.225-.198 1.778-.158.593-.316 1.146-.553 1.7a8.092 8.092 0 0 1-2.094 2.845c-.949.83-1.976 1.502-3.162 1.936-1.225.474-2.489.751-3.793.751-1.304 0-2.648-.237-3.794-.751v.04zm1.581-13.515c-.317.158-.633.316-.949.513a4.881 4.881 0 0 0-.869.712 12.29 12.29 0 0 0-.672.83 2.759 2.759 0 0 0-.514.948 3.668 3.668 0 0 0-.316 1.067 5.37 5.37 0 0 0-.118 1.146c0 .395 0 .79.118 1.146.079.356.198.711.316 1.067.119.316.277.632.514.948.198.317.435.593.672.87.276.237.553.435.869.672.316.197.632.395.949.513.355.158.711.237 1.067.317.355.079.75.118 1.146.118.395 0 .75 0 1.146-.118.395-.08.75-.159 1.106-.317.356-.158.672-.316.949-.513.276-.198.553-.435.829-.672.277-.277.475-.553.672-.87.198-.316.356-.632.553-.948a6.118 6.118 0 0 0 .435-2.213c0-.395 0-.79-.118-1.146-.079-.356-.198-.711-.317-1.067a5.371 5.371 0 0 0-.553-.948 11.702 11.702 0 0 0-.672-.83 6.645 6.645 0 0 0-.829-.712c-.277-.197-.633-.355-.949-.513a6.118 6.118 0 0 0-2.213-.435 5.96 5.96 0 0 0-2.213.435h-.039zm29.757 3.398h-8.655v22.683h-4.11V436.04h4.11v15.175h8.655v3.359zM386.011 460.541h-35.408v-3.319h35.408v3.319zm-4.545-8.417H355.74v-14.227h4.11v10.986h21.616v3.28-.039zm-.316 25.291h-24.738v-13.831h4.07v10.472h20.668v3.359z" fill="#494D8F"/>
</svg>
