<svg width="74" height="74" viewBox="0 0 74 74" fill="none" xmlns="http://www.w3.org/2000/svg">
<path d="M34.125 54.252L15.5 34.002L24 24.252L35.625 24.752L52.375 40.502L53 41.877L52.375 44.752L50.5 45.752L50 47.502L48.5 49.377L46.375 49.877L45.375 52.002L43.25 53.127L41.375 52.627L39.25 55.377H37.25L34.125 54.252Z" fill="#E7E8F0"/>
<path d="M33.2699 53.1178L37.0308 55.4322C38.4024 56.4591 40.0583 55.3776 40.5906 54.6512C40.9836 54.1151 41.1029 53.7042 41.0847 53.0616C41.0622 52.2713 40.7357 51.5039 40.1291 50.9847L42.1835 52.7422C43.2833 53.683 44.8893 53.4501 45.7704 52.2217C46.1651 51.6707 46.348 51.0137 46.3297 50.3708C46.3072 49.5805 45.9807 48.8131 45.3741 48.2939L46.5064 49.2622C47.6062 50.203 49.2122 49.9701 50.0933 48.7417C50.9742 47.5132 50.7969 45.7547 49.6969 44.8139C50.7967 45.7547 52.4027 45.5209 53.2838 44.2925C54.1647 43.0641 53.9874 41.3055 52.8873 40.3647L51.3161 39.0408C51.3161 39.0408 39.4027 26.0389 38.6309 25.5487C37.6272 24.9108 36.3488 24.6897 35.1936 24.5126C33.3446 24.2291 31.4656 24.1413 29.5974 24.1069C28.8139 24.0926 28.0302 24.0906 27.2468 24.0966C26.7692 24.1003 26.3034 24.1653 25.8359 24.0234" stroke="black" stroke-width="2.25" stroke-linecap="round" stroke-linejoin="round"/>
<path d="M21.5983 19.2116L10.539 30.5968C9.82711 31.3297 9.84412 32.5009 10.577 33.2128L12.375 34.9594C13.1079 35.6713 14.2791 35.6543 14.991 34.9214L26.0503 23.5362C26.7622 22.8033 26.7452 21.6321 26.0123 20.9202L24.2143 19.1736C23.4814 18.4617 22.3102 18.4787 21.5983 19.2116Z" fill="#494E8F" stroke="black" stroke-width="2.25" stroke-linecap="round" stroke-linejoin="round"/>
<path d="M51.207 45.8857L46.5781 42.4141" stroke="black" stroke-width="2.25" stroke-linecap="round" stroke-linejoin="round"/>
<path d="M46.5815 49.3564L42.5312 45.8848" stroke="black" stroke-width="2.25" stroke-linecap="round" stroke-linejoin="round"/>
<path d="M41.9482 52.829L38.4766 49.3574" stroke="black" stroke-width="2.25" stroke-linecap="round" stroke-linejoin="round"/>
<path d="M58.5 38.1257L54.4832 41.5227L40.1976 30.0223L30.905 34.6292C29.4563 35.486 27.5885 35.0072 26.7314 33.5596L26.7299 33.5566C25.8731 32.109 26.3519 30.241 27.7995 29.3841L35.6145 25.6519C38.2439 24.4926 40.5781 23.9596 43.7931 24.2496C45.0168 24.3595 46.9282 24.6796 47.3682 24.786" fill="#E7E8F0"/>
<path d="M58.5 38.1257L54.4832 41.5227L40.1976 30.0223L30.905 34.6292C29.4563 35.486 27.5885 35.0072 26.7314 33.5596L26.7299 33.5566C25.8731 32.109 26.3519 30.241 27.7995 29.3841L35.6145 25.6519C38.2439 24.4926 40.5781 23.9596 43.7931 24.2496C45.0168 24.3595 46.9282 24.6796 47.3682 24.786" stroke="black" stroke-width="2.25" stroke-linecap="round" stroke-linejoin="round"/>
<path d="M29.9578 48.6462L28.9774 49.5889C28.9681 49.5978 28.9589 49.6069 28.9499 49.6162C28.4118 50.1704 28.1884 50.9122 28.2464 51.6106L28.2464 51.6109C28.2916 52.1537 28.508 52.696 28.9061 53.1326L29.9578 48.6462ZM29.9578 48.6462C30.9376 47.65 32.5089 47.7039 33.4396 48.7247L29.9578 48.6462ZM33.3968 52.2401C33.3843 52.2531 33.3714 52.2658 33.3582 52.2781L32.1429 53.4177C32.0966 53.4612 32.0466 53.5006 31.9936 53.5357C31.012 54.1843 29.7137 54.0183 28.9063 53.1328L33.3968 52.2401ZM33.3968 52.2401C34.3351 51.2712 34.3398 49.7122 33.4396 48.7248L33.3968 52.2401Z" fill="#E7E8F0" stroke="black" stroke-width="2.25" stroke-linecap="round" stroke-linejoin="round"/>
<path d="M26.234 43.9909L26.7541 43.4356L26.7545 43.4352C27.7419 42.382 29.3479 42.4454 30.2838 43.506L30.2843 43.5066C31.1679 44.5092 31.1721 46.0829 30.2466 47.0716C30.2385 47.0802 30.2303 47.0887 30.222 47.0971L28.7457 48.5779L27.7878 49.6C27.7877 49.6001 27.7876 49.6001 27.7876 49.6002C26.8008 50.6534 25.1945 50.5907 24.2584 49.5294L26.234 43.9909ZM26.234 43.9909L24.3145 45.9446C24.3083 45.9509 24.3022 45.9573 24.2961 45.9638C23.7633 46.5323 23.5498 47.2851 23.6076 47.9864L26.234 43.9909ZM23.6076 47.9865C23.6525 48.5316 23.8635 49.0818 24.2582 49.5292L23.6076 47.9865Z" fill="#E7E8F0" stroke="black" stroke-width="2.25" stroke-linecap="round" stroke-linejoin="round"/>
<path d="M21.5502 39.936L19.9204 41.4248C19.9119 41.4325 19.9036 41.4404 19.8954 41.4483C18.8748 42.4394 18.8522 44.0696 19.8402 45.0908L19.8407 45.0912C20.8299 46.1126 22.4606 46.141 23.4824 45.1488L23.4825 45.1487L24.0643 44.5836L26.1832 42.6206L26.2016 42.6031C26.7795 42.043 27.037 41.2766 26.9749 40.5375L26.9749 40.5372C26.9267 39.9647 26.6868 39.4032 26.2573 38.9597L21.5502 39.936ZM21.5502 39.936L22.6152 38.9019L22.6155 38.9017C23.6374 37.9102 25.2677 37.9378 26.257 38.9595L21.5502 39.936Z" fill="#E7E8F0" stroke="black" stroke-width="2.25" stroke-linecap="round" stroke-linejoin="round"/>
<path d="M21.2702 38.6381L19.8064 40.083C18.823 41.0992 17.2401 41.0388 16.3097 40.0008L16.3094 40.0005C15.4187 39.006 15.4185 37.4409 16.3497 36.4624C16.3603 36.4513 16.371 36.4404 16.3821 36.4298L18.0867 34.7792C18.1347 34.7328 18.1867 34.6907 18.2421 34.6535C19.2306 33.9896 20.5388 34.1639 21.3455 35.0647L21.2702 38.6381ZM21.2702 38.6381C21.2818 38.6269 21.2933 38.6153 21.3046 38.6035C21.8397 38.0425 22.0582 37.2956 22.0003 36.5962L22.0003 36.596C21.9552 36.0522 21.7415 35.5067 21.346 35.0652L21.2702 38.6381Z" fill="#E7E8F0" stroke="black" stroke-width="2.25" stroke-linecap="round" stroke-linejoin="round"/>
<path d="M53.4419 21.161L63.2512 33.6393C63.8826 34.4426 63.7434 35.6056 62.9401 36.2371L60.9695 37.7862C60.1662 38.4177 59.0032 38.2784 58.3717 37.4751L48.5624 24.9968C47.931 24.1936 48.0703 23.0305 48.8735 22.3991L50.8442 20.85C51.6474 20.2185 52.8105 20.3578 53.4419 21.161Z" fill="#494E8F" stroke="black" stroke-width="2.25" stroke-linecap="round" stroke-linejoin="round"/>
</svg>
