<svg width="74" height="75" viewBox="0 0 74 75" fill="none" xmlns="http://www.w3.org/2000/svg">
<ellipse cx="36.875" cy="51.875" rx="20.625" ry="5.625" fill="#FEEEEE"/>
<path d="M47.9699 47.3496C53.7355 48.2993 57.5667 49.9643 57.5667 51.8698C57.5667 54.8236 48.3205 57.2163 36.9083 57.2163C25.4962 57.2163 16.25 54.8236 16.25 51.8698C16.25 50.0444 19.787 48.4288 25.1769 47.4668" stroke="black" stroke-width="2.25" stroke-linecap="round" stroke-linejoin="round"/>
<path d="M36.9049 17.75C30.2642 17.75 24.8828 23.1493 24.8828 29.8038C24.8828 32.0392 25.2443 33.2543 25.8448 35.1573C27.228 39.5433 33.1145 45.5693 35.6901 48.0559C36.3733 48.7155 37.4365 48.7156 38.1198 48.0561C40.6943 45.5714 46.5761 39.5537 47.9592 35.1859C48.5655 33.2715 48.9328 32.0507 48.9328 29.8038C48.9328 23.1493 43.5514 17.75 36.9107 17.75H36.9049Z" fill="#F97173" stroke="black" stroke-width="2.25" stroke-linecap="round" stroke-linejoin="round"/>
<path d="M36.7897 35.0165C36.6208 35.0117 36.2965 34.9728 35.9721 34.7705C35.3865 34.4054 30.9359 31.362 31.0531 28.3187C31.1702 25.2759 34.7997 23.8151 36.908 26.7347L36.9545 26.6743C39.0689 23.8355 42.6489 25.2971 42.7652 28.3187C42.8823 31.362 38.4317 34.4054 37.8461 34.7705C37.4629 35.0095 37.0796 35.0204 36.9528 35.0165H36.8654C36.846 35.0171 36.8205 35.0174 36.79 35.0165L36.7897 35.0165Z" fill="#FEEEEE" stroke="black" stroke-width="2.25" stroke-linejoin="round"/>
</svg>
