<svg width="74" height="74" viewBox="0 0 74 74" fill="none" xmlns="http://www.w3.org/2000/svg">
<path d="M39.5251 49.5223L21.2656 30.7493V29.1035L31.4098 19.5391L35.1776 22.1476L35.4674 26.495L37.2064 28.5239L41.2641 28.8137L44.4522 34.3205L43.5827 38.0883L47.3505 42.4358H50.5387C55.4079 43.5951 56.4319 47.9765 56.3353 49.5223H39.5251Z" fill="#ECF5E3"/>
<path d="M20.4995 30.375L17.7891 32.5823L37.2078 54.6096H56.0469V49.1028L38.9995 49.625L20.4995 30.375Z" fill="#9ECC74"/>
<path d="M22.8377 27.6193L29.0449 21.3962C30.2331 20.205 32.1568 20.1862 33.368 21.354L35.1332 23.0558C35.1332 23.0558 34.2345 26.5517 37.2945 28.3662C37.2945 28.3662 39.0622 28.9934 40.4099 28.8795C40.4099 28.8795 45.3967 31.7918 43.9156 35.472L43.3109 37.5939L47.4511 42.0829H48.8159C52.9028 42.0829 56.2159 45.396 56.2159 49.4829V52.4591C56.2159 53.4808 55.3876 54.3091 54.3659 54.3091H36.933L18.6646 34.6983C18.007 33.9924 18.0023 32.8996 18.6538 32.188L22.8369 27.6193H22.8377Z" stroke="black" stroke-width="2.25" stroke-miterlimit="10" stroke-linejoin="round"/>
<path d="M40.4258 39.0708L43.3091 37.5938" stroke="black" stroke-width="2.25" stroke-miterlimit="10" stroke-linecap="round" stroke-linejoin="round"/>
<path d="M43.3125 42.6099L46.1958 41.1328" stroke="black" stroke-width="2.25" stroke-miterlimit="10" stroke-linecap="round" stroke-linejoin="round"/>
<path d="M20.2695 30.4551L38.7695 50.1884H56.0362" stroke="black" stroke-width="2.25" stroke-miterlimit="10" stroke-linejoin="round"/>
<path d="M37.8373 54.3086H24.7812" stroke="black" stroke-width="2.25" stroke-miterlimit="10" stroke-linecap="round" stroke-linejoin="round"/>
</svg>
