<svg xmlns="http://www.w3.org/2000/svg" viewBox="0 0 20 19.98"><defs><style>.cls-1{fill:#111}</style></defs><g id="레이어_2" data-name="레이어 2"><g id="레이어_1-2" data-name="레이어 1"><path class="cls-1" d="M10 10a5 5 0 115-5 5 5 0 01-5 5zm0-9a4.11 4.11 0 00-4 4 4.08 4.08 0 004 4 4.09 4.09 0 004-4 4.12 4.12 0 00-4-4z"/><path class="cls-1" d="M19.49 20a.5.5 0 01-.5-.46C18.57 14.09 14.71 10 10 10s-8.58 4.09-9 9.52a.5.5 0 01-.55.48C.18 20 0 19.4 0 19A9.9 9.9 0 0110 9a9.9 9.9 0 0110 10c0 .41-.19 1-.47 1z"/></g></g></svg>