<svg xmlns="http://www.w3.org/2000/svg" viewBox="0 0 28 20"><defs><style>.cls-3{fill:#333}</style></defs><g id="레이어_2" data-name="레이어 2"><g id="레이어_1-2" data-name="레이어 1"><rect x="1" y="2" width="6" height="15" rx=".84" ry=".84" fill="#fff"/><path class="cls-3" d="M6.5 8a.5.5 0 00-.5.5v3a.5.5 0 001 0v-3a.5.5 0 00-.5-.5z"/><path class="cls-3" d="M26 2H2a2 2 0 00-2 2v12a2 2 0 002 2h24a1.86 1.86 0 002-2V4a2 2 0 00-2-2zm1 14a1 1 0 01-1 1H7v-1.5a.51.51 0 00-.52-.5.48.48 0 00-.48.5V17H2a1 1 0 01-1-1V4a1 1 0 011-1h4v1.47a.5.5 0 001 0V3h19a1 1 0 011 1z"/><path class="cls-3" d="M16 14l-5.86-5.19a.47.47 0 01.67-.67L16 12.65l7.19-6.51a.47.47 0 01.67.67z"/></g></g></svg>