<svg xmlns="http://www.w3.org/2000/svg" viewBox="0 0 28 20"><defs><style>.cls-2{fill:#111}</style></defs><g id="레이어_2" data-name="레이어 2"><g id="레이어_1-2" data-name="레이어 1"><path class="cls-2" d="M6.5 7a.5.5 0 00-.5.5v5a.5.5 0 001 0v-5a.5.5 0 00-.5-.5z"/><path class="cls-2" d="M26 2H2a2 2 0 00-2 2v12a2 2 0 002 2h24a1.86 1.86 0 002-2V4a2 2 0 00-2-2zm1 14a1 1 0 01-1 1H7v-1.5a.51.51 0 00-.52-.5.48.48 0 00-.48.5V17H2a1 1 0 01-1-1V4a1 1 0 011-1h4v1.47a.5.5 0 001 0V3h19a1 1 0 011 1z"/><path class="cls-2" d="M23.5 9.57h-1.93l.91-2.77a.5.5 0 00-.32-.63.5.5 0 00-.64.32l-1 3.08H19l-1-3.08a.56.56 0 00-.05-.08l-.06-.08h-.51l-.09.06h-.07l-.06.08a.56.56 0 00-.05.08L16 9.57h-1.51l-1-3.08a.5.5 0 00-.64-.32.5.5 0 00-.32.63l.91 2.77H11.5a.5.5 0 000 1h2.26l1 3.09a.41.41 0 00.16.21l.1.06h.32l.1-.06a.41.41 0 00.16-.21l1-3.09h1.52l1 3.09a.41.41 0 00.16.21l.1.06h.32l.1-.06a.41.41 0 00.16-.21l1-3.09h2.54a.5.5 0 000-1zm-8.25 2.33l-.43-1.33h.86zm1.82-2.33l.43-1.32.43 1.32zm2.68 2.33l-.43-1.33h.86z"/></g></g></svg>