<svg xmlns="http://www.w3.org/2000/svg" viewBox="0 0 86.71 78.06"><defs><style>.cls-1{fill:#161616}.cls-5{fill:#404041}</style></defs><g id="레이어_2" data-name="레이어 2"><g id="레이어_1-2" data-name="레이어 1"><path class="cls-1" d="M4.23 26.59c0 .77.34 1.14 1 1.14h16.5a1 1 0 001.11-1.14c0-.78.65-1.18-.05-1.18H19v-9.5h2.79c.71 0 1.08-.4 1.08-1.21s1-1.18.3-1.18H3.3c-.71 0 .93.4.93 1.18s.34 1.21 1 1.21h10.93v9.5h-4.72v-6.64A1.31 1.31 0 0010 17.29H6.3l1 1.42a2.34 2.34 0 00.68.3 1.08 1.08 0 01.64.54 11 11 0 01.06 1.21v4.65H3.27c-.71 0 .96.4.96 1.18zM28.16 34.1H.18c-.67 0 .75.4.75 1.21s.34 1.21 1 1.21h23.72M55.07 38.88h-13.8c-.4 0-.6-.23-.6-.71v-4.64c0-1-.48-1.55-1.42-1.55h-4.5l2.75 2.39a1.86 1.86 0 01.3 1.24v2.77c0 1.95 1 2.93 3.1 2.93h12.23c.7 0 1.07-.41 1.07-1.22s1.54-1.21.87-1.21z"/><path class="cls-1" d="M42.38 22.28h2.76v12.31l.64-1.17 2.15-1.57V13.08c0-1-.47-1.48-1.41-1.48h-4.43c-.63 0-.07.24.39.57L44.94 14a2.36 2.36 0 01.2 1.21v4.71h-3.83"/><path class="cls-1" d="M43.09 28c0-.78-.37-1.18-1-1.18h-7.25c-.54 0-.78-.27-.78-.84v-3.3h5.46c.88 0 1.35-.58 1.35-1.75v-5.42c0-1-.41-1.49-1.18-1.49h-10c-.71 0 .58.41.58 1.18s.33 1.22 1 1.22H38v3.9h-8.79c-.61 0 .37.31.37.85 0 .3.07.5.24.6a1.1 1.1 0 00.5.3 3.57 3.57 0 01.68.48 1.74 1.74 0 01.23 1V27c0 1.48.61 2.19 1.82 2.19h9c.67-.01 1.04-.41 1.04-1.19zM48 11.09l2.46 1.42a2.73 2.73 0 01.2 1.28v21.63l.64-1.29 2.15-1.65c0-.35.07-.89.07-1.45V11.6a1.28 1.28 0 00-1.45-1.42h-4.5c-.8 0-.44.26.43.91zM84.9 34.1H57.41c-.67 0 .8.4.8 1.21s.34 1.21 1 1.21h23.72M62.65 28.61a32.19 32.19 0 008.9-5.36l6.9 5.12a2 2 0 001.35.41 1.31 1.31 0 001.08-.58 1.43 1.43 0 00.12-1.14 1.88 1.88 0 00-.8-1l-7-4.28a17 17 0 004.24-5.62 2 2 0 000-1.72 1.77 1.77 0 00-1.65-.77H61.7c-.71 0 .75.4.75 1.18s.34 1.21 1 1.21h10.49a21.45 21.45 0 01-4.75 5.79A34.27 34.27 0 0161.75 27c-.61.3-.78.7-.51 1.21s.76.67 1.41.4z"/><path transform="rotate(-45.01 22.707 3.314)" stroke-miterlimit="10" fill="#4090cd" stroke="#4191ce" d="M20.05 2.29h5.32v2.05h-5.32z"/><path transform="rotate(-45 53.062 3.311)" fill="#b58aba" stroke="#b589b9" stroke-miterlimit="10" d="M50.4 2.29h5.32v2.05H50.4z"/><path transform="rotate(-45.01 83.393 3.317)" fill="#ef9852" stroke="#f09851" stroke-miterlimit="10" d="M80.73 2.29h5.32v2.05h-5.32z"/><path class="cls-5" d="M39.74 60.42h-4.68v-8.33L33.93 51h-4.4c-.63 0-.22.29 1 .64 0 0 1.92.32 2.1 1.68a3.78 3.78 0 01.05.64v23.59l.55-.75c.65-1.69 1.73-1.16 1.8-2.49V62.44h3.38M29.71 66.13h-1.37a5.15 5.15 0 00.41-2.35v-7.43c0-.91-.38-1.38-1.16-1.38H16.9c-.61 0 .11.31.59.72L18.82 57a10.94 10.94 0 01.06 1.32v10.51h.24a1.3 1.3 0 001.21-.78h7.9c.58 0 .88-.33.88-1s.97-.81.6-.92zm-3.28 0h-5.26v-9.2h5.23zM63.6 49.93l2.16 1a1.47 1.47 0 01.18.88v14.82l.57-.88 1.89-1.14c0-.24.06-.61.06-1V50.28c0-.65-.44-1-1.27-1h-4c-.68.02-.37.2.41.65z"/><path class="cls-5" d="M58.38 51.22l2.17.83a1.07 1.07 0 01.18.74v12.65l.56-.75 1.89-1a8.06 8.06 0 00.07-.85V51.51c0-.55-.45-.82-1.28-.82H58c-.71 0-.39.14.38.53zM63.24 62.09V51.85"/><path class="cls-5" d="M60.93 52.09c.12.18-.18 1.07-.18 1.6v4.51H57a21.46 21.46 0 001.24-4 1.58 1.58 0 00-.18-1 1 1 0 00-.89-.45h-9.25c-.62 0 .46.36.46 1s.3 1.07.92 1.07h6a16.2 16.2 0 01-1.12 3.41h-5c-.66 0-.95.36-.95 1s.32 1.07 1 1.07h3.86a1 1 0 01-.18.26A17.39 17.39 0 0148 65.53c-.51.35-.62.77-.36 1.18s.71.51 1.37.09a20.66 20.66 0 005.81-5.07A18.89 18.89 0 0056 60a.89.89 0 00.74.27h4v4.54M59.77 68.44zM69.32 76.38a1.33 1.33 0 00-.65-.95l-7.06-4.6a9.15 9.15 0 00.92-2.13 2.24 2.24 0 00-.15-1.48 1.59 1.59 0 00-1.51-.66h-3.46c-.32 0 .07.1.37.29a6.28 6.28 0 012 1.59l.06.07a.3.3 0 010 .29 16.52 16.52 0 01-2.7 4 21.35 21.35 0 01-4.39 3.83c-.62.41-.77.8-.44 1.15s.83.3 1.54-.06a21.15 21.15 0 005.52-4.15c.41-.44.83-.89 1.18-1.33l6.53 5a2 2 0 001.16.47 1.22 1.22 0 00.89-.47 1.37 1.37 0 00.19-.86z"/><path class="cls-5" d="M59.78 68.45a.56.56 0 010 .08z"/></g></g></svg>