<svg width="207" height="64" viewBox="0 0 207 64" fill="none" xmlns="http://www.w3.org/2000/svg">
<path d="M57.1868 22.9853C57.1318 15.6343 48.2958 15.6953 48.2958 15.6953L32.1148 15.8183L25.7148 45.4373L34.1788 45.3783L35.7668 37.9013C37.1628 34.6123 41.4368 35.6713 41.4368 35.6713C45.8218 36.0753 44.4408 40.6593 44.4408 40.6593L43.7029 45.4053L51.8248 45.3503L52.8708 37.3623C52.8468 32.9503 49.5258 32.6103 49.5258 32.6103C58.3358 29.9713 57.1868 22.9853 57.1868 22.9853ZM47.1738 25.2033C47.0078 27.6803 45.3688 27.4073 45.3688 27.4073H38.4748L39.3778 22.6973L45.0538 22.6853C47.5168 23.0193 47.1738 25.2033 47.1738 25.2033Z" fill="#221E1F"/>
<path d="M1.74902 15.5547H26.847L25.098 23.7247H16.925L12.256 45.8987H2.33902L7.00302 23.7247H0L1.74902 15.5547Z" fill="#221E1F"/>
<path d="M158.288 46.7606C155.032 46.5986 152.256 45.0356 149.919 42.0716C147.441 38.8706 146.509 35.1886 147.14 31.0166C147.809 26.5166 149.796 22.7676 153.105 19.7716C156.236 16.9746 159.505 15.6636 162.9 15.8446C166.29 16.0136 169.178 17.5826 171.513 20.5496C174.087 23.8216 175.031 27.7506 174.348 32.3456C173.893 35.4486 172.676 38.1826 170.76 40.5656C169.095 42.6316 167.028 44.2296 164.579 45.3666C162.363 46.4066 160.27 46.8676 158.288 46.7606ZM161.829 23.1376C159.999 23.0396 158.231 23.7946 156.55 25.4396C154.855 27.0376 153.847 28.9916 153.501 31.2766C153.173 33.4086 153.651 35.3246 154.952 37.0506C156.169 38.6896 157.635 39.5626 159.37 39.6426C160.984 39.7286 162.636 39.0876 164.375 37.7346C166.319 36.1836 167.466 34.3026 167.794 32.0846C168.124 29.8416 167.689 27.8156 166.481 25.9976C165.278 24.1886 163.731 23.2356 161.829 23.1376Z" fill="#00519B"/>
<path d="M188.138 47.2717C185.47 47.2717 183.187 46.8417 181.266 45.9967C177.988 44.4987 176.793 41.9417 177.741 38.3367L178.246 36.4287H185.661C185.277 38.0987 185.732 39.2667 187.043 39.9637C187.793 40.4027 188.819 40.6217 190.117 40.6217C191.239 40.6217 192.224 40.4987 193.116 40.2447C194.851 39.7817 195.889 38.9357 196.203 37.7237C196.539 36.4637 195.917 35.5797 194.363 35.0927C194.293 35.0927 192.278 34.7947 188.343 34.1617C185.634 33.7567 183.733 33.0147 182.637 31.9597C181.134 30.4637 180.79 28.1617 181.61 25.0257C182.651 21.1177 185.034 18.3207 188.768 16.6417C191.116 15.5817 193.658 15.0547 196.414 15.0547C199.061 15.0547 201.279 15.6717 203.059 16.9167C205.698 18.6877 206.684 21.5137 206.055 25.3977H198.817C198.875 23.6047 198.489 22.3677 197.614 21.7037C197.069 21.2857 196.221 21.0847 195.085 21.0847C193.977 21.0847 192.897 21.2747 191.843 21.6677C190.161 22.3137 189.123 23.3677 188.738 24.8357C188.48 25.8517 189.148 26.6277 190.75 27.1547C192.772 27.5717 194.773 27.9957 196.768 28.4337C199.45 29.0777 201.348 29.9917 202.45 31.1957C203.965 32.8227 204.321 35.1547 203.526 38.1957C202.542 41.9007 200.04 44.4987 195.98 45.9967C193.634 46.8427 191.034 47.2717 188.138 47.2717Z" fill="#00519B"/>
<path d="M65.939 15.4688H74.693L68.422 45.9568H59.668L65.939 15.4688Z" fill="#221E1F"/>
<path d="M119.988 15.7617H128.156L125.898 27.4368H134.61L137.158 15.4688H145.787L139.578 45.8198H131.315L133.437 33.8488H124.724L122.619 45.5247H114.668L119.988 15.7617Z" fill="#00519B"/>
<path d="M89.3061 34.0325C107.519 36.6725 117.712 26.4355 117.712 17.0615C117.712 7.69055 104.956 -1.00146 89.3061 0.0935442C69.7251 1.46254 58.6641 15.6775 58.6641 15.6775C74.7641 6.68254 89.2151 6.46554 89.2151 6.46554C99.4941 6.19754 107.954 10.8015 108.112 16.7565C108.268 22.7185 100.067 27.7605 89.7881 28.0335C89.7881 28.0335 87.0771 27.9865 86.0671 27.5125L87.7531 15.3205H78.9851L72.4601 45.8106H82.7181L84.6761 32.9396C84.6761 32.9396 89.0411 33.9935 89.3061 34.0325Z" fill="#00519B"/>
<path d="M38.0949 63.5524C38.0949 63.6284 38.0919 63.6814 38.0859 63.7104C38.0809 63.7394 38.0369 63.7514 37.9569 63.7514H37.6699C37.5319 63.7514 37.4609 63.6874 37.4609 63.5524V53.3474C37.4609 53.2144 37.5319 53.1484 37.6699 53.1484H37.8829C38.0239 53.1484 38.0949 53.2144 38.0949 53.3474V63.5524Z" fill="#282828"/>
<path d="M48.5781 63.6249C48.3971 63.6819 48.2291 63.7289 48.0721 63.7679C47.9161 63.8049 47.75 63.8339 47.575 63.8539C47.398 63.8739 47.2101 63.8889 47.0091 63.9029C46.8071 63.9189 46.5711 63.9239 46.3011 63.9239C45.4361 63.9339 44.651 63.8219 43.946 63.5879C43.244 63.3539 42.636 63.0059 42.13 62.5489C41.621 62.0899 41.231 61.5199 40.954 60.8379C40.678 60.1539 40.5391 59.3729 40.5391 58.4939C40.5391 57.6249 40.6791 56.8459 40.9601 56.1579C41.2431 55.4699 41.6401 54.8879 42.1511 54.4159C42.6661 53.9429 43.272 53.5839 43.976 53.3339C44.68 53.0859 45.4551 52.9609 46.3011 52.9609C46.4491 52.9609 46.6321 52.9629 46.8441 52.9689C47.0551 52.9729 47.2661 52.9829 47.4781 52.9979C47.6871 53.0119 47.893 53.0349 48.088 53.0679C48.283 53.1049 48.442 53.1419 48.563 53.1909C48.644 53.2179 48.7051 53.2459 48.7461 53.2689C48.7861 53.2919 48.807 53.3429 48.807 53.4189V53.5479C48.807 53.6259 48.7881 53.6809 48.7531 53.7139C48.7171 53.7469 48.658 53.7549 48.579 53.7339C48.378 53.6769 48.1891 53.6339 48.0131 53.6069C47.8361 53.5779 47.6601 53.5559 47.4861 53.5429C47.3101 53.5269 47.1261 53.5179 46.9351 53.5119C46.7451 53.5099 46.5341 53.5059 46.3021 53.5059C45.5481 53.5059 44.8571 53.6229 44.2271 53.8579C43.5981 54.0919 43.057 54.4259 42.606 54.8619C42.152 55.2959 41.8 55.8209 41.549 56.4379C41.298 57.0549 41.173 57.7389 41.173 58.4949C41.173 59.2589 41.2821 59.9419 41.5031 60.5439C41.7241 61.1459 42.0491 61.6569 42.4781 62.0769C42.9061 62.4989 43.431 62.8189 44.062 63.0439C44.689 63.2709 45.4061 63.3819 46.2111 63.3819C46.3921 63.3819 46.591 63.3759 46.808 63.3679C47.022 63.3579 47.2431 63.3449 47.4641 63.3229C47.6851 63.3029 47.8901 63.2799 48.0821 63.2449C48.2721 63.2119 48.433 63.1669 48.563 63.1079C48.634 63.0899 48.688 63.0979 48.721 63.1309C48.755 63.1639 48.7761 63.2129 48.7761 63.2809V63.4079C48.7761 63.4839 48.7581 63.5349 48.7281 63.5579C48.6981 63.5809 48.6461 63.6049 48.5781 63.6249Z" fill="#282828"/>
<path d="M50.1163 53.6935C49.9743 53.6935 49.9062 53.6274 49.9062 53.4924V53.3474C49.9062 53.2144 49.9743 53.1484 50.1163 53.1484H57.4763C57.6193 53.1484 57.6893 53.2144 57.6893 53.3474V53.4924C57.6893 53.6274 57.6193 53.6935 57.4763 53.6935H54.1133V63.5524C54.1133 63.6874 54.0453 63.7514 53.9033 63.7514H53.6923C53.5503 63.7514 53.4803 63.6874 53.4803 63.5524V53.6935H50.1163Z" fill="#282828"/>
<path d="M63.5151 62.9211C63.9461 63.1691 64.4611 63.3271 65.0621 63.3941C65.6581 63.4601 66.2341 63.4171 66.7871 63.2651C67.3401 63.1131 67.8121 62.8471 68.2001 62.4701C68.5861 62.0931 68.7791 61.5891 68.7791 60.9581C68.7791 60.5561 68.6371 60.2181 68.3561 59.9401C68.0751 59.6621 67.7241 59.4131 67.3081 59.1861C66.8921 58.9631 66.4351 58.7481 65.9431 58.5431C65.4491 58.3361 64.9941 58.1041 64.5781 57.8461C64.1621 57.5881 63.8111 57.2891 63.5281 56.9461C63.2491 56.6021 63.1071 56.1761 63.1071 55.6711C63.1071 55.2301 63.1981 54.8491 63.3781 54.5231C63.5581 54.1991 63.8011 53.9271 64.1031 53.7071C64.4051 53.4871 64.7511 53.3121 65.1421 53.1841C65.5371 53.0551 65.9411 52.9731 66.3571 52.9401C66.7751 52.9091 67.1921 52.917 67.6101 52.969C68.0281 53.02 68.4121 53.1121 68.7641 53.2331C68.8941 53.2741 68.9441 53.3541 68.9131 53.4791L68.8691 53.6651C68.8191 53.8001 68.7331 53.8431 68.6131 53.7941C68.3001 53.6591 67.9631 53.5671 67.6021 53.5131C67.2401 53.4621 66.8771 53.4521 66.5151 53.4881C66.1531 53.5191 65.8021 53.5951 65.4661 53.7091C65.1291 53.8241 64.8331 53.9751 64.5761 54.1601C64.3181 54.3481 64.1161 54.5681 63.9651 54.8261C63.8141 55.0841 63.7391 55.3771 63.7391 55.7011C63.7391 56.1031 63.8811 56.447 64.1621 56.732C64.4431 57.019 64.7961 57.281 65.2171 57.521C65.6401 57.761 66.0951 57.9861 66.5841 58.2031C67.0701 58.4161 67.5271 58.6541 67.9481 58.9101C68.3701 59.1701 68.7201 59.4591 68.9961 59.7871C69.2731 60.1091 69.4111 60.5001 69.4111 60.9611C69.4011 61.4381 69.2981 61.856 69.1011 62.215C68.9041 62.574 68.6461 62.881 68.3261 63.133C68.0021 63.385 67.6321 63.582 67.2091 63.719C66.7851 63.858 66.3501 63.9441 65.8961 63.9771C65.4441 64.0121 64.9911 63.9971 64.5381 63.9341C64.0861 63.8731 63.6681 63.7601 63.2871 63.5981C63.1361 63.5411 63.0751 63.4401 63.1051 63.2971L63.1961 63.0821C63.2681 62.8971 63.3721 62.8431 63.5151 62.9211Z" fill="#282828"/>
<path d="M78.7497 59.8809C78.7497 60.3599 78.6797 60.8399 78.5377 61.3219C78.3957 61.8039 78.1697 62.2419 77.8597 62.6329C77.5467 63.0259 77.1487 63.3459 76.6667 63.5939C76.1857 63.8419 75.5957 63.9669 74.9007 63.9669C74.2087 63.9669 73.6207 63.8419 73.1357 63.5939C72.6527 63.3459 72.2547 63.0259 71.9447 62.6329C71.6327 62.2419 71.4057 61.8049 71.2657 61.3219C71.1257 60.8389 71.0547 60.3589 71.0547 59.8809C71.0547 59.4139 71.1257 58.9359 71.2657 58.4489C71.4057 57.9619 71.6327 57.5229 71.9447 57.1309C72.2557 56.7379 72.6527 56.4179 73.1357 56.1699C73.6197 55.9219 74.2077 55.7969 74.9007 55.7969C75.5947 55.7969 76.1847 55.9219 76.6667 56.1699C77.1487 56.4179 77.5467 56.7379 77.8597 57.1309C78.1697 57.5239 78.3957 57.9629 78.5377 58.4489C78.6797 58.9349 78.7497 59.4139 78.7497 59.8809ZM78.1147 59.8809C78.1147 59.4629 78.0577 59.0409 77.9477 58.6189C77.8377 58.1989 77.6537 57.8199 77.3977 57.4799C77.1417 57.1419 76.8097 56.8669 76.4037 56.6559C75.9957 56.4449 75.4957 56.3419 74.9007 56.3419C74.3077 56.3419 73.8087 56.4459 73.4007 56.6559C72.9937 56.8669 72.6617 57.1419 72.4047 57.4799C72.1467 57.8199 71.9657 58.1989 71.8537 58.6189C71.7427 59.0409 71.6887 59.4629 71.6887 59.8809C71.6887 60.3009 71.7427 60.7229 71.8537 61.1429C71.9647 61.5649 72.1467 61.9439 72.4047 62.2839C72.6617 62.6219 72.9937 62.8969 73.4007 63.1059C73.8087 63.3189 74.3077 63.4219 74.9007 63.4219C75.4957 63.4219 75.9957 63.3179 76.4037 63.1059C76.8097 62.8969 77.1417 62.6219 77.3977 62.2839C77.6537 61.9439 77.8367 61.5649 77.9477 61.1429C78.0577 60.7229 78.1147 60.3009 78.1147 59.8809Z" fill="#282828"/>
<path d="M81.677 63.5524C81.677 63.6874 81.606 63.7514 81.466 63.7514H81.255C81.113 63.7514 81.043 63.6874 81.043 63.5524V52.5624C81.043 52.4274 81.113 52.3594 81.255 52.3594H81.466C81.606 52.3594 81.677 52.4274 81.677 52.5624V63.5524Z" fill="#282828"/>
<path d="M90.2898 56.199C90.2898 56.066 90.3598 56 90.4988 56H90.7108C90.8528 56 90.9238 56.066 90.9238 56.199V61.961L90.9538 63.553C90.9538 63.688 90.8828 63.752 90.7408 63.752H90.5758C90.4338 63.752 90.3638 63.688 90.3638 63.553V62.119C90.2828 62.291 90.1678 62.484 90.0158 62.699C89.8668 62.916 89.6718 63.117 89.4368 63.31C89.2008 63.499 88.9158 63.66 88.5828 63.789C88.2498 63.918 87.8688 63.984 87.4368 63.984C86.9028 63.984 86.4478 63.912 86.0728 63.775C85.6948 63.636 85.3878 63.431 85.1508 63.158C84.9168 62.885 84.7408 62.549 84.6298 62.148C84.5188 61.746 84.4648 61.287 84.4648 60.771V56.199C84.4648 56.066 84.5358 56 84.6778 56H84.8878C85.0288 56 85.0988 56.066 85.0988 56.199V60.613C85.0988 61.074 85.1428 61.482 85.2268 61.84C85.3128 62.197 85.4498 62.5 85.6418 62.744C85.8328 62.986 86.0808 63.168 86.3878 63.287C86.6968 63.408 87.0708 63.457 87.5118 63.437C88.0048 63.417 88.4288 63.296 88.7798 63.074C89.1338 62.847 89.4219 62.584 89.6469 62.277C89.8749 61.97 90.0368 61.648 90.1378 61.308C90.2388 60.97 90.2888 60.677 90.2888 60.427L90.2898 56.199Z" fill="#282828"/>
<path d="M94.4829 56.1036V54.0526C94.4829 53.9176 94.5529 53.8516 94.6939 53.8516H94.9059C95.0459 53.8516 95.1169 53.9176 95.1169 54.0526V56.1036H96.9729C97.1139 56.1036 97.1839 56.1696 97.1839 56.3026V56.4476C97.1839 56.5826 97.1139 56.6466 96.9729 56.6466H95.1169V60.8026C95.1169 61.3276 95.1219 61.7456 95.1319 62.0586C95.1429 62.3676 95.1629 62.5796 95.1929 62.6956C95.2339 62.8776 95.2989 63.0156 95.3879 63.1096C95.4799 63.2056 95.5849 63.2776 95.7069 63.3246C95.8259 63.3736 95.9539 63.4026 96.0909 63.4106C96.2259 63.4206 96.3699 63.4266 96.5209 63.4266C96.6409 63.4266 96.7719 63.4106 96.9139 63.3756C97.0549 63.3426 97.1809 63.3056 97.2919 63.2686C97.4109 63.2216 97.4799 63.2546 97.5009 63.3706L97.5329 63.5716C97.5409 63.6456 97.5329 63.7006 97.5009 63.7336C97.4729 63.7666 97.4199 63.7946 97.3529 63.8136C97.2419 63.8526 97.0949 63.8876 96.9149 63.9206C96.7329 63.9536 96.5709 63.9716 96.4319 63.9716C96.2719 63.9716 96.1069 63.9636 95.9419 63.9506C95.7769 63.9346 95.6189 63.9036 95.4659 63.8486C95.3149 63.7976 95.1729 63.7196 95.0359 63.6196C94.8989 63.5196 94.7879 63.3876 94.6959 63.2266C94.5659 63.0056 94.4989 62.6776 94.4929 62.2446C94.4889 61.8086 94.4849 61.3286 94.4849 60.8036V56.6476H92.8399C92.6989 56.6476 92.6289 56.5836 92.6289 56.4486V56.3036C92.6289 56.1706 92.6989 56.1046 92.8399 56.1046H94.4829V56.1036Z" fill="#282828"/>
<path d="M99.0977 53.2911C99.0977 53.1581 99.1487 53.0411 99.2477 52.9391C99.3477 52.8391 99.4686 52.7891 99.6086 52.7891C99.7486 52.7891 99.8726 52.8401 99.9776 52.9391C100.084 53.0411 100.138 53.1581 100.138 53.2911C100.138 53.4241 100.084 53.5391 99.9776 53.6351C99.8726 53.7311 99.7486 53.7801 99.6086 53.7801C99.4686 53.7801 99.3467 53.7311 99.2477 53.6351C99.1487 53.5391 99.0977 53.4241 99.0977 53.2911ZM99.9417 63.5531C99.9417 63.6881 99.8717 63.7521 99.7317 63.7521H99.5197C99.3767 63.7521 99.3087 63.6881 99.3087 63.5531V56.1991C99.3087 56.0661 99.3767 56.0001 99.5197 56.0001H99.7317C99.8717 56.0001 99.9417 56.0661 99.9417 56.1991V63.5531Z" fill="#282828"/>
<path d="M109.808 59.8809C109.808 60.3599 109.737 60.8399 109.595 61.3219C109.454 61.8039 109.228 62.2419 108.918 62.6329C108.605 63.0259 108.208 63.3459 107.725 63.5939C107.244 63.8419 106.655 63.9669 105.96 63.9669C105.265 63.9669 104.678 63.8419 104.196 63.5939C103.711 63.3459 103.314 63.0259 103.003 62.6329C102.692 62.2419 102.466 61.8049 102.325 61.3219C102.183 60.8399 102.113 60.3589 102.113 59.8809C102.113 59.4139 102.183 58.9359 102.325 58.4489C102.466 57.9629 102.692 57.5229 103.003 57.1309C103.315 56.7379 103.711 56.4179 104.196 56.1699C104.677 55.9219 105.264 55.7969 105.96 55.7969C106.654 55.7969 107.243 55.9219 107.725 56.1699C108.208 56.4179 108.605 56.7379 108.918 57.1309C109.228 57.5239 109.454 57.9629 109.595 58.4489C109.737 58.9349 109.808 59.4139 109.808 59.8809ZM109.175 59.8809C109.175 59.4629 109.117 59.0409 109.008 58.6189C108.899 58.1989 108.713 57.8199 108.457 57.4799C108.201 57.1419 107.87 56.8669 107.463 56.6559C107.055 56.4449 106.553 56.3419 105.961 56.3419C105.368 56.3419 104.867 56.4459 104.46 56.6559C104.052 56.8669 103.722 57.1419 103.464 57.4799C103.209 57.8199 103.024 58.1989 102.913 58.6189C102.803 59.0409 102.748 59.4629 102.748 59.8809C102.748 60.3009 102.803 60.7229 102.913 61.1429C103.023 61.5649 103.209 61.9439 103.464 62.2839C103.722 62.6219 104.052 62.8969 104.46 63.1059C104.867 63.3189 105.368 63.4219 105.961 63.4219C106.553 63.4219 107.055 63.3179 107.463 63.1059C107.87 62.8969 108.201 62.6219 108.457 62.2839C108.713 61.9439 108.898 61.5649 109.008 61.1429C109.117 60.7229 109.175 60.3009 109.175 59.8809Z" fill="#282828"/>
<path d="M112.587 63.5531C112.587 63.6881 112.516 63.7521 112.374 63.7521H112.164C112.022 63.7521 111.953 63.6881 111.953 63.5531V57.8211C111.953 57.5441 111.951 57.2741 111.944 57.0101C111.941 56.7481 111.927 56.4791 111.907 56.1991C111.897 56.0661 111.968 56.0001 112.118 56.0001H112.374C112.516 56.0001 112.587 56.0661 112.587 56.1991V57.1331C112.687 56.9611 112.808 56.7991 112.947 56.6451C113.089 56.4931 113.267 56.3581 113.485 56.2371C113.699 56.1181 113.96 56.0221 114.266 55.9501C114.573 55.8801 114.939 55.8391 115.362 55.8291C115.894 55.8191 116.349 55.8861 116.727 56.0281C117.104 56.1731 117.411 56.3781 117.647 56.6451C117.882 56.9131 118.058 57.2311 118.168 57.5981C118.277 57.9671 118.335 58.3691 118.335 58.8091V63.5531C118.335 63.6881 118.264 63.7521 118.122 63.7521H117.911C117.77 63.7521 117.701 63.6881 117.701 63.5531V59.1391C117.701 58.2131 117.515 57.5201 117.148 57.0611C116.781 56.6041 116.155 56.3721 115.27 56.3721C114.86 56.3721 114.485 56.4481 114.155 56.6041C113.821 56.7541 113.542 56.9501 113.309 57.1821C113.079 57.4161 112.9 57.6741 112.773 57.9551C112.649 58.2381 112.586 58.5041 112.586 58.7521V63.5531H112.587Z" fill="#282828"/>
<path d="M125.471 63.7514C125.329 63.7514 125.258 63.6874 125.258 63.5524V53.3474C125.258 53.2144 125.329 53.1484 125.471 53.1484H125.68C125.822 53.1484 125.892 53.2144 125.892 53.3474V63.2084H130.705C130.847 63.2084 130.918 63.2744 130.918 63.4074V63.5524C130.918 63.6874 130.847 63.7514 130.705 63.7514H125.471Z" fill="#282828"/>
<path d="M132.572 60.1529C132.561 60.6319 132.619 61.0729 132.745 61.4729C132.872 61.8729 133.066 62.2229 133.333 62.5199C133.599 62.8169 133.936 63.0489 134.344 63.2129C134.752 63.3809 135.228 63.4649 135.771 63.4649C136.171 63.4649 136.549 63.4299 136.904 63.3579C137.254 63.2859 137.58 63.1689 137.883 63.0039C138.012 62.9489 138.078 62.9829 138.078 63.1059V63.4069C138.078 63.4929 138.022 63.5609 137.911 63.6079C137.579 63.7329 137.232 63.8249 136.871 63.8869C136.509 63.9499 136.116 63.9829 135.693 63.9829C134.448 63.9829 133.509 63.6409 132.88 62.9649C132.25 62.2849 131.938 61.2519 131.938 59.8669C131.938 59.3419 132.014 58.8339 132.171 58.3419C132.327 57.8479 132.554 57.4139 132.85 57.0369C133.147 56.6579 133.509 56.3569 133.935 56.1349C134.364 55.9099 134.855 55.7969 135.408 55.7969C135.991 55.7969 136.49 55.9009 136.908 56.1059C137.326 56.3109 137.665 56.5899 137.926 56.9459C138.19 57.2979 138.381 57.7099 138.508 58.1749C138.634 58.6439 138.697 59.1439 138.697 59.6689C138.697 59.7939 138.696 59.8879 138.688 59.9559C138.684 60.0219 138.664 60.0689 138.637 60.0969C138.605 60.1279 138.552 60.1439 138.477 60.1479C138.401 60.1539 138.293 60.1539 138.152 60.1539H132.572V60.1529ZM138.062 59.6119C138.073 59.2269 138.037 58.8409 137.957 58.4499C137.876 58.0569 137.734 57.7079 137.527 57.3969C137.319 57.0839 137.051 56.8329 136.719 56.6369C136.387 56.4399 135.98 56.3419 135.497 56.3419C135.014 56.3419 134.594 56.4399 134.238 56.6369C133.881 56.8319 133.577 57.0859 133.332 57.4029C133.086 57.7189 132.901 58.0689 132.775 58.4579C132.648 58.8429 132.58 59.2279 132.57 59.6119H138.062Z" fill="#282828"/>
<path d="M141.064 56.9869C141.013 57.0159 140.966 57.0219 140.92 57.0079C140.874 56.9959 140.851 56.9629 140.851 56.9139V56.5859C140.851 56.4629 140.922 56.3609 141.064 56.2829C141.416 56.1009 141.789 55.9759 142.181 55.9019C142.574 55.8319 143.009 55.7969 143.494 55.7969C144.498 55.7969 145.226 56.0219 145.673 56.4709C146.119 56.9219 146.346 57.6099 146.346 58.5349V62.1309C146.346 62.4179 146.349 62.6739 146.359 62.8989C146.37 63.1239 146.384 63.3419 146.407 63.5509C146.407 63.6859 146.336 63.7499 146.194 63.7499H145.938C145.796 63.7499 145.727 63.6859 145.727 63.5509V62.4489C145.616 62.6949 145.456 62.9139 145.252 63.0989C145.045 63.2849 144.809 63.4449 144.542 63.5779C144.275 63.7129 143.991 63.8119 143.689 63.8809C143.387 63.9469 143.091 63.9829 142.799 63.9829C141.984 63.9829 141.326 63.7879 140.831 63.4009C140.332 63.0139 140.082 62.4519 140.082 61.7169C140.082 60.5409 140.665 59.7349 141.833 59.2929C142.256 59.1329 142.771 59.0229 143.387 58.9729C143.999 58.9199 144.685 58.8929 145.438 58.8929H145.726V58.4629C145.726 58.1679 145.693 57.8889 145.626 57.6249C145.561 57.3629 145.444 57.1369 145.279 56.9509C145.114 56.7649 144.887 56.6169 144.601 56.5059C144.315 56.3969 143.944 56.3419 143.493 56.3419C143.04 56.3419 142.612 56.3969 142.209 56.5059C141.808 56.6179 141.428 56.7759 141.064 56.9869ZM145.304 59.4969C144.981 59.4869 144.664 59.4809 144.345 59.4809C144.03 59.4809 143.731 59.4929 143.449 59.5159C143.168 59.5389 142.908 59.5769 142.673 59.6229C142.437 59.6719 142.237 59.7339 142.076 59.8089C141.865 59.9159 141.673 60.0219 141.503 60.1269C141.331 60.2309 141.19 60.3569 141.073 60.5059C140.956 60.6549 140.87 60.8259 140.808 61.0219C140.747 61.2189 140.717 61.4579 140.717 61.7449C140.717 62.3019 140.919 62.7219 141.321 63.0149C141.723 63.3059 142.243 63.4509 142.875 63.4509C143.279 63.4509 143.653 63.3919 144.001 63.2729C144.346 63.1539 144.647 62.9719 144.903 62.7279C145.16 62.4839 145.362 62.1709 145.507 61.7889C145.653 61.4079 145.728 60.9509 145.728 60.4139V59.4979H145.304V59.4969Z" fill="#282828"/>
<path d="M154.81 52.5057C154.81 52.3707 154.881 52.3047 155.021 52.3047H155.232C155.374 52.3047 155.444 52.3707 155.444 52.5057V63.5547C155.444 63.6897 155.374 63.7537 155.232 63.7537H155.021C154.881 63.7537 154.81 63.6897 154.81 63.5547V62.1347C154.498 62.7577 154.099 63.2047 153.611 63.4847C153.122 63.7597 152.608 63.8987 152.064 63.8987C150.908 63.8987 150.032 63.5707 149.431 62.9187C148.833 62.2647 148.535 61.2387 148.535 59.8447C148.535 58.4507 148.834 57.4207 149.431 56.7627C150.032 56.1047 150.908 55.7727 152.064 55.7727C152.748 55.7727 153.319 55.9347 153.776 56.2607C154.234 56.5847 154.578 56.9837 154.81 57.4497V52.5057ZM152.064 63.3537C152.446 63.3537 152.807 63.2777 153.142 63.1247C153.479 62.9707 153.772 62.7457 154.018 62.4427C154.264 62.1417 154.456 61.7747 154.598 61.3387C154.74 60.9027 154.81 60.4007 154.81 59.8267C154.81 58.6997 154.581 57.8327 154.122 57.2267C153.664 56.6197 152.979 56.3147 152.063 56.3147C151.449 56.3147 150.956 56.4167 150.577 56.6177C150.201 56.8167 149.906 57.0827 149.695 57.4127C149.484 57.7427 149.343 58.1197 149.272 58.5457C149.202 58.9697 149.168 59.4007 149.168 59.8427C149.168 60.2807 149.202 60.7117 149.272 61.1317C149.343 61.5517 149.484 61.9267 149.695 62.2547C149.906 62.5867 150.201 62.8527 150.577 63.0517C150.957 63.2537 151.45 63.3537 152.064 63.3537Z" fill="#282828"/>
<path d="M158.159 60.1529C158.151 60.6319 158.208 61.0729 158.333 61.4729C158.459 61.8729 158.654 62.2229 158.923 62.5199C159.189 62.8169 159.525 63.0489 159.932 63.2129C160.338 63.3809 160.816 63.4649 161.358 63.4649C161.761 63.4649 162.138 63.4299 162.489 63.3579C162.843 63.2859 163.17 63.1689 163.469 63.0039C163.601 62.9489 163.665 62.9829 163.665 63.1059V63.4069C163.665 63.4929 163.61 63.5609 163.499 63.6079C163.169 63.7329 162.822 63.8249 162.46 63.8869C162.098 63.9489 161.704 63.9829 161.282 63.9829C160.034 63.9829 159.097 63.6409 158.469 62.9649C157.84 62.2849 157.527 61.2519 157.527 59.8669C157.527 59.3419 157.602 58.8339 157.759 58.3419C157.914 57.8479 158.14 57.4139 158.437 57.0369C158.733 56.6579 159.097 56.3569 159.524 56.1349C159.952 55.9099 160.442 55.7969 160.995 55.7969C161.578 55.7969 162.079 55.9009 162.497 56.1059C162.913 56.3109 163.253 56.5899 163.517 56.9459C163.776 57.2979 163.972 57.7099 164.096 58.1749C164.221 58.6439 164.284 59.1439 164.284 59.6689C164.284 59.7939 164.281 59.8879 164.278 59.9559C164.271 60.0219 164.255 60.0689 164.223 60.0969C164.193 60.1279 164.141 60.1439 164.065 60.1479C163.991 60.1539 163.881 60.1539 163.742 60.1539H158.159V60.1529ZM163.651 59.6119C163.661 59.2269 163.626 58.8409 163.545 58.4499C163.466 58.0569 163.321 57.7079 163.115 57.3969C162.909 57.0839 162.639 56.8329 162.307 56.6369C161.975 56.4399 161.568 56.3419 161.085 56.3419C160.604 56.3419 160.182 56.4399 159.824 56.6369C159.468 56.8319 159.166 57.0859 158.922 57.4029C158.674 57.7189 158.486 58.0689 158.362 58.4579C158.236 58.8429 158.168 59.2279 158.158 59.6119H163.651Z" fill="#282828"/>
<path d="M167.074 63.5577C167.074 63.6927 167.004 63.7567 166.861 63.7567H166.651C166.511 63.7567 166.44 63.6927 166.44 63.5577V57.7397C166.44 57.3957 166.437 57.1127 166.431 56.8937C166.427 56.6727 166.419 56.4387 166.41 56.1927C166.41 56.0697 166.474 56.0047 166.605 56.0047H166.818C166.947 56.0047 167.013 56.0687 167.013 56.1927V57.7537C167.264 57.1497 167.55 56.6757 167.872 56.3277C168.194 55.9777 168.632 55.8047 169.185 55.8047C169.415 55.8047 169.649 55.8337 169.879 55.8907C169.939 55.9107 169.992 55.9417 170.037 55.9847C170.083 56.0277 170.104 56.0867 170.104 56.1647V56.3367C170.104 56.3937 170.079 56.4327 170.029 56.4517C169.978 56.4717 169.927 56.4717 169.879 56.4517C169.698 56.3927 169.456 56.3657 169.154 56.3657C168.973 56.3657 168.8 56.4047 168.633 56.4867C168.468 56.5687 168.317 56.6727 168.182 56.8007C168.047 56.9287 167.918 57.0797 167.804 57.2517C167.69 57.4237 167.584 57.5957 167.494 57.7677C167.214 58.3047 167.072 59.0017 167.072 59.8617V63.5577H167.074Z" fill="#282828"/>
</svg>
