<svg width="584" height="448" viewBox="0 0 584 448" fill="none" xmlns="http://www.w3.org/2000/svg">
<mask id="mask0_224_44464" style="mask-type:alpha" maskUnits="userSpaceOnUse" x="0" y="0" width="584" height="448">
<path d="M0 0H400C501.62 0 584 82.3796 584 184V448H0V0Z" fill="#D9D9D9"/>
</mask>
<g mask="url(#mask0_224_44464)">
<path d="M253.312 231.737C252.668 233.672 252.411 235.693 252.613 237.785C253.293 244.478 255.022 259.345 256.768 274.055L216.777 291.641C216.17 278.935 214.993 255.929 213.816 242.316L253.312 231.737Z" fill="#6F9BA9"/>
<path d="M367.326 224.557C368.061 224.418 368.742 224.261 369.348 224.104L367.289 224.906C367.289 224.784 367.289 224.679 367.307 224.557H367.326Z" fill="#FF9B00"/>
<path d="M191.638 248.278L200.445 298.839L193.623 301.837C193.072 290.177 191.766 263.458 190.461 248.591L191.638 248.278Z" fill="#6F9BA9"/>
<path d="M283.925 244.67L284.44 244.809C284.955 249.341 285.598 254.988 286.316 261.088L282.473 262.779C283.282 252.443 283.87 245.018 283.888 244.652C283.888 244.652 283.907 244.67 283.925 244.67Z" fill="#6F9BA9"/>
<path d="M177.649 308.512L178.55 308.46L142.034 324.512L118.112 426.176L87.7188 276.129L168.235 254.535L177.649 308.512Z" fill="#6F9BA9"/>
<path d="M369.83 223.964C371.32 223.511 372.386 222.988 372.846 222.395C373.581 221.454 374.629 211.746 374.905 199.127L508.982 163.189L369.738 224.4C369.775 224.173 369.812 224.016 369.83 223.946V223.964Z" fill="#6F9BA9"/>
<path d="M374.186 172.426L508.981 163.189L374.903 199.127C375.087 190.918 374.94 181.489 374.168 172.426H374.186Z" fill="#B2D3DD"/>
<path d="M270.079 182.082L270.41 182.117V183.598C269.344 183.511 268.406 184.261 268.314 185.272C268.222 186.282 269.013 187.171 270.079 187.258L270.41 187.293V188.775C269.344 188.688 268.406 189.437 268.314 190.448C268.222 191.459 269.013 192.348 270.079 192.435L270.41 192.47V193.55C270.41 194.561 271.275 195.38 272.341 195.38H274.584C275.927 197.698 278.482 199.302 281.479 199.302H282.987H284.495C287.492 199.302 290.048 197.698 291.39 195.38H293.633C294.35 195.38 294.939 194.997 295.27 194.457H295.582C296.649 194.561 297.586 193.812 297.678 192.801C297.77 191.79 296.98 190.901 295.913 190.814L295.582 190.779V189.298C296.244 189.35 296.814 189.071 297.219 188.618C298.855 189.245 300.473 189.821 302.073 190.291C302.018 190.448 302.11 190.622 302.275 190.657C302.293 190.657 302.312 190.657 302.33 190.657C301.87 196.217 301.301 203.415 301.356 208.557C276.938 211.433 257.319 219.816 253.311 231.703L213.816 242.282C213.393 237.472 212.988 233.812 212.602 232.225C210.653 224.191 203.831 222.43 200.044 221.803C199.143 221.663 182.043 218.892 167.48 216.487C169.687 212.931 172.114 208.766 174.394 204.234C175.552 204.409 176.729 204.583 177.906 204.705C193.663 206.448 192.854 186.561 182.135 185.533L268.443 179.625C268.388 179.764 268.333 179.903 268.314 180.043C268.222 181.054 269.013 181.943 270.079 182.03V182.082Z" fill="#B2D3DD"/>
<path d="M79.1681 192.644C77.1823 201.882 77.2191 209.271 78.8371 213.855C80.7126 219.206 88.9315 221.942 99.026 222.622C97.8492 229.001 96.6908 248.295 121.789 252.844C127.949 253.96 168.161 254.116 168.161 254.116L168.234 254.552L87.718 276.147L0.0859375 198.065L79.1681 192.644Z" fill="#B2D3DD"/>
<path d="M98.9356 203.711L78.8203 213.855L98.9356 203.711Z" fill="#B2D3DD"/>
<path d="M190.704 247.389C190.704 247.389 190.704 247.371 190.704 247.354C191.201 247.354 191.495 247.354 191.495 247.354L191.66 248.26L190.484 248.574C190.465 248.278 190.429 247.999 190.41 247.72C190.594 247.72 190.723 247.546 190.723 247.371L190.704 247.389Z" fill="#B2D3DD"/>
<path d="M304.977 152.731C304.977 152.731 305.124 152.609 305.179 152.557C305.179 152.557 298.431 159.807 297.107 166.953C292.713 165.82 287.73 164.513 284.476 163.572C285.579 159.128 286.958 150.901 284.66 143.424C284.751 143.424 284.788 143.424 284.788 143.424C284.788 143.424 284.715 143.319 284.623 143.163C287.932 142.866 299.387 141.315 302.899 134.204C307.018 125.856 298.578 125.612 294.956 129.045C289.458 134.239 285.487 140.322 284.163 142.448C284.163 142.448 284.163 142.448 284.145 142.448C282.14 139.537 275.595 131.067 267.541 131.346C257.833 131.677 261.455 138.91 266.328 140.409C273.572 142.622 280.927 143.215 283.667 143.372C286.039 150.727 284.678 158.901 283.575 163.311C282.251 162.91 281.313 162.613 281.056 162.457C280.67 162.23 280.063 162.875 279.364 163.99C278.371 162.3 276.863 159.982 274.97 158.064C271.513 154.526 271.237 155.433 271.072 156.461C270.924 157.489 274.878 159.389 274.179 162.108C274.179 162.108 268.258 159.197 265.206 158.413C263.036 154.98 260.775 152.557 260.775 152.557C260.848 152.627 260.922 152.679 260.996 152.749C254.965 147.258 251.195 139.555 251.195 130.997C251.195 114.352 265.427 100.862 282.986 100.862C300.546 100.862 314.777 114.352 314.777 130.997C314.777 131.834 314.704 132.653 314.649 133.472C312.093 137.55 309.85 142.831 307.993 149.524C307.055 150.657 306.08 151.738 304.995 152.714L304.977 152.731Z" fill="white"/>
<path d="M269.324 170.544C269.913 170.771 270.575 171.032 271.255 171.293C270.188 171.259 269.6 171.119 269.324 170.544Z" fill="white"/>
<path d="M267.248 162.108C267.174 161.951 267.101 161.794 267.027 161.655C268.811 162.718 270.558 163.607 270.558 163.607C270.558 163.607 269.05 162.875 267.248 162.125V162.108Z" fill="white"/>
<path d="M268.388 165.019C268.388 165.019 268.37 164.932 268.352 164.879C269.179 165.21 269.749 165.42 269.749 165.42C269.749 165.42 269.216 165.245 268.388 165.019Z" fill="white"/>
<path d="M284.496 199.302H282.989H281.481C278.484 199.302 275.928 197.698 274.586 195.38H291.373C290.031 197.698 287.475 199.302 284.478 199.302H284.496Z" fill="#465F81"/>
<path d="M278.408 179.067L270.41 178.422V177.882H276.643C277.158 178.248 277.765 178.631 278.427 179.067H278.408Z" fill="#5691D8"/>
<path d="M295.582 190.796L270.41 188.774V187.276L295.582 189.315V190.796Z" fill="#5691D8"/>
<path d="M270.41 182.099L285.8 183.336C286.922 183.929 288.062 184.522 289.257 185.097L270.41 183.58V182.099Z" fill="#5691D8"/>
<path d="M295.27 194.456C294.939 194.997 294.333 195.38 293.634 195.38H291.391H274.604H272.36C271.294 195.38 270.43 194.561 270.43 193.55V192.469L295.289 194.474L295.27 194.456Z" fill="#5691D8"/>
<path d="M274.255 175.808C274.2 176.034 275.082 176.801 276.627 177.882H270.394H270.081C268.206 177.882 266.68 176.435 266.68 174.657C266.68 172.879 268.206 171.433 270.081 171.433H271.663C272.95 171.903 274.273 172.339 275.469 172.426C274.807 174.117 274.329 175.459 274.237 175.808H274.255Z" fill="#465F81"/>
<path d="M278.41 179.067C280.378 180.322 282.933 181.821 285.802 183.337L270.412 182.099L270.081 182.065C269.015 181.977 268.224 181.089 268.316 180.078C268.316 179.921 268.389 179.799 268.445 179.659C268.72 178.875 269.511 178.335 270.412 178.404L278.41 179.049V179.067Z" fill="#465F81"/>
<path d="M295.584 189.315L270.412 187.294L270.081 187.259C269.015 187.172 268.224 186.283 268.316 185.272C268.408 184.261 269.346 183.511 270.412 183.599L289.259 185.115C291.814 186.37 294.517 187.59 297.22 188.618C296.834 189.071 296.246 189.35 295.584 189.298V189.315Z" fill="#465F81"/>
<path d="M295.915 190.832C296.981 190.919 297.772 191.808 297.68 192.819C297.588 193.83 296.65 194.579 295.584 194.492H295.271L270.412 192.47L270.081 192.435C269.015 192.348 268.224 191.459 268.316 190.448C268.408 189.438 269.346 188.688 270.412 188.775L295.584 190.797L295.915 190.832Z" fill="#465F81"/>
<path d="M308.635 251.276L286.313 261.088C285.596 254.988 284.952 249.359 284.438 244.81L308.635 251.276Z" fill="white"/>
<path d="M252.612 237.785C253.292 244.478 255.021 259.345 256.768 274.055L282.472 262.761C283.282 252.426 283.87 245.001 283.888 244.635C283.741 244.583 283.668 244.443 283.704 244.286C283.76 244.13 283.925 244.042 284.091 244.077L306.835 250.143C307.571 250.404 308.306 250.648 309.023 250.875C309.042 250.927 309.06 250.979 309.042 251.049C309.042 251.049 309.042 251.049 309.042 251.066L309.281 250.962C359.44 267.031 368.762 229.175 369.737 224.382C369.774 224.156 369.81 223.999 369.829 223.929C369.829 223.894 369.829 223.877 369.829 223.877L369.351 224.069L367.291 224.871C367.291 224.749 367.291 224.644 367.31 224.522C353.464 227.206 318.364 225.55 302.514 214.971C301.687 214.43 301.374 211.938 301.319 208.557C276.901 211.433 257.282 219.816 253.274 231.703C252.631 233.637 252.373 235.659 252.575 237.751L252.612 237.785ZM298.616 213.716C298.598 213.855 298.451 213.96 298.304 213.96C298.304 213.96 298.267 213.96 298.248 213.96C298.138 213.96 287.786 212.322 282.987 212.635C282.803 212.635 282.656 212.531 282.656 212.356C282.656 212.2 282.767 212.043 282.951 212.043C287.823 211.712 297.918 213.298 298.359 213.367C298.524 213.402 298.653 213.542 298.616 213.716Z" fill="white"/>
<path d="M284.44 244.809L283.925 244.67C283.925 244.67 283.907 244.652 283.889 244.652C283.741 244.6 283.668 244.46 283.705 244.304C283.76 244.147 283.925 244.06 284.091 244.094L306.835 250.16C307.571 250.421 308.306 250.665 309.023 250.892C309.042 250.944 309.06 250.996 309.042 251.066C309.042 251.066 309.042 251.066 309.042 251.083L308.637 251.258L284.44 244.792V244.809Z" fill="#465F7D"/>
<path d="M298.304 213.977C298.304 213.977 298.267 213.977 298.248 213.977C298.138 213.977 287.786 212.339 282.987 212.653C282.803 212.653 282.656 212.548 282.656 212.374C282.656 212.217 282.767 212.06 282.95 212.06C287.823 211.729 297.917 213.315 298.359 213.385C298.524 213.42 298.653 213.559 298.616 213.733C298.598 213.873 298.451 213.977 298.304 213.977Z" fill="#465F7D"/>
<path d="M344.913 119.285C344.95 117.333 344.986 115.485 345.005 113.986C344.913 114.021 344.839 114.021 344.802 113.986C341.989 111.215 340.684 106.997 340.298 105.533C343.019 106.544 346.623 104.034 344.821 101.141C343.883 99.6423 342.614 99.4506 341.566 99.6423C339.507 102.17 337.264 103.041 337.264 103.041C338.551 100.374 338.698 97.7948 338.588 96.0519C334.524 85.9256 329.357 85.211 326.838 85.5945C325.368 86.2568 324.044 87.2328 323.014 88.5574C321.892 90.0215 320.973 92.1304 320.311 94.5356C320.054 95.4942 319.815 96.4877 319.649 97.516C319.042 98.1783 318.344 98.7883 317.608 99.1195C316.358 99.6946 317.093 101.629 319.281 102.536C319.171 106.475 319.907 110.361 322.187 112.958C323.51 114.457 325.331 115.451 327.39 116.095C327.335 118.047 327.261 120.104 327.151 121.969C332.685 118.867 339.967 118.605 344.913 119.302V119.285ZM320.329 104.575C320.458 104.383 320.734 104.331 320.936 104.453C320.955 104.453 322.885 105.603 324.871 103.878C325.055 103.721 325.331 103.738 325.478 103.895C325.643 104.069 325.625 104.331 325.459 104.47C324.43 105.376 323.382 105.638 322.518 105.638C321.322 105.638 320.477 105.132 320.477 105.132C320.274 105.01 320.219 104.749 320.348 104.557L320.329 104.575ZM323.768 97.9517C323.878 97.15 324.393 96.5574 324.908 96.6271C325.441 96.6794 325.772 97.3765 325.662 98.1783C325.551 98.98 325.037 99.5726 324.522 99.5029C323.988 99.4332 323.657 98.736 323.768 97.9517ZM327.225 93.6642C327.225 93.6642 327.077 93.7164 327.004 93.7164C326.857 93.7164 326.71 93.6467 326.636 93.5247C326.636 93.5247 326.25 92.9496 325.68 92.8624C325.331 92.8101 324.945 92.9496 324.558 93.2807C324.375 93.4201 324.099 93.4027 323.952 93.2459C323.786 93.0716 323.823 92.8101 323.988 92.6707C324.595 92.1827 325.22 91.9735 325.827 92.0781C326.802 92.2175 327.372 93.089 327.39 93.1238C327.519 93.3156 327.445 93.577 327.243 93.6816L327.225 93.6642ZM335.241 103.93C334.947 106.074 332.538 107.555 329.872 107.224C327.206 106.893 325.294 104.871 325.588 102.727C325.882 100.583 328.291 99.102 330.957 99.4332C333.623 99.7643 335.535 101.786 335.241 103.93Z" fill="#FDC8BE"/>
<path d="M344.804 113.969C341.991 111.198 340.685 106.98 340.299 105.516C343.021 106.527 346.624 104.017 344.822 101.124C343.885 99.6251 342.616 99.4334 341.568 99.6251C339.509 102.152 337.265 103.024 337.265 103.024C338.553 100.357 338.7 97.7776 338.589 96.0347C334.526 85.9084 329.359 85.1938 326.84 85.5773C325.369 86.2396 324.045 87.2156 323.016 88.5402C321.894 90.0042 320.975 92.1132 320.313 94.5184C318.695 90.928 318.07 86.4661 320.864 83.2592C322.354 81.5511 323.898 80.6797 325.332 80.2962C324.248 75.9564 328.863 72 328.863 72C327.171 78.3093 333.386 79.1982 335.85 79.3028C342.892 78.6579 348.445 80.9237 352.986 85.8735C358.797 92.2177 356.333 103.372 353.85 105.987C351.552 108.409 346.202 113.621 345.025 113.952C344.933 113.987 344.859 113.987 344.822 113.952L344.804 113.969Z" fill="#465F81"/>
<path d="M320.935 104.436C320.935 104.436 322.884 105.586 324.87 103.861C325.054 103.704 325.329 103.721 325.477 103.878C325.642 104.052 325.624 104.314 325.458 104.453C324.429 105.36 323.38 105.621 322.516 105.621C321.321 105.621 320.475 105.116 320.475 105.116C320.273 104.994 320.218 104.732 320.347 104.54C320.475 104.349 320.751 104.296 320.953 104.418L320.935 104.436Z" fill="#465F7D"/>
<path d="M324.927 96.6101C325.46 96.6624 325.791 97.3595 325.681 98.1613C325.57 98.963 325.056 99.5556 324.541 99.4859C324.007 99.4161 323.676 98.719 323.787 97.9347C323.897 97.1329 324.412 96.5403 324.927 96.6101Z" fill="#465F81"/>
<path d="M327.003 93.6991C326.856 93.6991 326.709 93.6294 326.635 93.5074C326.635 93.5074 326.249 92.9322 325.679 92.8451C325.33 92.7928 324.944 92.9322 324.558 93.2634C324.374 93.4028 324.098 93.3854 323.951 93.2285C323.786 93.0542 323.822 92.7928 323.988 92.6534C324.595 92.1654 325.22 91.9562 325.826 92.0608C326.801 92.2002 327.371 93.0717 327.389 93.1065C327.518 93.2983 327.444 93.5597 327.242 93.6643C327.169 93.6991 327.095 93.7166 327.022 93.7166L327.003 93.6991Z" fill="#465F7D"/>
<path d="M329.892 107.207C327.226 106.876 325.314 104.854 325.608 102.71C325.902 100.567 328.311 99.0851 330.977 99.4163C333.643 99.7474 335.555 101.769 335.261 103.913C334.967 106.057 332.558 107.538 329.892 107.207Z" fill="#FDC8BE"/>
<path style="mix-blend-mode:darken" d="M329.892 107.207C327.226 106.876 325.314 104.854 325.608 102.71C325.902 100.567 328.311 99.0851 330.977 99.4163C333.643 99.7474 335.555 101.769 335.261 103.913C334.967 106.057 332.558 107.538 329.892 107.207Z" fill="url(#paint0_radial_224_44464)"/>
<path d="M324.853 124.41C324.081 124.636 323.309 124.915 322.555 125.211C323.805 123.608 325.386 122.335 327.115 121.359C332.649 118.257 339.93 117.996 344.876 118.693C347.763 119.094 349.859 119.791 350.301 120.418C351.036 121.447 352.029 123.503 352.911 125.455C343.626 121.795 333.752 121.795 324.853 124.41Z" fill="white"/>
<path d="M268.223 153.028C268.443 151.564 268.848 150.256 273.794 155.328C276.497 158.082 278.666 161.394 280.082 163.816C278.262 166.779 276.055 171.991 274.529 175.895C272.838 175.773 270.907 175.163 269.087 174.483C268.866 174.396 268.664 174.326 268.462 174.239C267.487 173.873 266.568 173.489 265.704 173.176C265.336 173.036 264.968 172.897 264.637 172.792C260.758 171.503 253.366 169.568 254.028 167.999C254.671 166.431 264.968 169.272 264.968 169.272C264.968 169.272 252.557 165.873 253.366 163.938C253.973 162.492 260.905 164.269 264.38 165.263C265.538 165.594 266.31 165.838 266.31 165.838C266.31 165.838 265.501 165.542 264.325 165.054C260.684 163.59 253.403 160.47 254.01 159.023C254.488 157.89 259.066 159.546 262.743 161.097C265.336 162.178 267.487 163.224 267.487 163.224C267.487 163.224 264.968 161.951 262.431 160.435C259.654 158.762 256.841 156.792 257.319 155.834C257.54 155.398 258.496 155.468 259.838 155.816C264.214 156.932 272.672 161.097 272.672 161.097C273.684 157.193 268.02 154.474 268.241 153.01L268.223 153.028Z" fill="#FDC8BE"/>
<path d="M302.054 190.309C302.109 190.152 302.275 190.065 302.44 190.117C306.081 191.197 309.188 191.703 311.67 191.581C325.681 191.006 337.136 162.858 337.614 139.032C337.614 138.875 337.761 138.736 337.927 138.736C338.092 138.736 338.239 138.875 338.239 139.032C337.743 163.119 326.031 191.581 311.689 192.173C311.468 192.173 311.247 192.173 311.027 192.173C308.6 192.173 305.676 191.668 302.293 190.675C302.275 190.675 302.256 190.675 302.238 190.675C302.072 190.622 301.98 190.465 302.036 190.309H302.054Z" fill="#465F7D"/>
<path d="M196.401 373.505L118.109 426.176L142.031 324.512L196.401 373.505Z" fill="#437787"/>
<path d="M205.027 310.692C205.174 310.692 205.45 310.727 205.818 310.761C205.469 310.727 205.174 310.692 205.027 310.692Z" fill="#B2D3DD"/>
<path d="M180.977 317.663C181.124 317.663 181.399 317.698 181.767 317.733C181.418 317.698 181.124 317.663 180.977 317.663Z" fill="#B2D3DD"/>
<path d="M207.214 310.97C206.718 310.865 206.277 310.813 205.891 310.76C206.258 310.813 206.718 310.865 207.214 310.97Z" fill="#B2D3DD"/>
<path d="M178.55 308.46L180.352 308.355C180.702 309.819 181.014 311.214 181.272 312.486C181.272 312.486 179.856 314.456 180.83 317.663C180.83 317.663 182.412 321.375 182.761 322.996L184.067 322.787C184.067 322.787 184.103 319.893 185.611 318.708C185.354 318.604 185.096 318.499 184.839 318.412C185.795 318.743 186.714 319.196 187.303 319.859C189.068 321.863 191.09 322.072 195.503 321.375C199.916 320.678 204.255 320.399 203.888 318.307C203.685 317.209 200.725 316.791 197.673 315.798C197.342 315.693 197.029 315.588 196.698 315.466C196.662 315.466 196.606 315.432 196.57 315.414C196.275 315.31 196 315.188 195.705 315.066C195.632 315.031 195.558 314.996 195.503 314.961C195.246 314.839 194.988 314.717 194.749 314.595C194.657 314.543 194.584 314.49 194.492 314.456C194.271 314.334 194.051 314.194 193.83 314.055C193.738 313.985 193.646 313.915 193.554 313.863C193.352 313.724 193.168 313.584 192.984 313.427C192.892 313.34 192.819 313.253 192.727 313.183C192.561 313.026 192.396 312.87 192.249 312.695C192.175 312.608 192.12 312.521 192.065 312.416C191.734 311.981 191.458 311.493 191.274 310.952C191.274 310.952 191.274 310.917 191.256 310.9H191.293C191.293 310.795 191.256 309.645 191.219 307.728L193.885 307.571C193.885 307.571 193.793 305.41 193.628 301.872L200.449 298.874L200.964 301.802L204.458 301.593C204.789 303.005 205.083 304.329 205.34 305.549C205.34 305.549 203.924 307.519 204.899 310.726C204.899 310.726 206.48 314.438 206.83 316.059L208.135 315.85C208.135 315.85 208.172 312.957 209.679 311.771C209.422 311.667 209.165 311.562 208.907 311.475C209.863 311.806 210.783 312.26 211.371 312.922C213.136 314.926 215.159 315.135 219.572 314.438C223.985 313.741 228.324 313.462 227.956 311.371C227.754 310.273 224.775 309.854 221.741 308.861C221.41 308.756 221.098 308.652 220.767 308.53C220.73 308.53 220.693 308.495 220.638 308.477C220.344 308.373 220.05 308.251 219.774 308.129C219.7 308.094 219.645 308.059 219.572 308.042C219.314 307.92 219.057 307.798 218.818 307.676C218.726 307.623 218.652 307.589 218.579 307.536C218.358 307.414 218.119 307.275 217.917 307.135C217.825 307.083 217.751 307.013 217.659 306.944C217.457 306.804 217.273 306.665 217.089 306.508C216.997 306.438 216.924 306.351 216.832 306.264C216.667 306.107 216.501 305.95 216.354 305.776C216.28 305.689 216.225 305.602 216.17 305.514C215.821 305.061 215.545 304.556 215.343 303.981H215.379C215.379 303.876 215.343 302.796 215.306 300.965L217.218 300.843C217.218 300.843 217.053 297.253 216.795 291.711L256.787 274.125L282.492 262.831L286.335 261.14L308.656 251.327L309.061 251.153L309.3 251.049C359.459 267.118 368.782 229.262 369.756 224.469L509 163.258L279.072 448.049L196.404 373.575L142.016 324.582L178.55 308.53V308.46Z" fill="#B2D3DD"/>
<path d="M183.145 317.942C182.649 317.837 182.208 317.785 181.84 317.732C182.208 317.785 182.667 317.837 183.145 317.942Z" fill="#B2D3DD"/>
<path d="M184.783 318.36C184.268 318.186 183.735 318.046 183.238 317.959C183.735 318.064 184.268 318.186 184.783 318.36Z" fill="#B2D3DD"/>
<path d="M208.832 311.388C208.318 311.214 207.784 311.074 207.27 310.987C207.766 311.092 208.299 311.214 208.832 311.388Z" fill="#B2D3DD"/>
<path d="M220.764 308.477C220.764 308.477 220.691 308.443 220.637 308.425C220.673 308.425 220.709 308.46 220.764 308.477Z" fill="white"/>
<path d="M219.774 308.076C219.774 308.076 219.644 308.007 219.57 307.989C219.644 308.024 219.7 308.059 219.774 308.076Z" fill="white"/>
<path d="M218.819 307.606C218.819 307.606 218.652 307.519 218.578 307.467C218.652 307.519 218.745 307.572 218.819 307.606Z" fill="white"/>
<path d="M216.336 305.69C216.336 305.69 216.208 305.515 216.152 305.428C216.208 305.515 216.263 305.603 216.336 305.69Z" fill="white"/>
<path d="M205.338 305.515C205.338 305.515 203.923 307.484 204.897 310.691C204.897 310.691 206.478 314.404 206.828 316.025L208.133 315.816C208.133 315.816 208.17 312.922 209.678 311.737C209.42 311.633 209.163 311.528 208.905 311.441C209.861 311.772 210.781 312.225 211.369 312.887C213.134 314.892 215.157 315.101 219.57 314.404C223.983 313.707 228.322 313.428 227.954 311.336C227.752 310.238 224.773 309.82 221.739 308.826C220.287 309.646 216.904 311.214 213.576 310.535C209.696 309.733 206.258 306.456 205.485 305.689H205.375C205.375 305.689 205.357 305.637 205.32 305.532L205.338 305.515ZM207.287 310.988C207.784 311.092 208.317 311.214 208.85 311.389C208.335 311.214 207.802 311.075 207.287 310.988ZM205.908 310.761C206.276 310.813 206.736 310.866 207.232 310.97C206.736 310.866 206.294 310.813 205.908 310.761ZM205.835 310.761C205.485 310.726 205.191 310.691 205.044 310.691C205.191 310.691 205.467 310.726 205.835 310.761Z" fill="white"/>
<path d="M217.899 307.066C217.899 307.066 217.733 306.944 217.641 306.874C217.733 306.944 217.806 307.014 217.899 307.066Z" fill="white"/>
<path d="M216.812 306.177C216.812 306.177 216.978 306.352 217.07 306.422C216.978 306.352 216.905 306.264 216.812 306.177Z" fill="white"/>
<path d="M215.358 303.894H215.321C215.505 304.469 215.799 304.975 216.149 305.428C216.204 305.515 216.259 305.602 216.333 305.689C216.48 305.864 216.645 306.021 216.811 306.177C216.903 306.265 216.976 306.352 217.068 306.421C217.252 306.578 217.436 306.718 217.638 306.857C217.73 306.927 217.804 306.997 217.896 307.049C218.116 307.188 218.337 307.328 218.558 307.45C218.649 307.502 218.723 307.554 218.797 307.589C219.036 307.729 219.293 307.851 219.55 307.955C219.624 307.99 219.679 308.025 219.753 308.042C220.028 308.164 220.323 308.286 220.617 308.391C220.654 308.391 220.69 308.426 220.746 308.443C221.077 308.565 221.389 308.67 221.72 308.774C220.268 309.594 216.884 311.162 213.556 310.482C209.677 309.681 206.238 306.404 205.466 305.637H205.356C205.356 305.637 205.337 305.585 205.301 305.48C205.043 304.26 204.749 302.936 204.418 301.524L215.248 300.879C215.285 302.692 215.321 303.772 215.321 303.877L215.358 303.894Z" fill="#FDC8BE"/>
<path d="M191.254 310.865C191.254 310.865 191.254 310.901 191.274 310.918C191.274 310.918 191.274 310.883 191.254 310.865Z" fill="white"/>
<path d="M192.746 313.148C192.746 313.148 192.912 313.323 193.004 313.393C192.912 313.306 192.838 313.218 192.746 313.148Z" fill="white"/>
<path d="M196.698 315.448C196.698 315.448 196.607 315.414 196.57 315.396C196.607 315.396 196.661 315.431 196.698 315.448Z" fill="white"/>
<path d="M194.75 314.578C194.75 314.578 194.584 314.473 194.492 314.438C194.584 314.491 194.658 314.543 194.75 314.578Z" fill="white"/>
<path d="M192.266 312.661C192.266 312.661 192.137 312.487 192.082 312.382C192.156 312.469 192.211 312.574 192.266 312.661Z" fill="white"/>
<path d="M181.268 312.487C181.268 312.487 179.852 314.456 180.827 317.663C180.827 317.663 182.408 321.375 182.757 322.996L184.063 322.787C184.063 322.787 184.1 319.894 185.607 318.709C185.35 318.604 185.092 318.5 184.835 318.412C185.791 318.744 186.711 319.197 187.299 319.859C189.064 321.863 191.087 322.073 195.499 321.375C199.912 320.678 204.252 320.399 203.884 318.308C203.682 317.21 200.721 316.791 197.669 315.798C196.217 316.617 192.833 318.186 189.505 317.506C185.626 316.704 182.187 313.428 181.415 312.661H181.305C181.305 312.661 181.286 312.609 181.25 312.504L181.268 312.487ZM183.217 317.959C183.713 318.064 184.247 318.186 184.762 318.36C184.247 318.186 183.713 318.046 183.217 317.959ZM181.82 317.733C182.187 317.785 182.647 317.837 183.125 317.942C182.629 317.837 182.187 317.785 181.82 317.733ZM181.746 317.733C181.397 317.698 181.103 317.663 180.955 317.663C181.103 317.663 181.378 317.698 181.746 317.733Z" fill="white"/>
<path d="M193.831 314.038C193.739 313.968 193.647 313.898 193.555 313.846C193.647 313.916 193.739 313.986 193.831 314.038Z" fill="white"/>
<path d="M195.723 315.049C195.723 315.049 195.575 314.979 195.52 314.944C195.593 314.979 195.667 315.014 195.723 315.049Z" fill="white"/>
<path d="M191.291 310.865H191.254C191.254 310.865 191.254 310.9 191.272 310.917C191.456 311.458 191.732 311.946 192.063 312.382C192.136 312.469 192.192 312.573 192.247 312.66C192.394 312.835 192.559 312.992 192.725 313.148C192.817 313.236 192.89 313.323 192.982 313.392C193.166 313.549 193.35 313.689 193.552 313.828C193.644 313.898 193.736 313.968 193.828 314.02C194.049 314.159 194.269 314.299 194.49 314.421C194.582 314.473 194.655 314.525 194.747 314.56C194.986 314.682 195.244 314.804 195.501 314.926C195.575 314.961 195.648 314.996 195.703 315.031C195.979 315.153 196.273 315.275 196.568 315.379C196.604 315.379 196.66 315.414 196.696 315.432C197.009 315.554 197.34 315.658 197.671 315.763C196.218 316.582 192.835 318.151 189.507 317.471C185.627 316.669 182.189 313.392 181.417 312.626H181.307C181.307 312.626 181.288 312.573 181.251 312.469C180.994 311.196 180.681 309.802 180.332 308.338L191.199 307.676C191.235 309.593 191.272 310.743 191.272 310.848L191.291 310.865Z" fill="#FDC8BE"/>
<path d="M191.476 247.354C191.476 247.354 191.182 247.354 190.686 247.354C190.3 243.101 189.932 240.26 189.619 238.935C188.167 232.94 183.956 229.454 176.785 228.269L175.461 228.06C170.387 227.24 165.68 226.474 161.285 225.759C162.701 223.807 164.944 220.583 167.482 216.522C182.044 218.927 199.144 221.681 200.045 221.837C203.833 222.465 210.654 224.225 212.603 232.26C212.989 233.846 213.412 237.506 213.817 242.317C214.993 255.929 216.17 278.935 216.777 291.641C217.034 297.166 217.2 300.774 217.2 300.774L215.288 300.896L204.458 301.541L200.964 301.75L200.449 298.822L191.642 248.26L191.476 247.354Z" fill="#5985A9"/>
<path d="M132.525 218.334V218.177C134.86 219.694 137.361 221.053 139.953 222.273C134.64 221.384 130.539 220.687 127.781 220.216C127.616 220.182 127.432 220.304 127.395 220.478C127.358 220.652 127.487 220.809 127.671 220.844C130.833 221.402 135.724 222.221 142.215 223.301C147.639 225.585 153.505 227.188 159.738 227.868C159.738 227.868 160.142 227.345 160.859 226.369C165.327 227.101 170.145 227.885 175.33 228.722L176.654 228.931C183.53 230.064 187.557 233.393 188.955 239.11C189.267 240.417 189.635 243.223 190.021 247.475C190.021 247.632 190.186 247.772 190.352 247.772C190.352 247.772 190.352 247.772 190.37 247.772C190.389 248.051 190.425 248.329 190.444 248.626C191.749 263.493 193.055 290.212 193.606 301.872C193.772 305.41 193.864 307.571 193.864 307.571L191.198 307.728L180.331 308.39L178.529 308.495L177.628 308.547L168.214 254.569L168.141 254.133C168.141 254.133 127.928 253.977 121.769 252.861C96.6522 248.312 97.8289 229.018 99.0057 222.639C109.854 223.354 122.872 221.715 132.525 218.369V218.334Z" fill="#5985A9"/>
<path d="M176.782 228.286C183.953 229.454 188.146 232.94 189.617 238.953C189.947 240.278 190.297 243.118 190.683 247.371C190.683 247.371 190.683 247.389 190.683 247.406C190.683 247.58 190.554 247.737 190.37 247.755C190.37 247.755 190.37 247.755 190.352 247.755C190.187 247.755 190.039 247.633 190.021 247.458C189.635 243.206 189.267 240.4 188.955 239.092C187.557 233.376 183.549 230.047 176.654 228.914L175.33 228.705C170.145 227.868 165.327 227.084 160.859 226.352C160.988 226.177 161.135 225.986 161.282 225.777C165.677 226.491 170.384 227.258 175.459 228.077L176.782 228.286Z" fill="#465F7D"/>
<path d="M127.415 220.443C127.452 220.269 127.636 220.147 127.801 220.182C130.559 220.67 134.659 221.367 139.973 222.239C140.709 222.587 141.463 222.936 142.216 223.249C135.744 222.169 130.835 221.35 127.672 220.792C127.488 220.757 127.378 220.6 127.397 220.426L127.415 220.443Z" fill="#465F7D"/>
<path d="M106.693 185.22C108.385 191.163 111.566 197.298 115.978 203.015C106.601 202.352 103.659 201.83 102.868 201.498C101.398 200.906 103.714 193.132 106.711 185.22H106.693Z" fill="white"/>
<path d="M144.129 175.877C144.129 175.877 136.664 161.062 126.625 156.792C127.213 156.862 127.802 156.879 128.427 156.792C133.465 156.2 132.178 152.069 131.994 150.518C132.086 150.535 132.159 150.553 132.251 150.588C137.915 150.814 145.913 151.964 151.245 156.182C145.435 163.624 144.148 175.877 144.148 175.877H144.129Z" fill="white"/>
<path d="M139.81 146.98C140.968 145.707 141.777 144.052 142.292 142.222C140.766 147.607 138.191 152.836 134.238 156.409C134.367 154.945 134.68 152.278 134.974 149.821C136.96 149.228 138.67 148.235 139.828 146.962L139.81 146.98Z" fill="#465F7D"/>
<path d="M142.457 141.559C142.457 141.559 142.457 141.525 142.457 141.49C142.568 140.984 142.66 140.479 142.752 139.956C142.752 139.921 142.752 139.886 142.752 139.869C142.825 139.346 142.88 138.823 142.917 138.283C142.917 138.248 142.917 138.23 142.917 138.196C142.954 137.655 142.972 137.115 142.954 136.575C142.954 136.557 142.954 136.54 142.954 136.522C142.954 135.965 142.917 135.407 142.88 134.849C142.586 131.05 141.483 127.424 139.92 125.298C137.714 122.283 133.871 121.185 129.991 121.69C128.483 122.475 125.725 124.339 124.383 128.122C122.783 132.618 120.595 135.355 118.867 136.627C118.371 136.296 115.962 134.901 114.399 137.254C112.671 139.886 116.164 142.309 118.646 141.124C119.235 142.675 119.97 144.243 120.577 145.359C119.915 148.67 119.032 153.359 118.683 155.834C115.006 156.095 111.714 156.514 108.754 157.054C102.852 151.581 104.065 141.873 104.176 137.028C104.341 129.882 110.777 126.745 115.024 121.533C119.271 116.322 128.869 115.05 132.326 118.745C132.326 118.745 137.971 115.869 142.218 120.644C144.296 122.98 144.884 132.531 142.384 141.751C142.384 141.699 142.402 141.629 142.421 141.577L142.457 141.559Z" fill="#465F7D"/>
<path d="M134.331 155.294C134.478 153.795 134.717 151.756 134.956 149.838C136.942 149.246 138.652 148.252 139.81 146.98C140.968 145.708 141.777 144.052 142.292 142.222C142.347 142.065 142.384 141.891 142.421 141.716C142.421 141.664 142.439 141.594 142.458 141.542C140.067 141.246 138.302 139.695 138.339 137.987C138.1 138.265 137.787 138.509 137.401 138.736C137.328 138.771 137.273 138.788 137.199 138.788C137.052 138.788 136.923 138.719 136.85 138.597C136.739 138.405 136.794 138.178 136.997 138.074C137.695 137.69 138.008 137.22 138.008 136.923C138.008 136.749 137.879 136.592 137.64 136.47C136.813 136.069 135.949 135.233 135.103 133.995C134.974 133.821 135.029 133.577 135.213 133.455C135.397 133.333 135.654 133.385 135.783 133.56C136.537 134.658 137.309 135.424 138.026 135.773C138.449 135.982 138.67 136.296 138.762 136.662C139.479 135.512 141.097 134.78 142.954 134.832C142.66 131.032 141.557 127.407 139.994 125.281C137.787 122.266 133.944 121.167 130.065 121.673C128.557 122.457 125.799 124.322 124.457 128.104C122.857 132.601 120.669 135.337 118.941 136.61C118.444 136.278 116.036 134.884 114.473 137.237C112.744 139.869 116.256 142.292 118.72 141.106C119.308 142.658 120.044 144.226 120.651 145.342C120.191 147.642 119.621 150.588 119.217 153.01C119.235 153.028 133.135 164.827 134.386 155.294H134.331ZM140.288 134.675C139.792 134.71 139.35 134.135 139.295 133.385C139.24 132.636 139.589 131.991 140.086 131.974C140.582 131.939 141.023 132.514 141.079 133.263C141.134 134.013 140.784 134.64 140.288 134.675ZM138.118 128.54C138.118 128.54 138.707 127.738 139.626 127.651C140.196 127.599 140.766 127.808 141.299 128.296C141.465 128.435 141.465 128.679 141.299 128.836C141.134 128.993 140.895 128.993 140.729 128.836C140.38 128.523 140.031 128.348 139.7 128.401C139.166 128.453 138.78 128.941 138.762 128.976C138.688 129.08 138.56 129.15 138.431 129.15C138.357 129.15 138.265 129.133 138.21 129.08C138.026 128.958 137.971 128.714 138.1 128.54H138.118ZM137.217 140.113C137.42 140.026 137.659 140.095 137.769 140.27C137.879 140.461 137.787 140.688 137.603 140.793C137.548 140.827 136.703 141.228 135.452 141.228C134.386 141.228 133.007 140.949 131.517 139.904C131.334 139.782 131.297 139.538 131.425 139.363C131.554 139.189 131.812 139.154 131.995 139.276C134.809 141.246 137.125 140.165 137.217 140.113ZM130.929 135.355C130.433 135.39 129.991 134.814 129.936 134.065C129.881 133.316 130.23 132.671 130.727 132.653C131.223 132.618 131.665 133.194 131.72 133.943C131.775 134.692 131.425 135.32 130.929 135.355ZM128.631 129.237C128.631 129.237 129.219 128.435 130.138 128.348C130.745 128.296 131.278 128.505 131.812 128.993C131.977 129.133 131.977 129.377 131.812 129.533C131.646 129.69 131.407 129.69 131.242 129.533C130.892 129.22 130.543 129.063 130.212 129.098C129.679 129.15 129.293 129.638 129.274 129.673C129.201 129.777 129.072 129.847 128.943 129.847C128.87 129.847 128.778 129.83 128.723 129.777C128.539 129.655 128.484 129.411 128.612 129.237H128.631ZM125.909 140.915C123.317 140.653 121.405 138.945 121.588 137.08C121.791 135.215 124.052 133.908 126.645 134.17C129.219 134.431 131.168 136.139 130.947 138.004C130.745 139.869 128.484 141.176 125.891 140.915H125.909Z" fill="#FDC8BE"/>
<path d="M142.973 136.522C142.973 135.965 142.936 135.407 142.898 134.849C142.936 135.407 142.955 135.965 142.973 136.522Z" fill="#FDC8BE"/>
<path d="M142.457 141.489C142.568 140.984 142.66 140.479 142.752 139.956C142.678 140.479 142.586 140.984 142.457 141.489Z" fill="#FDC8BE"/>
<path d="M142.934 138.196C142.971 137.655 142.99 137.115 142.971 136.575C142.971 137.115 142.971 137.655 142.934 138.196Z" fill="#FDC8BE"/>
<path d="M142.971 136.522C142.971 136.522 142.971 136.557 142.971 136.575C142.971 137.115 142.971 137.655 142.934 138.195C142.934 138.23 142.934 138.248 142.934 138.283C142.898 138.823 142.842 139.346 142.769 139.869C142.769 139.904 142.769 139.938 142.769 139.956C142.695 140.479 142.603 140.984 142.475 141.49C142.475 141.507 142.475 141.524 142.475 141.559C140.084 141.263 138.319 139.712 138.356 138.004C138.65 137.655 138.834 137.289 138.834 136.923C138.834 136.836 138.779 136.766 138.761 136.697C139.478 135.546 141.096 134.814 142.953 134.867C142.99 135.424 143.026 135.982 143.026 136.54L142.971 136.522Z" fill="#FDC8BE"/>
<path style="mix-blend-mode:darken" d="M142.971 136.522C142.971 136.522 142.971 136.557 142.971 136.575C142.971 137.115 142.971 137.655 142.934 138.195C142.934 138.23 142.934 138.248 142.934 138.283C142.898 138.823 142.842 139.346 142.769 139.869C142.769 139.904 142.769 139.938 142.769 139.956C142.695 140.479 142.603 140.984 142.475 141.49C142.475 141.507 142.475 141.524 142.475 141.559C140.084 141.263 138.319 139.712 138.356 138.004C138.65 137.655 138.834 137.289 138.834 136.923C138.834 136.836 138.779 136.766 138.761 136.697C139.478 135.546 141.096 134.814 142.953 134.867C142.99 135.424 143.026 135.982 143.026 136.54L142.971 136.522Z" fill="url(#paint1_radial_224_44464)"/>
<path d="M138.318 137.986C138.079 138.265 137.766 138.509 137.38 138.736C137.307 138.771 137.252 138.788 137.178 138.788C137.031 138.788 136.902 138.718 136.829 138.596C136.718 138.405 136.773 138.178 136.976 138.074C137.674 137.69 137.987 137.22 137.987 136.923C137.987 136.749 137.858 136.592 137.619 136.47C136.792 136.069 135.928 135.233 135.082 133.995C134.953 133.821 135.008 133.577 135.192 133.472C135.376 133.35 135.633 133.403 135.762 133.577C136.516 134.675 137.288 135.442 138.005 135.79C138.428 135.999 138.649 136.313 138.741 136.679C138.759 136.766 138.814 136.819 138.814 136.906C138.814 137.272 138.649 137.638 138.336 137.986H138.318Z" fill="#465F7D"/>
<path d="M130.944 138.004C130.742 139.869 128.48 141.176 125.888 140.915C123.295 140.653 121.383 138.945 121.567 137.08C121.769 135.216 124.031 133.908 126.623 134.17C129.197 134.431 131.146 136.139 130.926 138.004H130.944Z" fill="#FDC8BE"/>
<path style="mix-blend-mode:darken" d="M130.944 138.004C130.742 139.869 128.48 141.176 125.888 140.915C123.295 140.653 121.383 138.945 121.567 137.08C121.769 135.216 124.031 133.908 126.623 134.17C129.197 134.431 131.146 136.139 130.926 138.004H130.944Z" fill="url(#paint2_radial_224_44464)"/>
<path d="M129.935 134.065C129.88 133.315 130.23 132.67 130.726 132.653C131.222 132.618 131.664 133.193 131.719 133.943C131.774 134.692 131.425 135.32 130.928 135.355C130.432 135.389 129.991 134.814 129.935 134.065Z" fill="#465F7D"/>
<path d="M140.085 131.973C140.582 131.938 141.023 132.513 141.078 133.263C141.133 134.012 140.784 134.64 140.288 134.675C139.791 134.709 139.35 134.134 139.295 133.385C139.24 132.635 139.589 131.991 140.085 131.973Z" fill="#465F7D"/>
<path d="M139.624 127.651C140.194 127.599 140.764 127.808 141.297 128.296C141.462 128.435 141.462 128.679 141.297 128.836C141.131 128.993 140.892 128.993 140.727 128.836C140.377 128.523 140.028 128.348 139.697 128.401C139.164 128.453 138.778 128.941 138.759 128.976C138.686 129.08 138.557 129.15 138.428 129.15C138.355 129.15 138.263 129.133 138.208 129.08C138.024 128.958 137.969 128.714 138.097 128.54C138.116 128.505 138.686 127.738 139.605 127.651H139.624Z" fill="#465F7D"/>
<path d="M131.258 129.551C130.909 129.237 130.559 129.08 130.228 129.115C129.695 129.167 129.309 129.655 129.291 129.69C129.217 129.795 129.088 129.865 128.96 129.865C128.886 129.865 128.794 129.847 128.739 129.795C128.555 129.673 128.5 129.429 128.629 129.254C128.647 129.22 129.217 128.453 130.136 128.366C130.743 128.313 131.276 128.522 131.81 129.01C131.975 129.15 131.975 129.394 131.81 129.551C131.644 129.708 131.405 129.708 131.24 129.551H131.258Z" fill="#465F7D"/>
<path d="M131.496 139.903C131.312 139.781 131.276 139.537 131.404 139.363C131.533 139.189 131.79 139.154 131.974 139.276C134.788 141.245 137.104 140.165 137.196 140.113C137.398 140.025 137.637 140.095 137.748 140.269C137.858 140.461 137.766 140.688 137.582 140.792C137.527 140.827 136.681 141.228 135.431 141.228C134.365 141.228 132.986 140.949 131.496 139.903Z" fill="#465F7D"/>
<path d="M161.028 186.805L160.844 189.123C159.484 187.834 157.277 185.916 154.777 184.522C150.658 182.239 150.676 183.128 150.824 184.086C150.989 185.045 155.071 185.725 155.218 188.356C155.218 188.356 144.737 186.492 144.535 187.816C144.333 189.141 152.386 190.622 152.386 190.622C152.386 190.622 143.23 189.054 143.101 190.413C142.972 191.773 152.166 192.47 152.166 192.47C152.166 192.47 143.8 192.243 143.671 193.603C143.542 194.962 152 194.858 152 194.858C152 194.858 144.976 194.927 144.885 196.025C144.793 197.141 149.794 197.001 152.497 197.123C154.685 197.21 158.215 197.873 160.238 196.966L159.943 200.923C164.246 202.404 169.21 203.555 174.359 204.304C172.097 208.818 169.67 213.001 167.445 216.557C164.908 220.618 162.665 223.842 161.249 225.794C161.102 226.003 160.955 226.195 160.826 226.369C160.109 227.345 159.704 227.868 159.704 227.868C153.453 227.206 147.587 225.602 142.182 223.302C141.428 222.988 140.674 222.639 139.938 222.291C137.346 221.071 134.845 219.711 132.492 218.195L132.198 214.413C134.202 215.319 137.75 214.657 139.938 214.57C142.623 214.448 147.643 214.57 147.551 213.472C147.459 212.374 140.435 212.304 140.435 212.304C140.435 212.304 148.893 212.391 148.764 211.049C148.635 209.69 140.269 209.916 140.269 209.916C140.269 209.916 149.463 209.202 149.334 207.86C149.205 206.5 140.049 208.069 140.049 208.069C140.049 208.069 148.102 206.587 147.9 205.263C147.698 203.938 137.217 205.803 137.217 205.803C137.364 203.171 141.446 202.491 141.612 201.533C141.759 200.574 141.777 199.685 137.658 201.969C135.158 203.363 132.951 205.28 131.591 206.57L131.407 204.252C131.407 204.252 123.795 203.903 116.348 203.398C116.348 203.223 116.219 203.067 116.035 203.067C115.98 203.067 115.944 203.067 115.888 203.067C111.476 197.35 108.295 191.215 106.603 185.272C106.493 184.906 106.382 184.539 106.29 184.156C104.029 175.232 105.15 166.832 110.538 161.097C115.043 156.304 119.511 155.119 123.648 155.938C124.622 156.13 125.578 156.426 126.516 156.827C136.555 161.08 144.02 175.912 144.02 175.912C144.02 175.912 145.307 163.677 151.118 156.217C154.942 151.302 160.734 148.479 169.431 152.609C183.332 159.215 184.821 172.217 181.493 185.585C181.383 185.585 181.291 185.568 181.18 185.568C172.594 185.55 160.936 186.823 160.936 186.823L161.028 186.805Z" fill="#FF695F"/>
<path d="M131.645 206.553C133.005 205.263 135.212 203.346 137.712 201.951C141.831 199.668 141.812 200.557 141.665 201.516C141.5 202.474 137.418 203.154 137.271 205.786C137.271 205.786 147.751 203.921 147.954 205.245C148.156 206.57 140.103 208.051 140.103 208.051C140.103 208.051 149.259 206.483 149.388 207.842C149.517 209.202 140.323 209.899 140.323 209.899C140.323 209.899 148.689 209.672 148.818 211.032C148.947 212.391 140.489 212.287 140.489 212.287C140.489 212.287 147.512 212.356 147.604 213.455C147.696 214.57 142.695 214.431 139.992 214.553C137.804 214.64 134.274 215.302 132.251 214.396L131.663 206.57L131.645 206.553Z" fill="#FDC8BE"/>
<path d="M116.088 203.66C116.088 203.66 116.088 203.66 116.069 203.66C108.365 203.119 103.842 202.579 102.592 202.091C102.518 202.056 102.481 202.004 102.444 201.934H102.408C100.532 200.522 103.676 191.18 106.398 184.104C106.49 184.47 106.6 184.836 106.71 185.22C103.732 193.15 101.415 200.906 102.867 201.498C103.676 201.83 106.6 202.352 115.977 203.015C116.032 203.015 116.069 203.015 116.124 203.015C116.308 203.015 116.455 203.172 116.437 203.346C116.437 203.52 116.271 203.642 116.106 203.642L116.088 203.66Z" fill="#465F7D"/>
<path d="M152.53 197.106C149.845 196.984 144.826 197.106 144.918 196.008C145.01 194.91 152.033 194.84 152.033 194.84C152.033 194.84 143.575 194.927 143.704 193.585C143.833 192.226 152.199 192.452 152.199 192.452C152.199 192.452 143.005 191.738 143.134 190.396C143.263 189.036 152.42 190.605 152.42 190.605C152.42 190.605 144.366 189.123 144.568 187.799C144.771 186.474 155.251 188.339 155.251 188.339C155.104 185.707 151.022 185.028 150.857 184.069C150.71 183.11 150.691 182.221 154.81 184.505C157.31 185.899 159.517 187.816 160.878 189.106L160.289 196.932C158.285 197.838 154.736 197.176 152.548 197.088L152.53 197.106Z" fill="#FDC8BE"/>
<path d="M177.888 204.757C176.711 204.618 175.535 204.461 174.376 204.287C169.228 203.52 164.263 202.387 159.961 200.906L160.255 196.949L160.844 189.123L161.027 186.805C161.027 186.805 172.685 185.533 181.271 185.551C181.382 185.551 181.474 185.551 181.584 185.568C181.768 185.568 181.933 185.568 182.117 185.603C192.837 186.631 193.646 206.518 177.888 204.775V204.757Z" fill="white"/>
<path d="M374.922 199.127C374.646 211.746 373.598 221.454 372.862 222.395C372.403 222.988 371.336 223.511 369.847 223.964C369.847 223.929 369.847 223.912 369.847 223.912L369.369 224.103C368.762 224.26 368.063 224.417 367.346 224.556C353.501 227.241 318.4 225.585 302.551 215.005C301.723 214.465 301.411 211.973 301.355 208.591C301.282 203.45 301.87 196.252 302.33 190.692C305.695 191.685 308.637 192.191 311.064 192.191C311.284 192.191 311.505 192.191 311.726 192.191C326.067 191.616 337.78 163.154 338.276 139.049C338.276 138.893 338.148 138.753 337.964 138.753C337.798 138.753 337.651 138.875 337.651 139.049C337.155 162.892 325.718 191.04 311.707 191.598C309.225 191.703 306.118 191.197 302.477 190.134C302.312 190.082 302.146 190.169 302.091 190.326C300.51 189.838 298.873 189.28 297.237 188.653C294.534 187.607 291.831 186.404 289.275 185.149C288.08 184.557 286.922 183.964 285.818 183.389C282.95 181.873 280.394 180.374 278.427 179.119C277.765 178.701 277.177 178.3 276.643 177.934C275.099 176.853 274.198 176.086 274.272 175.86C274.363 175.511 274.842 174.169 275.503 172.478C276.57 169.759 278.114 166.099 279.383 164.043C280.063 162.927 280.67 162.265 281.075 162.509C281.35 162.666 282.27 162.962 283.594 163.363C284.697 158.953 286.058 150.779 283.686 143.424C280.946 143.267 273.591 142.675 266.347 140.461C261.474 138.98 257.852 131.747 267.56 131.398C275.614 131.119 282.16 139.59 284.164 142.5C284.164 142.5 284.164 142.5 284.182 142.5C285.506 140.374 289.478 134.291 294.975 129.097C298.597 125.664 307.037 125.908 302.918 134.256C299.406 141.367 287.951 142.919 284.642 143.215C284.734 143.372 284.807 143.476 284.807 143.476C284.807 143.476 284.752 143.476 284.679 143.476C286.977 150.971 285.598 159.197 284.495 163.624C287.749 164.566 292.732 165.873 297.126 167.006C299.976 167.738 302.569 168.4 304.279 168.836C305.235 161.411 306.485 155.032 307.993 149.594C309.85 142.884 312.093 137.62 314.649 133.542C318.088 128.052 322.059 124.723 326.398 123.032C326.95 122.823 327.502 122.614 328.072 122.457C334.544 120.557 341.715 120.557 348.463 123.224C356.737 126.483 364.367 133.768 369.222 146.579C371.851 153.481 373.377 162.788 374.204 172.513C374.977 181.594 375.124 191.006 374.94 199.215L374.922 199.127Z" fill="#50B4BE"/>
<path d="M132.528 218.178L132.234 214.396L131.646 206.57L131.462 204.252C131.462 204.252 123.849 203.903 116.403 203.398C116.403 203.572 116.237 203.694 116.072 203.694C116.072 203.694 116.072 203.694 116.053 203.694C108.349 203.154 103.826 202.614 102.576 202.126C102.502 202.091 102.465 202.038 102.429 201.969H102.392C100.516 200.557 103.661 191.215 106.382 184.139C104.12 175.215 105.242 166.814 110.629 161.08C115.134 156.287 119.602 155.102 123.739 155.921C120.834 154.422 118.959 151.477 119.087 149.821C119.087 149.594 119.069 149.925 119.087 149.594C116.053 149.803 110.372 151.407 109.213 151.895C107.559 152.592 103.054 154.509 98.0894 159.093C96.03 161.394 93.6214 164.514 90.9185 168.784C89.2085 171.869 87.4985 174.744 85.9172 177.498C84.0234 181.089 82.0192 185.184 79.9231 189.89C79.6657 190.675 79.4083 191.442 79.2428 192.226C79.206 192.383 79.1692 192.54 79.1325 192.679C77.1467 201.916 77.1834 209.306 78.8015 213.89C80.677 219.241 88.8959 221.977 98.9903 222.657C109.839 223.372 122.857 221.733 132.51 218.387V218.23L132.528 218.178Z" fill="white"/>
<path d="M79.9609 189.856C82.057 185.15 84.0612 181.054 85.9551 177.463C83.4361 181.803 81.2664 185.847 79.9609 189.856Z" fill="white"/>
</g>
<defs>
<radialGradient id="paint0_radial_224_44464" cx="0" cy="0" r="1" gradientUnits="userSpaceOnUse" gradientTransform="translate(344.873 105.2) rotate(7.11341) scale(4.83617 3.92494)">
<stop stop-color="#F58A76"/>
<stop offset="1" stop-color="#FDC8BE"/>
</radialGradient>
<radialGradient id="paint1_radial_224_44464" cx="0" cy="0" r="1" gradientUnits="userSpaceOnUse" gradientTransform="translate(142.354 137.997) rotate(-174.415) scale(4.70454 3.39281)">
<stop stop-color="#F58A76"/>
<stop offset="1" stop-color="#FDC8BE"/>
</radialGradient>
<radialGradient id="paint2_radial_224_44464" cx="0" cy="0" r="1" gradientUnits="userSpaceOnUse" gradientTransform="translate(125.623 137.321) rotate(-174.415) scale(4.70453 3.39281)">
<stop stop-color="#F58A76"/>
<stop offset="1" stop-color="#FDC8BE"/>
</radialGradient>
</defs>
</svg>
