<svg width="584" height="448" viewBox="0 0 584 448" fill="none" xmlns="http://www.w3.org/2000/svg">
<mask id="mask0_2910_25120" style="mask-type:alpha" maskUnits="userSpaceOnUse" x="0" y="0" width="584" height="448">
<path d="M0 0H400C501.62 0 584 82.3796 584 184V448H0V0Z" fill="#D9D9D9"/>
</mask>
<g mask="url(#mask0_2910_25120)">
<mask id="mask1_2910_25120" style="mask-type:luminance" maskUnits="userSpaceOnUse" x="45" y="267" width="459" height="42">
<path d="M45 267.249H503.381V308.275H45V267.249Z" fill="white"/>
</mask>
<g mask="url(#mask1_2910_25120)">
<path d="M503.383 287.763C503.383 299.092 400.77 308.276 274.191 308.276C147.612 308.276 45 299.092 45 287.763C45 276.434 147.612 267.25 274.191 267.25C400.77 267.25 503.383 276.434 503.383 287.763Z" fill="#F3E2A4"/>
</g>
<path d="M194.239 96.1256C194.239 96.1256 199.809 112.542 193.493 125.513L187.92 120.516L194.239 96.1256Z" fill="#725A55"/>
<path d="M104.559 156.671C104.559 156.671 128.219 137.556 160.735 137.556V272.111H121.424L104.559 156.671Z" fill="#EFE9D0"/>
<path d="M216.911 156.671C216.911 156.671 193.251 137.556 160.734 137.556V272.111H200.046L216.911 156.671Z" fill="#EFE9D0"/>
<path d="M128.683 293.48C128.683 293.48 102.586 304.816 91.7628 264.307C82.6714 230.279 80.2074 189.787 88.3699 173.404C96.5325 157.02 113.28 152.998 113.28 152.998L126.144 233.299L128.683 293.48Z" fill="#EFE9D0"/>
<path d="M194.238 293.48C194.238 293.48 220.335 304.816 231.158 264.307C240.25 230.279 242.714 189.787 234.551 173.404C226.388 157.02 209.641 152.998 209.641 152.998L196.777 233.299L194.238 293.48Z" fill="#EFE9D0"/>
<path d="M188.643 164.687L159.756 169.745C159.756 169.745 164.034 210.491 166.299 239.432C168.564 268.374 178.631 293.881 198.01 293.881C217.388 293.881 220.408 272.401 218.898 256.797C217.388 241.194 188.643 164.687 188.643 164.687Z" fill="#EFE9D0"/>
<path d="M143.121 171.207L159.874 183.373L176.978 171.394L177.556 157.18L178.267 139.905L144.506 138.517L143.781 156.203L143.121 171.207Z" fill="#FDC8BE"/>
<path d="M143.852 154.073C148.084 158.081 153.618 160.557 160.281 160.822C167.156 161.097 173.024 158.931 177.626 155.051L178.338 137.775L144.576 136.387L143.852 154.073Z" fill="#FFA6A6"/>
<path d="M189.347 125.147C188.615 143.445 177.754 157.866 160.646 157.182C143.537 156.497 133.865 141.253 134.597 122.955C135.33 104.658 146.19 90.2355 163.298 90.9208C180.407 91.6056 190.08 106.85 189.347 125.147Z" fill="#FDC8BE"/>
<path d="M155.077 124.095C155.028 125.283 154.341 126.219 153.542 126.186C152.743 126.153 152.135 125.164 152.184 123.976C152.233 122.789 152.92 121.853 153.719 121.886C154.518 121.919 155.126 122.908 155.077 124.095Z" fill="#283026"/>
<path d="M151.092 128.979C151.025 130.599 149.225 131.84 147.071 131.751C144.918 131.663 143.226 130.278 143.293 128.659C143.359 127.039 145.159 125.798 147.313 125.886C149.467 125.975 151.159 127.36 151.092 128.979Z" fill="#FFA6A6"/>
<path d="M168.841 124.661C168.792 125.848 169.4 126.837 170.198 126.87C170.997 126.903 171.684 125.967 171.733 124.78C171.782 123.593 171.174 122.604 170.375 122.571C169.577 122.538 168.89 123.474 168.841 124.661Z" fill="#283026"/>
<path d="M172.412 129.857C172.345 131.476 174.037 132.861 176.191 132.95C178.345 133.038 180.145 131.797 180.212 130.178C180.278 128.558 178.586 127.173 176.433 127.085C174.279 126.996 172.479 128.237 172.412 129.857Z" fill="#FFA6A6"/>
<path d="M153.951 133.759C153.951 133.759 156.103 137.316 161.462 137.537C166.821 137.757 169.17 134.385 169.17 134.385" stroke="#FF9999" stroke-width="1.70667" stroke-miterlimit="10" stroke-linecap="round" stroke-linejoin="round"/>
<path d="M159.103 129.066C159.06 130.028 160.117 130.855 161.464 130.915C162.81 130.974 163.936 130.244 163.979 129.283C164.021 128.321 162.965 127.494 161.618 127.434C160.271 127.374 159.145 128.105 159.103 129.066Z" fill="#FFA6A6"/>
<path d="M146.498 114.741C146.498 114.741 150.863 111.99 156.366 113.99" stroke="#283026" stroke-width="1.28" stroke-miterlimit="10" stroke-linecap="round" stroke-linejoin="round"/>
<path d="M184.66 128.968C184.204 133.295 186.261 137.059 190.307 137.486C194.352 137.913 197.15 134.662 197.607 130.335C198.064 126.008 196.006 122.244 191.961 121.817C187.915 121.39 185.117 124.641 184.66 128.968Z" fill="#FDC8BE"/>
<path d="M193.493 128.113C191.494 128.755 189.61 129.756 187.961 131.055" stroke="#FFA6A6" stroke-width="1.28" stroke-miterlimit="10" stroke-linecap="round" stroke-linejoin="round"/>
<path d="M192.977 132.114C192.264 131.261 191.363 130.565 190.357 130.09" stroke="#FFA6A6" stroke-width="1.28" stroke-miterlimit="10" stroke-linecap="round" stroke-linejoin="round"/>
<path d="M147.992 99.3164C147.992 99.3164 151.296 96.5909 156.366 96.6574C161.435 96.7236 164.868 99.3164 164.868 99.3164L163.327 89.8568C163.327 89.8568 157.09 88.0349 156.74 88.1049C156.389 88.1749 149.803 89.9967 149.803 89.9967L147.992 99.3164Z" fill="#5E4341"/>
<path d="M156.367 96.657C156.367 96.657 157.155 91.0741 160.695 93.3179C163.953 95.383 161.072 110.709 173.594 115.301C173.594 115.301 177.886 120.286 183.59 120.286C183.59 120.286 186.394 123.805 186.533 127.205L191.962 121.818C191.962 121.818 196.238 117.499 196.272 105.979C196.303 95.4112 189.725 87.607 183.194 83.5788C175.31 78.717 153.75 74.1179 156.367 96.657Z" fill="#725A55"/>
<path d="M94.4292 66.2393C88.7968 67.8528 90.5803 75.8012 90.5803 75.8012C90.5803 75.8012 87.6423 68.1838 82.0099 69.7973C76.3775 71.4107 76.9935 79.1296 81.8951 84.681C86.6427 90.0582 94.9621 91.8794 95.4791 91.9882L95.4829 92L95.4922 91.9909C95.4997 91.9927 95.5043 91.9937 95.5043 91.9937L95.5015 91.9828C95.8748 91.6182 101.847 85.7022 102.834 78.6825C103.854 71.4352 100.062 64.6259 94.4292 66.2393Z" fill="#FFA6A6"/>
<path d="M156.366 96.6575C156.366 96.6575 154.739 92.8409 152.656 94.7174C148.871 98.1282 150.965 115.353 140.598 119.574C140.598 119.574 138.547 122.671 134.597 122.955L131.066 120.735C131.066 120.735 127.722 116.949 130.299 108.616C130.299 108.616 126.836 107.1 130.481 100.004C134.127 92.9088 145.453 78.0002 156.147 78.0002C166.225 78.0002 167.172 84.4215 167.172 84.4215C167.172 84.4215 156.066 88.163 156.366 96.6575Z" fill="#725A55"/>
<path d="M139.03 127.091C139.13 131.44 136.77 135.022 132.703 135.115C128.636 135.209 126.114 131.738 126.015 127.389C125.915 123.039 128.275 119.457 132.342 119.364C136.409 119.271 138.93 122.741 139.03 127.091Z" fill="#FDC8BE"/>
<path d="M130.299 125.512C132.238 126.316 134.033 127.469 135.57 128.898" stroke="#FFA6A6" stroke-width="1.28" stroke-miterlimit="10" stroke-linecap="round" stroke-linejoin="round"/>
<path d="M130.484 129.543C131.266 128.751 132.22 128.131 133.262 127.74" stroke="#FFA6A6" stroke-width="1.28" stroke-miterlimit="10" stroke-linecap="round" stroke-linejoin="round"/>
<path d="M129.697 136.414C129.697 136.414 126.674 135.036 126.185 139.301C125.696 143.567 130.191 158.721 137.733 158.929C145.275 159.137 129.697 136.414 129.697 136.414Z" fill="#FDC8BE"/>
<path d="M133.739 133.993C133.739 133.993 131.166 131.89 129.607 135.891C128.049 139.891 128.539 155.691 135.78 157.811C143.02 159.931 133.739 133.993 133.739 133.993Z" fill="#FDC8BE"/>
<path d="M140.247 181.289L142.786 172.619C143.423 170.033 143.103 168.624 141.201 166.759C137.926 163.551 133.118 158.131 132.245 153.244C130.898 145.705 131.461 132.042 134.966 132.345C139.197 132.711 138.568 141.186 139.094 146.603C139.283 148.552 141.02 151.008 142.616 152.144C143.978 153.112 145.869 154.215 148.271 155.051C153.684 156.937 159.241 163.864 158.347 171.729C157.452 179.594 156.691 185.195 156.691 185.195L140.247 181.289Z" fill="#FDC8BE"/>
<path d="M140.862 174.132C145.054 174.996 153.805 176.893 157.896 177.783C159.125 178.051 159.923 179.239 159.709 180.478L158.453 187.723L136.299 182.829L137.988 175.95C138.302 174.669 139.571 173.865 140.862 174.132Z" fill="#FDFDFD"/>
<path d="M134.965 132.346C134.965 132.346 138.064 132.992 138.457 137.85C138.85 142.707 136.961 149.236 142.615 152.144C148.27 155.052 155.086 156.886 156.967 163.731C158.848 170.575 157.828 176.164 157.828 176.164" stroke="#FFA6A6" stroke-width="1.28" stroke-miterlimit="10" stroke-linecap="round" stroke-linejoin="round"/>
<path d="M132.912 134.326C132.912 134.326 130.438 143.861 132.931 153.368" stroke="#FFA6A6" stroke-width="1.28" stroke-miterlimit="10" stroke-linecap="round" stroke-linejoin="round"/>
<path d="M129.176 137.591C129.176 137.591 127.882 145.489 130.903 152.768" stroke="#FFA6A6" stroke-width="1.28" stroke-miterlimit="10" stroke-linecap="round" stroke-linejoin="round"/>
<path d="M193.191 136.414C193.191 136.414 196.215 135.036 196.704 139.301C197.193 143.567 192.697 158.721 185.155 158.929C177.613 159.137 193.191 136.414 193.191 136.414Z" fill="#FDC8BE"/>
<path d="M189.147 133.993C189.147 133.993 191.721 131.89 193.279 135.891C194.838 139.891 194.347 155.691 187.106 157.811C179.866 159.931 189.147 133.993 189.147 133.993Z" fill="#FDC8BE"/>
<path d="M182.641 181.289L180.102 172.619C179.465 170.033 179.784 168.624 181.687 166.759C184.961 163.551 189.769 158.131 190.642 153.244C191.989 145.705 191.426 132.042 187.922 132.345C183.69 132.711 184.319 141.186 183.793 146.603C183.604 148.552 181.867 151.008 180.271 152.144C178.91 153.112 177.018 154.215 174.616 155.051C169.203 156.937 163.646 163.864 164.541 171.729C165.435 179.594 166.196 185.195 166.196 185.195L182.641 181.289Z" fill="#FDC8BE"/>
<path d="M182.44 174.091C181.849 174.091 162.795 178.262 162.795 178.262L164.434 187.723L185.751 183.014L182.44 174.091Z" fill="#FDFDFD"/>
<path d="M187.921 132.346C187.921 132.346 184.821 132.992 184.428 137.85C184.036 142.707 185.924 149.236 180.27 152.144C174.615 155.052 167.8 156.886 165.919 163.731C164.037 170.575 165.057 176.164 165.057 176.164" stroke="#FFA6A6" stroke-width="1.28" stroke-miterlimit="10" stroke-linecap="round" stroke-linejoin="round"/>
<path d="M189.974 134.326C189.974 134.326 192.448 143.861 189.955 153.368" stroke="#FFA6A6" stroke-width="1.28" stroke-miterlimit="10" stroke-linecap="round" stroke-linejoin="round"/>
<path d="M193.712 137.591C193.712 137.591 195.006 145.489 191.984 152.768" stroke="#FFA6A6" stroke-width="1.28" stroke-miterlimit="10" stroke-linecap="round" stroke-linejoin="round"/>
<path d="M218.377 253.533L194.158 185.195C194.158 185.195 193.189 181.479 187.92 182.246" stroke="#E5D7B5" stroke-width="1.28" stroke-miterlimit="10" stroke-linecap="round" stroke-linejoin="round"/>
<path d="M131.818 181.215L160.694 187.723C160.694 187.723 158.889 210.491 156.623 239.432C154.359 268.374 144.292 293.881 124.914 293.881C105.535 293.881 102.515 272.401 104.025 256.797C105.535 241.194 131.818 181.215 131.818 181.215Z" fill="#EFE9D0"/>
<path d="M108.033 253.533L128.727 185.195C128.727 185.195 129.696 181.479 134.965 182.246" stroke="#E5D7B5" stroke-width="1.28" stroke-miterlimit="10" stroke-linecap="round" stroke-linejoin="round"/>
<path d="M150.648 269.535C150.648 269.535 159.034 225.827 160.695 194.17C160.695 194.17 161.388 189.293 160.695 187.723" stroke="#E5D7B5" stroke-width="1.28" stroke-miterlimit="10" stroke-linecap="round" stroke-linejoin="round"/>
<path d="M173.745 113.676C170.773 109.601 169.053 104.626 168.875 99.586" stroke="#594340" stroke-width="1.28" stroke-miterlimit="10" stroke-linecap="round" stroke-linejoin="round"/>
<path d="M131.297 107.839C132.714 102.765 135.332 98.0255 138.877 94.1134" stroke="#594340" stroke-width="1.28" stroke-miterlimit="10" stroke-linecap="round" stroke-linejoin="round"/>
<path d="M140.934 118.355C143.018 113.515 144.642 108.502 145.781 103.394" stroke="#594340" stroke-width="1.28" stroke-miterlimit="10" stroke-linecap="round" stroke-linejoin="round"/>
<path d="M157.043 92.0352C158.566 88.2873 160.923 84.8812 163.892 82.1339" stroke="#594340" stroke-width="1.28" stroke-miterlimit="10" stroke-linecap="round" stroke-linejoin="round"/>
<path d="M164.434 187.723C164.434 187.723 162.103 188.065 162.794 195.251C163.486 202.437 166.362 254.696 172.059 269.535" stroke="#E5D7B5" stroke-width="1.28" stroke-miterlimit="10" stroke-linecap="round" stroke-linejoin="round"/>
<path d="M176.944 115.465C176.944 115.465 172.82 112.364 167.172 113.905" stroke="#283026" stroke-width="1.28" stroke-miterlimit="10" stroke-linecap="round" stroke-linejoin="round"/>
<path d="M404.759 127.526C404.759 127.526 386.659 161.024 396.469 177.04H410.41L419.265 144.356L404.759 127.526Z" fill="#A6807C"/>
<path d="M330.895 175.211C330.895 175.211 352.413 162.73 381.987 162.73V272.065H346.233L330.895 175.211Z" fill="#ADC5DC"/>
<path d="M353.676 127.128C353.676 127.128 335.306 184.631 369.798 188.358C369.798 188.358 362.967 147.98 369.798 138.024L353.676 127.128Z" fill="#A6807C"/>
<path d="M433.078 170.691C433.078 170.691 411.56 164.305 381.986 164.305V272.066H417.74L433.078 170.691Z" fill="#ADC5DC"/>
<path d="M364.305 185.473L381.058 197.639L398.161 185.66L393.091 272.065H369.795L364.305 185.473Z" fill="#FDFDFD"/>
<path d="M352.835 293.633C352.835 293.633 329.101 303.944 319.257 267.1C310.988 236.153 308.913 203.339 316.172 188.357C321.066 178.255 339.666 171.099 339.666 171.099L350.527 238.899L352.835 293.633Z" fill="#ADC5DC"/>
<path d="M412.457 293.633C412.457 293.633 436.192 303.944 446.035 267.1C454.304 236.153 455.863 199.646 449.121 184.425C442.722 169.979 422.221 168.166 422.221 168.166L414.766 238.899L412.457 293.633Z" fill="#ADC5DC"/>
<path d="M364.305 185.473L381.058 197.64L398.161 185.661L398.739 171.447L399.451 154.171L365.689 152.783L364.964 170.47L364.305 185.473Z" fill="#FDC8BE"/>
<path d="M365.035 168.339C369.267 172.347 374.802 174.822 381.464 175.088C388.339 175.363 394.208 173.197 398.81 169.316L399.522 152.04L365.76 150.653L365.035 168.339Z" fill="#FFA6A6"/>
<path d="M408.779 136.013C410.387 154.255 401.455 169.945 384.399 171.448C367.343 172.951 355.805 159.066 354.197 140.825C352.589 122.583 361.521 106.893 378.577 105.39C395.633 103.887 407.171 117.772 408.779 136.013Z" fill="#FDC8BE"/>
<path d="M374.654 139.343C374.757 140.527 374.195 141.543 373.398 141.612C372.602 141.682 371.873 140.778 371.77 139.594C371.667 138.41 372.229 137.394 373.025 137.325C373.822 137.256 374.551 138.159 374.654 139.343Z" fill="#283026"/>
<path d="M371.324 144.694C371.464 146.309 369.837 147.77 367.69 147.957C365.543 148.144 363.688 146.986 363.548 145.371C363.407 143.756 365.034 142.296 367.181 142.109C369.329 141.922 371.184 143.08 371.324 144.694Z" fill="#FFA6A6"/>
<path d="M388.377 138.149C388.48 139.333 389.209 140.236 390.006 140.167C390.802 140.098 391.364 139.082 391.261 137.898C391.158 136.714 390.429 135.81 389.633 135.88C388.836 135.949 388.275 136.965 388.377 138.149Z" fill="#283026"/>
<path d="M392.581 142.845C392.721 144.46 394.576 145.617 396.723 145.43C398.871 145.244 400.498 143.783 400.357 142.168C400.217 140.553 398.362 139.396 396.215 139.583C394.067 139.769 392.44 141.23 392.581 142.845Z" fill="#FFA6A6"/>
<path d="M374.77 149.071C374.77 149.071 377.357 152.325 382.701 151.86C388.044 151.395 389.944 147.751 389.944 147.751" stroke="#FF9999" stroke-width="1.70667" stroke-miterlimit="10" stroke-linecap="round" stroke-linejoin="round"/>
<path d="M379.282 143.758C379.362 144.717 380.516 145.403 381.859 145.291C383.202 145.178 384.226 144.31 384.145 143.351C384.065 142.392 382.911 141.706 381.568 141.819C380.225 141.931 379.202 142.8 379.282 143.758Z" fill="#FFA6A6"/>
<path d="M379.291 105.874C379.291 105.874 371.305 104.053 365.252 113.089C359.2 122.125 358.577 144.562 343.695 149.512C343.695 149.512 347.135 140.466 347.358 127.385C347.582 114.304 357.916 93.1631 380.401 97.0343L379.291 105.874Z" fill="#A6807C"/>
<path d="M348.031 121.601C348.031 121.601 345.65 137.668 335.099 151.637C324.547 165.606 346.847 174.627 344.363 184.639C344.363 184.639 343.635 192.808 338.758 198.742C333.882 204.676 337.742 216.335 348.808 222.324C348.808 222.324 344.728 214.282 352.785 205.85C360.842 197.418 365.887 194.606 364.713 181.386C363.538 168.166 347.514 161.715 353.225 141.983L348.031 121.601Z" fill="#A6807C"/>
<path d="M350.256 205.812C356.443 199.85 356.61 185.654 352.508 178.104C350.624 174.637 347.761 171.824 345.311 168.729C342.861 165.635 340.737 161.991 340.778 158.044C340.817 154.253 342.83 150.805 344.702 147.508C349.057 139.836 352.999 131.803 354.835 123.175C354.835 123.175 357.776 107.525 366.315 103.65" stroke="#97716D" stroke-width="1.28" stroke-miterlimit="10" stroke-linecap="round" stroke-linejoin="round"/>
<path d="M359.119 144.362C359.773 148.664 357.889 152.517 353.867 153.129C349.845 153.74 346.902 150.619 346.248 146.318C345.595 142.016 347.478 138.163 351.5 137.551C355.522 136.94 358.465 140.061 359.119 144.362Z" fill="#FDC8BE"/>
<path d="M350.258 143.91C352.284 144.459 354.211 145.374 355.918 146.596" stroke="#FFA6A6" stroke-width="1.28" stroke-miterlimit="10" stroke-linecap="round" stroke-linejoin="round"/>
<path d="M350.957 147.883C351.631 146.997 352.499 146.261 353.482 145.741" stroke="#FFA6A6" stroke-width="1.28" stroke-miterlimit="10" stroke-linecap="round" stroke-linejoin="round"/>
<path d="M349.705 155.45C349.705 155.45 346.591 155.048 347.338 159.035C348.086 163.022 356.365 175.449 363.231 173.536C376.516 169.832 348.635 154.601 349.705 155.45Z" fill="#FDC8BE"/>
<path d="M352.679 152.137C352.679 152.137 349.77 150.957 349.477 155.002C349.186 159.047 354.029 173.173 361.156 173.07C368.283 172.966 352.679 152.137 352.679 152.137Z" fill="#FDC8BE"/>
<path d="M361.885 195.176L364.781 187.148C365.531 184.746 367.514 182.419 365.693 180.683C362.559 177.695 358.841 174.101 356.692 169.933C353.375 163.503 350.078 151.013 353.326 150.31C357.247 149.461 359.041 157.287 361.024 162.031C361.738 163.737 365.319 165.807 366.841 166.858C368.139 167.755 368.754 169.972 370.97 170.9C375.965 172.991 380.804 179.845 379.505 187.209C378.207 194.574 377.165 199.812 377.165 199.812L361.885 195.176Z" fill="#FDC8BE"/>
<path d="M353.328 150.31C353.328 150.31 356.306 150.031 358.014 154.306C359.721 158.581 361.465 164.186 366.843 166.859C372.222 169.532 377.293 173.024 378.671 179.587C380.049 186.15 378.763 191.361 378.763 191.361" stroke="#FFA6A6" stroke-width="1.28" stroke-miterlimit="10" stroke-linecap="round" stroke-linejoin="round"/>
<path d="M352.023 152.669C352.023 152.669 352.446 161.966 357.345 169.854" stroke="#FFA6A6" stroke-width="1.28" stroke-miterlimit="10" stroke-linecap="round" stroke-linejoin="round"/>
<path d="M349.562 156.658C349.562 156.658 350.595 164.149 355.349 169.877" stroke="#FFA6A6" stroke-width="1.28" stroke-miterlimit="10" stroke-linecap="round" stroke-linejoin="round"/>
<path d="M358.275 192.827L378.249 198.876C380.142 199.449 381.384 201.259 381.238 203.231C380.79 209.262 379.754 225.218 378.246 244.478C376.186 270.801 367.031 293.999 349.407 293.999C331.782 293.999 329.035 274.463 330.408 260.272C331.568 248.293 348.058 207.089 353.171 195.199C354.02 193.224 356.218 192.203 358.275 192.827Z" fill="#ADC5DC"/>
<path d="M372.185 105.311C369.901 107.482 368.479 110.412 367.475 113.399C366.472 116.386 365.84 119.487 364.858 122.482C363.875 125.476 362.499 128.421 360.262 130.641C359.937 130.964 359.568 131.333 359.589 131.791C359.61 132.259 360.065 132.616 360.529 132.686C360.992 132.755 361.436 132.522 361.898 132.441C379.307 129.379 378.048 107.927 378.597 106.408C379.881 102.858 380.622 104.008 379.881 102.858C378.48 100.684 373.351 104.202 372.185 105.311Z" fill="#A6807C"/>
<path d="M364.951 131.158C364.951 131.158 368.929 127.872 374.642 129.154" stroke="#97716D" stroke-width="1.28" stroke-miterlimit="10" stroke-linecap="round" stroke-linejoin="round"/>
<path d="M395.134 128.355C395.134 128.355 390.647 125.806 385.242 128.055" stroke="#97716D" stroke-width="1.28" stroke-miterlimit="10" stroke-linecap="round" stroke-linejoin="round"/>
<path d="M377.209 106.294C377.209 106.294 383.93 105.051 389.558 109.872C395.185 114.694 397.675 133.208 410.712 134.768L416.413 135.493C416.413 135.493 412.708 131.79 410.358 119.737C408.009 107.683 399.3 92.1972 380.399 97.0334L376.104 99.6007L377.209 106.294Z" fill="#A6807C"/>
<path d="M409.105 114.907C409.105 114.907 411.061 129.117 424.464 141.438C437.867 153.759 429.104 163.647 422.022 175.539C414.939 187.431 438.15 197.892 429.65 209.333C421.15 220.775 412.201 219.101 412.201 219.101C412.201 219.101 419.516 213.607 416.901 203.951C414.286 194.296 400.791 189.445 401.39 175.158C401.99 160.871 416.44 148.792 403.616 130.844L409.105 114.907Z" fill="#A6807C"/>
<path d="M414.984 139.105C414.787 146.504 423.219 152.11 422.791 159.498C422.409 166.072 415.214 170.418 413.93 176.877C412.786 182.624 416.591 188.07 420.184 192.699" stroke="#97716D" stroke-width="1.28" stroke-miterlimit="10" stroke-linecap="round" stroke-linejoin="round"/>
<path d="M369.881 103.649C369.881 103.649 366.367 109.269 365.283 121.106L371.836 114.25L373.21 105.017L369.881 103.649Z" fill="#A6807C"/>
<path d="M413.175 155.17C413.175 155.17 416.25 154.536 415.804 158.568C415.358 162.599 408.034 175.613 401.044 174.219C387.518 171.523 414.179 154.244 413.175 155.17Z" fill="#FDC8BE"/>
<path d="M409.959 152.09C409.959 152.09 412.771 150.694 413.366 154.706C413.961 158.719 410.19 173.168 403.075 173.599C395.96 174.031 409.959 152.09 409.959 152.09Z" fill="#FDC8BE"/>
<path d="M400.862 195.176L397.965 187.148C397.215 184.746 397.435 183.399 399.121 181.531C402.023 178.316 405.46 174.453 407.291 170.136C410.116 163.476 412.467 150.773 409.176 150.316C405.202 149.763 404 157.701 402.378 162.581C401.794 164.336 398.379 166.668 396.94 167.831C395.712 168.823 393.993 169.972 391.777 170.9C386.781 172.991 381.942 179.845 383.241 187.209C384.54 194.574 385.582 199.812 385.582 199.812L400.862 195.176Z" fill="#FDC8BE"/>
<path d="M409.176 150.314C409.176 150.314 406.186 150.259 404.803 154.65C403.421 159.042 402.103 164.761 396.94 167.83C391.777 170.899 385.456 173.023 384.078 179.586C382.701 186.148 383.986 191.359 383.986 191.359" stroke="#FFA6A6" stroke-width="1.28" stroke-miterlimit="10" stroke-linecap="round" stroke-linejoin="round"/>
<path d="M410.653 152.57C410.653 152.57 410.928 161.873 406.635 170.105" stroke="#FFA6A6" stroke-width="1.28" stroke-miterlimit="10" stroke-linecap="round" stroke-linejoin="round"/>
<path d="M413.408 156.363C413.408 156.363 412.94 163.91 408.629 169.979" stroke="#FFA6A6" stroke-width="1.28" stroke-miterlimit="10" stroke-linecap="round" stroke-linejoin="round"/>
<path d="M404.474 192.827L384.5 198.876C382.607 199.449 381.365 201.259 381.512 203.231C381.959 209.262 382.996 225.218 384.503 244.478C386.563 270.801 395.718 293.999 413.343 293.999C430.967 293.999 433.714 274.463 432.341 260.272C431.182 248.293 414.691 207.089 409.579 195.199C408.729 193.224 406.531 192.203 404.474 192.827Z" fill="#ADC5DC"/>
<path d="M388.916 102.405C393.305 104.099 396.471 108.028 398.631 112.208C400.79 116.389 402.146 120.939 404.195 125.174C406.243 129.409 409.168 133.471 413.411 135.505" stroke="#97716D" stroke-width="1.28" stroke-miterlimit="10" stroke-linecap="round" stroke-linejoin="round"/>
<path d="M440.322 66.4108C435.44 63.8037 431.063 70.1767 431.063 70.1767C431.063 70.1767 434.438 63.2694 429.556 60.6623C424.674 58.0552 419.679 63.5175 419.058 70.3474C418.456 76.9628 422.724 83.5706 422.992 83.9793L422.987 83.9889C422.987 83.9889 422.992 83.9889 422.999 83.9889C423.003 83.9952 423.006 83.999 423.006 83.999L423.012 83.9895C423.516 83.9933 431.637 84.0009 437.21 80.0395C442.964 75.9506 445.204 69.0179 440.322 66.4108Z" fill="#F07C7C"/>
<path d="M502.526 345.867C490.28 338.946 478.77 354.873 478.77 354.873C478.77 354.873 487.766 337.527 475.52 330.605C463.274 323.684 450.249 337.259 448.256 354.575C446.324 371.348 456.767 388.398 457.423 389.453L457.409 389.477C457.409 389.477 457.421 389.477 457.439 389.477C457.449 389.494 457.456 389.504 457.456 389.504L457.471 389.48C458.753 389.52 479.387 390.034 493.788 380.308C508.657 370.268 514.772 352.789 502.526 345.867Z" fill="#F97173"/>
<path d="M310.634 124.268C306.784 122.745 304.224 128.063 304.224 128.063C304.224 128.063 305.995 122.433 302.146 120.91C298.297 119.387 295.19 124.067 295.433 129.368C295.668 134.502 299.475 139.155 299.714 139.442L299.711 139.45L299.72 139.449C299.723 139.453 299.726 139.456 299.726 139.456L299.729 139.448C300.099 139.402 306.059 138.613 309.743 135.029C313.547 131.329 314.483 125.791 310.634 124.268Z" fill="#FFA6A6"/>
<path d="M405.777 117.47C407.471 123.428 409.972 129.168 413.194 134.493" stroke="#97716D" stroke-width="1.28" stroke-miterlimit="10" stroke-linecap="round" stroke-linejoin="round"/>
<path d="M404.616 140.402C404.715 144.752 407.236 148.223 411.303 148.13C415.37 148.037 417.731 144.456 417.632 140.106C417.532 135.756 415.012 132.286 410.945 132.378C406.878 132.471 404.517 136.052 404.616 140.402Z" fill="#FDC8BE"/>
<path d="M413.268 138.428C411.367 139.319 409.627 140.552 408.156 142.051" stroke="#FFA6A6" stroke-width="1.28" stroke-miterlimit="10" stroke-linecap="round" stroke-linejoin="round"/>
<path d="M413.267 142.461C412.45 141.705 411.468 141.13 410.41 140.787" stroke="#FFA6A6" stroke-width="1.28" stroke-miterlimit="10" stroke-linecap="round" stroke-linejoin="round"/>
<path d="M275.202 212.278C275.202 212.278 250.56 209.27 238.684 226.047C227.158 242.332 232.004 258.844 238.782 272.11H275.202V212.278Z" fill="#FFA6A6"/>
<path d="M275.201 212.278C275.201 212.278 299.844 209.27 311.72 226.047C323.246 242.332 318.399 258.844 311.621 272.11H275.201V212.278Z" fill="#FFA6A6"/>
<path d="M285.556 218.391C285.556 224.045 280.973 228.629 275.319 228.629C269.665 228.629 265.082 224.045 265.082 218.391C265.082 212.738 269.665 208.154 275.319 208.154C280.973 208.154 285.556 212.738 285.556 218.391Z" fill="#FDC8BE"/>
<path d="M298.449 165.512C303.166 171.433 304.38 179.569 304.366 187.257C304.352 194.945 303.299 202.668 304.246 210.293C304.97 216.125 306.861 221.913 306.199 227.75C305.822 231.075 304.63 234.232 303.855 237.48C303.08 240.728 303.716 246.254 306.815 249.425C302.217 250.27 297.41 248.357 294.744 246.337C292.078 244.317 290.362 241.207 289.122 238.025C284.595 226.403 285.757 212.556 292.149 201.945" fill="#A6807C"/>
<path d="M264.638 210.796C266.897 214.455 267.069 219.033 266.559 223.303C266.05 227.573 264.929 231.779 264.844 236.078C264.76 240.378 265.901 244.976 269.133 247.811C266.276 248.335 262.89 247.633 260.587 245.861C258.284 244.09 256.246 241.451 255.224 238.959C255.64 242.834 257.059 246.597 259.306 249.782C255.863 249.838 252.747 249.484 250.127 247.756C244.585 244.101 240.8 238.144 240.49 231.513C240.179 224.881 242.448 218.442 244.32 212.072C246.191 205.703 247.687 198.871 245.849 192.491" fill="#A6807C"/>
<path d="M249.411 188.084C249.9 205.169 256.641 218.848 275.816 218.317C294.991 217.786 301.023 203.763 300.534 186.678C300.217 175.613 293.378 158.522 274.203 159.054C255.028 159.584 249.091 176.903 249.411 188.084Z" fill="#FDC8BE"/>
<path d="M281.513 191.21C281.545 192.319 282.175 193.201 282.921 193.179C283.667 193.158 284.246 192.241 284.214 191.133C284.182 190.024 283.552 189.143 282.806 189.164C282.06 189.185 281.481 190.101 281.513 191.21Z" fill="#283026"/>
<path d="M287.761 183.254C287.761 183.254 284.215 181.626 280.07 182.908" stroke="#725A55" stroke-width="1.28" stroke-miterlimit="10" stroke-linecap="round" stroke-linejoin="round"/>
<path d="M261.969 183.992C261.969 183.992 265.415 182.164 269.627 183.207" stroke="#725A55" stroke-width="1.28" stroke-miterlimit="10" stroke-linecap="round" stroke-linejoin="round"/>
<path d="M283.724 195.937C283.772 197.629 285.441 198.953 287.453 198.896C289.464 198.838 291.055 197.42 291.006 195.729C290.958 194.037 289.288 192.712 287.277 192.77C285.267 192.828 283.676 194.245 283.724 195.937Z" fill="#FFA6A6"/>
<path d="M266.725 196.424C266.773 198.116 265.182 199.533 263.172 199.591C261.161 199.649 259.491 198.324 259.442 196.632C259.394 194.941 260.985 193.523 262.996 193.465C265.007 193.408 266.677 194.732 266.725 196.424Z" fill="#FFA6A6"/>
<path d="M268.661 191.578C268.693 192.687 268.114 193.603 267.368 193.625C266.622 193.646 265.992 192.764 265.96 191.656C265.928 190.547 266.507 189.631 267.253 189.609C267.999 189.588 268.629 190.469 268.661 191.578Z" fill="#283026"/>
<path d="M270.023 199.639C270.023 199.639 271.74 205.917 275.468 205.81C279.197 205.704 280.612 199.336 280.612 199.336L270.023 199.639Z" fill="#F07C7C"/>
<path d="M284.778 216.898C284.778 216.898 282.466 218.383 276.003 218.461C269.541 218.54 266.777 217.375 266.777 217.375" stroke="#FFA6A6" stroke-width="1.28" stroke-miterlimit="10" stroke-linecap="round" stroke-linejoin="round"/>
<path d="M273.594 195.431C273.62 196.318 274.359 197.016 275.246 196.991C276.134 196.965 276.832 196.226 276.806 195.339C276.781 194.452 276.041 193.753 275.154 193.779C274.267 193.804 273.569 194.544 273.594 195.431Z" fill="#FFA6A6"/>
<path d="M301.592 187.337C301.592 187.337 296.9 187.455 295.169 182.329C290.051 167.176 282.865 170.835 278.184 163.419L265.125 155.573C265.125 155.573 283.652 150.187 295.397 161.871C307.142 173.555 301.592 187.337 301.592 187.337Z" fill="#A6807C"/>
<path d="M278.48 159.167L278.183 163.419C278.183 163.419 275.639 166.543 265.031 170.143C254.423 173.743 250.466 189.54 250.466 189.54L246.622 190.105C246.622 190.105 245.469 182.665 248.336 172.084C251.204 161.503 261.856 151.058 278.48 154.482V159.167Z" fill="#A6807C"/>
<path d="M252.014 224.219C251.566 228.665 252.303 233.225 254.127 237.305" stroke="#97716D" stroke-width="1.28" stroke-miterlimit="10" stroke-linecap="round" stroke-linejoin="round"/>
<path d="M297.79 223.293C293.958 230.566 295.166 240.175 300.68 246.272" stroke="#97716D" stroke-width="1.28" stroke-miterlimit="10" stroke-linecap="round" stroke-linejoin="round"/>
<path d="M295.047 169.552C298.138 175.76 299.859 182.646 300.052 189.578" stroke="#97716D" stroke-width="1.28" stroke-miterlimit="10" stroke-linecap="round" stroke-linejoin="round"/>
<path d="M294.649 193.008C294.506 197.066 296.666 200.437 300.461 200.571C304.255 200.706 306.649 197.496 306.793 193.438C306.936 189.38 304.776 186.009 300.981 185.875C297.187 185.74 294.793 188.949 294.649 193.008Z" fill="#FDC8BE"/>
<path d="M302.819 191.637C300.999 192.364 299.311 193.419 297.859 194.735" stroke="#FFA6A6" stroke-width="1.28" stroke-miterlimit="10" stroke-linecap="round" stroke-linejoin="round"/>
<path d="M302.598 195.396C301.879 194.648 300.995 194.059 300.027 193.682" stroke="#FFA6A6" stroke-width="1.28" stroke-miterlimit="10" stroke-linecap="round" stroke-linejoin="round"/>
<path d="M288.744 226.54C288.744 226.54 302.546 259.47 305.518 270.498C309.559 285.495 289.433 292.782 284.211 279.058C281.032 270.705 276.898 234.459 276.898 234.459L288.744 226.54Z" fill="#FDC8BE"/>
<path d="M303.658 203.997C303.658 203.997 306.485 203.632 305.806 207.25C305.128 210.869 297.613 222.149 291.381 220.412C279.323 217.051 304.63 203.227 303.658 203.997Z" fill="#FDC8BE"/>
<path d="M300.957 200.989C300.957 200.989 303.598 199.917 303.863 203.589C304.128 207.261 299.731 220.083 293.262 219.989C286.794 219.895 300.957 200.989 300.957 200.989Z" fill="#FDC8BE"/>
<path d="M292.601 240.054L289.972 232.767C289.291 230.587 287.491 228.475 289.144 226.899C291.989 224.187 295.363 220.925 297.314 217.142C300.324 211.306 303.317 199.969 300.37 199.331C296.811 198.56 295.182 205.663 293.382 209.969C292.734 211.518 289.484 213.397 288.102 214.351C286.924 215.165 285.446 216.257 283.434 217.1C278.9 218.998 275.428 226.139 276.607 232.823C277.786 239.507 278.732 244.262 278.732 244.262L292.601 240.054Z" fill="#FDC8BE"/>
<path d="M300.37 199.33C300.37 199.33 297.667 199.076 296.117 202.957C294.567 206.837 292.985 211.924 288.103 214.35C283.221 216.777 278.618 219.947 277.368 225.904C276.117 231.86 276.172 234.944 276.172 234.944" stroke="#FFA6A6" stroke-width="1.28" stroke-miterlimit="10" stroke-linecap="round" stroke-linejoin="round"/>
<path d="M301.551 201.472C301.551 201.472 301.167 209.91 296.721 217.069" stroke="#FFA6A6" stroke-width="1.28" stroke-miterlimit="10" stroke-linecap="round" stroke-linejoin="round"/>
<path d="M303.788 205.092C303.788 205.092 302.851 211.89 298.535 217.09" stroke="#FFA6A6" stroke-width="1.28" stroke-miterlimit="10" stroke-linecap="round" stroke-linejoin="round"/>
<path d="M278.484 161.622C278.496 159.844 279.061 158.075 280.069 156.657" stroke="#97716D" stroke-width="1.28" stroke-miterlimit="10" stroke-linecap="round" stroke-linejoin="round"/>
<path d="M249.184 189.253C248.764 183.135 250.935 176.88 255.055 172.337" stroke="#97716D" stroke-width="1.28" stroke-miterlimit="10" stroke-linecap="round" stroke-linejoin="round"/>
<path d="M254.43 194.159C254.805 198.203 252.841 201.692 249.061 202.043C245.28 202.394 242.706 199.327 242.331 195.284C241.955 191.24 243.919 187.751 247.7 187.4C251.481 187.049 254.054 190.116 254.43 194.159Z" fill="#FDC8BE"/>
<path d="M246.195 193.257C248.053 193.879 249.799 194.836 251.324 196.067" stroke="#FFA6A6" stroke-width="1.28" stroke-miterlimit="10" stroke-linecap="round" stroke-linejoin="round"/>
<path d="M246.631 196.998C247.307 196.21 248.155 195.571 249.1 195.139" stroke="#FFA6A6" stroke-width="1.28" stroke-miterlimit="10" stroke-linecap="round" stroke-linejoin="round"/>
<path d="M260.349 226.54C260.349 226.54 246.548 259.47 243.575 270.498C239.534 285.495 259.661 292.782 264.883 279.058C268.062 270.705 272.195 234.459 272.195 234.459L260.349 226.54Z" fill="#FDC8BE"/>
<path d="M245.435 203.997C245.435 203.997 242.608 203.632 243.287 207.25C243.965 210.869 251.48 222.149 257.712 220.412C269.77 217.051 244.464 203.227 245.435 203.997Z" fill="#FDC8BE"/>
<path d="M248.134 200.989C248.134 200.989 245.494 199.917 245.228 203.589C244.963 207.261 249.36 220.083 255.829 219.989C262.297 219.895 248.134 200.989 248.134 200.989Z" fill="#FDC8BE"/>
<path d="M256.493 240.054L259.121 232.767C259.802 230.587 261.603 228.475 259.95 226.899C257.104 224.187 253.731 220.925 251.779 217.142C248.769 211.306 245.776 199.969 248.724 199.331C252.283 198.56 253.911 205.663 255.712 209.969C256.36 211.518 259.61 213.397 260.991 214.351C262.17 215.165 263.648 216.257 265.659 217.1C270.193 218.998 273.665 226.139 272.486 232.823C271.308 239.507 270.362 244.262 270.362 244.262L256.493 240.054Z" fill="#FDC8BE"/>
<path d="M248.723 199.33C248.723 199.33 251.426 199.076 252.976 202.956C254.526 206.837 256.108 211.924 260.99 214.35C265.872 216.777 271.551 218.871 272.801 224.828C274.051 230.784 272.921 238.256 272.921 238.256" stroke="#FFA6A6" stroke-width="1.28" stroke-miterlimit="10" stroke-linecap="round" stroke-linejoin="round"/>
<path d="M247.541 201.472C247.541 201.472 247.925 209.91 252.371 217.069" stroke="#FFA6A6" stroke-width="1.28" stroke-miterlimit="10" stroke-linecap="round" stroke-linejoin="round"/>
<path d="M245.307 205.092C245.307 205.092 246.244 211.89 250.559 217.09" stroke="#FFA6A6" stroke-width="1.28" stroke-miterlimit="10" stroke-linecap="round" stroke-linejoin="round"/>
<path d="M343.516 219.186C343.516 219.186 329.356 251.294 330.894 269.535" stroke="#92B3CC" stroke-width="1.28" stroke-miterlimit="10" stroke-linecap="round" stroke-linejoin="round"/>
<path d="M403.049 193.258C403.049 193.258 407.167 190.255 410.41 197.64C413.653 205.025 429.746 245.169 431.549 264.23" stroke="#92B3CC" stroke-width="1.28" stroke-miterlimit="10" stroke-linecap="round" stroke-linejoin="round"/>
<path d="M366.785 126.499C369.099 124.362 370.259 121.248 370.907 118.166C371.556 115.084 371.775 111.913 372.607 108.876C373.439 105.838 375.001 102.837 377.66 101.147" stroke="#97716D" stroke-width="1.28" stroke-miterlimit="10" stroke-linecap="round" stroke-linejoin="round"/>
</g>
</svg>
