<svg width="280" height="280" viewBox="0 0 280 280" fill="none" xmlns="http://www.w3.org/2000/svg">
<circle cx="140" cy="140" r="140" fill="white"/>
<mask id="mask0_491_20618" style="mask-type:alpha" maskUnits="userSpaceOnUse" x="0" y="0" width="280" height="280">
<circle cx="140" cy="140" r="140" fill="white"/>
</mask>
<g mask="url(#mask0_491_20618)">
<mask id="mask1_491_20618" style="mask-type:alpha" maskUnits="userSpaceOnUse" x="-33" y="18" width="329" height="329">
<rect x="-32.3789" y="18.6963" width="327.68" height="327.68" fill="#D9D9D9"/>
</mask>
<g mask="url(#mask1_491_20618)">
<path d="M47.0697 125.863L51.3069 136.721V152.081L55.809 170.619L62.1648 183.331L68.2559 191.011L86.529 202.663L98.7111 207.165L88.3828 211.667L82.8214 212.727L67.4614 209.549L56.3386 200.015L55.809 197.102L56.8683 190.216L53.1607 183.066L43.6269 178.299H35.9469L29.3262 181.742L23.5 190.216V198.691L26.6779 205.841L32.5041 209.549L39.9193 212.197L53.4255 226.763L61.9 231.794L79.6435 236.032H101.889L101.095 256.953L100.035 269.665L101.889 271.254L99.5055 308.329L97.9166 317.069L96.3276 321.571L92.0904 327.927L92.62 333.223L102.154 335.872L114.071 334.547L121.486 329.251L125.194 322.63L131.285 298.531L134.198 285.025L152.736 285.289L156.179 313.891L159.357 324.749L161.74 330.31L175.776 335.077L184.25 333.753L188.752 329.781V323.69L184.25 320.247L181.602 310.448V294.029L185.839 269.135L192.46 266.752L190.871 245.301L188.752 236.032H201.729L217.089 232.589L227.947 227.292L236.421 219.877L242.248 211.932L248.868 209.019L256.284 205.576L258.667 197.367V191.011L253.106 181.477L242.248 178.034L230.86 181.477L225.828 187.833V193.659V198.956L220.267 205.576L207.82 211.932H198.816L181.602 209.019L177.895 205.576L197.757 198.956L217.089 186.774L225.828 176.18L231.919 159.232V145.725L229.801 137.251L223.18 121.626L231.919 92.2301L229.801 77.9294L219.737 60.4508L209.674 50.6522L192.46 40.8535L170.744 32.9087L148.764 28.9363H130.755L107.45 34.2328L95.798 40.8535L90.5014 42.4425L74.0821 48.5335L60.3111 58.597L48.3938 74.4866L43.8917 93.0246V107.325L47.0697 125.863Z" fill="white"/>
<path d="M186.439 265.99C186.439 265.99 107.523 265.225 102.503 264.871C101.812 271.085 104.164 307.548 97.2031 319.286C101.439 322.477 123.216 325.369 123.216 325.369C123.216 325.369 133.275 289.671 133.853 284.875C133.853 284.875 151.45 287.283 151.879 286.293C152.309 285.304 151.45 287.283 151.45 287.283L158.765 325.649C158.765 325.649 168.338 320.741 184.275 319.472C182.763 312.213 181.793 300.084 182.95 292.022C184.088 283.961 186.458 266.009 186.458 266.009L186.439 265.99Z" fill="#8EBDE2"/>
<path d="M181.625 219.357C181.625 219.357 188.753 240.948 186.439 265.991C184.126 291.052 179.199 299.804 184.256 319.473" stroke="#7C6656" stroke-width="5" stroke-linecap="round" stroke-linejoin="round"/>
<path d="M102.895 224.994C102.895 224.994 101.607 272.224 101.533 289.728C101.458 307.232 96.793 320.799 96.793 320.799C96.793 320.799 117.469 321.097 123.646 325.371C125.083 322.142 125.568 320.201 126.184 317.253C128.722 305.049 133.835 284.877 133.835 284.877C133.835 284.877 155.22 286.612 160.035 283.906" stroke="#7C6656" stroke-width="5" stroke-linecap="round" stroke-linejoin="round"/>
<path d="M165.128 209.709C163.112 213.366 158.391 217.882 148.034 219.226C136.987 220.663 128.982 217.77 124.148 210.716" stroke="#7C6656" stroke-width="5" stroke-linecap="round" stroke-linejoin="round"/>
<path d="M186.44 265.99H102.672" stroke="#7C6656" stroke-width="5" stroke-linecap="round" stroke-linejoin="round"/>
<path d="M257.088 107.371C257.673 101.755 253.826 95.4426 246.632 96.039C240.292 96.6023 235.173 102.914 235.005 110.767C234.855 117.427 237.816 124.418 241.697 129.935C248.322 131.443 255.967 131.559 262.123 128.908C269.4 125.826 273.415 118.719 271.542 112.739C269.434 105.896 262.073 104.704 257.088 107.371Z" fill="#EE7374"/>
<path d="M25.3731 148.69C20.5987 146.637 14.0147 148.252 12.5855 154.68C11.3629 160.353 15.4886 166.535 22.3345 168.841C28.14 170.798 35.0721 170.149 40.9734 168.272C44.0905 162.931 46.2806 156.305 45.6413 150.214C44.9292 143.034 39.7877 137.59 34.0224 137.575C27.4391 137.525 24.4007 143.599 25.3731 148.69Z" fill="#EE7374"/>
<g filter="url(#filter0_f_491_20618)">
<ellipse cx="198.769" cy="149.258" rx="16.0919" ry="9.15029" transform="rotate(-7.65296 198.769 149.258)" fill="#F5B0B0"/>
</g>
<g filter="url(#filter1_f_491_20618)">
<ellipse cx="106.079" cy="163.264" rx="16.0919" ry="9.15029" transform="rotate(-7.65296 106.079 163.264)" fill="#F5B0B0"/>
</g>
<path d="M128.61 140.104C129.599 148.203 123.833 155.593 115.734 156.582C107.636 157.571 100.246 151.805 99.2569 143.706C98.2679 135.607 104.034 128.217 112.133 127.228C120.232 126.239 127.621 132.005 128.61 140.104Z" fill="#7C6656"/>
<path d="M119.635 154.94C119.635 154.94 115.175 149.528 118.329 146.393C121.482 143.258 127.827 145.236 127.827 145.236C128.182 139.638 126.801 136.689 126.801 136.689C123.89 138.779 118.571 138.873 116.985 136.689C114.205 132.845 116.388 128.721 116.388 128.721L116.948 128.012C116.948 128.012 113.962 126.631 111.294 127.359C108.644 128.105 107.823 129.748 107.823 129.748C107.823 129.748 110.939 133.237 109.166 137.623C108.159 140.104 102.971 141.299 99.6493 139.974C99.6493 139.974 99.0335 143.165 100.713 148.502C100.713 148.502 106.405 145.05 110.211 147.345C114.018 149.64 111.014 155.966 111.014 155.966C111.014 155.966 113.626 156.974 115.716 156.563C117.806 156.153 119.616 154.902 119.616 154.902L119.635 154.94Z" fill="white" stroke="#7C6656" stroke-width="2" stroke-linecap="round" stroke-linejoin="round"/>
<path d="M128.61 140.104C129.599 148.203 123.833 155.593 115.734 156.582C107.636 157.571 100.246 151.805 99.2569 143.706C98.2679 135.607 104.034 128.217 112.133 127.228C120.232 126.239 127.621 132.005 128.61 140.104Z" stroke="#7C6656" stroke-width="5" stroke-linecap="round" stroke-linejoin="round"/>
<path d="M196.462 129.636C197.451 137.734 191.685 145.124 183.586 146.113C175.487 147.102 168.097 141.336 167.108 133.237C166.119 125.138 171.886 117.749 179.984 116.76C188.083 115.771 195.473 121.537 196.462 129.636Z" fill="#7C6656"/>
<path d="M187.487 144.451C187.487 144.451 183.027 139.04 186.18 135.905C189.334 132.77 195.679 134.748 195.679 134.748C196.033 129.15 194.652 126.201 194.652 126.201C191.741 128.291 186.423 128.385 184.837 126.201C182.056 122.376 184.24 118.233 184.24 118.233L184.799 117.524C184.799 117.524 181.814 116.143 179.145 116.871C176.495 117.617 175.674 119.259 175.674 119.259C175.674 119.259 178.791 122.749 177.018 127.134C176.01 129.616 170.822 130.81 167.501 129.486C167.501 129.486 166.885 132.677 168.565 138.014C168.565 138.014 174.256 134.561 178.063 136.857C181.87 139.152 178.865 145.478 178.865 145.478C178.865 145.478 181.478 146.486 183.568 146.075C185.658 145.664 187.468 144.414 187.468 144.414L187.487 144.451Z" fill="white" stroke="#7C6656" stroke-width="2" stroke-linecap="round" stroke-linejoin="round"/>
<path d="M196.462 129.636C197.451 137.734 191.685 145.124 183.586 146.113C175.487 147.102 168.097 141.336 167.108 133.237C166.119 125.138 171.886 117.749 179.984 116.76C188.083 115.771 195.473 121.537 196.462 129.636Z" stroke="#7C6656" stroke-width="5" stroke-linecap="round" stroke-linejoin="round"/>
<path d="M170.895 152.457L138.108 158.559C138.108 158.559 134.973 195.489 159.531 192.186C178.807 189.611 178.751 169.886 170.895 152.457Z" fill="#F299A0" stroke="#7C6656" stroke-width="5" stroke-linecap="round" stroke-linejoin="round"/>
<path d="M100.487 207.489C100.487 207.489 82.4793 216.726 67.5693 209.057C59.0973 203.552 55.7757 198.793 55.7757 198.793C55.7757 198.793 60.6648 182.838 45.1203 178.882C29.5758 174.945 21.7756 187.765 23.0072 197.132C24.2575 206.5 30.1917 209.766 39.1115 210.904C39.1115 210.904 48.6472 226.99 64.6209 232.588C80.5946 238.186 100.487 236.32 100.487 236.32" stroke="#7C6656" stroke-width="5" stroke-linecap="round" stroke-linejoin="round"/>
<path d="M178.229 207.377C178.229 207.377 201.89 215.681 214.337 209.038C222.809 203.533 226.131 198.775 226.131 198.775C226.131 198.775 221.242 182.82 236.786 178.863C252.331 174.926 260.131 187.746 258.899 197.114C257.668 206.481 251.715 209.747 242.795 210.885C242.795 210.885 233.259 226.971 217.286 232.569C201.312 238.168 186.607 236.6 186.607 236.6" stroke="#7C6656" stroke-width="5" stroke-linecap="round" stroke-linejoin="round"/>
<path d="M219.992 100.843C222.008 106.739 221.112 114.819 221.224 117.917C223.351 122.788 234.679 137.754 232.122 157.739C229.584 177.725 213.536 195.752 179.181 205.362C179.181 205.362 158.934 209.915 151.619 209.691" stroke="#7C6656" stroke-width="5" stroke-linecap="round" stroke-linejoin="round"/>
<path d="M137.233 209.766C113.926 211.072 88.0989 205.828 70.9683 192.56C56.7301 181.532 50.4414 167.704 51.8596 135.514" stroke="#7C6656" stroke-width="5" stroke-linecap="round" stroke-linejoin="round"/>
<path d="M50.2726 135.626C21.2736 54.9177 94.1442 41.2393 94.1442 41.2393C142.364 11.7179 200.642 44.5983 200.642 44.5983C200.642 44.5983 243.226 67.2899 228.166 106.067" stroke="#7C6656" stroke-width="5" stroke-linecap="round" stroke-linejoin="round"/>
<path d="M102.412 65.2C102.412 65.2 100.452 91.6983 143.858 103.212" stroke="#7C6656" stroke-width="5" stroke-linecap="round" stroke-linejoin="round"/>
<path d="M93.9758 81.2664C93.9758 81.2664 70.6124 97.6506 66.9922 123.16" stroke="#7C6656" stroke-width="5" stroke-linecap="round" stroke-linejoin="round"/>
<path d="M189.127 100.954C189.127 100.954 158.86 94.3104 146.805 68.2039" stroke="#7C6656" stroke-width="5" stroke-linecap="round" stroke-linejoin="round"/>
<path d="M131.968 48.7404C131.968 48.7404 119.783 54.5066 121.201 64.1542C122.302 71.5626 126.202 74.567 138.985 80.1839C151.786 85.8008 173.862 72.7196 184.48 56.7646C174.869 48.6471 157.683 33.1026 131.968 48.7217V48.7404Z" fill="#1AAF92"/>
<path d="M125.495 72.0109C125.495 72.0109 154.102 102.148 184.967 56.1118C184.967 56.1118 156.64 26.721 122.994 55.1042" stroke="#7C6656" stroke-width="5" stroke-linecap="round" stroke-linejoin="round"/>
<path d="M154.568 61.2252C154.623 61.6357 129.039 71.7313 113.514 57.7729" stroke="#7C6656" stroke-width="5" stroke-linecap="round" stroke-linejoin="round"/>
<path d="M182.06 220.017C181.891 219.161 193.492 251.08 192.984 277.934C192.984 277.934 141.849 288.319 100 281.912C100 281.912 101.996 235.768 102.863 224.226" fill="white"/>
<path d="M182.06 220.017C181.89 219.161 193.492 251.08 192.984 277.934C192.984 277.934 141.849 288.319 100 281.912C100 281.912 101.996 235.768 102.863 224.226" stroke="#7C6656" stroke-width="5" stroke-linecap="round" stroke-linejoin="round"/>
<path d="M193.998 212.191C193.998 212.191 193.438 226.579 188.381 235.853L193.998 212.191Z" fill="white"/>
<path d="M193.998 212.191C193.998 212.191 193.438 226.579 188.381 235.853" stroke="#7C6656" stroke-width="5" stroke-linecap="round" stroke-linejoin="round"/>
<path d="M89.0293 212.191C89.0293 212.191 90.9327 227.307 95.2434 236.581" stroke="#7C6656" stroke-width="5" stroke-linecap="round" stroke-linejoin="round"/>
</g>
</g>
<defs>
<filter id="filter0_f_491_20618" x="179.457" y="136.62" width="38.6234" height="25.2745" filterUnits="userSpaceOnUse" color-interpolation-filters="sRGB">
<feFlood flood-opacity="0" result="BackgroundImageFix"/>
<feBlend mode="normal" in="SourceGraphic" in2="BackgroundImageFix" result="shape"/>
<feGaussianBlur stdDeviation="1.65829" result="effect1_foregroundBlur_491_20618"/>
</filter>
<filter id="filter1_f_491_20618" x="86.7674" y="150.626" width="38.6234" height="25.2745" filterUnits="userSpaceOnUse" color-interpolation-filters="sRGB">
<feFlood flood-opacity="0" result="BackgroundImageFix"/>
<feBlend mode="normal" in="SourceGraphic" in2="BackgroundImageFix" result="shape"/>
<feGaussianBlur stdDeviation="1.65829" result="effect1_foregroundBlur_491_20618"/>
</filter>
</defs>
</svg>
