<svg width="280" height="280" viewBox="0 0 280 280" fill="none" xmlns="http://www.w3.org/2000/svg">
<circle cx="140" cy="140" r="140" fill="white"/>
<mask id="mask0_491_20537" style="mask-type:alpha" maskUnits="userSpaceOnUse" x="0" y="0" width="280" height="280">
<circle cx="140" cy="140" r="140" fill="white"/>
</mask>
<g mask="url(#mask0_491_20537)">
<mask id="mask1_491_20537" style="mask-type:alpha" maskUnits="userSpaceOnUse" x="-20" y="27" width="329" height="329">
<rect x="-19.3008" y="27.6963" width="327.68" height="327.68" fill="#D9D9D9"/>
</mask>
<g mask="url(#mask1_491_20537)">
<path d="M77.0487 83.0501C74.7777 90.5443 78.3521 106.276 79.7714 114.224C71.596 118.084 64.2745 136.039 62.2874 143.514C59.108 164.18 71.7497 180.512 78.4679 186.095C44.6875 179.566 33.9004 193.475 28.7908 198.869C24.703 203.184 25.1951 211.075 25.952 214.482C5.96761 239.462 22.1671 273.337 32.7649 287.152C46.3906 304.866 83.1044 327.273 99.7581 336.262L121.9 344.494L146.597 321.217C161.812 334.161 178.295 336.073 184.635 335.41C193.492 342.904 197.977 340.047 199.112 337.681C206.209 325.759 199.396 320.081 197.125 314.12C195.309 309.351 188.042 310.619 184.635 311.849C172.826 313.439 167.981 304.185 167.035 299.359L173.564 289.14C191.732 301.176 207.25 306.077 212.738 307.023L235.164 309.01L242.545 309.862C252.31 311.225 253.426 302.103 252.764 297.372C251.912 289.707 244.816 284.598 242.545 282.327C240.728 280.51 236.299 281.57 234.312 282.327C214.328 282.1 198.545 270.499 193.151 264.727C190.199 261.547 180.945 237.097 176.687 225.269C190.994 223.906 203.276 219.213 207.629 217.037C226.023 211.586 235.164 182.972 237.435 169.347C252.65 148.681 255.319 127.618 254.751 119.669C254.524 94.2347 231.19 76.332 219.551 70.5599C211.149 58.9781 190.123 50.4052 180.661 47.5664C136.15 35.5304 109.315 46.3363 101.461 53.2438C88.6872 60.6244 79.8874 73.6824 77.0487 83.0501Z" fill="white"/>
<g filter="url(#filter0_f_491_20537)">
<ellipse cx="169.268" cy="174.663" rx="15.5555" ry="8.84527" transform="rotate(23.5227 169.268 174.663)" fill="#F5B0B0"/>
</g>
<g filter="url(#filter1_f_491_20537)">
<ellipse cx="87.5256" cy="136.842" rx="15.5555" ry="8.84527" transform="rotate(23.5227 87.5256 136.842)" fill="#F5B0B0"/>
</g>
<path d="M116.885 127.634C116.885 127.634 109.599 123.183 101.842 122.893" stroke="#7C6656" stroke-width="5" stroke-linecap="round" stroke-linejoin="round"/>
<path d="M155.945 144.638C155.945 144.638 170.025 146.091 177.183 161.225" stroke="#7C6656" stroke-width="5" stroke-linecap="round" stroke-linejoin="round"/>
<path d="M149.713 160.626C128.766 164.35 126.967 149.344 126.967 149.344C126.967 149.344 116.048 155.539 109.381 142.949" stroke="#7C6656" stroke-width="5" stroke-linecap="round" stroke-linejoin="round"/>
<path d="M87.5791 95.1857C84.1999 100.218 83.019 108.067 82.1469 110.955C78.9313 115.007 64.5425 126.271 61.9445 145.71C59.3465 165.149 69.9383 186.115 99.8785 203.737C99.8785 203.737 117.792 213.076 124.732 214.693" stroke="#7C6656" stroke-width="5" stroke-linecap="round" stroke-linejoin="round"/>
<path d="M138.248 218.362C159.849 225.411 185.448 226.937 204.905 218.708C221.056 211.876 230.431 200.449 237.135 169.8" stroke="#7C6656" stroke-width="5" stroke-linecap="round" stroke-linejoin="round"/>
<path d="M237.135 169.801C284.589 101.091 219.404 70.0241 219.404 70.0241C181.397 30.2187 118.355 46.5878 118.355 46.5878C118.355 46.5878 72.6272 57.3067 77.1146 97.5663" stroke="#7C6656" stroke-width="5" stroke-linecap="round" stroke-linejoin="round"/>
<path d="M207.122 91.0079C207.122 91.0079 202.344 116.443 158.633 116.443" stroke="#7C6656" stroke-width="5" stroke-linecap="round" stroke-linejoin="round"/>
<path d="M211.047 108.229C211.047 108.229 228.942 129.467 225.981 154.375" stroke="#7C6656" stroke-width="5" stroke-linecap="round" stroke-linejoin="round"/>
<path d="M109.908 99.4715C109.908 99.4715 139.903 102.723 159.124 82.3575" stroke="#7C6656" stroke-width="5" stroke-linecap="round" stroke-linejoin="round"/>
<path d="M173.402 57.9412C173.402 57.9412 181.124 68.5511 175.401 76.1452C171.004 81.977 166.281 82.7037 152.709 81.541C139.138 80.3782 126.403 58.8677 124.768 40.3004C136.758 37.8659 158.705 32.5973 173.384 57.9593L173.402 57.9412Z" fill="#1AAF92"/>
<path d="M168.097 80.8501C168.097 80.8501 129.582 93.2404 124.713 39.5005C124.713 39.5005 162.629 27.6006 178.126 67.5695" stroke="#7C6656" stroke-width="5" stroke-linecap="round" stroke-linejoin="round"/>
<path d="M148.276 58.049C148.04 58.376 165.172 78.9418 184.956 74.2727" stroke="#7C6656" stroke-width="5" stroke-linecap="round" stroke-linejoin="round"/>
<path d="M236.282 308.567C236.282 308.567 240.225 292.797 229.869 283.077C222.711 281.842 207.487 275.61 202.926 272.776C198.366 269.942 187.611 259.423 185.086 243.381C181.616 264.673 185.249 272.231 174.857 286.911C188.211 296.194 200.873 303.298 215.099 306.241C229.324 309.184 236.3 308.567 236.3 308.567H236.282Z" fill="#8EBDE2"/>
<path d="M181.234 237.151C181.234 237.151 188.864 263.312 198.348 269.943C205.288 274.794 224.019 284.15 235.319 281.498C246.619 278.845 253.487 293.416 252.27 303.499C251.052 313.582 237.081 308.586 237.081 308.586C237.081 308.586 209.666 309.421 192.407 300.192C182.324 294.052 174.803 289.074 174.803 289.074" stroke="#7C6656" stroke-width="5" stroke-linecap="round" stroke-linejoin="round"/>
<path d="M147.115 252.845C147.115 252.845 155.036 278.661 160.105 289.071C172.731 315.087 179.272 313.888 188.991 310.509C198.82 307.094 205.597 326.279 201.418 335.526C197.239 344.773 185.412 335.817 185.412 335.817C185.412 335.817 156.744 341.013 141.138 310.963C133.38 302.079 124.133 294.231 124.133 294.231" stroke="#7C6656" stroke-width="5" stroke-linecap="round" stroke-linejoin="round"/>
<path d="M98.3878 210.86C98.3878 210.86 115.375 194.473 145.678 203.393C175.964 212.314 190.407 240.51 180.415 273.357C170.422 306.204 120.498 345.046 120.498 345.046C120.498 345.046 39.6155 315.342 21.3933 266.635C3.17117 217.909 43.358 191.693 70.2279 197.525C87.4872 201.268 98.406 210.86 98.406 210.86H98.3878Z" fill="#EE7374" stroke="#7C6656" stroke-width="5" stroke-linecap="round" stroke-linejoin="round"/>
<path d="M96.3522 214.094C96.3522 214.094 87.1412 222.524 85.3789 228.664L96.3522 214.094Z" fill="#EE7374"/>
<path d="M96.3522 214.094C96.3522 214.094 87.1412 222.524 85.3789 228.664" stroke="#7C6656" stroke-width="5" stroke-linecap="round" stroke-linejoin="round"/>
<path d="M128.256 212.041C128.256 212.041 168.043 214.984 176.455 230.354C176.455 230.354 170.314 196.871 133.979 190.421C105.619 185.371 93.7191 203.92 99.7689 214.857C104.42 223.268 112.94 224.031 119.826 221.361C126.712 218.69 129.945 213.639 127.511 206.663" fill="white"/>
<path d="M128.256 212.041C128.256 212.041 168.043 214.984 176.455 230.354C176.455 230.354 170.314 196.871 133.979 190.421C105.619 185.371 93.7191 203.92 99.7689 214.857C104.42 223.268 112.94 224.031 119.826 221.361C126.712 218.69 129.945 213.639 127.511 206.663" stroke="#7C6656" stroke-width="5" stroke-linecap="round" stroke-linejoin="round"/>
<path d="M85.3623 199.378C85.3623 199.378 67.2128 195.036 56.294 204.592C55.1676 213.803 53.8414 220.307 42.1778 223.413C32.3309 226.048 20.9035 211.55 26.8443 201.63C32.7851 191.711 46.974 185.425 65.7412 183.535C69.6109 184.862 72.6631 185.697 77.0233 191.947C81.3835 198.197 85.3804 199.378 85.3804 199.378H85.3623Z" fill="white"/>
<path d="M74.4788 185.86C69.0285 184.389 62.3973 183.916 54.3491 185.152C25.8804 189.53 20.5936 210.932 29.8591 219.325C36.9808 225.793 45.3016 223.758 50.9336 218.998C56.5655 214.238 58.0008 208.425 53.4589 202.611" stroke="#7C6656" stroke-width="5" stroke-linecap="round" stroke-linejoin="round"/>
<path d="M55.9141 207.463C55.9141 207.463 67.3415 189.405 98.1175 203.939" stroke="#7C6656" stroke-width="5" stroke-linecap="round" stroke-linejoin="round"/>
<path d="M34.5548 121.711C30.0465 118.164 22.5591 117.996 19.1864 124.407C16.2521 130.079 18.9053 137.832 25.5496 142.228C31.182 145.965 38.7707 147.251 45.606 146.961C50.474 142.184 54.6899 135.773 55.758 129.128C57.0396 121.297 53.1047 114.058 46.9551 112.391C39.9399 110.456 34.9595 116.038 34.5548 121.711Z" fill="#EE7374"/>
<path d="M56.3333 73.138C54.504 68.9922 49.3955 66.1455 44.7749 69.4344C40.7234 72.3641 39.7478 78.8039 42.7559 84.3455C45.2898 89.044 50.0595 92.7199 54.8698 95.0001C59.9376 93.3971 65.1545 90.4121 68.271 86.1143C71.9703 81.0565 71.8619 74.5061 68.2304 71.0928C64.0976 67.1681 58.6504 69.2824 56.3333 73.1518V73.138Z" fill="#EE7374"/>
<path d="M161.43 203.921C161.43 203.921 164.7 211.442 163.392 219.509" stroke="#7C6656" stroke-width="5" stroke-linecap="round" stroke-linejoin="round"/>
<path d="M228.195 282.403C228.195 282.403 243.42 291.814 237.097 308.583" stroke="#7C6656" stroke-width="5" stroke-linecap="round" stroke-linejoin="round"/>
</g>
</g>
<defs>
<filter id="filter0_f_491_20537" x="151.254" y="161.133" width="36.0277" height="27.0616" filterUnits="userSpaceOnUse" color-interpolation-filters="sRGB">
<feFlood flood-opacity="0" result="BackgroundImageFix"/>
<feBlend mode="normal" in="SourceGraphic" in2="BackgroundImageFix" result="shape"/>
<feGaussianBlur stdDeviation="1.65829" result="effect1_foregroundBlur_491_20537"/>
</filter>
<filter id="filter1_f_491_20537" x="69.5116" y="123.311" width="36.0277" height="27.0616" filterUnits="userSpaceOnUse" color-interpolation-filters="sRGB">
<feFlood flood-opacity="0" result="BackgroundImageFix"/>
<feBlend mode="normal" in="SourceGraphic" in2="BackgroundImageFix" result="shape"/>
<feGaussianBlur stdDeviation="1.65829" result="effect1_foregroundBlur_491_20537"/>
</filter>
</defs>
</svg>
