<svg width="280" height="280" viewBox="0 0 280 280" fill="none" xmlns="http://www.w3.org/2000/svg">
<circle cx="140" cy="140" r="140" fill="white"/>
<g filter="url(#filter0_f_491_20410)">
<ellipse cx="198.688" cy="184" rx="19" ry="12" fill="#F5B0B0"/>
</g>
<g filter="url(#filter1_f_491_20410)">
<ellipse cx="78.6875" cy="184" rx="19" ry="12" fill="#F5B0B0"/>
</g>
<path d="M112.782 156.947C112.848 167.44 104.389 176.028 93.896 176.095C83.4029 176.161 74.8142 167.702 74.7477 157.209C74.6813 146.716 83.1404 138.127 93.6336 138.061C104.127 137.994 112.715 146.453 112.782 156.947Z" fill="#7C6656"/>
<path d="M99.121 174.572C99.121 174.572 94.223 166.999 98.7155 163.46C103.208 159.921 111.022 163.385 111.022 163.385C112.302 156.286 110.974 152.315 110.974 152.315C106.946 154.554 100.137 153.888 98.4333 150.864C95.4492 145.541 98.8482 140.595 98.8482 140.595L99.6682 139.772C99.6682 139.772 96.0578 137.567 92.541 138.102C89.0452 138.664 87.7535 140.641 87.7535 140.641C87.7535 140.641 91.2191 145.559 88.306 150.9C86.6517 153.922 79.8474 154.681 75.7996 152.497C75.7996 152.497 74.5411 156.483 75.8979 163.55C75.8979 163.55 83.6797 159.981 88.204 163.476C92.7283 166.971 87.9548 174.609 87.9548 174.609C87.9548 174.609 91.1436 176.282 93.8745 176.067C96.6053 175.851 99.1027 174.521 99.1027 174.521L99.121 174.572Z" fill="white" stroke="#7C6656" stroke-width="2" stroke-linecap="round" stroke-linejoin="round"/>
<path d="M112.782 156.947C112.848 167.44 104.389 176.028 93.896 176.095C83.4029 176.161 74.8142 167.702 74.7477 157.209C74.6813 146.716 83.1404 138.127 93.6336 138.061C104.127 137.994 112.715 146.453 112.782 156.947Z" stroke="#7C6656" stroke-width="6" stroke-linecap="round" stroke-linejoin="round"/>
<path d="M203.964 156.782C204.03 167.276 195.571 175.864 185.078 175.931C174.584 175.997 165.996 167.538 165.929 157.045C165.863 146.552 174.322 137.963 184.815 137.897C195.308 137.83 203.897 146.289 203.964 156.782Z" fill="#7C6656"/>
<path d="M190.307 174.383C190.307 174.383 185.409 166.81 189.901 163.271C194.394 159.732 202.207 163.197 202.207 163.197C203.488 156.097 202.159 152.126 202.159 152.126C198.131 154.366 191.323 153.699 189.619 150.675C186.632 145.377 190.034 140.407 190.034 140.407L190.854 139.584C190.854 139.584 187.243 137.378 183.727 137.913C180.231 138.475 178.939 140.452 178.939 140.452C178.939 140.452 182.405 145.371 179.492 150.712C177.837 153.733 171.033 154.492 166.985 152.309C166.985 152.309 165.727 156.295 167.083 163.361C167.083 163.361 174.865 159.792 179.39 163.287C183.914 166.782 179.14 174.42 179.14 174.42C179.14 174.42 182.329 176.094 185.06 175.878C187.791 175.663 190.288 174.333 190.288 174.333L190.307 174.383Z" fill="white" stroke="#7C6656" stroke-width="2" stroke-linecap="round" stroke-linejoin="round"/>
<path d="M203.964 156.782C204.03 167.276 195.571 175.864 185.078 175.931C174.584 175.997 165.996 167.538 165.929 157.045C165.863 146.552 174.322 137.963 184.815 137.897C195.308 137.83 203.897 146.289 203.964 156.782Z" stroke="#7C6656" stroke-width="6" stroke-linecap="round" stroke-linejoin="round"/>
<path d="M161.522 183.552L118.63 183.736C118.63 183.736 106.173 229.746 138.008 231.212C162.992 232.386 167.456 207.413 161.522 183.552Z" fill="#F29AA0" stroke="#7C6656" stroke-width="6" stroke-linecap="round" stroke-linejoin="round"/>
<path d="M92.1041 75.915C92.1041 75.915 87.6863 108.213 139.967 125.609" stroke="#7C6656" stroke-width="6" stroke-linecap="round" stroke-linejoin="round"/>
<path d="M80.5438 94.9375C80.5438 94.9375 50.6954 113.227 44.332 144.174" stroke="#7C6656" stroke-width="6" stroke-linecap="round" stroke-linejoin="round"/>
<path d="M195.562 126.25C195.562 126.25 159.007 115.835 146.234 82.9424" stroke="#7C6656" stroke-width="6" stroke-linecap="round" stroke-linejoin="round"/>
<path d="M129.55 57.9927C129.55 57.9927 114.191 64.1272 115.198 76.0528C115.976 85.2088 120.531 89.1687 135.776 97.0199C151.02 104.871 179.038 90.5192 193.252 71.7953C182.105 61.1286 162.237 40.8024 129.573 57.9698L129.55 57.9927Z" fill="#1AAF92"/>
<path d="M119.843 85.9865C119.843 85.9865 152.599 125.059 193.846 71.0394C193.846 71.0394 161.411 32.9049 118.035 65.1109" stroke="#7C6656" stroke-width="6" stroke-linecap="round" stroke-linejoin="round"/>
<path d="M156.261 74.9752C156.284 75.4787 124.215 85.9165 106.27 67.6504" stroke="#7C6656" stroke-width="6" stroke-linecap="round" stroke-linejoin="round"/>
<defs>
<filter id="filter0_f_491_20410" x="171.688" y="164" width="54" height="40" filterUnits="userSpaceOnUse" color-interpolation-filters="sRGB">
<feFlood flood-opacity="0" result="BackgroundImageFix"/>
<feBlend mode="normal" in="SourceGraphic" in2="BackgroundImageFix" result="shape"/>
<feGaussianBlur stdDeviation="4" result="effect1_foregroundBlur_491_20410"/>
</filter>
<filter id="filter1_f_491_20410" x="51.6875" y="164" width="54" height="40" filterUnits="userSpaceOnUse" color-interpolation-filters="sRGB">
<feFlood flood-opacity="0" result="BackgroundImageFix"/>
<feBlend mode="normal" in="SourceGraphic" in2="BackgroundImageFix" result="shape"/>
<feGaussianBlur stdDeviation="4" result="effect1_foregroundBlur_491_20410"/>
</filter>
</defs>
</svg>
