<svg width="280" height="280" viewBox="0 0 280 280" fill="none" xmlns="http://www.w3.org/2000/svg">
<circle cx="140" cy="140" r="140" fill="white"/>
<mask id="mask0_491_20715" style="mask-type:alpha" maskUnits="userSpaceOnUse" x="0" y="0" width="280" height="280">
<circle cx="140" cy="140" r="140" fill="white"/>
</mask>
<g mask="url(#mask0_491_20715)">
<path d="M183.797 239.794C224.852 245.723 243.047 213.012 243.047 213.012C243.047 213.012 262.172 213.105 258.771 193.683C255.964 177.7 238.178 177.347 232.268 181.807C226.357 186.286 222.213 195.449 226.079 203.367C226.079 203.367 211.842 222.937 183.351 213.143L162.721 212.994L160.305 213.291" fill="white"/>
<path d="M183.796 239.794C224.851 245.723 243.046 213.012 243.046 213.012C243.046 213.012 262.171 213.105 258.769 193.683C255.963 177.7 238.177 177.347 232.267 181.807C226.356 186.286 222.212 195.449 226.078 203.367C226.078 203.367 211.841 222.937 183.35 213.143" stroke="#7C6656" stroke-width="5" stroke-linecap="round" stroke-linejoin="round"/>
<path d="M191.77 215.801C191.77 215.801 197.494 226.636 186.789 240.166" stroke="#7C6656" stroke-width="5" stroke-linecap="round" stroke-linejoin="round"/>
<path d="M103.135 239.608C63.1022 250.5 41.0598 220.261 41.0598 220.261C41.0598 220.261 22.0841 222.677 23.1063 202.995C23.9426 186.788 41.5431 184.261 47.9551 187.978C54.3671 191.695 59.6082 200.282 56.7274 208.608C56.7274 208.608 73.2499 226.301 100.329 213.087L120.792 210.429H123.226" fill="white"/>
<path d="M103.135 239.608C63.1022 250.5 41.0598 220.261 41.0598 220.261C41.0598 220.261 22.0841 222.677 23.1063 202.995C23.9426 186.788 41.5431 184.261 47.9551 187.978C54.3671 191.695 59.6082 200.282 56.7274 208.608C56.7274 208.608 73.2499 226.301 100.329 213.087" stroke="#7C6656" stroke-width="5" stroke-linecap="round" stroke-linejoin="round"/>
<path d="M101.295 309.473C99.7524 318.282 100.347 327.129 100.347 327.129C100.347 327.129 108.915 338.764 126.831 330.995C130.344 313.822 134.228 292.021 134.228 292.021L148.93 292.448C148.93 292.448 147.424 321.553 152.163 333.374C162.423 333.894 170.898 335.585 176.994 328.244C176.25 320.159 177.57 312 180.042 294.66C182.514 277.32 184.223 279.253 182.049 277.078C159.059 284.512 102.392 275.368 102.392 275.368C102.392 275.368 101.741 306.964 101.295 309.491V309.473Z" fill="#8FBDE2"/>
<path d="M102.373 275.349C102.373 279.976 102.057 291.183 102.038 296.833C101.964 314.267 100.328 327.109 100.328 327.109C100.328 327.109 106.201 336.216 126.812 330.975" stroke="#7C6656" stroke-width="5" stroke-linecap="round" stroke-linejoin="round"/>
<path d="M182.922 273.191C180.617 298.152 174.075 308.206 176.975 328.223C176.975 328.223 173.536 336.01 152.145 333.353" stroke="#7C6656" stroke-width="5" stroke-linecap="round" stroke-linejoin="round"/>
<path d="M109.756 208C109.756 208 98.2513 260.443 97 280.25C97 280.25 158.201 289.21 187 279.43C187 279.43 181.659 225.519 175.608 211.908" fill="white"/>
<path d="M105.82 224.019C105.82 224.019 97.2743 260.38 96 279.745C96 279.745 158.103 287.927 187 278.347C187 278.347 184.639 237.326 178.586 224" stroke="#7C6656" stroke-width="5" stroke-linecap="round" stroke-linejoin="round"/>
<path d="M166.307 216.434C165.285 220.17 160.025 227.846 147.852 228.477C130.103 229.388 123.189 213.479 123.244 212.048" stroke="#7C6656" stroke-width="5" stroke-linecap="round" stroke-linejoin="round"/>
<path d="M183.981 213.459C183.981 213.459 130.046 223.551 112.892 215.671C96.7966 211.564 81.6122 213.589 64.3835 188.611C52.2658 170.192 55.4625 144.637 55.4625 144.637C55.4625 144.637 43.8837 123.338 47.3778 97.8763C50.8719 72.4142 70.3494 60.9469 94.4734 50.632C113.505 41.8596 132.221 33.459 165.972 39.5178C199.742 45.5767 219.591 60.315 225.743 70.7972C231.894 81.2794 241.54 114.101 223.698 115.458C223.773 121.145 223.791 124.026 223.791 124.026C223.791 124.026 235.426 137.984 235.63 157.926C235.853 177.868 223.234 201.193 183.944 213.422L183.981 213.459Z" fill="white"/>
<g filter="url(#filter0_f_491_20715)">
<ellipse cx="202.154" cy="155.031" rx="16.4764" ry="9.36896" transform="rotate(-4.4524 202.154 155.031)" fill="#F5B0B0"/>
</g>
<g filter="url(#filter1_f_491_20715)">
<ellipse cx="105.299" cy="164.499" rx="16.4764" ry="9.36896" transform="rotate(-4.4524 105.299 164.499)" fill="#F5B0B0"/>
</g>
<path d="M112.02 137.407L129.564 142.741L116.257 147.332" stroke="#7C6656" stroke-width="5" stroke-linecap="round" stroke-linejoin="round"/>
<path d="M192.271 127.706L177.143 138.039L191.212 138.43" stroke="#7C6656" stroke-width="5" stroke-linecap="round" stroke-linejoin="round"/>
<path d="M222.287 107.057C224.405 112.893 223.662 120.959 223.829 124.045C226.022 128.858 237.582 143.559 235.408 163.502C233.233 183.444 218.644 201.732 184.595 211.935C184.595 211.935 164.523 216.823 157.237 216.749" stroke="#7C6656" stroke-width="5" stroke-linecap="round" stroke-linejoin="round"/>
<path d="M142.89 217.083C119.695 218.811 93.8986 214.053 76.5955 201.137C62.229 190.413 54.6461 176.715 55.4824 144.637" stroke="#7C6656" stroke-width="5" stroke-linecap="round" stroke-linejoin="round"/>
<path d="M53.8659 145.084C23.5158 65.2404 95.8505 50.3163 95.8505 50.3163C143.336 20.0591 201.974 51.7288 201.974 51.7288C201.974 51.7288 244.776 73.5482 230.484 112.448" stroke="#7C6656" stroke-width="5" stroke-linecap="round" stroke-linejoin="round"/>
<path d="M104.547 73.6965C104.547 73.6965 103.079 100.125 146.494 110.812" stroke="#7C6656" stroke-width="5" stroke-linecap="round" stroke-linejoin="round"/>
<path d="M96.4271 89.8477C96.4271 89.8477 73.4554 106.575 70.3145 132.055" stroke="#7C6656" stroke-width="5" stroke-linecap="round" stroke-linejoin="round"/>
<path d="M191.545 107.746C191.545 107.746 161.27 101.687 148.799 75.8906" stroke="#7C6656" stroke-width="5" stroke-linecap="round" stroke-linejoin="round"/>
<path d="M139.898 43.6997C139.898 43.6997 127.873 49.6657 129.472 59.2558C130.698 66.6156 134.638 69.5335 147.499 74.8862C160.342 80.2388 182.087 66.7829 192.365 50.7064C182.645 42.8076 165.23 27.6604 139.917 43.6997H139.898Z" fill="#1AAF92"/>
<path d="M133.876 66.9877C133.876 66.9877 162.943 96.4456 192.792 50.0191C192.792 50.0191 164.04 21.286 131.051 50.205" stroke="#7C6656" stroke-width="5" stroke-linecap="round" stroke-linejoin="round"/>
<path d="M162.627 55.688C162.683 56.0969 137.407 66.6348 121.684 53.0488" stroke="#7C6656" stroke-width="5" stroke-linecap="round" stroke-linejoin="round"/>
<path d="M175.321 152.145C175.321 152.145 164.281 156.996 158.352 156.978C152.423 156.978 142.071 156.978 142.071 156.978C142.071 156.978 142.146 172.18 145.974 181.027C149.803 189.874 166.307 189.632 166.307 189.632C166.307 189.632 178.127 186.789 178.926 170.879C179.725 154.989 175.339 152.127 175.339 152.127L175.321 152.145Z" fill="#F29AA0"/>
<path d="M178.296 150.492C178.296 150.492 163.817 160.64 138.43 155.566" stroke="#7C6656" stroke-width="5" stroke-linecap="round" stroke-linejoin="round"/>
<path d="M175.322 152.146C175.322 152.146 187.198 183.648 167.757 188.685C144.581 194.688 140.492 171.307 142.072 156.996" stroke="#7C6656" stroke-width="5" stroke-linecap="round" stroke-linejoin="round"/>
<path d="M92.3001 216.768C92.3001 216.768 87.9325 228.217 100.218 240.335" stroke="#7C6656" stroke-width="5" stroke-linecap="round" stroke-linejoin="round"/>
</g>
<defs>
<filter id="filter0_f_491_20715" x="182.394" y="142.286" width="39.5189" height="25.4912" filterUnits="userSpaceOnUse" color-interpolation-filters="sRGB">
<feFlood flood-opacity="0" result="BackgroundImageFix"/>
<feBlend mode="normal" in="SourceGraphic" in2="BackgroundImageFix" result="shape"/>
<feGaussianBlur stdDeviation="1.65829" result="effect1_foregroundBlur_491_20715"/>
</filter>
<filter id="filter1_f_491_20715" x="85.5389" y="151.753" width="39.5189" height="25.4912" filterUnits="userSpaceOnUse" color-interpolation-filters="sRGB">
<feFlood flood-opacity="0" result="BackgroundImageFix"/>
<feBlend mode="normal" in="SourceGraphic" in2="BackgroundImageFix" result="shape"/>
<feGaussianBlur stdDeviation="1.65829" result="effect1_foregroundBlur_491_20715"/>
</filter>
</defs>
</svg>
