<svg width="280" height="280" viewBox="0 0 280 280" fill="none" xmlns="http://www.w3.org/2000/svg">
<circle cx="140" cy="140" r="140" fill="white"/>
<g filter="url(#filter0_f_491_20517)">
<ellipse cx="203" cy="185" rx="19" ry="12" fill="#F5B0B0"/>
</g>
<g filter="url(#filter1_f_491_20517)">
<ellipse cx="81" cy="185" rx="19" ry="12" fill="#F5B0B0"/>
</g>
<path d="M88.7031 151.665L110.76 160.28L93.1705 164.865" stroke="#7C6656" stroke-width="4.8" stroke-linecap="round" stroke-linejoin="round"/>
<path d="M191.902 151.665L169.845 160.28L187.435 164.865" stroke="#7C6656" stroke-width="4.8" stroke-linecap="round" stroke-linejoin="round"/>
<path d="M163.391 177.434C163.391 177.434 148.59 182.272 140.973 181.498C133.354 180.748 120.05 179.438 120.05 179.438C120.05 179.438 118.223 198.985 122.024 210.838C125.825 222.692 147.065 224.469 147.065 224.469C147.065 224.469 162.615 222.31 165.655 201.966C168.692 181.646 163.417 177.413 163.417 177.413L163.391 177.434Z" fill="#F29AA0"/>
<path d="M167.42 175.686C167.42 175.686 147.53 186.895 115.546 177.163" stroke="#7C6656" stroke-width="4.8" stroke-linecap="round" stroke-linejoin="round"/>
<path d="M163.391 177.435C163.391 177.435 174.668 219.422 149.048 223.435C118.504 228.218 116.208 197.654 120.048 179.462" stroke="#7C6656" stroke-width="4.8" stroke-linecap="round" stroke-linejoin="round"/>
<path d="M92.1041 75.915C92.1041 75.915 87.6863 108.213 139.967 125.609" stroke="#7C6656" stroke-width="6" stroke-linecap="round" stroke-linejoin="round"/>
<path d="M80.5438 94.9375C80.5438 94.9375 50.6954 113.227 44.332 144.174" stroke="#7C6656" stroke-width="6" stroke-linecap="round" stroke-linejoin="round"/>
<path d="M195.562 126.25C195.562 126.25 159.007 115.835 146.234 82.9424" stroke="#7C6656" stroke-width="6" stroke-linecap="round" stroke-linejoin="round"/>
<path d="M129.55 57.9927C129.55 57.9927 114.191 64.1272 115.198 76.0528C115.976 85.2088 120.531 89.1687 135.776 97.0199C151.02 104.871 179.038 90.5192 193.252 71.7953C182.105 61.1286 162.237 40.8024 129.573 57.9698L129.55 57.9927Z" fill="#1AAF92"/>
<path d="M119.843 85.9865C119.843 85.9865 152.599 125.059 193.846 71.0394C193.846 71.0394 161.411 32.9049 118.035 65.1109" stroke="#7C6656" stroke-width="6" stroke-linecap="round" stroke-linejoin="round"/>
<path d="M156.261 74.9752C156.284 75.4787 124.215 85.9165 106.27 67.6504" stroke="#7C6656" stroke-width="6" stroke-linecap="round" stroke-linejoin="round"/>
<defs>
<filter id="filter0_f_491_20517" x="176" y="165" width="54" height="40" filterUnits="userSpaceOnUse" color-interpolation-filters="sRGB">
<feFlood flood-opacity="0" result="BackgroundImageFix"/>
<feBlend mode="normal" in="SourceGraphic" in2="BackgroundImageFix" result="shape"/>
<feGaussianBlur stdDeviation="4" result="effect1_foregroundBlur_491_20517"/>
</filter>
<filter id="filter1_f_491_20517" x="54" y="165" width="54" height="40" filterUnits="userSpaceOnUse" color-interpolation-filters="sRGB">
<feFlood flood-opacity="0" result="BackgroundImageFix"/>
<feBlend mode="normal" in="SourceGraphic" in2="BackgroundImageFix" result="shape"/>
<feGaussianBlur stdDeviation="4" result="effect1_foregroundBlur_491_20517"/>
</filter>
</defs>
</svg>
