<svg width="280" height="280" viewBox="0 0 280 280" fill="none" xmlns="http://www.w3.org/2000/svg">
<circle cx="140" cy="140" r="140" fill="white"/>
<mask id="mask0_491_20580" style="mask-type:alpha" maskUnits="userSpaceOnUse" x="0" y="0" width="280" height="280">
<circle cx="140" cy="140" r="140" fill="white"/>
</mask>
<g mask="url(#mask0_491_20580)">
<mask id="mask1_491_20580" style="mask-type:alpha" maskUnits="userSpaceOnUse" x="-30" y="27" width="329" height="329">
<rect x="-29.4922" y="27.6963" width="327.68" height="327.68" fill="#D9D9D9"/>
</mask>
<g mask="url(#mask1_491_20580)">
<path d="M156.785 222.15C156.785 222.15 179.213 216.817 196.401 236.384C213.571 255.951 206.584 274.588 197.275 279.754C191.347 283.024 180.83 282.541 178.414 276.26C175.999 269.98 177.875 264.461 183.729 260.522" stroke="#7C6656" stroke-width="5" stroke-linecap="round" stroke-linejoin="round"/>
<path d="M182.687 260.335C182.687 260.335 179.733 242.7 167.543 242.515" stroke="#7C6656" stroke-width="5" stroke-linecap="round" stroke-linejoin="round"/>
<path d="M178.599 224.045C178.599 224.045 178.674 232.202 172.133 242.515" stroke="#7C6656" stroke-width="5" stroke-linecap="round" stroke-linejoin="round"/>
<path d="M86.8026 312.364C85.2603 321.172 85.8549 330.017 85.8549 330.017C85.8549 330.017 94.4211 341.649 112.334 333.882C115.846 316.712 119.729 294.916 119.729 294.916L136.546 295.343C136.546 295.343 135.041 324.442 139.779 336.26C150.036 336.78 158.509 338.471 164.604 331.132C163.861 323.049 165.18 314.891 167.652 297.554C170.123 280.218 171.833 282.15 169.658 279.976C146.673 287.409 87.8989 278.267 87.8989 278.267C87.8989 278.267 87.2485 309.856 86.8026 312.383V312.364Z" fill="#8FBDE2"/>
<path d="M87.9014 278.248C87.9014 282.875 87.5855 294.08 87.5669 299.729C87.4926 317.158 85.8574 329.998 85.8574 329.998C85.8574 329.998 91.7292 339.103 112.336 333.863" stroke="#7C6656" stroke-width="5" stroke-linecap="round" stroke-linejoin="round"/>
<path d="M165.721 229.657C165.721 229.657 172.82 251.156 170.515 276.093C168.211 301.048 161.671 311.101 164.569 331.113C164.569 331.113 161.132 338.899 139.744 336.242" stroke="#7C6656" stroke-width="5" stroke-linecap="round" stroke-linejoin="round"/>
<path d="M91.8017 235.269C91.8017 235.269 84.3504 256.805 83.1055 276.112C83.1055 276.112 145.577 289.881 174.249 280.348C174.249 280.348 171.74 242.925 165.738 229.657" fill="white"/>
<path d="M91.8017 235.269C91.8017 235.269 84.3504 256.805 83.1055 276.112C83.1055 276.112 145.577 289.881 174.249 280.348C174.249 280.348 171.74 242.925 165.738 229.657" stroke="#7C6656" stroke-width="5" stroke-linecap="round" stroke-linejoin="round"/>
<path d="M153.902 219.343C152.88 223.078 147.621 230.752 135.45 231.384C117.705 232.295 110.792 216.389 110.848 214.958" stroke="#7C6656" stroke-width="5" stroke-linecap="round" stroke-linejoin="round"/>
<path d="M163.398 223.302C163.398 223.302 108.767 218.396 94.385 206.151C80.0213 197.845 64.8401 195.671 55.0475 166.962C48.3952 145.946 58.3922 122.236 58.3922 122.236C58.3922 122.236 53.0221 98.5999 63.2978 75.0569C73.5735 51.4953 95.4256 45.7349 121.44 42.3531C142.14 39.0641 162.413 36.0724 193.258 51.0493C224.104 66.0448 239.211 85.6113 242.296 97.3736C245.38 109.136 245.752 143.326 228.211 139.796C226.743 145.296 225.981 148.065 225.981 148.065C225.981 148.065 233.376 164.658 228.192 183.909C222.989 203.159 204.519 222.187 163.398 223.302Z" fill="white"/>
<g filter="url(#filter0_f_491_20580)">
<ellipse cx="193.217" cy="170.062" rx="15.5555" ry="8.84527" transform="rotate(8.42433 193.217 170.062)" fill="#F5B0B0"/>
</g>
<g filter="url(#filter1_f_491_20580)">
<ellipse cx="104.443" cy="154.838" rx="15.5555" ry="8.84527" transform="rotate(8.42433 104.443 154.838)" fill="#F5B0B0"/>
</g>
<path d="M194.225 151.298C193.259 156.427 188.297 159.808 183.169 158.824C178.04 157.857 174.658 152.915 175.643 147.767C176.609 142.639 181.552 139.257 186.699 140.242C191.828 141.208 195.21 146.169 194.225 151.298Z" fill="#7C6656"/>
<path d="M114.789 130.597L130.212 140.483L116.164 141.282" stroke="#7C6656" stroke-width="5" stroke-linecap="round" stroke-linejoin="round"/>
<path d="M168.192 167.222L134.838 160.514C134.838 160.514 127.183 184.558 143.404 190.932C159.626 197.306 169.029 183.592 168.174 167.222H168.192Z" fill="#F29AA0" stroke="#7C6656" stroke-width="5" stroke-linecap="round" stroke-linejoin="round"/>
<path d="M229.102 131.304C229.567 137.492 226.649 145.055 225.98 148.065C226.798 153.287 233.915 170.568 226.426 189.187C218.919 207.787 199.929 221.426 164.401 222.02C164.401 222.02 143.756 221.277 136.77 219.233" stroke="#7C6656" stroke-width="5" stroke-linecap="round" stroke-linejoin="round"/>
<path d="M122.872 215.647C100.091 211.02 76.548 199.443 63.3921 182.33C52.466 168.115 48.8984 152.878 58.3936 122.218" stroke="#7C6656" stroke-width="5" stroke-linecap="round" stroke-linejoin="round"/>
<path d="M56.7396 122.218C49.1954 37.1507 122.853 42.4093 122.853 42.4093C176.759 26.1689 224.588 72.5489 224.588 72.5489C224.588 72.5489 259.856 105.16 235.552 138.718" stroke="#7C6656" stroke-width="5" stroke-linecap="round" stroke-linejoin="round"/>
<path d="M124.86 67.2705C124.86 67.2705 116.275 92.3001 155.167 114.357" stroke="#7C6656" stroke-width="5" stroke-linecap="round" stroke-linejoin="round"/>
<path d="M112.67 80.6133C112.67 80.6133 86.0242 90.4802 76.1016 114.135" stroke="#7C6656" stroke-width="5" stroke-linecap="round" stroke-linejoin="round"/>
<path d="M199.355 123.611C199.355 123.611 171.873 109.563 166.855 81.3749" stroke="#7C6656" stroke-width="5" stroke-linecap="round" stroke-linejoin="round"/>
<path d="M167.653 52.629C167.653 52.629 154.219 52.7033 151.45 62.0128C149.313 69.1667 151.58 73.5149 160.76 83.9764C169.939 94.4379 195.377 91.9108 211.674 82.0067C206.415 70.6347 197.459 49.3772 167.672 52.6476L167.653 52.629Z" fill="#1AAF92"/>
<path d="M151.99 70.8946C151.99 70.8946 165.128 110.139 212.344 81.5791C212.344 81.5791 199.169 43.1335 156.84 54.5798" stroke="#7C6656" stroke-width="5" stroke-linecap="round" stroke-linejoin="round"/>
<path d="M182.78 73.3842C182.65 73.7744 155.317 72.1206 147.178 53" stroke="#7C6656" stroke-width="5" stroke-linecap="round" stroke-linejoin="round"/>
<path d="M64.3574 179.747C64.3574 179.747 51.3873 164.175 41.2231 166.795C30.0741 169.657 29.4237 180.917 34.3665 186.176C37.8227 189.874 48.5257 200.242 48.5257 200.242" fill="white"/>
<path d="M64.3574 179.747C64.3574 179.747 51.3873 164.175 41.2231 166.795C30.0741 169.657 29.4237 180.917 34.3665 186.176C37.8227 189.874 48.5257 200.242 48.5257 200.242" stroke="#7C6656" stroke-width="5" stroke-linecap="round" stroke-linejoin="round"/>
<path d="M79.612 198.904C79.612 198.904 94.626 198.198 102.895 206.987C111.145 215.777 106.871 234.916 100.219 240.583C93.5668 246.251 69.7637 254.408 53.2445 240.88C36.7253 227.372 45.7189 202.825 50.8846 196.47C56.0503 190.115 75.1338 169.081 84.5733 164.287C94.0128 159.511 104.957 161.89 104.939 173.317C104.92 183.63 88.0109 198.886 88.0109 198.886" fill="white"/>
<path d="M79.612 198.904C79.612 198.904 94.626 198.198 102.895 206.987C111.145 215.777 106.871 234.916 100.219 240.583C93.5668 246.251 69.7637 254.408 53.2445 240.88C36.7253 227.372 45.7189 202.825 50.8846 196.47C56.0503 190.115 75.1338 169.081 84.5733 164.287C94.0128 159.511 104.957 161.89 104.939 173.317C104.92 183.63 88.0109 198.886 88.0109 198.886" stroke="#7C6656" stroke-width="5" stroke-linecap="round" stroke-linejoin="round"/>
<path d="M102.861 208.419C102.861 208.419 95.2052 203.495 90.4297 208.103" stroke="#7C6656" stroke-width="5" stroke-linecap="round" stroke-linejoin="round"/>
<path d="M57.6489 115.547C54.137 110.269 46.3327 107.519 40.6095 113.131C35.5924 118.092 35.6853 127.179 41.1484 134.091C45.7752 139.963 53.2822 143.921 60.5663 145.946C67.3114 142.583 73.9451 137.269 77.3456 130.616C81.3964 122.812 79.7612 113.819 73.8708 109.972C67.1814 105.531 60.0274 109.693 57.6489 115.547Z" fill="#EE7474"/>
<path d="M36.1173 77.6158C32.2523 75.3116 26.4362 75.9434 24.4851 81.2949C22.7942 86.0147 25.6372 91.775 31.2488 94.5251C36.0058 96.8664 42.0262 97.0894 47.2849 96.1603C50.5738 91.9423 53.1753 86.5164 53.3239 81.2206C53.5098 74.9957 49.7191 69.7557 44.7763 69.0867C39.1461 68.2877 35.8385 73.1561 36.1173 77.6158Z" fill="#EE7474"/>
</g>
</g>
<defs>
<filter id="filter0_f_491_20580" x="174.457" y="157.702" width="37.5199" height="24.721" filterUnits="userSpaceOnUse" color-interpolation-filters="sRGB">
<feFlood flood-opacity="0" result="BackgroundImageFix"/>
<feBlend mode="normal" in="SourceGraphic" in2="BackgroundImageFix" result="shape"/>
<feGaussianBlur stdDeviation="1.65829" result="effect1_foregroundBlur_491_20580"/>
</filter>
<filter id="filter1_f_491_20580" x="85.6834" y="142.478" width="37.5199" height="24.721" filterUnits="userSpaceOnUse" color-interpolation-filters="sRGB">
<feFlood flood-opacity="0" result="BackgroundImageFix"/>
<feBlend mode="normal" in="SourceGraphic" in2="BackgroundImageFix" result="shape"/>
<feGaussianBlur stdDeviation="1.65829" result="effect1_foregroundBlur_491_20580"/>
</filter>
</defs>
</svg>
