<svg width="280" height="280" viewBox="0 0 280 280" fill="none" xmlns="http://www.w3.org/2000/svg">
<circle cx="140" cy="140" r="140" fill="white"/>
<mask id="mask0_491_20664" style="mask-type:alpha" maskUnits="userSpaceOnUse" x="0" y="0" width="280" height="280">
<circle cx="140" cy="140" r="140" fill="white"/>
</mask>
<g mask="url(#mask0_491_20664)">
<path d="M50.1003 151.335L51.6363 163.367L48.5643 158.503L43.1883 157.223L32.9483 162.087L31.1562 176.167L36.0203 187.943L42.1643 198.439L45.7483 205.607L47.5403 223.527L50.1003 238.887L54.9643 247.591L64.1803 253.479L76.4683 255.527L86.1963 253.479L94.1323 248.871L90.5483 277.799L94.1323 278.567L92.3403 311.335L90.5483 320.807L89.2683 326.183L83.8923 330.279L84.4043 337.447L91.3163 342.823H103.604L111.54 339.239L115.38 333.095L121.012 318.759L127.156 292.391H144.564L151.22 332.583L153.78 335.911L160.948 339.239L169.14 340.775L177.332 339.239L181.172 335.911V330.279L178.868 327.463L175.796 320.807L175.028 305.703L176.82 290.855L177.332 278.567L180.404 276.519L182.452 273.191L187.828 269.351L188.852 265.255L186.292 259.367L190.9 251.175L194.996 238.631L193.716 232.487L188.852 226.599L183.732 221.991L174.004 216.359L199.092 207.143L215.988 194.087L223.924 177.703L225.972 151.847L222.388 139.303L229.3 127.271L233.908 118.055L236.724 102.695L231.092 83.7509L220.596 69.9269L207.796 58.4069L183.732 44.8389L160.436 37.6709L136.628 36.1349L120.5 38.9509L113.332 40.9989L96.4363 43.3029L76.7243 51.2389L64.1803 61.4789L55.4763 74.5349L50.1003 88.8709L47.5403 105.767L50.1003 124.455L51.6363 131.879L50.1003 151.335Z" fill="white"/>
<path d="M178.674 276.715C178.674 276.715 144.35 288.441 94.5825 278.332C94.2108 301.71 89.918 325.924 89.918 325.924C89.918 325.924 96.9054 335.625 115.675 332.577C120.73 311.819 126.546 291.619 126.546 291.619L144.758 292.808C144.758 292.808 148.178 323.787 151.3 331.871C152.378 334.231 161.614 337.242 168.341 332.02C175.068 326.798 176.388 325.739 175.775 322.356C175.161 318.974 174.028 309.738 175.775 299.666C177.521 289.593 178.655 276.715 178.655 276.715H178.674Z" fill="#8FBDE2"/>
<path d="M95.454 232.002C95.454 232.002 94.4504 279.037 94.3761 296.469C94.3018 313.9 89.916 325.942 89.916 325.942" stroke="#7C6656" stroke-width="5" stroke-linecap="round" stroke-linejoin="round"/>
<path d="M178.671 272.83C176.366 297.788 171.46 305.463 176.496 325.032" stroke="#7C6656" stroke-width="5" stroke-linecap="round" stroke-linejoin="round"/>
<path d="M174.807 217.302C174.807 217.302 194.189 226.129 194.598 237.688C195.007 249.247 180.493 264.021 180.493 264.021" stroke="#7C6656" stroke-width="5" stroke-linecap="round" stroke-linejoin="round"/>
<path d="M186.496 259.061C186.496 259.061 193.558 271.642 179.564 273.185" stroke="#7C6656" stroke-width="5" stroke-linecap="round" stroke-linejoin="round"/>
<path d="M169.103 215.78C169.103 215.78 183.078 241.425 181.424 275.471C173.043 278.611 158.102 283.778 133.292 283.573C108.483 283.35 89.918 277.478 89.918 277.478C89.918 277.478 97.2957 238.489 95.4559 227.748C93.6161 217.006 100.213 211.617 100.213 211.617L114.523 213.308C114.523 213.308 161.8 219.59 171.036 216.691" fill="white"/>
<path d="M223.235 119.237C224.35 125.333 222.25 133.175 221.878 136.241C223.235 141.352 228.439 156.627 223.755 176.14C218.682 197.307 202.607 211.71 167.335 216.021C167.335 216.021 146.726 217.452 139.553 216.151" stroke="#7C6656" stroke-width="5" stroke-linecap="round" stroke-linejoin="round"/>
<path d="M125.373 214.032C102.237 211.82 77.5947 202.77 62.7278 187.122C50.3696 174.132 46.2626 159.563 52.4881 128.101" stroke="#7C6656" stroke-width="5" stroke-linecap="round" stroke-linejoin="round"/>
<path d="M50.1102 128.101C33.7008 44.2695 109.894 41.7793 109.894 41.7793C161.798 19.9806 214.78 63.0762 214.78 63.0762C214.78 63.0762 251.557 93.7579 228.607 128.101" stroke="#7C6656" stroke-width="5" stroke-linecap="round" stroke-linejoin="round"/>
<path d="M112.849 66.4768C112.849 66.4768 106.939 92.271 147.935 110.13" stroke="#7C6656" stroke-width="5" stroke-linecap="round" stroke-linejoin="round"/>
<path d="M102.108 81.0273C102.108 81.0273 76.6297 93.6271 69.252 118.213" stroke="#7C6656" stroke-width="5" stroke-linecap="round" stroke-linejoin="round"/>
<path d="M192.832 114.721C192.832 114.721 164.027 103.627 156.092 76.1042" stroke="#7C6656" stroke-width="5" stroke-linecap="round" stroke-linejoin="round"/>
<path d="M140.389 57.0928C169.231 24.051 201.548 48.7115 201.548 48.7115C178.151 98.6831 145.425 73.3535 145.425 73.3535C145.425 73.3535 141.318 72.35 139.459 65.1023C138.475 61.2927 140.389 57.1114 140.389 57.1114V57.0928Z" fill="#1AAF92"/>
<path d="M145.427 73.3538C145.427 73.3538 178.153 98.6834 201.55 48.7118C201.55 48.7118 169.233 24.0698 140.391 57.0931" stroke="#7C6656" stroke-width="5" stroke-linecap="round" stroke-linejoin="round"/>
<path d="M172.409 58.3372C172.52 58.7274 148.882 72.5537 131.469 61.1619" stroke="#7C6656" stroke-width="5" stroke-linecap="round" stroke-linejoin="round"/>
<g filter="url(#filter0_f_491_20664)">
<ellipse cx="195.529" cy="168.304" rx="16.4748" ry="9.36805" transform="rotate(8.86791 195.529 168.304)" fill="#F5B0B0"/>
</g>
<g filter="url(#filter1_f_491_20664)">
<ellipse cx="99.1092" cy="155.204" rx="16.4748" ry="9.36805" transform="rotate(8.86791 99.1092 155.204)" fill="#F5B0B0"/>
</g>
<path d="M125.428 139.641C124.889 144.844 120.243 148.617 115.059 148.078C109.855 147.539 106.083 142.893 106.622 137.708C107.16 132.505 111.806 128.732 116.991 129.271C122.195 129.81 125.967 134.456 125.428 139.641Z" fill="#7C6656"/>
<path d="M189.897 146.276C189.358 151.48 184.712 155.252 179.527 154.713C174.324 154.174 170.551 149.529 171.09 144.344C171.629 139.14 176.275 135.368 181.46 135.907C186.663 136.446 190.436 141.092 189.897 146.276Z" fill="#7C6656"/>
<path d="M169.101 164.692C169.101 164.692 159.605 170.323 146.076 166.829C129.481 162.536 125.467 154.508 125.467 154.508" stroke="#7C6656" stroke-width="5" stroke-linecap="round" stroke-linejoin="round"/>
<path d="M251.093 304.199C251.093 304.199 242.86 308.269 238.196 304.181C233.513 300.092 233.866 287.586 227.436 283.664C221.006 279.743 216.341 288.31 209.651 286.173C202.961 284.036 201.363 280.803 205.117 277.476C208.871 274.15 215.487 271.771 215.487 271.771C215.487 271.771 234.312 258.186 236.319 259.227C236.784 264.914 235.334 277.922 235.334 277.922C235.334 277.922 251.595 265.397 256.668 268.537C255.237 273.276 250.089 287.288 250.089 287.288C250.089 287.288 255.256 290.633 251.074 304.199H251.093Z" fill="#E1B995"/>
<path d="M235.334 275.47C235.334 275.47 238.066 260.808 236.319 259.21C234.59 257.611 217.958 268.52 215.486 271.754C215.486 271.754 202.088 274.727 200.842 282.792C199.597 290.858 201.586 301.283 212.494 308.475C223.403 315.667 240.537 318.157 248.472 308.475C256.408 298.793 250.089 287.29 250.089 287.29C250.089 287.29 256.668 270.025 256.668 268.539C256.668 267.052 239.05 272.163 235.334 277.923" stroke="#7C6656" stroke-width="5" stroke-linecap="round" stroke-linejoin="round"/>
<path d="M245.256 277.458C245.256 277.458 241.279 282.16 241.038 282.792C240.796 283.423 238.064 281.677 238.064 281.677" stroke="#7C6656" stroke-width="5" stroke-linecap="round" stroke-linejoin="round"/>
<path d="M229.016 269.523L226.898 275.47L222.939 273.984" stroke="#7C6656" stroke-width="5" stroke-linecap="round" stroke-linejoin="round"/>
<path d="M213.498 279.911C213.498 279.911 219.594 278.759 221.378 287.289" stroke="#7C6656" stroke-width="5" stroke-linecap="round" stroke-linejoin="round"/>
<path d="M173.879 226.391C173.879 226.391 183.728 250.531 181.424 275.47C181.424 275.47 155.425 290.226 89.918 277.459C89.918 277.459 96.6824 243.506 93.0586 231.018" stroke="#7C6656" stroke-width="5" stroke-linecap="round" stroke-linejoin="round"/>
<path d="M70.9983 187.903C70.9983 187.903 60.0896 152.018 39.7777 158.596C19.4657 165.175 39.0529 195.188 42.1192 199.481C45.1855 203.773 47.3041 210.073 47.5085 222.933C47.7315 235.793 50.5376 252.909 72.1876 255.027C92.8341 257.053 111.176 241.591 109.058 216.262C106.753 188.628 83.152 183.053 70.9983 187.94V187.903Z" fill="white" stroke="#7C6656" stroke-width="5" stroke-linecap="round" stroke-linejoin="round"/>
<path d="M70.9991 187.904C70.9991 187.904 62.4135 192.234 58.418 198.553" stroke="#7C6656" stroke-width="5" stroke-linecap="round" stroke-linejoin="round"/>
<path d="M158.471 216.95C158.471 216.95 156.668 225.666 139.683 225.666C122.697 225.666 114.539 213.308 114.539 213.308" stroke="#7C6656" stroke-width="5" stroke-linecap="round" stroke-linejoin="round"/>
<path d="M185.975 225.665C185.975 225.665 184.786 232.207 178.281 235.161" stroke="#7C6656" stroke-width="5" stroke-linecap="round" stroke-linejoin="round"/>
</g>
<defs>
<filter id="filter0_f_491_20664" x="175.869" y="155.386" width="39.3187" height="25.8343" filterUnits="userSpaceOnUse" color-interpolation-filters="sRGB">
<feFlood flood-opacity="0" result="BackgroundImageFix"/>
<feBlend mode="normal" in="SourceGraphic" in2="BackgroundImageFix" result="shape"/>
<feGaussianBlur stdDeviation="1.65829" result="effect1_foregroundBlur_491_20664"/>
</filter>
<filter id="filter1_f_491_20664" x="79.4491" y="142.287" width="39.3187" height="25.8343" filterUnits="userSpaceOnUse" color-interpolation-filters="sRGB">
<feFlood flood-opacity="0" result="BackgroundImageFix"/>
<feBlend mode="normal" in="SourceGraphic" in2="BackgroundImageFix" result="shape"/>
<feGaussianBlur stdDeviation="1.65829" result="effect1_foregroundBlur_491_20664"/>
</filter>
</defs>
</svg>
