<svg width="280" height="280" viewBox="0 0 280 280" fill="none" xmlns="http://www.w3.org/2000/svg">
<circle cx="140" cy="140" r="140" fill="white"/>
<mask id="mask0_491_20753" style="mask-type:alpha" maskUnits="userSpaceOnUse" x="0" y="0" width="280" height="280">
<circle cx="140" cy="140" r="140" fill="white"/>
</mask>
<g mask="url(#mask0_491_20753)">
<path d="M44.7227 97.5522L46.2303 130.344L50.7382 139.706L48.8687 154.089L51.1302 168.035L53.7686 183.865L64.6991 196.303L78.2679 204.973L97.4905 213.265L106.536 217.034L98.6213 230.98L90.7061 249.825L92.5906 259.625L97.4905 267.163V275.455L95.9829 279.224L89.5753 281.486L85.8062 289.401L83.5447 299.201L85.8062 304.478L94.8521 305.985L102.39 302.97L120.105 306.739L147.997 308.624L156.289 304.478L162.697 305.985L178.15 304.478L187.573 294.678L189.08 283.37L187.573 275.455L193.226 264.902L191.342 256.61L186.065 250.956L183.427 241.533L174.758 226.457L168.727 219.672L189.834 213.265L216.218 197.811L228.279 180.473L230.541 155.22L223.003 136.374L230.541 118.659L233.933 100.191L228.656 81.7219L209.811 59.8609L190.588 50.4381L167.973 41.7691L144.228 37.623L125.382 39.5076L113.698 41.7691L97.4905 48.1766L92.2137 48.9304L67.7144 59.8609L52.2609 76.4451L44.7227 97.5522Z" fill="white"/>
<path d="M99.2611 280.1C99.2611 280.1 92.6615 277.287 89.2679 283.193C85.8556 289.099 78.2998 300.986 89.2679 304.68C96.0363 305.861 99.4673 303.273 99.4673 303.273C99.4673 303.273 98.7361 291.93 102.411 285.499" fill="white"/>
<path d="M219.611 93.2077C219.611 93.2077 224.317 118.875 222.779 131.493C225.891 142.18 246.59 179.434 203.168 207.201C182.15 215.62 141.746 227.45 96.1487 214.101C73.3875 203.564 48.3013 197.283 49.0138 158.473C47.2889 148.592 57.0571 121.312 57.0571 121.312C57.0571 121.312 127.947 36.5859 219.592 93.2077H219.611Z" fill="white"/>
<path d="M168.485 280.493C174.372 291.424 182.096 287.318 186.671 284.356C191.921 294.274 188.04 303.198 183.84 309.404C179.659 315.61 167.153 316.173 157.873 314.017C145.536 323.916 112.856 315.666 108.769 314.017C104.682 312.367 101.795 313.867 99.7697 314.56C97.3698 302.092 100.82 299.017 103.651 295.268C95.6262 286.231 98.0823 283.249 98.851 278C109.107 283.774 125.7 283.512 125.7 283.512C138.186 291.574 145.105 289.362 148.311 285.274L150.729 281.787L168.485 280.512V280.493Z" fill="#8EBDE2"/>
<g filter="url(#filter0_f_491_20753)">
<ellipse cx="206.296" cy="170.608" rx="15.8932" ry="8.74125" fill="#F5B0B0"/>
</g>
<g filter="url(#filter1_f_491_20753)">
<ellipse cx="112.527" cy="170.608" rx="15.8932" ry="8.74125" fill="#F5B0B0"/>
</g>
<path d="M185.227 176.846C185.227 176.846 177.409 186.427 163.366 186.427C149.323 186.427 141.974 176.846 141.974 176.846" stroke="#7C6656" stroke-width="5" stroke-linecap="round" stroke-linejoin="round"/>
<path d="M139.05 155.041C136.894 157.422 133.238 158.809 129.263 158.397C125.063 157.966 121.613 155.678 120.095 152.678" stroke="#7C6656" stroke-width="5" stroke-linecap="round" stroke-linejoin="round"/>
<path d="M203.15 153.298C201.5 156.054 198.181 158.116 194.188 158.491C189.988 158.885 186.163 157.31 184.082 154.666" stroke="#7C6656" stroke-width="5" stroke-linecap="round" stroke-linejoin="round"/>
<path d="M107.045 218.678C107.045 218.678 91.4463 235.87 90.9963 250.795C90.5464 265.719 100.99 273.968 125.701 273.968C125.701 273.968 143.193 288.086 151.143 271.419C158.211 256.644 145.368 245.864 129.619 253.982C129.619 253.982 110.177 253.588 112.501 247.082L114.826 240.576" stroke="#7C6656" stroke-width="5" stroke-linecap="round" stroke-linejoin="round"/>
<path d="M159.449 305.089C179.023 308.857 190.348 298.152 189.373 284.634C188.585 273.778 177.073 268.716 177.073 268.716C177.073 268.716 178.479 262.735 177.223 252.723C175.273 237.086 168.467 220.925 168.467 220.925" stroke="#7C6656" stroke-width="5" stroke-linecap="round" stroke-linejoin="round"/>
<path d="M98.627 269.671C98.627 269.671 94.0523 284.952 111.676 289.395" stroke="#7C6656" stroke-width="5" stroke-linecap="round" stroke-linejoin="round"/>
<path d="M187.235 251.729C174.242 242.542 161.024 259.454 169.742 271.303C178.086 282.609 190.216 274.172 192.56 268.66C194.903 263.147 193.497 256.154 187.235 251.729Z" fill="white" stroke="#7C6656" stroke-width="5" stroke-linecap="round" stroke-linejoin="round"/>
<path d="M168.486 220.925C168.486 220.925 181.573 231.124 185.248 249.348" stroke="#7C6656" stroke-width="5" stroke-linecap="round" stroke-linejoin="round"/>
<path d="M164.564 220.925C164.564 220.925 163.345 226.98 152.452 228.443C141.559 229.905 131.135 226.249 127.01 220.925" stroke="#7C6656" stroke-width="5" stroke-linecap="round" stroke-linejoin="round"/>
<path d="M97.8398 233.902C97.8398 233.902 100.746 241.533 113.214 241.533" stroke="#7C6656" stroke-width="5" stroke-linecap="round" stroke-linejoin="round"/>
<path d="M221.322 115.344C222.991 121.382 221.585 129.444 221.51 132.556C223.328 137.581 233.771 153.292 229.965 173.166C226.178 193.04 208.967 210.12 173.925 217.639C173.925 217.639 153.338 220.939 146.026 220.282" stroke="#7C6656" stroke-width="5" stroke-linecap="round" stroke-linejoin="round"/>
<path d="M131.571 219.458C108.116 219.327 82.5609 212.465 66.193 198.084C52.6001 186.141 47.1441 171.892 50.5564 139.7" stroke="#7C6656" stroke-width="5" stroke-linecap="round" stroke-linejoin="round"/>
<path d="M48.9609 139.703C24.8684 56.9642 98.8144 47.7772 98.8144 47.7772C149.005 21.1724 205.402 57.7516 205.402 57.7516C205.402 57.7516 246.687 83.1377 229.195 121.104" stroke="#7C6656" stroke-width="5" stroke-linecap="round" stroke-linejoin="round"/>
<path d="M105.62 72.324C105.62 72.324 102.02 98.7788 144.824 113.028" stroke="#7C6656" stroke-width="5" stroke-linecap="round" stroke-linejoin="round"/>
<path d="M96.1521 87.9167C96.1521 87.9167 71.7034 102.897 66.4912 128.246" stroke="#7C6656" stroke-width="5" stroke-linecap="round" stroke-linejoin="round"/>
<path d="M190.369 113.549C190.369 113.549 160.427 105.018 149.965 78.0762" stroke="#7C6656" stroke-width="5" stroke-linecap="round" stroke-linejoin="round"/>
<path d="M146.1 67.4296C185.436 47.1808 206.566 82.3351 206.566 82.3351C166.012 120.489 144.75 84.5474 144.75 84.5474C144.75 84.5474 141.282 82.0726 142.238 74.5917C142.744 70.6545 146.082 67.4296 146.082 67.4296H146.1Z" fill="#1AAF92"/>
<path d="M144.767 84.5474C144.767 84.5474 166.028 120.489 206.582 82.3351C206.582 82.3351 185.452 47.1808 146.117 67.4296" stroke="#7C6656" stroke-width="5" stroke-linecap="round" stroke-linejoin="round"/>
<path d="M175.665 80.5151C175.628 80.9276 148.311 85.0711 136.236 67.9158" stroke="#7C6656" stroke-width="5" stroke-linecap="round" stroke-linejoin="round"/>
</g>
<defs>
<filter id="filter0_f_491_20753" x="187.074" y="158.539" width="38.4421" height="24.1385" filterUnits="userSpaceOnUse" color-interpolation-filters="sRGB">
<feFlood flood-opacity="0" result="BackgroundImageFix"/>
<feBlend mode="normal" in="SourceGraphic" in2="BackgroundImageFix" result="shape"/>
<feGaussianBlur stdDeviation="1.664" result="effect1_foregroundBlur_491_20753"/>
</filter>
<filter id="filter1_f_491_20753" x="93.3058" y="158.539" width="38.4421" height="24.1385" filterUnits="userSpaceOnUse" color-interpolation-filters="sRGB">
<feFlood flood-opacity="0" result="BackgroundImageFix"/>
<feBlend mode="normal" in="SourceGraphic" in2="BackgroundImageFix" result="shape"/>
<feGaussianBlur stdDeviation="1.664" result="effect1_foregroundBlur_491_20753"/>
</filter>
</defs>
</svg>
