<svg width="533" height="450" viewBox="0 0 533 450" fill="none" xmlns="http://www.w3.org/2000/svg">
    <rect x="2.001" y="2.001" width="523.461" height="1085" rx="65.754" fill="#494E8F" stroke="#494E8F" stroke-width="4.002"/>
    <path d="M7.811 67.239c0-32.627 26.45-59.076 59.076-59.076h393.375c32.626 0 59.076 26.449 59.076 59.076v955.801c0 32.63-26.45 59.08-59.076 59.08H66.887c-32.627 0-59.076-26.45-59.076-59.08V67.239z" fill="#494E8F" stroke="#494E8F" stroke-width=".572"/>
    <g filter="url(#6w3s2mijqa)">
        <rect x="9.149" y="9.703" width="508.595" height="1071.02" rx="57.178" fill="#494E8F"/>
        <rect x="9.435" y="9.989" width="508.023" height="1070.45" rx="56.892" stroke="#494E8F" stroke-width=".572"/>
    </g>
    <rect x="14.582" y="14.839" width="498.589" height="1061.6" rx="51.746" fill="#494E8F"/>
    <path d="M20.94 66.628c0-25.231 20.454-45.686 45.685-45.686h392.136c25.231 0 45.686 20.455 45.686 45.686v951.932c0 25.24-20.455 45.69-45.686 45.69H66.625c-25.231 0-45.686-20.45-45.686-45.69V66.628z" fill="#D5D6E6"/>
    <rect opacity=".15" x="217.007" y="119.925" width="106.6" height="106.6" rx="22.843" fill="#494E8F"/>
    <rect opacity=".15" x="346.45" y="119.925" width="106.6" height="106.6" rx="22.843" fill="#494E8F"/>
    <g filter="url(#49zsif2p2b)">
        <path d="M97.082 113.279h60.914c16.296 0 29.506 13.21 29.506 29.505v60.932c0 16.296-13.21 29.506-29.506 29.506H97.082c-16.295 0-29.505-13.21-29.505-29.506v-60.932c0-16.295 13.21-29.505 29.505-29.505z" fill="#fff" stroke="#F5F5F5" stroke-width="1.904"/>
        <path d="m129.026 171.638-30.855 32.759v.018c.949 3.555 4.19 6.179 8.05 6.179 1.54 0 2.99-.421 4.226-1.146l.098-.063 34.733-20.042-16.26-17.696.008-.009z" fill="#F74033"/>
        <path d="m160.24 166.059-.026-.018-14.998-8.696-16.897 15.036 16.95 16.953 14.918-8.606a8.347 8.347 0 0 0 4.387-7.344 8.315 8.315 0 0 0-4.342-7.316l.008-.009z" fill="#FFBA0D"/>
        <path d="M98.171 142.22a8.083 8.083 0 0 0-.286 2.149v57.878c0 .744.098 1.46.286 2.141l31.921-31.917-31.92-30.251z" fill="#2794EF"/>
        <path d="m129.25 173.304 15.965-15.968-34.688-20.113a8.381 8.381 0 0 0-4.306-1.191 8.325 8.325 0 0 0-8.05 6.188l31.088 31.084h-.009z" fill="#4DB554"/>
    </g>
    <path d="M75.47 261.101h6.365v1.83c0 1.336-.287 2.509-.86 3.518a5.915 5.915 0 0 1-2.39 2.327c-1.015.542-2.175.813-3.479.813-1.456 0-2.74-.337-3.849-1.01-1.104-.673-1.964-1.633-2.58-2.879-.61-1.252-.914-2.719-.914-4.401 0-1.688.307-3.158.923-4.41.62-1.256 1.477-2.219 2.571-2.887 1.094-.673 2.34-1.009 3.739-1.009 1.146 0 2.195.226 3.147.678a6.311 6.311 0 0 1 2.366 1.877 6.198 6.198 0 0 1 1.215 2.769H79.2c-.305-.968-.818-1.722-1.538-2.264-.72-.547-1.604-.82-2.65-.82-.92 0-1.746.237-2.477.71-.726.473-1.296 1.165-1.712 2.074-.415.91-.623 1.998-.623 3.266 0 1.278.208 2.374.623 3.289.42.91 1.002 1.601 1.743 2.074.742.468 1.591.702 2.548.702.852 0 1.601-.17 2.248-.512a3.753 3.753 0 0 0 1.515-1.475c.368-.642.56-1.389.575-2.24H75.47v-2.02zm13.889 8.511c-1.131 0-2.125-.257-2.982-.773-.852-.52-1.512-1.254-1.98-2.2-.468-.947-.702-2.038-.702-3.274 0-1.246.234-2.343.702-3.289.468-.947 1.128-1.68 1.98-2.201.857-.52 1.85-.781 2.982-.781 1.125 0 2.113.261 2.965.781.857.521 1.517 1.254 1.98 2.201.468.946.702 2.043.702 3.289 0 1.236-.234 2.327-.702 3.274-.463.946-1.123 1.68-1.98 2.2-.852.516-1.84.773-2.965.773zm.007-1.988c.705 0 1.3-.189 1.783-.567.489-.379.855-.892 1.096-1.539.242-.646.363-1.367.363-2.161s-.12-1.514-.363-2.161c-.242-.647-.607-1.162-1.096-1.546-.484-.384-1.078-.576-1.783-.576-.71 0-1.312.192-1.806.576-.489.384-.857.899-1.104 1.546-.242.647-.363 1.367-.363 2.161s.12 1.515.363 2.161c.247.647.615 1.16 1.104 1.539.494.378 1.096.567 1.806.567zm12.881 1.988c-1.131 0-2.125-.257-2.982-.773-.852-.52-1.511-1.254-1.98-2.2-.468-.947-.701-2.038-.701-3.274 0-1.246.233-2.343.701-3.289.469-.947 1.128-1.68 1.98-2.201.857-.52 1.851-.781 2.982-.781 1.125 0 2.114.261 2.966.781.857.521 1.517 1.254 1.979 2.201.468.946.702 2.043.702 3.289 0 1.236-.234 2.327-.702 3.274-.462.946-1.122 1.68-1.979 2.2-.852.516-1.841.773-2.966.773zm.008-1.988c.704 0 1.299-.189 1.782-.567.489-.379.855-.892 1.097-1.539.242-.646.363-1.367.363-2.161s-.121-1.514-.363-2.161-.608-1.162-1.097-1.546c-.483-.384-1.078-.576-1.782-.576-.71 0-1.312.192-1.807.576-.489.384-.857.899-1.104 1.546-.242.647-.363 1.367-.363 2.161s.121 1.515.363 2.161c.247.647.615 1.16 1.104 1.539.495.378 1.097.567 1.807.567zm12.857 6.539c-1.021 0-1.917-.144-2.69-.433-.768-.284-1.378-.7-1.83-1.247-.447-.541-.705-1.188-.773-1.94h2.429c.111.568.416.994.915 1.278.505.289 1.162.434 1.972.434.978 0 1.736-.224 2.272-.671.541-.442.812-1.123.812-2.043v-2.382h-.157a4.388 4.388 0 0 1-1.247 1.436c-.531.394-1.285.591-2.263.591-.968 0-1.836-.234-2.603-.702-.763-.468-1.365-1.154-1.807-2.058-.441-.905-.662-1.986-.662-3.242 0-1.257.218-2.343.654-3.258.437-.92 1.039-1.622 1.807-2.106.773-.484 1.651-.726 2.634-.726.689 0 1.267.116 1.735.347.468.227.829.487 1.081.781.253.295.484.626.694.994h.158v-1.964h2.327v12.376c0 1.004-.234 1.846-.702 2.524-.468.678-1.112 1.183-1.933 1.514-.815.332-1.756.497-2.823.497zm-.024-6.941c.668 0 1.238-.158 1.712-.473.473-.316.83-.773 1.072-1.373.247-.599.371-1.314.371-2.145 0-.82-.124-1.538-.371-2.153-.242-.621-.599-1.102-1.072-1.444-.474-.342-1.044-.512-1.712-.512-.689 0-1.273.178-1.751.536-.473.352-.831.839-1.073 1.459-.242.621-.363 1.325-.363 2.114 0 .799.121 1.499.363 2.098.242.6.602 1.065 1.081 1.396.478.332 1.059.497 1.743.497zm8.151-14.008h2.382v16.154h-2.382v-16.154zm15.502 10.814h-8.621c.021.757.176 1.409.465 1.956.289.547.686.962 1.191 1.246.51.284 1.099.426 1.767.426.641 0 1.186-.121 1.633-.363.447-.247.778-.57.993-.97h2.414a4.033 4.033 0 0 1-.962 1.735c-.458.495-1.036.878-1.736 1.152-.699.268-1.485.402-2.358.402-1.178 0-2.203-.255-3.076-.765a5.145 5.145 0 0 1-2.004-2.177c-.462-.941-.694-2.035-.694-3.281 0-1.231.232-2.322.694-3.274.468-.951 1.126-1.693 1.972-2.224.847-.531 1.825-.797 2.935-.797.972 0 1.864.213 2.673.639.816.421 1.47 1.086 1.965 1.996.499.91.749 2.061.749 3.455v.844zm-2.343-1.783c0-.61-.126-1.157-.378-1.641a2.816 2.816 0 0 0-1.065-1.135c-.452-.279-.976-.418-1.57-.418-.615 0-1.165.144-1.648.433-.479.29-.858.679-1.136 1.168a3.646 3.646 0 0 0-.474 1.593h6.271zm15.787-9.031c1.215 0 2.24.226 3.076.678.842.447 1.47 1.065 1.886 1.854.42.788.631 1.69.631 2.705 0 1.015-.211 1.919-.631 2.713-.421.789-1.052 1.41-1.894 1.862-.836.452-1.861.678-3.076.678h-3.313v5.664h-2.453v-16.154h5.774zm-.252 8.4c1.141 0 1.987-.287 2.54-.86.557-.573.836-1.341.836-2.303s-.279-1.725-.836-2.287c-.553-.563-1.402-.844-2.548-.844h-3.061v6.294h3.069zm8.003-8.4h2.382v16.154h-2.382v-16.154zm9.822 3.88c.768 0 1.507.119 2.217.355.71.237 1.309.671 1.798 1.302.495.626.742 1.483.742 2.571v8.046h-2.319v-1.657h-.095a3.23 3.23 0 0 1-.726.939c-.31.289-.707.526-1.191.71-.478.184-1.033.276-1.664.276-.778 0-1.478-.145-2.098-.434a3.42 3.42 0 0 1-1.459-1.27c-.358-.557-.537-1.22-.537-1.988 0-1.246.424-2.137 1.27-2.674.852-.536 1.938-.851 3.258-.946a185.45 185.45 0 0 1 3.186-.166v-.986c0-.689-.21-1.22-.631-1.593-.42-.373-1.033-.56-1.837-.56-.679 0-1.234.139-1.665.418a1.895 1.895 0 0 0-.828 1.12h-2.374a3.375 3.375 0 0 1 .749-1.79c.426-.526.999-.936 1.72-1.231.725-.294 1.554-.442 2.484-.442zm-.71 10.641c.626 0 1.173-.126 1.641-.379.473-.252.834-.586 1.081-1.001.252-.421.378-.873.378-1.357v-1.104c-.399.021-1.351.084-2.855.189-.805.058-1.428.244-1.869.56-.442.31-.663.755-.663 1.333 0 .568.208 1.004.623 1.309.421.3.976.45 1.664.45zm9.142 6.176c-.537 0-.963-.016-1.278-.047l.016-1.996c.236.021.591.032 1.064.032.305 0 .558-.029.758-.087.2-.058.399-.203.599-.434.2-.226.387-.578.56-1.057l.3-.789-4.441-12.281h2.548l3.052 9.394h.127l3.068-9.394h2.548l-4.993 13.725c-.358.978-.857 1.711-1.499 2.2-.636.489-1.446.734-2.429.734z" fill="#494E8F"/>
    <path d="M276.312 45.375c0 6.856-5.568 12.414-12.436 12.414-6.869 0-12.436-5.558-12.436-12.414s5.567-12.414 12.436-12.414c6.868 0 12.436 5.558 12.436 12.414z" fill="#494E8F" stroke="#494E8F" stroke-width=".286"/>
    <path d="M175.158 9.963h177.667v.834c0 .693-.562 1.254-1.254 1.254H176.412a1.254 1.254 0 0 1-1.254-1.254v-.834z" fill="#494E8F"/>
    <mask id="jarjorlc7c" style="mask-type:alpha" maskUnits="userSpaceOnUse" x="526" y="275" width="7" height="139">
        <path d="M526.729 275.779h3.345a2.926 2.926 0 0 1 2.926 2.926v131.854a2.926 2.926 0 0 1-2.926 2.926h-3.345V275.779z" fill="#D9D9D9"/>
    </mask>
    <g mask="url(#jarjorlc7c)" fill="#494E8F">
        <path d="M526.729 275.779h.858v137.837h-.858V275.779zM527.587 275.779h1.143v137.837h-1.143V275.779zM528.73 275.779h2.002v137.837h-2.002V275.779z"/>
        <path d="M530.73 275.779h1.144v137.837h-1.144V275.779zM531.875 275.779c.632 0 1.144.512 1.144 1.143v135.551c0 .631-.512 1.143-1.144 1.143V275.779z"/>
    </g>
    <circle opacity=".2" cx="178.937" cy="203.682" r="22.843" fill="#494E8F"/>
    <circle opacity=".8" cx="178.937" cy="203.682" r="9.518" fill="#494E8F"/>
    <path d="m227.971 219.633 7.35 11.289c3.167 4.865 1.775 11.389-3.109 14.57l-10.492 6.834a10.66 10.66 0 0 1-1.762.922 12.203 12.203 0 0 1-5.915.802c-2.588-.314-5.195-.901-7.773-1.35l-9.51-1.649c-1.66-.288-7.046-1.488-8.706-1.776a5.81 5.81 0 0 1-4.596-6.841 5.866 5.866 0 0 1 6.868-4.614l8.381 1.655-19.151-29.411a4.41 4.41 0 0 1 1.302-6.099c2.045-1.332 4.776-.761 6.102 1.276l9.451 14.515.488.75-.259-.399c-1.327-2.037-.745-4.766 1.301-6.098a4.406 4.406 0 0 1 6.103 1.276l1.734 2.663.132.204-.075-.117c-1.327-2.037-.745-4.766 1.301-6.098a4.408 4.408 0 0 1 6.103 1.276l1.918 2.946-.286-.438.404.619c-1.327-2.037-.745-4.766 1.301-6.098a4.408 4.408 0 0 1 6.103 1.276l12.31 18.907" fill="#fff"/>
    <path d="m227.971 219.633 7.35 11.289c3.167 4.865 1.775 11.389-3.109 14.57l-10.492 6.834a10.66 10.66 0 0 1-1.762.922 12.203 12.203 0 0 1-5.915.802c-2.588-.314-5.195-.901-7.773-1.35l-9.51-1.649c-1.66-.288-7.046-1.488-8.706-1.776a5.81 5.81 0 0 1-4.596-6.841 5.866 5.866 0 0 1 6.868-4.614l8.381 1.655-19.151-29.411a4.41 4.41 0 0 1 1.302-6.099c2.045-1.332 4.776-.761 6.102 1.276l9.451 14.515.488.75-.259-.399c-1.327-2.037-.745-4.766 1.301-6.098a4.406 4.406 0 0 1 6.103 1.276l1.734 2.663.132.204-.075-.117c-1.327-2.037-.745-4.766 1.301-6.098a4.408 4.408 0 0 1 6.103 1.276l1.918 2.946-.286-.438.404.619c-1.327-2.037-.745-4.766 1.301-6.098a4.408 4.408 0 0 1 6.103 1.276l12.31 18.907" stroke="#494E8F" stroke-width="3.807" stroke-linecap="round" stroke-linejoin="round"/>
    <defs>
        <filter id="6w3s2mijqa" x=".001" y=".554" width="526.892" height="1089.32" filterUnits="userSpaceOnUse" color-interpolation-filters="sRGB">
            <feFlood flood-opacity="0" result="BackgroundImageFix"/>
            <feBlend in="SourceGraphic" in2="BackgroundImageFix" result="shape"/>
            <feGaussianBlur stdDeviation="4.574" result="effect1_foregroundBlur_224_63029"/>
        </filter>
        <filter id="49zsif2p2b" x="51.396" y="104.713" width="152.285" height="152.303" filterUnits="userSpaceOnUse" color-interpolation-filters="sRGB">
            <feFlood flood-opacity="0" result="BackgroundImageFix"/>
            <feColorMatrix in="SourceAlpha" values="0 0 0 0 0 0 0 0 0 0 0 0 0 0 0 0 0 0 127 0" result="hardAlpha"/>
            <feOffset dy="7.614"/>
            <feGaussianBlur stdDeviation="7.614"/>
            <feComposite in2="hardAlpha" operator="out"/>
            <feColorMatrix values="0 0 0 0 0.286275 0 0 0 0 0.305882 0 0 0 0 0.560784 0 0 0 0.3 0"/>
            <feBlend in2="BackgroundImageFix" result="effect1_dropShadow_224_63029"/>
            <feBlend in="SourceGraphic" in2="effect1_dropShadow_224_63029" result="shape"/>
        </filter>
    </defs>
</svg>
