<svg width="1280" height="908" viewBox="0 0 1280 908" fill="none" xmlns="http://www.w3.org/2000/svg">
    <mask id="upyoibgxka" style="mask-type:alpha" maskUnits="userSpaceOnUse" x="320" y="0" width="960" height="908">
        <path fill="#FBF7F5" d="M320 0h960v908H320z"/>
    </mask>
    <g mask="url(#upyoibgxka)">
        <rect x="1576" y="-646" width="596" height="1800" rx="298" transform="rotate(50 1576 -646)" fill="url(#e7tsis542b)"/>
        <mask id="c0d8dxbgyc" style="mask-type:alpha" maskUnits="userSpaceOnUse" x="318" y="-525" width="1520" height="1371">
            <path fill-rule="evenodd" clip-rule="evenodd" d="M1767.55-417.719c-105.79-126.076-293.75-142.521-419.83-36.73L642.573 137.238H431.039v177.499l-5.637 4.73C299.325 425.258 282.88 613.223 388.671 739.299 494.462 865.375 682.427 881.82 808.503 776.03L1730.82 2.113c126.08-105.79 142.52-293.755 36.73-419.832z" fill="#fff"/>
        </mask>
        <g filter="url(#j44ksqr19d)" mask="url(#c0d8dxbgyc)">
            <rect x="456.053" y="162.928" width="545.359" height="1124.14" rx="84.915" fill="#E4E8EF" stroke="#fff" stroke-width="5.856"/>
            <path d="M448 340.772c0-.809.655-1.464 1.464-1.464h3.66v42.448h-3.66a1.464 1.464 0 0 1-1.464-1.464v-39.52zM449.461 422.008c0-.809.655-1.464 1.464-1.464h2.196v84.896h-2.196a1.463 1.463 0 0 1-1.464-1.464v-81.968zM449.461 529.592c0-.809.655-1.464 1.464-1.464h2.196v84.896h-2.196a1.463 1.463 0 0 1-1.464-1.464v-81.968zM1008 582.287c0 .808-.66 1.464-1.46 1.464h-2.2V449.088h2.2c.8 0 1.46.655 1.46 1.464v131.735z" fill="#fff"/>
            <rect x="479.484" y="187.078" width="497.778" height="1075.84" rx="61.49" fill="#DEDEEB"/>
            <path fill-rule="evenodd" clip-rule="evenodd" d="M462 250c0-44.183 35.817-80 80-80h372c44.183 0 80 35.817 80 80v952c0 44.18-35.817 80-80 80H542c-44.183 0-80-35.82-80-80V250zm16-2c0-33.137 26.863-60 60-60h52.645a7.342 7.342 0 0 1 3.355 3.987v9.66C594 216.201 605.799 228 620.353 228h215.294C850.201 228 862 216.201 862 201.647v-9.638a7.34 7.34 0 0 1 3.363-4.009H918c33.137 0 60 26.863 60 60v956c0 33.14-26.863 60-60 60H538c-33.137 0-60-26.86-60-60V248z" fill="#fff"/>
            <rect opacity=".1" x="672" y="306" width="112" height="112" rx="24" fill="#424A61"/>
            <rect opacity=".1" x="536" y="306" width="112" height="112" rx="24" fill="#424A61"/>
            <rect opacity=".1" x="672" y="490" width="112" height="112" rx="24" fill="#424A61"/>
            <rect opacity=".1" x="536" y="490" width="112" height="112" rx="24" fill="#424A61"/>
            <rect opacity=".1" x="808" y="306" width="112" height="112" rx="24" fill="#424A61"/>
            <rect opacity=".1" x="808" y="490" width="112" height="112" rx="24" fill="#424A61"/>
            <g filter="url(#lm3smyaine)">
                <rect x="529" y="299" width="126" height="126" rx="31" fill="#fff" stroke="#DDD" stroke-width="2"/>
                <path d="M568.063 391.093c0 1.662-1.331 3.006-2.977 3.006s-2.977-1.344-2.977-3.006c0-1.663 1.331-3.007 2.977-3.007s2.977 1.344 2.977 3.007z" fill="#494D8F"/>
                <path d="M566.429 391.061c0 .74-.592 1.337-1.324 1.337a1.329 1.329 0 0 1-1.324-1.337 1.324 1.324 0 1 1 2.648 0z" fill="#fff"/>
                <path d="M576.555 397.663c0 1.663-1.337 3.007-2.977 3.007-1.639 0-2.976-1.344-2.976-3.007s1.33-3.007 2.976-3.007 2.977 1.344 2.977 3.007z" fill="#494D8F"/>
                <path d="M574.929 397.622c0 .74-.592 1.337-1.324 1.337a1.329 1.329 0 0 1-1.324-1.337c0-.74.592-1.337 1.324-1.337.732 0 1.324.597 1.324 1.337z" fill="#fff"/>
                <path d="M566 378.646h-1.727v9.659H566v-9.659zM589.766 379.074h-1.727v9.176h1.727v-9.176zM607.055 379.061h-1.727v14.008h1.727v-14.008zM587.274 387.945h-1.727v5.749h1.727v-5.749zM589.852 395.939h-1.727v5.186h1.727v-5.186z" fill="#494D8F"/>
                <path d="M569.697 385.609h-9.259v1.568h9.259v-1.568zM589.342 383.18h-5.819v1.568h5.819v-1.568zM589.74 386.695h-6.928v1.568h6.928v-1.568z" fill="#494D8F"/>
                <path d="M584.419 378.973h-1.653v9.203h1.653v-9.203zM611.544 385.812h-4.63v1.568h4.63v-1.568zM573.391 379.135h-1.727v14.008h1.727v-14.008zM577.274 379.061h-1.727v14.008h1.727v-14.008z" fill="#494D8F"/>
                <path d="M576.864 385.719h-4.63v1.568h4.63v-1.568zM593.614 392.336h-13.942v1.568h13.942v-1.568zM625.648 395.824h-14.695v1.69h14.695v-1.69zM589.763 395.939h-7.794v1.568h7.794v-1.568zM624.094 381.531h-1.727v10.249h1.727v-10.249z" fill="#494D8F"/>
                <path d="M615.985 388.691h-1.727v8.708h1.727v-8.708zM620.242 388.711h-1.726v8.708h1.726v-8.708zM624.022 381.523h-10.764v1.568h10.764v-1.568zM607.071 394.895h-1.727v6.183h1.727v-6.183z" fill="#494D8F"/>
                <path d="M606.982 394.887h-8.466v1.568h8.466v-1.568zM601.899 391.093c0 1.662-1.331 3.006-2.977 3.006s-2.977-1.344-2.977-3.006c0-1.663 1.331-3.007 2.977-3.007s2.977 1.344 2.977 3.007z" fill="#494D8F"/>
                <path d="M600.257 391.061c0 .74-.592 1.337-1.324 1.337a1.329 1.329 0 0 1-1.324-1.337 1.324 1.324 0 1 1 2.648 0z" fill="#fff"/>
                <path d="M599.798 378.973h-1.72v9.895h1.72v-9.895z" fill="#494D8F"/>
                <path d="M603.533 385.609h-9.26v1.568h9.26v-1.568z" fill="#494D8F"/>
                <path d="M604.414 332.134c0 6.074-4.878 11.002-10.898 11.002-6.021 0-10.899-4.928-10.899-11.002 0-6.075 4.878-11.009 10.899-11.009 6.02 0 10.898 4.927 10.898 11.009z" fill="#585EAA"/>
                <path d="M597.016 339.742c0 6.075-4.878 11.009-10.899 11.009-6.02 0-10.898-4.928-10.898-11.009s4.878-11.002 10.898-11.002c6.021 0 10.899 4.928 10.899 11.002z" fill="#585EAA"/>
                <path d="M611.719 339.613c0 6.075-4.878 11.009-10.898 11.009-6.021 0-10.899-4.927-10.899-11.009 0-6.081 4.878-11.002 10.899-11.002 6.02 0 10.898 4.928 10.898 11.002z" fill="#585EAA"/>
                <path d="M604.305 347.059c0 6.081-4.878 11.008-10.899 11.008-6.02 0-10.898-4.927-10.898-11.008 0-6.082 4.878-11.002 10.898-11.002 6.021 0 10.899 4.92 10.899 11.002z" fill="#585EAA"/>
                <path d="M585.667 333.613c-3.225 0-5.839 2.64-5.839 5.898 0 3.258 2.614 5.898 5.839 5.898 3.225 0 5.839-2.64 5.839-5.898 0-3.251-2.62-5.898-5.839-5.898z" fill="#42C3D1"/>
                <path d="M593.62 341.119c-3.225 0-5.839 2.64-5.839 5.898 0 3.258 2.614 5.898 5.839 5.898 3.226 0 5.839-2.64 5.839-5.898 0-3.258-2.613-5.898-5.839-5.898z" fill="#FBAD17"/>
                <path d="M600.933 333.742c-3.225 0-5.839 2.64-5.839 5.898 0 3.258 2.614 5.898 5.839 5.898 3.225 0 5.839-2.64 5.839-5.898 0-3.251-2.614-5.898-5.839-5.891v-.007z" fill="#00B392"/>
                <path d="M592.046 337.489c3.125.821 6.31-1.073 7.123-4.229.813-3.149-1.062-6.373-4.187-7.187-3.117-.822-6.309 1.072-7.122 4.228a5.877 5.877 0 0 0-.013 2.898" fill="#B171AF"/>
                <path d="M602.466 334.001c2.082.584 4.112 2.654 4.065 5.62-.054 3.162-2.574 5.694-5.752 5.599-1.075-.027-2.224-.346-3.172-.984-1.867-1.249-2.23-3.156-2.546-5.24-.517-3.387-2.332-8.681-9.615-8.674-3.864 0-7.741 3.326-8.426 7.256-.881 5.043 1.323 9.183 5.577 10.757 0 0 .329.075.463-.258l1.458-2.959c-2.587-.495-4.448-3.088-4.421-5.572.027-3.258 2.412-5.532 5.208-5.66 3.567-.157 5.274 2.178 5.939 4.377.289.964.41 1.894.531 2.769.262 1.826 1.042 3.815 2.325 5.145 1.162 1.201 2.735 2.016 4.354 2.396.786.183 1.666.339 2.48.312 2.136-.061 4.145-.726 5.718-1.955 0 0 3.615-2.619 3.332-7.248 0 0 0-.034-.013-.089-.101-3.61-2.096-6.936-5.255-8.449 0 0-.396-.238-.598.122l-1.639 2.728-.013.007z" fill="#fff"/>
                <path d="M599.055 348.7c-.557 2.125-2.62 4.208-5.577 4.154a5.61 5.61 0 0 1-5.55-5.81c.027-1.086.343-2.246.975-3.203 1.243-1.887 3.131-2.253 5.193-2.572 3.353-.523 8.594-2.349 8.588-9.706 0-3.903-3.293-7.819-7.183-8.511-4.899-.876-8.944 1.255-10.563 5.396 0 0-.215.461.155.665l2.943 1.466s.013-.068.04-.183c.625-2.485 3.084-4.27 5.476-4.242 3.232.027 5.483 2.436 5.604 5.26.155 3.604-2.157 5.327-4.341 5.993-.954.291-1.881.414-2.741.536-1.807.265-3.776 1.052-5.093 2.348-1.19 1.174-1.989 2.763-2.365 4.391-.182.795-.33 1.684-.309 2.505.06 2.158.718 4.188 1.935 5.783 0 0 2.593 3.651 7.176 3.366 0 0 .033 0 .094-.014 3.763-.108 7.21-2.328 8.58-5.809 0 0 .094-.258-.168-.374l-2.862-1.439h-.007z" fill="#fff"/>
                <path d="M567.237 371.044h-.846v-2.172h-1.411v1.595h-3.871v-3.903h.847v1.297h2.184v-1.297h.84v1.616h1.411v-2.057h.846V371.044zm-3.097-1.256v-1.235h-2.184v1.235h2.184zm3.084 4.853h-4.838v-3.285h.84v.916h3.158v-.916h.847v3.285h-.007zm-.847-.692v-.985h-3.158v.985h3.158zM575.335 371.307h-1.996v1.616h-.846v-1.616h-1.096v1.616h-.84v-1.616h-2.432v-.692h7.21v.692zm-1.109 3.353h-5.046v-2.694h.826v2.002h4.22v.692zm-4.811-4.724v-2.07l3.85-.02v-.767h-3.897v-.692h4.744v2.151l-3.864.021v.685h4.018v.692h-4.858.007zM581.911 373.297h-6.02v-.576h6.02v.576zm-1.149-1.764-1.908-1.765a1.506 1.506 0 0 0-.215.183c-.101.082-.215.19-.343.306-.067.061-.128.122-.195.183s-.134.129-.201.19a10.57 10.57 0 0 0-.403.373c-.128.129-.242.238-.343.333-.101.102-.175.163-.215.197l-.43-.496 1.989-1.832v-1.256h.699v1.256c.329.298.665.611 1.007.923.343.326.672.624.981.909l-.423.496zM586.264 370.963h-3.608v-3.041h.706v2.464h2.902v.577zm1.425 3.529h-4.032v-2.606h4.032v2.606zm-3.339-.577h2.64v-1.446h-2.64v1.446zm3.312-2.287h-.699v-4.235h.699v4.235zM593.061 372.632h-4.381v-.577h1.29v-1.73h.699v1.73h2.392v.577zm-1.687-1.058c.108-.252.195-.516.269-.788.027-.122.06-.251.087-.38a9.63 9.63 0 0 0 .161-1.052c.014-.203.027-.38.027-.516h-2.943v-.563h3.642v.231c0 .068 0 .136-.007.21 0 .075-.013.156-.013.251-.013.184-.034.387-.054.618a7.11 7.11 0 0 1-.114.713l-.081.38c-.026.129-.06.258-.094.38-.08.271-.168.529-.268.78l-.612-.264zm4.025-.896h-1.384v3.807h-.699v-7.079h.699v2.695h1.384v.577zM602.04 368.668h-3.884v-.543h1.613v-.773h.679v.773h1.599v.543h-.007zm-2.224 2.831a1.148 1.148 0 0 1-.296-.089 1.252 1.252 0 0 1-.484-.298.925.925 0 0 1-.188-.197 1.839 1.839 0 0 1-.141-.238 1.222 1.222 0 0 1-.121-.543c0-.197.041-.373.121-.543.074-.163.182-.312.329-.441a1.547 1.547 0 0 1 .78-.38c.101-.02.208-.027.316-.027.215 0 .416.034.611.109.088.047.175.088.262.135.081.048.161.102.235.163.068.068.128.136.182.204.054.074.101.149.154.237a1.29 1.29 0 0 1 .115.536c0 .102-.007.197-.027.286-.02.088-.047.176-.088.257-.047.089-.1.163-.154.238a1.216 1.216 0 0 1-.182.197 1.371 1.371 0 0 1-.497.298.93.93 0 0 1-.295.089 2.505 2.505 0 0 1-.632 0v.007zm-.027-2.172a3.667 3.667 0 0 0-.155.081.477.477 0 0 0-.127.109.877.877 0 0 0-.188.271.813.813 0 0 0-.081.346c0 .129.027.245.081.346a.677.677 0 0 0 .188.272.511.511 0 0 0 .127.109c.048.033.101.061.155.088a1.012 1.012 0 0 0 .699 0 .836.836 0 0 0 .282-.197.677.677 0 0 0 .108-.122.813.813 0 0 0 .154-.496c0-.054 0-.108-.02-.163a1.837 1.837 0 0 0-.054-.169 1.624 1.624 0 0 0-.195-.279 1.232 1.232 0 0 0-.282-.19 1.012 1.012 0 0 0-.692 0v-.006zm3.655 5.165h-4.031v-2.539h4.031v2.539zm-3.339-.577h2.627v-1.385h-2.627v1.385zm4.71-4.093h-1.351v1.799h-.705v-4.222h.705v1.853h1.351v.57zM610.258 374.274h-.699v-3.801h-.894a3.928 3.928 0 0 1-.477.889 6.004 6.004 0 0 1-.86.964l-.436-.468c.295-.272.537-.55.718-.849.189-.291.33-.57.424-.848.047-.129.094-.258.127-.38.034-.122.061-.238.081-.346.027-.217.047-.401.061-.53h-.693c0 .075-.013.163-.026.258a2.22 2.22 0 0 1-.068.312c-.02.123-.053.252-.1.381a4.913 4.913 0 0 1-.168.407 4.595 4.595 0 0 1-.262.434 5.1 5.1 0 0 1-.336.455c-.256.305-.605.597-1.042.875l-.296-.509a3.34 3.34 0 0 0 .793-.699c.108-.122.195-.244.269-.366.074-.122.148-.244.208-.367.108-.237.189-.468.229-.678.033-.211.067-.38.087-.516h-1.276v-.57h3.366V368.749c0 .089-.007.19-.02.312-.014.252-.061.53-.135.842h.713v-2.294h.698v6.665h.014zm1.324.204h-.699v-7.052h.699v7.052zM616.263 369.178h-3.904v-.557h1.606v-1.079h.686v1.079h1.612v.557zm-2.546 3.142a1.42 1.42 0 0 1-.538-.332 1.381 1.381 0 0 1-.356-.489 2.163 2.163 0 0 1-.094-.292 1.492 1.492 0 0 1 .094-.916c.047-.095.101-.183.161-.265.054-.081.121-.156.195-.224.148-.136.329-.251.538-.339a1.703 1.703 0 0 1 .645-.116c.114 0 .221.014.329.028.107.02.215.047.316.088a2.3 2.3 0 0 1 .537.339 1.716 1.716 0 0 1 .356.489c.041.095.074.19.094.292a1.41 1.41 0 0 1 0 .617 1.913 1.913 0 0 1-.094.292c-.087.197-.208.36-.356.489a1.7 1.7 0 0 1-.537.332 1.758 1.758 0 0 1-.645.129c-.222 0-.45-.04-.645-.129v.007zm.268-2.314c-.053.027-.107.054-.161.088a.85.85 0 0 0-.148.122c-.04.048-.08.095-.114.143a.465.465 0 0 0-.087.163.636.636 0 0 0-.054.183.96.96 0 0 0-.02.197c0 .067 0 .135.02.196.013.062.034.123.054.184.02.054.047.108.087.163.034.054.074.101.114.149.047.041.094.075.148.115.054.034.108.068.161.089.061.027.121.04.182.054a.94.94 0 0 0 .195.02c.067 0 .127 0 .195-.02a.904.904 0 0 0 .188-.054.978.978 0 0 0 .302-.204.797.797 0 0 0 .114-.149c.034-.055.061-.109.094-.163.047-.122.074-.251.074-.38 0-.068 0-.136-.02-.197a1.583 1.583 0 0 0-.054-.183.82.82 0 0 0-.094-.163c-.033-.048-.074-.095-.114-.143a1.18 1.18 0 0 0-.141-.122c-.047-.034-.108-.061-.161-.088a.997.997 0 0 0-.753 0h-.007zm5.06.583h-1.471v3.896h-.699v-7.079h.699v2.607h1.471v.576zM625.317 371.608h-6.02v-.57h6.02v.57zm-.772-1.446h-4.375v-2.443h.699v1.887h3.676v.563-.007zm-.054 4.344h-4.206v-2.376h.692v1.799h3.514v.577z" fill="#494D8F"/>
            </g>
            <path d="M568.442 451.373h-2.437v5.138h-2.08v-12.116h2.08v5.146h2.437v-5.552h2.105v13.251h-2.105v-5.867zm-9.472-4.981h4.185v1.757h-10.616v-1.757h4.226v-2.237h2.205v2.237zm3.439 6.357c-.006.712-.202 1.342-.589 1.889-.381.542-.917.961-1.607 1.26-.685.293-1.47.439-2.354.439-.873 0-1.652-.149-2.337-.447-.68-.299-1.21-.719-1.591-1.26-.381-.542-.572-1.169-.572-1.881 0-.719.191-1.351.572-1.898.381-.553.911-.978 1.591-1.276.685-.299 1.464-.448 2.337-.448.884 0 1.669.149 2.354.448.69.298 1.226.721 1.607 1.268.387.547.583 1.182.589 1.906zm-7.069 0c0 .392.105.737.315 1.036.215.298.513.527.895.687.381.161.817.241 1.309.241.497 0 .937-.08 1.318-.241.386-.16.685-.389.895-.687.215-.299.323-.644.323-1.036 0-.398-.108-.746-.323-1.045a1.986 1.986 0 0 0-.895-.696c-.381-.165-.821-.248-1.318-.248-.492 0-.928.083-1.309.248-.382.161-.68.393-.895.696-.21.299-.315.647-.315 1.045zm8.196 4.798c1.481 0 2.754.146 3.82.439 1.072.287 1.89.71 2.453 1.268.569.558.854 1.229.854 2.014 0 .773-.285 1.436-.854 1.989-.569.552-1.386.972-2.453 1.26-1.066.292-2.339.439-3.82.439-1.481 0-2.757-.147-3.829-.439-1.072-.288-1.892-.708-2.461-1.26-.564-.553-.843-1.216-.837-1.989a2.7 2.7 0 0 1 .837-2.014c.569-.558 1.387-.981 2.453-1.268 1.072-.293 2.351-.439 3.837-.439zm0 5.693c1.033.006 1.917-.069 2.652-.223.735-.15 1.293-.373 1.674-.672.387-.298.58-.657.58-1.077-.006-.658-.434-1.16-1.285-1.508-.845-.348-2.052-.517-3.621-.506-1.575-.011-2.79.158-3.647.506-.85.348-1.273.85-1.268 1.508-.005.42.183.779.564 1.077.387.299.948.522 1.682.672.741.154 1.63.229 2.669.223zm20.287-10.806v2.262h8.477v1.815h-19.143v-1.815h8.453v-2.262h-5.95v-7.948h2.212v2.263h9.73v-2.263h2.212v7.948h-5.991zm3.779-4.011h-9.73v2.221h9.73v-2.221zm.107 11.734h-12.431v-1.781h14.669v6.613h-2.238v-4.832zm13.342-14.038h5.13v1.773h-12.497v-1.773h5.155v-2.229h2.212v2.229zm9.108 3.572h3.041v1.839h-3.041v5.594h-2.229v-13.135h2.229v5.702zm-5.13 2.983c0 .757-.215 1.423-.646 1.997-.426.575-1.022 1.02-1.79 1.335-.768.314-1.652.472-2.652.472-1.006 0-1.895-.158-2.669-.472-.773-.315-1.375-.76-1.806-1.335-.426-.574-.638-1.24-.638-1.997 0-.757.212-1.423.638-1.997.425-.575 1.024-1.02 1.798-1.334.779-.321 1.671-.484 2.677-.489 1 .005 1.884.168 2.652.489.768.314 1.364.759 1.79 1.334.431.574.646 1.24.646 1.997zm-8.055 0c-.006.425.113.796.356 1.111.249.309.597.546 1.044.712.448.166.97.249 1.567.249.591 0 1.11-.083 1.558-.249.447-.166.795-.403 1.044-.712.249-.315.376-.686.381-1.111a1.77 1.77 0 0 0-.381-1.11c-.249-.321-.597-.567-1.044-.738-.448-.177-.967-.268-1.558-.274-.597.006-1.119.097-1.567.274-.447.171-.795.417-1.044.738a1.722 1.722 0 0 0-.356 1.11zM607.93 460h-11.652v-1.807h13.881v6.796h-2.229V460zm21.065-12.182h-12.87v-1.807h15.091v2.42a84.174 84.174 0 0 1-.058 3 40.1 40.1 0 0 1-.207 2.834 40.955 40.955 0 0 1-.497 3.415l-2.188-.232a37.75 37.75 0 0 0 .497-3.349c.105-1.055.169-2.002.191-2.842.028-.84.041-1.843.041-3.008v-.431zm-2.884 5.685v6.812h7.194v1.84h-19.144v-1.84h4.517v-6.812h2.221v6.812h3.025v-6.812h2.187z" fill="#222"/>
            <rect x="697.617" y="196.594" width="62.222" height="10.246" rx="5.123" fill="#E4E8EF"/>
            <ellipse cx="783.999" cy="201.717" rx="5.124" ry="5.123" fill="#E4E8EF"/>
        </g>
    </g>
    <defs>
        <filter id="j44ksqr19d" x="234.248" y="160" width="987.503" height="1709.76" filterUnits="userSpaceOnUse" color-interpolation-filters="sRGB">
            <feFlood flood-opacity="0" result="BackgroundImageFix"/>
            <feColorMatrix in="SourceAlpha" values="0 0 0 0 0 0 0 0 0 0 0 0 0 0 0 0 0 0 127 0" result="hardAlpha"/>
            <feOffset dy="7.296"/>
            <feGaussianBlur stdDeviation="2.13"/>
            <feColorMatrix values="0 0 0 0 0.0705882 0 0 0 0 0.0980392 0 0 0 0 0.133333 0 0 0 0.01 0"/>
            <feBlend in2="BackgroundImageFix" result="effect1_dropShadow_1571_8425"/>
            <feColorMatrix in="SourceAlpha" values="0 0 0 0 0 0 0 0 0 0 0 0 0 0 0 0 0 0 127 0" result="hardAlpha"/>
            <feOffset dy="16.576"/>
            <feGaussianBlur stdDeviation="4.84"/>
            <feColorMatrix values="0 0 0 0 0.0705882 0 0 0 0 0.0980392 0 0 0 0 0.133333 0 0 0 0.0104523 0"/>
            <feBlend in2="effect1_dropShadow_1571_8425" result="effect2_dropShadow_1571_8425"/>
            <feColorMatrix in="SourceAlpha" values="0 0 0 0 0 0 0 0 0 0 0 0 0 0 0 0 0 0 127 0" result="hardAlpha"/>
            <feOffset dy="28.85"/>
            <feGaussianBlur stdDeviation="8.424"/>
            <feColorMatrix values="0 0 0 0 0.0705882 0 0 0 0 0.0980392 0 0 0 0 0.133333 0 0 0 0.0128732 0"/>
            <feBlend in2="effect2_dropShadow_1571_8425" result="effect3_dropShadow_1571_8425"/>
            <feColorMatrix in="SourceAlpha" values="0 0 0 0 0 0 0 0 0 0 0 0 0 0 0 0 0 0 127 0" result="hardAlpha"/>
            <feOffset dy="45.831"/>
            <feGaussianBlur stdDeviation="13.383"/>
            <feColorMatrix values="0 0 0 0 0.0705882 0 0 0 0 0.0980392 0 0 0 0 0.133333 0 0 0 0.015 0"/>
            <feBlend in2="effect3_dropShadow_1571_8425" result="effect4_dropShadow_1571_8425"/>
            <feColorMatrix in="SourceAlpha" values="0 0 0 0 0 0 0 0 0 0 0 0 0 0 0 0 0 0 127 0" result="hardAlpha"/>
            <feOffset dy="70.713"/>
            <feGaussianBlur stdDeviation="20.648"/>
            <feColorMatrix values="0 0 0 0 0.0705882 0 0 0 0 0.0980392 0 0 0 0 0.133333 0 0 0 0.0171268 0"/>
            <feBlend in2="effect4_dropShadow_1571_8425" result="effect5_dropShadow_1571_8425"/>
            <feColorMatrix in="SourceAlpha" values="0 0 0 0 0 0 0 0 0 0 0 0 0 0 0 0 0 0 127 0" result="hardAlpha"/>
            <feOffset dy="110.342"/>
            <feGaussianBlur stdDeviation="32.22"/>
            <feColorMatrix values="0 0 0 0 0.0705882 0 0 0 0 0.0980392 0 0 0 0 0.133333 0 0 0 0.0195477 0"/>
            <feBlend in2="effect5_dropShadow_1571_8425" result="effect6_dropShadow_1571_8425"/>
            <feColorMatrix in="SourceAlpha" values="0 0 0 0 0 0 0 0 0 0 0 0 0 0 0 0 0 0 127 0" result="hardAlpha"/>
            <feOffset dy="183.185"/>
            <feGaussianBlur stdDeviation="53.49"/>
            <feColorMatrix values="0 0 0 0 0.0705882 0 0 0 0 0.0980392 0 0 0 0 0.133333 0 0 0 0.02281 0"/>
            <feBlend in2="effect6_dropShadow_1571_8425" result="effect7_dropShadow_1571_8425"/>
            <feColorMatrix in="SourceAlpha" values="0 0 0 0 0 0 0 0 0 0 0 0 0 0 0 0 0 0 127 0" result="hardAlpha"/>
            <feOffset dy="366.013"/>
            <feGaussianBlur stdDeviation="106.876"/>
            <feColorMatrix values="0 0 0 0 0.0705882 0 0 0 0 0.0980392 0 0 0 0 0.133333 0 0 0 0.03 0"/>
            <feBlend in2="effect7_dropShadow_1571_8425" result="effect8_dropShadow_1571_8425"/>
            <feBlend in="SourceGraphic" in2="effect8_dropShadow_1571_8425" result="shape"/>
        </filter>
        <filter id="lm3smyaine" x="504" y="282" width="176" height="176" filterUnits="userSpaceOnUse" color-interpolation-filters="sRGB">
            <feFlood flood-opacity="0" result="BackgroundImageFix"/>
            <feColorMatrix in="SourceAlpha" values="0 0 0 0 0 0 0 0 0 0 0 0 0 0 0 0 0 0 127 0" result="hardAlpha"/>
            <feOffset dy="8"/>
            <feGaussianBlur stdDeviation="12"/>
            <feComposite in2="hardAlpha" operator="out"/>
            <feColorMatrix values="0 0 0 0 0.2248 0 0 0 0 0.242195 0 0 0 0 0.468333 0 0 0 0.2 0"/>
            <feBlend in2="BackgroundImageFix" result="effect1_dropShadow_1571_8425"/>
            <feBlend in="SourceGraphic" in2="effect1_dropShadow_1571_8425" result="shape"/>
        </filter>
        <linearGradient id="e7tsis542b" x1="1801.61" y1="748.199" x2="1628.17" y2="242.374" gradientUnits="userSpaceOnUse">
            <stop stop-color="#494E8F" stop-opacity=".4"/>
            <stop offset="1" stop-color="#fff" stop-opacity="0"/>
        </linearGradient>
    </defs>
</svg>
