<svg width="1120" height="944" viewBox="0 0 1120 944" fill="none" xmlns="http://www.w3.org/2000/svg">
    <mask id="w5ry0dxkna" style="mask-type:alpha" maskUnits="userSpaceOnUse" x="0" y="0" width="1120" height="944">
        <rect width="1120" height="944" rx="48" fill="#fff"/>
    </mask>
    <g mask="url(#w5ry0dxkna)">
        <path fill="#555988" d="M0 0h1120v944H0z"/>
        <g opacity=".1" filter="url(#w5p4gpw6ub)">
            <path d="M1685 1739.85c0-304.23-201.05-561.19-476.82-645.24C1127.25 813.024 868.967 607 562.461 607 255.955 607-6.845 816.42-85.234 1101.68-363.261 1184.32-566 1442.42-566 1748.06s202.175 562.88 479.074 646.09C-2.616 2670.35 253.135 2871 555.693 2871c302.558 0 562.537-204.04 644.597-483.65 279.71-81.5 484.43-340.45 484.43-647.5h.28z" fill="#fff"/>
        </g>
        <path d="M383.659 274.984v26.485h-4.219V289.75h-4.875v10.266h-4.172v-24.235h4.172v10.313h4.875v-11.11h4.219zm-14.812 4.782v3.515h-21.235v-3.515h8.485v-4.454h4.406v4.454h8.344zm-10.594 5.484c5.344 0 9.094 2.859 9.094 7.219 0 4.359-3.75 7.219-9.094 7.219-5.25 0-9-2.86-9-7.219 0-4.36 3.75-7.219 9-7.219zm0 3.281c-2.953 0-5.016 1.547-5.016 3.938 0 2.39 2.063 3.984 5.016 3.984 3.047 0 5.062-1.594 5.062-3.984 0-2.391-2.015-3.938-5.062-3.938zm11.344 13.547c8.906 0 14.25 2.672 14.296 7.453-.046 4.688-5.39 7.407-14.296 7.36-8.907.047-14.25-2.672-14.204-7.36-.046-4.781 5.297-7.453 14.204-7.453zm0 3.422c-6.235 0-9.844 1.406-9.797 4.031-.047 2.531 3.562 3.985 9.797 3.938 6.281.047 9.796-1.407 9.843-3.938-.047-2.625-3.562-4.031-9.843-4.031zm57.551-9.094v3.61h-38.297v-3.61h16.922v-4.547h-11.906v-15.89h4.406v4.547h19.453v-4.547h4.453v15.89h-12v4.547h16.969zm-4.688 7.36v13.218h-4.5v-9.656h-24.843v-3.562h29.343zm-24.187-15.469h19.453v-4.453h-19.453v4.453zm64.582-13.266v13.5h6.094v3.703h-6.094v14.204h-4.453v-31.407h4.453zm-7.922 4.875v3.61h-25.031v-3.61h10.313v-4.922h4.453v4.922h10.265zm-12.515 5.625c6.047 0 10.172 3.141 10.172 7.922s-4.125 7.875-10.172 7.875c-6.094 0-10.219-3.094-10.219-7.875 0-4.781 4.125-7.922 10.219-7.922zm0 3.422c-3.563 0-5.953 1.735-5.906 4.5-.047 2.719 2.343 4.406 5.906 4.406 3.562 0 5.953-1.687 6-4.406-.047-2.765-2.438-4.5-6-4.5zm22.219 23.531v3.61H436.23v-12.141h4.453v8.531h23.954zm56.696-21v3.657h-6.516v21.797h-4.453v-41.954h4.453v16.5h6.516zm-33.235-12.422v23.626c5.86 0 11.977-.493 18.657-1.876l.515 3.75c-7.172 1.454-13.828 1.829-20.109 1.829h-3.469v-27.329h4.406zm42.552 30.704-3.75 12.937h-3.985l2.485-12.937h5.25zm51.305-34.782v26.485h-4.218V289.75h-4.875v10.266h-4.172v-24.235h4.172v10.313h4.875v-11.11h4.218zm-14.812 4.782v3.515h-21.235v-3.515h8.485v-4.454h4.406v4.454h8.344zm-10.594 5.484c5.344 0 9.094 2.859 9.094 7.219 0 4.359-3.75 7.219-9.094 7.219-5.25 0-9-2.86-9-7.219 0-4.36 3.75-7.219 9-7.219zm0 3.281c-2.953 0-5.016 1.547-5.016 3.938 0 2.39 2.063 3.984 5.016 3.984 3.047 0 5.063-1.594 5.063-3.984 0-2.391-2.016-3.938-5.063-3.938zm11.344 13.547c8.906 0 14.25 2.672 14.297 7.453-.047 4.688-5.391 7.407-14.297 7.36-8.906.047-14.25-2.672-14.203-7.36-.047-4.781 5.297-7.453 14.203-7.453zm0 3.422c-6.235 0-9.844 1.406-9.797 4.031-.047 2.531 3.562 3.985 9.797 3.938 6.281.047 9.797-1.407 9.844-3.938-.047-2.625-3.563-4.031-9.844-4.031zm57.551-9.094v3.61h-38.297v-3.61h16.922v-4.547h-11.906v-15.89h4.406v4.547h19.453v-4.547h4.453v15.89h-12v4.547h16.969zm-4.687 7.36v13.218h-4.5v-9.656h-24.844v-3.562h29.344zm-24.188-15.469h19.453v-4.453h-19.453v4.453zm64.583-13.266v13.5h6.093v3.703h-6.093v14.204h-4.454v-31.407h4.454zm-7.922 4.875v3.61h-25.032v-3.61h10.313v-4.922h4.453v4.922h10.266zm-12.516 5.625c6.047 0 10.172 3.141 10.172 7.922s-4.125 7.875-10.172 7.875c-6.094 0-10.219-3.094-10.219-7.875 0-4.781 4.125-7.922 10.219-7.922zm0 3.422c-3.562 0-5.953 1.735-5.906 4.5-.047 2.719 2.344 4.406 5.906 4.406 3.563 0 5.953-1.687 6-4.406-.047-2.765-2.437-4.5-6-4.5zm22.219 23.531v3.61h-28.406v-12.141h4.453v8.531h23.953zm50.18-37.5v16.735h6.516v3.703h-6.516v21.516h-4.453v-41.954h4.453zm-10.968 4.407c-.047 12.14-5.391 22.968-19.219 29.812l-2.484-3.469c10.523-5.25 16.242-12.843 17.156-22.64h-15.047v-3.703h19.594zm54.27-4.407v24.985h-4.453v-10.641h-7.829v-3.656h7.829v-10.688h4.453zm-14.063 26.157c8.813 0 14.203 2.906 14.203 7.921 0 5.016-5.39 7.876-14.203 7.922-8.812-.046-14.25-2.906-14.203-7.922-.047-5.015 5.391-7.921 14.203-7.921zm0 3.468c-6.14 0-9.797 1.594-9.797 4.453 0 2.813 3.657 4.454 9.797 4.407 6.141.047 9.797-1.594 9.797-4.407 0-2.859-3.656-4.453-9.797-4.453zm-5.906-22.218c0 5.343 3.797 10.5 10.125 12.656l-2.297 3.515c-4.711-1.64-8.18-4.992-9.984-9.14-1.852 4.711-5.532 8.484-10.547 10.312l-2.344-3.562c6.516-2.25 10.5-7.922 10.5-13.734v-.938h-9.094v-3.609h22.641v3.609h-9v.891zm33.504 27.375-3.75 12.937h-3.984l2.484-12.937h5.25zm-436.184 33.218v26.485h-4.219V357.75h-4.875v10.266h-4.171v-24.235h4.171v10.313h4.875v-11.11h4.219zm-14.812 4.782v3.515h-21.235v-3.515h8.485v-4.454h4.406v4.454h8.344zm-10.594 5.484c5.344 0 9.094 2.859 9.094 7.219 0 4.359-3.75 7.219-9.094 7.219-5.25 0-9-2.86-9-7.219 0-4.36 3.75-7.219 9-7.219zm0 3.281c-2.953 0-5.016 1.547-5.016 3.938 0 2.39 2.063 3.984 5.016 3.984 3.047 0 5.062-1.594 5.062-3.984 0-2.391-2.015-3.938-5.062-3.938zm11.344 13.547c8.906 0 14.25 2.672 14.297 7.453-.047 4.688-5.391 7.407-14.297 7.36-8.907.047-14.25-2.672-14.203-7.36-.047-4.781 5.296-7.453 14.203-7.453zm0 3.422c-6.235 0-9.844 1.406-9.797 4.031-.047 2.531 3.562 3.985 9.797 3.938 6.281.047 9.797-1.407 9.843-3.938-.046-2.625-3.562-4.031-9.843-4.031zm57.551-9.094v3.61h-38.297v-3.61h16.922v-4.547h-11.906v-15.89h4.406v4.547h19.453v-4.547h4.453v15.89h-12v4.547h16.969zm-4.688 7.36v13.218h-4.5v-9.656h-24.843v-3.562h29.343zm-24.187-15.469h19.453v-4.453H348.38v4.453zm64.582-13.266v13.5h6.094v3.703h-6.094v14.204h-4.453v-31.407h4.453zm-7.921 4.875v3.61h-25.032v-3.61h10.313v-4.922h4.453v4.922h10.266zm-12.516 5.625c6.047 0 10.172 3.141 10.172 7.922s-4.125 7.875-10.172 7.875c-6.094 0-10.219-3.094-10.219-7.875 0-4.781 4.125-7.922 10.219-7.922zm0 3.422c-3.563 0-5.953 1.735-5.906 4.5-.047 2.719 2.343 4.406 5.906 4.406 3.562 0 5.953-1.687 6-4.406-.047-2.765-2.438-4.5-6-4.5zm22.219 23.531v3.61h-28.407v-12.141h4.454v8.531h23.953zm32.04-26.812c-.047 7.453 4.265 15.047 10.547 18.094l-2.766 3.562c-4.57-2.367-8.109-7.078-9.937-12.703-1.899 6-5.579 11.016-10.36 13.5l-2.765-3.609c6.468-3.094 10.828-11.157 10.828-18.844V346.5h4.453v7.172zm18.14-10.688v16.735h6.75v3.797h-6.75v21.468h-4.453v-42h4.453zm43.02 0v42h-4.453v-42h4.453zm-34.5 30.563c3.446-.024 7.407-.047 11.532-.188v-4.171c-4.922-.633-8.11-3.516-8.063-7.641-.047-4.735 4.078-7.875 10.172-7.875 6.141 0 10.359 3.14 10.359 7.875 0 4.078-3.187 6.937-8.062 7.594v4.078c3.89-.164 7.828-.469 11.531-.938l.328 3.328c-9.328 1.547-19.5 1.641-27.187 1.641l-.61-3.703zM499.976 348v3.562h-25.641V348h10.641v-4.922h4.453V348h10.547zm-12.891 9.141c-3.516 0-6 1.734-5.953 4.406-.047 2.672 2.437 4.312 5.953 4.312 3.609 0 6.094-1.64 6.094-4.312 0-2.672-2.485-4.406-6.094-4.406zm65.52 5.109v3.422h-38.438v-3.422h38.438zm-4.734 6.375v9.234h-24.657v3.469h25.969v3.141h-30.422v-9.563h24.703v-3.094h-24.75v-3.187h29.157zm-.094-24.563v9.094h-24.281v3.188h24.984v3.14h-29.391v-9.281h24.235v-3h-24.328v-3.141h28.781zm39.962 2.626v19.593h-19.641v-19.593h19.641zm-15.282 3.609v12.469h10.922v-12.469h-10.922zm27-7.359V355.5h6.094v3.75h-6.094v14.484h-4.453v-30.796h4.453zm1.782 37.546v3.61h-28.407v-13.313h4.454v9.703h23.953zm44.567-20.296v3.562h-38.344v-3.562h38.344zm-4.547-6.61v3.563h-28.782v-12.938h28.36v3.609h-23.906v5.766h24.328zm-.328 13.5v10.172h-24.469V381h25.64v3.516h-30v-10.547h24.422V370.5h-24.468v-3.422h28.875zm18.926-20.953c5.695 0 9.867 4.828 10.547 12.609h8.672v-15.75h4.406v42.094h-4.406v-22.734h-8.625c-.493 8.179-4.758 13.265-10.594 13.265-6.281 0-10.688-5.718-10.641-14.765-.047-9 4.36-14.719 10.641-14.719zm0 3.984c-3.797 0-6.422 4.125-6.422 10.735 0 6.656 2.625 10.781 6.422 10.781 3.797 0 6.422-4.125 6.422-10.781 0-6.61-2.625-10.735-6.422-10.735zm62.614-7.125v9.704h6.093v3.656h-6.093v9.375h-4.5v-22.735h4.5zm-11.532 2.485c0 10.687-7.265 17.812-19.828 20.765l-1.64-3.609c10.171-2.32 15.867-7.359 16.593-13.594h-14.625v-3.562h19.5zm-11.015 22.078v4.922h18.093v-4.922h4.454v16.922h-27v-16.922h4.453zm0 13.265h18.093v-4.828h-18.093v4.828zm65.426-37.828v42h-4.453v-42h4.453zm-27.891 4.078v23.391c6.118-.047 12.563-.539 19.313-1.922l.609 3.75c-7.453 1.5-14.203 2.016-20.812 2.016h-3.516v-27.235h4.406zm66.739-4.078v16.266h6.75v3.656h-6.75v22.172h-4.453v-42.094h4.453zm-11.297 4.032v3.609h-15.187v20.297c7.054-.024 12.351-.328 18.328-1.406l.562 3.75c-6.562 1.172-12.14 1.406-19.968 1.359h-3.375v-27.609h19.64zm24.364 34.312c-1.828 0-3.375-1.5-3.328-3.328-.047-1.828 1.5-3.328 3.328-3.328 1.781 0 3.328 1.5 3.328 3.328 0 1.828-1.547 3.328-3.328 3.328zM153.94 181.922c0 10.336 5.273 21.375 16.031 25.875l-4.852 7.031c-7.558-3.199-12.761-9.562-15.609-17.367-2.918 8.473-8.227 15.504-15.75 18.984l-5.133-7.101c10.617-4.711 16.102-16.594 16.102-27.422v-3.938h-13.571v-7.312h36.141v7.312H153.94v3.938zm28.758-17.438v63.985h-9.071v-63.985h9.071zm59.537 2.883v5.133c0 4.992 0 10.547-1.476 17.859h8.437v7.243h-58.57v-7.243h41.062c1.407-6.398 1.582-11.355 1.618-15.82h-35.508v-7.172h44.437zm-.211 36.985v23.414h-44.437v-23.414h44.437zm-35.648 7.031v9.211h26.719v-9.211h-26.719zm116.615-46.899v40.149h-8.508v-17.016h-5.133v14.906h-8.367V165.68h8.367v14.625h5.133v-15.821h8.508zm-23.907 6.61v6.961h-31.429v-6.961h11.32v-6.047h8.93v6.047h11.179zm-15.609 9.07c8.156 0 13.922 4.5 13.992 11.18-.07 6.609-5.836 11.109-13.992 11.109-8.016 0-13.852-4.5-13.852-11.109 0-6.68 5.836-11.18 13.852-11.18zm0 6.469c-3.516 0-5.836 1.758-5.836 4.711 0 2.953 2.32 4.781 5.836 4.711 3.516.07 5.836-1.758 5.906-4.711-.07-2.953-2.39-4.711-5.906-4.711zm17.648 18.562c13.852 0 22.149 4.219 22.219 11.672-.07 7.383-8.367 11.602-22.219 11.602-13.781 0-22.148-4.219-22.148-11.602 0-7.453 8.367-11.672 22.148-11.672zm0 6.75c-8.648 0-13.218 1.547-13.148 4.922-.07 3.235 4.5 4.852 13.148 4.852 8.719 0 13.149-1.617 13.149-4.852 0-3.375-4.43-4.922-13.149-4.922zm86.749-15.75v7.243h-58.359v-7.243h24.609v-5.414h-17.156v-24.75h8.859v5.836h25.664v-5.836h8.93v24.75h-17.297v5.414h24.75zm-7.101 11.602v20.672h-8.93v-13.571h-35.859v-7.101h44.789zm-34.946-24.047h25.664v-5.273h-25.664v5.273zm95.679-19.266v25.032h9.422v7.382h-9.422v31.571h-8.86v-63.985h8.86zm-13.219 9.563v7.172h-37.617v-7.172h14.484v-8.578h9v8.578h14.133zm-18.633 10.758c9.352 0 16.313 6.328 16.313 15.257 0 8.93-6.961 15.258-16.313 15.258-9.422 0-16.383-6.328-16.383-15.258 0-8.929 6.961-15.257 16.383-15.257zm0 7.242c-4.5.07-7.804 3.094-7.804 8.015 0 4.993 3.304 7.946 7.804 7.876 4.5.07 7.735-2.883 7.735-7.876 0-4.921-3.235-7.945-7.735-8.015zm66.499-10.125c-.07 9.773 5.133 21.023 15.68 25.875l-4.993 7.031c-7.136-3.269-12.234-9.808-15.046-17.508-2.883 8.473-8.122 15.645-15.539 19.125l-5.204-7.101c10.688-4.992 16.032-16.875 16.102-27.422v-3.938h-13.57v-7.312h35.437v7.312h-12.867v3.938zm26.859-17.438v24.399h9.422v7.523h-9.422v32.063h-9v-63.985h9zm24.523 52.313-6.047 20.039h-7.453l3.515-20.039h9.985zm70.489-52.313v23.766h9.422v7.312h-9.422v33.047h-9v-64.125h9zm-17.93 5.907v7.242h-21.093v28.055c9.281-.106 16.945-.528 25.453-2.04l.984 7.524c-9.914 1.687-18.633 1.969-29.953 1.898h-5.414v-42.679h30.023zm79.718-5.907v15.75h8.648v7.524h-8.648v15.328h-9v-38.602h9zm0 41.414v21.868h-41.836v-21.868h41.836zm-32.977 7.032v7.664h24.118v-7.664h-24.118zm20.18-42.68v7.102h-37.969v-7.102h14.555v-6.117h8.93v6.117h14.484zm-18.984 9.07c9.281 0 15.75 4.711 15.75 11.461 0 6.961-6.469 11.602-15.75 11.602-9.422 0-15.891-4.641-15.891-11.602 0-6.75 6.469-11.461 15.891-11.461zm0 6.75c-4.289 0-7.172 1.688-7.102 4.711-.07 3.235 2.813 4.992 7.102 4.992s7.242-1.757 7.242-4.992c0-3.023-2.953-4.711-7.242-4.711zm58.272-14.273c-.07 15.961-1.617 30.305-9.773 42.961l-6.961-3.656c6.574-9.95 8.543-19.653 9-32.063h-6.891v-7.242h14.625zm14.344 0c-.035 5.625-.141 11.215-.633 16.664h5.484v-22.57h8.438v59.765h-8.438v-29.953h-6.398c-1.371 7.84-3.797 15.363-8.227 22.289l-6.82-3.797c7.137-10.898 8.613-22.183 8.93-35.156h-4.852v-7.242h12.516zm25.875-7.313v63.985h-8.578v-63.985h8.578zm76.396 0v40.149h-8.508v-17.016h-5.133v14.906h-8.367V165.68h8.367v14.625h5.133v-15.821h8.508zm-23.907 6.61v6.961H747.58v-6.961h11.32v-6.047h8.93v6.047h11.179zm-15.609 9.07c8.156 0 13.922 4.5 13.992 11.18-.07 6.609-5.836 11.109-13.992 11.109-8.016 0-13.852-4.5-13.852-11.109 0-6.68 5.836-11.18 13.852-11.18zm0 6.469c-3.516 0-5.836 1.758-5.836 4.711 0 2.953 2.32 4.781 5.836 4.711 3.516.07 5.836-1.758 5.906-4.711-.07-2.953-2.39-4.711-5.906-4.711zm17.648 18.562c13.852 0 22.149 4.219 22.219 11.672-.07 7.383-8.367 11.602-22.219 11.602-13.781 0-22.148-4.219-22.148-11.602 0-7.453 8.367-11.672 22.148-11.672zm0 6.75c-8.648 0-13.218 1.547-13.148 4.922-.07 3.235 4.5 4.852 13.148 4.852 8.719 0 13.149-1.617 13.149-4.852 0-3.375-4.43-4.922-13.149-4.922zm86.749-15.75v7.243h-58.359v-7.243h24.609v-5.414h-17.156v-24.75h8.859v5.836h25.664v-5.836h8.93v24.75h-17.297v5.414h24.75zm-7.101 11.602v20.672h-8.93v-13.571h-35.859v-7.101h44.789zM825.75 183.75h25.664v-5.273H825.75v5.273zm95.679-19.266v25.032h9.422v7.382h-9.422v31.571h-8.86v-63.985h8.86zm-13.219 9.563v7.172h-37.617v-7.172h14.484v-8.578h9v8.578h14.133zm-18.633 10.758c9.352 0 16.313 6.328 16.313 15.257 0 8.93-6.961 15.258-16.313 15.258-9.422 0-16.383-6.328-16.383-15.258 0-8.929 6.961-15.257 16.383-15.257zm0 7.242c-4.5.07-7.804 3.094-7.804 8.015 0 4.993 3.304 7.946 7.804 7.876 4.5.07 7.735-2.883 7.735-7.876 0-4.921-3.235-7.945-7.735-8.015zm66.499-10.125c-.07 9.773 5.133 21.023 15.68 25.875l-4.993 7.031c-7.136-3.269-12.234-9.808-15.046-17.508-2.883 8.473-8.122 15.645-15.54 19.125l-5.203-7.101c10.688-4.992 16.032-16.875 16.102-27.422v-3.938h-13.57v-7.312h35.437v7.312h-12.867v3.938zm26.859-17.438v24.399h9.422v7.523h-9.422v32.063h-9v-63.985h9z" fill="#fff"/>
    </g>
    <ellipse cx="533.467" cy="812.273" rx="359.702" ry="31.273" fill="#474B75" style="mix-blend-mode:darken" opacity=".35"/>
    <path d="m714.937 664.763 15.639 7.819h23.459l34.406 7.818L799 691.5l44.178-7.973 3.128 15.636 6.256 1.564 10.947-3.127 6.256-1.564 3.128-3.127 12.511 1.563 20.331-4.69 12.511-10.946 3.128-4.691 15.64-3.127 10.947-9.382 4.692-20.327-3.128-12.509-10.948-12.509-3.127-21.891-15.64-34.4-23.458-21.891-25.023-14.073-23.459-4.691-25.023-4.691h-35.97l-32.842 12.509-23.459 23.455-23.459 32.836 4.692 71.928 3.128 9.381z" fill="#fff"/>
    <path d="m755.598 676.328-10.948 14.073 12.512 14.073 34.406-1.564 9.384-7.818-4.692-10.946-12.512-6.254-28.15-1.564zM297.371 797.674v-6.255l18.767-4.69 4.692 3.127 4.692 6.254-3.128 4.691-6.256 3.128-14.075-1.564-4.692-4.691z" fill="#fff"/>
    <path d="M322.615 737.631s-75.998-.737-80.832-1.078c-.665 5.983 1.6 41.091-5.103 52.393 4.079 3.072 25.051 5.857 25.051 5.857s9.686-34.372 10.243-38.989c0 0 16.946 2.318 17.36 1.365l-.414.953 7.045 36.94s9.219-4.725 24.566-5.947c-1.456-6.989-2.391-18.668-1.276-26.43 1.096-7.762 3.378-25.046 3.378-25.046l-.018-.018z" fill="#8EBDE2"/>
    <path d="M838.966 800.998s-1.528 8.786-16.444 8.481c-4.708-.306-14.538-1.653-10.279-11.445 2.498.125 8.698-1.653 11.843 0 3.145 1.653 7.296 7.366 14.466 2.461" fill="#F6B8BF"/>
    <path d="m811.9 774.221-1.564-10.946h25.023l4.691 32.837v4.691l-9.383 1.563-6.256-4.691-7.819-1.563-4.692-21.891z" fill="#fff"/>
    <path d="M810.645 756.457c.071 19.243 5.408 38.235 5.408 38.235" stroke="#7C6656" stroke-width="4" stroke-linecap="round" stroke-linejoin="round"/>
    <path d="M814.347 796.202c-1.653 1.078-3.288 2.713-3.396 4.887-.252 4.51 1.851 10.062 13.675 8.948 11.825-1.114 17.576-6.163 15.311-17.95-1.887-9.846-4.295-30.023-5.067-36.851" stroke="#7C6656" stroke-width="4" stroke-linecap="round" stroke-linejoin="round"/>
    <path d="M814.347 798.25s9.812-3.253 13.873 2.928c0 0 7.961 2.534 10.333-2.659" stroke="#7C6656" stroke-width="4" stroke-linecap="round" stroke-linejoin="round"/>
    <path d="M842.974 682.383s-20.522.934-24.206.413c-1.851 2.012-12.598 11.122-13.029 11.104-.431-.018 8.482.862 8.482.862l3.846 17.321s-16.695 4.06-22.266-.629c-5.571-4.69-14.772-17.087-15.814-20.465-1.258-.054-10.045-2.48-10.045-2.48l4.959-4.635-5.517 23.501s-7.367 31.317-7.457 41.181c-.09 9.864 2.929 13.26 33.102 14.626 30.172 1.383 68.27 2.192 60.075-12.146-5.553-7.529-5.337-13.458-6.002-17.177-.665-3.719-6.11-51.458-6.11-51.458l-.018-.018z" fill="#FFADBE"/>
    <path d="m757.162 705.419-4.691-20.327 21.895 6.254-6.256 20.328-10.948-6.255zM779.058 794.547l-3.128-32.836 25.022 1.564 1.564 21.89-3.128 12.51-9.383 3.127-9.384-4.691-1.563-1.564z" fill="#fff"/>
    <path d="M814.903 631.711s-17.593.341-26.058-3.27c-4.259-1.276-8.248 26.538 8.734 26.987 13.155.341 18.761-16.225 17.324-23.699v-.018z" fill="#F299A0"/>
    <path d="M739.157 671.939s-13.029 2.121-23.991-10.187c-11.699-13.134-5.714-25.424-5.714-25.424s-13.622-5.246-13.406-24.759c.197-17.446 18.473-26.196 18.473-26.196s6.542-32.359 36.121-54.855c39.554-30.095 95.424-11.499 95.424-11.499s56.5.252 81.982 59.041c6.505 10.17 11.178 39.133 11.178 39.133s24.332 17.446 7.08 45.134c-9.578 15.362-27.261 11.158-27.261 11.158s2.606 12.918-19.067 19.512c-14.808 4.51-26.614-1.617-26.614-1.617s-7.243 12.991-26.381 6.72" stroke="#7C6656" stroke-width="4" stroke-linecap="round" stroke-linejoin="round"/>
    <g filter="url(#tvww258h7c)">
        <ellipse cx="15.639" cy="8.216" rx="15.639" ry="8.216" transform="rotate(3.999 -8409.42 10949.933) skewX(-.001)" fill="#F5B0B0"/>
    </g>
    <g filter="url(#fxnps8otbd)">
        <ellipse cx="15.639" cy="8.216" rx="15.639" ry="8.216" transform="rotate(3.999 -8523.113 12187.199) skewX(-.001)" fill="#F5B0B0"/>
    </g>
    <path d="M764.155 603.552c-.306 5.031 3.54 9.379 8.572 9.685 5.031.305 9.38-3.54 9.686-8.571.305-5.031-3.54-9.379-8.572-9.684-5.032-.306-9.381 3.539-9.686 8.57z" fill="#7C6656"/>
    <path d="M785.145 626.658s15.167 7.924 29.777 5.049" stroke="#7C6656" stroke-width="4" stroke-linecap="round" stroke-linejoin="round"/>
    <path d="M786.636 628.758s-10.279 23.16 8.374 26.448c19.409 3.414 19.912-23.502 19.912-23.502M844.429 606.105l-16.425 5.481 14.862 4.132M882.366 669.336a32.168 32.168 0 0 1-5.14 3.521c-16.982 9.343-45.483 12.074-61.028 9.595M741.367 583.396c-.521 1.725-1.437 3.594-1.743 4.223-2.462 4.492-14.628 17.859-13.927 37.246.701 19.387 15.113 40.714 47.227 52.932 0 0 14.718 4.6 30.568 4.6M764.801 554.361s-10.549 17.087-4.978 32.342M818.658 561.213s-9.002 22.046-.431 37.354M871.366 580.109s-4.942 21.184 5.176 38.001M889.086 616.635s-6.289 28.945 3.755 38.773" stroke="#7C6656" stroke-width="4" stroke-linecap="round" stroke-linejoin="round"/>
    <path d="M765.231 710.213c-17.054-4.186-23.973-25.424-23.973-25.424s-17.97-4.384-10.243-21.794c6.362-14.356 23.128-10.529 27.639-4.959 4.511 5.57 6.254 15.146.791 21.668" fill="#fff"/>
    <path d="M796.878 799.956s-6.901.755-12.292-4.15c-2.318-.665-12.633.431-12.633.431s-3.181 11.805 10.728 11.302c13.892-.504 14.197-7.583 14.197-7.583z" fill="#F6B8BF"/>
    <path d="M776.41 763.502c2.21 17.752 1.473 28.694 1.473 28.694" stroke="#7C6656" stroke-width="4" stroke-linecap="round" stroke-linejoin="round"/>
    <path d="M775.853 793.08c-1.958.952-4.367 2.641-4.654 5.246-.485 4.492 1.348 10.152 13.208 9.631 11.861-.521 15.06-5.516 17.072-17.339 1.24-7.259.072-19.512-.359-26.376" stroke="#7C6656" stroke-width="4" stroke-linecap="round" stroke-linejoin="round"/>
    <path d="M842.974 682.383s5.391 43.427 6.487 56.453c.683 8.085 13.065 16.746 2.84 21.417-10.225 4.672-85.109 4.636-89.134-2.336-5.733-9.954 9.65-62.167 11.698-74.061" stroke="#7C6656" stroke-width="4" stroke-linecap="round" stroke-linejoin="round"/>
    <path d="M828.597 706.527c-32.814 22.226-54.001-10.726-54.001-10.726s-18.474.7-15.815-18.165c2.193-15.542 19.355-16.458 25.231-12.326 5.877 4.132 10.154 12.847 6.685 20.627 0 0 3.289 9.953 23.811 2.605" fill="#fff"/>
    <path d="M828.904 705.88s-6.344 4.06-8.446 4.33c-2.319-3.198-11.52-20.501-11.52-20.501l6.883-1.545s.647 1.366 4.044 6.522c3.414 5.157 9.039 11.194 9.039 11.194z" fill="#FFADBE"/>
    <path d="M828.597 706.527c-32.814 22.226-54.001-10.726-54.001-10.726s-18.474.7-15.815-18.165c2.193-15.542 19.355-16.458 25.231-12.326 5.877 4.132 10.154 12.847 6.685 20.627 0 0 3.289 9.953 23.811 2.605M774.757 795.499s9.974-2.767 13.711 3.612c0 0 7.836 2.928 10.441-2.138M809.585 690.896l10.423 18.669" stroke="#7C6656" stroke-width="4" stroke-linecap="round" stroke-linejoin="round"/>
    <path d="M818.065 682.701s-3.594 9.289-18.258 8.085M767.603 711.417c-19.767-4.905-26.345-26.628-26.345-26.628s-17.97-4.384-10.243-21.794c6.362-14.356 23.128-10.529 27.639-4.959 2.138 2.659 3.666 6.217 4.079 9.918M289.748 756.227s4.115 37.336 7.458 41.792c3.342 4.456 13.172 6.127 20.037 5.372 6.865-.736 9.093-5.929 7.602-9.091-1.492-3.162-5.014-4.33-5.014-4.33" stroke="#7C6656" stroke-width="4" stroke-linecap="round" stroke-linejoin="round"/>
    <path d="m361.492 563.131-6.256 31.273 6.256 82.873-3.128 34.4h20.331l6.256-14.073 7.819 9.382 9.384 6.254 1.564 12.509 67.248 1.564 1.564-6.255c31.279 3.753 68.292-.521 82.888-3.127-10.009-22.516-13.554-61.503-14.075-78.182v-37.527l-4.692-34.4-6.256-10.945-46.917-31.273-12.512-4.691-34.406-3.127-26.586 4.691-26.587 12.509-14.075 14.072-7.82 14.073zM411.538 786.73l-3.127-28.145 26.586-10.946 23.459 3.127 10.947 9.382 1.564 21.891v15.637l-4.691 6.254-14.076 3.127-7.819-3.127-1.564-7.818 4.692-6.255v-6.254l-4.692-21.891-7.82-1.564-1.564 34.4-1.564 6.255-4.691 3.127-4.692 1.564h-9.384l-6.255-1.564-3.128-6.254 3.128-6.255 3.127-3.127 1.564-1.564z" fill="#fff"/>
    <path d="M530.27 674.247s1.203 1.329 0 4.258" stroke="#7C6656" stroke-width="4" stroke-linecap="round" stroke-linejoin="round"/>
    <path d="M481.713 686.548c4.349 1.905 10.316 3.648 16.821 3.019 13.029-1.24 15.311-9.253 15.311-9.253-2.229-5.462 2.3-9.882 4.403-9.289 0 0 5.517-8.553 14.736-4.564 9.236 3.989 12.777 19.189 0 25.154 0 0-9.723 15.812-29.526 19.441-10.405 1.904-18.258.862-22.751-.216" fill="#fff"/>
    <path d="M474.65 682.596s10.873 8.211 23.883 6.971c13.029-1.24 15.311-9.253 15.311-9.253-2.228-5.462 2.301-9.882 4.403-9.289 0 0 5.517-8.553 14.736-4.564 9.237 3.989 12.777 19.189 0 25.154 0 0-9.722 15.812-29.526 19.441-16.856 3.072-27.028-1.563-27.028-1.563" stroke="#7C6656" stroke-width="4" stroke-linecap="round" stroke-linejoin="round"/>
    <path d="M492.206 689.305s-.467 14.482-8.284 22.154l8.284-22.154z" fill="#fff"/>
    <path d="M492.206 689.305s-.467 14.482-8.284 22.154M367.113 656.423s-9.094 21.075-7.602 55.195M383.251 684.129s-2.246 16.602 1.06 25.694" stroke="#7C6656" stroke-width="4" stroke-linecap="round" stroke-linejoin="round"/>
    <path d="M401.653 681.758s-24.207 24.238-30.928 46.913c0 0-10.926 7.277-3.773 16.799 5.157 6.864 18.671 9.2 23.2-1.473 2.246-5.3-.881-9.433-.881-9.433s6.883-13.098 12.723-19.207" fill="#fff"/>
    <path d="M401.653 681.758s-24.207 24.238-30.928 46.913c0 0-10.926 7.277-3.773 16.799 5.157 6.864 18.671 9.2 23.2-1.473 2.246-5.3-.881-9.433-.881-9.433s6.883-13.098 12.723-19.207" stroke="#7C6656" stroke-width="4" stroke-linecap="round" stroke-linejoin="round"/>
    <path d="M388.121 700.979s2.157 6.019 13.64 10.708M530.27 674.247s1.203 1.329 0 4.258M452.671 685.329l-17.144 11.41-14.988-13.063" stroke="#7C6656" stroke-width="4" stroke-linecap="round" stroke-linejoin="round"/>
    <g filter="url(#c5uvmaswce)">
        <ellipse cx="15.639" cy="8.216" rx="15.639" ry="8.216" transform="rotate(-3.999 9203.457 -5116.262) skewX(.001)" fill="#F5B0B0"/>
    </g>
    <g filter="url(#pzrwz2yfpf)">
        <ellipse cx="15.639" cy="8.216" rx="15.639" ry="8.216" transform="rotate(-3.999 9244.118 -6280.882) skewX(.001)" fill="#F5B0B0"/>
    </g>
    <path d="M457.738 615.947a8.635 8.635 0 0 0 8.644 8.643 8.635 8.635 0 0 0 8.644-8.643 8.635 8.635 0 0 0-8.644-8.642 8.635 8.635 0 0 0-8.644 8.642zM398.473 615.947a8.635 8.635 0 0 0 8.644 8.643 8.635 8.635 0 0 0 8.643-8.643 8.634 8.634 0 0 0-8.643-8.642 8.635 8.635 0 0 0-8.644 8.642z" fill="#7C6656"/>
    <path d="M414.771 640.987s7.44 9.109 20.828 9.109c13.389 0 20.361-9.109 20.361-9.109M437.163 547.006s-12.615 27.329-3.145 47.488M429.023 552.645s-28.322 7.421-29.832 38.756M523.243 607.305c2.965 30.544-4.996 48.602-16.426 58.088-18.779 15.596-43.201 17.483-63.274 18.543M430.946 683.948c-50.929-.809-67.048-25.747-70.481-43.751-3.432-18.021 3.577-32.251 5.23-36.797-.09-3.306.629-15.631 3.378-23.142" stroke="#7C6656" stroke-width="4" stroke-linecap="round" stroke-linejoin="round"/>
    <path d="M485.342 525.045s-34.054-15.793-74.686-2.497c-40.631 13.296-54.81 40.48-54.505 71.169M516.828 544.598s28.268 9.074 24.494 71.187c-3.289 54.243 9.992 91.633 15.041 101.982M500.024 681.002s-.144 22.909 8.841 40.625M465.234 566.442s4.547 38.324 59.465 40.57" stroke="#7C6656" stroke-width="4" stroke-linecap="round" stroke-linejoin="round"/>
    <path d="M481.711 686.559c4.349 1.905 10.315 3.648 16.821 3.019 13.028-1.24 15.311-9.253 15.311-9.253-2.229-5.462 1.581-12.236 3.683-11.643 0 0 6.236-6.199 15.473-2.21 9.237 3.989 12.777 19.189 0 25.154 0 0-9.722 15.811-29.526 19.441-10.405 1.904-18.258.862-22.75-.216" fill="#fff"/>
    <path d="M474.65 682.598s10.873 8.212 23.883 6.972c13.029-1.24 15.311-9.253 15.311-9.253-2.839-10.745 10.477-19.154 20.253-14.464 9.075 4.348 12.274 20.519-1.096 25.765 0 0-9.722 15.811-29.526 19.441-16.856 3.072-27.028-1.563-27.028-1.563" stroke="#7C6656" stroke-width="4" stroke-linecap="round" stroke-linejoin="round"/>
    <path d="M492.206 689.305s-.467 14.482-8.284 22.154l8.284-22.154z" fill="#fff"/>
    <path d="M492.206 689.305s-.467 14.482-8.284 22.154" stroke="#7C6656" stroke-width="4" stroke-linecap="round" stroke-linejoin="round"/>
    <path d="M504.267 535.967s-7.35-15.613-19.912-15.919c-12.561-.305-13.172 14.087-3.684 21.435 0 0-16.353-3.791-14.089 9.792 2.444 14.698 20.523 11.643 20.523 11.643s-3.684 13.781 10.728 20.824c14.395 7.044 14.7-12.864 14.7-12.864s7.045 11.643 14.089 4.6c7.045-7.044 4.708-18.381-4.636-20.699 0 0 11.07-5.031 2.857-17.859-6.146-9.613-18.132-12.901-20.576-.953z" fill="#F5B1B1" stroke="#7C6656" stroke-width="4" stroke-linecap="round" stroke-linejoin="round"/>
    <path d="M513.827 561.336c-3.594 3.917-10.765 3.216-15.994-1.581-5.23-4.797-6.559-11.876-2.947-15.811 3.594-3.917 10.764-3.216 15.994 1.581 5.229 4.797 6.559 11.876 2.947 15.811z" fill="#fff"/>
    <path d="M408.121 748.897c.288 5.983.647 11.265 1.132 14.931 1.905 14.805 1.384 24.812 1.384 24.812M403.789 699.422s.036 28.892 1.006 49.464" stroke="#7C6656" stroke-width="4" stroke-linecap="round" stroke-linejoin="round"/>
    <path d="M434.161 757.957s1.15 38.63-3.882 43.894c-5.032 5.265-19.875 5.193-23.829 1.294-3.953-3.881-2.606-12.757 3.45-14.176" stroke="#7C6656" stroke-width="4" stroke-linecap="round" stroke-linejoin="round"/>
    <path d="M431.88 797.139s-13.046 7.169-27.603.916M440.684 751.025c1.042 5.894 2.084 11.086 3.019 14.662 3.773 14.445 4.528 24.435 4.528 24.435" stroke="#7C6656" stroke-width="4" stroke-linecap="round" stroke-linejoin="round"/>
    <path d="M467.657 756.682s6.074 38.18 1.761 44.038c-4.313 5.857-19.049 7.672-23.47 4.33-4.42-3.342-4.223-12.326 1.618-14.5" stroke="#7C6656" stroke-width="4" stroke-linecap="round" stroke-linejoin="round"/>
    <path d="M470.388 795.851s-12.04 8.786-27.261 4.42" stroke="#7C6656" stroke-width="4" stroke-linecap="round" stroke-linejoin="round"/>
    <path d="m471.647 727.517-67.426-1.06s-7.098 15.255-8.877 33.905l60.129.251h22.967s-2.804-20.159-6.793-33.114v.018z" fill="#F3A2AD" stroke="#7C6656" stroke-width="4" stroke-linecap="round" stroke-linejoin="round"/>
    <path d="m471.648 727.517 3.001-29.341" stroke="#7C6656" stroke-width="4" stroke-linecap="round" stroke-linejoin="round"/>
    <path d="M312.103 679.421c3.378 3.018 16.623 50.039 16.784 57.136-8.086 2.318-17.126 2.443-17.126 2.443l-70.516-3.845.593-25.567-14.197 25.388s3.846 5.803-1.024 13.224c-4.871 7.438-16.551 5.534-22.554-2.695-6.002-8.229 4.17-15.668 4.17-15.668s13.783-36.492 32.688-54.064" fill="#fff"/>
    <path d="m330.212 677.277-34.406 3.127-3.128 25.019h23.459l18.767-6.255 3.127-4.691 3.128-12.509-10.947-4.691z" fill="#fff"/>
    <path d="M241.444 675.791c-10.855-2.425-31.952-9.594-42.339-27.562-10.387-17.949-6.517-36.622-6.517-36.622s-10.497-24.721-4.692-51.6c5.804-26.879 38.344-42.005 52.739-43.352 6.883-3.235 36.139-12.631 55.26-7.906 19.12 4.743 51.611 12.272 67.264 38.145 9.811 19.548 5.247 32.269 5.247 32.269s-4.493 7.456-8.482 8.786c-1.42 6.396-1.636 8.732-1.636 8.732s14.413 21.884 5.625 49.033c-4.259 15.704-24.332 26.43-51.306 33.707 0 0-42.41 1.958-71.163-3.63zM238.082 790.113s-5.571 1.923-6.325 6.379c-.737 4.456-.27 8.696 11.609 8.696 10.063 0 14.736-4.168 18.348-10.367" fill="#fff"/>
    <path d="M238.082 790.113s-5.571 1.923-6.325 6.379c-.737 4.456-.27 8.696 11.609 8.696 10.063 0 14.736-4.168 18.348-10.367M320.514 789.129c-4.887-18.92-.126-27.364 2.102-51.494M236.662 678.504s-22.41 28.424-28.43 51.35c0 0-10.98 7.726-3.198 16.944 5.606 6.648 19.677 8.444 23.918-2.408 2.103-5.39-1.293-9.397-1.293-9.397s8.122-16.692 13.909-23.016" stroke="#7C6656" stroke-width="4" stroke-linecap="round" stroke-linejoin="round"/>
    <path d="M242.142 698.178s-1.24 45.475-1.312 62.328c-.072 16.854-4.564 29.916-4.564 29.916s19.911.287 25.859 4.402c1.384-3.108 1.851-4.977 2.444-7.816 2.444-11.75 7.368-31.173 7.368-31.173s20.595 1.671 25.231-.934M322.005 791.122s-14.52-2.857-24.817 4.69M224.93 696.976s4.205 7.133 16.263 11.356M303.083 681.16c-1.079 3.594-5.122 9.864-17.45 11.463-10.639 1.384-20.235-3.755-24.871-10.547M354.264 575.517c2.03 5.642 1.276 13.44 1.419 16.423 2.103 4.653 13.209 18.937 11.016 38.198-2.192 19.279-17.395 36.833-50.353 46.536 0 0-19.427 4.635-26.471 4.527" stroke="#7C6656" stroke-width="4" stroke-linecap="round" stroke-linejoin="round"/>
    <path d="M276.504 681.432c-22.427 1.564-47.352-3.144-64.029-15.703-13.837-10.439-20.091-23.663-19.139-54.675" stroke="#7C6656" stroke-width="4" stroke-linecap="round" stroke-linejoin="round"/>
    <g filter="url(#g9pxab9lcg)">
        <ellipse cx="15.639" cy="8.216" rx="15.639" ry="8.216" transform="rotate(-3.999 9078.562 -2842.456) skewX(.001)" fill="#F5B0B0"/>
    </g>
    <g filter="url(#10es6k0o3h)">
        <ellipse cx="15.639" cy="8.216" rx="15.639" ry="8.216" transform="rotate(-3.999 9037.865 -4225.075) skewX(.001)" fill="#F5B0B0"/>
    </g>
    <path d="M308.474 634.539s-7.135 10.205-21.224 11.265c-14.089 1.061-22.193-7.995-22.193-7.995M191.791 611.164c-28.969-77.331 41.044-91.418 41.044-91.418 46.041-29.035 102.595 1.851 102.595 1.851s41.296 21.291 27.297 58.825" stroke="#7C6656" stroke-width="4" stroke-linecap="round" stroke-linejoin="round"/>
    <path d="M241.083 542.705s-1.545 25.55 40.398 36.06M233.177 558.289s-22.284 16.063-25.447 40.678M325.06 576.003s-29.238-6.001-41.189-30.976" stroke="#7C6656" stroke-width="4" stroke-linecap="round" stroke-linejoin="round"/>
    <path d="M269.354 526.468s-11.663 5.713-10.171 14.985c1.15 7.115 4.941 9.953 17.341 15.2 12.4 5.246 33.497-7.654 43.507-23.124-9.363-7.69-26.111-22.441-50.677-7.061z" fill="#1BAE91"/>
    <path d="M263.403 548.966s27.945 28.64 57.057-16.081c0 0-27.657-27.939-59.698-.161" stroke="#7C6656" stroke-width="4" stroke-linecap="round" stroke-linejoin="round"/>
    <path d="M291.259 538.201c.054.395-24.44 10.457-39.571-2.785" stroke="#7C6656" stroke-width="4" stroke-linecap="round" stroke-linejoin="round"/>
    <path d="M326.984 678.338c17.612-2.408 21.367-17.015 21.367-17.015-5.984-7.439-5.283-13.907 2.301-20.142 8.662-7.025 21.403-2.443 24.907 8.517 3.522 10.96-7.709 17.159-7.709 17.159-8.303 22.045-26.417 31.245-38.476 35.036l-2.39-23.573v.018z" fill="#fff"/>
    <path d="M324.684 703.187c11.483-2.75 33.694-11.194 43.165-36.33 0 0 11.232-6.199 7.709-17.159-3.522-10.96-16.263-15.542-24.907-8.517-7.584 6.235-8.302 12.721-2.3 20.142 0 0-5.014 19.422-30.46 17.158M326.859 679.68l2.031 20.59M260.746 612.226s-8.159-9.558-17.324 1.312M306.426 608.775s6.631-10.691 17.323-1.312M316.615 691.775s10.297 24.652 11.555 44.937c0 0-58.045 5.21-86.385-.18" stroke="#7C6656" stroke-width="4" stroke-linecap="round" stroke-linejoin="round"/>
    <path d="M559.776 534.816s-30.137 15.272-21.601 49.931c3.576 18.579 13.011 29.844 13.011 29.844s-1.276 28.442 10.063 42.493c11.358 14.05 28.286 20.555 37.559 22.729 14.376 3.036 63.724 11.103 90.482-2.3 15.904-9.451 40.416-20.896 37.415-50.524.197-13.673-8.087-26.592-8.087-26.592s-3.001-15.093.521-16.242c3.522-1.15 10.261-10.17 10.405-20.771.144-10.6 3.271-39.869-44.423-56.777-33.947-11.481-58.62-13.493-90.68 1.725-20.253 7.565-21.726 25.424-21.726 25.424s-5.823-2.982-12.939 1.06z" fill="#fff"/>
    <path d="m603.898 674.149-12.511 15.636v25.019l4.691 1.563 3.128-3.127 1.564 29.709 79.76 1.564 7.82-1.564 4.692-6.255 1.563-3.127-1.563-6.254-4.692-6.255 6.255-12.509 1.564-6.255-3.127-4.69-17.204-14.073v-12.509l-71.94 3.127zM655.509 802.368l-3.128-12.509 18.767-9.382 6.256 10.945 6.255 6.255-1.564 4.691-10.947 4.691-9.384-1.564-6.255-3.127zM588.262 796.11l6.255-6.255 17.204-4.691 7.819 10.946-9.383 9.382-7.82 1.563-7.82-1.563-6.255-4.691v-4.691z" fill="#fff"/>
    <path d="M678.778 738.838h-79.645s.323 35.072-5.625 53.579c8.5 7.007 24.584 5.12 24.584 5.12s11.411-38.504 11.609-39.438c.197-.934 17.88-.808 17.934-.665.773 6.54 4.098 32.144 6.56 41.469 6.217 1.33 27.998-5.75 26.488-5.57-1.509.18-7.529-15.649-3.486-28.784 2.911-13.313 4.6-26.07 1.599-25.693l-.018-.018z" fill="#B2ABA4"/>
    <g filter="url(#ckwc90co3i)">
        <ellipse cx="15.639" cy="8.216" rx="15.639" ry="8.216" transform="rotate(-5.999 6299.837 -5272.463) skewX(.002)" fill="#F5B0B0"/>
    </g>
    <g filter="url(#c3yiuys5nj)">
        <ellipse cx="15.639" cy="8.216" rx="15.639" ry="8.216" transform="rotate(-5.999 6291.317 -6082.45) skewX(.002)" fill="#F5B0B0"/>
    </g>
    <path d="M611.441 622.766a9.146 9.146 0 1 0 0-18.291 9.146 9.146 0 1 0 0 18.291zM683.127 608.93c.323 5.031-3.487 9.397-8.519 9.721-5.031.323-9.398-3.486-9.722-8.517-.323-5.031 3.487-9.397 8.518-9.72 5.032-.323 9.399 3.486 9.723 8.516z" fill="#7C6656"/>
    <path d="M554.672 582.016c-8.697 44.775-.125 72.624 14.79 84.087 15.365 11.805 40.398 17.77 56.14 17.68l13.568.269M716.407 575.713c1.456 7.313 1.977 15.165 1.761 23.501 1.743 4.816 11.376 21.615 7.746 40.661-3.631 19.045-29.598 38.701-54.344 43.409-5.804 1.114-11.824.772-19.677 1.024M600.065 699.508s-1.24 45.476-1.311 62.329c-.072 16.853-4.313 28.496-4.313 28.496" stroke="#7C6656" stroke-width="4" stroke-linecap="round" stroke-linejoin="round"/>
    <path d="M592.698 791.569s-2.929 1.743-4.026 4.546c-1.635 4.204.737 10.205 12.616 10.385 11.878.179 18.492-6.486 21.223-18.183a9902.072 9902.072 0 0 1 7.368-31.173s20.594 1.67 25.231-.935" stroke="#7C6656" stroke-width="4" stroke-linecap="round" stroke-linejoin="round"/>
    <path d="M647.653 757.559s4.116 38.863 7.458 43.319c3.343 4.456 11.951 6.288 18.815 5.552 6.865-.737 10.621-5.139 9.147-8.301-1.491-3.162-3.917-4.636-3.917-4.636M675.902 694.059s6.864 20.788 4.636 44.9c-2.228 24.113-6.971 34.085-2.102 53.022M677.807 739.267l-77.274-.503M618.074 797.534s-18.133 2.461-25.375-5.965" stroke="#7C6656" stroke-width="4" stroke-linecap="round" stroke-linejoin="round"/>
    <path d="M679.154 793.508s-12.974 8.031-24.997 5.372" stroke="#7C6656" stroke-width="4" stroke-linecap="round" stroke-linejoin="round"/>
    <path d="m637.824 696.36-2.606 29.502 8.338 7.942 8.321-7.942-2.606-29.502h-11.447z" fill="#82AEDD" stroke="#7C6656" stroke-width="4" stroke-linecap="round" stroke-linejoin="round"/>
    <path d="m636.224 685.854-1.006 9.612 6.505 3.755a3.705 3.705 0 0 0 3.666 0l6.506-3.755-1.007-9.612H636.224z" fill="#82AEDD" stroke="#7C6656" stroke-width="4" stroke-linecap="round" stroke-linejoin="round"/>
    <path d="M722.661 583.004c32.096-57.855-48.916-91.597-97.077-84.338-49.671 7.492-52.87 35.072-52.87 35.072s-20.45-5.732-32.383 22.351c-11.429 26.915 10.837 62.095 10.837 62.095" stroke="#7C6656" stroke-width="4" stroke-linecap="round" stroke-linejoin="round"/>
    <path d="M581.018 562.52s4.618 18.65-18.42 34.335M598.035 549.513s30.928-5.93 27.567 30.077M649.359 545.778s22.949 8.157 15.419 33.814M686.181 545.778s19.48 8.858 12.885 33.814M676.333 684.678s18.761 12.11 19.66 19.045c.88 6.936-11.07 19.603-11.07 19.603M688.086 721.692s12.13 7.24 3.432 18.021c-5.337 6.612-12.364 3.396-12.364 3.396" stroke="#7C6656" stroke-width="4" stroke-linecap="round" stroke-linejoin="round"/>
    <path d="M596.922 682.651s-24.206 24.238-30.927 46.912c0 0-10.926 7.277-3.774 16.8 5.158 6.863 18.672 9.199 23.2-1.473 2.246-5.301-.88-9.433-.88-9.433s6.882-13.099 12.723-19.207" fill="#fff"/>
    <path d="M596.922 682.651s-24.206 24.238-30.927 46.912c0 0-10.926 7.277-3.774 16.8 5.158 6.863 18.672 9.199 23.2-1.473 2.246-5.301-.88-9.433-.88-9.433s6.882-13.099 12.723-19.207" stroke="#7C6656" stroke-width="4" stroke-linecap="round" stroke-linejoin="round"/>
    <path d="M566.66 727.485s4.026 8.372 16.012 8.229" stroke="#7C6656" stroke-width="4" stroke-linecap="round" stroke-linejoin="round"/>
    <path d="m662.658 626.971-32.599 3.45s-3.217 33.257 20.433 30.095c18.563-2.479 14.862-17.321 12.166-33.545z" fill="#F299A0" stroke="#7C6656" stroke-width="4" stroke-linecap="round" stroke-linejoin="round"/>
    <defs>
        <filter id="w5p4gpw6ub" x="-626" y="551" width="2371" height="2384" filterUnits="userSpaceOnUse" color-interpolation-filters="sRGB">
            <feFlood flood-opacity="0" result="BackgroundImageFix"/>
            <feColorMatrix in="SourceAlpha" values="0 0 0 0 0 0 0 0 0 0 0 0 0 0 0 0 0 0 127 0" result="hardAlpha"/>
            <feOffset dy="4"/>
            <feGaussianBlur stdDeviation="30"/>
            <feComposite in2="hardAlpha" operator="out"/>
            <feColorMatrix values="0 0 0 0 0 0 0 0 0 0 0 0 0 0 0 0 0 0 0.6 0"/>
            <feBlend in2="BackgroundImageFix" result="effect1_dropShadow_1657_25535"/>
            <feBlend in="SourceGraphic" in2="effect1_dropShadow_1657_25535" result="shape"/>
        </filter>
        <filter id="tvww258h7c" x="736.508" y="608.064" width="43.466" height="28.781" filterUnits="userSpaceOnUse" color-interpolation-filters="sRGB">
            <feFlood flood-opacity="0" result="BackgroundImageFix"/>
            <feBlend in="SourceGraphic" in2="BackgroundImageFix" result="shape"/>
            <feGaussianBlur stdDeviation="3.061" result="effect1_foregroundBlur_1657_25535"/>
        </filter>
        <filter id="fxnps8otbd" x="822.523" y="619.008" width="43.466" height="28.781" filterUnits="userSpaceOnUse" color-interpolation-filters="sRGB">
            <feFlood flood-opacity="0" result="BackgroundImageFix"/>
            <feBlend in="SourceGraphic" in2="BackgroundImageFix" result="shape"/>
            <feGaussianBlur stdDeviation="3.061" result="effect1_foregroundBlur_1657_25535"/>
        </filter>
        <filter id="c5uvmaswce" x="373.679" y="622.141" width="43.467" height="28.781" filterUnits="userSpaceOnUse" color-interpolation-filters="sRGB">
            <feFlood flood-opacity="0" result="BackgroundImageFix"/>
            <feBlend in="SourceGraphic" in2="BackgroundImageFix" result="shape"/>
            <feGaussianBlur stdDeviation="3.061" result="effect1_foregroundBlur_1657_25535"/>
        </filter>
        <filter id="pzrwz2yfpf" x="455.004" y="622.141" width="43.467" height="28.781" filterUnits="userSpaceOnUse" color-interpolation-filters="sRGB">
            <feFlood flood-opacity="0" result="BackgroundImageFix"/>
            <feBlend in="SourceGraphic" in2="BackgroundImageFix" result="shape"/>
            <feGaussianBlur stdDeviation="3.061" result="effect1_foregroundBlur_1657_25535"/>
        </filter>
        <filter id="g9pxab9lcg" x="214.791" y="618.966" width="43.467" height="28.781" filterUnits="userSpaceOnUse" color-interpolation-filters="sRGB">
            <feFlood flood-opacity="0" result="BackgroundImageFix"/>
            <feBlend in="SourceGraphic" in2="BackgroundImageFix" result="shape"/>
            <feGaussianBlur stdDeviation="3.061" result="effect1_foregroundBlur_1657_25535"/>
        </filter>
        <filter id="10es6k0o3h" x="311.121" y="612.761" width="43.467" height="28.781" filterUnits="userSpaceOnUse" color-interpolation-filters="sRGB">
            <feFlood flood-opacity="0" result="BackgroundImageFix"/>
            <feBlend in="SourceGraphic" in2="BackgroundImageFix" result="shape"/>
            <feGaussianBlur stdDeviation="3.061" result="effect1_foregroundBlur_1657_25535"/>
        </filter>
        <filter id="ckwc90co3i" x="580.236" y="621.604" width="43.399" height="28.912" filterUnits="userSpaceOnUse" color-interpolation-filters="sRGB">
            <feFlood flood-opacity="0" result="BackgroundImageFix"/>
            <feBlend in="SourceGraphic" in2="BackgroundImageFix" result="shape"/>
            <feGaussianBlur stdDeviation="3.061" result="effect1_foregroundBlur_1657_25535"/>
        </filter>
        <filter id="c3yiuys5nj" x="664.841" y="616.278" width="43.398" height="28.912" filterUnits="userSpaceOnUse" color-interpolation-filters="sRGB">
            <feFlood flood-opacity="0" result="BackgroundImageFix"/>
            <feBlend in="SourceGraphic" in2="BackgroundImageFix" result="shape"/>
            <feGaussianBlur stdDeviation="3.061" result="effect1_foregroundBlur_1657_25535"/>
        </filter>
    </defs>
</svg>
