<svg width="533" height="450" viewBox="0 0 533 450" fill="none" xmlns="http://www.w3.org/2000/svg">
    <path opacity=".2" d="M32.361 30.472h464.472V1037.96H32.361V30.472z" fill="#494E8F"/>
    <rect opacity=".15" x="215.104" y="114.271" width="106.6" height="106.653" rx="22.843" fill="#494E8F"/>
    <rect opacity=".15" x="344.547" y="114.271" width="106.6" height="106.653" rx="22.843" fill="#494E8F"/>
    <path fill-rule="evenodd" clip-rule="evenodd" d="M529.29 371.181v596.308c0 35.301-3.673 48.101-10.571 61.001-6.898 12.9-17.02 23.03-29.918 29.93-12.898 6.9-25.692 10.58-60.972 10.58H105.171c-35.28 0-48.074-3.68-60.972-10.58-12.897-6.9-23.02-17.03-29.918-29.93-6.898-12.9-10.571-25.7-10.571-61.001V397.163A3.711 3.711 0 0 1 0 393.451V321.69a3.711 3.711 0 0 1 3.71-3.712v-18.559A3.711 3.711 0 0 1 0 295.707v-71.761a3.711 3.711 0 0 1 3.71-3.712v-33.406A3.711 3.711 0 0 1 0 183.116v-34.644a3.711 3.711 0 0 1 3.71-3.712v-43.249c0-35.298 3.673-48.097 10.571-61.002C21.18 27.605 31.301 17.478 44.2 10.576 57.097 3.676 69.891 0 105.171 0h322.658c35.28 0 48.074 3.675 60.972 10.576 12.898 6.902 23.02 17.03 29.918 29.933 6.898 12.905 10.571 25.704 10.571 61.002v144.705a3.711 3.711 0 0 1 3.71 3.712v117.541a3.711 3.711 0 0 1-3.71 3.712zM33.39 108.632c0-26.331 0-39.497 5.122-49.555a47.005 47.005 0 0 1 20.536-20.546c10.053-5.125 23.212-5.125 49.531-5.125h18.797c4.555.012 8.325 3.545 8.655 8.022.175 6.153 1.362 10.67 3.445 14.567 2.264 4.234 5.585 7.557 9.817 9.822 4.232 2.264 9.194 3.47 16.19 3.47h199.511c6.997 0 11.958-1.206 16.19-3.47 4.232-2.265 7.553-5.588 9.817-9.822 2.08-3.892 3.266-8.399 3.445-14.537.315-4.491 4.091-8.04 8.657-8.052h18.845c26.319 0 39.478 0 49.53 5.125a47 47 0 0 1 20.537 20.547c5.122 10.057 5.122 23.223 5.122 49.554v854.21c0 26.332 0 39.498-5.122 49.558a46.98 46.98 0 0 1-20.537 20.54c-10.052 5.13-23.211 5.13-49.53 5.13H108.579c-26.319 0-39.478 0-49.53-5.13a46.985 46.985 0 0 1-20.537-20.54c-5.122-10.06-5.122-23.226-5.122-49.558v-854.21z" fill="#494E8F"/>
    <path fill-rule="evenodd" clip-rule="evenodd" d="M322.768 51.965c4.781 0 8.657-3.877 8.657-8.66 0-4.784-3.876-8.661-8.657-8.661-4.781 0-8.657 3.877-8.657 8.66 0 4.784 3.876 8.661 8.657 8.661z" fill="#fff"/>
    <rect x="233.73" y="38.355" width="64.306" height="9.898" rx="4.947" fill="#fff"/>
    <g filter="url(#t90784m0za)">
        <rect x="78.047" y="106.652" width="121.829" height="121.889" rx="30.457" fill="url(#nkjyidls4b)"/>
        <path d="M113.985 190.26c-1.554-.537-4.966-.682-6.432.062-.697.356-1.471 1.342-1.471 1.342l-3.454 5.935a5.57 5.57 0 0 0 2.008 7.608 5.562 5.562 0 0 0 7.604-2.01l4.254-7.308s.981-1.596.975-2.696c-.01-1.575-1.61-2.293-3.484-2.939v.006zM148.253 178.314c-1.895-1.333-5.679-1.064-5.679-1.064h-15.233l23.844-40.998a5.562 5.562 0 1 0-9.612-5.599l-2.566 4.411-2.565-4.411a5.558 5.558 0 0 0-7.604-2.009 5.562 5.562 0 0 0-2.008 7.608l5.745 9.875-18.099 31.117H99.728a5.386 5.386 0 0 0-5.384 5.387 5.386 5.386 0 0 0 5.384 5.387h50.125s1.358-.119 1.719-1.141c.325-.93.444-1.927.088-3.357-.428-1.705-1.291-3.719-3.397-5.206h-.01z" fill="#fff"/>
        <path d="M178.199 177.25h-14.666l-16.514-28.391s-3.52 3.744-4.032 9.147c-.547 5.81 2.726 10.732 2.726 10.732l20.045 34.465a5.558 5.558 0 0 0 7.604 2.009 5.568 5.568 0 0 0 2.008-7.608l-5.575-9.581h8.399a5.386 5.386 0 0 0 5.384-5.387 5.386 5.386 0 0 0-5.384-5.386h.005z" fill="#fff"/>
    </g>
    <path d="M102.612 263.777h-2.611l-1.475-4.267h-6.294l-1.475 4.267h-2.603l5.805-16.154h2.848l5.805 16.154zm-7.296-13.204-2.374 6.878h4.875l-2.375-6.878h-.126zm8.924 17.747v-16.658h2.326v1.964h.198a5.78 5.78 0 0 1 .678-.986c.252-.3.61-.563 1.073-.789.468-.232 1.043-.347 1.727-.347.978 0 1.851.25 2.619.749.773.494 1.375 1.212 1.806 2.153.437.942.655 2.054.655 3.337 0 1.283-.216 2.398-.647 3.344-.431.942-1.031 1.665-1.798 2.17-.763.504-1.633.757-2.611.757-.673 0-1.244-.113-1.712-.339-.468-.227-.836-.489-1.104-.789a5.612 5.612 0 0 1-.686-.994h-.142v6.428h-2.382zm2.334-10.601c0 .847.124 1.594.371 2.24.247.642.607 1.142 1.081 1.499.473.352 1.041.529 1.703.529.679 0 1.257-.184 1.736-.553.478-.368.838-.872 1.08-1.514.247-.647.371-1.38.371-2.201 0-.815-.121-1.538-.363-2.169-.236-.631-.594-1.125-1.073-1.483-.478-.357-1.062-.536-1.751-.536-.673 0-1.246.173-1.719.521-.473.341-.831.828-1.073 1.459-.242.626-.363 1.362-.363 2.208zm10.888 10.601v-16.658h2.327v1.964h.198a5.78 5.78 0 0 1 .678-.986c.252-.3.61-.563 1.073-.789.468-.232 1.043-.347 1.727-.347.978 0 1.851.25 2.619.749.773.494 1.375 1.212 1.806 2.153.437.942.655 2.054.655 3.337 0 1.283-.216 2.398-.647 3.344-.431.942-1.031 1.665-1.798 2.17-.763.504-1.633.757-2.611.757-.673 0-1.244-.113-1.712-.339-.468-.227-.836-.489-1.104-.789a5.612 5.612 0 0 1-.686-.994h-.142v6.428h-2.383zm2.335-10.601c0 .847.124 1.594.371 2.24.247.642.607 1.142 1.081 1.499.473.352 1.041.529 1.703.529.679 0 1.257-.184 1.736-.553.478-.368.838-.872 1.08-1.514.247-.647.371-1.38.371-2.201 0-.815-.121-1.538-.363-2.169-.236-.631-.594-1.125-1.073-1.483-.478-.357-1.062-.536-1.751-.536-.673 0-1.246.173-1.719.521-.473.341-.831.828-1.073 1.459-.242.626-.363 1.362-.363 2.208zm25.229-5.844a2.306 2.306 0 0 0-.521-1.263c-.289-.352-.675-.62-1.159-.804-.479-.189-1.026-.284-1.641-.284-.647 0-1.215.103-1.704.308-.489.205-.867.489-1.135.851a2.014 2.014 0 0 0-.395 1.223c-.005.684.271 1.212.828 1.586.563.368 1.265.654 2.106.859l1.57.41c1.309.321 2.411.834 3.305 1.539.894.699 1.341 1.701 1.341 3.005 0 .92-.237 1.738-.71 2.453-.473.715-1.162 1.275-2.066 1.68-.9.405-1.97.607-3.211.607-1.199 0-2.243-.189-3.131-.568-.889-.384-1.586-.93-2.09-1.64-.5-.715-.776-1.559-.829-2.532h2.461c.048.562.234 1.038.56 1.427.326.39.75.681 1.27.876a5.15 5.15 0 0 0 1.751.284c.684 0 1.294-.108 1.83-.323.542-.221.965-.529 1.27-.923.31-.395.466-.85.466-1.365 0-.452-.129-.831-.387-1.136-.258-.305-.605-.555-1.041-.749a10.37 10.37 0 0 0-1.633-.56l-1.901-.513c-1.357-.368-2.398-.899-3.123-1.593-.726-.7-1.089-1.593-1.089-2.682 0-.915.25-1.725.749-2.429.5-.705 1.186-1.249 2.059-1.633.873-.389 1.851-.584 2.934-.584 1.078 0 2.041.192 2.887.576.847.384 1.512.915 1.996 1.593.484.679.736 1.446.757 2.304h-2.374zm9.457 9.954c.142 0 .476-.013 1.001-.04l.182-.007v2.05c-.389.069-.881.103-1.475.103a4.345 4.345 0 0 1-1.775-.355 2.986 2.986 0 0 1-1.286-1.089c-.32-.489-.481-1.085-.481-1.79v-7.139h-1.774v-1.9h1.774v-2.903h2.382v2.903h2.469v1.9h-2.469v6.65c0 .626.129 1.052.387 1.278.258.221.613.334 1.065.339zm8.097 2.193c-1.131 0-2.125-.258-2.982-.773-.852-.521-1.512-1.255-1.98-2.201-.468-.947-.702-2.038-.702-3.273 0-1.247.234-2.343.702-3.29.468-.946 1.128-1.68 1.98-2.2.857-.521 1.851-.781 2.982-.781 1.125 0 2.114.26 2.966.781.857.52 1.517 1.254 1.979 2.2.468.947.702 2.043.702 3.29 0 1.235-.234 2.326-.702 3.273-.462.946-1.122 1.68-1.979 2.201-.852.515-1.841.773-2.966.773zm.008-1.988c.704 0 1.299-.189 1.782-.568.489-.379.855-.891 1.097-1.538s.363-1.367.363-2.161-.121-1.515-.363-2.162c-.242-.646-.608-1.162-1.097-1.546-.483-.383-1.078-.575-1.782-.575-.71 0-1.312.192-1.807.575-.489.384-.857.9-1.104 1.546-.242.647-.363 1.368-.363 2.162 0 .794.121 1.514.363 2.161.247.647.615 1.159 1.104 1.538.495.379 1.097.568 1.807.568zm7.761 1.743v-12.115h2.303v1.932h.126c.148-.431.371-.805.671-1.12a3.084 3.084 0 0 1 1.073-.734 3.41 3.41 0 0 1 1.325-.26 9.666 9.666 0 0 1 1.017.055v2.272a5.675 5.675 0 0 0-.56-.095 5.214 5.214 0 0 0-.678-.047c-.547 0-1.041.118-1.483.355a2.604 2.604 0 0 0-1.041.97 2.698 2.698 0 0 0-.371 1.404v7.383h-2.382zm18.134-5.34h-8.621c.021.757.176 1.409.465 1.956.289.547.686.963 1.191 1.247.51.283 1.099.425 1.767.425.642 0 1.186-.12 1.633-.362.447-.248.778-.571.994-.971h2.413a4.032 4.032 0 0 1-.962 1.736c-.457.494-1.036.878-1.735 1.151-.7.269-1.486.403-2.359.403-1.178 0-2.203-.255-3.076-.765a5.145 5.145 0 0 1-2.003-2.178c-.463-.941-.694-2.035-.694-3.281 0-1.23.231-2.321.694-3.273.468-.952 1.125-1.693 1.972-2.225.846-.531 1.824-.796 2.934-.796.973 0 1.864.213 2.674.639.815.42 1.47 1.086 1.964 1.995.499.91.749 2.062.749 3.455v.844zm-2.343-1.783c0-.61-.126-1.156-.378-1.64a2.805 2.805 0 0 0-1.065-1.136c-.452-.279-.975-.418-1.57-.418-.615 0-1.164.145-1.648.434a3.18 3.18 0 0 0-1.136 1.167 3.645 3.645 0 0 0-.473 1.593h6.27z" fill="#494E8F"/>
    <ellipse opacity=".2" cx="178.935" cy="198.069" rx="22.843" ry="22.854" fill="#494E8F"/>
    <ellipse opacity=".8" cx="178.935" cy="198.069" rx="9.518" ry="9.523" fill="#494E8F"/>
    <path d="m227.97 213.996 7.35 11.293c3.167 4.866 1.775 11.393-3.109 14.575l-10.492 6.836a10.51 10.51 0 0 1-1.762.922 12.18 12.18 0 0 1-5.915.802c-2.588-.313-5.195-.9-7.773-1.349l-9.51-1.65c-1.66-.288-7.046-1.488-8.706-1.777a5.812 5.812 0 0 1-4.596-6.843 5.866 5.866 0 0 1 6.868-4.615l8.381 1.655-19.15-29.422a4.41 4.41 0 0 1 1.301-6.1 4.406 4.406 0 0 1 6.103 1.276l9.45 14.52.488.75-.259-.399c-1.327-2.038-.745-4.768 1.301-6.101a4.407 4.407 0 0 1 6.103 1.277l1.734 2.664.132.204-.075-.116c-1.327-2.038-.745-4.768 1.301-6.101a4.406 4.406 0 0 1 6.103 1.277l1.918 2.947-.286-.439.404.62c-1.327-2.038-.745-4.768 1.301-6.101a4.407 4.407 0 0 1 6.103 1.277l12.31 18.913" fill="#fff"/>
    <path d="m227.97 213.996 7.35 11.293c3.167 4.866 1.775 11.393-3.109 14.575l-10.492 6.836a10.51 10.51 0 0 1-1.762.922 12.18 12.18 0 0 1-5.915.802c-2.588-.313-5.195-.9-7.773-1.349l-9.51-1.65c-1.66-.288-7.046-1.488-8.706-1.777a5.812 5.812 0 0 1-4.596-6.843 5.866 5.866 0 0 1 6.868-4.615l8.381 1.655-19.15-29.422a4.41 4.41 0 0 1 1.301-6.1 4.406 4.406 0 0 1 6.103 1.276l9.45 14.52.488.75-.259-.399c-1.327-2.038-.745-4.768 1.301-6.101a4.407 4.407 0 0 1 6.103 1.277l1.734 2.664.132.204-.075-.116c-1.327-2.038-.745-4.768 1.301-6.101a4.406 4.406 0 0 1 6.103 1.277l1.918 2.947-.286-.439.404.62c-1.327-2.038-.745-4.768 1.301-6.101a4.407 4.407 0 0 1 6.103 1.277l12.31 18.913" stroke="#494E8F" stroke-width="3.807" stroke-linecap="round" stroke-linejoin="round"/>
    <defs>
        <linearGradient id="nkjyidls4b" x1="138.961" y1="106.652" x2="138.961" y2="228.541" gradientUnits="userSpaceOnUse">
            <stop stop-color="#1BBCFE"/>
            <stop offset="1" stop-color="#1F7AF0"/>
        </linearGradient>
        <filter id="t90784m0za" x="62.818" y="99.038" width="152.285" height="152.346" filterUnits="userSpaceOnUse" color-interpolation-filters="sRGB">
            <feFlood flood-opacity="0" result="BackgroundImageFix"/>
            <feColorMatrix in="SourceAlpha" values="0 0 0 0 0 0 0 0 0 0 0 0 0 0 0 0 0 0 127 0" result="hardAlpha"/>
            <feOffset dy="7.614"/>
            <feGaussianBlur stdDeviation="7.614"/>
            <feComposite in2="hardAlpha" operator="out"/>
            <feColorMatrix values="0 0 0 0 0.286275 0 0 0 0 0.305882 0 0 0 0 0.560784 0 0 0 0.4 0"/>
            <feBlend in2="BackgroundImageFix" result="effect1_dropShadow_224_62999"/>
            <feBlend in="SourceGraphic" in2="effect1_dropShadow_224_62999" result="shape"/>
        </filter>
    </defs>
</svg>
